<svg width="20" height="20" viewBox="0 0 20 20" fill="none" xmlns="http://www.w3.org/2000/svg">
<path d="M9.84444 5.97741C9.14444 5.34464 6.79556 4.09719 3 4.1695C3 7.35141 3 13.8117 3 16.6441C4.58148 16.403 8.16444 16.3367 9.84444 18M9.84444 5.97741C9.84444 7.75519 9.84444 12.6486 9.84444 18M9.84444 5.97741C10.1296 4.77214 11.2911 2.28927 13.6556 2C13.6556 2.66816 13.6556 3.40216 13.6556 4.1695M9.84444 18C10.5289 15.1073 12.6704 13.7815 13.6556 13.4802C13.6556 11.5888 13.6556 7.55474 13.6556 4.1695M9.84444 18C10.4667 17.307 12.7689 15.9932 17 16.2825C17 11.2927 17 6.42938 17 4.62147V4.1695H13.6556" stroke="currentColor"/>
</svg>
