<svg width="24" height="24" viewBox="0 0 24 24" fill="none" xmlns="http://www.w3.org/2000/svg">
<path d="M13.2484 0.75C13.2484 0.551088 13.1694 0.360322 13.0288 0.21967C12.8881 0.0790176 12.6973 0 12.4984 0C12.2995 0 12.1088 0.0790176 11.9681 0.21967C11.8275 0.360322 11.7484 0.551088 11.7484 0.75V1.8H7.24844C6.57214 1.8 5.92353 2.06866 5.44531 2.54688C4.9671 3.0251 4.69844 3.6737 4.69844 4.35V9.45C4.69844 10.1263 4.9671 10.7749 5.44531 11.2531C5.92353 11.7313 6.57214 12 7.24844 12H17.7484C18.4247 12 19.0733 11.7313 19.5516 11.2531C20.0298 10.7749 20.2984 10.1263 20.2984 9.45V4.35C20.2984 3.6737 20.0298 3.0251 19.5516 2.54688C19.0733 2.06866 18.4247 1.8 17.7484 1.8H13.2484V0.75ZM9.49844 8.4C9.10061 8.4 8.71908 8.24197 8.43778 7.96066C8.15647 7.67936 7.99844 7.29782 7.99844 6.9C7.99844 6.50218 8.15647 6.12064 8.43778 5.83934C8.71908 5.55804 9.10061 5.4 9.49844 5.4C9.89626 5.4 10.2778 5.55804 10.5591 5.83934C10.8404 6.12064 10.9984 6.50218 10.9984 6.9C10.9984 7.29782 10.8404 7.67936 10.5591 7.96066C10.2778 8.24197 9.89626 8.4 9.49844 8.4ZM16.9984 6.9C16.9984 7.29782 16.8404 7.67936 16.5591 7.96066C16.2778 8.24197 15.8963 8.4 15.4984 8.4C15.1006 8.4 14.7191 8.24197 14.4378 7.96066C14.1565 7.67936 13.9984 7.29782 13.9984 6.9C13.9984 6.50218 14.1565 6.12064 14.4378 5.83934C14.7191 5.55804 15.1006 5.4 15.4984 5.4C15.8963 5.4 16.2778 5.55804 16.5591 5.83934C16.8404 6.12064 16.9984 6.50218 16.9984 6.9ZM2.89844 16.95C2.89844 16.2737 3.1671 15.6251 3.64531 15.1469C4.12353 14.6687 4.77214 14.4 5.44844 14.4H19.5484C20.2247 14.4 20.8733 14.6687 21.3516 15.1469C21.8298 15.6251 22.0984 16.2737 22.0984 16.95V17.58C22.0984 19.4724 21.1774 21.1128 19.4968 22.251C17.8384 23.3742 15.4624 24 12.4984 24C9.53444 24 7.15844 23.3742 5.50004 22.251C3.81944 21.1128 2.89844 19.4724 2.89844 17.58V16.95Z" fill="currentColor"/>
</svg>
