<svg width="24" height="24" viewBox="0 0 24 24" fill="none" xmlns="http://www.w3.org/2000/svg">
<g clip-path="url(#clip0_4972_8834)">
<path d="M9 4.45033e-06C9.774 4.45033e-06 10.494 0.225605 11.1 0.614404V6.3H9.4248C9.21594 5.78368 8.834 5.35608 8.34445 5.09048C7.8549 4.82487 7.28821 4.73781 6.7415 4.8442C6.19479 4.95059 5.70211 5.24381 5.34788 5.67361C4.99365 6.10342 4.79994 6.64304 4.79994 7.2C4.79994 7.75697 4.99365 8.29659 5.34788 8.72639C5.70211 9.1562 6.19479 9.44942 6.7415 9.55581C7.28821 9.6622 7.8549 9.57513 8.34445 9.30953C8.834 9.04392 9.21594 8.61632 9.4248 8.1H11.1V23.094C10.3203 23.6826 9.36976 24.0007 8.3928 24C6.3216 24 4.5588 22.5756 4.0404 20.64C2.91332 20.4594 1.88751 19.883 1.14703 19.0143C0.406553 18.1456 -0.000115174 17.0415 2.44679e-08 15.9V15.6C2.44679e-08 14.4636 0.396 13.422 1.056 12.6H5.4C5.62269 12.6 5.83747 12.6826 6.00282 12.8318C6.16816 12.9809 6.27234 13.1861 6.2952 13.4076L6.3 13.5V13.9752C5.78368 14.1841 5.35608 14.566 5.09047 15.0556C4.82487 15.5451 4.7378 16.1118 4.84419 16.6585C4.95058 17.2052 5.2438 17.6979 5.67361 18.0521C6.10341 18.4063 6.64304 18.6001 7.2 18.6001C7.75696 18.6001 8.29659 18.4063 8.72639 18.0521C9.1562 17.6979 9.44942 17.2052 9.55581 16.6585C9.6622 16.1118 9.57513 15.5451 9.30953 15.0556C9.04392 14.566 8.61632 14.1841 8.1 13.9752V13.5L8.0856 13.224C8.01729 12.5592 7.70489 11.9434 7.20882 11.4957C6.71275 11.0479 6.06826 10.8001 5.4 10.8H2.1768C1.68093 10.1605 1.36052 9.40259 1.2472 8.60129C1.13389 7.8 1.23161 6.98301 1.5307 6.23104C1.82979 5.47908 2.3199 4.81816 2.95261 4.31359C3.58532 3.80902 4.33873 3.47827 5.1384 3.354C5.26997 2.42351 5.73309 1.5718 6.44259 0.955566C7.15209 0.339329 8.06025 2.24887e-06 9 4.45033e-06ZM15 4.45033e-06C15.9398 2.24887e-06 16.8479 0.339329 17.5574 0.955566C18.2669 1.5718 18.73 2.42351 18.8616 3.354C19.7191 3.48764 20.5222 3.85853 21.1799 4.42474C21.8376 4.99095 22.3238 5.7299 22.5835 6.55802C22.8432 7.38614 22.866 8.27039 22.6494 9.1108C22.4327 9.95121 21.9853 10.7142 21.3576 11.3136C22.1518 11.7133 22.8194 12.3256 23.286 13.0825C23.7526 13.8393 23.9998 14.7109 24 15.6V15.9C24.0001 17.0415 23.5934 18.1456 22.853 19.0143C22.1125 19.883 21.0867 20.4594 19.9596 20.64C19.4424 22.5756 17.6784 24 15.6072 24C14.6302 24.0007 13.6797 23.6826 12.9 23.094V17.4H15C15.7161 17.4 16.4028 17.1155 16.9092 16.6092C17.4155 16.1028 17.7 15.4161 17.7 14.7V13.6224C18.216 13.4136 18.6433 13.0318 18.9087 12.5425C19.1741 12.0531 19.2611 11.4868 19.1547 10.9404C19.0483 10.394 18.7552 9.90157 18.3256 9.54757C17.896 9.19356 17.3567 8.99998 16.8 9C16.2441 9.0014 15.706 9.19572 15.2774 9.54978C14.8489 9.90384 14.5565 10.3957 14.4503 10.9413C14.344 11.487 14.4305 12.0526 14.6949 12.5415C14.9593 13.0305 15.3852 13.4125 15.9 13.6224V14.7C15.9 14.9387 15.8052 15.1676 15.6364 15.3364C15.4676 15.5052 15.2387 15.6 15 15.6H12.9V0.614404C13.5265 0.212177 14.2555 -0.00112348 15 4.45033e-06ZM7.2 15.6C7.35913 15.6 7.51174 15.6632 7.62426 15.7757C7.73679 15.8883 7.8 16.0409 7.8 16.2C7.8 16.3591 7.73679 16.5117 7.62426 16.6243C7.51174 16.7368 7.35913 16.8 7.2 16.8C7.04087 16.8 6.88826 16.7368 6.77574 16.6243C6.66321 16.5117 6.6 16.3591 6.6 16.2C6.6 16.0409 6.66321 15.8883 6.77574 15.7757C6.88826 15.6632 7.04087 15.6 7.2 15.6ZM16.8 10.8C16.9591 10.8 17.1117 10.8632 17.2243 10.9757C17.3368 11.0883 17.4 11.2409 17.4 11.4C17.4 11.5591 17.3368 11.7117 17.2243 11.8243C17.1117 11.9368 16.9591 12 16.8 12C16.6409 12 16.4883 11.9368 16.3757 11.8243C16.2632 11.7117 16.2 11.5591 16.2 11.4C16.2 11.2409 16.2632 11.0883 16.3757 10.9757C16.4883 10.8632 16.6409 10.8 16.8 10.8ZM7.2 6.6C7.35913 6.6 7.51174 6.66322 7.62426 6.77574C7.73679 6.88826 7.8 7.04087 7.8 7.2C7.8 7.35913 7.73679 7.51175 7.62426 7.62427C7.51174 7.73679 7.35913 7.8 7.2 7.8C7.04087 7.8 6.88826 7.73679 6.77574 7.62427C6.66321 7.51175 6.6 7.35913 6.6 7.2C6.6 7.04087 6.66321 6.88826 6.77574 6.77574C6.88826 6.66322 7.04087 6.6 7.2 6.6Z" fill="currentColor"/>
</g>
<defs>
<clipPath id="clip0_4972_8834">
<rect width="24" height="24" fill="white"/>
</clipPath>
</defs>
</svg>
