<svg width="24" height="24" viewBox="0 0 24 24" fill="none" xmlns="http://www.w3.org/2000/svg">
<g clip-path="url(#clip0_4972_8765)">
<path d="M20.4464 16.6892H17.399C17.2191 16.6894 17.0416 16.7302 16.8796 16.8085C16.7177 16.8869 16.5755 17.0008 16.4637 17.1418L12.9336 21.5469C12.8206 21.6882 12.6772 21.8024 12.514 21.8808C12.3508 21.9593 12.1721 22 11.9911 22C11.8101 22 11.6313 21.9593 11.4682 21.8808C11.305 21.8024 11.1616 21.6882 11.0485 21.5469L7.51845 17.1418C7.40656 17.0007 7.2642 16.8866 7.10202 16.8083C6.93984 16.7299 6.76204 16.6892 6.58192 16.6892H3.55028C1.54447 16.6892 -0.0703125 15.0744 -0.0703125 13.0686V4.62059C-0.0703125 2.61478 1.54447 1 3.55028 1H20.4464C22.4534 1 24.067 2.61478 24.067 4.62059V13.0686C24.067 15.0744 22.4534 16.6892 20.4464 16.6892Z" fill="currentColor"/>
</g>
<defs>
<clipPath id="clip0_4972_8765">
<rect width="24" height="24" fill="white"/>
</clipPath>
</defs>
</svg>
