<svg width="35" height="35" viewBox="0 0 35 35" fill="none" xmlns="http://www.w3.org/2000/svg">
<path d="M11.281 28.5884L21.3675 18.34C21.5888 18.1164 21.7128 17.8145 21.7128 17.5C21.7128 17.1854 21.5888 16.8836 21.3675 16.66L11.2832 6.41154C11.0621 6.18654 10.9382 5.88371 10.9382 5.56826C10.9382 5.25281 11.0621 4.94997 11.2832 4.72498C11.3912 4.61418 11.5203 4.52613 11.6629 4.46601C11.8054 4.40589 11.9586 4.37492 12.1133 4.37492C12.2681 4.37492 12.4212 4.40589 12.5638 4.46601C12.7064 4.52613 12.8355 4.61418 12.9435 4.72498L23.0279 14.9712C23.6905 15.6461 24.0618 16.5542 24.0618 17.5C24.0618 18.4458 23.6905 19.3538 23.0279 20.0287L12.9435 30.275C12.8354 30.3861 12.7062 30.4744 12.5634 30.5348C12.4206 30.5951 12.2672 30.6262 12.1122 30.6262C11.9572 30.6262 11.8038 30.5951 11.661 30.5348C11.5183 30.4744 11.389 30.3861 11.281 30.275C11.0599 30.05 10.936 29.7471 10.936 29.4317C10.936 29.1162 11.0599 28.8134 11.281 28.5884Z" fill="currentColor"/>
</svg>
