<svg width="35" height="35" viewBox="0 0 35 35" fill="none" xmlns="http://www.w3.org/2000/svg">
<path d="M23.719 28.5884L13.6325 18.34C13.4112 18.1164 13.2872 17.8145 13.2872 17.5C13.2872 17.1854 13.4112 16.8836 13.6325 16.66L23.7168 6.41154C23.9379 6.18654 24.0618 5.88371 24.0618 5.56826C24.0618 5.25281 23.9379 4.94997 23.7168 4.72498C23.6088 4.61418 23.4797 4.52613 23.3371 4.46601C23.1946 4.40589 23.0414 4.37492 22.8867 4.37492C22.7319 4.37492 22.5788 4.40589 22.4362 4.46601C22.2936 4.52613 22.1645 4.61418 22.0565 4.72498L11.9721 14.9712C11.3095 15.6461 10.9382 16.5542 10.9382 17.5C10.9382 18.4458 11.3095 19.3538 11.9721 20.0287L22.0565 30.275C22.1646 30.3861 22.2938 30.4744 22.4366 30.5348C22.5794 30.5951 22.7328 30.6262 22.8878 30.6262C23.0428 30.6262 23.1962 30.5951 23.339 30.5348C23.4817 30.4744 23.611 30.3861 23.719 30.275C23.9401 30.05 24.064 29.7471 24.064 29.4317C24.064 29.1162 23.9401 28.8134 23.719 28.5884Z" fill="currentColor"/>
</svg>
