<svg width="24" height="24" viewBox="0 0 24 24" fill="none" xmlns="http://www.w3.org/2000/svg">
<path fill-rule="evenodd" clip-rule="evenodd" d="M6.78566 2.78789L2.78487 6.79171L5.90197 9.91184V11.1254H4.82763L0.5 6.79171L6.78566 0.5L11.1193 4.83671V6.16224H10.157L6.78566 2.78789Z" fill="currentColor"/>
<path fill-rule="evenodd" clip-rule="evenodd" d="M11.1194 7.78134H9.79991L7.51807 10.0662V11.1254H8.74675L11.1194 8.74976V7.78134Z" fill="currentColor"/>
<path fill-rule="evenodd" clip-rule="evenodd" d="M11.1194 15.102L8.76188 12.7415H7.51807V13.7855L9.99057 16.2611H11.1194V15.102Z" fill="currentColor"/>
<path fill-rule="evenodd" clip-rule="evenodd" d="M11.1194 17.8771H9.99062L6.79785 21.0729L2.79708 17.0691L5.90206 13.961V12.7415H4.83377L0.512207 17.0691L6.79785 23.3608L11.1194 19.0362V17.8771Z" fill="currentColor"/>
<path fill-rule="evenodd" clip-rule="evenodd" d="M12.7354 6.16224V4.86697L17.0993 0.5L23.385 6.79171L19.0573 11.1254H17.8498V10.042L21.1001 6.79171L17.0993 2.78789L13.728 6.16224H12.7354Z" fill="currentColor"/>
<path fill-rule="evenodd" clip-rule="evenodd" d="M12.7354 7.78134V8.7195L15.1413 11.1254H16.2338V9.93305L14.0851 7.78134H12.7354Z" fill="currentColor"/>
<path fill-rule="evenodd" clip-rule="evenodd" d="M12.7354 15.1534V16.2611H13.9186L16.2338 13.9399V12.7415H15.1473L12.7354 15.1534Z" fill="currentColor"/>
<path fill-rule="evenodd" clip-rule="evenodd" d="M12.7354 17.8771V18.9847L17.1084 23.3608L23.3971 17.0691L19.0725 12.7415H17.8498V13.8067L21.1092 17.0691L17.1084 21.0729L13.9186 17.8771H12.7354Z" fill="currentColor"/>
</svg>
