<svg width="32" height="32" viewBox="0 0 32 32" fill="none" xmlns="http://www.w3.org/2000/svg">
<path d="M11.6354 5.9944L14.4043 8.77237L14.0327 9.7691L9.28267 13.8171L9.28267 13.6324L6.04818 10.6434L6.13418 8.73981L9.07586 5.89773L11.6354 5.9944Z" fill="currentColor"/>
<path d="M20.388 5.9944L17.6192 8.77237L17.9908 9.7691L22.7408 13.8171L22.7408 13.6324L25.9753 10.6434L25.8893 8.73981L22.9476 5.89773L20.388 5.9944Z" fill="currentColor"/>
<path d="M20.6302 26.0749L17.8613 23.297L18.233 22.3002L22.983 18.2523L22.983 18.4369L26.2174 21.426L26.1314 23.3295L23.1898 26.1716L20.6302 26.0749Z" fill="currentColor"/>
<path d="M11.3932 26.0749L14.1621 23.297L13.7905 22.3002L9.04048 18.2523L9.04048 18.4369L5.806 21.426L5.89199 23.3295L8.83367 26.1716L11.3932 26.0749Z" fill="currentColor"/>
<g clip-path="url(#clip0_315_45)">
<path fill-rule="evenodd" clip-rule="evenodd" d="M10.3511 6.0202L6.0169 10.3577L9.39376 13.7378V15.0525H8.22989L3.54163 10.3577L10.3511 3.54166L15.0459 8.23976V9.67575H14.0034L10.3511 6.0202Z" fill="currentColor"/>
<path fill-rule="evenodd" clip-rule="evenodd" d="M15.046 11.4298H13.6165L11.1445 13.905V15.0525H12.4756L15.046 12.4789V11.4298Z" fill="currentColor"/>
<path fill-rule="evenodd" clip-rule="evenodd" d="M15.046 19.3605L12.492 16.8033H11.1445V17.9343L13.8231 20.6162H15.046V19.3605Z" fill="currentColor"/>
<path fill-rule="evenodd" clip-rule="evenodd" d="M15.0461 22.3668H13.8232L10.3644 25.829L6.03021 21.4915L9.39394 18.1244V16.8033H8.23662L3.55493 21.4915L10.3644 28.3075L15.0461 23.6225V22.3668Z" fill="currentColor"/>
<path fill-rule="evenodd" clip-rule="evenodd" d="M16.7966 9.67575V8.27254L21.5242 3.54166L28.3337 10.3577L23.6454 15.0525H22.3372V13.8788L25.8584 10.3577L21.5242 6.0202L17.8719 9.67575H16.7966Z" fill="currentColor"/>
<path fill-rule="evenodd" clip-rule="evenodd" d="M16.7966 11.4298V12.4461L19.403 15.0525H20.5866V13.7608L18.2588 11.4298H16.7966Z" fill="currentColor"/>
<path fill-rule="evenodd" clip-rule="evenodd" d="M16.7966 19.4162V20.6162H18.0784L20.5866 18.1016V16.8033H19.4095L16.7966 19.4162Z" fill="currentColor"/>
<path fill-rule="evenodd" clip-rule="evenodd" d="M16.7966 22.3668V23.5667L21.534 28.3075L28.3468 21.4915L23.6618 16.8033H22.3372V17.9572L25.8682 21.4915L21.534 25.829L18.0784 22.3668H16.7966Z" fill="currentColor"/>
</g>
<defs>
<clipPath id="clip0_315_45">
<rect width="26" height="26" fill="white" transform="translate(3 3)"/>
</clipPath>
</defs>
</svg>
