<svg width="24" height="24" viewBox="0 0 24 24" fill="none" xmlns="http://www.w3.org/2000/svg">
<path d="M9.24046 1.56846C8.68224 1.71818 8.15153 2.15945 7.89207 2.6874C7.71124 3.05381 7.66406 3.32172 7.66406 3.92847V4.40913L8.18691 4.49581C8.46995 4.54309 8.71762 4.57855 8.73727 4.57855C8.753 4.57855 8.76479 4.3067 8.76479 3.97574C8.76479 3.43204 8.77265 3.35718 8.85914 3.17988C8.96528 2.94743 9.16184 2.76225 9.39771 2.67164C9.55496 2.61254 10.0464 2.6086 15.1726 2.61648L20.7745 2.6283L20.9357 2.71497C21.0222 2.76225 21.1598 2.87257 21.2384 2.95925C21.5215 3.27444 21.5018 2.65588 21.5018 11.3394C21.5018 20.1294 21.5293 19.3808 21.1991 19.7472C21.0772 19.8811 20.9632 19.9639 20.8099 20.019C20.6016 20.0978 20.519 20.1018 18.2193 20.1018H15.8409V20.6534V21.205H18.2114C20.8374 21.205 20.8885 21.201 21.376 20.9528C21.8556 20.7125 22.2369 20.2948 22.4532 19.7866C22.5436 19.5738 22.5436 19.5463 22.5632 17.726L22.5829 15.8821L23.035 15.8624C23.5382 15.8388 23.6325 15.8033 23.7504 15.5669C23.8133 15.4488 23.8212 15.3069 23.8212 14.4165C23.8212 13.0139 23.8212 13.01 23.0153 13.01H22.5632V12.419V11.828H22.976C23.4595 11.828 23.6246 11.7768 23.7426 11.5837C23.8173 11.4616 23.8212 11.3867 23.8212 10.4096C23.8212 8.98731 23.8251 8.99125 23.0271 8.99125H22.5632V8.4042V7.81715L23.0271 7.80533C23.8251 7.77775 23.8291 7.76987 23.8133 6.31605C23.7976 4.9489 23.833 5.008 23.0546 4.97254L22.5829 4.95284L22.5632 4.00726L22.5436 3.06169L22.3745 2.71103C22.0915 2.13581 21.5962 1.71818 21.0104 1.56452C20.6684 1.47784 9.57068 1.47784 9.24046 1.56846Z" fill="currentColor"/>
<path d="M6.93326 5.44554C5.28991 5.61102 3.88246 6.84418 3.43034 8.51073C3.33992 8.85349 3.32812 8.95987 3.32812 9.56266C3.33206 10.1576 3.33992 10.2758 3.43427 10.6146C3.83921 12.1275 5.03044 13.3055 6.52832 13.668C6.99223 13.7783 7.84535 13.7625 8.34465 13.6286C9.50835 13.3213 10.4833 12.5372 11.022 11.4774C11.7611 10.0354 11.6038 8.34131 10.617 7.02541C9.77176 5.90256 8.3761 5.30371 6.93326 5.44554Z" fill="currentColor"/>
<path d="M13.7714 5.76447C13.5473 5.87479 13.1266 6.33181 12.989 6.61154C12.8829 6.82823 12.875 6.87156 12.875 7.33646C12.875 7.7659 12.8907 7.87228 12.9851 8.18353C13.3979 9.49155 14.6166 11.0951 15.8511 11.9579C16.5902 12.474 17.577 12.9034 18.1431 12.9586C18.5756 12.998 18.9923 12.8089 19.3973 12.3794C19.6331 12.1312 19.7707 11.8791 19.7747 11.6979C19.7747 11.4299 19.6882 11.3433 18.9058 10.8468C18.1392 10.3583 17.9308 10.2598 17.7461 10.3071C17.6871 10.3229 17.5102 10.4726 17.3411 10.6499C17.117 10.8784 17.0148 10.9611 16.9401 10.9611C16.8772 10.9611 16.7278 10.8784 16.5666 10.7562C15.9297 10.2795 15.4658 9.79886 14.9587 9.08969C14.6206 8.61691 14.6206 8.55781 14.9587 8.25444C15.5169 7.75803 15.513 7.62407 14.9036 6.5485C14.7228 6.23331 14.5419 5.93388 14.4948 5.88661C14.2943 5.66992 14.0466 5.62658 13.7714 5.76447Z" fill="currentColor"/>
<path d="M4.22602 14.6094C2.20539 14.9679 0.798029 16.1932 0.235871 18.0923C0.0550365 18.703 0 19.1482 0 20.0031C0 20.8266 0.0393118 21.063 0.228008 21.4176C0.491397 21.91 1.13611 22.3671 1.71792 22.4616C1.91055 22.4971 3.51447 22.505 7.54786 22.4971L13.1105 22.4853L13.3699 22.3986C14.0579 22.1622 14.565 21.6224 14.7223 20.9605C14.8048 20.6138 14.8009 19.2664 14.7223 18.7621C14.5454 17.6865 13.9871 16.6148 13.2166 15.882C12.5129 15.2161 11.6324 14.7985 10.5198 14.6055C10.0048 14.5188 9.83188 14.5267 9.66677 14.6488C9.44662 14.8182 8.90412 15.0585 8.49921 15.1649C7.75228 15.3619 6.70266 15.3265 5.98325 15.0822C5.70807 14.9876 5.25599 14.767 5.05156 14.6291C4.91004 14.5306 4.6899 14.5267 4.22602 14.6094Z" fill="currentColor"/>
</svg>
