<svg width="40" height="40" viewBox="0 0 40 40" fill="none" xmlns="http://www.w3.org/2000/svg">
<path d="M20.044 40H19.956C8.95239 40 0 31.0476 0 20.044V19.956C0 8.95239 8.95239 0 19.956 0H20.044C31.0476 0 40 8.95239 40 19.956V20.044C40 31.0476 31.0476 40 20.044 40ZM19.956 1.35396C9.69842 1.35396 1.35396 9.69842 1.35396 19.956V20.044C1.35396 30.3016 9.69842 38.646 19.956 38.646H20.044C30.3016 38.646 38.646 30.3016 38.646 20.044V19.956C38.646 9.69842 30.3016 1.35396 20.044 1.35396H19.956Z" fill="currentColor"/>
<g clip-path="url(#clip0_3902_40)">
<mask id="mask0_3902_40" style="mask-type:luminance" maskUnits="userSpaceOnUse" x="9" y="8" width="24" height="24">
<path d="M32.0002 8.99902H9.00018V31.8684H32.0002V8.99902Z" fill="white"/>
</mask>
<g mask="url(#mask0_3902_40)">
<path d="M20.4564 31.8684H20.5481C25.1166 31.8684 27.7685 31.4111 29.6468 29.5983C31.5621 27.6753 32.0043 25.0215 32.0043 20.4977V20.3697C32.0043 15.8473 31.5621 13.2112 29.6468 11.2691C27.7698 9.4563 25.0988 8.99902 20.5495 8.99902H20.4577C15.8892 8.99902 13.236 9.4563 11.3577 11.2691C9.44239 13.1921 9.00018 15.8473 9.00018 20.3697V20.4977C9.00018 25.0201 9.44239 27.6562 11.3577 29.5983C13.2182 31.4111 15.8892 31.8684 20.4564 31.8684Z" fill="currentColor"/>
<path d="M29.2677 20.2616C29.2677 20.1745 29.1966 20.1024 29.1089 20.0983C25.9642 19.9799 24.0503 19.5811 22.7114 18.2501C21.3697 16.9164 20.97 15.0124 20.8508 11.8795C20.8481 11.7924 20.7755 11.7217 20.6866 11.7217H20.3197C20.232 11.7217 20.1595 11.7924 20.1554 11.8795C20.0363 15.0111 19.6365 16.9164 18.2948 18.2501C16.9545 19.5825 15.042 19.9799 11.8973 20.0983C11.8097 20.101 11.7385 20.1732 11.7385 20.2616V20.6264C11.7385 20.7135 11.8097 20.7856 11.8973 20.7897C15.042 20.9081 16.9559 21.3068 18.2948 22.6378C19.6338 23.9688 20.0335 25.8674 20.154 28.988C20.1567 29.0751 20.2293 29.1459 20.3183 29.1459H20.6866C20.7742 29.1459 20.8467 29.0751 20.8508 28.988C20.9713 25.8674 21.3711 23.9688 22.71 22.6378C24.0503 21.3055 25.9629 20.9081 29.1076 20.7897C29.1952 20.7869 29.2664 20.7148 29.2664 20.6264V20.2616H29.2677Z" fill="white"/>
</g>
</g>
<defs>
<clipPath id="clip0_3902_40">
<rect width="23" height="23" fill="white" transform="translate(9.00018 8.99902)"/>
</clipPath>
</defs>
</svg>
