<svg width="40" height="40" viewBox="0 0 40 40" fill="none" xmlns="http://www.w3.org/2000/svg">
<path d="M20.044 40H19.956C8.95238 40 0 31.0476 0 20.044V19.956C0 8.9524 8.95238 0 19.956 0H20.044C31.0476 0 40 8.9524 40 19.956V20.044C40 31.0476 31.0476 40 20.044 40ZM19.956 1.35396C9.69841 1.35396 1.35396 9.69843 1.35396 19.956V20.044C1.35396 30.3016 9.69841 38.646 19.956 38.646H20.044C30.3016 38.646 38.646 30.3016 38.646 20.044V19.956C38.646 9.69843 30.3016 1.35396 20.044 1.35396H19.956Z" fill="currentColor"/>
<path d="M22.6907 15.5154V19.7248H27.898L27.0734 25.3952H22.6907V38.4596C21.812 38.5815 20.9129 38.6451 20.0004 38.6451C18.947 38.6451 17.9126 38.5611 16.9052 38.3987V25.3952H12.1027V19.7248H16.9052V14.5744C16.9052 11.3791 19.4953 8.7876 22.692 8.7876V8.79031C22.7015 8.79031 22.7096 8.7876 22.7191 8.7876H27.8994V13.6916H24.5145C23.5085 13.6916 22.692 14.5081 22.692 15.5141L22.6907 15.5154Z" fill="currentColor"/>
</svg>
