<svg width="23" height="22" viewBox="0 0 23 22" fill="none" xmlns="http://www.w3.org/2000/svg">
<path d="M3.9375 17.875C3.9375 18.6043 4.22723 19.3038 4.74296 19.8195C5.25868 20.3352 5.95815 20.625 6.6875 20.625H10.6406C10.6862 20.625 10.7299 20.6069 10.7622 20.5746C10.7944 20.5424 10.8125 20.4987 10.8125 20.4531V12.5468C10.8125 12.5013 10.7944 12.4575 10.7622 12.4253C10.7299 12.3931 10.6862 12.375 10.6406 12.375H4.28125C4.19008 12.375 4.10265 12.4112 4.03818 12.4757C3.97372 12.5401 3.9375 12.6276 3.9375 12.7187V17.875ZM10.8125 10.8281V6.18747H12.1875V10.8281C12.1875 10.8737 12.2056 10.9174 12.2378 10.9496C12.2701 10.9819 12.3138 11 12.3594 11H18.375C18.6092 11 18.8417 10.96 19.0625 10.8818C19.4643 10.7392 19.8121 10.4757 20.0583 10.1276C20.3044 9.77954 20.4369 9.36382 20.4375 8.93747V8.24997C20.4375 7.70297 20.2202 7.17836 19.8334 6.79157C19.4466 6.40477 18.922 6.18747 18.375 6.18747H16.633C16.6181 6.18724 16.6034 6.18309 16.5906 6.17545C16.5777 6.16781 16.567 6.15694 16.5597 6.14392C16.5523 6.13089 16.5484 6.11617 16.5485 6.1012C16.5485 6.08623 16.5525 6.07153 16.56 6.05857C16.9578 5.38692 17.087 4.5897 16.9217 3.82678C16.7564 3.06386 16.3088 2.39164 15.6686 1.9449C15.0285 1.49816 14.2431 1.30993 13.47 1.41796C12.6969 1.52599 11.9932 1.92229 11.5 2.5274C11.0068 1.92229 10.3031 1.52599 9.53001 1.41796C8.7569 1.30993 7.97152 1.49816 7.33136 1.9449C6.69121 2.39164 6.2436 3.06386 6.07829 3.82678C5.91297 4.5897 6.04218 5.38692 6.44 6.05857C6.44749 6.07153 6.45146 6.08623 6.45152 6.1012C6.45158 6.11617 6.44773 6.13089 6.44035 6.14392C6.43297 6.15694 6.42231 6.16781 6.40944 6.17545C6.39657 6.18309 6.38192 6.18724 6.36695 6.18747H4.625C4.07799 6.18747 3.55339 6.40477 3.16659 6.79157C2.7798 7.17836 2.5625 7.70297 2.5625 8.24997V8.93747C2.56311 9.36382 2.69558 9.77954 2.94174 10.1276C3.18791 10.4757 3.53573 10.7392 3.9375 10.8818C4.15827 10.96 4.39078 11 4.625 11H10.6406C10.6862 11 10.7299 10.9819 10.7622 10.9496C10.7944 10.9174 10.8125 10.8737 10.8125 10.8281ZM12.1875 4.46872C12.1875 4.12879 12.2883 3.79649 12.4772 3.51384C12.666 3.23119 12.9345 3.01089 13.2485 2.88081C13.5626 2.75072 13.9082 2.71668 14.2416 2.783C14.575 2.84932 14.8812 3.01301 15.1216 3.25338C15.362 3.49376 15.5257 3.80001 15.592 4.13341C15.6583 4.46682 15.6243 4.8124 15.4942 5.12646C15.3641 5.44052 15.1438 5.70895 14.8611 5.89781C14.5785 6.08667 14.2462 6.18747 13.9062 6.18747H12.1875V4.46872ZM8.97086 2.75427C9.20633 2.73739 9.44275 2.7692 9.66538 2.84772C9.88801 2.92623 10.0921 3.04976 10.2649 3.21062C10.4377 3.37147 10.5755 3.5662 10.6697 3.78265C10.7639 3.99911 10.8125 4.23265 10.8125 4.46872V6.18747H9.09375C8.64932 6.18633 8.22261 6.01308 7.90317 5.70409C7.58374 5.39509 7.39641 4.97437 7.38051 4.53022C7.36461 4.08607 7.52137 3.65303 7.8179 3.32199C8.11442 2.99094 8.52765 2.78762 8.97086 2.7547V2.75427ZM12.3594 20.625H16.3125C17.0418 20.625 17.7413 20.3352 18.257 19.8195C18.7728 19.3038 19.0625 18.6043 19.0625 17.875V12.7187C19.0625 12.6276 19.0263 12.5401 18.9618 12.4757C18.8974 12.4112 18.8099 12.375 18.7188 12.375H12.3594C12.3138 12.375 12.2701 12.3931 12.2378 12.4253C12.2056 12.4575 12.1875 12.5013 12.1875 12.5468V20.4531C12.1875 20.4987 12.2056 20.5424 12.2378 20.5746C12.2701 20.6069 12.3138 20.625 12.3594 20.625Z" fill="currentColor"/>
</svg>
