<svg width="24" height="24" viewBox="0 0 24 24" fill="none" xmlns="http://www.w3.org/2000/svg">
<path d="M14.7209 22.66C19.1679 21.53 22.5329 17.689 22.9549 13H17.9739C17.7879 16.547 16.6179 19.847 14.7209 22.66ZM22.9549 11C22.5329 6.31 19.1649 2.468 14.7169 1.338C16.6149 4.152 17.7869 7.452 17.9739 11H22.9549ZM9.28395 1.338C4.83395 2.468 1.46795 6.31 1.04395 11H6.02595C6.21294 7.452 7.38495 4.152 9.28395 1.338ZM1.04495 13C1.25263 15.2631 2.15554 17.4065 3.62977 19.136C5.104 20.8655 7.07732 22.0965 9.27895 22.66C7.38195 19.847 6.21195 16.547 6.02595 13H1.04495ZM11.9999 22.962C9.69295 20.177 8.24794 16.741 8.02994 13H15.9709C15.7509 16.74 14.3069 20.177 12.0009 22.962M11.9999 1.043C14.3069 3.827 15.7499 7.262 15.9699 11H8.02994C8.24994 7.262 9.69395 3.827 11.9999 1.043Z" fill="currentColor"/>
</svg>
