<svg width="32" height="32" viewBox="0 0 32 32" fill="none" xmlns="http://www.w3.org/2000/svg">
<g clip-path="url(#clip0_4810_6662)">
<path d="M23.7494 27H8.99943C8.73421 27 8.47986 26.8946 8.29232 26.7071C8.10478 26.5196 7.99943 26.2652 7.99943 26V21.4763L4.55193 19.8975C4.32413 19.7833 4.14851 19.5865 4.06093 19.3472C3.97335 19.1079 3.98041 18.8443 4.08068 18.61L6.99943 13C6.99943 11.2954 7.43515 9.61916 8.26521 8.13036C9.09527 6.64155 10.2921 5.38964 11.7421 4.49349C13.1921 3.59735 14.8471 3.08673 16.5499 3.01011C18.2528 2.93349 19.947 3.29342 21.4716 4.05573C22.9962 4.81803 24.3006 5.95741 25.261 7.36565C26.2214 8.7739 26.8059 10.4043 26.959 12.1019C27.1121 13.7996 26.8287 15.5083 26.1357 17.0656C25.4427 18.6229 24.3631 19.9773 22.9994 21L23.7494 27Z" fill="currentColor"/>
<path d="M18 19C19.1046 19 20 18.1046 20 17C20 15.8954 19.1046 15 18 15C16.8954 15 16 15.8954 16 17C16 18.1046 16.8954 19 18 19Z" stroke="#F9F9F9" stroke-width="2" stroke-linecap="round" stroke-linejoin="round"/>
<path d="M16 11C17.1046 11 18 10.1046 18 9C18 7.89543 17.1046 7 16 7C14.8954 7 14 7.89543 14 9C14 10.1046 14.8954 11 16 11Z" stroke="#F9F9F9" stroke-width="2" stroke-linecap="round" stroke-linejoin="round"/>
<path d="M16 7.00008V3.04883" stroke="#F9F9F9" stroke-width="2" stroke-linecap="round" stroke-linejoin="round"/>
<path d="M26.7987 11H23.0012L19.2812 15.4637" stroke="#F9F9F9" stroke-width="2" stroke-linecap="round" stroke-linejoin="round"/>
</g>
<defs>
<clipPath id="clip0_4810_6662">
<rect width="32" height="32" fill="white"/>
</clipPath>
</defs>
</svg>
