<svg width="48" height="48" viewBox="0 0 48 48" fill="none" xmlns="http://www.w3.org/2000/svg">
<path d="M12.4012 42.0002H3.69375V13.9595H12.4012V42.0002ZM8.04281 10.1345C5.25844 10.1345 3 7.82829 3 5.04391C3 3.70647 3.53129 2.42381 4.47701 1.4781C5.42272 0.532393 6.70538 0.00109863 8.04281 0.00109863C9.38025 0.00109863 10.6629 0.532393 11.6086 1.4781C12.5543 2.42381 13.0856 3.70647 13.0856 5.04391C13.0856 7.82829 10.8263 10.1345 8.04281 10.1345ZM44.9906 42.0002H36.3019V28.3502C36.3019 25.097 36.2362 20.9252 31.7747 20.9252C27.2475 20.9252 26.5538 24.4595 26.5538 28.1158V42.0002H17.8556V13.9595H26.2069V17.7845H26.3287C27.4912 15.5814 30.3309 13.2564 34.5675 13.2564C43.38 13.2564 45 19.0595 45 26.597V42.0002H44.9906Z" fill="currentColor"/>
</svg>
