<svg width="40" height="40" viewBox="0 0 40 40" fill="none" xmlns="http://www.w3.org/2000/svg">
<path d="M20.044 40H19.956C8.95238 40 0 31.0476 0 20.044V19.956C0 8.95236 8.95238 0 19.956 0H20.044C31.0476 0 40 8.95236 40 19.956V20.044C40 31.0476 31.0476 40 20.044 40ZM19.956 1.35396C9.69841 1.35396 1.35396 9.69839 1.35396 19.956V20.044C1.35396 30.3016 9.69841 38.646 19.956 38.646H20.044C30.3016 38.646 38.646 30.3016 38.646 20.044V19.956C38.646 9.69839 30.3016 1.35396 20.044 1.35396H19.956Z" fill="currentColor"/>
<path d="M21.2451 7.72559C22.6279 7.72927 23.3297 7.73665 23.9357 7.75385L24.1742 7.76245C24.4495 7.77228 24.7211 7.78457 25.0493 7.79932C26.3572 7.86076 27.2495 8.0672 28.0325 8.37072C28.8438 8.68285 29.5272 9.10557 30.2106 9.78757C30.8359 10.4017 31.3195 11.1448 31.6278 11.9651C31.9314 12.7478 32.1379 13.64 32.1994 14.9487C32.2141 15.2755 32.2264 15.5471 32.2363 15.8236L32.2436 16.062C32.2621 16.6666 32.2694 17.3683 32.2719 18.7507L32.2731 19.6674V21.2772C32.2761 22.1735 32.2667 23.0698 32.2449 23.9659L32.2375 24.2043C32.2277 24.4807 32.2154 24.7523 32.2006 25.0792C32.1392 26.3879 31.9302 27.2788 31.6278 28.0628C31.3195 28.8831 30.8359 29.6262 30.2106 30.2403C29.5963 30.8654 28.853 31.3489 28.0325 31.6571C27.2495 31.9607 26.3572 32.1671 25.0493 32.2286L24.1742 32.2654L23.9357 32.2728C23.3297 32.29 22.6279 32.2986 21.2451 32.3011L20.3281 32.3023H18.7191C17.8222 32.3054 16.9252 32.296 16.0285 32.274L15.79 32.2666C15.4982 32.2556 15.2065 32.2429 14.9149 32.2286C13.607 32.1671 12.7147 31.9607 11.9305 31.6571C11.1104 31.3488 10.3675 30.8652 9.75361 30.2403C9.1279 29.6263 8.64381 28.8832 8.33516 28.0628C8.03155 27.28 7.82506 26.3879 7.7636 25.0792L7.72672 24.2043L7.72058 23.9659C7.69792 23.0698 7.68767 22.1735 7.68985 21.2772V18.7507C7.68644 17.8544 7.69546 16.9581 7.71689 16.062L7.72549 15.8236C7.73533 15.5471 7.74762 15.2755 7.76237 14.9487C7.82383 13.64 8.03033 12.7491 8.33393 11.9651C8.6433 11.1444 9.12824 10.4013 9.75484 9.78757C10.3684 9.16277 11.1108 8.67925 11.9305 8.37072C12.7147 8.0672 13.6058 7.86076 14.9149 7.79932C15.2418 7.78457 15.5147 7.77228 15.79 7.76245L16.0285 7.75508C16.9248 7.73324 17.8213 7.72382 18.7179 7.72681L21.2451 7.72559ZM19.9815 13.8698C18.3515 13.8698 16.7883 14.5171 15.6357 15.6693C14.4832 16.8216 13.8357 18.3844 13.8357 20.0139C13.8357 21.6435 14.4832 23.2063 15.6357 24.3585C16.7883 25.5108 18.3515 26.1581 19.9815 26.1581C21.6115 26.1581 23.1747 25.5108 24.3272 24.3585C25.4798 23.2063 26.1273 21.6435 26.1273 20.0139C26.1273 18.3844 25.4798 16.8216 24.3272 15.6693C23.1747 14.5171 21.6115 13.8698 19.9815 13.8698ZM19.9815 16.3274C20.4657 16.3273 20.9453 16.4226 21.3927 16.6078C21.8401 16.793 22.2466 17.0645 22.5891 17.4067C22.9316 17.749 23.2033 18.1554 23.3887 18.6026C23.5741 19.0498 23.6695 19.5292 23.6696 20.0133C23.6697 20.4974 23.5744 20.9768 23.3891 21.4241C23.2039 21.8714 22.9323 22.2779 22.59 22.6203C22.2476 22.9626 21.8412 23.2342 21.3938 23.4196C20.9465 23.6049 20.467 23.7004 19.9827 23.7004C19.0047 23.7004 18.0668 23.312 17.3753 22.6207C16.6837 21.9293 16.2952 20.9917 16.2952 20.0139C16.2952 19.0362 16.6837 18.0985 17.3753 17.4072C18.0668 16.7158 19.0047 16.3274 19.9827 16.3274M26.4358 12.0265C26.0283 12.0265 25.6375 12.1883 25.3494 12.4764C25.0613 12.7645 24.8994 13.1552 24.8994 13.5626C24.8994 13.9699 25.0613 14.3606 25.3494 14.6487C25.6375 14.9368 26.0283 15.0986 26.4358 15.0986C26.8433 15.0986 27.2341 14.9368 27.5223 14.6487C27.8104 14.3606 27.9723 13.9699 27.9723 13.5626C27.9723 13.1552 27.8104 12.7645 27.5223 12.4764C27.2341 12.1883 26.8433 12.0265 26.4358 12.0265Z" fill="currentColor"/>
</svg>
