<svg width="40" height="40" viewBox="0 0 40 40" fill="none" xmlns="http://www.w3.org/2000/svg">
<path d="M20.044 40H19.956C8.95239 40 0 31.0476 0 20.044V19.956C0 8.95239 8.95239 0 19.956 0H20.044C31.0476 0 40 8.95239 40 19.956V20.044C40 31.0476 31.0476 40 20.044 40ZM19.956 1.35396C9.69842 1.35396 1.35396 9.69842 1.35396 19.956V20.044C1.35396 30.3016 9.69842 38.646 19.956 38.646H20.044C30.3016 38.646 38.646 30.3016 38.646 20.044V19.956C38.646 9.69842 30.3016 1.35396 20.044 1.35396H19.956Z" fill="currentColor"/>
<path d="M9.89312 13.5236C9.38403 13.0511 9.13086 12.4662 9.13086 11.7702C9.13086 11.0743 9.38539 10.4636 9.89312 9.98975C10.4022 9.51721 11.0575 9.28027 11.8604 9.28027C12.6633 9.28027 13.2929 9.51721 13.8007 9.98975C14.3097 10.4623 14.5629 11.0567 14.5629 11.7702C14.5629 12.4838 14.3084 13.0511 13.8007 13.5236C13.2916 13.9961 12.6457 14.2331 11.8604 14.2331C11.0751 14.2331 10.4022 13.9961 9.89312 13.5236ZM14.1351 16.2342V30.7216H9.55734V16.2342H14.1351Z" fill="currentColor"/>
<path d="M29.374 17.6643C30.3718 18.7475 30.8701 20.2341 30.8701 22.127V30.4646H26.5226V22.7146C26.5226 21.76 26.2748 21.0181 25.7806 20.49C25.2864 19.962 24.6202 19.6966 23.7862 19.6966C22.9522 19.6966 22.286 19.9606 21.7918 20.49C21.2976 21.0181 21.0498 21.76 21.0498 22.7146V30.4646H16.6766V16.1926H21.0498V18.0854C21.4926 17.4545 22.0897 16.9562 22.8398 16.5893C23.5899 16.2223 24.4334 16.0396 25.3717 16.0396C27.0425 16.0396 28.3774 16.5811 29.374 17.6643Z" fill="currentColor"/>
</svg>
