<svg width="24" height="24" viewBox="0 0 24 24" fill="none" xmlns="http://www.w3.org/2000/svg">
<path fill-rule="evenodd" clip-rule="evenodd" d="M6.40114 8.22111C5.95218 7.74852 5.95218 7.00703 6.40114 6.53444C6.88388 6.0263 7.69385 6.0263 8.17659 6.53444L19.9988 18.9789C20.4478 19.4515 20.4478 20.193 19.9988 20.6656C19.5161 21.1737 18.7061 21.1737 18.2234 20.6656L6.40114 8.22111Z" fill="currentColor"/>
<path d="M4.40002 8.2L3.40002 7.2L2.40002 8.2L3.40002 9.2L4.40002 8.2Z" fill="currentColor"/>
<path d="M6.5 11.2L5.66667 12.8667L4 13.7L5.66667 14.5333L6.5 16.2L7.33333 14.5333L9 13.7L7.33333 12.8667L6.5 11.2Z" fill="currentColor"/>
<path d="M12.1 2.4L11.2666 4.06667L9.59998 4.9L11.2666 5.73334L12.1 7.4L12.9333 5.73334L14.6 4.9L12.9333 4.06667L12.1 2.4Z" fill="currentColor"/>
<path d="M4.40002 3.2L4.06669 3.86666L3.40002 4.2L4.06669 4.53333L4.40002 5.2L4.73336 4.53333L5.40002 4.2L4.73336 3.86666L4.40002 3.2Z" fill="currentColor"/>
<path d="M14.4 9.7L13.9 9.2L13.4 9.7L13.9 10.2L14.4 9.7Z" fill="currentColor"/>
<path d="M8.19995 4.5L7.69995 4L7.19995 4.5L7.69995 5L8.19995 4.5Z" fill="currentColor"/>
</svg>
