<svg width="40" height="40" viewBox="0 0 40 40" fill="none" xmlns="http://www.w3.org/2000/svg">
<path d="M20.044 40H19.956C8.95239 40 0 31.0476 0 20.044V19.956C0 8.95239 8.95239 0 19.956 0H20.044C31.0476 0 40 8.95239 40 19.956V20.044C40 31.0476 31.0476 40 20.044 40ZM19.956 1.35396C9.69842 1.35396 1.35396 9.69842 1.35396 19.956V20.044C1.35396 30.3016 9.69842 38.646 19.956 38.646H20.044C30.3016 38.646 38.646 30.3016 38.646 20.044V19.956C38.646 9.69842 30.3016 1.35396 20.044 1.35396H19.956Z" fill="currentColor"/>
<path d="M12.3728 15.264C12.3854 15.1422 12.3691 15.0192 12.3253 14.9049C12.2815 14.7906 12.2115 14.6882 12.1208 14.606L10.2528 12.339V12H16.0508L20.5328 21.905L24.4728 12H30.0008V12.339L28.4038 13.88C28.336 13.9321 28.2836 14.0017 28.2524 14.0814C28.2212 14.161 28.2124 14.2477 28.2268 14.332V25.666C28.2124 25.7503 28.2212 25.837 28.2524 25.9166C28.2836 25.9963 28.336 26.0659 28.4038 26.118L29.9638 27.66V28H22.1198V27.661L23.7358 26.081C23.8948 25.921 23.8948 25.874 23.8948 25.63V16.468L19.4028 27.962H18.7968L13.5668 16.468V24.172C13.5238 24.495 13.6308 24.822 13.8568 25.056L15.9578 27.624V27.962H10.0008V27.624L12.1008 25.056C12.2119 24.9401 12.2944 24.7997 12.3416 24.6462C12.3888 24.4928 12.3995 24.3304 12.3728 24.172V15.264Z" fill="currentColor"/>
</svg>
