<svg width="26" height="26" viewBox="0 0 26 26" fill="none" xmlns="http://www.w3.org/2000/svg">
<path d="M25.3827 3.50357L22.2758 0.396661C22.0087 0.142043 21.6539 0 21.2849 0C20.9159 0 20.5611 0.142043 20.2941 0.396661L17.5314 3.16769H2.71066C2.26525 3.16769 1.83809 3.34462 1.52314 3.65957C1.20819 3.97452 1.03125 4.40169 1.03125 4.84709V23.3206C1.03125 23.766 1.20819 24.1932 1.52314 24.5081C1.83809 24.8231 2.26525 25 2.71066 25H21.1842C21.6296 25 22.0567 24.8231 22.3717 24.5081C22.6866 24.1932 22.8636 23.766 22.8636 23.3206V8.00438L25.3827 5.48527C25.6452 5.22235 25.7927 4.86598 25.7927 4.49442C25.7927 4.12286 25.6452 3.76649 25.3827 3.50357ZM13.4841 15.0327L9.96571 15.8136L10.8054 12.3289L18.8246 4.29289L21.5368 7.00513L13.4841 15.0327ZM22.4437 6.04787L19.7315 3.33563L21.2849 1.78217L23.9972 4.49442L22.4437 6.04787Z" fill="currentColor"/>
</svg>
