<svg width="24" height="24" viewBox="0 0 24 24" fill="none" xmlns="http://www.w3.org/2000/svg">
<path d="M12.4135 24L9.08421 20.6707H4.16458C3.5703 20.6707 3.07377 20.4718 2.67499 20.0739C2.27622 19.6759 2.07727 19.179 2.07813 18.583V2.08774C2.07813 1.4926 2.27751 0.996071 2.67629 0.598159C3.07506 0.200248 3.57159 0.00086128 4.16587 0H20.6624C21.2567 0 21.7532 0.199386 22.152 0.598159C22.5508 0.996932 22.7497 1.49346 22.7488 2.08774V18.5843C22.7488 19.1786 22.5499 19.6751 22.152 20.0739C21.7541 20.4726 21.2571 20.6716 20.6611 20.6707H15.7428L12.4135 24ZM12.4135 11.7268C13.497 11.7268 14.4138 11.3517 15.164 10.6015C15.9142 9.85132 16.2892 8.93449 16.2892 7.851C16.2892 6.76751 15.9142 5.85068 15.164 5.1005C14.4138 4.35033 13.497 3.97524 12.4135 3.97524C11.33 3.97524 10.4132 4.35033 9.66299 5.1005C8.91282 5.85068 8.53773 6.76751 8.53773 7.851C8.53773 8.93449 8.91282 9.85132 9.66299 10.6015C10.4132 11.3517 11.33 11.7268 12.4135 11.7268ZM3.91653 19.3788H20.9104C21.0922 19.2643 21.2162 19.1118 21.2825 18.9215C21.3488 18.7311 21.407 18.5537 21.4569 18.3892C20.2942 17.248 18.9429 16.3493 17.4029 15.693C15.8629 15.0367 14.1998 14.7085 12.4135 14.7085C10.6272 14.7085 8.96363 15.0367 7.4228 15.693C5.88197 16.3493 4.53105 17.2484 3.37005 18.3905C3.42 18.5541 3.47771 18.7311 3.54316 18.9215C3.60862 19.1118 3.73308 19.2643 3.91653 19.3788Z" fill="currentColor"/>
</svg>
