<svg width="24" height="24" viewBox="0 0 24 24" fill="none" xmlns="http://www.w3.org/2000/svg">
<path d="M11.0854 0.518275C7.77161 0.805581 4.83525 2.41741 2.83142 5.04455C0.313844 8.351 -0.209636 12.831 1.48011 16.6488C2.15455 18.1705 3.15768 19.5316 4.43838 20.6589C7.23352 23.1156 11.0829 24.0554 14.7302 23.1716C19.3369 22.054 22.8065 18.1851 23.4152 13.4884C23.4906 12.9138 23.5101 12.4975 23.4955 11.7427C23.476 10.7371 23.3908 10.0773 23.1595 9.17153C22.6555 7.18474 21.6767 5.43412 20.2524 3.97568C18.3581 2.03272 16.0207 0.885929 13.2767 0.549928C12.8895 0.503666 11.4895 0.481753 11.0854 0.518275ZM13.1793 2.0595C16.1327 2.43202 18.6892 4.0049 20.3327 6.4616C21.1776 7.72526 21.7084 9.14474 21.9226 10.7298C21.9859 11.1948 22.0127 12.2808 21.9713 12.775C21.8618 14.0971 21.5452 15.2415 20.9584 16.4272C20.4447 17.462 19.8944 18.2241 19.0617 19.0568C18.565 19.5535 18.1438 19.9065 17.6277 20.2571C15.5946 21.6401 13.1574 22.2196 10.708 21.9055C9.07666 21.6937 7.46483 21.0509 6.11839 20.0697C2.20324 17.2185 0.89576 11.9472 3.0262 7.60352C3.94655 5.73117 5.35386 4.25325 7.19457 3.2282C8.32431 2.60246 9.70727 2.16906 10.9636 2.05219C11.117 2.03759 11.2826 2.02054 11.3288 2.01567C11.5382 1.99132 12.892 2.02541 13.1793 2.0595Z" fill="currentColor"/>
<path d="M11.5474 3.65931C9.95746 3.73722 8.33102 4.32157 7.04058 5.28088C6.13971 5.94801 5.32649 6.86106 4.76892 7.83011C3.81204 9.49064 3.459 11.4433 3.76822 13.3473C4.38666 17.1286 7.51536 20.0065 11.3404 20.3133C11.7836 20.3474 12.6576 20.3303 13.057 20.2743C15.0437 20.0065 16.7797 19.1105 18.1286 17.6618C19.8452 15.8138 20.6267 13.2889 20.2615 10.7786C19.8792 8.13933 18.2479 5.84088 15.874 4.59427C14.5543 3.90035 13.0886 3.58383 11.5474 3.65931ZM13.3004 6.41793C14.2963 6.5421 14.9756 6.83184 15.4869 7.35289C16.059 7.93967 16.2977 8.6555 16.2636 9.69516C16.2368 10.4524 16.098 10.9174 15.7328 11.4482C15.5867 11.6625 15.2994 11.9644 15.0949 12.1178C14.8124 12.332 14.3961 12.539 14.026 12.651C13.4976 12.8117 13.0496 12.8604 12.139 12.8604H11.4743V13.3595V13.8587H12.5456H13.617V14.4065V14.9543H12.5456H11.4743V16.33V17.7056H10.5248H9.5752V16.33V14.9543L8.65728 14.9494L7.73693 14.9421L7.72963 14.3992L7.72476 13.8587H8.64998H9.5752V13.3595V12.8604H8.64998H7.72476V12.3369V11.8134H8.66215H9.59955V9.20089V6.58836L9.92337 6.5348C10.2691 6.4788 10.7999 6.42036 11.2674 6.38384C11.6983 6.35219 12.9376 6.3741 13.3004 6.41793Z" fill="currentColor"/>
<path d="M11.4507 8.15431C11.4507 8.4611 11.458 9.4058 11.4677 10.2507L11.4823 11.7895H12.1665L12.8507 11.787L13.0576 11.7091C13.5543 11.5192 13.922 11.1515 14.1265 10.6451C14.2507 10.331 14.2872 10.1021 14.2872 9.59815C14.2872 9.16475 14.2848 9.14041 14.2166 8.95293C13.9999 8.34423 13.6639 7.97901 13.138 7.77692C12.8069 7.64788 12.634 7.62353 12.018 7.60892L11.4507 7.59431V8.15431Z" fill="currentColor"/>
</svg>
