<svg width="40" height="40" viewBox="0 0 40 40" fill="none" xmlns="http://www.w3.org/2000/svg">
<path d="M20.044 40H19.956C8.95236 40 0 31.0476 0 20.044V19.956C0 8.95236 8.95236 0 19.956 0H20.044C31.0476 0 40 8.95236 40 19.956V20.044C40 31.0476 31.0476 40 20.044 40ZM19.956 1.35396C9.69839 1.35396 1.35396 9.69839 1.35396 19.956V20.044C1.35396 30.3016 9.69839 38.646 19.956 38.646H20.044C30.3016 38.646 38.646 30.3016 38.646 20.044V19.956C38.646 9.69839 30.3016 1.35396 20.044 1.35396H19.956Z" fill="currentColor"/>
<path d="M7.99654 19.3404C8.05069 19.3133 8.10488 19.2876 8.15768 19.2632C9.07567 18.838 10.0058 18.44 10.9347 18.0419C10.9848 18.0419 11.0687 17.9837 11.1161 17.9647C11.1878 17.9336 11.2596 17.9038 11.3314 17.8727C11.4695 17.8131 11.6076 17.7549 11.7443 17.6953C12.0205 17.5775 12.2954 17.4597 12.5716 17.3419C13.1226 17.1063 13.6737 16.8707 14.2247 16.6338C15.3269 16.1626 16.4304 15.6901 17.5325 15.2189C18.6346 14.7477 19.7381 14.2752 20.8402 13.804C21.9423 13.3328 23.0458 12.8603 24.1479 12.3891C25.25 11.918 26.3535 11.4454 27.4557 10.9742C27.7007 10.8686 27.9661 10.7116 28.2288 10.6655C28.4495 10.6263 28.6647 10.5505 28.8868 10.5085C29.3079 10.4286 29.7723 10.3961 30.1757 10.5708C30.3152 10.6317 30.4438 10.717 30.5508 10.8239C31.0626 11.3303 30.9908 12.1617 30.8825 12.8739C30.1284 17.8375 29.3742 22.8024 28.6187 27.7661C28.5158 28.4471 28.375 29.1945 27.8375 29.625C27.3825 29.9892 26.7353 30.0298 26.1734 29.8755C25.6115 29.7198 25.116 29.3935 24.6299 29.0726C22.6139 27.7376 20.5965 26.4026 18.5805 25.0676C18.1012 24.7508 17.5677 24.3365 17.5731 23.761C17.5758 23.4144 17.783 23.1057 17.9942 22.8308C19.7462 20.5454 22.274 18.9748 24.1547 16.7949C24.4201 16.4876 24.6286 15.9325 24.2644 15.7551C24.0477 15.6495 23.7986 15.793 23.6009 15.9297C21.115 17.656 18.6306 19.3837 16.1447 21.11C15.3337 21.6732 14.4834 22.2527 13.5058 22.3908C12.6312 22.5154 11.7511 22.2717 10.9049 22.0225C10.1954 21.814 9.48725 21.6001 8.78184 21.3794C8.40679 21.263 8.01956 21.137 7.72981 20.873C7.44006 20.609 7.27355 20.1649 7.44821 19.8129C7.55788 19.5922 7.77046 19.4527 7.99386 19.339L7.99654 19.3404Z" fill="currentColor"/>
</svg>
