<svg width="30" height="30" viewBox="0 0 30 30" fill="none" xmlns="http://www.w3.org/2000/svg">
<path d="M14.9813 19.2604L19.0338 23.8679C20.5338 25.5741 21.285 26.4279 22.0713 26.2191C22.8563 26.0116 23.1263 24.8891 23.665 22.6429L26.6525 10.1829C27.4838 6.72285 27.8988 4.9941 26.9763 4.14035C26.0538 3.2866 24.455 3.9216 21.2575 5.19035L6.42504 11.0816C3.86754 12.0979 2.58879 12.6054 2.50754 13.4779C2.49797 13.5668 2.49797 13.6564 2.50754 13.7454C2.58629 14.6191 3.86254 15.1304 6.41754 16.1541C7.57379 16.6179 8.15254 16.8504 8.56754 17.2941C8.61421 17.3441 8.65921 17.3958 8.70254 17.4491C9.08504 17.9241 9.24754 18.5491 9.57379 19.7941L10.185 22.1279C10.5013 23.3404 10.66 23.9479 11.0763 24.0304C11.4925 24.1129 11.8538 23.6104 12.5775 22.6041L14.9813 19.2604ZM14.9813 19.2604L14.585 18.8479C14.1325 18.3754 13.9063 18.1404 13.9063 17.8479C13.9063 17.5554 14.1313 17.3191 14.585 16.8479L19.0513 12.1929" stroke="currentColor" stroke-width="2" stroke-linecap="round" stroke-linejoin="round"/>
</svg>
