<svg width="24" height="24" viewBox="0 0 24 24" fill="none" xmlns="http://www.w3.org/2000/svg">
<path d="M0.619583 10.8965C0.673741 10.8694 0.727925 10.8437 0.780729 10.8193C1.69871 10.3942 2.62888 9.99612 3.5577 9.59806C3.6078 9.59806 3.69172 9.53983 3.73911 9.52087C3.81087 9.48973 3.88264 9.45996 3.9544 9.42881C4.0925 9.36924 4.23062 9.31101 4.36737 9.25144C4.64357 9.13364 4.91841 9.01587 5.19462 8.89807C5.74568 8.66248 6.29673 8.4269 6.84779 8.18996C7.94992 7.71878 9.05342 7.24622 10.1555 6.77504C11.2577 6.30386 12.3611 5.83134 13.4633 5.36016C14.5654 4.88898 15.6688 4.41646 16.771 3.94528C17.8731 3.4741 18.9766 3.00158 20.0787 2.5304C20.3238 2.42479 20.5891 2.26773 20.8518 2.22169C21.0725 2.18243 21.2878 2.10662 21.5098 2.06465C21.9309 1.98476 22.3953 1.95226 22.7988 2.12692C22.9382 2.18785 23.0669 2.27313 23.1738 2.3801C23.6856 2.88648 23.6139 3.71783 23.5056 4.43001C22.7514 9.39362 21.9972 14.3586 21.2417 19.3222C21.1388 20.0032 20.998 20.7506 20.4605 21.1812C20.0056 21.5454 19.3584 21.586 18.7965 21.4316C18.2346 21.2759 17.7391 20.9496 17.253 20.6288C15.2369 19.2938 13.2195 17.9587 11.2035 16.6237C10.7242 16.3069 10.1908 15.8926 10.1962 15.3172C10.1989 14.9706 10.406 14.6618 10.6172 14.387C12.3693 12.1015 14.8971 10.5309 16.7777 8.35107C17.0431 8.04372 17.2516 7.48861 16.8874 7.31124C16.6708 7.20563 16.4216 7.34912 16.224 7.48587C13.7381 9.21217 11.2536 10.9398 8.76773 12.6661C7.95671 13.2294 7.10643 13.8089 6.12887 13.947C5.25421 14.0715 4.37414 13.8278 3.52792 13.5787C2.81844 13.3702 2.1103 13.1563 1.40489 12.9356C1.02984 12.8191 0.642604 12.6932 0.352857 12.4292C0.0631099 12.1652 -0.103405 11.7211 0.0712561 11.369C0.180927 11.1484 0.393502 11.0089 0.616906 10.8952L0.619583 10.8965Z" fill="currentColor"/>
</svg>
