<svg width="40" height="40" viewBox="0 0 40 40" fill="none" xmlns="http://www.w3.org/2000/svg">
<path d="M20.044 40H19.956C8.95239 40 0 31.0476 0 20.044V19.956C0 8.95239 8.95239 0 19.956 0H20.044C31.0476 0 40 8.95239 40 19.956V20.044C40 31.0476 31.0476 40 20.044 40ZM19.956 1.35396C9.69842 1.35396 1.35396 9.69842 1.35396 19.956V20.044C1.35396 30.3016 9.69842 38.646 19.956 38.646H20.044C30.3016 38.646 38.646 30.3016 38.646 20.044V19.956C38.646 9.69842 30.3016 1.35396 20.044 1.35396H19.956Z" fill="currentColor"/>
<path d="M21.0753 27.9677C12.8745 27.9677 8.20072 22.233 8 13H12.1004C12.2437 19.853 15.2832 22.7491 17.6631 23.3513V13H21.534V18.9068C22.9327 18.5288 24.2036 17.7806 25.2128 16.7411C26.222 15.7016 26.9323 14.4092 27.2688 13H31.1398C30.8179 14.5378 30.1834 15.993 29.2759 17.2754C28.3683 18.5579 27.2069 19.6402 25.8638 20.4552C27.3664 21.1971 28.6936 22.251 29.7567 23.5464C30.8197 24.8419 31.5943 26.3492 32.0287 27.9677H27.7563C27.3616 26.561 26.5607 25.302 25.4539 24.3483C24.3471 23.3945 22.9836 22.7884 21.534 22.6058V27.9677H21.0753Z" fill="currentColor"/>
</svg>
