<svg width="40" height="40" viewBox="0 0 40 40" fill="none" xmlns="http://www.w3.org/2000/svg">
<path d="M20 40C8.97157 40 0 31.0284 0 20C0 8.97156 8.97157 0 20 0C31.0285 0 40 8.97156 40 20C40 31.0284 31.0285 40 20 40ZM20 1.35768C9.72101 1.35768 1.35768 9.721 1.35768 20C1.35768 30.279 9.72101 38.6423 20 38.6423C30.279 38.6423 38.6423 30.279 38.6423 20C38.6423 9.721 30.279 1.35768 20 1.35768Z" fill="currentColor"/>
<path d="M32.1656 15.9971C32.0136 14.5295 31.6864 12.9071 30.4821 12.0544C29.5494 11.3932 28.3235 11.3688 27.179 11.3702C24.7596 11.3715 22.3389 11.3742 19.9196 11.3756C17.5926 11.3783 15.2655 11.3797 12.9385 11.3824C11.9664 11.3838 11.0215 11.3077 10.1187 11.7286C9.34343 12.0898 8.73656 12.7767 8.37135 13.5411C7.86494 14.6042 7.75905 15.8084 7.69796 16.9842C7.58527 19.1252 7.59749 21.2718 7.7319 23.4115C7.83101 24.9728 8.08217 26.6984 9.28913 27.6936C10.359 28.5747 11.8687 28.6181 13.2562 28.6195C17.6604 28.6236 22.066 28.6277 26.4716 28.6304C27.0364 28.6317 27.6256 28.6209 28.2013 28.5584C29.3336 28.4362 30.4129 28.1117 31.1406 27.2727C31.8751 26.4269 32.0638 25.2497 32.1751 24.1351C32.4467 21.4306 32.4439 18.7003 32.1656 15.9971ZM17.3726 23.7916V16.209L23.9383 19.9996L17.3726 23.7916Z" fill="currentColor"/>
</svg>
