<svg width="24" height="25" viewBox="0 0 24 25" fill="none" xmlns="http://www.w3.org/2000/svg">
<path d="M23.7955 8.55724C23.648 7.11172 23.3308 5.51376 22.1633 4.674C21.2591 4.02278 20.0705 3.99871 18.9609 4.00005C16.6154 4.00138 14.2685 4.00406 11.923 4.0054C9.66693 4.00807 7.41089 4.00942 5.15485 4.01209C4.21242 4.01343 3.29632 3.93855 2.42102 4.35308C1.66944 4.70878 1.08108 5.38538 0.727014 6.13823C0.236056 7.18526 0.133395 8.37137 0.074164 9.52938C-0.0350841 11.6381 -0.0232379 13.7523 0.10707 15.8597C0.203156 17.3975 0.446656 19.097 1.61679 20.0772C2.65399 20.945 4.11765 20.9878 5.46285 20.9892C9.73273 20.9932 14.0039 20.9972 18.2751 20.9999C18.8227 21.0012 19.394 20.9905 19.952 20.929C21.0498 20.8087 22.0962 20.4891 22.8017 19.6627C23.5138 18.8296 23.6967 17.6703 23.8047 16.5724C24.0679 13.9087 24.0653 11.2196 23.7955 8.55724ZM9.4537 16.2341V8.76585L15.8191 12.4993L9.4537 16.2341Z" fill="currentColor"/>
</svg>
