<svg width="17" height="13" viewBox="0 0 17 13" fill="none" xmlns="http://www.w3.org/2000/svg">
<path fill-rule="evenodd" clip-rule="evenodd" d="M16.5505 1.24924C17.0155 1.66023 17.059 2.37124 16.648 2.83924L8.02303 12.5892C7.92342 12.7019 7.80225 12.7934 7.66667 12.8584C7.53109 12.9234 7.38386 12.9605 7.23368 12.9677C7.0835 12.9748 6.93341 12.9518 6.79228 12.8999C6.65116 12.848 6.52186 12.7684 6.41203 12.6657L0.787025 7.41573C0.570631 7.2118 0.443773 6.9305 0.43418 6.63331C0.424587 6.33612 0.533041 6.04721 0.735833 5.82975C0.938626 5.61229 1.21926 5.48396 1.5164 5.4728C1.81353 5.46165 2.103 5.56859 2.32153 5.77024L7.10653 10.2252L14.9665 1.34524C15.0645 1.23438 15.1834 1.14394 15.3164 1.0791C15.4494 1.01426 15.5939 0.976294 15.7416 0.967377C15.8893 0.95846 16.0373 0.978765 16.1771 1.02713C16.317 1.0755 16.4459 1.15097 16.5565 1.24924H16.5505Z" fill="currentColor"/>
</svg>
