<svg width="457" height="589" fill="none" xmlns="http://www.w3.org/2000/svg"><rect width="263.47" height="263.47" rx="20" transform="matrix(.86603 -.5 .86603 .5 .172 457.261)" fill="#ACD4A7"/><rect width="263.47" height="263.47" rx="20" transform="matrix(.86603 -.5 .86603 .5 .172 457.261)" fill="#389D2D"/><g clip-path="url(#a)"><path fill-rule="evenodd" clip-rule="evenodd" d="M209.829 218.992c5.535-3.19 14.507-3.19 20.042 0l70.087 40.391a6.532 6.532 0 0 1 3.271 5.575l1.237 92.74c0 6.378-4.486 14.135-10.021 17.325l-72.618 41.276a6.534 6.534 0 0 1-6.492-.02l-70.049-40.368c-5.534-3.191-10.02-10.947-10.02-17.325l.002-91.653a6.535 6.535 0 0 1 3.201-5.62l71.36-42.321zm18.037 1.154 70.088 40.392a6.537 6.537 0 0 1 3.271 5.574l1.237 92.74-.01.483c-.215 5.005-3.718 10.906-8.007 13.378l-72.618 41.276a6.537 6.537 0 0 1-6.492-.019l-70.049-40.37c-4.289-2.471-7.792-8.372-8.007-13.378l-.009-.482v-91.651a6.537 6.537 0 0 1 3.201-5.622l71.363-42.321.422-.232c4.451-2.318 11.321-2.239 15.61.232z" fill="url(#b)"/><path d="M302.695 356.418v-22.395" stroke="url(#c)"/><path d="M136.719 356.418v-22.395" stroke="url(#d)"/><path d="M136.781 278.038V339" stroke="url(#e)"/><path d="M301.229 266.113a6.538 6.538 0 0 0-3.271-5.575l-70.088-40.392c-4.289-2.471-11.16-2.549-15.61-.232l-.423.232-71.362 42.321a6.537 6.537 0 0 0-3.202 5.622v91.651l.01.482c.215 5.006 3.718 10.907 8.007 13.378l70.048 40.37a6.537 6.537 0 0 0 6.492.019l72.619-41.276c4.289-2.472 7.791-8.373 8.007-13.378l.009-.482-1.236-92.74z" fill="#F9F9F9"/><path fill-rule="evenodd" clip-rule="evenodd" d="M235.585 343.881a5.284 5.284 0 0 0-.333-.006h-4.641c-3.797 0-7.049 3.013-7.049 6.944 0 3.93 3.252 6.943 7.051 6.943h4.637c.117.001.228-.002.333-.008a3.237 3.237 0 0 0 3.023-3.013c.008-.112.008-.232.008-.343v-7.158c0-.112 0-.232-.008-.344a3.24 3.24 0 0 0-3.021-3.013m-5.38 8.788c.977 0 1.772-.827 1.772-1.85 0-1.024-.795-1.851-1.772-1.851-.978 0-1.771.827-1.771 1.851 0 1.023.791 1.85 1.771 1.85z" fill="#389D2D"/><path fill-rule="evenodd" clip-rule="evenodd" d="M235.253 360.539a.405.405 0 0 1 .408.514c-.37 1.319-.955 2.443-1.895 3.389-1.374 1.386-3.118 2.001-5.271 2.293-2.093.283-4.765.283-8.143.283h-3.882c-3.376 0-6.05 0-8.142-.283-2.154-.292-3.898-.907-5.272-2.293-1.374-1.382-1.984-3.141-2.274-5.31-.282-2.112-.282-4.807-.282-8.209v-.21c0-3.402 0-6.099.282-8.206.29-2.171.9-3.925 2.272-5.314 1.374-1.384 3.118-2.002 5.272-2.291 2.094-.284 4.768-.284 8.144-.284h3.882c3.376 0 6.05 0 8.143.284 2.153.291 3.897.907 5.271 2.291.94.947 1.525 2.071 1.895 3.393a.411.411 0 0 1-.075.358.418.418 0 0 1-.333.154h-4.637c-5.211 0-9.802 4.149-9.802 9.72 0 5.571 4.593 9.721 9.804 9.721h4.635zm-27.865-18.514a1.35 1.35 0 0 0-.528.107c-.168.069-.32.172-.447.3a1.373 1.373 0 0 0-.401.979c0 .769.616 1.389 1.376 1.389h7.349c.763 0 1.378-.62 1.378-1.389a1.382 1.382 0 0 0-1.378-1.386h-7.349z" fill="#389D2D"/><path d="m211.516 332.757 3.731-2.749a5.66 5.66 0 0 1 6.728 0l3.753 2.765c-1.57-.061-3.324-.061-5.243-.061h-4.136c-1.757 0-3.372 0-4.833.045z" fill="#389D2D"/><path d="M136.544 339.826a9.122 9.122 0 1 0 0-18.244 9.122 9.122 0 1 0 0 18.244z" fill="#ACD4A7"/><path d="M136.544 336.179a5.473 5.473 0 1 0 0-10.946 5.473 5.473 0 0 0 0 10.946z" fill="#389D2D"/><path d="M302.766 278.038V339" stroke="url(#f)"/><path d="M302.528 339.826a9.122 9.122 0 1 0 0-18.244 9.122 9.122 0 1 0 0 18.244z" fill="#ACD4A7"/><path d="M302.528 336.179a5.473 5.473 0 1 0 0-10.947 5.473 5.473 0 0 0 0 10.947z" fill="#389D2D"/><path d="m215.206 229.862-62.511 36.091c-2.813 1.624-2.813 4.257 0 5.881l60.585 34.979c2.813 1.624 7.374 1.624 10.187 0l62.511-36.091c2.813-1.624 2.813-4.257 0-5.881l-60.585-34.979c-2.813-1.624-7.374-1.624-10.187 0z" stroke="#DDD"/></g><g clip-path="url(#g)"><path fill-rule="evenodd" clip-rule="evenodd" d="M330.353 265.046c5.534-3.19 14.507-3.19 20.041 0l70.087 40.391a6.532 6.532 0 0 1 3.271 5.575l1.238 92.74c0 6.378-4.487 14.135-10.022 17.325l-72.618 41.275a6.537 6.537 0 0 1-6.492-.019l-70.048-40.369c-5.534-3.19-10.021-10.947-10.021-17.324l.002-91.653a6.534 6.534 0 0 1 3.201-5.62l71.361-42.321zm18.037 1.154 70.087 40.392a6.54 6.54 0 0 1 3.272 5.574l1.236 92.74-.009.482c-.216 5.006-3.718 10.907-8.008 13.378l-72.618 41.277a6.534 6.534 0 0 1-6.492-.02l-70.048-40.369c-4.289-2.472-7.792-8.373-8.007-13.378l-.01-.482v-91.652a6.535 6.535 0 0 1 3.202-5.621l71.362-42.321.423-.233c4.45-2.317 11.321-2.238 15.61.233z" fill="url(#h)"/><path d="M423.219 402.471v-22.394" stroke="url(#i)"/><path d="M257.242 402.471v-22.394" stroke="url(#j)"/><path d="M257.305 324.092v60.962" stroke="url(#k)"/><path d="M421.752 312.166a6.537 6.537 0 0 0-3.271-5.574L348.394 266.2c-4.29-2.471-11.16-2.55-15.611-.233l-.422.233-71.363 42.321a6.537 6.537 0 0 0-3.201 5.621v91.652l.01.482c.215 5.005 3.717 10.906 8.006 13.378l70.049 40.37a6.537 6.537 0 0 0 6.492.019l72.618-41.277c4.289-2.471 7.792-8.372 8.008-13.378l.009-.482-1.237-92.74z" fill="#F9F9F9"/><path d="M338.499 416.696a2.943 2.943 0 0 1-2.069-.801 3.283 3.283 0 0 1-1.047-1.959l-.401-2.937a6.793 6.793 0 0 1-1.089-.534 15.45 15.45 0 0 1-1.003-.668l-2.76 1.157c-.741.327-1.483.356-2.225.089a3.28 3.28 0 0 1-1.736-1.424l-2.092-3.65a2.824 2.824 0 0 1-.356-2.181 3.37 3.37 0 0 1 1.202-1.914l2.359-1.781a4.197 4.197 0 0 1-.045-.601v-1.202c0-.193.015-.393.045-.6l-2.359-1.781a3.37 3.37 0 0 1-1.202-1.914 2.824 2.824 0 0 1 .356-2.181l2.092-3.65a3.28 3.28 0 0 1 1.736-1.424c.742-.267 1.484-.238 2.225.089l2.76 1.157c.327-.237.668-.46 1.024-.667a9.024 9.024 0 0 1 1.068-.535l.401-2.937a3.262 3.262 0 0 1 1.047-1.959 2.948 2.948 0 0 1 2.069-.801h4.184c.801 0 1.491.267 2.07.801.58.534.928 1.187 1.045 1.959l.401 2.937c.386.149.75.327 1.091.535.342.207.676.43 1.001.667l2.76-1.157c.742-.327 1.484-.356 2.225-.089a3.28 3.28 0 0 1 1.736 1.424l2.092 3.65a2.82 2.82 0 0 1 .356 2.181 3.374 3.374 0 0 1-1.201 1.914l-2.359 1.781c.029.207.044.408.044.601v1.201c0 .193-.03.394-.089.601l2.359 1.781a3.376 3.376 0 0 1 1.202 1.914 2.828 2.828 0 0 1-.356 2.181l-2.137 3.65a3.28 3.28 0 0 1-1.736 1.424c-.742.267-1.483.238-2.225-.089l-2.671-1.157c-.326.237-.668.46-1.024.668a9.169 9.169 0 0 1-1.068.534l-.401 2.937a3.27 3.27 0 0 1-1.045 1.959 2.945 2.945 0 0 1-2.07.801h-4.184zm2.181-11.573c1.721 0 3.19-.608 4.406-1.825 1.217-1.216 1.825-2.685 1.825-4.406 0-1.722-.608-3.19-1.825-4.407-1.216-1.217-2.685-1.825-4.406-1.825-1.751 0-3.228.608-4.43 1.825-1.203 1.217-1.803 2.685-1.802 4.407.001 1.721.602 3.19 1.804 4.406 1.201 1.217 2.677 1.825 4.428 1.825z" fill="#389D2D"/><path d="M257.068 385.88a9.122 9.122 0 1 0 0-18.244 9.122 9.122 0 1 0 0 18.244z" fill="#ACD4A7"/><path d="M257.067 382.233a5.473 5.473 0 1 0 0-10.947 5.473 5.473 0 0 0 0 10.947z" fill="#389D2D"/><path d="M423.289 324.092v60.962" stroke="url(#l)"/><path d="M423.052 385.88a9.122 9.122 0 1 0 0-18.244 9.122 9.122 0 1 0 0 18.244z" fill="#ACD4A7"/><path d="M423.051 382.233a5.474 5.474 0 1 0 0-10.949 5.474 5.474 0 0 0 0 10.949z" fill="#389D2D"/><path d="m335.73 275.916-62.512 36.091c-2.813 1.624-2.813 4.257 0 5.881l60.585 34.979c2.813 1.624 7.374 1.624 10.187 0l62.512-36.091c2.813-1.624 2.813-4.257 0-5.882l-60.586-34.978c-2.813-1.624-7.373-1.624-10.186 0z" stroke="#DDD"/></g><g clip-path="url(#m)"><path fill-rule="evenodd" clip-rule="evenodd" d="M108.478 279.397c5.552-3.2 14.554-3.2 20.106 0l70.315 40.523a6.554 6.554 0 0 1 3.282 5.592l1.241 93.041c0 6.4-4.501 14.182-10.054 17.382l-72.854 41.41a6.554 6.554 0 0 1-6.513-.02l-70.276-40.501c-5.552-3.199-10.053-10.981-10.053-17.381l.002-91.949a6.557 6.557 0 0 1 3.212-5.639l71.592-42.458zm18.095 1.159 70.316 40.523a6.558 6.558 0 0 1 3.282 5.592l1.24 93.041-.009.484c-.217 5.022-3.731 10.942-8.034 13.421l-72.854 41.41a6.557 6.557 0 0 1-6.513-.018l-70.276-40.501c-4.303-2.48-7.817-8.4-8.033-13.422l-.01-.483v-91.949a6.558 6.558 0 0 1 3.212-5.64l71.594-42.458.424-.234c4.465-2.324 11.358-2.246 15.661.234z" fill="url(#n)"/><path d="M200.175 326.671a6.555 6.555 0 0 0-3.281-5.592l-70.316-40.523c-4.303-2.48-11.196-2.558-15.661-.233l-.424.233-71.594 42.458a6.558 6.558 0 0 0-3.212 5.64v91.949l.01.484c.216 5.022 3.73 10.941 8.033 13.421l70.276 40.501a6.557 6.557 0 0 0 6.513.018l72.854-41.409c4.303-2.48 7.817-8.4 8.034-13.422l.009-.483-1.241-93.042z" fill="#F9F9F9"/><path d="M131.71 422.848c.004.338-.083.78-.174 1.145-.634 2.562-3.451 5.437-7.415 5.175-3.593-.236-6.519-1.961-6.519-4.38 0-2.419 2.919-4.38 6.519-4.38s7.567.022 7.589 2.44z" fill="#389D2D"/><path d="M124.124 420.817c-1.934 0-6.347.535-7.36.535-1.789 0-3.241 1.123-3.241 2.509 0 .666.342 1.268.889 1.717 0 0 1.202 1.206 3.366.628.947-.254 2.488-2.134 5.201-2.432 1.351-.15 3.882.895 8.33.921.191-.411.23-.697.23-.697 0-2.421-3.815-3.181-7.415-3.181z" fill="#fff"/><path d="M131.527 423.992s2.609-.529 4.231-2.662c1.891-2.488 1.642-5.151 1.642-5.151 1.916-3.583-.597-6.943-.597-6.943-.249-3.783-2.588-5.35-2.588-5.35-1.518-3.609-4.877-4.578-4.877-4.578-2.637-3.086-7.316-2.987-7.316-2.987s-4.384-1.606-10.401.2c-.995.299-4.33.995-6.769 2.488-7.688 4.706-8.27 12.045-8.162 13.238.596 6.669 5.275 7.863 8.261 8.559.696 1.891 3.26 5.375 7.863 4.082 5.674-.995 8.063-2.688 9.456-2.688 1.394 0 5.276 1.493 9.257 1.792z" fill="#389D2D"/><path d="M117.187 413.274c2.781-1.499 4.288-1.36 5.619-1.239.423.038.823.068 1.228.066 2.369-.054 4.289-1.053 5.138-2.019a.595.595 0 0 0-.07-.826.598.598 0 0 0-.828.036c-.655.746-2.268 1.569-4.268 1.614-.358.011-.718-.025-1.09-.06-1.428-.132-3.2-.295-6.296 1.376-.795.429-1.884.588-3.064.708-2.624-3.788-1.045-7.087-.594-7.873.045.002.088.017.133.017.478 0 .958-.117 1.393-.363a.6.6 0 0 0 .209-.805.598.598 0 0 0-.797-.235 1.707 1.707 0 0 1-2.246-.557.597.597 0 0 0-1.004.643c.283.444.682.777 1.132 1-.622 1.264-1.803 4.587.445 8.303-1.582.155-3.166.378-4.406 1.177a8.616 8.616 0 0 0-2.243 2.14c-.751-.129-3.502-.807-3.982-3.86.299-.231.54-.537.689-.914a.601.601 0 0 0-.14-.649.597.597 0 0 0-.971.209.91.91 0 0 1-.542.551.935.935 0 0 1-.768-.084.6.6 0 0 0-.812.232.597.597 0 0 0 .232.812c.339.189.702.284 1.063.284.044 0 .086-.02.13-.022.568 2.882 2.846 4.148 4.457 4.531-.21.449-.344.931-.395 1.424a.599.599 0 0 0 .542.647l.054.003a.596.596 0 0 0 .595-.545c.129-1.449 1.511-2.962 2.739-3.756 1.151-.742 2.837-.899 4.468-1.05 1.583-.145 3.078-.283 4.25-.916zm15.368-1.797a.596.596 0 1 0 1.049.573c.022-.04 2.2-4.119-1.877-6.86a.597.597 0 1 0-.666.991c3.158 2.124 1.563 5.167 1.494 5.296zm-24.757-9.644a.602.602 0 0 0 .485-.248c1.731-2.409 4.13-1.585 4.231-1.547a.598.598 0 0 0 .413-1.12c-1.147-.426-3.795-.559-5.614 1.97a.6.6 0 0 0-.046.621.595.595 0 0 0 .531.324zm15.613-2.255c2.658-.216 3.867 1.711 3.922 1.801a.595.595 0 0 0 .992.058.612.612 0 0 0 .102-.21.61.61 0 0 0-.063-.453c-.065-.109-1.601-2.65-5.046-2.387a.606.606 0 0 0-.407.208.597.597 0 0 0 .5.983zm10.93 17.452c-.294-.017-.618.216-.644.546-.003.021-.193 2.053-2.282 2.74a.6.6 0 0 0-.409.663.598.598 0 0 0 .783.472c2.833-.93 3.089-3.66 3.099-3.776a.609.609 0 0 0-.14-.436.6.6 0 0 0-.407-.209z" fill="#fff"/><path d="M104.778 411.227a.585.585 0 0 0 .202.645.602.602 0 0 0 .451.122.58.58 0 0 0 .224-.08.585.585 0 0 0 .275-.376 1.702 1.702 0 0 1 1.974-1.212.609.609 0 0 0 .449-.084.6.6 0 0 0-.205-1.085 2.798 2.798 0 0 0-1.49.103c-1.393-2.382-1.122-4.73-1.118-4.755a.598.598 0 0 0-.513-.672.6.6 0 0 0-.671.51c-.015.116-.334 2.767 1.27 5.512a2.86 2.86 0 0 0-.848 1.372zm13.352-2.95a1.276 1.276 0 0 1 1.738.018.601.601 0 0 0 .845-.014.598.598 0 0 0-.012-.844 2.385 2.385 0 0 0-.952-.555c.353-1.214.214-1.753-.115-2.762a24.149 24.149 0 0 1-.187-.595l-.036-.119c-.435-1.443-.723-2.395.104-3.739a.595.595 0 0 0-.196-.822.597.597 0 0 0-.822.196c-1.108 1.801-.701 3.15-.229 4.711l.036.12c.07.231.135.436.194.617.295.909.385 1.214.024 2.313a2.38 2.38 0 0 0-1.206.602.596.596 0 0 0 .814.873zm7.603-3.566c.355.001.705-.077 1.026-.228a.599.599 0 0 0 .286-.795.599.599 0 0 0-.795-.286 1.278 1.278 0 0 1-1.653-.546.604.604 0 0 0-.353-.304.604.604 0 0 0-.757.406.61.61 0 0 0 .058.462c.215.401.535.718.908.938-.642 1.558-.277 3.214.02 4.092a.605.605 0 0 0 .297.361.6.6 0 0 0 .816-.275.6.6 0 0 0 .018-.467c-.201-.595-.59-2.098-.002-3.376.045.003.087.018.131.018zm5.73 11.263a.602.602 0 0 0-.403-.528.567.567 0 0 0-.231-.03 2.188 2.188 0 0 1-2.106-1.21 2.176 2.176 0 0 1-.22-.824.612.612 0 0 0-.637-.556.582.582 0 0 0-.409.204.582.582 0 0 0-.146.433c.049.705.318 1.34.726 1.857-.96 1.13-2.218 1.452-2.919 1.534-.62.074-1.162.011-1.789-.063-.575-.066-1.225-.141-2.029-.117l-.005.001c-.024-.342-.106-.84-.365-1.254a.597.597 0 0 0-1.062.198.596.596 0 0 0 .051.436c.16.257.189.666.189.866-.602.216-1.122.534-1.593.841-.841.547-1.504.979-2.501.755-.903-.207-1.807-.249-2.574-.141-.12-.3-.308-.658-.6-.934a.594.594 0 0 0-.844.024.593.593 0 0 0 .024.844c.102.097.184.238.249.379-1.317.542-1.978 1.449-2.009 1.493a.591.591 0 0 0-.043.618.593.593 0 0 0 .529.323.593.593 0 0 0 .485-.245c.006-.009.662-.887 1.956-1.242.669-.184 1.628-.169 2.563.044.261.06.504.08.739.084.111.26.154.569.16.684a.601.601 0 0 0 .596.564l.033-.001a.601.601 0 0 0 .565-.625 3.57 3.57 0 0 0-.156-.819c.551-.2 1.03-.512 1.48-.804.683-.446 1.33-.867 2.174-.895.707-.025 1.29.043 1.853.109a9.889 9.889 0 0 0 1.736.073c.109.302.101.706.084.841a.605.605 0 0 0 .348.618.596.596 0 0 0 .837-.466 3.468 3.468 0 0 0-.071-1.171 5.575 5.575 0 0 0 2.801-1.757 3.35 3.35 0 0 0 1.978.493.601.601 0 0 0 .556-.634z" fill="#fff"/><path d="M201.648 417.256v-22.467" stroke="url(#o)"/><path d="M35.133 417.256v-22.467" stroke="url(#p)"/><path d="M35.195 338.622v61.16" stroke="url(#q)"/><path d="M34.956 400.611a9.152 9.152 0 1 0 0-18.304 9.152 9.152 0 0 0 0 18.304z" fill="#ACD4A7"/><path d="M34.96 396.951a5.491 5.491 0 1 0 0-10.983 5.491 5.491 0 0 0 0 10.983z" fill="#389D2D"/><path d="M201.719 338.622v61.16" stroke="url(#r)"/><path d="M201.48 400.611a9.152 9.152 0 1 0 0-18.304 9.152 9.152 0 0 0 0 18.304z" fill="#ACD4A7"/><path d="M201.475 396.951a5.492 5.492 0 1 0 0-10.984 5.492 5.492 0 0 0 0 10.984z" fill="#389D2D"/><path d="m114.434 290.29-62.715 36.208c-2.822 1.629-2.822 4.271 0 5.9l60.782 35.093c2.822 1.629 7.398 1.629 10.22 0l62.714-36.209c2.822-1.629 2.822-4.271 0-5.9l-60.782-35.092c-2.822-1.63-7.397-1.63-10.219 0z" stroke="#DDD"/></g><g clip-path="url(#s)"><path fill-rule="evenodd" clip-rule="evenodd" d="M209.797 338.672c5.533-3.212 14.503-3.212 20.035 0l70.065 40.666a6.585 6.585 0 0 1 3.27 5.613l1.237 93.373c0 6.421-4.485 14.23-10.018 17.442l-72.595 41.557a6.494 6.494 0 0 1-6.49-.019l-70.026-40.644c-5.532-3.212-10.017-11.022-10.017-17.443l.002-92.278a6.588 6.588 0 0 1 3.2-5.658l71.337-42.609zm18.032 1.162 70.065 40.667a6.59 6.59 0 0 1 3.27 5.612l1.236 93.372-.009.486c-.216 5.04-3.717 10.981-8.005 13.469l-72.595 41.558a6.494 6.494 0 0 1-6.49-.019l-70.026-40.646c-4.287-2.488-7.789-8.429-8.004-13.469l-.01-.485v-92.276a6.591 6.591 0 0 1 3.201-5.66l71.339-42.609.423-.235c4.448-2.333 11.317-2.254 15.605.235z" fill="url(#t)"/><path d="M301.168 386.113a6.59 6.59 0 0 0-3.27-5.612l-70.065-40.668c-4.288-2.488-11.156-2.567-15.605-.234l-.423.234-71.339 42.61a6.588 6.588 0 0 0-3.2 5.659v92.277l.009.485c.215 5.04 3.717 10.981 8.004 13.469l70.026 40.645a6.492 6.492 0 0 0 6.49.02l72.595-41.558c4.288-2.489 7.789-8.43 8.005-13.469l.009-.486-1.236-93.372z" fill="#F9F9F9"/><path d="m215.177 349.615-62.492 36.337c-2.812 1.636-2.812 4.287 0 5.922l60.566 35.217c2.812 1.635 7.371 1.635 10.183 0l62.492-36.337c2.812-1.635 2.812-4.286 0-5.921l-60.566-35.218c-2.812-1.635-7.371-1.635-10.183 0z" stroke="#DDD"/><path d="m243.422 478.872-9.9-5.857-9.9 5.857 9.9 5.857 9.9-5.857z" fill="#389D2D"/><path fill-rule="evenodd" clip-rule="evenodd" d="m216.098 478.872 7.524 4.451v5.311h-12.6c-1.998 0-3.6-1.738-3.6-3.905v-31.238c0-1.036.379-2.029 1.054-2.761.675-.733 1.591-1.144 2.546-1.144h1.8v13.667l4.5-2.929 4.5 2.929v-13.667h10.8c.955 0 1.87.411 2.545 1.144a4.074 4.074 0 0 1 1.055 2.761v16.673l-2.7-1.601-17.424 10.309z" fill="#389D2D"/><path d="M227.222 482.952v3.905l6.3 3.729 6.3-3.729v-3.905l-6.3 3.729-6.3-3.729z" fill="#389D2D"/><path d="M136.781 398.12v61.378" stroke="url(#u)"/><path d="M136.719 477.033v-22.547" stroke="url(#v)"/><path d="M136.541 460.329c5.037 0 9.119-4.112 9.119-9.185 0-5.072-4.082-9.184-9.119-9.184-5.036 0-9.119 4.112-9.119 9.184 0 5.073 4.083 9.185 9.119 9.185z" fill="#ACD4A7"/><path d="M136.542 456.656c3.022 0 5.471-2.467 5.471-5.511 0-3.043-2.449-5.51-5.471-5.51-3.022 0-5.472 2.467-5.472 5.51 0 3.044 2.45 5.511 5.472 5.511z" fill="#389D2D"/><path d="M302.711 398.12v61.378" stroke="url(#w)"/><path d="M302.641 477.033v-22.547" stroke="url(#x)"/><path d="M302.471 460.329c5.036 0 9.119-4.112 9.119-9.185 0-5.072-4.083-9.184-9.119-9.184-5.037 0-9.119 4.112-9.119 9.184 0 5.073 4.082 9.185 9.119 9.185z" fill="#ACD4A7"/><path d="M302.472 456.656c3.021 0 5.471-2.467 5.471-5.511 0-3.043-2.45-5.51-5.471-5.51-3.022 0-5.472 2.467-5.472 5.51 0 3.044 2.45 5.511 5.472 5.511z" fill="#389D2D"/></g><g clip-path="url(#y)"><path fill-rule="evenodd" clip-rule="evenodd" d="M219.314 77.188c5.534-3.19 14.507-3.19 20.041 0l70.087 40.39a6.534 6.534 0 0 1 3.271 5.576l1.238 92.74c0 6.378-4.487 14.134-10.022 17.324l-72.618 41.276a6.534 6.534 0 0 1-6.492-.02l-70.048-40.368c-5.535-3.19-10.021-10.947-10.021-17.325l.002-91.652a6.534 6.534 0 0 1 3.201-5.62l71.361-42.321zm18.037 1.154 70.087 40.392a6.54 6.54 0 0 1 3.272 5.574l1.236 92.74-.009.482c-.216 5.006-3.718 10.906-8.008 13.378l-72.618 41.277a6.534 6.534 0 0 1-6.492-.02l-70.048-40.37c-4.289-2.471-7.792-8.372-8.007-13.378l-.01-.482v-91.651a6.534 6.534 0 0 1 3.202-5.621l71.362-42.321.423-.233c4.45-2.317 11.321-2.239 15.61.233z" fill="url(#z)"/><path d="M312.18 214.613v-22.394" stroke="url(#A)"/><path d="M146.203 214.613v-22.394" stroke="url(#B)"/><path d="M146.266 136.233v60.962" stroke="url(#C)"/><path d="M310.713 124.308a6.536 6.536 0 0 0-3.271-5.574l-70.088-40.392c-4.289-2.472-11.159-2.55-15.61-.233l-.422.233-71.363 42.321a6.535 6.535 0 0 0-3.201 5.621v91.651l.009.482c.215 5.006 3.718 10.907 8.007 13.378l70.049 40.37a6.534 6.534 0 0 0 6.492.02l72.618-41.277c4.289-2.472 7.792-8.372 8.007-13.378l.01-.482-1.237-92.74z" fill="#F9F9F9"/><path fill-rule="evenodd" clip-rule="evenodd" d="M245.07 202.076c-.111-.005-.223-.007-.334-.005h-4.641c-3.797 0-7.048 3.012-7.048 6.944 0 3.929 3.251 6.942 7.05 6.942h4.637c.117.001.228-.001.334-.008a3.236 3.236 0 0 0 3.022-3.012c.008-.113.008-.233.008-.344v-7.158c0-.111 0-.231-.008-.344a3.235 3.235 0 0 0-3.02-3.012m-5.381 8.787c.978 0 1.773-.827 1.773-1.85 0-1.024-.795-1.851-1.773-1.851-.978 0-1.771.827-1.771 1.851 0 1.023.791 1.85 1.771 1.85z" fill="#389D2D"/><path fill-rule="evenodd" clip-rule="evenodd" d="M244.737 218.734a.41.41 0 0 1 .186.036.408.408 0 0 1 .222.479c-.37 1.319-.955 2.442-1.894 3.389-1.374 1.385-3.118 2.001-5.272 2.292-2.093.284-4.765.284-8.142.284h-3.883c-3.375 0-6.049 0-8.142-.284-2.154-.291-3.898-.907-5.272-2.292-1.374-1.383-1.984-3.142-2.274-5.31-.282-2.112-.282-4.807-.282-8.209v-.211c0-3.402 0-6.099.282-8.206.29-2.171.9-3.925 2.272-5.314 1.374-1.384 3.118-2.002 5.272-2.291 2.095-.284 4.769-.284 8.144-.284h3.883c3.375 0 6.049 0 8.142.284 2.154.292 3.898.907 5.272 2.291.939.948 1.524 2.072 1.894 3.393a.398.398 0 0 1-.075.358.39.39 0 0 1-.148.116.394.394 0 0 1-.185.038H240.1c-5.211 0-9.802 4.15-9.802 9.72 0 5.571 4.593 9.721 9.804 9.721h4.635zm-27.865-18.514a1.382 1.382 0 0 0-1.376 1.387c0 .768.616 1.389 1.376 1.389h7.35c.762 0 1.378-.621 1.378-1.389a1.387 1.387 0 0 0-1.378-1.387h-7.35z" fill="#389D2D"/><path d="m221 190.953 3.732-2.75a5.658 5.658 0 0 1 6.728 0l3.753 2.765c-1.571-.061-3.324-.061-5.244-.061h-4.136c-1.757 0-3.371 0-4.833.046z" fill="#389D2D"/><path d="M146.028 198.022a9.122 9.122 0 0 0 9.123-9.122 9.122 9.122 0 0 0-9.123-9.123 9.122 9.122 0 0 0-9.122 9.123 9.122 9.122 0 0 0 9.122 9.122z" fill="#ACD4A7"/><path d="M146.028 194.374a5.473 5.473 0 1 0 0-10.946 5.473 5.473 0 1 0 0 10.946z" fill="#389D2D"/><path d="M312.25 136.233v60.962" stroke="url(#D)"/><path d="M312.013 198.022a9.122 9.122 0 0 0 9.122-9.122 9.122 9.122 0 1 0-18.244 0 9.122 9.122 0 0 0 9.122 9.122z" fill="#ACD4A7"/><path d="M312.012 194.374a5.473 5.473 0 1 0 .001-10.947 5.473 5.473 0 0 0-.001 10.947z" fill="#389D2D"/><path d="m224.691 88.057-62.512 36.091c-2.813 1.624-2.813 4.257 0 5.881l60.585 34.979c2.813 1.624 7.374 1.624 10.187 0l62.512-36.091c2.812-1.624 2.812-4.257 0-5.881l-60.586-34.979c-2.813-1.624-7.373-1.624-10.186 0z" stroke="#DDD"/></g><g clip-path="url(#E)"><path fill-rule="evenodd" clip-rule="evenodd" d="M320.861 132.738c5.534-3.19 14.507-3.19 20.041 0l70.087 40.391a6.534 6.534 0 0 1 3.271 5.576l1.238 92.74c0 6.377-4.487 14.134-10.022 17.324l-72.618 41.276a6.534 6.534 0 0 1-6.492-.02l-70.049-40.368c-5.534-3.191-10.02-10.947-10.02-17.325l.002-91.653a6.533 6.533 0 0 1 3.201-5.619l71.361-42.322zm18.037 1.154 70.087 40.392a6.54 6.54 0 0 1 3.272 5.575l1.236 92.74-.009.482c-.216 5.005-3.718 10.906-8.008 13.378l-72.618 41.277a6.537 6.537 0 0 1-6.492-.02l-70.049-40.37c-4.288-2.471-7.791-8.372-8.006-13.378l-.01-.482v-91.651a6.535 6.535 0 0 1 3.201-5.621l71.363-42.322.422-.232c4.451-2.317 11.322-2.239 15.611.232z" fill="url(#F)"/><path d="M413.727 270.164V247.77" stroke="url(#G)"/><path d="M247.75 270.164V247.77" stroke="url(#H)"/><path d="M247.812 191.784v60.962" stroke="url(#I)"/><path d="M412.26 179.859a6.535 6.535 0 0 0-3.271-5.574l-70.088-40.393c-4.289-2.471-11.16-2.549-15.61-.232l-.423.232-71.362 42.322a6.533 6.533 0 0 0-3.201 5.621v91.651l.009.482c.215 5.006 3.718 10.907 8.007 13.378l70.049 40.37a6.537 6.537 0 0 0 6.492.02l72.618-41.277c4.289-2.472 7.792-8.373 8.007-13.378l.01-.482-1.237-92.74z" fill="#F9F9F9"/><path fill-rule="evenodd" clip-rule="evenodd" d="M346.616 257.627c-.111-.005-.222-.007-.333-.005h-4.641c-3.797 0-7.048 3.012-7.048 6.943 0 3.93 3.251 6.943 7.05 6.943h4.637c.117.001.228-.002.334-.008a3.236 3.236 0 0 0 3.022-3.013c.008-.112.008-.232.008-.343v-7.158c0-.111 0-.232-.008-.344a3.235 3.235 0 0 0-3.021-3.013m-5.38 8.788c.978 0 1.772-.827 1.772-1.85 0-1.024-.794-1.851-1.772-1.851s-1.771.827-1.771 1.851c0 1.023.791 1.85 1.771 1.85z" fill="#389D2D"/><path fill-rule="evenodd" clip-rule="evenodd" d="M346.284 274.285a.412.412 0 0 1 .186.036.426.426 0 0 1 .148.118.402.402 0 0 1 .074.361c-.37 1.318-.955 2.442-1.894 3.388-1.375 1.386-3.119 2.001-5.272 2.293-2.093.283-4.765.283-8.142.283h-3.883c-3.375 0-6.049 0-8.142-.283-2.154-.292-3.898-.907-5.272-2.293-1.374-1.382-1.984-3.141-2.274-5.31-.282-2.112-.282-4.806-.282-8.208v-.211c0-3.402 0-6.099.282-8.206.29-2.171.9-3.925 2.272-5.314 1.374-1.384 3.118-2.002 5.272-2.291 2.095-.284 4.769-.284 8.144-.284h3.883c3.375 0 6.049 0 8.142.284 2.153.291 3.897.907 5.272 2.291.939.947 1.524 2.071 1.894 3.393a.411.411 0 0 1-.075.358.409.409 0 0 1-.333.154h-4.637c-5.211 0-9.802 4.15-9.802 9.72 0 5.571 4.593 9.721 9.804 9.721h4.635zm-27.865-18.514a1.35 1.35 0 0 0-.528.107 1.369 1.369 0 0 0-.745.75 1.377 1.377 0 0 0-.103.529c0 .769.616 1.39 1.376 1.39h7.35c.762 0 1.378-.621 1.378-1.39a1.383 1.383 0 0 0-1.378-1.386h-7.35z" fill="#389D2D"/><path d="m322.547 246.504 3.732-2.75a5.658 5.658 0 0 1 6.728 0l3.752 2.765c-1.57-.061-3.324-.061-5.243-.061h-4.136c-1.757 0-3.371 0-4.833.046z" fill="#389D2D"/><path d="M247.575 253.573a9.124 9.124 0 1 0-.001-18.247 9.124 9.124 0 0 0 .001 18.247z" fill="#ACD4A7"/><path d="M247.575 249.925a5.473 5.473 0 1 0 0-10.946 5.473 5.473 0 1 0 0 10.946z" fill="#389D2D"/><path d="M413.797 191.784v60.962" stroke="url(#J)"/><path d="M413.56 253.573a9.123 9.123 0 1 0-.002-18.246 9.123 9.123 0 0 0 .002 18.246z" fill="#ACD4A7"/><path d="M413.559 249.925a5.473 5.473 0 1 0 .001-10.947 5.473 5.473 0 0 0-.001 10.947z" fill="#389D2D"/><path d="m326.238 143.608-62.512 36.091c-2.813 1.624-2.813 4.257 0 5.881l60.585 34.979c2.813 1.624 7.374 1.624 10.187 0l62.511-36.091c2.813-1.624 2.813-4.257 0-5.881l-60.585-34.979c-2.813-1.624-7.373-1.624-10.186 0z" stroke="#DDD"/></g><g clip-path="url(#K)"><path fill-rule="evenodd" clip-rule="evenodd" d="M117.978 137.593c5.552-3.199 14.554-3.199 20.106 0l70.315 40.523a6.555 6.555 0 0 1 3.282 5.592l1.241 93.041c0 6.4-4.501 14.182-10.054 17.383l-72.854 41.409a6.557 6.557 0 0 1-6.513-.019l-70.276-40.501c-5.552-3.2-10.053-10.981-10.053-17.381l.002-91.949a6.558 6.558 0 0 1 3.212-5.64l71.592-42.458zm18.095 1.159 70.316 40.523a6.558 6.558 0 0 1 3.282 5.592l1.24 93.042-.009.483c-.217 5.022-3.731 10.942-8.034 13.422l-72.854 41.409a6.557 6.557 0 0 1-6.513-.018l-70.276-40.501c-4.303-2.48-7.817-8.4-8.033-13.421l-.01-.484V186.85a6.558 6.558 0 0 1 3.212-5.64l71.594-42.458.424-.233c4.465-2.325 11.358-2.247 15.661.233z" fill="url(#L)"/><path d="M209.675 184.868a6.556 6.556 0 0 0-3.281-5.593l-70.316-40.523c-4.303-2.479-11.196-2.558-15.661-.233l-.424.233-71.594 42.459a6.556 6.556 0 0 0-3.212 5.639v91.949l.01.484c.216 5.022 3.73 10.942 8.033 13.421l70.276 40.501a6.557 6.557 0 0 0 6.513.019l72.854-41.41c4.303-2.48 7.817-8.4 8.034-13.421l.009-.484-1.241-93.041z" fill="#F9F9F9"/><path d="M128.448 290.017c-10.167 0-18.409-8.242-18.409-18.409 0-10.167 8.242-18.409 18.409-18.409 10.167 0 18.409 8.242 18.409 18.409 0 10.167-8.242 18.409-18.409 18.409zm1.674-29.286h-3.348V272.3l6.695 6.695 2.366-2.366-5.713-5.713v-10.185z" fill="#389D2D"/><path d="M211.148 275.452v-22.467" stroke="url(#M)"/><path d="M44.633 275.452v-22.467" stroke="url(#N)"/><path d="M44.695 196.818v61.16" stroke="url(#O)"/><path d="M44.456 258.807a9.151 9.151 0 1 0 0-18.303 9.152 9.152 0 1 0 0 18.303z" fill="#ACD4A7"/><path d="M44.46 255.147a5.49 5.49 0 1 0 0-10.982 5.49 5.49 0 0 0 0 10.982z" fill="#389D2D"/><path d="M211.219 196.818v61.16" stroke="url(#P)"/><path d="M210.98 258.808a9.153 9.153 0 1 0-.001-18.305 9.153 9.153 0 0 0 .001 18.305z" fill="#ACD4A7"/><path d="M210.975 255.147a5.491 5.491 0 1 0 .001-10.983 5.491 5.491 0 0 0-.001 10.983z" fill="#389D2D"/><path d="m123.934 148.486-62.715 36.208c-2.822 1.629-2.822 4.271 0 5.9l60.782 35.093c2.822 1.629 7.398 1.629 10.22 0l62.714-36.208c2.822-1.63 2.822-4.271 0-5.901l-60.782-35.092c-2.822-1.63-7.397-1.63-10.219 0z" stroke="#DDD"/></g><g clip-path="url(#Q)"><path fill-rule="evenodd" clip-rule="evenodd" d="M219.282 196.869c5.532-3.212 14.502-3.212 20.035 0l70.064 40.666a6.584 6.584 0 0 1 3.27 5.614l1.237 93.372c0 6.421-4.485 14.231-10.018 17.443l-72.595 41.557a6.495 6.495 0 0 1-6.489-.02l-70.027-40.644c-5.532-3.212-10.017-11.021-10.017-17.443l.002-92.277a6.587 6.587 0 0 1 3.201-5.658l71.337-42.61zm18.031 1.162 70.065 40.667a6.592 6.592 0 0 1 3.27 5.612l1.236 93.373-.009.485c-.215 5.04-3.717 10.981-8.005 13.469l-72.595 41.559a6.495 6.495 0 0 1-6.489-.02l-70.027-40.645c-4.287-2.489-7.789-8.43-8.004-13.469l-.009-.486V246.3a6.587 6.587 0 0 1 3.2-5.659l71.339-42.61.423-.234c4.449-2.333 11.317-2.254 15.605.234z" fill="url(#R)"/><path d="M310.653 244.31a6.59 6.59 0 0 0-3.271-5.612l-70.065-40.667c-4.287-2.489-11.156-2.568-15.605-.235l-.422.235-71.34 42.609a6.59 6.59 0 0 0-3.2 5.66v92.276l.01.485c.215 5.04 3.716 10.981 8.004 13.469l70.026 40.646a6.494 6.494 0 0 0 6.49.019l72.594-41.558c4.288-2.488 7.79-8.429 8.005-13.469l.01-.486-1.236-93.372z" fill="#F9F9F9"/><path d="M224.661 207.813 162.17 244.15c-2.812 1.635-2.812 4.286 0 5.921l60.565 35.217c2.812 1.636 7.372 1.636 10.184 0l62.491-36.337c2.812-1.635 2.812-4.286 0-5.921l-60.566-35.217c-2.812-1.636-7.371-1.636-10.183 0z" stroke="#DDD"/><path fill-rule="evenodd" clip-rule="evenodd" d="M240.665 307.635c.722 0 1.307.589 1.307 1.316v15.031c0 .518-.439.923-.953.923-3.864 0-7.315 1.782-9.586 4.575-.281.345-.893.154-.893-.292a.443.443 0 0 0-.443-.444h-2.062a1.31 1.31 0 0 0-1.306 1.315v1.373c0 .634.511 1.149 1.141 1.149.815 0 1.372.839 1.166 1.634a12.577 12.577 0 0 0-.402 3.163c0 2.245.589 4.35 1.619 6.169.57 1.008-.084 2.467-1.236 2.467h-12.414a1.311 1.311 0 0 1-1.306-1.316v-35.747c0-.727.585-1.316 1.306-1.316h24.062zm-2.314 12.829c0-.726-.584-1.316-1.306-1.316h-16.44c-.722 0-1.307.59-1.307 1.316v1.207c0 .726.585 1.316 1.307 1.316h16.44c.722 0 1.306-.59 1.306-1.316v-1.207zm-.19-7.675a1.31 1.31 0 0 0-1.307-1.316h-16.44a1.31 1.31 0 0 0-1.306 1.316v1.205a1.31 1.31 0 0 0 1.306 1.316h16.44a1.31 1.31 0 0 0 1.307-1.316v-1.205zm11.536 20.609c.243.535.004 1.151-.502 1.446-.485.281-.709.858-.628 1.416a7.724 7.724 0 0 1 0 2.237c-.081.557.143 1.134.628 1.415.506.295.745.911.502 1.447-.101.222-.21.44-.327.654l-.178.31a9.398 9.398 0 0 1-.41.628c-.339.479-.988.579-1.493.285-.486-.283-1.093-.189-1.532.161a7.552 7.552 0 0 1-1.921 1.118c-.521.208-.904.691-.904 1.256 0 .588-.411 1.102-.993 1.159a9.587 9.587 0 0 1-1.826 0c-.581-.057-.992-.571-.992-1.159 0-.565-.384-1.048-.904-1.256a7.535 7.535 0 0 1-1.921-1.118c-.44-.35-1.047-.444-1.532-.162-.506.295-1.154.195-1.494-.284a9.202 9.202 0 0 1-.413-.635l-.171-.297a10.423 10.423 0 0 1-.331-.66c-.242-.536-.004-1.152.502-1.447.485-.281.709-.858.628-1.415a7.748 7.748 0 0 1 0-2.236c.081-.559-.143-1.134-.628-1.417-.506-.294-.744-.911-.502-1.446.102-.224.213-.445.332-.661l.169-.296c.13-.217.268-.429.414-.635.34-.478.988-.578 1.494-.285.485.282 1.092.19 1.532-.162a7.654 7.654 0 0 1 1.921-1.118c.52-.208.904-.691.904-1.255 0-.587.411-1.103.992-1.158a9.53 9.53 0 0 1 1.827 0c.581.055.992.571.992 1.158 0 .564.383 1.047.904 1.255a7.641 7.641 0 0 1 1.921 1.118c.439.352 1.046.444 1.532.162.505-.294 1.154-.194 1.493.285.145.203.282.413.41.627l.178.311c.117.214.226.431.327.654zm-5.813 3.98a2.868 2.868 0 0 1-2.858 2.879 2.869 2.869 0 0 1-2.858-2.879 2.869 2.869 0 0 1 2.858-2.878 2.868 2.868 0 0 1 2.858 2.878z" fill="#389D2D"/><path d="M146.266 256.317v61.378" stroke="url(#S)"/><path d="M146.203 335.231v-22.547" stroke="url(#T)"/><path d="M146.026 318.526c5.036 0 9.119-4.112 9.119-9.184 0-5.073-4.083-9.185-9.119-9.185-5.037 0-9.12 4.112-9.12 9.185 0 5.072 4.083 9.184 9.12 9.184z" fill="#ACD4A7"/><path d="M146.026 314.853c3.022 0 5.472-2.467 5.472-5.51 0-3.044-2.45-5.511-5.472-5.511-3.022 0-5.471 2.467-5.471 5.511 0 3.043 2.449 5.51 5.471 5.51z" fill="#389D2D"/><path d="M312.195 256.317v61.378" stroke="url(#U)"/><path d="M312.125 335.231v-22.547" stroke="url(#V)"/><path d="M311.955 318.526c5.037 0 9.119-4.112 9.119-9.184 0-5.073-4.082-9.185-9.119-9.185-5.036 0-9.119 4.112-9.119 9.185 0 5.072 4.083 9.184 9.119 9.184z" fill="#ACD4A7"/><path d="M311.956 314.853c3.022 0 5.471-2.467 5.471-5.51 0-3.044-2.449-5.511-5.471-5.511-3.022 0-5.472 2.467-5.472 5.511 0 3.043 2.45 5.51 5.472 5.51z" fill="#389D2D"/></g><rect width="263.47" height="263.47" rx="20" transform="matrix(.86603 -.5 .86603 .5 .172 131.733)" fill="#ACD4A7"/><rect width="263.47" height="263.47" rx="20" transform="matrix(.86603 -.5 .86603 .5 .172 131.733)" fill="#389D2D"/><defs><radialGradient id="A" cx="0" cy="0" r="1" gradientUnits="userSpaceOnUse"><stop stop-color="#389D2D" stop-opacity="0"/><stop offset="1" stop-color="#389D2D"/></radialGradient><radialGradient id="D" cx="0" cy="0" r="1" gradientUnits="userSpaceOnUse"><stop stop-color="#389D2D" stop-opacity="0"/><stop offset="1" stop-color="#389D2D"/></radialGradient><radialGradient id="e" cx="0" cy="0" r="1" gradientUnits="userSpaceOnUse"><stop stop-color="#389D2D" stop-opacity="0"/><stop offset="1" stop-color="#389D2D"/></radialGradient><radialGradient id="f" cx="0" cy="0" r="1" gradientUnits="userSpaceOnUse"><stop stop-color="#389D2D" stop-opacity="0"/><stop offset="1" stop-color="#389D2D"/></radialGradient><radialGradient id="i" cx="0" cy="0" r="1" gradientUnits="userSpaceOnUse"><stop stop-color="#389D2D" stop-opacity="0"/><stop offset="1" stop-color="#389D2D"/></radialGradient><radialGradient id="j" cx="0" cy="0" r="1" gradientUnits="userSpaceOnUse"><stop stop-color="#389D2D" stop-opacity="0"/><stop offset="1" stop-color="#389D2D"/></radialGradient><radialGradient id="k" cx="0" cy="0" r="1" gradientUnits="userSpaceOnUse"><stop stop-color="#389D2D" stop-opacity="0"/><stop offset="1" stop-color="#389D2D"/></radialGradient><radialGradient id="l" cx="0" cy="0" r="1" gradientUnits="userSpaceOnUse"><stop stop-color="#389D2D" stop-opacity="0"/><stop offset="1" stop-color="#389D2D"/></radialGradient><radialGradient id="o" cx="0" cy="0" r="1" gradientUnits="userSpaceOnUse"><stop stop-color="#389D2D" stop-opacity="0"/><stop offset="1" stop-color="#389D2D"/></radialGradient><radialGradient id="p" cx="0" cy="0" r="1" gradientUnits="userSpaceOnUse"><stop stop-color="#389D2D" stop-opacity="0"/><stop offset="1" stop-color="#389D2D"/></radialGradient><radialGradient id="q" cx="0" cy="0" r="1" gradientUnits="userSpaceOnUse"><stop stop-color="#389D2D" stop-opacity="0"/><stop offset="1" stop-color="#389D2D"/></radialGradient><radialGradient id="r" cx="0" cy="0" r="1" gradientUnits="userSpaceOnUse"><stop stop-color="#389D2D" stop-opacity="0"/><stop offset="1" stop-color="#389D2D"/></radialGradient><radialGradient id="u" cx="0" cy="0" r="1" gradientUnits="userSpaceOnUse"><stop stop-color="#389D2D" stop-opacity="0"/><stop offset="1" stop-color="#389D2D"/></radialGradient><radialGradient id="v" cx="0" cy="0" r="1" gradientUnits="userSpaceOnUse"><stop stop-color="#389D2D" stop-opacity="0"/><stop offset="1" stop-color="#389D2D"/></radialGradient><radialGradient id="w" cx="0" cy="0" r="1" gradientUnits="userSpaceOnUse"><stop stop-color="#389D2D" stop-opacity="0"/><stop offset="1" stop-color="#389D2D"/></radialGradient><radialGradient id="x" cx="0" cy="0" r="1" gradientUnits="userSpaceOnUse"><stop stop-color="#389D2D" stop-opacity="0"/><stop offset="1" stop-color="#389D2D"/></radialGradient><radialGradient id="d" cx="0" cy="0" r="1" gradientUnits="userSpaceOnUse"><stop stop-color="#389D2D" stop-opacity="0"/><stop offset="1" stop-color="#389D2D"/></radialGradient><radialGradient id="B" cx="0" cy="0" r="1" gradientUnits="userSpaceOnUse"><stop stop-color="#389D2D" stop-opacity="0"/><stop offset="1" stop-color="#389D2D"/></radialGradient><radialGradient id="C" cx="0" cy="0" r="1" gradientUnits="userSpaceOnUse"><stop stop-color="#389D2D" stop-opacity="0"/><stop offset="1" stop-color="#389D2D"/></radialGradient><radialGradient id="c" cx="0" cy="0" r="1" gradientUnits="userSpaceOnUse"><stop stop-color="#389D2D" stop-opacity="0"/><stop offset="1" stop-color="#389D2D"/></radialGradient><radialGradient id="G" cx="0" cy="0" r="1" gradientUnits="userSpaceOnUse"><stop stop-color="#389D2D" stop-opacity="0"/><stop offset="1" stop-color="#389D2D"/></radialGradient><radialGradient id="H" cx="0" cy="0" r="1" gradientUnits="userSpaceOnUse"><stop stop-color="#389D2D" stop-opacity="0"/><stop offset="1" stop-color="#389D2D"/></radialGradient><radialGradient id="I" cx="0" cy="0" r="1" gradientUnits="userSpaceOnUse"><stop stop-color="#389D2D" stop-opacity="0"/><stop offset="1" stop-color="#389D2D"/></radialGradient><radialGradient id="J" cx="0" cy="0" r="1" gradientUnits="userSpaceOnUse"><stop stop-color="#389D2D" stop-opacity="0"/><stop offset="1" stop-color="#389D2D"/></radialGradient><radialGradient id="M" cx="0" cy="0" r="1" gradientUnits="userSpaceOnUse"><stop stop-color="#389D2D" stop-opacity="0"/><stop offset="1" stop-color="#389D2D"/></radialGradient><radialGradient id="N" cx="0" cy="0" r="1" gradientUnits="userSpaceOnUse"><stop stop-color="#389D2D" stop-opacity="0"/><stop offset="1" stop-color="#389D2D"/></radialGradient><radialGradient id="O" cx="0" cy="0" r="1" gradientUnits="userSpaceOnUse"><stop stop-color="#389D2D" stop-opacity="0"/><stop offset="1" stop-color="#389D2D"/></radialGradient><radialGradient id="P" cx="0" cy="0" r="1" gradientUnits="userSpaceOnUse"><stop stop-color="#389D2D" stop-opacity="0"/><stop offset="1" stop-color="#389D2D"/></radialGradient><radialGradient id="S" cx="0" cy="0" r="1" gradientUnits="userSpaceOnUse"><stop stop-color="#389D2D" stop-opacity="0"/><stop offset="1" stop-color="#389D2D"/></radialGradient><radialGradient id="T" cx="0" cy="0" r="1" gradientUnits="userSpaceOnUse"><stop stop-color="#389D2D" stop-opacity="0"/><stop offset="1" stop-color="#389D2D"/></radialGradient><radialGradient id="U" cx="0" cy="0" r="1" gradientUnits="userSpaceOnUse"><stop stop-color="#389D2D" stop-opacity="0"/><stop offset="1" stop-color="#389D2D"/></radialGradient><radialGradient id="V" cx="0" cy="0" r="1" gradientUnits="userSpaceOnUse"><stop stop-color="#389D2D" stop-opacity="0"/><stop offset="1" stop-color="#389D2D"/></radialGradient><linearGradient id="F" x1="234.993" y1="231.51" x2="457.152" y2="231.51" gradientUnits="userSpaceOnUse"><stop stop-color="#737373" stop-opacity=".11"/><stop offset="1" stop-color="#D9D9D9" stop-opacity=".2"/></linearGradient><linearGradient id="z" x1="133.446" y1="175.959" x2="355.605" y2="175.959" gradientUnits="userSpaceOnUse"><stop stop-color="#737373" stop-opacity=".11"/><stop offset="1" stop-color="#D9D9D9" stop-opacity=".2"/></linearGradient><linearGradient id="h" x1="244.485" y1="363.818" x2="466.645" y2="363.818" gradientUnits="userSpaceOnUse"><stop stop-color="#737373" stop-opacity=".11"/><stop offset="1" stop-color="#D9D9D9" stop-opacity=".2"/></linearGradient><linearGradient id="R" x1="133.442" y1="296.314" x2="355.53" y2="296.314" gradientUnits="userSpaceOnUse"><stop stop-color="#737373" stop-opacity=".11"/><stop offset="1" stop-color="#D9D9D9" stop-opacity=".2"/></linearGradient><linearGradient id="n" x1="22.331" y1="378.489" x2="245.212" y2="378.489" gradientUnits="userSpaceOnUse"><stop stop-color="#737373" stop-opacity=".11"/><stop offset="1" stop-color="#D9D9D9" stop-opacity=".2"/></linearGradient><linearGradient id="b" x1="123.961" y1="317.764" x2="346.121" y2="317.764" gradientUnits="userSpaceOnUse"><stop stop-color="#737373" stop-opacity=".11"/><stop offset="1" stop-color="#D9D9D9" stop-opacity=".2"/></linearGradient><linearGradient id="L" x1="31.831" y1="236.685" x2="254.712" y2="236.685" gradientUnits="userSpaceOnUse"><stop stop-color="#737373" stop-opacity=".11"/><stop offset="1" stop-color="#D9D9D9" stop-opacity=".2"/></linearGradient><linearGradient id="t" x1="123.957" y1="438.117" x2="346.045" y2="438.117" gradientUnits="userSpaceOnUse"><stop stop-color="#737373" stop-opacity=".11"/><stop offset="1" stop-color="#D9D9D9" stop-opacity=".2"/></linearGradient><clipPath id="a"><path fill="#fff" transform="translate(127.422 215.306)" d="M0 0h184.278v202.575H0z"/></clipPath><clipPath id="g"><path fill="#fff" transform="translate(247.945 261.359)" d="M0 0h184.278v202.575H0z"/></clipPath><clipPath id="m"><path fill="#fff" transform="translate(25.805 276.997)" d="M0 0h184.876v201.921H0z"/></clipPath><clipPath id="s"><path fill="#fff" transform="translate(127.422 335.617)" d="M0 0h184.218v202.64H0z"/></clipPath><clipPath id="y"><path fill="#fff" transform="translate(136.906 73.501)" d="M0 0h184.278v202.575H0z"/></clipPath><clipPath id="E"><path fill="#fff" transform="translate(238.453 129.052)" d="M0 0h184.278v202.575H0z"/></clipPath><clipPath id="K"><path fill="#fff" transform="translate(35.305 135.193)" d="M0 0h184.876v201.921H0z"/></clipPath><clipPath id="Q"><path fill="#fff" transform="translate(136.906 193.814)" d="M0 0h184.218v202.64H0z"/></clipPath></defs></svg>