<svg width="457" height="589" viewBox="0 0 457 589" fill="none" xmlns="http://www.w3.org/2000/svg">
<rect width="263.47" height="263.47" rx="20" transform="matrix(0.866025 -0.5 0.866025 0.5 0.171875 457.261)" fill="#ACD4A7"/>
<rect width="263.47" height="263.47" rx="20" transform="matrix(0.866025 -0.5 0.866025 0.5 0.171875 457.261)" fill="#389D2D"/>
<g clip-path="url(#clip0_4809_6337)">
<path fill-rule="evenodd" clip-rule="evenodd" d="M209.829 218.992C215.364 215.802 224.336 215.802 229.871 218.992L299.958 259.383C301.956 260.534 303.199 262.653 303.229 264.958L304.466 357.698C304.466 364.076 299.98 371.833 294.445 375.023L221.827 416.299C219.812 417.444 217.342 417.436 215.335 416.279L145.286 375.911C139.752 372.72 135.266 364.964 135.266 358.586L135.268 266.933C135.268 264.626 136.485 262.49 138.469 261.313L209.829 218.992ZM227.866 220.146L297.954 260.538C299.951 261.69 301.194 263.808 301.225 266.112L302.462 358.852L302.452 359.335C302.237 364.34 298.734 370.241 294.445 372.713L221.827 413.989C219.812 415.134 217.342 415.126 215.335 413.97L145.286 373.6C140.997 371.129 137.494 365.228 137.279 360.222L137.27 359.74V268.089C137.27 265.78 138.487 263.645 140.471 262.467L211.834 220.146L212.256 219.914C216.707 217.596 223.577 217.675 227.866 220.146Z" fill="url(#paint0_linear_4809_6337)"/>
<path d="M302.695 356.418V334.023" stroke="url(#paint1_radial_4809_6337)"/>
<path d="M136.719 356.418V334.023" stroke="url(#paint2_radial_4809_6337)"/>
<path d="M136.781 278.038V339" stroke="url(#paint3_radial_4809_6337)"/>
<path d="M301.229 266.113C301.198 263.808 299.955 261.69 297.958 260.538L227.87 220.146C223.581 217.675 216.71 217.597 212.26 219.914L211.837 220.146L140.475 262.467C138.49 263.645 137.273 265.781 137.273 268.089V359.74L137.283 360.222C137.498 365.228 141.001 371.129 145.29 373.6L215.338 413.97C217.346 415.126 219.816 415.134 221.83 413.989L294.449 372.713C298.738 370.241 302.24 364.34 302.456 359.335L302.465 358.853L301.229 266.113Z" fill="#F9F9F9"/>
<path fill-rule="evenodd" clip-rule="evenodd" d="M235.585 343.881C235.474 343.875 235.363 343.874 235.252 343.875H230.611C226.814 343.875 223.562 346.888 223.562 350.819C223.562 354.749 226.814 357.762 230.613 357.762H235.25C235.367 357.763 235.478 357.76 235.583 357.754C236.367 357.704 237.105 357.37 237.661 356.815C238.217 356.261 238.553 355.524 238.606 354.741C238.614 354.629 238.614 354.509 238.614 354.398V347.24C238.614 347.128 238.614 347.008 238.606 346.896C238.553 346.113 238.217 345.376 237.662 344.822C237.106 344.268 236.368 343.934 235.585 343.883M230.205 352.671C231.182 352.671 231.977 351.844 231.977 350.821C231.977 349.797 231.182 348.97 230.205 348.97C229.227 348.97 228.434 349.797 228.434 350.821C228.434 351.844 229.225 352.671 230.205 352.671Z" fill="#389D2D"/>
<path fill-rule="evenodd" clip-rule="evenodd" d="M235.253 360.539C235.317 360.536 235.38 360.549 235.438 360.575C235.496 360.603 235.547 360.643 235.587 360.693C235.627 360.742 235.654 360.801 235.667 360.864C235.68 360.927 235.678 360.991 235.661 361.053C235.291 362.372 234.706 363.496 233.766 364.442C232.392 365.828 230.648 366.443 228.495 366.735C226.402 367.018 223.73 367.018 220.352 367.018H216.47C213.094 367.018 210.42 367.018 208.328 366.735C206.174 366.443 204.43 365.828 203.056 364.442C201.682 363.06 201.072 361.301 200.782 359.132C200.5 357.02 200.5 354.325 200.5 350.923V350.713C200.5 347.311 200.5 344.614 200.782 342.507C201.072 340.336 201.682 338.582 203.054 337.193C204.428 335.809 206.172 335.191 208.326 334.902C210.42 334.618 213.094 334.618 216.47 334.618H220.352C223.728 334.618 226.402 334.618 228.495 334.902C230.648 335.193 232.392 335.809 233.766 337.193C234.706 338.14 235.291 339.264 235.661 340.586C235.677 340.647 235.679 340.711 235.666 340.774C235.653 340.835 235.626 340.894 235.586 340.944C235.546 340.993 235.495 341.034 235.438 341.06C235.38 341.087 235.317 341.099 235.253 341.098H230.616C225.405 341.098 220.814 345.247 220.814 350.818C220.814 356.389 225.407 360.539 230.618 360.539H235.253ZM207.388 342.025C207.207 342.025 207.027 342.061 206.86 342.132C206.692 342.201 206.54 342.304 206.413 342.432C206.285 342.562 206.184 342.715 206.115 342.882C206.046 343.05 206.011 343.23 206.012 343.411C206.012 344.18 206.628 344.8 207.388 344.8H214.737C215.5 344.8 216.115 344.18 216.115 343.411C216.116 343.045 215.972 342.692 215.713 342.432C215.455 342.172 215.104 342.026 214.737 342.025H207.388Z" fill="#389D2D"/>
<path d="M211.516 332.757L215.247 330.008C216.221 329.288 217.4 328.899 218.611 328.899C219.822 328.899 221.001 329.288 221.975 330.008L225.728 332.773C224.158 332.712 222.404 332.712 220.485 332.712H216.349C214.592 332.712 212.977 332.712 211.516 332.757Z" fill="#389D2D"/>
<path d="M136.544 339.826C141.582 339.826 145.666 335.742 145.666 330.704C145.666 325.666 141.582 321.582 136.544 321.582C131.506 321.582 127.422 325.666 127.422 330.704C127.422 335.742 131.506 339.826 136.544 339.826Z" fill="#ACD4A7"/>
<path d="M136.544 336.179C139.566 336.179 142.017 333.729 142.017 330.706C142.017 327.683 139.566 325.232 136.544 325.232C133.521 325.232 131.07 327.683 131.07 330.706C131.07 333.729 133.521 336.179 136.544 336.179Z" fill="#389D2D"/>
<path d="M302.766 278.038V339" stroke="url(#paint4_radial_4809_6337)"/>
<path d="M302.528 339.826C307.567 339.826 311.651 335.742 311.651 330.704C311.651 325.666 307.567 321.582 302.528 321.582C297.49 321.582 293.406 325.666 293.406 330.704C293.406 335.742 297.49 339.826 302.528 339.826Z" fill="#ACD4A7"/>
<path d="M302.528 336.179C305.551 336.179 308.001 333.729 308.001 330.706C308.001 327.683 305.551 325.232 302.528 325.232C299.505 325.232 297.055 327.683 297.055 330.706C297.055 333.729 299.505 336.179 302.528 336.179Z" fill="#389D2D"/>
<path d="M215.206 229.862L152.695 265.953C149.882 267.577 149.882 270.21 152.695 271.834L213.28 306.813C216.093 308.437 220.654 308.437 223.467 306.813L285.978 270.722C288.791 269.098 288.791 266.465 285.978 264.841L225.393 229.862C222.58 228.238 218.019 228.238 215.206 229.862Z" stroke="#DDDDDD"/>
</g>
<g clip-path="url(#clip1_4809_6337)">
<path fill-rule="evenodd" clip-rule="evenodd" d="M330.353 265.046C335.887 261.856 344.86 261.856 350.394 265.046L420.481 305.437C422.479 306.588 423.722 308.707 423.752 311.012L424.99 403.752C424.99 410.13 420.503 417.887 414.968 421.077L342.35 462.352C340.336 463.497 337.866 463.489 335.858 462.333L265.81 421.964C260.276 418.774 255.789 411.017 255.789 404.64L255.791 312.987C255.791 310.68 257.008 308.543 258.992 307.367L330.353 265.046ZM348.39 266.2L418.477 306.592C420.474 307.744 421.717 309.862 421.749 312.166L422.985 404.906L422.976 405.388C422.76 410.394 419.258 416.295 414.968 418.766L342.35 460.043C340.336 461.188 337.866 461.18 335.858 460.023L265.81 419.654C261.521 417.182 258.018 411.281 257.803 406.276L257.793 405.794V314.142C257.793 311.834 259.01 309.699 260.995 308.521L332.357 266.2L332.78 265.967C337.23 263.65 344.101 263.729 348.39 266.2Z" fill="url(#paint5_linear_4809_6337)"/>
<path d="M423.219 402.471V380.077" stroke="url(#paint6_radial_4809_6337)"/>
<path d="M257.242 402.471V380.077" stroke="url(#paint7_radial_4809_6337)"/>
<path d="M257.305 324.092V385.054" stroke="url(#paint8_radial_4809_6337)"/>
<path d="M421.752 312.166C421.721 309.862 420.478 307.744 418.481 306.592L348.394 266.2C344.104 263.729 337.234 263.65 332.783 265.967L332.361 266.2L260.998 308.521C259.014 309.699 257.797 311.834 257.797 314.142V405.794L257.807 406.276C258.022 411.281 261.524 417.182 265.813 419.654L335.862 460.024C337.869 461.18 340.34 461.188 342.354 460.043L414.972 418.766C419.261 416.295 422.764 410.394 422.98 405.388L422.989 404.906L421.752 312.166Z" fill="#F9F9F9"/>
<path d="M338.499 416.696C337.697 416.696 337.008 416.429 336.43 415.895C335.852 415.361 335.503 414.708 335.383 413.936L334.982 410.999C334.596 410.85 334.233 410.672 333.893 410.465C333.552 410.257 333.218 410.034 332.89 409.797L330.13 410.954C329.389 411.281 328.647 411.31 327.905 411.043C327.163 410.776 326.584 410.301 326.169 409.619L324.077 405.969C323.661 405.286 323.543 404.559 323.721 403.788C323.899 403.016 324.299 402.378 324.923 401.874L327.282 400.093C327.252 399.886 327.237 399.685 327.237 399.492V398.29C327.237 398.097 327.252 397.897 327.282 397.69L324.923 395.909C324.299 395.405 323.899 394.767 323.721 393.995C323.543 393.224 323.661 392.497 324.077 391.814L326.169 388.164C326.584 387.482 327.163 387.007 327.905 386.74C328.647 386.473 329.389 386.502 330.13 386.829L332.89 387.986C333.217 387.749 333.558 387.526 333.914 387.319C334.27 387.111 334.626 386.933 334.982 386.784L335.383 383.847C335.501 383.075 335.85 382.422 336.43 381.888C337.009 381.354 337.699 381.087 338.499 381.087H342.683C343.484 381.087 344.174 381.354 344.753 381.888C345.333 382.422 345.681 383.075 345.798 383.847L346.199 386.784C346.585 386.933 346.949 387.111 347.29 387.319C347.632 387.526 347.966 387.749 348.291 387.986L351.051 386.829C351.793 386.502 352.535 386.473 353.276 386.74C354.018 387.007 354.597 387.482 355.012 388.164L357.104 391.814C357.52 392.497 357.639 393.224 357.46 393.995C357.282 394.767 356.882 395.405 356.259 395.909L353.9 397.69C353.929 397.897 353.944 398.098 353.944 398.291V399.492C353.944 399.685 353.914 399.886 353.855 400.093L356.214 401.874C356.837 402.378 357.238 403.016 357.416 403.788C357.594 404.559 357.475 405.286 357.06 405.969L354.923 409.619C354.508 410.301 353.929 410.776 353.187 411.043C352.445 411.31 351.704 411.281 350.962 410.954L348.291 409.797C347.965 410.034 347.623 410.257 347.267 410.465C346.911 410.672 346.555 410.85 346.199 410.999L345.798 413.936C345.68 414.708 345.331 415.361 344.753 415.895C344.175 416.429 343.485 416.696 342.683 416.696H338.499ZM340.68 405.123C342.401 405.123 343.87 404.515 345.086 403.298C346.303 402.082 346.911 400.613 346.911 398.892C346.911 397.17 346.303 395.702 345.086 394.485C343.87 393.268 342.401 392.66 340.68 392.66C338.929 392.66 337.452 393.268 336.25 394.485C335.047 395.702 334.447 397.17 334.448 398.892C334.449 400.613 335.05 402.082 336.252 403.298C337.453 404.515 338.929 405.123 340.68 405.123Z" fill="#389D2D"/>
<path d="M257.068 385.88C262.106 385.88 266.19 381.796 266.19 376.758C266.19 371.72 262.106 367.636 257.068 367.636C252.029 367.636 247.945 371.72 247.945 376.758C247.945 381.796 252.029 385.88 257.068 385.88Z" fill="#ACD4A7"/>
<path d="M257.067 382.233C260.09 382.233 262.54 379.782 262.54 376.759C262.54 373.737 260.09 371.286 257.067 371.286C254.044 371.286 251.594 373.737 251.594 376.759C251.594 379.782 254.044 382.233 257.067 382.233Z" fill="#389D2D"/>
<path d="M423.289 324.092V385.054" stroke="url(#paint9_radial_4809_6337)"/>
<path d="M423.052 385.88C428.09 385.88 432.174 381.796 432.174 376.758C432.174 371.72 428.09 367.636 423.052 367.636C418.014 367.636 413.93 371.72 413.93 376.758C413.93 381.796 418.014 385.88 423.052 385.88Z" fill="#ACD4A7"/>
<path d="M423.051 382.233C426.074 382.233 428.525 379.782 428.525 376.759C428.525 373.737 426.074 371.286 423.051 371.286C420.029 371.286 417.578 373.737 417.578 376.759C417.578 379.782 420.029 382.233 423.051 382.233Z" fill="#389D2D"/>
<path d="M335.73 275.916L273.218 312.007C270.405 313.631 270.405 316.264 273.218 317.888L333.803 352.867C336.616 354.491 341.177 354.491 343.99 352.867L406.502 316.776C409.315 315.152 409.315 312.519 406.502 310.894L345.916 275.916C343.103 274.292 338.543 274.292 335.73 275.916Z" stroke="#DDDDDD"/>
</g>
<g clip-path="url(#clip2_4809_6337)">
<path fill-rule="evenodd" clip-rule="evenodd" d="M108.478 279.397C114.03 276.197 123.032 276.197 128.584 279.397L198.899 319.92C200.904 321.075 202.15 323.2 202.181 325.512L203.422 418.553C203.422 424.953 198.921 432.735 193.368 435.935L120.514 477.345C118.493 478.494 116.015 478.486 114.001 477.325L43.7249 436.824C38.1729 433.625 33.6719 425.843 33.6719 419.443L33.674 327.494C33.6741 325.179 34.8948 323.036 36.8857 321.855L108.478 279.397ZM126.573 280.556L196.889 321.079C198.892 322.233 200.139 324.358 200.171 326.671L201.411 419.712L201.402 420.196C201.185 425.218 197.671 431.138 193.368 433.617L120.514 475.027C118.493 476.176 116.015 476.169 114.001 475.009L43.7249 434.508C39.4222 432.028 35.908 426.108 35.6923 421.086L35.6826 420.603V328.654C35.6826 326.338 36.9033 324.196 38.8943 323.014L110.488 280.556L110.912 280.322C115.377 277.998 122.27 278.076 126.573 280.556Z" fill="url(#paint10_linear_4809_6337)"/>
<path d="M200.175 326.671C200.144 324.358 198.897 322.233 196.894 321.079L126.578 280.556C122.275 278.076 115.382 277.998 110.917 280.323L110.493 280.556L38.8992 323.014C36.9082 324.196 35.6875 326.338 35.6875 328.654V420.603L35.6972 421.087C35.9129 426.109 39.4271 432.028 43.7299 434.508L114.006 475.009C116.02 476.169 118.498 476.176 120.519 475.027L193.373 433.618C197.676 431.138 201.19 425.218 201.407 420.196L201.416 419.713L200.175 326.671Z" fill="#F9F9F9"/>
<path d="M131.71 422.848C131.714 423.186 131.627 423.628 131.536 423.993C130.902 426.555 128.085 429.43 124.121 429.168C120.528 428.932 117.602 427.207 117.602 424.788C117.602 422.369 120.521 420.408 124.121 420.408C127.721 420.408 131.688 420.43 131.71 422.848Z" fill="#389D2D"/>
<path d="M124.124 420.817C122.19 420.817 117.777 421.352 116.764 421.352C114.975 421.352 113.523 422.475 113.523 423.861C113.523 424.527 113.865 425.129 114.412 425.578C114.412 425.578 115.614 426.784 117.778 426.206C118.725 425.952 120.266 424.072 122.979 423.774C124.33 423.624 126.861 424.669 131.309 424.695C131.5 424.284 131.539 423.998 131.539 423.998C131.539 421.577 127.724 420.817 124.124 420.817Z" fill="white"/>
<path d="M131.527 423.992C131.527 423.992 134.136 423.463 135.758 421.33C137.649 418.842 137.4 416.179 137.4 416.179C139.316 412.596 136.803 409.236 136.803 409.236C136.554 405.453 134.215 403.886 134.215 403.886C132.697 400.277 129.338 399.308 129.338 399.308C126.701 396.222 122.022 396.321 122.022 396.321C122.022 396.321 117.638 394.715 111.621 396.521C110.626 396.82 107.291 397.516 104.852 399.009C97.1644 403.715 96.5827 411.054 96.6902 412.247C97.2862 418.916 101.965 420.11 104.951 420.806C105.647 422.697 108.211 426.181 112.814 424.888C118.488 423.893 120.877 422.2 122.27 422.2C123.664 422.2 127.546 423.693 131.527 423.992Z" fill="#389D2D"/>
<path d="M117.187 413.274C119.968 411.775 121.475 411.914 122.806 412.035C123.229 412.073 123.629 412.103 124.034 412.101C126.403 412.047 128.323 411.048 129.172 410.082C129.27 409.962 129.317 409.809 129.304 409.655C129.291 409.501 129.219 409.358 129.102 409.256C128.986 409.154 128.835 409.1 128.681 409.107C128.526 409.114 128.381 409.181 128.274 409.292C127.619 410.038 126.006 410.861 124.006 410.906C123.648 410.917 123.288 410.881 122.916 410.846C121.488 410.714 119.716 410.551 116.62 412.222C115.825 412.651 114.736 412.81 113.556 412.93C110.932 409.142 112.511 405.843 112.962 405.057C113.007 405.059 113.05 405.074 113.095 405.074C113.573 405.074 114.053 404.957 114.488 404.711C114.62 404.63 114.716 404.501 114.755 404.351C114.794 404.201 114.773 404.041 114.697 403.906C114.621 403.772 114.495 403.672 114.346 403.628C114.197 403.584 114.037 403.599 113.9 403.671C113.524 403.878 113.084 403.936 112.668 403.832C112.252 403.729 111.89 403.472 111.654 403.114C111.566 402.988 111.432 402.902 111.281 402.873C111.13 402.844 110.974 402.873 110.845 402.956C110.716 403.039 110.623 403.169 110.587 403.318C110.551 403.467 110.573 403.624 110.65 403.757C110.933 404.201 111.332 404.534 111.782 404.757C111.16 406.021 109.979 409.344 112.227 413.06C110.645 413.215 109.061 413.438 107.821 414.237C106.95 414.809 106.19 415.534 105.578 416.377C104.827 416.248 102.076 415.57 101.596 412.517C101.895 412.286 102.136 411.98 102.285 411.603C102.314 411.53 102.328 411.452 102.327 411.373C102.326 411.295 102.309 411.217 102.278 411.145C102.247 411.073 102.202 411.008 102.145 410.954C102.089 410.899 102.022 410.856 101.95 410.827C101.877 410.798 101.799 410.784 101.72 410.786C101.642 410.787 101.564 410.803 101.492 410.835C101.42 410.866 101.355 410.911 101.301 410.967C101.246 411.024 101.203 411.09 101.174 411.163C101.129 411.289 101.058 411.403 100.964 411.498C100.87 411.593 100.757 411.667 100.632 411.714C100.506 411.755 100.371 411.77 100.239 411.755C100.107 411.741 99.9786 411.698 99.8641 411.63C99.7955 411.592 99.7201 411.568 99.6422 411.559C99.5643 411.55 99.4854 411.556 99.41 411.578C99.2576 411.621 99.1288 411.723 99.0518 411.862C98.9749 412 98.956 412.164 98.9995 412.316C99.0429 412.468 99.1451 412.597 99.2836 412.674C99.6228 412.863 99.9859 412.958 100.347 412.958C100.391 412.958 100.433 412.938 100.477 412.936C101.045 415.818 103.323 417.084 104.934 417.467C104.724 417.916 104.59 418.398 104.539 418.891C104.525 419.049 104.575 419.206 104.676 419.327C104.778 419.448 104.924 419.524 105.081 419.538L105.135 419.541C105.284 419.541 105.428 419.485 105.538 419.384C105.648 419.283 105.717 419.145 105.73 418.996C105.859 417.547 107.241 416.034 108.469 415.24C109.62 414.498 111.306 414.341 112.937 414.19C114.52 414.045 116.015 413.907 117.187 413.274ZM132.555 411.477C132.479 411.616 132.461 411.78 132.506 411.932C132.55 412.084 132.653 412.212 132.793 412.288C132.932 412.364 133.095 412.382 133.247 412.337C133.399 412.293 133.528 412.19 133.604 412.05C133.626 412.01 135.804 407.931 131.727 405.19C131.596 405.101 131.434 405.069 131.279 405.099C131.123 405.13 130.986 405.221 130.898 405.352C130.81 405.483 130.777 405.645 130.808 405.8C130.838 405.956 130.929 406.093 131.061 406.181C134.219 408.305 132.624 411.348 132.555 411.477ZM107.798 401.833C107.892 401.833 107.986 401.811 108.07 401.767C108.154 401.724 108.227 401.662 108.283 401.585C110.014 399.176 112.413 400 112.514 400.038C112.662 400.086 112.822 400.076 112.961 400.009C113.101 399.941 113.209 399.822 113.262 399.677C113.316 399.532 113.31 399.371 113.248 399.229C113.185 399.088 113.07 398.976 112.927 398.918C111.78 398.492 109.132 398.359 107.313 400.888C107.249 400.978 107.211 401.083 107.203 401.192C107.195 401.302 107.217 401.411 107.267 401.509C107.317 401.606 107.393 401.688 107.487 401.745C107.58 401.803 107.688 401.833 107.798 401.833ZM123.411 399.578C126.069 399.362 127.278 401.289 127.333 401.379C127.413 401.516 127.544 401.615 127.698 401.655C127.774 401.675 127.853 401.679 127.931 401.669C128.008 401.658 128.083 401.632 128.151 401.592C128.219 401.552 128.278 401.499 128.325 401.437C128.372 401.374 128.407 401.303 128.427 401.227C128.446 401.151 128.451 401.072 128.44 400.994C128.429 400.916 128.403 400.841 128.364 400.774C128.299 400.665 126.763 398.124 123.318 398.387C123.24 398.393 123.164 398.415 123.094 398.45C123.024 398.486 122.962 398.535 122.911 398.595C122.808 398.715 122.757 398.871 122.769 399.029C122.782 399.187 122.856 399.334 122.977 399.437C123.097 399.54 123.253 399.59 123.411 399.578ZM134.341 417.03C134.047 417.013 133.723 417.246 133.697 417.576C133.694 417.597 133.504 419.629 131.415 420.316C131.279 420.359 131.162 420.45 131.087 420.571C131.012 420.693 130.983 420.838 131.006 420.979C131.028 421.121 131.101 421.249 131.211 421.341C131.321 421.433 131.46 421.483 131.603 421.481C131.666 421.481 131.729 421.471 131.789 421.451C134.622 420.521 134.878 417.791 134.888 417.675C134.894 417.597 134.885 417.518 134.861 417.443C134.837 417.368 134.799 417.299 134.748 417.239C134.697 417.179 134.635 417.13 134.565 417.094C134.495 417.058 134.419 417.036 134.341 417.03Z" fill="white"/>
<path d="M104.778 411.227C104.754 411.304 104.746 411.384 104.755 411.464C104.763 411.544 104.787 411.621 104.826 411.691C104.865 411.761 104.917 411.823 104.98 411.872C105.044 411.922 105.116 411.958 105.193 411.979C105.271 412 105.352 412.005 105.431 411.994C105.51 411.983 105.587 411.956 105.655 411.914C105.724 411.873 105.784 411.819 105.831 411.754C105.878 411.689 105.912 411.616 105.93 411.538C106.045 411.124 106.313 410.769 106.679 410.544C107.045 410.319 107.483 410.242 107.904 410.326C107.98 410.342 108.06 410.343 108.137 410.329C108.214 410.314 108.287 410.285 108.353 410.242C108.419 410.199 108.475 410.143 108.519 410.079C108.564 410.014 108.595 409.941 108.611 409.864C108.627 409.787 108.628 409.708 108.613 409.631C108.599 409.554 108.569 409.48 108.526 409.415C108.483 409.349 108.428 409.293 108.363 409.248C108.298 409.204 108.225 409.173 108.148 409.157C107.651 409.056 107.136 409.091 106.658 409.26C105.265 406.878 105.536 404.53 105.54 404.505C105.561 404.348 105.519 404.189 105.423 404.063C105.327 403.937 105.184 403.854 105.027 403.833C104.871 403.813 104.713 403.855 104.587 403.951C104.462 404.046 104.379 404.187 104.356 404.343C104.341 404.459 104.022 407.11 105.626 409.855C105.218 410.221 104.923 410.698 104.778 411.227ZM118.13 408.277C118.369 408.06 118.681 407.941 119.003 407.945C119.325 407.948 119.634 408.073 119.868 408.295C119.982 408.405 120.135 408.465 120.293 408.463C120.452 408.46 120.603 408.395 120.713 408.281C120.823 408.168 120.884 408.015 120.882 407.857C120.879 407.698 120.814 407.547 120.701 407.437C120.431 407.18 120.105 406.99 119.749 406.882C120.102 405.668 119.963 405.129 119.634 404.12C119.569 403.923 119.507 403.724 119.447 403.525L119.411 403.406C118.976 401.963 118.688 401.011 119.515 399.667C119.598 399.532 119.624 399.37 119.587 399.216C119.55 399.062 119.454 398.928 119.319 398.845C119.184 398.762 119.022 398.736 118.867 398.773C118.713 398.81 118.58 398.906 118.497 399.041C117.389 400.842 117.796 402.191 118.268 403.752L118.304 403.872C118.374 404.103 118.439 404.308 118.498 404.489C118.793 405.398 118.883 405.703 118.522 406.802C118.071 406.882 117.652 407.091 117.316 407.404C117.204 407.513 117.14 407.661 117.136 407.817C117.132 407.973 117.19 408.124 117.296 408.238C117.403 408.352 117.55 408.42 117.706 408.427C117.861 408.435 118.014 408.381 118.13 408.277ZM125.733 404.711C126.088 404.712 126.438 404.634 126.759 404.483C126.902 404.416 127.013 404.294 127.067 404.145C127.12 403.996 127.113 403.832 127.045 403.688C126.978 403.545 126.856 403.434 126.707 403.381C126.558 403.327 126.394 403.335 126.25 403.402C125.957 403.537 125.623 403.555 125.316 403.454C125.01 403.353 124.753 403.139 124.597 402.856C124.562 402.785 124.512 402.721 124.451 402.668C124.391 402.616 124.32 402.577 124.244 402.552C124.168 402.528 124.087 402.519 124.008 402.526C123.928 402.534 123.85 402.557 123.78 402.595C123.709 402.632 123.647 402.684 123.597 402.746C123.547 402.809 123.509 402.881 123.487 402.958C123.466 403.035 123.459 403.115 123.469 403.195C123.479 403.274 123.505 403.351 123.545 403.42C123.76 403.821 124.08 404.138 124.453 404.358C123.811 405.916 124.176 407.572 124.473 408.45C124.496 408.527 124.534 408.599 124.585 408.661C124.636 408.723 124.699 408.774 124.77 408.811C124.842 408.848 124.92 408.87 125 408.876C125.08 408.882 125.16 408.872 125.236 408.847C125.312 408.821 125.383 408.78 125.443 408.727C125.503 408.674 125.551 408.609 125.586 408.536C125.62 408.463 125.639 408.385 125.642 408.304C125.646 408.224 125.633 408.144 125.604 408.069C125.403 407.474 125.014 405.971 125.602 404.693C125.647 404.696 125.689 404.711 125.733 404.711ZM131.463 415.974C131.458 415.895 131.438 415.819 131.404 415.748C131.369 415.677 131.321 415.614 131.262 415.562C131.203 415.51 131.135 415.471 131.06 415.446C130.986 415.42 130.907 415.41 130.829 415.416C130.542 415.436 130.255 415.399 129.983 415.307C129.711 415.215 129.459 415.071 129.243 414.882C129.027 414.693 128.85 414.463 128.723 414.206C128.596 413.948 128.521 413.668 128.503 413.382C128.489 413.225 128.415 413.079 128.297 412.976C128.178 412.872 128.024 412.819 127.866 412.826C127.788 412.832 127.712 412.852 127.641 412.887C127.571 412.922 127.508 412.97 127.457 413.03C127.405 413.089 127.366 413.157 127.341 413.232C127.316 413.306 127.306 413.385 127.311 413.463C127.36 414.168 127.629 414.803 128.037 415.32C127.077 416.45 125.819 416.772 125.118 416.854C124.498 416.928 123.956 416.865 123.329 416.791C122.754 416.725 122.104 416.65 121.3 416.674L121.295 416.675C121.271 416.333 121.189 415.835 120.93 415.421C120.841 415.298 120.709 415.214 120.56 415.185C120.411 415.156 120.257 415.185 120.128 415.265C120 415.346 119.906 415.472 119.868 415.619C119.829 415.765 119.847 415.921 119.919 416.055C120.079 416.312 120.108 416.721 120.108 416.921C119.506 417.137 118.986 417.455 118.515 417.762C117.674 418.309 117.011 418.741 116.014 418.517C115.111 418.31 114.207 418.268 113.44 418.376C113.32 418.076 113.132 417.718 112.84 417.442C112.725 417.333 112.571 417.274 112.413 417.279C112.255 417.283 112.105 417.35 111.996 417.466C111.887 417.581 111.828 417.734 111.833 417.893C111.837 418.051 111.905 418.201 112.02 418.31C112.122 418.407 112.204 418.548 112.269 418.689C110.952 419.231 110.291 420.138 110.26 420.182C110.197 420.271 110.159 420.376 110.152 420.485C110.144 420.594 110.166 420.703 110.217 420.8C110.267 420.898 110.343 420.979 110.436 421.036C110.53 421.093 110.637 421.123 110.746 421.123C110.841 421.123 110.934 421.101 111.018 421.059C111.103 421.016 111.176 420.954 111.231 420.878C111.237 420.869 111.893 419.991 113.187 419.636C113.856 419.452 114.815 419.467 115.75 419.68C116.011 419.74 116.254 419.76 116.489 419.764C116.6 420.024 116.643 420.333 116.649 420.448C116.658 420.6 116.724 420.744 116.835 420.849C116.946 420.953 117.093 421.012 117.245 421.012L117.278 421.011C117.435 421.002 117.583 420.932 117.689 420.815C117.795 420.698 117.85 420.544 117.843 420.386C117.823 420.108 117.771 419.833 117.687 419.567C118.238 419.367 118.717 419.055 119.167 418.763C119.85 418.317 120.497 417.896 121.341 417.868C122.048 417.843 122.631 417.911 123.194 417.977C123.76 418.042 124.316 418.085 124.93 418.05C125.039 418.352 125.031 418.756 125.014 418.891C125.004 418.975 125.012 419.06 125.037 419.141C125.062 419.222 125.104 419.296 125.16 419.36C125.216 419.423 125.285 419.474 125.362 419.509C125.439 419.544 125.523 419.563 125.608 419.563C125.752 419.563 125.892 419.51 126.001 419.414C126.11 419.319 126.18 419.187 126.199 419.043C126.242 418.652 126.218 418.255 126.128 417.872C127.218 417.583 128.195 416.97 128.929 416.115C129.521 416.481 130.213 416.653 130.907 416.608C131.065 416.597 131.212 416.524 131.316 416.406C131.42 416.287 131.473 416.131 131.463 415.974Z" fill="white"/>
<path d="M201.648 417.256V394.789" stroke="url(#paint11_radial_4809_6337)"/>
<path d="M35.1328 417.256V394.789" stroke="url(#paint12_radial_4809_6337)"/>
<path d="M35.1953 338.622V399.782" stroke="url(#paint13_radial_4809_6337)"/>
<path d="M34.9565 400.611C40.011 400.611 44.1084 396.514 44.1084 391.459C44.1084 386.405 40.011 382.307 34.9565 382.307C29.9021 382.307 25.8047 386.405 25.8047 391.459C25.8047 396.514 29.9021 400.611 34.9565 400.611Z" fill="#ACD4A7"/>
<path d="M34.9598 396.951C37.9925 396.951 40.4509 394.492 40.4509 391.46C40.4509 388.427 37.9925 385.969 34.9598 385.969C31.9272 385.969 29.4688 388.427 29.4688 391.46C29.4688 394.492 31.9272 396.951 34.9598 396.951Z" fill="#389D2D"/>
<path d="M201.719 338.622V399.782" stroke="url(#paint14_radial_4809_6337)"/>
<path d="M201.48 400.611C206.534 400.611 210.632 396.514 210.632 391.459C210.632 386.405 206.534 382.308 201.48 382.308C196.426 382.308 192.328 386.405 192.328 391.459C192.328 396.514 196.426 400.611 201.48 400.611Z" fill="#ACD4A7"/>
<path d="M201.475 396.951C204.508 396.951 206.967 394.492 206.967 391.46C206.967 388.427 204.508 385.969 201.475 385.969C198.443 385.969 195.984 388.427 195.984 391.46C195.984 394.492 198.443 396.951 201.475 396.951Z" fill="#389D2D"/>
<path d="M114.434 290.29L51.7192 326.498C48.8971 328.127 48.8971 330.769 51.7192 332.398L112.501 367.491C115.323 369.12 119.899 369.12 122.721 367.491L185.435 331.282C188.257 329.653 188.257 327.011 185.435 325.382L124.653 290.29C121.831 288.66 117.256 288.66 114.434 290.29Z" stroke="#DDDDDD"/>
</g>
<g clip-path="url(#clip3_4809_6337)">
<path fill-rule="evenodd" clip-rule="evenodd" d="M209.797 338.672C215.33 335.46 224.3 335.46 229.832 338.672L299.897 379.338C301.894 380.497 303.137 382.63 303.167 384.951L304.404 478.324C304.404 484.745 299.919 492.554 294.386 495.766L221.791 537.323C219.777 538.476 217.308 538.468 215.301 537.304L145.275 496.66C139.743 493.448 135.258 485.638 135.258 479.217L135.26 386.939C135.26 384.617 136.476 382.466 138.46 381.281L209.797 338.672ZM227.829 339.834L297.894 380.501C299.89 381.66 301.133 383.793 301.164 386.113L302.4 479.485L302.391 479.971C302.175 485.011 298.674 490.952 294.386 493.44L221.791 534.998C219.777 536.151 217.308 536.143 215.301 534.979L145.275 494.333C140.988 491.845 137.486 485.904 137.271 480.864L137.261 480.379V388.103C137.261 385.779 138.478 383.629 140.462 382.443L211.801 339.834L212.224 339.599C216.672 337.266 223.541 337.345 227.829 339.834Z" fill="url(#paint15_linear_4809_6337)"/>
<path d="M301.168 386.113C301.137 383.793 299.894 381.66 297.898 380.501L227.833 339.833C223.545 337.345 216.677 337.266 212.228 339.599L211.805 339.833L140.466 382.443C138.482 383.628 137.266 385.779 137.266 388.102V480.379L137.275 480.864C137.49 485.904 140.992 491.845 145.279 494.333L215.305 534.978C217.312 536.143 219.782 536.151 221.795 534.998L294.39 493.44C298.678 490.951 302.179 485.01 302.395 479.971L302.404 479.485L301.168 386.113Z" fill="#F9F9F9"/>
<path d="M215.177 349.615L152.685 385.952C149.873 387.588 149.873 390.239 152.685 391.874L213.251 427.091C216.063 428.726 220.622 428.726 223.434 427.091L285.926 390.754C288.738 389.119 288.738 386.468 285.926 384.833L225.36 349.615C222.548 347.98 217.989 347.98 215.177 349.615Z" stroke="#DDDDDD"/>
<path d="M243.422 478.872L233.522 473.015L223.622 478.872L233.522 484.729L243.422 478.872Z" fill="#389D2D"/>
<path fill-rule="evenodd" clip-rule="evenodd" d="M216.098 478.872L223.622 483.323V488.634H211.022C209.024 488.634 207.422 486.896 207.422 484.729V453.491C207.422 452.455 207.801 451.462 208.476 450.73C209.151 449.997 210.067 449.586 211.022 449.586H212.822V463.253L217.322 460.324L221.822 463.253V449.586H232.622C233.577 449.586 234.492 449.997 235.167 450.73C235.843 451.462 236.222 452.455 236.222 453.491V470.164L233.522 468.563L216.098 478.872Z" fill="#389D2D"/>
<path d="M227.222 482.952V486.857L233.522 490.586L239.822 486.857V482.952L233.522 486.681L227.222 482.952Z" fill="#389D2D"/>
<path d="M136.781 398.12V459.498" stroke="url(#paint16_radial_4809_6337)"/>
<path d="M136.719 477.033V454.486" stroke="url(#paint17_radial_4809_6337)"/>
<path d="M136.541 460.329C141.578 460.329 145.66 456.217 145.66 451.144C145.66 446.072 141.578 441.96 136.541 441.96C131.505 441.96 127.422 446.072 127.422 451.144C127.422 456.217 131.505 460.329 136.541 460.329Z" fill="#ACD4A7"/>
<path d="M136.542 456.656C139.564 456.656 142.013 454.189 142.013 451.145C142.013 448.102 139.564 445.635 136.542 445.635C133.52 445.635 131.07 448.102 131.07 451.145C131.07 454.189 133.52 456.656 136.542 456.656Z" fill="#389D2D"/>
<path d="M302.711 398.12V459.498" stroke="url(#paint18_radial_4809_6337)"/>
<path d="M302.641 477.033V454.486" stroke="url(#paint19_radial_4809_6337)"/>
<path d="M302.471 460.329C307.507 460.329 311.59 456.217 311.59 451.144C311.59 446.072 307.507 441.96 302.471 441.96C297.434 441.96 293.352 446.072 293.352 451.144C293.352 456.217 297.434 460.329 302.471 460.329Z" fill="#ACD4A7"/>
<path d="M302.472 456.656C305.493 456.656 307.943 454.189 307.943 451.145C307.943 448.102 305.493 445.635 302.472 445.635C299.45 445.635 297 448.102 297 451.145C297 454.189 299.45 456.656 302.472 456.656Z" fill="#389D2D"/>
</g>
<g clip-path="url(#clip4_4809_6337)">
<path fill-rule="evenodd" clip-rule="evenodd" d="M219.314 77.1876C224.848 73.9974 233.821 73.9974 239.355 77.1876L309.442 117.578C311.44 118.73 312.683 120.848 312.713 123.154L313.951 215.894C313.951 222.272 309.464 230.028 303.929 233.218L231.311 274.494C229.297 275.639 226.827 275.631 224.819 274.474L154.771 234.106C149.236 230.916 144.75 223.159 144.75 216.781L144.752 125.129C144.752 122.822 145.969 120.685 147.953 119.509L219.314 77.1876ZM237.351 78.3416L307.438 118.734C309.435 119.885 310.678 122.004 310.71 124.308L311.946 217.048L311.937 217.53C311.721 222.536 308.219 228.436 303.929 230.908L231.311 272.185C229.297 273.33 226.827 273.322 224.819 272.165L154.771 231.795C150.482 229.324 146.979 223.423 146.764 218.417L146.754 217.935V126.284C146.754 123.976 147.971 121.84 149.956 120.663L221.318 78.3416L221.741 78.109C226.191 75.7918 233.062 75.8702 237.351 78.3416Z" fill="url(#paint20_linear_4809_6337)"/>
<path d="M312.18 214.613V192.219" stroke="url(#paint21_radial_4809_6337)"/>
<path d="M146.203 214.613V192.219" stroke="url(#paint22_radial_4809_6337)"/>
<path d="M146.266 136.233V197.195" stroke="url(#paint23_radial_4809_6337)"/>
<path d="M310.713 124.308C310.682 122.004 309.439 119.885 307.442 118.734L237.354 78.3417C233.065 75.8703 226.195 75.7918 221.744 78.109L221.322 78.3417L149.959 120.663C147.975 121.84 146.758 123.976 146.758 126.284V217.935L146.767 218.417C146.982 223.423 150.485 229.324 154.774 231.795L224.823 272.165C226.83 273.322 229.3 273.33 231.315 272.185L303.933 230.908C308.222 228.436 311.725 222.536 311.94 217.53L311.95 217.048L310.713 124.308Z" fill="#F9F9F9"/>
<path fill-rule="evenodd" clip-rule="evenodd" d="M245.07 202.076C244.959 202.071 244.847 202.069 244.736 202.071H240.095C236.298 202.071 233.047 205.083 233.047 209.015C233.047 212.944 236.298 215.957 240.097 215.957H244.734C244.851 215.958 244.962 215.956 245.068 215.949C245.851 215.899 246.589 215.565 247.145 215.011C247.701 214.457 248.037 213.719 248.09 212.937C248.098 212.824 248.098 212.704 248.098 212.593V205.435C248.098 205.324 248.098 205.204 248.09 205.091C248.037 204.308 247.702 203.571 247.146 203.017C246.59 202.463 245.853 202.13 245.07 202.079M239.689 210.866C240.667 210.866 241.462 210.039 241.462 209.016C241.462 207.992 240.667 207.165 239.689 207.165C238.711 207.165 237.918 207.992 237.918 209.016C237.918 210.039 238.709 210.866 239.689 210.866Z" fill="#389D2D"/>
<path fill-rule="evenodd" clip-rule="evenodd" d="M244.737 218.734C244.801 218.731 244.865 218.744 244.923 218.77C244.981 218.798 245.031 218.838 245.071 218.888C245.111 218.938 245.138 218.997 245.151 219.059C245.164 219.122 245.162 219.186 245.145 219.249C244.775 220.568 244.19 221.691 243.251 222.638C241.877 224.023 240.133 224.639 237.979 224.93C235.886 225.214 233.214 225.214 229.837 225.214H225.954C222.579 225.214 219.905 225.214 217.812 224.93C215.658 224.639 213.914 224.023 212.54 222.638C211.166 221.255 210.556 219.496 210.266 217.328C209.984 215.216 209.984 212.521 209.984 209.119V208.908C209.984 205.506 209.984 202.809 210.266 200.702C210.556 198.531 211.166 196.777 212.538 195.388C213.912 194.004 215.656 193.386 217.81 193.097C219.905 192.813 222.579 192.813 225.954 192.813H229.837C233.212 192.813 235.886 192.813 237.979 193.097C240.133 193.389 241.877 194.004 243.251 195.388C244.19 196.336 244.775 197.46 245.145 198.781C245.162 198.842 245.163 198.906 245.15 198.969C245.137 199.031 245.11 199.089 245.07 199.139C245.031 199.189 244.98 199.229 244.922 199.255C244.864 199.283 244.801 199.295 244.737 199.293H240.1C234.889 199.293 230.298 203.443 230.298 209.013C230.298 214.584 234.891 218.734 240.102 218.734H244.737ZM216.872 200.22C216.691 200.22 216.511 200.256 216.344 200.327C216.177 200.396 216.025 200.5 215.897 200.628C215.769 200.757 215.668 200.91 215.599 201.077C215.531 201.246 215.496 201.425 215.496 201.607C215.496 202.375 216.112 202.996 216.872 202.996H224.222C224.984 202.996 225.6 202.375 225.6 201.607C225.601 201.241 225.456 200.888 225.198 200.628C224.939 200.368 224.588 200.221 224.222 200.22H216.872Z" fill="#389D2D"/>
<path d="M221 190.953L224.732 188.203C225.706 187.483 226.885 187.095 228.096 187.095C229.307 187.095 230.486 187.483 231.46 188.203L235.213 190.968C233.642 190.907 231.889 190.907 229.969 190.907H225.833C224.076 190.907 222.462 190.907 221 190.953Z" fill="#389D2D"/>
<path d="M146.028 198.022C151.067 198.022 155.151 193.938 155.151 188.9C155.151 183.861 151.067 179.777 146.028 179.777C140.99 179.777 136.906 183.861 136.906 188.9C136.906 193.938 140.99 198.022 146.028 198.022Z" fill="#ACD4A7"/>
<path d="M146.028 194.374C149.051 194.374 151.501 191.924 151.501 188.901C151.501 185.878 149.051 183.428 146.028 183.428C143.005 183.428 140.555 185.878 140.555 188.901C140.555 191.924 143.005 194.374 146.028 194.374Z" fill="#389D2D"/>
<path d="M312.25 136.233V197.195" stroke="url(#paint24_radial_4809_6337)"/>
<path d="M312.013 198.022C317.051 198.022 321.135 193.938 321.135 188.9C321.135 183.861 317.051 179.777 312.013 179.777C306.975 179.777 302.891 183.861 302.891 188.9C302.891 193.938 306.975 198.022 312.013 198.022Z" fill="#ACD4A7"/>
<path d="M312.012 194.374C315.035 194.374 317.486 191.924 317.486 188.901C317.486 185.878 315.035 183.428 312.012 183.428C308.99 183.428 306.539 185.878 306.539 188.901C306.539 191.924 308.99 194.374 312.012 194.374Z" fill="#389D2D"/>
<path d="M224.691 88.0572L162.179 124.148C159.366 125.772 159.366 128.405 162.179 130.029L222.764 165.008C225.577 166.632 230.138 166.632 232.951 165.008L295.463 128.917C298.275 127.293 298.275 124.66 295.463 123.036L234.877 88.0572C232.064 86.4331 227.504 86.4331 224.691 88.0572Z" stroke="#DDDDDD"/>
</g>
<g clip-path="url(#clip5_4809_6337)">
<path fill-rule="evenodd" clip-rule="evenodd" d="M320.861 132.738C326.395 129.548 335.368 129.548 340.902 132.738L410.989 173.129C412.987 174.281 414.23 176.399 414.26 178.705L415.498 271.445C415.498 277.822 411.011 285.579 405.476 288.769L332.858 330.045C330.844 331.19 328.374 331.182 326.366 330.025L256.317 289.657C250.783 286.466 246.297 278.71 246.297 272.332L246.299 180.679C246.299 178.373 247.516 176.236 249.5 175.06L320.861 132.738ZM338.898 133.892L408.985 174.284C410.982 175.436 412.225 177.554 412.257 179.859L413.493 272.599L413.484 273.081C413.268 278.086 409.766 283.987 405.476 286.459L332.858 327.736C330.844 328.88 328.374 328.873 326.366 327.716L256.317 287.346C252.029 284.875 248.526 278.974 248.311 273.968L248.301 273.486V181.835C248.301 179.527 249.518 177.391 251.502 176.214L322.865 133.892L323.287 133.66C327.738 131.343 334.609 131.421 338.898 133.892Z" fill="url(#paint25_linear_4809_6337)"/>
<path d="M413.727 270.164V247.77" stroke="url(#paint26_radial_4809_6337)"/>
<path d="M247.75 270.164V247.77" stroke="url(#paint27_radial_4809_6337)"/>
<path d="M247.812 191.784V252.746" stroke="url(#paint28_radial_4809_6337)"/>
<path d="M412.26 179.859C412.229 177.554 410.986 175.436 408.989 174.285L338.901 133.892C334.612 131.421 327.741 131.343 323.291 133.66L322.868 133.892L251.506 176.214C249.521 177.391 248.305 179.527 248.305 181.835V273.486L248.314 273.968C248.529 278.974 252.032 284.875 256.321 287.346L326.37 327.716C328.377 328.873 330.847 328.88 332.862 327.736L405.48 286.459C409.769 283.987 413.272 278.086 413.487 273.081L413.497 272.599L412.26 179.859Z" fill="#F9F9F9"/>
<path fill-rule="evenodd" clip-rule="evenodd" d="M346.616 257.627C346.505 257.622 346.394 257.62 346.283 257.622H341.642C337.845 257.622 334.594 260.634 334.594 264.565C334.594 268.495 337.845 271.508 341.644 271.508H346.281C346.398 271.509 346.509 271.506 346.615 271.5C347.398 271.45 348.136 271.116 348.692 270.562C349.248 270.007 349.584 269.27 349.637 268.487C349.645 268.375 349.645 268.255 349.645 268.144V260.986C349.645 260.875 349.645 260.754 349.637 260.642C349.584 259.859 349.249 259.122 348.693 258.568C348.137 258.014 347.399 257.68 346.616 257.629M341.236 266.417C342.214 266.417 343.008 265.59 343.008 264.567C343.008 263.543 342.214 262.716 341.236 262.716C340.258 262.716 339.465 263.543 339.465 264.567C339.465 265.59 340.256 266.417 341.236 266.417Z" fill="#389D2D"/>
<path fill-rule="evenodd" clip-rule="evenodd" d="M346.284 274.285C346.348 274.282 346.411 274.295 346.47 274.321C346.528 274.349 346.578 274.389 346.618 274.439C346.658 274.489 346.685 274.547 346.698 274.61C346.711 274.673 346.709 274.737 346.692 274.8C346.322 276.118 345.737 277.242 344.798 278.188C343.423 279.574 341.679 280.189 339.526 280.481C337.433 280.764 334.761 280.764 331.384 280.764H327.501C324.126 280.764 321.452 280.764 319.359 280.481C317.205 280.189 315.461 279.574 314.087 278.188C312.713 276.806 312.103 275.047 311.813 272.878C311.531 270.766 311.531 268.072 311.531 264.67V264.459C311.531 261.057 311.531 258.36 311.813 256.253C312.103 254.082 312.713 252.328 314.085 250.939C315.459 249.555 317.203 248.937 319.357 248.648C321.452 248.364 324.126 248.364 327.501 248.364H331.384C334.759 248.364 337.433 248.364 339.526 248.648C341.679 248.939 343.423 249.555 344.798 250.939C345.737 251.886 346.322 253.01 346.692 254.332C346.708 254.393 346.71 254.457 346.697 254.52C346.684 254.581 346.657 254.64 346.617 254.69C346.577 254.739 346.527 254.78 346.469 254.806C346.411 254.834 346.348 254.845 346.284 254.844H341.647C336.436 254.844 331.845 258.994 331.845 264.564C331.845 270.135 336.438 274.285 341.649 274.285H346.284ZM318.419 255.771C318.238 255.771 318.058 255.807 317.891 255.878C317.723 255.947 317.572 256.05 317.444 256.178C317.316 256.308 317.215 256.461 317.146 256.628C317.077 256.797 317.042 256.976 317.043 257.157C317.043 257.926 317.659 258.547 318.419 258.547H325.769C326.531 258.547 327.147 257.926 327.147 257.157C327.148 256.791 327.003 256.438 326.745 256.178C326.486 255.918 326.135 255.772 325.769 255.771H318.419Z" fill="#389D2D"/>
<path d="M322.547 246.504L326.279 243.754C327.253 243.034 328.432 242.646 329.643 242.646C330.854 242.646 332.033 243.034 333.007 243.754L336.759 246.519C335.189 246.458 333.435 246.458 331.516 246.458H327.38C325.623 246.458 324.009 246.458 322.547 246.504Z" fill="#389D2D"/>
<path d="M247.575 253.573C252.613 253.573 256.698 249.488 256.698 244.45C256.698 239.412 252.613 235.328 247.575 235.328C242.537 235.328 238.453 239.412 238.453 244.45C238.453 249.488 242.537 253.573 247.575 253.573Z" fill="#ACD4A7"/>
<path d="M247.575 249.925C250.598 249.925 253.048 247.475 253.048 244.452C253.048 241.429 250.598 238.979 247.575 238.979C244.552 238.979 242.102 241.429 242.102 244.452C242.102 247.475 244.552 249.925 247.575 249.925Z" fill="#389D2D"/>
<path d="M413.797 191.784V252.746" stroke="url(#paint29_radial_4809_6337)"/>
<path d="M413.56 253.573C418.598 253.573 422.682 249.488 422.682 244.45C422.682 239.412 418.598 235.328 413.56 235.328C408.522 235.328 404.438 239.412 404.438 244.45C404.438 249.488 408.522 253.573 413.56 253.573Z" fill="#ACD4A7"/>
<path d="M413.559 249.925C416.582 249.925 419.033 247.475 419.033 244.452C419.033 241.429 416.582 238.979 413.559 238.979C410.536 238.979 408.086 241.429 408.086 244.452C408.086 247.475 410.536 249.925 413.559 249.925Z" fill="#389D2D"/>
<path d="M326.238 143.608L263.726 179.699C260.913 181.323 260.913 183.956 263.726 185.58L324.311 220.559C327.124 222.183 331.685 222.183 334.498 220.559L397.009 184.468C399.822 182.844 399.822 180.211 397.009 178.587L336.424 143.608C333.611 141.984 329.051 141.984 326.238 143.608Z" stroke="#DDDDDD"/>
</g>
<g clip-path="url(#clip6_4809_6337)">
<path fill-rule="evenodd" clip-rule="evenodd" d="M117.978 137.593C123.53 134.394 132.532 134.394 138.084 137.593L208.399 178.116C210.404 179.271 211.65 181.397 211.681 183.708L212.922 276.749C212.922 283.149 208.421 290.931 202.868 294.132L130.014 335.541C127.993 336.69 125.515 336.682 123.501 335.522L53.2249 295.021C47.6729 291.821 43.1719 284.04 43.1719 277.64L43.174 185.691C43.1741 183.375 44.3948 181.233 46.3857 180.051L117.978 137.593ZM136.073 138.752L206.389 179.275C208.392 180.429 209.639 182.554 209.671 184.867L210.911 277.909L210.902 278.392C210.685 283.414 207.171 289.334 202.868 291.814L130.014 333.223C127.993 334.372 125.515 334.365 123.501 333.205L53.2249 292.704C48.9222 290.224 45.408 284.304 45.1923 279.283L45.1826 278.799V186.85C45.1826 184.534 46.4033 182.392 48.3943 181.21L119.988 138.752L120.412 138.519C124.877 136.194 131.77 136.272 136.073 138.752Z" fill="url(#paint30_linear_4809_6337)"/>
<path d="M209.675 184.868C209.644 182.555 208.397 180.429 206.394 179.275L136.078 138.752C131.775 136.273 124.882 136.194 120.417 138.519L119.993 138.752L48.3992 181.211C46.4082 182.392 45.1875 184.535 45.1875 186.85V278.799L45.1972 279.283C45.4129 284.305 48.9271 290.225 53.2299 292.704L123.506 333.205C125.52 334.366 127.998 334.372 130.019 333.224L202.873 291.814C207.176 289.334 210.69 283.414 210.907 278.393L210.916 277.909L209.675 184.868Z" fill="#F9F9F9"/>
<path d="M128.448 290.017C118.281 290.017 110.039 281.775 110.039 271.608C110.039 261.441 118.281 253.199 128.448 253.199C138.615 253.199 146.857 261.441 146.857 271.608C146.857 281.775 138.615 290.017 128.448 290.017ZM130.122 260.731H126.774V272.3L133.469 278.995L135.835 276.629L130.122 270.916V260.731Z" fill="#389D2D"/>
<path d="M211.148 275.452V252.985" stroke="url(#paint31_radial_4809_6337)"/>
<path d="M44.6328 275.452V252.985" stroke="url(#paint32_radial_4809_6337)"/>
<path d="M44.6953 196.818V257.978" stroke="url(#paint33_radial_4809_6337)"/>
<path d="M44.4565 258.807C49.511 258.807 53.6084 254.71 53.6084 249.656C53.6084 244.601 49.511 240.504 44.4565 240.504C39.4021 240.504 35.3047 244.601 35.3047 249.656C35.3047 254.71 39.4021 258.807 44.4565 258.807Z" fill="#ACD4A7"/>
<path d="M44.4598 255.147C47.4925 255.147 49.9509 252.689 49.9509 249.656C49.9509 246.623 47.4925 244.165 44.4598 244.165C41.4272 244.165 38.9688 246.623 38.9688 249.656C38.9688 252.689 41.4272 255.147 44.4598 255.147Z" fill="#389D2D"/>
<path d="M211.219 196.818V257.978" stroke="url(#paint34_radial_4809_6337)"/>
<path d="M210.98 258.808C216.034 258.808 220.132 254.71 220.132 249.656C220.132 244.601 216.034 240.504 210.98 240.504C205.926 240.504 201.828 244.601 201.828 249.656C201.828 254.71 205.926 258.808 210.98 258.808Z" fill="#ACD4A7"/>
<path d="M210.975 255.147C214.008 255.147 216.467 252.689 216.467 249.656C216.467 246.623 214.008 244.165 210.975 244.165C207.943 244.165 205.484 246.623 205.484 249.656C205.484 252.689 207.943 255.147 210.975 255.147Z" fill="#389D2D"/>
<path d="M123.934 148.486L61.2192 184.694C58.3971 186.323 58.3971 188.965 61.2192 190.594L122.001 225.687C124.823 227.316 129.399 227.316 132.221 225.687L194.935 189.479C197.757 187.849 197.757 185.208 194.935 183.578L134.153 148.486C131.331 146.856 126.756 146.856 123.934 148.486Z" stroke="#DDDDDD"/>
</g>
<g clip-path="url(#clip7_4809_6337)">
<path fill-rule="evenodd" clip-rule="evenodd" d="M219.282 196.869C224.814 193.657 233.784 193.657 239.317 196.869L309.381 237.535C311.379 238.694 312.621 240.827 312.651 243.149L313.888 336.521C313.888 342.942 309.403 350.752 303.87 353.964L231.275 395.521C229.262 396.673 226.792 396.665 224.786 395.501L154.759 354.857C149.227 351.645 144.742 343.836 144.742 337.414L144.744 245.137C144.744 242.814 145.961 240.663 147.945 239.479L219.282 196.869ZM237.313 198.031L307.378 238.698C309.374 239.858 310.617 241.991 310.648 244.31L311.884 337.683L311.875 338.168C311.66 343.208 308.158 349.149 303.87 351.637L231.275 393.196C229.262 394.348 226.792 394.34 224.786 393.176L154.759 352.531C150.472 350.042 146.97 344.101 146.755 339.062L146.746 338.576V246.3C146.746 243.976 147.962 241.826 149.946 240.641L221.285 198.031L221.708 197.797C226.157 195.464 233.025 195.543 237.313 198.031Z" fill="url(#paint35_linear_4809_6337)"/>
<path d="M310.653 244.31C310.621 241.99 309.379 239.857 307.382 238.698L237.317 198.031C233.03 195.542 226.161 195.463 221.712 197.796L221.29 198.031L149.95 240.64C147.966 241.826 146.75 243.976 146.75 246.3V338.576L146.76 339.061C146.975 344.101 150.476 350.042 154.764 352.53L224.79 393.176C226.797 394.34 229.266 394.348 231.28 393.195L303.874 351.637C308.162 349.149 311.664 343.208 311.879 338.168L311.889 337.682L310.653 244.31Z" fill="#F9F9F9"/>
<path d="M224.661 207.813L162.17 244.15C159.358 245.785 159.358 248.436 162.17 250.071L222.735 285.288C225.547 286.924 230.107 286.924 232.919 285.288L295.41 248.951C298.222 247.316 298.222 244.665 295.41 243.03L234.844 207.813C232.032 206.177 227.473 206.177 224.661 207.813Z" stroke="#DDDDDD"/>
<path fill-rule="evenodd" clip-rule="evenodd" d="M240.665 307.635C241.387 307.635 241.972 308.224 241.972 308.951V323.982C241.972 324.5 241.533 324.905 241.019 324.905C237.155 324.905 233.704 326.687 231.433 329.48C231.152 329.825 230.54 329.634 230.54 329.188C230.54 328.942 230.342 328.744 230.097 328.744H228.035C227.314 328.744 226.729 329.332 226.729 330.059V331.432C226.729 332.066 227.24 332.581 227.87 332.581C228.685 332.581 229.242 333.42 229.036 334.215C228.774 335.224 228.634 336.285 228.634 337.378C228.634 339.623 229.223 341.728 230.253 343.547C230.823 344.555 230.169 346.014 229.017 346.014H216.603C215.882 346.014 215.297 345.425 215.297 344.698V308.951C215.297 308.224 215.882 307.635 216.603 307.635H240.665ZM238.351 320.464C238.351 319.738 237.767 319.148 237.045 319.148H220.605C219.883 319.148 219.298 319.738 219.298 320.464V321.671C219.298 322.397 219.883 322.987 220.605 322.987H237.045C237.767 322.987 238.351 322.397 238.351 321.671V320.464ZM238.161 312.789C238.161 312.061 237.576 311.473 236.854 311.473H220.414C219.693 311.473 219.108 312.061 219.108 312.789V313.994C219.108 314.722 219.693 315.31 220.414 315.31H236.854C237.576 315.31 238.161 314.722 238.161 313.994V312.789ZM249.697 333.398C249.94 333.933 249.701 334.549 249.195 334.844C248.71 335.125 248.486 335.702 248.567 336.26C248.621 336.629 248.648 337.003 248.648 337.378C248.648 337.753 248.621 338.127 248.567 338.497C248.486 339.054 248.71 339.631 249.195 339.912C249.701 340.207 249.94 340.823 249.697 341.359C249.596 341.581 249.487 341.799 249.37 342.013L249.192 342.323C249.063 342.538 248.927 342.748 248.782 342.951C248.443 343.43 247.794 343.53 247.289 343.236C246.803 342.953 246.196 343.047 245.757 343.397C245.179 343.859 244.532 344.238 243.836 344.515C243.315 344.723 242.932 345.206 242.932 345.771C242.932 346.359 242.521 346.873 241.939 346.93C241.636 346.959 241.331 346.973 241.026 346.973C240.718 346.973 240.414 346.959 240.113 346.93C239.532 346.873 239.121 346.359 239.121 345.771C239.121 345.206 238.737 344.723 238.217 344.515C237.52 344.238 236.874 343.859 236.296 343.397C235.856 343.047 235.249 342.953 234.764 343.235C234.258 343.53 233.61 343.43 233.27 342.951C233.124 342.745 232.986 342.534 232.857 342.316L232.686 342.019C232.568 341.803 232.457 341.582 232.355 341.359C232.113 340.823 232.351 340.207 232.857 339.912C233.342 339.631 233.566 339.054 233.485 338.497C233.431 338.127 233.405 337.753 233.405 337.378C233.405 337.004 233.431 336.631 233.485 336.261C233.566 335.702 233.342 335.127 232.857 334.844C232.351 334.55 232.113 333.933 232.355 333.398C232.457 333.174 232.568 332.953 232.687 332.737L232.856 332.441C232.986 332.224 233.124 332.012 233.27 331.806C233.61 331.328 234.258 331.228 234.764 331.521C235.249 331.803 235.856 331.711 236.296 331.359C236.874 330.899 237.52 330.52 238.217 330.241C238.737 330.033 239.121 329.55 239.121 328.986C239.121 328.399 239.532 327.883 240.113 327.828C240.416 327.797 240.721 327.783 241.026 327.783C241.334 327.783 241.639 327.799 241.94 327.828C242.521 327.883 242.932 328.399 242.932 328.986C242.932 329.55 243.315 330.033 243.836 330.241C244.532 330.52 245.179 330.898 245.757 331.359C246.196 331.711 246.803 331.803 247.289 331.521C247.794 331.227 248.443 331.327 248.782 331.806C248.927 332.009 249.064 332.219 249.192 332.433L249.37 332.744C249.487 332.958 249.596 333.175 249.697 333.398ZM243.884 337.378C243.884 338.968 242.605 340.257 241.026 340.257C239.448 340.257 238.168 338.968 238.168 337.378C238.168 335.789 239.448 334.5 241.026 334.5C242.605 334.5 243.884 335.789 243.884 337.378Z" fill="#389D2D"/>
<path d="M146.266 256.317V317.695" stroke="url(#paint36_radial_4809_6337)"/>
<path d="M146.203 335.231V312.684" stroke="url(#paint37_radial_4809_6337)"/>
<path d="M146.026 318.526C151.062 318.526 155.145 314.414 155.145 309.342C155.145 304.269 151.062 300.157 146.026 300.157C140.989 300.157 136.906 304.269 136.906 309.342C136.906 314.414 140.989 318.526 146.026 318.526Z" fill="#ACD4A7"/>
<path d="M146.026 314.853C149.048 314.853 151.498 312.386 151.498 309.343C151.498 306.299 149.048 303.832 146.026 303.832C143.004 303.832 140.555 306.299 140.555 309.343C140.555 312.386 143.004 314.853 146.026 314.853Z" fill="#389D2D"/>
<path d="M312.195 256.317V317.695" stroke="url(#paint38_radial_4809_6337)"/>
<path d="M312.125 335.231V312.684" stroke="url(#paint39_radial_4809_6337)"/>
<path d="M311.955 318.526C316.992 318.526 321.074 314.414 321.074 309.342C321.074 304.269 316.992 300.157 311.955 300.157C306.919 300.157 302.836 304.269 302.836 309.342C302.836 314.414 306.919 318.526 311.955 318.526Z" fill="#ACD4A7"/>
<path d="M311.956 314.853C314.978 314.853 317.427 312.386 317.427 309.343C317.427 306.299 314.978 303.832 311.956 303.832C308.934 303.832 306.484 306.299 306.484 309.343C306.484 312.386 308.934 314.853 311.956 314.853Z" fill="#389D2D"/>
</g>
<rect width="263.47" height="263.47" rx="20" transform="matrix(0.866025 -0.5 0.866025 0.5 0.171875 131.733)" fill="#ACD4A7"/>
<rect width="263.47" height="263.47" rx="20" transform="matrix(0.866025 -0.5 0.866025 0.5 0.171875 131.733)" fill="#389D2D"/>
<defs>
<linearGradient id="paint0_linear_4809_6337" x1="123.961" y1="317.764" x2="346.121" y2="317.764" gradientUnits="userSpaceOnUse">
<stop stop-color="#737373" stop-opacity="0.11"/>
<stop offset="1" stop-color="#D9D9D9" stop-opacity="0.2"/>
</linearGradient>
<radialGradient id="paint1_radial_4809_6337" cx="0" cy="0" r="1" gradientUnits="userSpaceOnUse" gradientTransform="translate(nan nan) rotate(nan) scale(nan nan)">
<stop stop-color="#389D2D" stop-opacity="0"/>
<stop offset="1" stop-color="#389D2D"/>
</radialGradient>
<radialGradient id="paint2_radial_4809_6337" cx="0" cy="0" r="1" gradientUnits="userSpaceOnUse" gradientTransform="translate(nan nan) rotate(nan) scale(nan nan)">
<stop stop-color="#389D2D" stop-opacity="0"/>
<stop offset="1" stop-color="#389D2D"/>
</radialGradient>
<radialGradient id="paint3_radial_4809_6337" cx="0" cy="0" r="1" gradientUnits="userSpaceOnUse" gradientTransform="translate(nan nan) rotate(nan) scale(nan nan)">
<stop stop-color="#389D2D" stop-opacity="0"/>
<stop offset="1" stop-color="#389D2D"/>
</radialGradient>
<radialGradient id="paint4_radial_4809_6337" cx="0" cy="0" r="1" gradientUnits="userSpaceOnUse" gradientTransform="translate(nan nan) rotate(nan) scale(nan nan)">
<stop stop-color="#389D2D" stop-opacity="0"/>
<stop offset="1" stop-color="#389D2D"/>
</radialGradient>
<linearGradient id="paint5_linear_4809_6337" x1="244.485" y1="363.818" x2="466.645" y2="363.818" gradientUnits="userSpaceOnUse">
<stop stop-color="#737373" stop-opacity="0.11"/>
<stop offset="1" stop-color="#D9D9D9" stop-opacity="0.2"/>
</linearGradient>
<radialGradient id="paint6_radial_4809_6337" cx="0" cy="0" r="1" gradientUnits="userSpaceOnUse" gradientTransform="translate(nan nan) rotate(nan) scale(nan nan)">
<stop stop-color="#389D2D" stop-opacity="0"/>
<stop offset="1" stop-color="#389D2D"/>
</radialGradient>
<radialGradient id="paint7_radial_4809_6337" cx="0" cy="0" r="1" gradientUnits="userSpaceOnUse" gradientTransform="translate(nan nan) rotate(nan) scale(nan nan)">
<stop stop-color="#389D2D" stop-opacity="0"/>
<stop offset="1" stop-color="#389D2D"/>
</radialGradient>
<radialGradient id="paint8_radial_4809_6337" cx="0" cy="0" r="1" gradientUnits="userSpaceOnUse" gradientTransform="translate(nan nan) rotate(nan) scale(nan nan)">
<stop stop-color="#389D2D" stop-opacity="0"/>
<stop offset="1" stop-color="#389D2D"/>
</radialGradient>
<radialGradient id="paint9_radial_4809_6337" cx="0" cy="0" r="1" gradientUnits="userSpaceOnUse" gradientTransform="translate(nan nan) rotate(nan) scale(nan nan)">
<stop stop-color="#389D2D" stop-opacity="0"/>
<stop offset="1" stop-color="#389D2D"/>
</radialGradient>
<linearGradient id="paint10_linear_4809_6337" x1="22.331" y1="378.489" x2="245.212" y2="378.489" gradientUnits="userSpaceOnUse">
<stop stop-color="#737373" stop-opacity="0.11"/>
<stop offset="1" stop-color="#D9D9D9" stop-opacity="0.2"/>
</linearGradient>
<radialGradient id="paint11_radial_4809_6337" cx="0" cy="0" r="1" gradientUnits="userSpaceOnUse" gradientTransform="translate(nan nan) rotate(nan) scale(nan nan)">
<stop stop-color="#389D2D" stop-opacity="0"/>
<stop offset="1" stop-color="#389D2D"/>
</radialGradient>
<radialGradient id="paint12_radial_4809_6337" cx="0" cy="0" r="1" gradientUnits="userSpaceOnUse" gradientTransform="translate(nan nan) rotate(nan) scale(nan nan)">
<stop stop-color="#389D2D" stop-opacity="0"/>
<stop offset="1" stop-color="#389D2D"/>
</radialGradient>
<radialGradient id="paint13_radial_4809_6337" cx="0" cy="0" r="1" gradientUnits="userSpaceOnUse" gradientTransform="translate(nan nan) rotate(nan) scale(nan nan)">
<stop stop-color="#389D2D" stop-opacity="0"/>
<stop offset="1" stop-color="#389D2D"/>
</radialGradient>
<radialGradient id="paint14_radial_4809_6337" cx="0" cy="0" r="1" gradientUnits="userSpaceOnUse" gradientTransform="translate(nan nan) rotate(nan) scale(nan nan)">
<stop stop-color="#389D2D" stop-opacity="0"/>
<stop offset="1" stop-color="#389D2D"/>
</radialGradient>
<linearGradient id="paint15_linear_4809_6337" x1="123.957" y1="438.117" x2="346.045" y2="438.117" gradientUnits="userSpaceOnUse">
<stop stop-color="#737373" stop-opacity="0.11"/>
<stop offset="1" stop-color="#D9D9D9" stop-opacity="0.2"/>
</linearGradient>
<radialGradient id="paint16_radial_4809_6337" cx="0" cy="0" r="1" gradientUnits="userSpaceOnUse" gradientTransform="translate(nan nan) rotate(nan) scale(nan nan)">
<stop stop-color="#389D2D" stop-opacity="0"/>
<stop offset="1" stop-color="#389D2D"/>
</radialGradient>
<radialGradient id="paint17_radial_4809_6337" cx="0" cy="0" r="1" gradientUnits="userSpaceOnUse" gradientTransform="translate(nan nan) rotate(nan) scale(nan nan)">
<stop stop-color="#389D2D" stop-opacity="0"/>
<stop offset="1" stop-color="#389D2D"/>
</radialGradient>
<radialGradient id="paint18_radial_4809_6337" cx="0" cy="0" r="1" gradientUnits="userSpaceOnUse" gradientTransform="translate(nan nan) rotate(nan) scale(nan nan)">
<stop stop-color="#389D2D" stop-opacity="0"/>
<stop offset="1" stop-color="#389D2D"/>
</radialGradient>
<radialGradient id="paint19_radial_4809_6337" cx="0" cy="0" r="1" gradientUnits="userSpaceOnUse" gradientTransform="translate(nan nan) rotate(nan) scale(nan nan)">
<stop stop-color="#389D2D" stop-opacity="0"/>
<stop offset="1" stop-color="#389D2D"/>
</radialGradient>
<linearGradient id="paint20_linear_4809_6337" x1="133.446" y1="175.959" x2="355.605" y2="175.959" gradientUnits="userSpaceOnUse">
<stop stop-color="#737373" stop-opacity="0.11"/>
<stop offset="1" stop-color="#D9D9D9" stop-opacity="0.2"/>
</linearGradient>
<radialGradient id="paint21_radial_4809_6337" cx="0" cy="0" r="1" gradientUnits="userSpaceOnUse" gradientTransform="translate(nan nan) rotate(nan) scale(nan nan)">
<stop stop-color="#389D2D" stop-opacity="0"/>
<stop offset="1" stop-color="#389D2D"/>
</radialGradient>
<radialGradient id="paint22_radial_4809_6337" cx="0" cy="0" r="1" gradientUnits="userSpaceOnUse" gradientTransform="translate(nan nan) rotate(nan) scale(nan nan)">
<stop stop-color="#389D2D" stop-opacity="0"/>
<stop offset="1" stop-color="#389D2D"/>
</radialGradient>
<radialGradient id="paint23_radial_4809_6337" cx="0" cy="0" r="1" gradientUnits="userSpaceOnUse" gradientTransform="translate(nan nan) rotate(nan) scale(nan nan)">
<stop stop-color="#389D2D" stop-opacity="0"/>
<stop offset="1" stop-color="#389D2D"/>
</radialGradient>
<radialGradient id="paint24_radial_4809_6337" cx="0" cy="0" r="1" gradientUnits="userSpaceOnUse" gradientTransform="translate(nan nan) rotate(nan) scale(nan nan)">
<stop stop-color="#389D2D" stop-opacity="0"/>
<stop offset="1" stop-color="#389D2D"/>
</radialGradient>
<linearGradient id="paint25_linear_4809_6337" x1="234.993" y1="231.51" x2="457.152" y2="231.51" gradientUnits="userSpaceOnUse">
<stop stop-color="#737373" stop-opacity="0.11"/>
<stop offset="1" stop-color="#D9D9D9" stop-opacity="0.2"/>
</linearGradient>
<radialGradient id="paint26_radial_4809_6337" cx="0" cy="0" r="1" gradientUnits="userSpaceOnUse" gradientTransform="translate(nan nan) rotate(nan) scale(nan nan)">
<stop stop-color="#389D2D" stop-opacity="0"/>
<stop offset="1" stop-color="#389D2D"/>
</radialGradient>
<radialGradient id="paint27_radial_4809_6337" cx="0" cy="0" r="1" gradientUnits="userSpaceOnUse" gradientTransform="translate(nan nan) rotate(nan) scale(nan nan)">
<stop stop-color="#389D2D" stop-opacity="0"/>
<stop offset="1" stop-color="#389D2D"/>
</radialGradient>
<radialGradient id="paint28_radial_4809_6337" cx="0" cy="0" r="1" gradientUnits="userSpaceOnUse" gradientTransform="translate(nan nan) rotate(nan) scale(nan nan)">
<stop stop-color="#389D2D" stop-opacity="0"/>
<stop offset="1" stop-color="#389D2D"/>
</radialGradient>
<radialGradient id="paint29_radial_4809_6337" cx="0" cy="0" r="1" gradientUnits="userSpaceOnUse" gradientTransform="translate(nan nan) rotate(nan) scale(nan nan)">
<stop stop-color="#389D2D" stop-opacity="0"/>
<stop offset="1" stop-color="#389D2D"/>
</radialGradient>
<linearGradient id="paint30_linear_4809_6337" x1="31.831" y1="236.685" x2="254.712" y2="236.685" gradientUnits="userSpaceOnUse">
<stop stop-color="#737373" stop-opacity="0.11"/>
<stop offset="1" stop-color="#D9D9D9" stop-opacity="0.2"/>
</linearGradient>
<radialGradient id="paint31_radial_4809_6337" cx="0" cy="0" r="1" gradientUnits="userSpaceOnUse" gradientTransform="translate(nan nan) rotate(nan) scale(nan nan)">
<stop stop-color="#389D2D" stop-opacity="0"/>
<stop offset="1" stop-color="#389D2D"/>
</radialGradient>
<radialGradient id="paint32_radial_4809_6337" cx="0" cy="0" r="1" gradientUnits="userSpaceOnUse" gradientTransform="translate(nan nan) rotate(nan) scale(nan nan)">
<stop stop-color="#389D2D" stop-opacity="0"/>
<stop offset="1" stop-color="#389D2D"/>
</radialGradient>
<radialGradient id="paint33_radial_4809_6337" cx="0" cy="0" r="1" gradientUnits="userSpaceOnUse" gradientTransform="translate(nan nan) rotate(nan) scale(nan nan)">
<stop stop-color="#389D2D" stop-opacity="0"/>
<stop offset="1" stop-color="#389D2D"/>
</radialGradient>
<radialGradient id="paint34_radial_4809_6337" cx="0" cy="0" r="1" gradientUnits="userSpaceOnUse" gradientTransform="translate(nan nan) rotate(nan) scale(nan nan)">
<stop stop-color="#389D2D" stop-opacity="0"/>
<stop offset="1" stop-color="#389D2D"/>
</radialGradient>
<linearGradient id="paint35_linear_4809_6337" x1="133.442" y1="296.314" x2="355.53" y2="296.314" gradientUnits="userSpaceOnUse">
<stop stop-color="#737373" stop-opacity="0.11"/>
<stop offset="1" stop-color="#D9D9D9" stop-opacity="0.2"/>
</linearGradient>
<radialGradient id="paint36_radial_4809_6337" cx="0" cy="0" r="1" gradientUnits="userSpaceOnUse" gradientTransform="translate(nan nan) rotate(nan) scale(nan nan)">
<stop stop-color="#389D2D" stop-opacity="0"/>
<stop offset="1" stop-color="#389D2D"/>
</radialGradient>
<radialGradient id="paint37_radial_4809_6337" cx="0" cy="0" r="1" gradientUnits="userSpaceOnUse" gradientTransform="translate(nan nan) rotate(nan) scale(nan nan)">
<stop stop-color="#389D2D" stop-opacity="0"/>
<stop offset="1" stop-color="#389D2D"/>
</radialGradient>
<radialGradient id="paint38_radial_4809_6337" cx="0" cy="0" r="1" gradientUnits="userSpaceOnUse" gradientTransform="translate(nan nan) rotate(nan) scale(nan nan)">
<stop stop-color="#389D2D" stop-opacity="0"/>
<stop offset="1" stop-color="#389D2D"/>
</radialGradient>
<radialGradient id="paint39_radial_4809_6337" cx="0" cy="0" r="1" gradientUnits="userSpaceOnUse" gradientTransform="translate(nan nan) rotate(nan) scale(nan nan)">
<stop stop-color="#389D2D" stop-opacity="0"/>
<stop offset="1" stop-color="#389D2D"/>
</radialGradient>
<clipPath id="clip0_4809_6337">
<rect width="184.278" height="202.575" fill="white" transform="translate(127.422 215.306)"/>
</clipPath>
<clipPath id="clip1_4809_6337">
<rect width="184.278" height="202.575" fill="white" transform="translate(247.945 261.359)"/>
</clipPath>
<clipPath id="clip2_4809_6337">
<rect width="184.876" height="201.921" fill="white" transform="translate(25.8047 276.997)"/>
</clipPath>
<clipPath id="clip3_4809_6337">
<rect width="184.218" height="202.64" fill="white" transform="translate(127.422 335.617)"/>
</clipPath>
<clipPath id="clip4_4809_6337">
<rect width="184.278" height="202.575" fill="white" transform="translate(136.906 73.501)"/>
</clipPath>
<clipPath id="clip5_4809_6337">
<rect width="184.278" height="202.575" fill="white" transform="translate(238.453 129.052)"/>
</clipPath>
<clipPath id="clip6_4809_6337">
<rect width="184.876" height="201.921" fill="white" transform="translate(35.3047 135.193)"/>
</clipPath>
<clipPath id="clip7_4809_6337">
<rect width="184.218" height="202.64" fill="white" transform="translate(136.906 193.814)"/>
</clipPath>
</defs>
</svg>
