<svg xmlns="http://www.w3.org/2000/svg" viewBox="0 0 17.933349609375 17.9219970703125" fill="none"> <path fill-rule="evenodd" clip-rule="evenodd" d="M0.887934935506185 9.441883661905925L1.4582926661173503 11.979103927612304L3.4345851542154953 11.536747970581056L3.9055348409016926 11.83511407470703L3.641516082763672 12.25181537882487L0.8961817855834961 12.866306584676108L-0.00009500914271036784 8.879249725341797L2.7478624013264974 8.264160741170247L3.2628484242757163 8.59044807434082L3.026701080322266 8.96313794962565L0.887934935506185 9.441883661905925ZM3.890764734903972 8.98826954650879L3.56646999613444 9.500142140706382L3.891761032104492 10.947214009602865L4.303007609049479 11.207745727539063L4.604810938517253 10.73139112854004L4.266468409220378 9.226284947713216L3.890764734903972 8.98826954650879ZM4.658287190755209 8.595354838053385L4.288237503051758 8.360926106770833L4.616143819173177 7.8433995259602876L5.986899322509766 7.5365648956298825L6.445046590169271 7.826836085001628L6.172932917277018 8.256339808146159L4.658287190755209 8.595354838053385ZM6.739278060913087 10.79298720296224L5.232004933675131 11.130358342488607L4.930923919677735 11.605592107137046L5.343316238403321 11.86684614054362L6.907976084391277 11.516622767130533L7.186789855957032 11.076533386230468L6.739278060913087 10.79298720296224ZM7.584262624104818 10.4491650390625L7.146688893636068 10.171945343017578L6.80428645324707 8.64873146057129L7.072962900797526 8.224657557169596L7.53653998819987 8.518365971883139L7.869402882893881 9.99913759358724L7.584262624104818 10.4491650390625ZM7.8147310740153 11.474354858398437L7.535842580159506 11.914568776448569L7.8874607696533205 13.478755381266277L8.301148274739583 13.740856267293296L8.60140734354655 13.266942596435548L8.262168146769206 11.757851226806642L7.8147310740153 11.474354858398437ZM8.649677942911785 11.124181299845379L8.212203842163087 10.847011418660482L8.497393915812175 10.39688434346517L9.978314982096354 10.065391357421875L10.443187255859375 10.359921717325847L10.175357660929363 10.782700434366863L8.649677942911785 11.124181299845379ZM10.730071034749349 13.321440053304038L9.234828196207683 13.656121190388998L8.929089492797852 14.138677739461263L9.334109212239584 14.395298990885417L10.902281005859376 14.044278579711914L11.179749776204426 13.60633123779297L10.730071034749349 13.321440053304038ZM11.577222544352214 12.978962890625L11.141790852864583 12.703088195800781L10.800509246826172 11.184905614217124L11.071128473917645 10.75776809692383L11.531617039998373 11.049508824666342L11.86370780436198 12.52679340616862L11.577222544352214 12.978962890625ZM11.807666086832683 14.00415270996094L11.530147501627605 14.442199681599936L11.98525606282552 16.466750315348307L9.447512741088868 17.03478916422526L9.004907709757488 15.06590663655599L8.531616724650066 14.766046086629233L8.269092412312826 15.180406092325846L8.885401860555012 17.922016728719075L12.873280665079752 17.029384251912436L12.257245198567709 14.288994079589845L11.807666086832683 14.00415270996094ZM12.640495824178059 13.652609242757162L12.20513885498047 13.376809270222981L12.491698837280275 12.92454015604655L14.516672897338868 12.471274744669598L14.061564336140952 10.446724110921224L14.33258208211263 10.018939000447592L14.792423055013021 10.310281209309895L15.4046974995931 13.033908681233724L12.640495824178059 13.652609242757162ZM3.660321192423503 7.963079727172852L3.1509891560872396 7.640403971354167L2.5313172047932944 4.883749247233073L5.262491628011068 4.27242128499349L5.7877395121256505 4.605209457397461L5.558117914835613 4.96766237894694L3.419341807047526 5.4463831837972005L3.900030298868815 7.5847109578450524L3.660321192423503 7.963079727172852ZM6.185212280273437 3.977866017659505L5.681882934570313 3.6589512837727867L5.060019129435221 0.8925602452596029L9.04789793395996 -0.000059730507914225265L9.664904790242513 2.744699157714844L9.368332021077475 3.212784489949544L8.948816177368164 2.946997304280599L8.485787053426106 0.8871553329467774L5.948043731689453 1.4551867095947266L6.4287322235107425 3.593519465128581L6.185212280273437 3.977866017659505ZM6.097886830647786 5.50466657002767L6.41568073018392 5.003055836995443L6.80164626566569 5.247572077433269L7.136202865600586 6.735915557861329L6.842519358317058 7.199467737833659L6.418470362345378 6.9308161977132166L6.097886830647786 5.50466657002767ZM6.8131534983317055 4.375687489827474L7.177200495402018 4.606330291748047L8.701609934488932 4.265123407999674L8.970859252929689 3.8401528371175133L8.508203740437827 3.547017293294271L7.144820836385092 3.852183125813802L6.8131534983317055 4.375687489827474ZM7.7634217681884765 7.134882771809896L9.253907287597656 6.801247746785482L9.71170585123698 7.09129476928711L9.43936801147461 7.521147196451824L7.895605499267578 7.8666879730224615L7.470435668945313 7.59731411743164L7.7634217681884765 7.134882771809896ZM9.67758267211914 6.190492655436198L10.109178619384767 6.463951329549153L10.398104807535807 6.0079211934407555L10.066885803222657 4.5345470784505215L9.598800470987957 4.237974309285482L9.332988377888999 4.657539967854818L9.67758267211914 6.190492655436198ZM10.067259414672852 7.919068298339845L10.339647069295248 7.489141148885092L10.797346003214518 7.77911344909668L11.132824178059897 9.271467025756836L10.840660024007162 9.732578277587892L10.414170099894207 9.462357569376627L10.067259414672852 7.919068298339845ZM10.737119837443034 6.861772801717122L11.168616154988607 7.1351567535400395L12.704034678141277 6.791484034220378L12.969024826049806 6.373238469441732L12.499619400024415 6.075843755086263L11.026095840454103 6.405667943318686L10.737119837443034 6.861772801717122ZM11.766245030721029 9.660620712280274L13.24470026143392 9.32970059712728L13.704640864054364 9.62109262084961L13.433672932942708 10.048803009033204L11.886423380533854 10.395115915934245L11.46860124206543 10.13039974975586L11.766245030721029 9.660620712280274ZM13.672684631347657 8.721660415649415L14.10211363220215 8.993749181111653L14.392409729003907 8.535577006022136L14.061987762451173 7.0657148386637365L13.596966044108074 6.771084849039713L13.329186264038086 7.193714121500651L13.672684631347657 8.721660415649415ZM14.730054850260418 9.391570653279622L15.159409128824871 9.663609603881836L17.933374516805014 9.04269228108724L17.037105555216474 5.05563542175293L14.294922047932944 5.669429219563803L13.99443881225586 6.143716501871745L14.407727798461915 6.405568313598633L16.47499467468262 5.942862986246745L17.04534991455078 8.480083251953126L15.020400761922202 8.933323755900066L14.730054850260418 9.391570653279622ZM9.996273239135743 3.610630869547526L10.416934824625653 3.877140370686849L12.480689753214518 3.415207173665365L12.944515914916993 5.4785386759440104L13.366497594197593 5.745895029703776L13.66150119527181 5.280250625610352L13.042800633748373 2.5279796091715494L10.292123692830405 3.1436663716634117L9.996273239135743 3.610630869547526ZM4.272869618733725 12.644231938680013L4.533451151529948 12.232935546875L5.009830657958985 12.534738876342773L5.4532078196207685 14.50713335164388L7.426000813802084 14.065574432373047L7.903675506591797 14.36819970703125L7.643940826416015 14.778176005045573L4.891096939086914 15.394360916137696L4.272869618733725 12.644231938680013Z" fill="currentColor"></path> </svg>