<svg width="1438" height="369" viewBox="0 0 1438 369" fill="none" xmlns="http://www.w3.org/2000/svg">
<g clip-path="url(#clip0_224_8)">
<g clip-path="url(#clip1_224_8)">
<path d="M1415.14 3.75316L1403.95 1.00012M1415.14 3.75316L1381.99 3.75315M1415.14 3.75316L1426.69 6.59711M1415.14 3.75316H1438.61M1403.95 1.00012L1408.02 1.0012L1412.05 1.00716L1415.99 1.02392L1419.81 1.05693L1423.47 1.1105L1426.92 1.19113L1430.12 1.30313L1433.1 1.44597L1435.65 1.64347L1437.97 1.87236L1438.61 1.95252V3.75316M1403.95 1.00012H1371.33M1381.99 3.75315L1371.33 1.00012M1381.99 3.75315H1348.84M1381.99 3.75315L1384.7 4.45548L1392.99 6.5971M1426.69 6.59711L1392.99 6.5971M1426.69 6.59711L1438.61 9.53018M1426.69 6.59711H1438.61M1438.61 3.75316V6.59711M1371.33 1.00012H1338.72M1348.84 3.75315L1338.72 1.00012M1348.84 3.75315H1315.69M1348.84 3.75315L1359.29 6.5971M1392.99 6.5971L1404.37 9.53736M1392.99 6.5971H1359.29M1438.61 9.53018L1438.64 9.53736H1438.61M1438.61 9.53018V9.53736M1438.61 9.53018V6.59711M1338.72 1.00012L1306.1 1.00011M1306.1 1.00011H1273.48M1306.1 1.00011L1315.69 3.75315M1273.48 1.00011H1240.87M1273.48 1.00011L1282.54 3.75314M1315.69 3.75315L1282.54 3.75314M1315.69 3.75315L1325.59 6.5971M1359.29 6.5971H1325.59M1359.29 6.5971L1370.1 9.53735M1240.87 1.00011H1208.25M1240.87 1.00011L1249.39 3.75314M1282.54 3.75314H1249.39M1282.54 3.75314L1291.89 6.59709M1325.59 6.5971L1291.89 6.59709M1325.59 6.5971L1335.84 9.53735M1208.25 1.00011L1175.63 1.0001M1208.25 1.00011L1216.24 3.75314M1249.39 3.75314H1216.24M1249.39 3.75314L1251.56 4.45547L1252.66 4.80826L1258.19 6.59709M1291.89 6.59709L1301.57 9.53735M1291.89 6.59709H1258.19M1175.63 1.0001H1143.02M1175.63 1.0001L1183.09 3.75314M1216.24 3.75314H1183.09M1216.24 3.75314L1218.28 4.45547L1224.5 6.59709M1258.19 6.59709L1267.3 9.53734M1258.19 6.59709H1224.5M1143.02 1.0001H1110.4M1143.02 1.0001L1149.94 3.75313M1183.09 3.75314L1149.94 3.75313M1183.09 3.75314L1190.8 6.59709M1224.5 6.59709H1190.8M1224.5 6.59709L1233.03 9.53734M1110.4 1.0001L1077.78 1.00009M1110.4 1.0001L1116.79 3.75313M1149.94 3.75313H1116.79M1149.94 3.75313L1151.71 4.45546L1152.6 4.80826L1157.1 6.59708M1190.8 6.59709L1157.1 6.59708M1190.8 6.59709L1198.76 9.53734M1077.78 1.00009H1045.17M1077.78 1.00009L1083.64 3.75313M1116.79 3.75313H1083.64M1116.79 3.75313L1123.4 6.59708M1157.1 6.59708L1164.49 9.53733M1157.1 6.59708H1123.4M1045.17 1.00009H1012.55M1045.17 1.00009L1050.49 3.75312M1083.64 3.75313L1050.49 3.75312M1083.64 3.75313L1085.14 4.45546L1085.89 4.80825L1089.7 6.59708M1123.4 6.59708L1127.64 8.42324L1129.36 9.16398L1130.22 9.53733M1123.4 6.59708H1089.7M1012.55 1.00009H979.933M1012.55 1.00009L1013.73 1.68023L1015.53 2.70992L1017.34 3.75312M1050.49 3.75312H1017.34M1050.49 3.75312L1051.17 4.10321L1051.85 4.45545L1056 6.59707M1089.7 6.59708L1056 6.59707M1089.7 6.59708L1095.96 9.53733M979.933 1.00009L947.317 1.00008M979.933 1.00009L980.985 1.68022L984.194 3.75312M1017.34 3.75312H984.194M1017.34 3.75312L1018.57 4.45545L1019.18 4.80824L1022.3 6.59707M1056 6.59707H1022.3M1056 6.59707L1059.53 8.42324L1061.69 9.53733M947.317 1.00008H914.7M947.317 1.00008L951.045 3.75311M984.194 3.75312L951.045 3.75311M984.194 3.75312L988.598 6.59707M1022.3 6.59707L1026.77 9.16397L1027.42 9.53732M1022.3 6.59707H988.598M914.7 1.00008H882.083M914.7 1.00008L915.886 2.02218L917.088 3.0562L917.491 3.40412L917.896 3.75311M951.045 3.75311H917.896M951.045 3.75311L951.52 4.1032L951.996 4.45545L952.475 4.80824L954.898 6.59707M988.598 6.59707L991.424 8.42323L993.149 9.53732M988.598 6.59707H954.898M882.083 1.00008L849.467 1.00007M882.083 1.00008L883.072 2.02217L883.404 2.36522L883.738 2.70991L884.747 3.75311M917.896 3.75311H884.747M917.896 3.75311L918.711 4.45544L919.122 4.80823L919.534 5.16319L921.198 6.59706M954.898 6.59707L921.198 6.59706M954.898 6.59707L958.881 9.53732M849.467 1.00007H816.85M849.467 1.00007L851.598 3.75311M884.747 3.75311H851.598M884.747 3.75311L885.426 4.45544L886.802 5.87688L887.149 6.23616L887.499 6.59706M921.198 6.59706H887.499M921.198 6.59706L923.318 8.42322L924.612 9.53731M816.85 1.00007L817.047 1.33932L817.244 1.68021L818.245 3.40411L818.448 3.7531M816.85 1.00007H784.234M851.598 3.75311L818.448 3.7531M851.598 3.75311L851.869 4.10319L852.141 4.45544L852.415 4.80823L853.798 6.59706M887.499 6.59706L888.201 7.32266L890.344 9.53731M887.499 6.59706H853.798M818.448 3.7531H785.299M818.448 3.7531L820.099 6.59705M784.234 1.00007H751.616M784.234 1.00007L785.299 3.7531M853.798 6.59706L854.08 6.95905L856.075 9.53731M853.798 6.59706L820.099 6.59705M785.299 3.7531H752.149M785.299 3.7531L785.434 4.10318L785.57 4.45543L785.707 4.80822L786.399 6.59705M820.099 6.59705H786.399M820.099 6.59705L820.521 7.32265L820.732 7.68788L821.16 8.42322L821.59 9.16395L821.806 9.5373M751.616 1.00007L719 1.00006M751.616 1.00007L751.814 2.02216L752.149 3.7531M719 1.00006H686.384M719 1.00006V3.75309M752.149 3.7531L719 3.75309M752.149 3.7531L752.7 6.59705M786.399 6.59705H752.7M786.399 6.59705L786.822 7.68787L787.393 9.16395L787.537 9.5373M686.384 1.00006H653.766M686.384 1.00006L686.186 2.02216L685.851 3.75309M719 3.75309H685.851M719 3.75309V6.59704M752.7 6.59705L752.77 6.95904L752.84 7.32264L752.911 7.68787L752.982 8.05473L753.054 8.42321L753.269 9.5373M752.7 6.59705L719 6.59704M653.766 1.00006L621.15 1.00005M653.766 1.00006L652.701 3.75309M685.851 3.75309H652.701M685.851 3.75309L685.3 6.59704M719 6.59704V9.5373M719 6.59704H685.3M621.15 1.00005L620.953 1.33931L620.756 1.68019L619.755 3.40409L619.552 3.75309M621.15 1.00005H588.534M652.701 3.75309H619.552M652.701 3.75309L652.566 4.10317L652.43 4.45542L652.293 4.80821L651.879 5.87686L651.601 6.59704M685.3 6.59704H651.601M685.3 6.59704L685.019 8.05472L684.947 8.4232L684.732 9.53729M619.552 3.75309L586.402 3.75308M619.552 3.75309L617.901 6.59704M588.534 1.00005H555.916M588.534 1.00005L586.673 3.40409L586.402 3.75308M651.601 6.59704H617.901M651.601 6.59704L651.178 7.68786L650.607 9.16394L650.463 9.53729M586.402 3.75308H553.253M586.402 3.75308L586.131 4.10317L585.859 4.45541L585.585 4.80821L584.201 6.59703M617.901 6.59704L617.479 7.32263L616.841 8.4232L616.41 9.16394L616.194 9.53729M617.901 6.59704L584.201 6.59703M555.916 1.00005H523.3M555.916 1.00005L554.928 2.02215L554.596 2.3652L553.927 3.05617L553.591 3.40409L553.253 3.75308M523.3 1.00005L490.683 1.00004M523.3 1.00005L522.114 2.02214L520.913 3.05616L520.509 3.40408L520.104 3.75308M553.253 3.75308H520.104M553.253 3.75308L552.574 4.45541L551.198 5.87685L550.501 6.59703M584.201 6.59703L582.788 8.42319L582.214 9.16393L581.925 9.53728M584.201 6.59703H550.501M490.683 1.00004H458.067M490.683 1.00004L486.955 3.75307M520.104 3.75308L486.955 3.75307M520.104 3.75308L519.289 4.45541L518.878 4.8082L518.467 5.16315L516.802 6.59703M550.501 6.59703H516.802M550.501 6.59703L549.799 7.32263L547.657 9.53728M458.067 1.00004H425.45M458.067 1.00004L457.015 1.68018L453.806 3.75307M486.955 3.75307L486.48 4.10316L483.102 6.59702M486.955 3.75307H453.806M516.802 6.59703L483.102 6.59702M516.802 6.59703L514.682 8.42319L513.388 9.53728M425.45 1.00004L392.83 1.00003M425.45 1.00004L420.66 3.75307M453.806 3.75307H420.66M453.806 3.75307L453.263 4.10316L449.403 6.59702M483.102 6.59702L479.119 9.53727M483.102 6.59702H449.403M392.83 1.00003H360.22M392.83 1.00003L387.51 3.75307M420.66 3.75307H387.51M420.66 3.75307L419.43 4.4554L418.82 4.80819L415.7 6.59702M449.403 6.59702L446.576 8.42318L444.851 9.53727M449.403 6.59702H415.7M360.22 1.00003H327.6M360.22 1.00003L354.36 3.75306M387.51 3.75307L354.36 3.75306M387.51 3.75307L386.83 4.10315L386.15 4.4554L382 6.59701M415.7 6.59702L382 6.59701M415.7 6.59702L411.23 9.16392L410.58 9.53727M327.6 1.00003H294.98M327.6 1.00003L321.21 3.75306M354.36 3.75306H321.21M354.36 3.75306L352.86 4.45539L352.11 4.80819L348.3 6.59701M382 6.59701H348.3M382 6.59701L378.47 8.42318L376.31 9.53727M294.98 1.00003L262.37 1.00002M294.98 1.00003L288.06 3.75306M321.21 3.75306H288.06M321.21 3.75306L320.39 4.10314L314.6 6.59701M348.3 6.59701L342.04 9.53726M348.3 6.59701H314.6M262.37 1.00002H229.75M262.37 1.00002L254.91 3.75305M288.06 3.75306L254.91 3.75305M288.06 3.75306L286.29 4.45539L285.4 4.80818L280.9 6.59701M314.6 6.59701L308.64 9.16391L307.78 9.53726M314.6 6.59701H280.9M229.75 1.00002H197.13M229.75 1.00002L221.76 3.75305M254.91 3.75305H221.76M254.91 3.75305L247.2 6.597M280.9 6.59701L247.2 6.597M280.9 6.59701L274.45 9.16391L273.51 9.53726M197.13 1.00002L164.52 1.00001M197.13 1.00002L188.61 3.75305M221.76 3.75305H188.61M221.76 3.75305L219.72 4.45538L213.5 6.597M247.2 6.597H213.5M247.2 6.597L239.24 9.53725M164.52 1.00001H131.9M164.52 1.00001L155.46 3.75305M188.61 3.75305H155.46M188.61 3.75305L186.44 4.45538L185.34 4.80817L179.8 6.597M213.5 6.597L204.97 9.53725M213.5 6.597H179.8M131.9 1.00001H99.28M131.9 1.00001L122.31 3.75304M155.46 3.75305L122.31 3.75304M155.46 3.75305L146.11 6.59699M179.8 6.597L170.7 9.53725M179.8 6.597L146.11 6.59699M99.28 1.00001H66.67M99.28 1.00001L89.16 3.75304M122.31 3.75304H89.16M122.31 3.75304L112.4 6.59699M146.11 6.59699H112.4M146.11 6.59699L136.43 9.53724M66.67 1.00001L34.05 1M66.67 1.00001L56.01 3.75304M89.16 3.75304H56.01M89.16 3.75304L78.71 6.59699M112.4 6.59699H78.71M112.4 6.59699L102.16 9.53724M34.05 1L29.98 1.00108L25.95 1.00704L22.01 1.0238L18.1899 1.05681L14.53 1.11037L11.08 1.191L7.88 1.30301L4.90002 1.44584L2.34998 1.64335L0.03003 1.87223L-0.609985 1.95241V3.75303M34.05 1L22.86 3.75303M56.01 3.75304L22.86 3.75303M56.01 3.75304L53.3 4.45537L45.01 6.59699M78.71 6.59699L67.9 9.53724M78.71 6.59699H45.01M-0.609985 3.75303H22.86M-0.609985 3.75303V6.59698M22.86 3.75303L11.3101 6.59698M45.01 6.59699L33.63 9.53724M45.01 6.59699L11.3101 6.59698M-0.609985 6.59698H11.3101M-0.609985 6.59698V9.53004M11.3101 6.59698L-0.609985 9.53004M67.9 9.53724L56.71 12.5781M67.9 9.53724H102.16M67.9 9.53724H33.63M102.16 9.53724L91.5699 12.5781M102.16 9.53724H136.43M204.97 9.53725L196.14 12.5781M204.97 9.53725H239.24M204.97 9.53725H170.7M239.24 9.53725L231 12.5781M239.24 9.53725L273.51 9.53726M342.04 9.53726L335.57 12.5782M342.04 9.53726L376.31 9.53727M342.04 9.53726H307.78M376.31 9.53727L370.43 12.5782M376.31 9.53727H410.58M479.119 9.53727L475 12.5782M479.119 9.53727L513.388 9.53728M479.119 9.53727H444.851M513.388 9.53728L509.857 12.5782M513.388 9.53728H547.657M616.194 9.53729L615.976 9.91173L614.428 12.5782M616.194 9.53729H650.463M616.194 9.53729L581.925 9.53728M650.463 9.53729L650.318 9.91173L649.879 11.0448L649.732 11.4257L649.584 11.8082L649.435 12.1924L649.285 12.5782M650.463 9.53729H684.732M753.269 9.5373L753.634 11.4257L753.708 11.8082L753.783 12.1924L753.857 12.5782M753.269 9.5373H787.537M753.269 9.5373H719M787.537 9.5373L787.683 9.91174L788.121 11.0448L788.268 11.4257L788.416 11.8082L788.714 12.5782M787.537 9.5373H821.806M890.344 9.53731L890.706 9.91175L891.07 10.2878L891.802 11.0448L893.286 12.5782M890.344 9.53731H924.612M890.344 9.53731H856.075M924.612 9.53731L928.143 12.5782M924.612 9.53731L958.881 9.53732M1027.42 9.53732L1028.07 9.91176L1032.71 12.5782M1027.42 9.53732L1061.69 9.53733M1027.42 9.53732H993.149M1061.69 9.53733L1067.57 12.5782M1061.69 9.53733H1095.96M1164.49 9.53733L1172.14 12.5782M1164.49 9.53733L1198.76 9.53734M1164.49 9.53733H1130.22M1198.76 9.53734L1207 12.5782M1198.76 9.53734H1233.03M1301.57 9.53735L1311.57 12.5782M1301.57 9.53735H1335.84M1301.57 9.53735L1267.3 9.53734M1335.84 9.53735L1346.43 12.5782M1335.84 9.53735H1370.1M-0.72998 29.4979H-0.609985M-0.609985 29.4979H32.64M-0.609985 29.4979V33.2703M-0.609985 29.4979V28.1696M32.64 29.4979L45.29 25.8645M32.64 29.4979L19.5 33.2703M32.64 29.4979H70.77M-0.609985 33.2703H19.5M-0.609985 33.2703V37.1905M-0.609985 28.1696L7.85999 25.8645M-0.609985 28.1696V25.8645M45.29 25.8645H7.85999M45.29 25.8645L57.49 22.3626M45.29 25.8645H82.72M19.5 33.2703L5.83997 37.1905M19.5 33.2703H58.36M70.77 29.4979L82.72 25.8645M70.77 29.4979L58.36 33.2703M70.77 29.4979H108.9M7.85999 25.8645L20.74 22.3626M7.85999 25.8645H-0.609985M57.49 22.3626L69.26 18.9851M57.49 22.3626H94.24M57.49 22.3626H20.74M82.72 25.8645L94.24 22.3626M82.72 25.8645H120.15M5.83997 37.1905H45.46M5.83997 37.1905L-0.609985 39.0431M5.83997 37.1905H-0.609985M58.36 33.2703H97.22M58.36 33.2703L45.46 37.1905M108.9 29.4979H147.03M108.9 29.4979L120.15 25.8645M108.9 29.4979L97.22 33.2703M20.74 22.3626L33.16 18.9851M20.74 22.3626H-0.609985M-0.609985 25.8645V22.3626M69.26 18.9851L80.61 15.7256M69.26 18.9851H33.16M69.26 18.9851H105.35M94.24 22.3626H130.99M94.24 22.3626L105.35 18.9851M120.15 25.8645H157.58M120.15 25.8645L130.99 22.3626M33.16 18.9851L45.14 15.7256M33.16 18.9851H-0.609985M-0.609985 22.3626V18.9851M45.14 15.7256H80.61M45.14 15.7256L56.71 12.5781M45.14 15.7256H9.6801M80.61 15.7256L91.5699 12.5781M80.61 15.7256H116.07M56.71 12.5781H91.5699M56.71 12.5781H21.86M9.6801 15.7256L21.86 12.5781M9.6801 15.7256H-0.609985M9.6801 15.7256L-0.609985 18.3837M91.5699 12.5781H126.43M116.07 15.7256L126.43 12.5781M116.07 15.7256L105.35 18.9851M116.07 15.7256H151.54M21.86 12.5781L33.63 9.53724M21.86 12.5781H-0.609985M-0.609985 15.7256V18.3837M-0.609985 15.7256V12.5781M-0.609985 18.3837V18.9851M126.43 12.5781H161.29M126.43 12.5781L136.43 9.53724M105.35 18.9851H141.45M151.54 15.7256H187.01M151.54 15.7256L161.29 12.5781M151.54 15.7256L141.45 18.9851M33.63 9.53724L-0.609985 9.53723M-0.609985 12.5781V9.53723M161.29 12.5781H196.14M161.29 12.5781L170.7 9.53725M136.43 9.53724L170.7 9.53725M-0.979981 86.8475H-0.609985M-0.609985 86.8475H29.79M-0.609985 86.8475V80.8236M-0.609985 86.8475V93.1711M29.79 86.8475L46.11 80.8236M29.79 86.8475L12.66 93.1711M29.79 86.8475H79.02M-0.609985 80.8236H46.11M-0.609985 80.8236V80.3618M-0.609985 93.1711H12.66M-0.609985 93.1711V98.0697M46.11 80.8236L61.6801 75.0783M46.11 80.8236H94.17M12.66 93.1711H63.11M12.66 93.1711L-0.609985 98.0697M79.02 86.8475L94.17 80.8236M79.02 86.8475L63.11 93.1711M79.02 86.8475H128.25M61.6801 75.0783H14.72M61.6801 75.0783L76.54 69.5928M61.6801 75.0783H108.63M94.17 80.8236L108.63 75.0783M94.17 80.8236H142.24M63.11 93.1711H113.57M63.11 93.1711L46.39 99.8168M-0.609985 98.0697L-0.76001 98.1237M-0.609985 98.0697V99.8168M128.25 86.8475H177.48M128.25 86.8475L142.24 80.8236M128.25 86.8475L113.57 93.1711M14.72 75.0783L30.65 69.5928M14.72 75.0783H-0.609985M14.72 75.0783L-0.609985 80.3618M76.54 69.5928H30.65M76.54 69.5928L90.74 64.3497M76.54 69.5928H122.43M108.63 75.0783H155.58M108.63 75.0783L122.43 69.5928M142.24 80.8236H190.3M142.24 80.8236L155.58 75.0783M-0.609985 80.3618V75.0783M30.65 69.5928L45.87 64.3497M30.65 69.5928H-0.609985M-0.609985 75.0783V69.5928M45.87 64.3497H90.74M45.87 64.3497L60.4301 59.3338M45.87 64.3497H0.98999M-0.609985 69.5928V64.8673M90.74 64.3497L104.33 59.3339M90.74 64.3497H135.62M60.4301 59.3338L104.33 59.3339M60.4301 59.3338H16.52M60.4301 59.3338L74.37 54.5301M0.98999 64.3497L16.52 59.3338M0.98999 64.3497H-0.609985M0.98999 64.3497L-0.609985 64.8673M104.33 59.3339L117.34 54.5301M104.33 59.3339H148.24M135.62 64.3497L148.24 59.3339M135.62 64.3497L122.43 69.5928M135.62 64.3497H180.49M16.52 59.3338L31.39 54.5301M16.52 59.3338H-0.609985M74.37 54.5301H117.34M74.37 54.5301H31.39M74.37 54.5301L87.73 49.9255M-0.609985 64.3497V59.3338M-0.609985 64.3497V64.8673M-0.609985 64.8673L-1 64.9925M117.34 54.5301L129.82 49.9255M117.34 54.5301H160.32M148.24 59.3339L160.32 54.5301M148.24 59.3339H192.14M122.43 69.5928H168.32M180.49 64.3497H225.37M180.49 64.3497L192.14 59.3339M180.49 64.3497L168.32 69.5928M31.39 54.5301L45.65 49.9255M31.39 54.5301H-0.609985M-0.609985 59.3338V54.5301M87.73 49.9255L100.56 45.508M87.73 49.9255H129.82M87.73 49.9255H45.65M129.82 49.9255L141.79 45.508M129.82 49.9255H171.9M160.32 54.5301H203.3M160.32 54.5301L171.9 49.9255M192.14 59.3339H236.05M192.14 59.3339L203.3 54.5301M100.56 45.508H141.79M100.56 45.508L112.87 41.2665M100.56 45.508H59.33M141.79 45.508L153.28 41.2665M141.79 45.508H183.02M112.87 41.2665H153.28M112.87 41.2665H72.46M112.87 41.2665L124.7 37.1905M59.33 45.508H18.1M59.33 45.508L72.46 41.2665M59.33 45.508L45.65 49.9255M153.28 41.2665L164.32 37.1905M153.28 41.2665H193.69M183.02 45.508L193.69 41.2665M183.02 45.508L171.9 49.9255M183.02 45.508L224.25 45.5081M72.46 41.2665H32.05M72.46 41.2665L85.08 37.1905M124.7 37.1905H164.32M124.7 37.1905H85.08M124.7 37.1905L136.08 33.2703M18.1 45.508L32.05 41.2665M18.1 45.508L3.56995 49.9255M18.1 45.508H-0.609985M45.65 49.9255H3.56995M164.32 37.1905L174.94 33.2703M164.32 37.1905H203.94M193.69 41.2665L203.94 37.1905M193.69 41.2665H234.1M171.9 49.9255H213.99M224.25 45.5081H265.48M224.25 45.5081L234.1 41.2665M224.25 45.5081L213.99 49.9255M32.05 41.2665L45.46 37.1905M32.05 41.2665H-0.609985M85.08 37.1905L97.22 33.2703M85.08 37.1905H45.46M136.08 33.2703L147.03 29.4979M136.08 33.2703H174.94M136.08 33.2703H97.22M174.94 33.2703L185.16 29.4979M174.94 33.2703H213.8M203.94 37.1905H243.56M203.94 37.1905L213.8 33.2703M234.1 41.2665H274.5M234.1 41.2665L243.56 37.1905M147.03 29.4979H185.16M147.03 29.4979L157.58 25.8645M185.16 29.4979L195.01 25.8645M185.16 29.4979H223.29M157.58 25.8645H195.01M157.58 25.8645L167.74 22.3626M195.01 25.8645L204.49 22.3626M195.01 25.8645H232.43M223.29 29.4979L232.43 25.8645M223.29 29.4979L213.8 33.2703M223.29 29.4979H261.42M167.74 22.3626H204.49M167.74 22.3626H130.99M167.74 22.3626L177.55 18.9851M204.49 22.3626L213.64 18.9851M204.49 22.3626H241.24M232.43 25.8645L241.24 22.3626M232.43 25.8645H269.86M213.8 33.2703H252.66M261.42 29.4979H299.56M261.42 29.4979L268.82 26.3109L269.86 25.8645M261.42 29.4979L252.66 33.2703M130.99 22.3626L141.45 18.9851M177.55 18.9851L187.01 15.7256M177.55 18.9851H213.64M177.55 18.9851H141.45M213.64 18.9851L222.47 15.7256M213.64 18.9851H249.74M241.24 22.3626H277.99M241.24 22.3626L249.74 18.9851M269.86 25.8645H307.29M269.86 25.8645L277.99 22.3626M187.01 15.7256H222.47M187.01 15.7256L196.14 12.5781M222.47 15.7256L231 12.5781M222.47 15.7256L257.94 15.7257M196.14 12.5781H231M231 12.5781L265.86 12.5782M257.94 15.7257L265.86 12.5782M257.94 15.7257L249.74 18.9851M257.94 15.7257H293.41M265.86 12.5782H300.71M265.86 12.5782L273.51 9.53726M249.74 18.9851H285.84M293.41 15.7257H328.87M293.41 15.7257L300.71 12.5782M293.41 15.7257L285.84 18.9851M300.71 12.5782H335.57M300.71 12.5782L307.78 9.53726M273.51 9.53726H307.78M24.61 191.284L47.58 179.415M24.61 191.284L0.01001 203.995M24.61 191.284H94.05M24.61 191.284H-0.609985M47.58 179.415L69.08 168.305M47.58 179.415H114.72M47.58 179.415H-0.609985M0.01001 203.995H71.91M0.01001 203.995H-0.609985M0.01001 203.995L-0.609985 204.318M94.05 191.284L114.72 179.415M94.05 191.284L71.91 203.995M94.05 191.284L163.49 191.285M-0.609985 191.284V203.995M-0.609985 191.284V179.415M69.08 168.305L89.24 157.885M69.08 168.305H134.07M69.08 168.305H4.08997M114.72 179.415L134.07 168.305M114.72 179.415H181.86M-0.609985 179.415V170.512M71.91 203.995H143.81M71.91 203.995L48.15 217.64M-0.609985 203.995V204.318M-0.609985 204.318V217.64M163.49 191.285H232.93M163.49 191.285L181.86 179.415M163.49 191.285L143.81 203.995M89.24 157.885L108.19 148.091M89.24 157.885H26.27M89.24 157.885H152.22M134.07 168.305H199.06M134.07 168.305L152.22 157.885M4.08997 168.305L26.27 157.885M4.08997 168.305H-0.609985M4.08997 168.305L-0.609985 170.512M181.86 179.415H249.01M181.86 179.415L199.06 168.305M-0.609985 170.512V168.305M47.11 148.091H108.19M47.11 148.091L66.74 138.871M47.11 148.091L26.27 157.885M47.11 148.091H-0.609985M108.19 148.091L126.04 138.871M108.19 148.091H169.27M66.74 138.871H126.04M66.74 138.871H7.43994M66.74 138.871L85.25 130.173M26.27 157.885H-0.609985M-0.609985 148.091V157.885M-0.609985 148.091V142.34M126.04 138.871L142.87 130.173M126.04 138.871H185.33M169.27 148.091L185.33 138.871M169.27 148.091L152.22 157.885M169.27 148.091H230.35M7.43994 138.871L27.64 130.173M7.43994 138.871H-0.609985M7.43994 138.871L-0.609985 142.34M85.25 130.173H142.87M85.25 130.173H27.64M85.25 130.173L102.75 121.956M-0.609985 157.885V168.305M-0.609985 142.34V138.871M142.87 130.173L158.77 121.956M142.87 130.173H200.48M185.33 138.871L200.48 130.173M185.33 138.871H244.63M152.22 157.885H215.19M230.35 148.091H291.43M230.35 148.091L244.63 138.871M230.35 148.091L215.19 157.885M27.64 130.173L46.72 121.956M27.64 130.173H-0.609985M-0.609985 138.871V130.173M102.75 121.956L119.3 114.179M102.75 121.956H158.77M102.75 121.956H46.72M158.77 121.956L173.82 114.179M158.77 121.956H214.79M200.48 130.173H258.09M200.48 130.173L214.79 121.956M244.63 138.871H303.93M244.63 138.871L258.09 130.173M119.3 114.179H173.82M119.3 114.179L134.99 106.81M119.3 114.179H64.78M173.82 114.179L188.08 106.81M173.82 114.179H228.34M134.99 106.81H188.08M134.99 106.81H81.89M134.99 106.81L149.87 99.8168M64.78 114.179H10.26M64.78 114.179L81.89 106.81M64.78 114.179L46.72 121.956M188.08 106.81L201.61 99.8168M188.08 106.81H241.17M228.34 114.179L241.17 106.81M228.34 114.179L214.79 121.956M228.34 114.179H282.85M81.89 106.81H28.8M81.89 106.81L98.13 99.8168M149.87 99.8168H201.61M149.87 99.8168H98.13M149.87 99.8168L164.02 93.1711M10.26 114.179L28.8 106.81M10.26 114.179H-0.609985M10.26 114.179L-0.609985 118.502M46.72 121.956H-0.609985M201.61 99.8168L214.47 93.1711M201.61 99.8168H253.35M241.17 106.81L253.35 99.8168M241.17 106.81H294.26M214.79 121.956H270.82M282.85 114.179H337.37M282.85 114.179L294.26 106.81M282.85 114.179L270.82 121.956M28.8 106.81L46.39 99.8168M28.8 106.81H-0.609985M98.13 99.8168L113.57 93.1711M98.13 99.8168H46.39M164.02 93.1711L177.48 86.8475M164.02 93.1711H214.47M164.02 93.1711H113.57M214.47 93.1711L226.71 86.8475M214.47 93.1711L264.92 93.1712M253.35 99.8168H305.09M253.35 99.8168L264.92 93.1712M294.26 106.81H347.35M294.26 106.81L305.09 99.8168M177.48 86.8475H226.71M177.48 86.8475L190.3 80.8236M226.71 86.8475L238.36 80.8236M226.71 86.8475H275.94M190.3 80.8236H238.36M190.3 80.8236L202.53 75.0783M238.36 80.8236L249.48 75.0784M238.36 80.8236H286.43M275.94 86.8475L286.43 80.8236M275.94 86.8475L264.92 93.1712M275.94 86.8475H325.17M202.53 75.0783L249.48 75.0784M202.53 75.0783H155.58M202.53 75.0783L214.21 69.5928M249.48 75.0784L260.1 69.5928M249.48 75.0784H296.43M286.43 80.8236L296.43 75.0784M286.43 80.8236H334.49M264.92 93.1712H315.38M325.17 86.8475H374.4M325.17 86.8475L334.49 80.8236M325.17 86.8475L315.38 93.1712M155.58 75.0783L168.32 69.5928M214.21 69.5928L225.37 64.3497M214.21 69.5928H260.1M214.21 69.5928H168.32M260.1 69.5928L270.24 64.3497M260.1 69.5928H305.99M296.43 75.0784H343.39M296.43 75.0784L305.99 69.5928M334.49 80.8236H382.56M334.49 80.8236L343.39 75.0784M225.37 64.3497H270.24M225.37 64.3497L236.05 59.3339M270.24 64.3497L279.95 59.3339M270.24 64.3497H315.12M236.05 59.3339H279.95M236.05 59.3339L246.27 54.5301M279.95 59.3339L289.25 54.5301M279.95 59.3339H323.86M315.12 64.3497L323.86 59.3339M315.12 64.3497L305.99 69.5928M315.12 64.3497H360M246.27 54.5301H289.25M246.27 54.5301H203.3M246.27 54.5301L256.07 49.9255M289.25 54.5301L298.16 49.9255M289.25 54.5301H332.22M323.86 59.3339L332.22 54.5301M323.86 59.3339H367.76M305.99 69.5928H351.88M360 64.3497H404.87M360 64.3497L367.76 59.3339M360 64.3497L351.88 69.5928M203.3 54.5301L213.99 49.9255M256.07 49.9255L265.48 45.5081M256.07 49.9255H298.16M256.07 49.9255H213.99M298.16 49.9255L306.7 45.5081M298.16 49.9255H340.24M332.22 54.5301H375.2M332.22 54.5301L340.24 49.9255M367.76 59.3339H411.67M367.76 59.3339L375.2 54.5301M265.48 45.5081H306.7M265.48 45.5081L274.5 41.2665M306.7 45.5081L307.75 44.9686L314.91 41.2665M306.7 45.5081H347.93M274.5 41.2665H314.91M274.5 41.2665L283.18 37.1905M314.91 41.2665L322.8 37.1905M314.91 41.2665H355.32M347.93 45.5081L355.32 41.2665M347.93 45.5081L340.24 49.9255M347.93 45.5081H389.16M283.18 37.1905H322.8M283.18 37.1905H243.56M283.18 37.1905L291.52 33.2703M322.8 37.1905L329.45 33.7524L330.39 33.2703M322.8 37.1905H362.42M355.32 41.2665L362.42 37.1905M355.32 41.2665H395.73M340.24 49.9255H382.33M389.16 45.5081H430.39M389.16 45.5081L395.73 41.2665M389.16 45.5081L382.33 49.9255M243.56 37.1905L252.66 33.2703M291.52 33.2703L299.56 29.4979M291.52 33.2703H330.39M291.52 33.2703H252.66M330.39 33.2703L334.98 30.8961L337.69 29.4979M330.39 33.2703H369.25M362.42 37.1905H402.04M362.42 37.1905L369.25 33.2703M395.73 41.2665H436.14M395.73 41.2665L402.04 37.1905M299.56 29.4979H337.69M299.56 29.4979L307.29 25.8645M337.69 29.4979L344.72 25.8645M337.69 29.4979H375.82M307.29 25.8645H344.72M307.29 25.8645L314.74 22.3626M344.72 25.8645L351.49 22.3626M344.72 25.8645H382.15M375.82 29.4979L382.15 25.8645M375.82 29.4979L374.2 30.4275L369.25 33.2703M375.82 29.4979H413.95M314.74 22.3626H351.49M314.74 22.3626H277.99M314.74 22.3626L321.93 18.9851M351.49 22.3626L358.03 18.9852M351.49 22.3626H388.25M382.15 25.8645L388.25 22.3626M382.15 25.8645H419.57M369.25 33.2703H408.11M413.95 29.4979H452.081M413.95 29.4979L419.57 25.8645M413.95 29.4979L408.11 33.2703M277.99 22.3626L285.84 18.9851M321.93 18.9851L328.87 15.7257M321.93 18.9851L358.03 18.9852M321.93 18.9851H285.84M358.03 18.9852L364.34 15.7257M358.03 18.9852H394.13M388.25 22.3626H425M388.25 22.3626L394.13 18.9852M419.57 25.8645H457.003M419.57 25.8645L425 22.3626M328.87 15.7257H364.34M328.87 15.7257L335.57 12.5782M364.34 15.7257L368.93 13.3552L369.68 12.9656L370.43 12.5782M364.34 15.7257H399.8M335.57 12.5782H370.43M370.43 12.5782H405.29M399.8 15.7257L405.29 12.5782M399.8 15.7257L394.13 18.9852M399.8 15.7257H435.27M405.29 12.5782H440.143M405.29 12.5782L410.58 9.53727M394.13 18.9852H430.22M435.27 15.7257H470.737M435.27 15.7257L440.143 12.5782M435.27 15.7257L430.22 18.9852M440.143 12.5782H475M440.143 12.5782L443.689 10.2878L444.851 9.53727M410.58 9.53727H444.851M49.77 326.497H145.37M49.77 326.497L79.87 304.274M49.77 326.497L16.6899 350.918M49.77 326.497L-0.609985 326.498M145.37 326.497L171.18 304.274M145.37 326.497L117.02 350.918M145.37 326.497H240.98M79.87 304.274H171.18M79.87 304.274L107.38 283.964M79.87 304.274H-0.609985M16.6899 350.918H117.02M16.6899 350.918L-0.609985 363.69M16.6899 350.918H-0.609985M-0.609985 326.498V350.918M-0.609985 326.498V304.274M171.18 304.274L194.76 283.964M171.18 304.274H262.48M117.02 350.918L85.72 377.879M117.02 350.918H217.35M240.98 326.497L262.48 304.274M240.98 326.497L217.35 350.918M240.98 326.497H336.58M107.38 283.964H194.76M107.38 283.964H20.01M107.38 283.964L132.63 265.33M-0.609985 304.274V297.285M-0.609985 363.69V377.878M-0.609985 363.69V350.918M194.76 283.964L216.39 265.33M194.76 283.964H282.13M262.48 304.274L282.13 283.964M262.48 304.274H353.78M85.72 377.879H191.26M85.72 377.879L-0.609985 377.878M217.35 350.918H317.68M217.35 350.918L191.26 377.879M336.58 326.497H432.19M336.58 326.497L353.78 304.274M336.58 326.497L317.68 350.918M20.01 283.964L48.86 265.33M20.01 283.964H-0.609985M20.01 283.964L-0.609985 297.285M132.63 265.33L155.87 248.173M132.63 265.33H216.39M132.63 265.33H48.86M-0.609985 297.285V283.964M216.39 265.33L236.31 248.173M216.39 265.33H300.16M282.13 283.964H369.51M282.13 283.964L300.16 265.33M353.78 304.274H445.088M353.78 304.274L369.51 283.964M155.87 248.173H236.31M155.87 248.173L177.33 232.324M155.87 248.173H75.42M236.31 248.173L254.72 232.324M236.31 248.173H316.76M177.33 232.324H254.72M177.33 232.324H99.95M177.33 232.324L197.23 217.64M75.42 248.173L99.95 232.324M75.42 248.173L48.86 265.33M75.42 248.173H-0.609985M254.72 232.324L271.77 217.64M254.72 232.324H332.1M316.76 248.173L332.1 232.324M316.76 248.173L300.16 265.33M316.76 248.173H397.21M99.95 232.324H22.5699M99.95 232.324L122.69 217.64M197.23 217.64H271.77M197.23 217.64H122.69M197.23 217.64L215.71 203.995M48.86 265.33H-0.609985M-0.609985 248.173V245.637M-0.609985 248.173V265.33M271.77 217.64L287.61 203.995M271.77 217.64H346.3M332.1 232.324L346.3 217.64M332.1 232.324H409.48M300.16 265.33H383.93M397.21 248.173H477.657M397.21 248.173L409.48 232.324M397.21 248.173L383.93 265.33M22.5699 232.324L48.15 217.64M22.5699 232.324H-0.609985M22.5699 232.324L-0.609985 245.637M122.69 217.64L143.81 203.995M122.69 217.64H48.15M215.71 203.995L232.93 191.285M215.71 203.995H287.61M215.71 203.995H143.81M287.61 203.995L302.37 191.285M287.61 203.995H359.51M346.3 217.64H420.84M346.3 217.64L359.51 203.995M409.48 232.324H486.858M409.48 232.324L420.84 217.64M232.93 191.285H302.37M232.93 191.285L249.01 179.415M302.37 191.285L316.15 179.415M302.37 191.285H371.8M249.01 179.415H316.15M249.01 179.415L264.05 168.305M316.15 179.415L329.05 168.305M316.15 179.415H383.29M371.8 191.285L383.29 179.415M371.8 191.285L359.51 203.995M371.8 191.285H441.244M264.05 168.305H329.05M264.05 168.305H199.06M264.05 168.305L278.17 157.885M329.05 168.305L341.14 157.885M329.05 168.305H394.04M383.29 179.415L394.04 168.305M383.29 179.415H450.432M359.51 203.995H431.4M441.244 191.285H510.683M441.244 191.285L450.432 179.415M441.244 191.285L431.4 203.995M199.06 168.305L215.19 157.885M278.17 157.885L291.43 148.091M278.17 157.885H341.14M278.17 157.885H215.19M341.14 157.885L352.52 148.091M341.14 157.885H404.12M394.04 168.305H459.031M394.04 168.305L404.12 157.885M450.432 179.415H517.574M450.432 179.415L459.031 168.305M291.43 148.091H352.52M291.43 148.091L303.93 138.871M352.52 148.091L363.22 138.871M352.52 148.091H413.6M303.93 138.871H363.22M303.93 138.871L315.71 130.173M363.22 138.871L373.32 130.173M363.22 138.871H422.52M413.6 148.091L422.52 138.871M413.6 148.091L404.12 157.885M413.6 148.091H474.677M315.71 130.173H373.32M315.71 130.173H258.09M315.71 130.173L326.84 121.956M373.32 130.173L382.86 121.956M373.32 130.173H430.93M422.52 138.871L430.93 130.173M422.52 138.871H481.815M404.12 157.885H467.097M474.677 148.091H535.758M474.677 148.091L481.815 138.871M474.677 148.091L467.097 157.885M258.09 130.173L270.82 121.956M326.84 121.956L337.37 114.179M326.84 121.956H382.86M326.84 121.956H270.82M382.86 121.956L391.89 114.179M382.86 121.956H438.88M430.93 130.173H488.547M430.93 130.173L438.88 121.956M481.815 138.871H541.111M481.815 138.871L488.547 130.173M337.37 114.179H391.89M337.37 114.179L347.35 106.81M391.89 114.179L400.45 106.81M391.89 114.179H446.409M347.35 106.81H400.45M347.35 106.81L356.83 99.8168M400.45 106.81L408.57 99.8168M400.45 106.81H453.539M446.409 114.179L453.539 106.81M446.409 114.179L438.88 121.956M446.409 114.179H500.927M356.83 99.8168H408.57M356.83 99.8168H305.09M356.83 99.8168L365.83 93.1712M408.57 99.8168L416.28 93.1712M408.57 99.8168H460.305M453.539 106.81L460.305 99.8168M453.539 106.81H506.631M438.88 121.956H494.907M500.927 114.179H555.445M500.927 114.179L506.631 106.81M500.927 114.179L494.907 121.956M305.09 99.8168L315.38 93.1712M365.83 93.1712L374.4 86.8475M365.83 93.1712H416.28M365.83 93.1712H315.38M416.28 93.1712L423.62 86.8475M416.28 93.1712H466.735M460.305 99.8168H512.044M460.305 99.8168L466.735 93.1712M506.631 106.81H559.723M506.631 106.81L512.044 99.8168M374.4 86.8475H423.62M374.4 86.8475L382.56 80.8236M423.62 86.8475L430.62 80.8236M423.62 86.8475H472.854M382.56 80.8236H430.62M382.56 80.8236L390.34 75.0784M430.62 80.8236L437.29 75.0784M430.62 80.8236H478.682M472.854 86.8475L478.682 80.8236M472.854 86.8475L466.735 93.1712M472.854 86.8475H522.083M390.34 75.0784H437.29M390.34 75.0784H343.39M390.34 75.0784L397.77 69.5928M437.29 75.0784L443.659 69.5928M437.29 75.0784H484.241M478.682 80.8236L482.188 77.2016L484.241 75.0784M478.682 80.8236H526.746M466.735 93.1712H517.188M522.083 86.8475H571.312M522.083 86.8475L526.746 80.8236M522.083 86.8475L517.188 93.1712M343.39 75.0784L351.88 69.5928M397.77 69.5928L404.87 64.3497M397.77 69.5928H443.659M397.77 69.5928H351.88M443.659 69.5928L449.747 64.3497M443.659 69.5928L489.549 69.5929M484.241 75.0784H531.193M484.241 75.0784L489.549 69.5929M526.746 80.8236H574.809M526.746 80.8236L531.193 75.0784M404.87 64.3497H449.747M404.87 64.3497L411.67 59.3339M449.747 64.3497L455.57 59.3339M449.747 64.3497H494.622M411.67 59.3339H455.57M411.67 59.3339L418.17 54.5301M455.57 59.3339L461.148 54.5301M455.57 59.3339H499.476M494.622 64.3497L499.476 59.3339M494.622 64.3497L493.375 65.6386L489.549 69.5929M494.622 64.3497H539.497M418.17 54.5301H461.148M418.17 54.5301H375.2M418.17 54.5301L424.41 49.9255M461.148 54.5301L463.849 52.2035L466.494 49.9255M461.148 54.5301H504.123M499.476 59.3339L504.123 54.5301M499.476 59.3339H543.38M489.549 69.5929H535.439M539.497 64.3497H584.373M539.497 64.3497L543.38 59.3339M539.497 64.3497L539 64.9926L537.491 66.9421L535.439 69.5929M375.2 54.5301L382.33 49.9255M424.41 49.9255L430.39 45.5081M424.41 49.9255H466.494M424.41 49.9255H382.33M466.494 49.9255L470.993 46.0502L471.624 45.5081M466.494 49.9255H508.579M504.123 54.5301H547.099M504.123 54.5301L508.579 49.9255M543.38 59.3339H587.285M543.38 59.3339L547.099 54.5301M430.39 45.5081H471.624M430.39 45.5081L436.14 41.2665M471.624 45.5081L476.548 41.2665M471.624 45.5081H512.853M436.14 41.2665H476.548M436.14 41.2665L441.661 37.1905M476.548 41.2665L481.281 37.1905M476.548 41.2665H516.957M512.853 45.5081L516.957 41.2665M512.853 45.5081L508.579 49.9255M512.853 45.5081H554.082M441.661 37.1905H481.281M441.661 37.1905H402.04M441.661 37.1905L446.971 33.2703M508.579 49.9255H550.662M481.281 37.1905L485.832 33.2704M481.281 37.1905H520.9M516.957 41.2665L520.9 37.1905M516.957 41.2665H557.365M554.082 45.5081H595.311M554.082 45.5081L556.557 42.3108L557.365 41.2665M554.082 45.5081L552.816 47.1432L551.53 48.8038L550.662 49.9255M402.04 37.1905L407.36 33.7524L408.11 33.2703M446.971 33.2703L452.081 29.4979M446.971 33.2703L485.832 33.2704M446.971 33.2703H408.11M485.832 33.2704L487.494 31.8392L488.589 30.8961L490.212 29.4979M485.832 33.2704H524.693M520.9 37.1905H560.52M520.9 37.1905L524.693 33.2704M557.365 41.2665H597.774M557.365 41.2665L560.52 37.1905M452.081 29.4979H490.212M452.081 29.4979L457.003 25.8645M490.212 29.4979L494.431 25.8645M490.212 29.4979H528.343M457.003 25.8645H494.431M457.003 25.8645L461.746 22.3626M494.431 25.8645L495.973 24.5362L496.99 23.6607L498.497 22.3626M494.431 25.8645H531.859M528.343 29.4979L529.235 28.5764L531.859 25.8645M528.343 29.4979L527.895 29.9616L527.444 30.4275L526.079 31.8392L525.618 32.3137L524.693 33.2704M528.343 29.4979H566.474M461.746 22.3626H498.497M461.746 22.3626H425M461.746 22.3626L465.193 19.8179L466.322 18.9852M498.497 22.3626L500.475 20.6587L502.418 18.9852M498.497 22.3626H535.248M531.859 25.8645L532.29 25.4197L532.718 24.9766L534.412 23.2257L535.248 22.3626M531.859 25.8645H569.288M524.693 33.2704H563.555M566.474 29.4979H604.606M566.474 29.4979L568.941 26.3109L569.288 25.8645M566.474 29.4979L566.116 29.9616L565.755 30.4275L565.393 30.8961L563.555 33.2704M425 22.3626L430.22 18.9852M466.322 18.9852L466.882 18.5712L470.737 15.7257M466.322 18.9852H502.418M466.322 18.9852H430.22M502.418 18.9852L504.327 17.3408L506.202 15.7257M502.418 18.9852H538.515M535.248 22.3626H571.998M535.248 22.3626L538.515 18.9852M569.288 25.8645H606.716M569.288 25.8645L571.998 22.3626M470.737 15.7257H506.202M470.737 15.7257L473.948 13.3552L475 12.5782M506.202 15.7257L508.956 13.3552L509.407 12.9656L509.857 12.5782M506.202 15.7257H541.669M475 12.5782H509.857M509.857 12.5782H544.714M541.669 15.7257L544.714 12.5782M541.669 15.7257L538.515 18.9852M541.669 15.7257H577.135M544.714 12.5782H579.571M544.714 12.5782L546.93 10.2878L547.657 9.53728M538.515 18.9852H574.612M577.135 15.7257H612.602M577.135 15.7257L579.571 12.5782M577.135 15.7257L574.612 18.9852M579.571 12.5782H614.428M579.571 12.5782L580.759 11.0448L581.636 9.91172L581.925 9.53728M547.657 9.53728H581.925M432.19 326.497H527.791M432.19 326.497L445.088 304.274M432.19 326.497L418.01 350.918M527.791 326.497L536.392 304.274M527.791 326.497L518.34 350.918M527.791 326.497H623.396M445.088 304.274H536.392M445.088 304.274L456.879 283.964M418.01 350.918H518.34M418.01 350.918L402.36 377.879M418.01 350.918H317.68M536.392 304.274L544.253 283.964M536.392 304.274H627.696M518.34 350.918L507.905 377.879M518.34 350.918H618.67M623.396 326.497L627.696 304.274M623.396 326.497L618.67 350.918M623.396 326.497H719M456.879 283.964H544.253M456.879 283.964H369.51M456.879 283.964L467.696 265.33M317.68 350.918L296.81 377.879M402.36 377.879H507.905M402.36 377.879H296.81M544.253 283.964L551.465 265.33M544.253 283.964H631.626M627.696 304.274L631.626 283.964M627.696 304.274H719M507.905 377.879H613.452M618.67 350.918H719M618.67 350.918L613.452 377.879M719 326.497H814.604M719 326.497V304.274M719 326.497V350.918M369.51 283.964L383.93 265.33M467.696 265.33L477.657 248.173M467.696 265.33H551.465M467.696 265.33H383.93M551.465 265.33L558.104 248.173M551.465 265.33H635.232M631.626 283.964H719M631.626 283.964L635.232 265.33M719 304.274H810.304M719 304.274V283.964M477.657 248.173H558.104M477.657 248.173L486.858 232.324M558.104 248.173L564.238 232.324M558.104 248.173H638.553M486.858 232.324H564.238M486.858 232.324L495.383 217.64M564.238 232.324L569.922 217.64M564.238 232.324H641.619M638.553 248.173L641.619 232.324M638.553 248.173L635.232 265.33M638.553 248.173H719M495.383 217.64H569.922M495.383 217.64H420.84M495.383 217.64L503.304 203.995M569.922 217.64L575.203 203.995M569.922 217.64H644.461M641.619 232.324L644.461 217.64M641.619 232.324H719M635.232 265.33H719M719 248.173H799.447M719 248.173V232.324M719 248.173V265.33M420.84 217.64L431.4 203.995M503.304 203.995L510.683 191.285M503.304 203.995H575.203M503.304 203.995H431.4M575.203 203.995L580.122 191.285M575.203 203.995H647.101M644.461 217.64H719M644.461 217.64L647.101 203.995M719 232.324H796.381M719 232.324V217.64M510.683 191.285H580.122M510.683 191.285L517.574 179.415M580.122 191.285L584.716 179.415M580.122 191.285H649.561M517.574 179.415H584.716M517.574 179.415L524.023 168.305M584.716 179.415L589.016 168.305M584.716 179.415H651.858M649.561 191.285L651.858 179.415M649.561 191.285L647.101 203.995M649.561 191.285H719M524.023 168.305H589.016M524.023 168.305H459.031M524.023 168.305L530.073 157.885M589.016 168.305L593.048 157.885M589.016 168.305H654.008M651.858 179.415L654.008 168.305M651.858 179.415H719M647.101 203.995H719M719 191.285H788.439M719 191.285V179.415M719 191.285V203.995M459.031 168.305L467.097 157.885M530.073 157.885L535.758 148.091M530.073 157.885H593.048M530.073 157.885H467.097M593.048 157.885L596.838 148.091M593.048 157.885H656.024M654.008 168.305H719M654.008 168.305L656.024 157.885M719 179.415H786.142M719 179.415V168.305M535.758 148.091H596.838M535.758 148.091L541.111 138.871M596.838 148.091L600.407 138.871M596.838 148.091H657.919M541.111 138.871H600.407M541.111 138.871L546.16 130.173M600.407 138.871L603.774 130.173M600.407 138.871H659.704M657.919 148.091L659.704 138.871M657.919 148.091L656.024 157.885M657.919 148.091H719M546.16 130.173H603.774M546.16 130.173H488.547M546.16 130.173L550.931 121.956M603.774 130.173L606.954 121.956M603.774 130.173H661.387M659.704 138.871L661.387 130.173M659.704 138.871H719M656.024 157.885H719M719 148.091H780.081M719 148.091V138.871M719 148.091V157.885M488.547 130.173L494.907 121.956M550.931 121.956L555.445 114.179M550.931 121.956H606.954M550.931 121.956H494.907M606.954 121.956L609.964 114.179M606.954 121.956H662.977M661.387 130.173H719M661.387 130.173L662.977 121.956M719 138.871H778.296M719 138.871V130.173M555.445 114.179H609.964M555.445 114.179L559.723 106.81M609.964 114.179L612.815 106.81M609.964 114.179H664.482M559.723 106.81H612.815M559.723 106.81L563.783 99.8168M612.815 106.81L615.522 99.8168M612.815 106.81H665.908M664.482 114.179L665.908 106.81M664.482 114.179L662.977 121.956M664.482 114.179H719M563.783 99.8168H615.522M563.783 99.8168H512.044M563.783 99.8168L567.642 93.1712M615.522 99.8168L618.094 93.1712M615.522 99.8168H667.261M665.908 106.81L667.261 99.8168M665.908 106.81H719M662.977 121.956H719M719 114.179H773.518M719 114.179V106.81M719 114.179V121.956M512.044 99.8168L517.188 93.1712M567.642 93.1712L571.312 86.8475M567.642 93.1712H618.094M567.642 93.1712H517.188M618.094 93.1712L620.541 86.8475M618.094 93.1712H668.547M667.261 99.8168H719M667.261 99.8168L668.547 93.1712M719 106.81H772.092M719 106.81V99.8168M571.312 86.8475H620.541M571.312 86.8475L574.809 80.8236M620.541 86.8475L622.873 80.8236M620.541 86.8475H669.771M574.809 80.8236H622.873M574.809 80.8236L576.079 78.6376L578.145 75.0784M622.873 80.8236L625.097 75.0784M622.873 80.8236H670.937M669.771 86.8475L670.937 80.8236M669.771 86.8475L668.547 93.1712M669.771 86.8475H719M578.145 75.0784H625.097M578.145 75.0784H531.193M578.145 75.0784L581.329 69.5929M625.097 75.0784L627.219 69.5929M625.097 75.0784H672.048M670.937 80.8236L672.048 75.0784M670.937 80.8236H719M668.547 93.1712H719M719 86.8475H768.229M719 86.8475V80.8236M719 86.8475V93.1712M531.193 75.0784L535.439 69.5929M581.329 69.5929L582.104 68.2602L584.373 64.3497M581.329 69.5929H627.219M581.329 69.5929H535.439M627.219 69.5929L629.249 64.3497M627.219 69.5929H673.11M672.048 75.0784H719M672.048 75.0784L673.11 69.5929M719 80.8236H767.063M719 80.8236V75.0784M584.373 64.3497H629.249M584.373 64.3497L587.285 59.3339M629.249 64.3497L629.987 62.443L631.19 59.3339M629.249 64.3497L674.125 64.3498M587.285 59.3339L587.64 58.7219L590.074 54.5301M587.285 59.3339H631.19M631.19 59.3339L631.897 57.5083L632.129 56.906L632.362 56.3076L633.049 54.5301M631.19 59.3339H675.095M674.125 64.3498L675.095 59.3339M674.125 64.3498L673.11 69.5929M674.125 64.3498H719M590.074 54.5301H633.049M590.074 54.5301H547.099M590.074 54.5301L592.747 49.9255M633.049 54.5301L633.727 52.7808L633.949 52.2035L634.832 49.9255M633.049 54.5301L676.025 54.5302M675.095 59.3339L675.213 58.7219L676.025 54.5302M675.095 59.3339H719M673.11 69.5929H719M719 64.3498H763.875M719 64.3498V59.3339M719 64.3498V69.5929M547.099 54.5301L550.662 49.9255M592.747 49.9255L595.311 45.5081M592.747 49.9255H634.832M592.747 49.9255H550.662M634.832 49.9255L636.541 45.5081M634.832 49.9255H676.915M676.025 54.5302H719M676.025 54.5302L676.251 53.3609L676.697 51.0585L676.915 49.9255M719 59.3339H762.905M719 59.3339V54.5302M595.311 45.5081H636.541M595.311 45.5081L596.555 43.3659L596.862 42.8373L597.167 42.3108L597.472 41.7876L597.774 41.2665M636.541 45.5081L637.778 42.3108L637.981 41.7876L638.182 41.2665M636.541 45.5081H677.771M597.774 41.2665H638.182M597.774 41.2665L599.264 38.7002L599.557 38.1942L600.14 37.1905M638.182 41.2665L639.176 38.7002L639.372 38.1942L639.566 37.691L639.76 37.1905M638.182 41.2665H678.592M677.771 45.5081L678.592 41.2665M677.771 45.5081L677.454 47.1433L677.133 48.8038L676.915 49.9255M677.771 45.5081H719M600.14 37.1905H639.76M600.14 37.1905H560.52M600.14 37.1905L602.416 33.2704M639.76 37.1905L641.277 33.2704M639.76 37.1905H679.38M678.592 41.2665L679.38 37.1905M678.592 41.2665H719M676.915 49.9255H719M719 45.5081H760.229M719 45.5081V41.2665M719 45.5081V49.9255M560.52 37.1905L563.555 33.2704M602.416 33.2704L603.247 31.8392L604.066 30.4275L604.606 29.4979M602.416 33.2704H641.277M602.416 33.2704H563.555M641.277 33.2704L641.463 32.791L642.558 29.9616L642.738 29.4979M641.277 33.2704H680.139M679.38 37.1905H719M679.38 37.1905L680.139 33.2704M719 41.2665H759.409M719 41.2665V37.1905M604.606 29.4979H642.738M604.606 29.4979L606.716 25.8645M642.738 29.4979L644.144 25.8645M642.738 29.4979H680.869M606.716 25.8645H644.144M606.716 25.8645L608.749 22.3626M644.144 25.8645L644.658 24.5362L644.827 24.0973L644.997 23.6607L645.499 22.3626M644.144 25.8645H681.572M680.869 29.4979L681.399 26.76L681.485 26.3109L681.572 25.8645M680.869 29.4979L680.139 33.2704M680.869 29.4979H719M608.749 22.3626H645.499M608.749 22.3626H571.998M608.749 22.3626L609.245 21.5066L609.492 21.0819L609.737 20.6588L609.983 20.2372L610.225 19.8179L610.468 19.4007L610.709 18.9852M680.139 33.2704H719M645.499 22.3626L645.665 21.9336L645.83 21.5066L646.159 20.6588L646.321 20.2372L646.484 19.8179L646.645 19.4007L646.806 18.9852M645.499 22.3626H682.25M681.572 25.8645L682.25 22.3626M681.572 25.8645H719M719 29.4979H757.131M719 29.4979V25.8645M719 29.4979V33.2704M571.998 22.3626L572.66 21.5066L574.612 18.9852M610.709 18.9852L611.426 17.7493L611.664 17.3408L611.899 16.9345L612.602 15.7257M610.709 18.9852H646.806M610.709 18.9852H574.612M646.806 18.9852L646.966 18.5713L647.285 17.7493L647.442 17.3408L648.067 15.7257M646.806 18.9852H682.903M682.25 22.3626H719M682.25 22.3626L682.66 20.2372L682.742 19.8179L682.822 19.4007L682.903 18.9852M719 25.8645L756.428 25.8646M719 25.8645V22.3626M612.602 15.7257H648.067M612.602 15.7257L613.978 13.3552L614.428 12.5782M648.067 15.7257L648.222 15.3264L648.529 14.5326L648.834 13.7459L649.285 12.5782M648.067 15.7257H683.534M614.428 12.5782H649.285M649.285 12.5782H684.143M683.534 15.7257L684.143 12.5782M683.534 15.7257L682.903 18.9852M683.534 15.7257H719M684.143 12.5782L684.217 12.1924L684.292 11.8082L684.366 11.4257L684.732 9.53729M684.143 12.5782H719M682.903 18.9852H719M719 15.7257H754.467M719 15.7257V12.5782M719 15.7257V18.9852M684.732 9.53729L719 9.5373M719 12.5782H753.857M719 12.5782V9.5373M814.604 326.497H910.209M814.604 326.497L810.304 304.274M814.604 326.497L819.33 350.918M910.209 326.497L901.608 304.274M910.209 326.497L919.66 350.918M910.209 326.497H1005.81M810.304 304.274H901.608M810.304 304.274L806.374 283.964M819.33 350.918H919.66M819.33 350.918L824.548 377.879M819.33 350.918H719M901.608 304.274L893.747 283.964M901.608 304.274H992.912M919.66 350.918L930.095 377.879M919.66 350.918H1019.99M1005.81 326.497L992.912 304.274M1005.81 326.497L1019.99 350.918M1005.81 326.497H1101.42M806.374 283.964H893.747M806.374 283.964H719M806.374 283.964L802.768 265.33M719 350.918V377.879M824.548 377.879H930.095M824.548 377.879H719M893.747 283.964L886.536 265.33M893.747 283.964H981.121M992.912 304.274L981.121 283.964M992.912 304.274H1084.22M930.095 377.879H1035.64M1019.99 350.918H1120.32M1019.99 350.918L1035.64 377.879M1101.42 326.497H1197.02M1101.42 326.497L1084.22 304.274M1101.42 326.497L1120.32 350.918M719 283.964V265.33M802.768 265.33L799.447 248.173M802.768 265.33H886.536M802.768 265.33H719M886.536 265.33L879.896 248.173M886.536 265.33H970.304M981.121 283.964H1068.49M981.121 283.964L970.304 265.33M1084.22 304.274H1175.52M1084.22 304.274L1068.49 283.964M799.447 248.173H879.896M799.447 248.173L796.381 232.324M879.896 248.173L873.762 232.324M879.896 248.173H960.343M796.381 232.324H873.762M796.381 232.324L793.539 217.64M873.762 232.324L868.078 217.64M873.762 232.324H951.142M960.343 248.173L951.142 232.324M960.343 248.173L970.304 265.33M960.343 248.173H1040.79M793.539 217.64H868.078M793.539 217.64H719M793.539 217.64L790.899 203.995M868.078 217.64L862.797 203.995M868.078 217.64H942.617M951.142 232.324L942.617 217.64M951.142 232.324H1028.52M970.304 265.33H1054.07M1040.79 248.173H1121.24M1040.79 248.173L1028.52 232.324M1040.79 248.173L1054.07 265.33M719 217.64V203.995M790.899 203.995L788.439 191.285M790.899 203.995H862.797M790.899 203.995H719M862.797 203.995L857.878 191.285M862.797 203.995H934.696M942.617 217.64H1017.16M942.617 217.64L934.696 203.995M1028.52 232.324H1105.9M1028.52 232.324L1017.16 217.64M788.439 191.285H857.878M788.439 191.285L786.142 179.415M857.878 191.285L853.284 179.415M857.878 191.285H927.317M786.142 179.415H853.284M786.142 179.415L783.992 168.305M853.284 179.415L848.985 168.305M853.284 179.415H920.426M927.317 191.285L920.426 179.415M927.317 191.285L934.696 203.995M927.317 191.285H996.756M783.992 168.305H848.985M783.992 168.305H719M783.992 168.305L781.976 157.885M848.985 168.305L844.952 157.885M848.985 168.305H913.977M920.426 179.415L913.977 168.305M920.426 179.415H987.568M934.696 203.995H1006.59M996.756 191.285H1066.2M996.756 191.285L987.568 179.415M996.756 191.285L1006.59 203.995M719 168.305V157.885M781.976 157.885L780.081 148.091M781.976 157.885H844.952M781.976 157.885H719M844.952 157.885L841.162 148.091M844.952 157.885H907.927M913.977 168.305H978.969M913.977 168.305L907.927 157.885M987.568 179.415H1054.71M987.568 179.415L978.969 168.305M780.081 148.091H841.162M780.081 148.091L778.296 138.871M841.162 148.091L837.593 138.871M841.162 148.091H902.242M778.296 138.871H837.593M778.296 138.871L776.613 130.173M837.593 138.871L834.226 130.173M837.593 138.871H896.889M902.242 148.091L896.889 138.871M902.242 148.091L907.927 157.885M902.242 148.091H963.323M776.613 130.173H834.226M776.613 130.173H719M776.613 130.173L775.023 121.956M834.226 130.173L831.046 121.956M834.226 130.173H891.84M896.889 138.871L891.84 130.173M896.889 138.871H956.185M907.927 157.885H970.903M963.323 148.091H1024.4M963.323 148.091L956.185 138.871M963.323 148.091L970.903 157.885M719 130.173V121.956M775.023 121.956L773.518 114.179M775.023 121.956H831.046M775.023 121.956H719M831.046 121.956L828.036 114.179M831.046 121.956H887.069M891.84 130.173H949.453M891.84 130.173L887.069 121.956M956.185 138.871H1015.48M956.185 138.871L949.453 130.173M773.518 114.179H828.036M773.518 114.179L772.092 106.81M828.036 114.179L825.185 106.81M828.036 114.179H882.555M772.092 106.81H825.185M772.092 106.81L770.739 99.8168M825.185 106.81L822.478 99.8168M825.185 106.81H878.277M882.555 114.179L878.277 106.81M882.555 114.179L887.069 121.956M882.555 114.179H937.073M770.739 99.8168H822.478M770.739 99.8168H719M770.739 99.8168L769.61 93.9839L769.453 93.1712M822.478 99.8168L819.906 93.1712M822.478 99.8168H874.217M878.277 106.81L874.217 99.8168M878.277 106.81H931.369M887.069 121.956H943.093M937.073 114.179H991.591M937.073 114.179L935.618 112.301L931.369 106.81M937.073 114.179L943.093 121.956M719 99.8168V93.1712M769.453 93.1712L768.229 86.8475M769.453 93.1712H819.906M769.453 93.1712H719M819.906 93.1712L817.459 86.8475M819.906 93.1712H870.359M874.217 99.8168H925.956M874.217 99.8168L870.359 93.1712M931.369 106.81H984.461M931.369 106.81L925.956 99.8168M768.229 86.8475H817.459M768.229 86.8475L767.063 80.8236M817.459 86.8475L815.127 80.8236M817.459 86.8475H866.688M767.063 80.8236H815.127M767.063 80.8236L765.952 75.0784M815.127 80.8236L812.903 75.0784M815.127 80.8236H863.191M866.688 86.8475L863.191 80.8236M866.688 86.8475L870.359 93.1712M866.688 86.8475H915.917M765.952 75.0784H812.903M765.952 75.0784H719M765.952 75.0784L764.89 69.5929M812.903 75.0784L810.781 69.5929M812.903 75.0784H859.855M863.191 80.8236L862.342 79.3622L859.855 75.0784M863.191 80.8236H911.254M870.359 93.1712H920.812M915.917 86.8475H965.146M915.917 86.8475L911.254 80.8236M915.917 86.8475L920.812 93.1712M719 75.0784V69.5929M764.89 69.5929L763.875 64.3498M764.89 69.5929H810.781M764.89 69.5929H719M810.781 69.5929L808.751 64.3498M810.781 69.5929H856.671M859.855 75.0784H906.807M859.855 75.0784L856.671 69.5929M911.254 80.8236H959.318M911.254 80.8236L906.807 75.0784M763.875 64.3498H808.751M763.875 64.3498L762.905 59.3339M808.751 64.3498L807.048 59.9491L806.81 59.3339M808.751 64.3498H853.627M762.905 59.3339L762.787 58.7219L761.975 54.5302M762.905 59.3339H806.81M806.81 59.3339L806.103 57.5083L805.871 56.9061L805.638 56.3076L804.951 54.5302M806.81 59.3339H850.715M853.627 64.3498L850.715 59.3339M853.627 64.3498L855.897 68.2602L856.671 69.5929M853.627 64.3498H898.503M761.975 54.5302H804.951M761.975 54.5302H719M761.975 54.5302L761.749 53.3609L761.304 51.0585L761.085 49.9255M804.951 54.5302L804.273 52.7808L804.051 52.2035L803.168 49.9255M804.951 54.5302H847.926M850.715 59.3339L847.926 54.5302M850.715 59.3339H894.62M856.671 69.5929H902.561M898.503 64.3498H943.378M898.503 64.3498L894.62 59.3339M898.503 64.3498L900.509 66.9421L902.561 69.5929M719 54.5302V49.9255M761.085 49.9255L760.975 49.3633L760.759 48.2476L760.653 47.6941L760.546 47.1433L760.229 45.5081M761.085 49.9255H803.168M761.085 49.9255H719M803.168 49.9255L801.459 45.5081M803.168 49.9255H845.253M847.926 54.5302H890.901M847.926 54.5302L845.253 49.9255M894.62 59.3339H938.525M894.62 59.3339L890.901 54.5302M760.229 45.5081H801.459M760.229 45.5081L759.409 41.2665M801.459 45.5081L800.222 42.3108L799.817 41.2665M801.459 45.5081H842.689M759.409 41.2665H799.817M759.409 41.2665L758.62 37.1905M799.817 41.2665L798.825 38.7002L798.628 38.1943L798.434 37.6911L798.24 37.1905M799.817 41.2665H840.226M842.689 45.5081L841.138 42.8373L840.833 42.3108L840.528 41.7876L840.226 41.2665M842.689 45.5081L844.927 49.3633L845.253 49.9255M842.689 45.5081H883.918M758.62 37.1905H798.24M758.62 37.1905H719M758.62 37.1905L757.861 33.2704M798.24 37.1905L796.723 33.2704M798.24 37.1905H837.86M840.226 41.2665L839.031 39.2082L838.736 38.7002L838.443 38.1943L837.86 37.1905M840.226 41.2665H880.635M845.253 49.9255H887.338M883.918 45.5081H925.147M883.918 45.5081L881.444 42.3108L880.635 41.2665M883.918 45.5081L885.184 47.1433L887.338 49.9255M719 37.1905V33.2704M757.861 33.2704L757.131 29.4979M757.861 33.2704H796.723M757.861 33.2704H719M796.723 33.2704L796.537 32.791L795.442 29.9616L795.262 29.4979M796.723 33.2704H835.584M837.86 37.1905H877.48M837.86 37.1905L835.584 33.2704M880.635 41.2665L921.043 41.2666M880.635 41.2665L877.48 37.1905M757.131 29.4979H795.262M757.131 29.4979L756.428 25.8646M795.262 29.4979L793.856 25.8646M795.262 29.4979H833.394M756.428 25.8646H793.856M756.428 25.8646L755.751 22.3626M793.856 25.8646L793.342 24.5362L793.173 24.0974L793.003 23.6607L792.501 22.3626M793.856 25.8646H831.284M833.394 29.4979L831.284 25.8646M833.394 29.4979L833.934 30.4275L834.753 31.8392L835.584 33.2704M833.394 29.4979H871.526M755.751 22.3626H792.501M755.751 22.3626H719M755.751 22.3626L755.097 18.9852M835.584 33.2704H874.445M792.501 22.3626L792.335 21.9336L791.841 20.6588L791.679 20.2373L791.516 19.8179L791.355 19.4007L791.194 18.9852M792.501 22.3626H829.251M831.284 25.8646L829.251 22.3626M831.284 25.8646H868.712M871.526 29.4979L909.657 29.498M871.526 29.4979L869.059 26.3109L868.712 25.8646M871.526 29.4979L871.884 29.9617L872.245 30.4275L872.607 30.8961L874.445 33.2704M719 22.3626V18.9852M755.097 18.9852L754.467 15.7257M755.097 18.9852H791.194M755.097 18.9852H719M791.194 18.9852L791.034 18.5713L790.715 17.7494L790.558 17.3408L789.933 15.7257M791.194 18.9852H827.291M829.251 22.3626L866.002 22.3627M829.251 22.3626L828.263 20.6588L828.018 20.2373L827.775 19.8179L827.532 19.4007L827.291 18.9852M868.712 25.8646H906.141M868.712 25.8646L866.002 22.3627M754.467 15.7257H789.933M754.467 15.7257L753.857 12.5782M789.933 15.7257L789.778 15.3264L789.47 14.5326L789.318 14.1381L789.015 13.3552L788.865 12.9656L788.714 12.5782M789.933 15.7257H825.399M753.857 12.5782H788.714M788.714 12.5782H823.572M825.399 15.7257L824.022 13.3552L823.572 12.5782M825.399 15.7257L826.574 17.7494L827.291 18.9852M825.399 15.7257H860.865M823.572 12.5782H858.429M823.572 12.5782L822.242 10.2878L821.806 9.5373M827.291 18.9852H863.388M860.865 15.7257H896.331M860.865 15.7257L859.03 13.3552L858.429 12.5782M860.865 15.7257L863.388 18.9852M858.429 12.5782H893.286M858.429 12.5782L857.241 11.0448L856.364 9.91175L856.075 9.53731M821.806 9.5373L856.075 9.53731M1197.02 326.497H1292.63M1197.02 326.497L1175.52 304.274M1197.02 326.497L1220.65 350.918M1292.63 326.497L1266.82 304.274M1292.63 326.497L1320.98 350.918M1292.63 326.497H1388.23M1175.52 304.274H1266.82M1175.52 304.274L1155.87 283.964M1220.65 350.918H1320.98M1220.65 350.918L1246.74 377.879M1220.65 350.918H1120.32M1266.82 304.274L1243.24 283.964M1266.82 304.274H1358.13M1320.98 350.918L1352.28 377.879M1320.98 350.918H1421.31M1388.23 326.497L1358.13 304.274M1388.23 326.497L1421.31 350.918M1388.23 326.497H1438.61M1155.87 283.964H1243.24M1155.87 283.964H1068.49M1155.87 283.964L1137.84 265.33M1120.32 350.918L1141.19 377.879M1246.74 377.879H1352.28M1246.74 377.879H1141.19M1243.24 283.964L1221.61 265.33M1243.24 283.964H1330.62M1358.13 304.274L1330.62 283.964M1358.13 304.274H1438.61M1352.28 377.879L1438.61 377.878M1421.31 350.918L1438.61 363.691M1421.31 350.918H1438.61M1438.61 326.497V304.274M1438.61 326.497V350.918M1068.49 283.964L1054.07 265.33M1137.84 265.33L1121.24 248.173M1137.84 265.33H1221.61M1137.84 265.33H1054.07M1221.61 265.33L1201.69 248.173M1221.61 265.33H1305.37M1330.62 283.964L1305.37 265.33M1330.62 283.964H1417.99M1438.61 304.274V297.285M1121.24 248.173H1201.69M1121.24 248.173L1105.9 232.324M1201.69 248.173L1183.28 232.324M1201.69 248.173H1282.13M1105.9 232.324H1183.28M1105.9 232.324L1091.7 217.64M1183.28 232.324L1166.23 217.64M1183.28 232.324H1260.67M1282.13 248.173L1260.67 232.324M1282.13 248.173L1305.37 265.33M1282.13 248.173H1362.58M1091.7 217.64H1166.23M1091.7 217.64H1017.16M1091.7 217.64L1078.49 203.995M1166.23 217.64L1150.39 203.995M1166.23 217.64H1240.77M1260.67 232.324L1240.77 217.64M1260.67 232.324H1338.05M1305.37 265.33H1389.14M1362.58 248.173L1338.05 232.324M1362.58 248.173L1389.14 265.33M1362.58 248.173H1438.61M1017.16 217.64L1006.59 203.995M1078.49 203.995L1066.2 191.285M1078.49 203.995H1150.39M1078.49 203.995H1006.59M1150.39 203.995L1135.63 191.285M1150.39 203.995H1222.29M1240.77 217.64L1222.29 203.995M1240.77 217.64H1315.31M1338.05 232.324H1415.43M1338.05 232.324L1315.31 217.64M1066.2 191.285H1135.63M1066.2 191.285L1054.71 179.415M1135.63 191.285L1121.85 179.415M1135.63 191.285H1205.07M1054.71 179.415H1121.85M1054.71 179.415L1043.96 168.305M1121.85 179.415L1108.95 168.305M1121.85 179.415H1188.99M1205.07 191.285L1188.99 179.415M1205.07 191.285L1222.29 203.995M1205.07 191.285H1274.51M1043.96 168.305H1108.95M1043.96 168.305H978.969M1043.96 168.305L1033.88 157.885M1108.95 168.305L1096.85 157.885M1108.95 168.305H1173.95M1188.99 179.415L1173.95 168.305M1188.99 179.415H1256.14M1222.29 203.995H1294.19M1274.51 191.285H1343.95M1274.51 191.285L1256.14 179.415M1274.51 191.285L1294.19 203.995M978.969 168.305L970.903 157.885M1033.88 157.885L1024.4 148.091M1033.88 157.885H1096.85M1033.88 157.885H970.903M1096.85 157.885L1085.48 148.091M1096.85 157.885H1159.83M1173.95 168.305H1238.94M1173.95 168.305L1159.83 157.885M1256.14 179.415H1323.28M1256.14 179.415L1238.94 168.305M1024.4 148.091H1085.48M1024.4 148.091L1015.48 138.871M1085.48 148.091L1074.78 138.871M1085.48 148.091H1146.56M1015.48 138.871H1074.78M1015.48 138.871L1007.07 130.173M1074.78 138.871L1064.68 130.173M1074.78 138.871H1134.07M1146.56 148.091L1134.07 138.871M1146.56 148.091L1159.83 157.885M1146.56 148.091H1207.64M1007.07 130.173H1064.68M1007.07 130.173H949.453M1007.07 130.173L999.11 121.956M1064.68 130.173L1055.14 121.956M1064.68 130.173H1122.29M1134.07 138.871L1122.29 130.173M1134.07 138.871H1193.37M1159.83 157.885H1222.81M1207.64 148.091H1268.73M1207.64 148.091L1193.37 138.871M1207.64 148.091L1222.81 157.885M949.453 130.173L943.093 121.956M999.11 121.956L991.591 114.179M999.11 121.956H1055.14M999.11 121.956H943.093M1055.14 121.956L1046.11 114.179M1055.14 121.956H1111.16M1122.29 130.173H1179.91M1122.29 130.173L1111.16 121.956M1193.37 138.871H1252.67M1193.37 138.871L1179.91 130.173M991.591 114.179H1046.11M991.591 114.179L984.461 106.81M1046.11 114.179L1037.55 106.81M1046.11 114.179H1100.63M984.461 106.81H1037.55M984.461 106.81L977.695 99.8168M1037.55 106.81L1029.43 99.8169M1037.55 106.81H1090.65M1100.63 114.179L1090.65 106.81M1100.63 114.179L1111.16 121.956M1100.63 114.179H1155.15M977.695 99.8168L1029.43 99.8169M977.695 99.8168H925.956M977.695 99.8168L971.265 93.1712M1029.43 99.8169L1021.72 93.1712M1029.43 99.8169H1081.17M1090.65 106.81L1081.17 99.8169M1090.65 106.81H1143.74M1111.16 121.956H1167.18M1155.15 114.179H1209.66M1155.15 114.179L1143.74 106.81M1155.15 114.179L1167.18 121.956M925.956 99.8168L920.812 93.1712M971.265 93.1712L965.146 86.8475M971.265 93.1712H1021.72M971.265 93.1712H920.812M1021.72 93.1712L1014.37 86.8476M1021.72 93.1712H1072.17M1081.17 99.8169H1132.91M1081.17 99.8169L1072.17 93.1712M1143.74 106.81H1196.83M1143.74 106.81L1132.91 99.8169M965.146 86.8475L1014.37 86.8476M965.146 86.8475L959.318 80.8236M1014.37 86.8476L1007.38 80.8237M1014.37 86.8476H1063.6M959.318 80.8236L1007.38 80.8237M959.318 80.8236L953.759 75.0784M1007.38 80.8237L1000.71 75.0784M1007.38 80.8237H1055.44M1063.6 86.8476L1055.44 80.8237M1063.6 86.8476L1072.17 93.1712M1063.6 86.8476H1112.83M953.759 75.0784H1000.71M953.759 75.0784H906.807M953.759 75.0784L948.451 69.5929M1000.71 75.0784L994.341 69.5929M1000.71 75.0784H1047.66M1055.44 80.8237L1047.66 75.0784M1055.44 80.8237H1103.51M1072.17 93.1712H1122.62M1112.83 86.8476H1162.06M1112.83 86.8476L1103.51 80.8237M1112.83 86.8476L1122.62 93.1712M906.807 75.0784L902.561 69.5929M948.451 69.5929L944.625 65.6387L944 64.9926L943.378 64.3498M948.451 69.5929H994.341M948.451 69.5929H902.561M994.341 69.5929L988.254 64.3498M994.341 69.5929H1040.23M1047.66 75.0784H1094.61M1047.66 75.0784L1040.23 69.5929M1103.51 80.8237H1151.57M1103.51 80.8237L1094.61 75.0784M943.378 64.3498H988.254M943.378 64.3498L938.525 59.3339M988.254 64.3498L982.43 59.3339M988.254 64.3498H1033.13M938.525 59.3339H982.43M938.525 59.3339L933.877 54.5302M982.43 59.3339L976.852 54.5302M982.43 59.3339H1026.33M1033.13 64.3498L1026.33 59.3339M1033.13 64.3498L1040.23 69.5929M1033.13 64.3498H1078M933.877 54.5302H976.852M933.877 54.5302H890.901M933.877 54.5302L932.745 53.3609L929.421 49.9255M976.852 54.5302L974.821 52.7808L974.151 52.2035L971.506 49.9255M976.852 54.5302H1019.83M1026.33 59.3339L1019.83 54.5302M1026.33 59.3339H1070.24M1040.23 69.5929H1086.12M1078 64.3498H1122.88M1078 64.3498L1070.24 59.3339M1078 64.3498L1086.12 69.5929M890.901 54.5302L887.338 49.9255M929.421 49.9255L925.147 45.5081M929.421 49.9255H971.506M929.421 49.9255H887.338M971.506 49.9255L966.377 45.5081M971.506 49.9255H1013.59M1019.83 54.5302H1062.8M1019.83 54.5302L1013.59 49.9255M1070.24 59.3339H1114.14M1070.24 59.3339L1062.8 54.5302M925.147 45.5081H966.377M925.147 45.5081L921.043 41.2666M966.377 45.5081L963.275 42.8373L961.452 41.2666M966.377 45.5081H1007.61M921.043 41.2666H961.452M921.043 41.2666L917.585 37.6911L917.1 37.1905M961.452 41.2666L956.72 37.1906M961.452 41.2666H1001.86M1007.61 45.5081L1001.86 41.2666M1007.61 45.5081L1013.59 49.9255M1007.61 45.5081H1048.84M917.1 37.1905L956.72 37.1906M917.1 37.1905H877.48M917.1 37.1905L913.307 33.2704M956.72 37.1906L952.168 33.2704M956.72 37.1906H996.339M1001.86 41.2666L998.384 38.7002L997.7 38.1943L996.339 37.1906M1001.86 41.2666H1042.27M1013.59 49.9255H1055.67M1048.84 45.5081H1090.06M1048.84 45.5081L1042.27 41.2666M1048.84 45.5081L1055.67 49.9255M877.48 37.1905L877.094 36.6922L876.71 36.196L874.445 33.2704M913.307 33.2704L912.382 32.3137L910.556 30.4275L909.657 29.498M913.307 33.2704H952.168M913.307 33.2704H874.445M952.168 33.2704L950.506 31.8392L949.411 30.8961L947.788 29.498M952.168 33.2704H991.029M996.339 37.1906H1035.96M996.339 37.1906L991.029 33.2704M1042.27 41.2666H1082.68M1042.27 41.2666L1035.96 37.1906M909.657 29.498H947.788M909.657 29.498L908.766 28.5765L906.141 25.8646M947.788 29.498L943.569 25.8646M947.788 29.498H985.919M906.141 25.8646H943.569M906.141 25.8646L903.588 23.2257L902.752 22.3627M943.569 25.8646L942.027 24.5362L941.01 23.6607L939.503 22.3627M943.569 25.8646H980.997M985.919 29.498L980.997 25.8646M985.919 29.498L989.09 31.8392L989.734 32.3138L991.029 33.2704M985.919 29.498H1024.05M902.752 22.3627H939.503M902.752 22.3627H866.002M902.752 22.3627L899.485 18.9852M939.503 22.3627L937.525 20.6588L937.036 20.2373L935.582 18.9852M939.503 22.3627H976.254M980.997 25.8646L976.254 22.3627M980.997 25.8646H1018.43M991.029 33.2704H1029.89M1024.05 29.498H1062.18M1024.05 29.498L1018.43 25.8646M1024.05 29.498L1029.89 33.2704M866.002 22.3627L865.34 21.5067L863.388 18.9852M899.485 18.9852L896.331 15.7257M899.485 18.9852H935.582M899.485 18.9852H863.388M935.582 18.9852L933.673 17.3408L931.798 15.7257M935.582 18.9852H971.679M976.254 22.3627H1013M976.254 22.3627L972.807 19.8179L971.679 18.9852M1018.43 25.8646H1055.85M1018.43 25.8646L1013 22.3627M896.331 15.7257H931.798M896.331 15.7257L894.415 13.7459L893.286 12.5782M931.798 15.7257L929.044 13.3552L928.593 12.9656L928.143 12.5782M931.798 15.7257H967.263M893.286 12.5782H928.143M928.143 12.5782H963M967.263 15.7257L964.052 13.3552L963 12.5782M967.263 15.7257L971.118 18.5713L971.679 18.9852M967.263 15.7257H1002.73M963 12.5782H997.857M963 12.5782L958.881 9.53732M971.679 18.9852H1007.77M1002.73 15.7257H1038.2M1002.73 15.7257L997.857 12.5782M1002.73 15.7257L1007.77 18.9852M997.857 12.5782H1032.71M997.857 12.5782L994.311 10.2878L993.149 9.53732M958.881 9.53732H993.149M1415.43 232.324L1389.85 217.64M1415.43 232.324H1438.61M1415.43 232.324L1438.61 245.637M1389.85 217.64L1366.09 203.995M1389.85 217.64H1315.31M1389.85 217.64H1438.61M1438.61 232.324V217.64M1438.61 232.324V245.637M1438.61 245.637V248.173M1315.31 217.64L1294.19 203.995M1366.09 203.995L1343.95 191.285M1366.09 203.995H1437.99M1366.09 203.995H1294.19M1438.61 217.64V204.318M1438.61 248.173V265.33M1343.95 191.285H1413.39M1343.95 191.285L1323.28 179.415M1413.39 191.285L1390.42 179.415M1413.39 191.285L1437.99 203.995M1413.39 191.285H1438.61M1323.28 179.415H1390.42M1323.28 179.415L1303.93 168.305M1390.42 179.415L1368.92 168.305M1390.42 179.415H1438.61M1437.99 203.995H1438.61M1437.99 203.995L1438.61 204.318M1438.61 191.285V179.415M1438.61 191.285V203.995M1303.93 168.305H1368.92M1303.93 168.305H1238.94M1303.93 168.305L1285.78 157.885M1368.92 168.305L1348.76 157.885M1368.92 168.305H1433.91M1438.61 179.415V170.512M1438.61 203.995V204.318M1238.94 168.305L1222.81 157.885M1285.78 157.885L1268.73 148.091M1285.78 157.885H1348.76M1285.78 157.885H1222.81M1348.76 157.885L1329.81 148.091M1348.76 157.885H1411.73M1433.91 168.305L1411.73 157.885M1433.91 168.305L1438.61 170.512M1433.91 168.305H1438.61M1438.61 170.512V168.305M1268.73 148.091H1329.81M1268.73 148.091L1252.67 138.871M1329.81 148.091L1311.96 138.871M1329.81 148.091H1390.89M1252.67 138.871H1311.96M1252.67 138.871L1237.52 130.173M1311.96 138.871L1295.13 130.173M1311.96 138.871H1371.26M1390.89 148.091L1371.26 138.871M1390.89 148.091L1411.73 157.885M1390.89 148.091H1438.61M1237.52 130.173H1295.13M1237.52 130.173H1179.91M1237.52 130.173L1223.21 121.956M1295.13 130.173L1279.23 121.956M1295.13 130.173H1352.75M1371.26 138.871L1352.75 130.173M1371.26 138.871H1430.56M1411.73 157.885H1438.61M1438.61 148.091V142.34M1438.61 148.091V149.81V157.885M1179.91 130.173L1167.18 121.956M1223.21 121.956L1209.66 114.179M1223.21 121.956H1279.23M1223.21 121.956H1167.18M1279.23 121.956L1264.18 114.179M1279.23 121.956H1335.25M1352.75 130.173L1335.25 121.956M1352.75 130.173H1410.36M1430.56 138.871L1410.36 130.173M1430.56 138.871H1438.61M1430.56 138.871L1438.61 142.34M1209.66 114.179H1264.18M1209.66 114.179L1196.83 106.81M1264.18 114.179L1249.92 106.81M1264.18 114.179H1318.7M1196.83 106.81H1249.92M1196.83 106.81L1184.65 99.8169M1249.92 106.81L1236.39 99.8169M1249.92 106.81H1303.01M1318.7 114.179L1303.01 106.81M1318.7 114.179L1335.25 121.956M1318.7 114.179H1373.22M1184.65 99.8169H1236.39M1184.65 99.8169H1132.91M1184.65 99.8169L1173.08 93.1712M1236.39 99.8169L1223.53 93.1712M1236.39 99.8169H1288.13M1303.01 106.81L1288.13 99.8169M1303.01 106.81H1356.11M1335.25 121.956H1391.28M1373.22 114.179H1427.74M1373.22 114.179L1356.11 106.81M1373.22 114.179L1391.28 121.956M1132.91 99.8169L1122.62 93.1712M1173.08 93.1712L1162.06 86.8476M1173.08 93.1712H1223.53M1173.08 93.1712H1122.62M1223.53 93.1712L1211.29 86.8476M1223.53 93.1712H1273.98M1288.13 99.8169L1273.98 93.1712M1288.13 99.8169H1339.87M1356.11 106.81H1409.2M1356.11 106.81L1339.87 99.8169M1162.06 86.8476H1211.29M1162.06 86.8476L1151.57 80.8237M1211.29 86.8476L1199.63 80.8237M1211.29 86.8476H1260.52M1151.57 80.8237H1199.63M1151.57 80.8237L1141.56 75.0784M1199.63 80.8237L1188.52 75.0784M1199.63 80.8237H1247.7M1260.52 86.8476L1247.7 80.8237M1260.52 86.8476L1273.98 93.1712M1260.52 86.8476H1309.75M1141.56 75.0784H1188.52M1141.56 75.0784H1094.61M1141.56 75.0784L1132.01 69.5929M1188.52 75.0784L1177.9 69.5929M1188.52 75.0784H1235.47M1247.7 80.8237L1235.47 75.0784M1247.7 80.8237H1295.76M1273.98 93.1712H1324.43M1309.75 86.8476H1358.98M1309.75 86.8476L1295.76 80.8237M1309.75 86.8476L1324.43 93.1712M1094.61 75.0784L1086.12 69.5929M1132.01 69.5929L1122.88 64.3498M1132.01 69.5929H1177.9M1132.01 69.5929H1086.12M1177.9 69.5929L1167.76 64.3498M1177.9 69.5929H1223.79M1235.47 75.0784H1282.42M1235.47 75.0784L1223.79 69.5929M1295.76 80.8237H1343.83M1295.76 80.8237L1282.42 75.0784M1122.88 64.3498H1167.76M1122.88 64.3498L1114.14 59.3339M1167.76 64.3498L1158.05 59.3339M1167.76 64.3498H1212.63M1114.14 59.3339H1158.05M1114.14 59.3339L1105.78 54.5302M1158.05 59.3339L1148.75 54.5302M1158.05 59.3339H1201.95M1212.63 64.3498L1201.95 59.3339M1212.63 64.3498L1223.79 69.5929M1212.63 64.3498H1257.51M1105.78 54.5302H1148.75M1105.78 54.5302H1062.8M1105.78 54.5302L1097.76 49.9255M1148.75 54.5302L1139.84 49.9256M1148.75 54.5302H1191.73M1201.95 59.3339L1191.73 54.5302M1201.95 59.3339L1245.86 59.334M1223.79 69.5929H1269.68M1257.51 64.3498H1302.38M1257.51 64.3498L1245.86 59.334M1257.51 64.3498L1269.68 69.5929M1062.8 54.5302L1055.67 49.9255M1097.76 49.9255L1090.06 45.5081M1097.76 49.9255L1139.84 49.9256M1097.76 49.9255H1055.67M1139.84 49.9256L1131.29 45.5081M1139.84 49.9256H1181.93M1191.73 54.5302H1234.7M1191.73 54.5302L1181.93 49.9256M1245.86 59.334H1289.76M1245.86 59.334L1234.7 54.5302M1090.06 45.5081H1131.29M1090.06 45.5081L1082.68 41.2666M1131.29 45.5081L1123.09 41.2666M1131.29 45.5081H1172.52M1082.68 41.2666H1123.09M1082.68 41.2666L1075.58 37.1906M1123.09 41.2666L1115.2 37.1906M1123.09 41.2666H1163.5M1172.52 45.5081L1163.5 41.2666M1172.52 45.5081L1181.93 49.9256M1172.52 45.5081H1213.75M1075.58 37.1906H1115.2M1075.58 37.1906H1035.96M1075.58 37.1906L1068.75 33.2704M1115.2 37.1906L1108.55 33.7525L1107.61 33.2704M1115.2 37.1906H1154.82M1163.5 41.2666L1154.82 37.1906M1163.5 41.2666H1203.9M1181.93 49.9256H1224.01M1213.75 45.5081H1254.98M1213.75 45.5081L1203.9 41.2666M1213.75 45.5081L1224.01 49.9256M1035.96 37.1906L1029.89 33.2704M1068.75 33.2704L1064.62 30.8961L1063.8 30.4275L1062.18 29.498M1068.75 33.2704H1107.61M1068.75 33.2704H1029.89M1107.61 33.2704L1100.31 29.498M1107.61 33.2704H1146.47M1154.82 37.1906H1194.44M1154.82 37.1906L1146.47 33.2704M1203.9 41.2666H1244.31M1203.9 41.2666L1194.44 37.1906M1062.18 29.498H1100.31M1062.18 29.498L1055.85 25.8646M1100.31 29.498L1093.28 25.8646M1100.31 29.498H1138.44M1055.85 25.8646H1093.28M1055.85 25.8646L1049.75 22.3627M1093.28 25.8646L1086.5 22.3627M1093.28 25.8646H1130.71M1138.44 29.498L1130.71 25.8646M1138.44 29.498L1146.47 33.2704M1138.44 29.498H1176.58M1049.75 22.3627H1086.5M1049.75 22.3627H1013M1049.75 22.3627L1043.87 18.9852M1086.5 22.3627L1079.97 18.9852M1086.5 22.3627H1123.26M1130.71 25.8646L1123.26 22.3627M1130.71 25.8646H1168.14M1146.47 33.2704H1185.34M1176.58 29.498H1214.71M1176.58 29.498L1169.18 26.311L1168.14 25.8646M1176.58 29.498L1185.34 33.2704M1013 22.3627L1007.77 18.9852M1043.87 18.9852L1038.2 15.7257M1043.87 18.9852H1079.97M1043.87 18.9852H1007.77M1079.97 18.9852L1073.66 15.7257M1079.97 18.9852H1116.07M1123.26 22.3627H1160.01M1123.26 22.3627L1116.07 18.9852M1168.14 25.8646H1205.57M1168.14 25.8646L1160.01 22.3627M1038.2 15.7257H1073.66M1038.2 15.7257L1032.71 12.5782M1073.66 15.7257L1069.07 13.3552L1068.32 12.9656L1067.57 12.5782M1073.66 15.7257H1109.13M1032.71 12.5782H1067.57M1067.57 12.5782H1102.43M1109.13 15.7257L1102.43 12.5782M1109.13 15.7257L1116.07 18.9852M1109.13 15.7257H1144.59M1102.43 12.5782H1137.29M1102.43 12.5782L1095.96 9.53733M1116.07 18.9852H1152.16M1144.59 15.7257H1180.06M1144.59 15.7257L1137.29 12.5782M1144.59 15.7257L1152.16 18.9852M1137.29 12.5782H1172.14M1137.29 12.5782L1130.22 9.53733M1095.96 9.53733H1130.22M1427.74 114.179L1409.2 106.81M1427.74 114.179L1438.61 118.502M1427.74 114.179H1438.61M1409.2 106.81L1391.61 99.8169M1409.2 106.81H1438.61M1438.61 118.502V114.179M1438.61 118.502V121.956M1438.61 114.179V106.81M1391.61 99.8169L1374.89 93.1713M1391.61 99.8169H1339.87M1391.61 99.8169H1438.61M1438.61 106.81V99.8169M1391.28 121.956L1410.36 130.173M1391.28 121.956H1438.61M1438.61 121.956V130.173M1339.87 99.8169L1324.43 93.1712M1374.89 93.1713L1358.98 86.8476M1374.89 93.1713H1425.34M1374.89 93.1713L1324.43 93.1712M1438.61 99.8169V98.0699M1358.98 86.8476H1408.21M1358.98 86.8476L1343.83 80.8237M1408.21 86.8476L1391.89 80.8237M1408.21 86.8476L1425.34 93.1713M1408.21 86.8476H1438.61M1343.83 80.8237H1391.89M1343.83 80.8237L1329.37 75.0784M1391.89 80.8237L1376.32 75.0785M1391.89 80.8237H1438.61M1425.34 93.1713L1438.61 98.0699M1425.34 93.1713H1438.61M1438.61 86.8476H1438.98M1438.61 86.8476V80.8237M1438.61 86.8476V93.1713M1329.37 75.0784L1376.32 75.0785M1329.37 75.0784H1282.42M1329.37 75.0784L1315.57 69.5929M1376.32 75.0785L1361.46 69.5929M1376.32 75.0785H1423.28M1438.61 80.8237V80.362M1438.61 98.0699L1438.76 98.1238M1438.61 98.0699V93.1713M1282.42 75.0784L1269.68 69.5929M1315.57 69.5929L1302.38 64.3498M1315.57 69.5929H1361.46M1315.57 69.5929H1269.68M1361.46 69.5929L1347.26 64.3498M1361.46 69.5929H1407.35M1423.28 75.0785L1407.35 69.5929M1423.28 75.0785H1438.61M1423.28 75.0785L1438.61 80.362M1438.61 80.362V75.0785M1302.38 64.3498H1347.26M1302.38 64.3498L1289.76 59.334M1347.26 64.3498L1333.67 59.334M1347.26 64.3498H1392.13M1289.76 59.334H1333.67M1289.76 59.334L1277.68 54.5302M1333.67 59.334L1320.65 54.5302M1333.67 59.334H1377.57M1392.13 64.3498L1377.57 59.334M1392.13 64.3498L1407.35 69.5929M1392.13 64.3498H1437.01M1277.68 54.5302H1320.65M1277.68 54.5302H1234.7M1277.68 54.5302L1266.1 49.9256M1320.65 54.5302L1308.18 49.9256M1320.65 54.5302H1363.63M1377.57 59.334L1363.63 54.5302M1377.57 59.334H1421.48M1407.35 69.5929H1438.61M1437.01 64.3498L1421.48 59.334M1437.01 64.3498L1438.61 64.8675M1437.01 64.3498H1438.61M1234.7 54.5302L1224.01 49.9256M1266.1 49.9256L1254.98 45.5081M1266.1 49.9256H1308.18M1266.1 49.9256H1224.01M1308.18 49.9256L1296.21 45.5081M1308.18 49.9256H1350.27M1363.63 54.5302L1350.27 49.9256M1363.63 54.5302H1406.61M1421.48 59.334L1406.61 54.5302M1421.48 59.334H1438.61M1254.98 45.5081H1296.21M1254.98 45.5081L1244.31 41.2666M1296.21 45.5081L1284.72 41.2666M1296.21 45.5081L1337.44 45.5082M1244.31 41.2666H1284.72M1244.31 41.2666L1234.06 37.1906M1284.72 41.2666L1273.68 37.1906M1284.72 41.2666H1325.13M1337.44 45.5082L1325.13 41.2666M1337.44 45.5082L1350.27 49.9256M1337.44 45.5082H1378.67M1234.06 37.1906H1273.68M1234.06 37.1906H1194.44M1234.06 37.1906L1224.2 33.2704M1273.68 37.1906L1263.06 33.2704M1273.68 37.1906H1313.3M1325.13 41.2666L1313.3 37.1906M1325.13 41.2666H1365.54M1350.27 49.9256H1392.35M1378.67 45.5082H1419.9M1378.67 45.5082L1365.54 41.2666M1378.67 45.5082L1392.35 49.9256M1194.44 37.1906L1185.34 33.2704M1224.2 33.2704L1214.71 29.498M1224.2 33.2704H1263.06M1224.2 33.2704H1185.34M1263.06 33.2704L1252.84 29.498M1263.06 33.2704H1301.92M1313.3 37.1906H1352.92M1313.3 37.1906L1301.92 33.2704M1365.54 41.2666H1405.95M1365.54 41.2666L1352.92 37.1906M1214.71 29.498H1252.84M1214.71 29.498L1205.57 25.8646M1252.84 29.498L1242.99 25.8646M1252.84 29.498H1290.97M1205.57 25.8646H1242.99M1205.57 25.8646L1196.76 22.3627M1242.99 25.8646L1233.51 22.3627M1242.99 25.8646H1280.42M1290.97 29.498L1280.42 25.8646M1290.97 29.498L1301.92 33.2704M1290.97 29.498H1329.1M1196.76 22.3627H1233.51M1196.76 22.3627H1160.01M1196.76 22.3627L1188.26 18.9852M1233.51 22.3627L1224.36 18.9852M1233.51 22.3627H1270.26M1280.42 25.8646L1270.26 22.3627M1280.42 25.8646H1317.85M1301.92 33.2704H1340.78M1329.1 29.498H1367.23M1329.1 29.498L1317.85 25.8646M1329.1 29.498L1340.78 33.2704M1160.01 22.3627L1152.16 18.9852M1188.26 18.9852L1180.06 15.7257M1188.26 18.9852H1224.36M1188.26 18.9852H1152.16M1224.36 18.9852L1215.53 15.7257M1224.36 18.9852H1260.45M1270.26 22.3627H1307.01M1270.26 22.3627L1260.45 18.9852M1317.85 25.8646H1355.28M1317.85 25.8646L1307.01 22.3627M1180.06 15.7257H1215.53M1180.06 15.7257L1172.14 12.5782M1215.53 15.7257L1207 12.5782M1215.53 15.7257H1250.99M1172.14 12.5782H1207M1207 12.5782H1241.86M1250.99 15.7257L1241.86 12.5782M1250.99 15.7257L1260.45 18.9852M1250.99 15.7257H1286.46M1241.86 12.5782H1276.71M1241.86 12.5782L1233.03 9.53734M1260.45 18.9852H1296.55M1286.46 15.7257H1321.93M1286.46 15.7257L1276.71 12.5782M1286.46 15.7257L1296.55 18.9852M1276.71 12.5782H1311.57M1276.71 12.5782L1267.3 9.53734M1233.03 9.53734H1267.3M1419.9 45.5082L1405.95 41.2666M1419.9 45.5082L1434.43 49.9256M1419.9 45.5082H1438.61M1405.95 41.2666L1392.54 37.1906M1405.95 41.2666H1438.61M1434.43 49.9256H1392.35M1434.43 49.9256H1438.61M1434.43 49.9256L1438.61 51.1957M1438.61 45.5082V41.2666M1438.61 45.5082V49.9256M1392.54 37.1906H1432.16M1392.54 37.1906H1352.92M1392.54 37.1906L1379.64 33.2704M1438.61 41.2666V39.0433M1392.35 49.9256L1406.61 54.5302M1438.61 49.9256V51.1957M1438.61 51.1957V54.5302M1352.92 37.1906L1340.78 33.2704M1432.16 37.1906L1418.5 33.2704M1432.16 37.1906L1438.61 39.0433M1432.16 37.1906H1438.61M1379.64 33.2704L1367.23 29.498M1379.64 33.2704H1418.5M1379.64 33.2704H1340.78M1438.61 39.0433V37.1906M1367.23 29.498H1405.36M1367.23 29.498L1355.28 25.8646M1405.36 29.498L1392.71 25.8646M1405.36 29.498L1418.5 33.2704M1405.36 29.498H1438.61M1355.28 25.8646H1392.71M1355.28 25.8646L1343.76 22.3627M1392.71 25.8646L1380.51 22.3627M1392.71 25.8646H1430.14M1418.5 33.2704H1438.61M1438.61 29.498H1438.73M1438.61 29.498V28.1697M1438.61 29.498V33.2704M1343.76 22.3627H1380.51M1343.76 22.3627H1307.01M1343.76 22.3627L1332.65 18.9852M1380.51 22.3627L1368.74 18.9852M1380.51 22.3627H1417.26M1430.14 25.8646L1417.26 22.3627M1430.14 25.8646L1438.61 28.1697M1430.14 25.8646H1438.61M1438.61 33.2704V37.1906M1438.61 28.1697V25.8646M1307.01 22.3627L1296.55 18.9852M1332.65 18.9852L1321.93 15.7257M1332.65 18.9852H1368.74M1332.65 18.9852H1296.55M1368.74 18.9852L1357.39 15.7257M1368.74 18.9852H1404.84M1417.26 22.3627L1404.84 18.9852M1417.26 22.3627H1438.61M1438.61 25.8646V22.3627M1321.93 15.7257H1357.39M1321.93 15.7257L1311.57 12.5782M1357.39 15.7257L1346.43 12.5782M1357.39 15.7257L1392.86 15.7258M1311.57 12.5782H1346.43M1346.43 12.5782H1381.29M1392.86 15.7258L1381.29 12.5782M1392.86 15.7258L1404.84 18.9852M1392.86 15.7258H1428.32M1381.29 12.5782L1416.14 12.5783M1381.29 12.5782L1370.1 9.53735M1404.84 18.9852H1438.61M1428.32 15.7258L1416.14 12.5783M1428.32 15.7258L1438.61 18.3839M1428.32 15.7258H1438.61M1416.14 12.5783L1404.37 9.53736M1416.14 12.5783H1438.61M1370.1 9.53735L1404.37 9.53736M1438.61 18.9852V18.3839M1438.61 18.9852V22.3627M1438.61 18.3839V15.7258M1438.61 15.7258V12.5783M1404.37 9.53736H1438.61M1438.61 12.5783V9.53736M1406.61 54.5302H1438.61M1438.61 54.5302H1438.84M1438.61 54.5302V59.334M1438.61 59.334V64.3498M1438.61 69.5929V64.8675M1438.61 69.5929V75.0785M1438.61 64.8675L1439 64.9926M1438.61 64.8675V64.3498M1410.36 130.173H1438.61M1438.61 130.173V138.871M1438.61 138.871V142.34M1438.61 157.885V168.305M1389.14 265.33L1417.99 283.964M1389.14 265.33H1438.61M1417.99 283.964H1438.61M1417.99 283.964L1438.61 297.285M1438.61 265.33V283.964M1438.61 283.964V297.285M1438.61 363.691V350.918M1438.61 363.691V377.878M1438.61 377.878V377.975H-0.609985V377.878M1141.19 377.879H1035.64M719 377.879H613.452M296.81 377.879H191.26M48.15 217.64H-0.609985M-0.609985 283.964V265.33M46.39 99.8168H-0.609985M-0.609985 130.173V121.956M-0.609985 121.956V118.502M-0.609985 217.64V232.324M-0.609985 232.324V245.637M-0.609985 54.5301V51.1956M-0.609985 54.5301H-0.839966M3.56995 49.9255L-0.609985 51.1956M3.56995 49.9255H-0.609985M-0.609985 99.8168V106.81M-0.609985 106.81V114.179M-0.609985 114.179V118.502M-0.609985 39.0431V41.2665M-0.609985 39.0431V37.1905M-0.609985 41.2665V45.508M-0.609985 45.508V49.9255M-0.609985 51.1956V49.9255M-0.609985 9.53723H-0.640015L-0.609985 9.53004M-0.609985 9.53723V9.53004" stroke="url(#paint0_radial_224_8)" stroke-width="0.6" stroke-miterlimit="10" stroke-linecap="round" stroke-linejoin="round"/>
</g>
</g>
<defs>
<radialGradient id="paint0_radial_224_8" cx="0" cy="0" r="1" gradientUnits="userSpaceOnUse" gradientTransform="translate(719 364.081) rotate(-90) scale(590.104 2254.13)">
<stop stop-color="#F5F7F8"/>
<stop offset="0.489074" stop-color="#B7BCC2" stop-opacity="0"/>
</radialGradient>
<clipPath id="clip0_224_8">
<rect width="1438" height="369" fill="white"/>
</clipPath>
<clipPath id="clip1_224_8">
<rect width="1440" height="369" fill="white" transform="translate(-1)"/>
</clipPath>
</defs>
</svg>
