<svg width="1438" height="378" fill="none" xmlns="http://www.w3.org/2000/svg"><g clip-path="url(#a)"><g clip-path="url(#b)"><path d="M22.864 3.503 34.05.75M22.864 3.503h33.15m-33.15 0L11.306 6.347m11.558-2.844H-.612M34.05.75l-4.07.001-4.028.006-3.945.017-3.82.033L14.53.86l-3.45.081-3.204.112-2.975.143-2.552.197-2.324.23-.638.08v1.8M34.05.75h32.617M56.013 3.503 66.668.75M56.013 3.503h33.15m-33.15 0-2.718.702-8.29 2.142m-33.699 0h33.7m-33.7 0L-.612 9.28m11.918-2.933H-.612m0-2.844v2.844M66.667.75h32.616m0 0H131.9m-32.617 0-10.12 2.753M131.9.75h32.617M131.9.75l-9.588 2.753m-33.15 0h33.15m-33.15 0L78.706 6.347M164.517.75h32.616m-32.616 0-9.056 2.753m-33.149 0h33.149m-33.149 0-9.907 2.844M197.133.75h32.617m-32.617 0-8.523 2.753m-33.149 0h33.149m-33.149 0-9.356 2.844M229.75.75h32.617m-32.617 0-7.99 2.753m-33.15 0h33.15m-33.15 0-2.174.702-1.094.353-5.537 1.79M262.367.75h32.616m-32.616 0-7.458 2.753m-33.149 0h33.149m-33.149 0-2.038.702-6.218 2.142M294.983.75H327.6m-32.617 0-6.924 2.753m-33.15 0h33.15m-33.15 0-7.705 2.844M327.6.75h32.617M327.6.75l-6.392 2.753m-33.149 0h33.149m-33.149 0-1.767.702-.889.353-4.499 1.79M360.217.75h32.616m-32.616 0-5.86 2.753m-33.149 0h33.149m-33.149 0-6.605 2.844M392.833.75h32.617m-32.617 0-5.326 2.753m-33.15 0h33.15m-33.15 0-1.494.702-.753.353-3.807 1.79M425.45.75h32.617m-32.617 0-1.184.68-1.794 1.03-1.816 1.043m-33.149 0h33.149m-33.149 0-.679.35-.68.352-4.145 2.142M458.067.75h32.616m-32.616 0-1.052.68-3.209 2.073m-33.15 0h33.15m-33.15 0-1.223.702-.616.353-3.114 1.79M490.683.75H523.3m-32.617 0-3.728 2.753m-33.149 0h33.149m-33.149 0-4.404 2.844M523.3.75h32.617M523.3.75l-1.186 1.022-1.202 1.034-.403.348-.405.35m-33.149 0h33.149m-33.149 0-.475.35-.476.351-.479.353-2.423 1.79M555.917.75h32.616m-32.616 0-.989 1.022-.332.343-.334.345-1.009 1.043m-33.149 0h33.149m-33.149 0-.815.702-.411.353-.412.355-1.664 1.434M588.533.75h32.617m-32.617 0-2.131 2.753m-33.149 0h33.149m-33.149 0-.679.702-1.376 1.422-.347.36-.35.36M621.15.75l-.197.34-.197.34-1.001 1.724-.203.35M621.15.75h32.616m-67.364 2.753h33.15m-33.15 0-.271.35-.272.352-.274.353-1.383 1.79m35.35-2.845h33.149m-33.149 0-1.651 2.844M653.766.75h32.618m-32.618 0-1.065 2.753M686.384.75H719m-32.616 0-.198 1.022-.335 1.731m-33.15 0h33.15m-33.15 0-.135.35-.136.352-.137.353-.692 1.79M719 .75h32.616M719 .75v2.753m-33.149 0H719m-33.149 0-.551 2.844M751.616.75h32.618m-32.618 0 .198 1.022.335 1.731m-33.149 0h33.149m-33.149 0v2.844M784.234.75h32.616m-32.616 0 1.065 2.753m-33.15 0h33.15m-33.15 0 .551 2.844M816.85.75l.197.34.197.34 1.001 1.724.203.35M816.85.75h32.616m-64.167 2.753h33.149m-33.149 0 .135.35.136.352.137.353.414 1.069.278.72m32.049-2.844h33.15m-33.15 0 1.651 2.844M849.466.75h32.618m-32.618 0 1.861 2.404.271.35M882.084.75H914.7m-32.616 0 .988 1.022.332.343.669.691.336.348.338.35m-33.149 0h33.149m-33.149 0 .271.35.272.351.274.353 1.384 1.789M914.7.75h32.617M914.7.75l1.186 1.022 1.201 1.034.404.348.405.35m-33.149 0h33.149m-33.149 0 .679.701 1.376 1.422.697.72M947.317.75h32.616m-32.616 0 3.728 2.753m-33.149 0h33.149m-33.149 0 .815.702.411.353.411.355 1.665 1.434M979.933.75h32.617m-32.617 0 1.052.68 3.209 2.073m-33.149 0 .475.35 3.378 2.494m-3.853-2.844h33.149M1012.55.75h32.62m-32.62 0 4.79 2.753m-33.146 0h33.146m-33.146 0 .543.35 3.86 2.494M1045.17.75h32.61m-32.61 0 5.32 2.753m-33.15 0h33.15m-33.15 0 1.23.702.61.353 3.12 1.789M1077.78.75h32.62m-32.62 0 5.86 2.753m-33.15 0h33.15m-33.15 0 .68.35.68.352 4.15 2.142M1110.4.75h32.62m-32.62 0 6.39 2.753m-33.15 0h33.15m-33.15 0 1.5.702.75.353 3.81 1.789M1143.02.75h32.61m-32.61 0 6.92 2.753m-33.15 0h33.15m-33.15 0 .82.35 5.79 2.494M1175.63.75h32.62m-32.62 0 7.46 2.753m-33.15 0h33.15m-33.15 0 1.77.702.89.353 4.5 1.789M1208.25.75h32.62m-32.62 0 7.99 2.753m-33.15 0h33.15m-33.15 0 7.71 2.844M1240.87.75h32.61m-32.61 0 8.52 2.753m-33.15 0h33.15m-33.15 0 2.04.702 6.22 2.142M1273.48.75h32.62m-32.62 0 9.06 2.753m-33.15 0h33.15m-33.15 0 2.17.702 1.1.353 5.54 1.789M1306.1.75h32.62m-32.62 0 9.59 2.753m-33.15 0h33.15m-33.15 0 9.35 2.844M1338.72.75h32.61m-32.61 0 10.12 2.753m-33.15 0h33.15m-33.15 0 9.91 2.844M1371.33.75h32.62m-32.62 0 10.66 2.753m-33.15 0h33.15m-33.15 0 10.45 2.844M1403.95.75l4.07.001 4.03.006 3.94.017 3.82.033 3.66.053 3.45.081 3.2.112 2.98.143 2.55.197 2.32.23.64.08v1.8M1403.95.75l11.19 2.753m-33.15 0h33.15m-33.15 0 2.71.702 8.29 2.142m45.62-2.844h-23.47m23.47 0v2.844m-23.47-2.844 11.55 2.844m-67.4 0 10.81 2.94m-10.81-2.94h-33.69m33.69 0h33.7m-67.39 0 10.24 2.94m-10.24-2.94h-33.71m-67.39 0 8.53 2.94m-8.53-2.94h-33.7m33.7 0h33.7m-67.4 0 7.96 2.94m-7.96-2.94h-33.7m-67.4 0 6.26 2.94m-6.26-2.94H1056m33.7 0h33.7m-67.4 0 3.53 1.826 2.16 1.114m-5.69-2.94h-33.7m-67.402 0 3.983 2.94m-3.983-2.94h-33.7m33.7 0h33.699m-67.399 0 2.12 1.826 1.294 1.114m-3.414-2.94h-33.699m-67.4 0 .422.726.638 1.1.431.74.216.374m-1.707-2.94h-33.7m33.7 0h33.7m-67.4 0 .423 1.09.571 1.477.144.373m-1.138-2.94H752.7m-67.4 0-.07.362-.07.364-.071.365-.071.367-.072.368-.215 1.114m.569-2.94h-33.699m33.699 0H719m-67.399 0-.423 1.09-.571 1.477-.144.373m1.138-2.94h-33.7m-67.4 0-.702.726-2.143 2.214m2.845-2.94h-33.699m33.699 0h33.701m-67.4 0-2.12 1.826-1.294 1.114m3.414-2.94h-33.7m-67.399 0-4.472 2.567-.649.373m5.121-2.94h-33.7m33.7 0h33.699m-67.399 0-3.533 1.826-2.157 1.114m5.69-2.94h-33.7m-67.399 0-7.397 2.94m7.397-2.94h-33.7m33.7 0h33.699m-67.399 0-7.965 2.94m7.965-2.94h-33.7m-67.399 0-9.673 2.94m9.673-2.94h33.7m-33.7 0h-33.7m0 0-10.241 2.94m10.241-2.94h-33.7m1360.025 22.9h-.12m0 0h-33.25m33.25 0v3.773m0-3.772V27.92m-33.25 1.328-12.65-3.634m12.65 3.634 13.14 3.772m-13.14-3.772h-38.13m25.48-3.634h37.43m-37.43 0-12.2-3.501m12.2 3.502h-37.43m63.22 7.405 13.66 3.92m-13.66-3.92h-38.86m38.86 0h20.11m-71.38-3.772-11.95-3.634m11.95 3.634 12.41 3.772m-12.41-3.772h-38.13m101.04-3.634-12.88-3.501m12.88 3.502h8.47m-8.47 0 8.47 2.305m-58.1-5.807-11.77-3.378m11.77 3.378h-36.75m36.75 0h36.75m-61.98 3.502-11.52-3.502m11.52 3.502h-37.43m99.41-3.502-12.42-3.378m12.42 3.378h21.35m0 3.502v2.305m0-2.306v-3.501m-45.75-6.637h-35.47m35.47 0-11.57-3.148m11.57 3.148h35.46m-35.46 0 11.98 3.26m-47.45-3.26-10.96-3.148m10.96 3.148 11.35 3.26m-11.35-3.26h-35.46m59.36-3.148h-34.86m34.86 0-11.19-3.04m11.19 3.04h34.85m12.18 3.148-12.18-3.148m12.18 3.148h10.29m-10.29 0 10.29 2.658m-33.77.601h-36.1m36.1 0h33.77m-92.18-6.407h-34.86m34.86 0-10.59-3.04m32.9 9.447h-36.09m-10.72-3.26-10.36-3.147m10.36 3.148 10.72 3.26m-10.72-3.26h-35.47m83.64-6.189h-34.26m34.26 0h34.27m11.77 3.041-11.77-3.04m11.77 3.04h22.47m-127.04 0h-34.86m34.86 0-10-3.04m34.27 0h-34.27m137.41 77.31h-.37m0 0h-30.4m30.4 0v-6.024m0 6.023v6.324m-30.4-6.324-16.32-6.023m16.32 6.023 17.13 6.324m-17.13-6.324h-49.23m32.91-6.023-15.57-5.746m15.57 5.746h-48.06m48.06 0h46.72m-13.27 12.347h-50.45m50.45 0h13.27m-13.27 0 13.27 4.899m-79.63-11.222-15.15-6.024m15.15 6.023 15.91 6.324m-15.91-6.324h-49.23m66.57-11.769h46.96m-46.96 0-14.86-5.485m14.86 5.485h-46.95m14.46 5.746-14.46-5.746m14.46 5.746h-48.07m142.85 0v-.462m-15.33-5.284-15.93-5.485m15.93 5.485h15.33m-15.33 0 15.33 5.284m-31.26-10.77-15.22-5.242m15.22 5.243h-45.89m45.89 0h31.26m0 5.485v5.284m0-5.284v-5.485m-46.48-5.243h-44.87m44.87 0-14.56-5.016m14.56 5.016h44.88m-89.75 0-13.59-5.016m13.59 5.016 14.2 5.243m-14.2-5.243h-44.88m75.19-5.016h-43.9m43.9 0h43.91m-43.91 0-13.94-4.804m73.38 9.82-15.53-5.016m15.53 5.016h1.6m-1.6 0 1.6.517m-104.94-5.533-13.01-4.804m13.01 4.804h-43.91m71.7 10.259h-45.89m-13.19-5.243-12.62-5.016m12.62 5.016 13.19 5.243m-13.19-5.243h-44.87m163.97-5.016-14.87-4.804m14.87 4.804h17.13m-74.98-4.804h-42.97m42.97 0h42.98m-42.98 0-13.36-4.605m-29.61 4.605-12.48-4.605m12.48 4.605h-42.98m12.08 4.804-12.08-4.804m12.08 4.804h-43.9m91.58-13.826h-41.23m41.23 0-12.31-4.242m12.31 4.242h41.23m-41.23 0 12.83 4.417m-54.06-4.417-11.49-4.242m11.49 4.242 11.97 4.417m-11.97-4.417h-41.23m70.15-4.242h-40.41m40.41 0h40.41m-40.41 0-11.83-4.075m65.37 8.317h41.23m-41.23 0-13.13-4.242m13.13 4.242 13.68 4.417m-42.08 0h-42.09m42.09 0h42.08m-107.63-8.658-11.04-4.077m11.04 4.077h-40.41m63.87 8.658h-42.08m-11.12-4.417-10.67-4.242m10.67 4.242 11.12 4.417m-11.12-4.417h-41.23m151.79-4.242h40.41m-40.41 0-12.62-4.075m-39.62 0h-39.62m39.62 0h39.62m-39.62 0-11.38-3.92m-28.24 3.92-10.62-3.92m10.62 3.92h-39.62m10.25 4.075-10.25-4.075m10.25 4.075h-40.41m87.07-11.768h-38.13m38.13 0-10.55-3.634m10.55 3.634h38.13m-38.13 0 10.95 3.772m-49.08-3.772-9.85-3.634m9.85 3.634 10.22 3.772m-10.22-3.772h-38.13m65.71-3.634h-37.43m37.43 0h37.43m-37.43 0-10.16-3.501m58.84 7.135-11.25-3.634m11.25 3.634 11.68 3.772m-38.86 0h-38.86m38.86 0h38.86m-97.79-7.406-9.48-3.501m9.48 3.502h-37.42m57.49 7.405h-38.86m-9.49-3.772-9.14-3.634m9.14 3.634 9.49 3.772m-9.49-3.772h-38.13m141.27-3.634-10.84-3.501m-36.75 0h-36.75m36.75 0h36.75m-36.75 0-9.81-3.378m-26.94 3.378-9.15-3.378m9.15 3.378h-36.75m8.81 3.502-8.81-3.502m8.81 3.502h-37.43m82.85-10.14h-35.46m35.46 0-9.13-3.147m9.13 3.148h35.47m-35.47 0 9.46 3.26m-44.92-3.26-8.53-3.148m8.53 3.148 8.83 3.26m-8.83-3.26h-35.47m61.8-3.148H1207m34.86 0-8.83-3.04m8.83 3.04h34.85m9.75 3.148-9.75-3.148m9.75 3.148 10.09 3.26m-36.1 0h-36.09m36.09 0h36.1M1207 12.327h-34.86m34.86 0-8.24-3.04m25.6 9.447h-36.1m-8.2-3.26-7.92-3.147m7.92 3.148 8.2 3.26m-8.2-3.26h-35.47m88.44-6.189h-34.27m34.27 0h34.27m9.41 3.041-9.41-3.04m-95.16 3.04h-34.85m34.85 0-7.65-3.04m34.27 0h-34.27m248.9 181.746-22.97-11.869m22.97 11.869 24.6 12.711m-24.6-12.711h-69.44m69.44 0h25.22m-48.19-11.869-21.5-11.11m21.5 11.11h-67.14m67.14 0h48.19m-.62 24.58h-71.9m71.9 0h.62m-.62 0 .62.323m-94.66-13.034-20.67-11.869m20.67 11.869 22.14 12.711m-22.14-12.711-69.44.001m164.1-.001v12.711m0-12.711v-11.869m-69.69-11.11-20.16-10.42m20.16 10.42h-64.99m64.99 0h64.99m-110.63 11.11-19.35-11.11m19.35 11.11h-67.14m182.47 0v-8.903m-47.72-22.421h-61.08m61.08 0-19.63-9.22m19.63 9.22 20.84 9.794m-20.84-9.794h47.72m-108.8 0-17.85-9.22m17.85 9.22 18.95 9.794m-18.95-9.794h-61.08m102.53-9.22h-59.3m59.3 0h59.3m-59.3 0-18.51-8.698m58.98 27.712h-62.97m62.97 0 22.18 10.42m-22.18-10.42h26.88m0-9.794v9.794m0-9.794v-5.751m-126.65-3.469-16.83-8.698m16.83 8.698h-59.29m96.09 19.014h-62.98m-17.05-9.794-16.06-9.22m16.06 9.22 17.05 9.794m-17.05-9.794h-61.08m222.91-9.22-20.2-8.698m20.2 8.698h8.05m-8.05 0 8.05 3.469m-85.86-12.167h-57.62m57.62 0h57.61m-57.61 0-17.5-8.217m-40.12 8.217-15.9-8.217m15.9 8.217h-57.61m15.15 8.698-15.15-8.698m15.15 8.698h-59.3m125.33-24.692h-54.52m54.52 0-15.69-7.369m15.69 7.369h54.52m-54.52 0 16.55 7.777m-71.07-7.777-14.26-7.369m14.26 7.369 15.05 7.777m-15.05-7.777h-54.52m93.35-7.369h-53.09m53.09 0h53.1m-53.1 0-14.88-6.993m85.09 14.362h54.52m-54.52 0-17.11-7.369m17.11 7.369 18.06 7.777m-56.03 0h-56.02m56.02 0h56.03m-141.36-15.146-13.53-6.993m13.53 6.993h-53.09m82.4 15.146h-56.02m-13.55-7.777-12.83-7.369m12.83 7.369 13.55 7.777m-13.55-7.777h-54.51m200.96-7.369h53.09m-53.09 0-16.24-6.993m-51.74 0h-51.74m51.74 0h51.74m-51.74 0-14.15-6.646m-37.59 6.646-12.86-6.646m12.86 6.646h-51.74m12.18 6.993-12.18-6.993m12.18 6.993h-53.09m116.78-19.963h-49.23m49.23 0-12.82-6.023m12.82 6.023h49.23m-49.23 0 13.46 6.324m-62.69-6.324-11.65-6.023m11.65 6.023 12.24 6.324m-12.24-6.324h-49.23m85.64-6.023h-48.06m48.06 0h48.06m-48.06 0-12.23-5.746m74.28 11.77-13.99-6.024m13.99 6.023 14.68 6.324m-50.45 0h-50.45m50.45 0h50.45m-124.79-12.347-11.12-5.746m11.12 5.746h-48.07m71.96 12.347h-50.45m-11.02-6.324-10.49-6.023m10.49 6.023 11.02 6.324m-11.02-6.324h-49.23m182.93-6.023-13.34-5.746m-46.95 0h-46.95m46.95 0h46.95m-46.95 0-11.68-5.485m-35.27 5.485-10.62-5.485m10.62 5.485h-46.95m10 5.746-10-5.746m10 5.746h-48.06M1212.63 64.1h-44.87m44.87 0-10.68-5.016m10.68 5.016h44.88m-44.88 0 11.16 5.243m-56.03-5.243-9.71-5.016m9.71 5.016 10.14 5.243m-10.14-5.243h-44.88m79.07-5.016h-43.9m43.9 0h43.91m-43.91 0-10.22-4.804m65.78 9.82-11.65-5.016m11.65 5.016 12.17 5.243m-45.89 0h-45.89m45.89 0h45.89m-111.63-10.26-9.3-4.803m9.3 4.804h-43.91m63.76 10.259h-45.89m-9.13-5.243-8.74-5.016m8.74 5.016 9.13 5.243m-9.13-5.243H1078m167.86-5.016-11.16-4.804m-42.97 0h-42.98m42.98 0h42.97m-42.97 0-9.8-4.605m-33.18 4.605-8.91-4.605m8.91 4.605h-42.97m8.36 4.804-8.36-4.804m8.36 4.804h-43.9m102.28-13.826h-41.22m41.22 0-9.02-4.242m9.02 4.242h41.23m-41.23 0 9.41 4.417m-50.63-4.417-1.05-.54-7.16-3.702m8.21 4.242 8.54 4.417m-8.54-4.417h-41.23m73.43-4.242h-40.41m40.41 0h40.4m-40.4 0-8.68-4.075m58.93 8.317-9.85-4.242m9.85 4.242 10.26 4.417m-42.08 0h-42.09m42.09 0h42.08m-100.92-8.658-7.89-4.077m7.89 4.077h-40.41m57.16 8.658h-42.08m-7.69-4.417-7.39-4.242m7.39 4.242 7.69 4.417m-7.69-4.417h-41.23m155.06-4.242-9.46-4.075m-39.62 0h-39.62m39.62 0h39.62m-39.62 0-8.34-3.92m-31.28 3.92-6.65-3.439-.94-.482m7.59 3.92h-39.62m7.1 4.077-7.1-4.077m7.1 4.077h-40.41m96.17-11.77h-38.13m38.13 0-7.73-3.633m7.73 3.634h38.14m-38.14 0 8.04 3.772m-46.17-3.772-7.03-3.634m7.03 3.634 2.71 1.398 4.59 2.374m-7.3-3.772h-38.13m68.53-3.634h-37.43m37.43 0h37.43m-37.43 0-7.45-3.501m53.32 7.135-7.4-3.187-1.04-.447m8.44 3.634 8.76 3.772m-38.86 0h-38.87m38.87 0h38.86m-92.06-7.406-6.77-3.501m6.77 3.502h-37.43m51.76 7.405h-38.86m-6.57-3.772-6.33-3.634m6.33 3.634 1.62.93 4.95 2.842m-6.57-3.772h-38.13m144.09-3.634-8.13-3.501m-36.75 0h-36.75m36.75 0h36.75m-36.75 0-7.19-3.378m-29.56 3.378-6.54-3.378m6.54 3.378h-36.76m6.1 3.502-6.1-3.502m6.1 3.502h-37.42m90.7-10.14h-35.47m35.47 0-6.7-3.147m6.7 3.148h35.46m-35.46 0 6.94 3.26m-42.41-3.26-4.59-2.37-.75-.39-.75-.388m6.09 3.148 6.31 3.26m-6.31-3.26h-35.46m64.23-3.148h-34.86m34.86 0-6.47-3.04m6.47 3.04h34.86m7.3 3.148-7.3-3.148m7.3 3.148 7.57 3.26m-36.09 0h-36.1m36.1 0h36.09m-84.59-6.408h-34.86m34.86 0-5.88-3.04m18.28 9.447h-36.1m-5.67-3.26-5.49-3.147m5.49 3.148 5.67 3.26m-5.67-3.26h-35.47m93.23-6.189h-34.27m34.27 0h34.26m7.07 3.041-7.07-3.04m-97.51 3.04h-34.853m34.853 0-5.29-3.04m34.27 0h-34.27m360.81 316.959h-95.6m95.6 0-30.1-22.223m30.1 22.223 33.08 24.421m-33.08-24.421 50.38.001m-145.98-.001-25.81-22.223m25.81 22.223 28.35 24.421m-28.35-24.421h-95.61m161.11-22.223h-91.31m91.31 0-27.51-20.31m27.51 20.31h80.48m-17.3 46.644h-100.33m100.33 0 17.3 12.772m-17.3-12.772h17.3m0-24.42v24.42m0-24.42v-22.224m-171.79 0-23.58-20.31m23.58 20.31h-91.3m145.46 46.644 31.3 26.961m-31.3-26.961h-100.33m-23.63-24.421-21.5-22.223m21.5 22.223 23.63 24.421m-23.63-24.421h-95.6m229.2-42.533h-87.38m87.38 0h87.37m-87.37 0-25.25-18.634m133.24 38.944v-6.989m-195.37-13.321-21.63-18.634m21.63 18.634h-87.37m19.65 20.31-19.65-20.31m19.65 20.31h-91.3m197.91-56.101h-80.44m80.44 0-21.46-15.849m21.46 15.849h80.45m-80.45 0 23.24 17.157m-103.68-17.157-18.41-15.849m18.41 15.849 19.92 17.157m-19.92-17.157h-80.45m139.43-15.849h-77.39m77.39 0h77.38m-77.38 0-19.9-14.684m121.81 30.533-24.53-15.849m24.53 15.849 26.56 17.157m-26.56-17.157h76.03m-133.24 17.157h-83.76m83.76 0h83.77m-205.86-33.006-17.05-14.684m17.05 14.684h-77.38m115.71 33.006h-83.77m-16.6-17.157-15.34-15.849m15.34 15.849 16.6 17.157m-16.6-17.157h-80.45m297.26-15.849h77.38m-77.38 0-22.74-14.684m-74.54 0h-74.54m74.54 0h74.54m-74.54 0-18.48-13.645m-56.06 13.645-15.84-13.645m15.84 13.645h-74.53m14.2 14.684-14.2-14.684m14.2 14.684h-77.38m176.55-41.039h-69.44m69.44 0-16.08-11.87m16.08 11.87h69.44m-69.44 0 17.22 12.71m-86.66-12.71-13.78-11.87m13.78 11.87 14.76 12.71m-14.76-12.71h-69.43m122.79-11.87h-67.14m67.14 0h67.15m-67.15 0-15.04-11.11m100.56 22.98-18.37-11.87m18.37 11.87 19.68 12.71m-71.9 0h-71.9m71.9 0h71.9m-172.34-24.58-12.9-11.11m12.9 11.11h-67.14m95.68 24.58h-71.9m-12.29-12.71-11.49-11.87m11.49 11.87 12.29 12.71m-12.29-12.71h-69.444m259.384-11.87-17.2-11.11m-64.99 0h-65m65 0h64.99m-64.99 0-14.12-10.42m-50.88 10.42-12.09-10.42m12.09 10.42h-64.99m10.75 11.11-10.75-11.11m10.75 11.11h-67.142m159.002-31.324h-61.09m61.09 0-12.5-9.22m12.5 9.22h61.08m-61.08 0 13.26 9.794m-74.35-9.794-10.7-9.22m10.7 9.22 11.38 9.794m-11.38-9.794h-61.08m109.67-9.22h-59.29m59.29 0h59.3m-59.3 0-11.78-8.698m85.36 17.918-14.28-9.22m14.28 9.22 15.16 9.794m-62.98 0h-62.97m62.97 0h62.98m-148.03-19.014-10.1-8.698m10.1 8.698h-59.3m81.38 19.014h-62.98m-9.48-9.794-8.92-9.22m8.92 9.22 9.48 9.794m-9.48-9.794h-61.077m230.047-9.22-13.46-8.698m-57.62 0h-57.61m57.61 0h57.62m-57.62 0-11.13-8.217m-46.48 8.217-9.54-8.217m9.54 8.217h-57.61m8.41 8.698-8.41-8.698m8.41 8.698h-59.295m144.445-24.692h-54.52m54.52 0-9.98-7.369m9.98 7.369h54.52m-54.52 0 10.53 7.777m-65.05-7.777-8.56-7.369m8.56 7.369 9.03 7.777m-9.03-7.777h-54.519m99.059-7.369h-53.1m53.1 0h53.09m-53.09 0-9.48-6.993m73.98 14.362-11.41-7.369m11.41 7.369 12.03 7.777m-56.02 0h-56.02m56.02 0h56.02m-129.63-15.146-8.12-6.993m8.12 6.993h-53.089m70.679 15.146h-56.02m-7.529-7.777-7.13-7.369m7.13 7.369 7.529 7.777m-7.529-7.777h-54.518m206.667-7.369-10.83-6.993m-51.74 0h-51.74m51.74 0h51.74m-51.74 0-9-6.646m-42.74 6.646-7.71-6.646m7.71 6.646h-51.735m6.766 6.993-6.766-6.993m6.766 6.993h-53.092M1063.6 86.597h-49.22m49.22 0-8.16-6.023m8.16 6.023h49.23m-49.23 0 8.57 6.324m-57.79-6.324-7-6.023m7 6.023 7.34 6.324m-7.34-6.324h-49.234m90.294-6.023h-48.06m48.06 0h48.07m-48.07 0-7.78-5.746m65.17 11.77-9.32-6.024m9.32 6.023 9.79 6.324m-50.45 0h-50.45m50.45 0h50.45m-115.24-12.347-6.67-5.746m6.67 5.746h-48.062m62.402 12.347h-50.455m-6.119-6.324-5.828-6.023m5.828 6.023 6.119 6.324m-6.119-6.324h-49.229m187.593-6.023-8.9-5.746m-46.95 0h-46.95m46.95 0h46.95m-46.95 0-7.43-5.485m-39.52 5.485-6.369-5.485m6.369 5.485h-46.951m5.559 5.746-3.506-3.622-2.053-2.124m5.559 5.746h-48.064M1033.13 64.1h-44.877m44.877 0-6.8-5.016m6.8 5.016H1078m-44.87 0 7.1 5.243M988.253 64.1l-5.823-5.016m5.823 5.016 6.088 5.243m-6.088-5.243h-44.875m82.952-5.016h-43.9m43.9 0h43.91m-43.91 0-6.5-4.804M1078 64.1l-7.76-5.016M1078 64.1l8.12 5.243m-45.89 0h-45.889m45.889 0h45.89m-103.69-10.26-5.578-4.803m5.578 4.804h-43.906m55.817 10.259h-45.89m-5.073-5.243-4.854-5.016m4.854 5.016 1.247 1.289 3.826 3.954m-5.073-5.243h-44.875m171.737-5.016-7.44-4.804m-42.97 0h-42.978m42.978 0h42.97m-42.97 0-6.24-4.605m-36.738 4.605-2.701-2.327-2.645-2.278m5.346 4.605h-42.975m4.647 4.804-4.647-4.804m4.647 4.804H894.62m112.99-13.826h-41.234m41.234 0-5.75-4.242m5.75 4.242h41.23m-41.23 0 5.98 4.417m-47.214-4.417.631.542 4.499 3.876m-5.13-4.418-4.924-4.242m4.924 4.242h-41.229m76.713-4.242h-40.408m40.408 0h40.41m-40.41 0-5.521-4.075m52.501 8.317-6.57-4.242m6.57 4.242 6.83 4.417m-42.08 0h-42.084m42.084 0h42.08m-84.164 0h-42.085m32.031-8.658-4.733-4.077m4.733 4.077h-40.409m4.104 4.241-4.104-4.242m4.104 4.242 4.274 4.417m-4.274-4.417h-41.229m158.352-4.242-6.31-4.075m-39.621 0h-39.62m39.62 0h39.621m-39.621 0-5.31-3.92m-34.31 3.92-4.551-3.92m4.551 3.92H917.1m3.943 4.075-3.943-4.075m3.943 4.075h-40.408m105.284-11.768h-38.131m38.131 0-4.922-3.634m4.922 3.634h38.131m-38.131 0 5.11 3.772m-43.241-3.772-4.219-3.634m4.219 3.634 1.623 1.398 1.095.943 1.662 1.431m-4.38-3.772h-38.131m71.34-3.634h-37.428m37.428 0h37.433m-37.433 0-4.743-3.501m47.796 7.135-5.62-3.634m5.62 3.634 5.84 3.772m-38.861 0h-38.861m38.861 0h38.861m-86.321-7.406-1.542-1.328-1.017-.875-1.507-1.298m4.066 3.502h-37.428m46.027 7.405h-38.861m-3.65-3.772-.892-.922-2.624-2.712m3.516 3.634.448.464.451.465 1.365 1.412.461.475.925.956m-3.65-3.772h-38.131m146.904-3.634-5.43-3.501m-36.746 0h-36.751m36.751 0H1013m-36.746 0-3.447-2.545-1.129-.833m-32.175 3.378-1.978-1.704-1.943-1.674m3.921 3.378h-36.751m3.389 3.502-.431-.445-.428-.443-1.694-1.751-.836-.863m3.389 3.502h-37.429m98.551-10.14h-35.465m35.465 0-3.211-2.37-1.052-.777m4.263 3.148h35.467m-35.467 0 3.855 2.845.56.414m-39.88-3.26-2.754-2.37-.451-.39-.45-.387m3.655 3.148 1.875 1.615 1.909 1.644m-3.784-3.26h-35.467M963 12.329h-34.857m34.857 0-4.119-3.04m4.119 3.04h34.857m4.873 3.148-4.873-3.148m4.873 3.148 5.05 3.26m-36.102 0h-36.096m36.096 0h36.102m-79.637-6.408h-34.857m34.857 0-3.531-3.04m10.97 9.447h-36.097m-3.154-3.26-3.045-3.147m3.045 3.148 3.154 3.26m-3.154-3.26h-35.466m98.016-6.189h-34.269m34.269 0h34.268m4.708 3.041-3.546-2.29-1.162-.75m-99.863 3.04h-34.857m34.857 0-2.216-2.29-.727-.75m34.269 0h-34.269m115.467 316.959h-95.601m95.601 0-12.898-22.223m12.898 22.223h95.61m-95.61 0 14.18 24.421m-109.781-24.421-8.601-22.223m8.601 22.223 9.451 24.421m-9.451-24.421h-95.605m178.308-22.223h-91.304m91.304 0h91.308m-91.308 0-11.791-20.31m120.299 42.533-17.2-22.223m17.2 22.223 18.9 24.421m-100.33 0H919.66m100.33 0 15.65 26.961m-15.65-26.961h100.33m-218.712-46.644-7.861-20.31m7.861 20.31h-91.304m109.356 46.644 10.435 26.961m-10.435-26.961H819.33m-4.726-24.421-4.3-22.223m4.3 22.223 4.726 24.421m-4.726-24.421H719m365.22-22.223-15.73-20.31m-87.369 0h-87.374m87.374 0h87.369m-87.369 0-10.817-18.634m-76.557 18.634-7.212-18.634m7.212 18.634h-87.373m3.93 20.31-3.93-20.31m3.93 20.31H719m241.343-56.101h-80.447m80.447 0-9.201-15.849m9.201 15.849h80.447m-80.447 0 9.961 17.157m-90.408-17.157-6.134-15.849m6.134 15.849 6.639 17.157m-6.639-17.157h-80.449m151.695-15.849h-77.38m77.38 0h77.378m-77.378 0-8.525-14.684m98.173 30.533-12.27-15.849m12.27 15.849 13.28 17.157m-83.766 0h-83.769m83.769 0h83.766m-180.308-33.006-5.684-14.684m5.684 14.684h-77.381m90.154 33.006h-83.767m-3.321-17.157-3.066-15.849m3.066 15.849 3.321 17.157m-3.321-17.157H719m309.52-15.849-11.36-14.684m-74.543 0h-74.539m74.539 0h74.543m-74.543 0-7.921-13.645m-66.618 13.645-5.281-13.645m5.281 13.645h-74.539m2.842 14.684-2.842-14.684m2.842 14.684H719m208.317-41.039h-69.439m69.439 0-6.891-11.87m6.891 11.87h69.439m-69.439 0 7.379 12.71m-76.818-12.71-4.594-11.87m4.594 11.87 4.919 12.71m-4.919-12.71h-69.439m131.987-11.87h-67.142m67.142 0h67.142m-67.142 0-6.449-11.11m82.779 22.98-9.188-11.87m9.188 11.87 9.844 12.71m-71.904 0h-71.899m71.899 0h71.904m-153.316-24.58-4.3-11.11m4.3 11.11h-67.142m76.655 24.58h-71.898m-2.46-12.71-2.297-11.87m2.297 11.87 2.46 12.71m-2.46-12.71H719m268.568-11.87-8.599-11.11m-64.992 0h-64.993m64.993 0h64.992m-64.992 0-6.05-10.42m-58.943 10.42-4.032-10.42m4.032 10.42h-64.992m2.15 11.11-2.15-11.11m2.15 11.11H719m183.242-31.324h-61.08m61.08 0-5.353-9.22m5.353 9.22h61.081m-61.081 0 5.685 9.794m-66.765-9.794-3.569-9.22m3.569 9.22 3.79 9.794m-3.79-9.794h-61.081m116.808-9.22h-59.296m59.296 0h59.296m-59.296 0-5.049-8.698m71.483 17.918-7.138-9.22m7.138 9.22 7.58 9.794m-62.976 0h-62.975m62.975 0h62.976m-133.31-19.014-3.367-8.698m3.367 8.698h-59.297m66.656 19.014h-62.976m-1.895-9.794-1.785-9.22m1.785 9.22 1.895 9.794m-1.895-9.794H719m237.185-9.22-6.732-8.698m-57.613 0h-57.614m57.614 0h57.613m-57.613 0-4.771-8.217m-52.843 8.217-3.18-8.217m3.18 8.217h-57.613m1.683 8.698-1.683-8.698m1.683 8.698H719m163.555-24.692h-54.519m54.519 0-4.278-7.369m4.278 7.369h54.518m-54.518 0 4.514 7.777m-59.033-7.777-2.851-7.369m2.851 7.369 3.01 7.777m-3.01-7.777h-54.518m104.759-7.369h-53.092m53.092 0h53.092m-53.092 0-4.06-6.993m62.856 14.362-5.704-7.369m5.704 7.369 6.02 7.777m-56.024 0h-56.023m56.023 0h56.024M825.185 106.56l-2.707-6.993m2.707 6.993h-53.093m58.954 15.146h-56.023m-1.505-7.777-1.426-7.369m1.426 7.369 1.505 7.777m-1.505-7.777H719m212.369-7.369-5.413-6.993m-51.739 0h-51.739m51.739 0h51.739m-51.739 0-3.859-6.646m-47.88 6.646-2.572-6.646m2.572 6.646h-51.739m1.353 6.993-1.353-6.993m1.353 6.993H719m147.688-19.963h-49.229m49.229 0-3.497-6.023m3.497 6.023h49.229m-49.229 0 3.67 6.324m-52.899-6.324-2.332-6.023m2.332 6.023 2.447 6.324m-2.447-6.324h-49.23m94.962-6.023h-48.064m48.064 0h48.063m-48.063 0-1.27-2.186-2.066-3.56m56.062 11.77-4.663-6.024m4.663 6.023 4.895 6.324m-50.454 0h-50.452m50.452 0h50.454M815.127 80.574l-2.224-5.746m2.224 5.746h-48.064m52.843 12.347h-50.453m-1.224-6.324-1.166-6.023m1.166 6.023 1.224 6.324m-1.224-6.324H719m192.254-6.023-4.447-5.746m-46.952 0h-46.952m46.952 0h46.952m-46.952 0-3.184-5.485m-43.768 5.485-2.122-5.485m2.122 5.485h-46.951m1.111 5.746-1.111-5.746m1.111 5.746H719M853.627 64.1h-44.876m44.876 0-2.912-5.016m2.912 5.016h44.876m-44.876 0 2.269 3.91.775 1.333m-47.92-5.243-.738-1.907-1.203-3.11m1.941 5.017 2.03 5.243m-2.03-5.243h-44.876m86.84-5.016-.355-.612-2.434-4.192m2.789 4.804H806.81m43.905 0h43.905m3.883 5.016-3.883-5.016m3.883 5.016.497.643 1.509 1.95 2.052 2.65m-45.89 0h-45.89m45.89 0h45.89m-95.751-10.26-.707-1.825-.232-.602-.233-.598-.687-1.778m1.859 4.804h-43.905m47.876 10.259H764.89m-1.015-5.243-.97-5.016m.97 5.016 1.015 5.243m-1.015-5.243H719m128.926-9.82h-42.975m42.975 0h42.975m-42.975 0-2.673-4.605m49.367 9.409-3.719-4.804m-85.95 0-.678-1.75-.222-.577-.883-2.278m1.783 4.605h-42.976m.93 4.804-.118-.612-.812-4.192m.93 4.804H719m123.689-13.826h-41.23m41.23 0-1.244-2.142-.307-.529-.305-.526-.305-.523-.302-.521m2.463 4.241h41.229m-41.229 0 2.564 4.417m-43.794-4.417-1.237-3.197-.203-.523-.201-.521m1.641 4.241 1.709 4.417m-1.709-4.417h-41.23m79.997-4.242h-40.408m40.408 0h40.409m-40.409 0-1.49-2.566-.293-.506-.583-1.004m46.058 8.318-2.475-3.197-.808-1.044m3.283 4.241 1.266 1.635 1.286 1.66.868 1.123m-42.085 0h-42.085m42.085 0h42.085m-87.52-8.66-.994-2.566-.196-.506-.194-.503-.194-.5m1.578 4.075h-40.41m43.76 8.66h-42.083m-.856-4.418-.821-4.242m.821 4.242.317 1.635.321 1.66.218 1.123m-.856-4.418H719m161.635-4.242-3.155-4.075m-39.62 0h-39.62m39.62 0h39.62m-39.62 0-2.276-3.92m-37.344 3.92-1.517-3.92m1.517 3.92h-39.62m.788 4.075-.788-4.075m.788 4.075H719m114.394-11.768h-38.132m38.132 0-2.11-3.634m2.11 3.634h38.132m-38.132 0 .54.93.819 1.411.831 1.431m-40.322-3.772.18.464 1.095 2.829.186.48m-1.461-3.773-1.406-3.634m1.406 3.634h-38.131m74.153-3.634h-37.428m37.428 0h37.428m-37.428 0-2.033-3.501m42.275 7.135-2.467-3.187-.347-.447m2.814 3.634.358.464.361.465.362.47 1.838 2.373m-38.861 0h-38.861m38.861 0h38.861m-77.722 0h-38.862m35.995-7.406-.514-1.328-.169-.439-.17-.436-.502-1.298m1.355 3.502h-37.428m.703 3.633-.53-2.738-.086-.45-.087-.445m.703 3.633.73 3.772m-.73-3.772H719m149.712-3.634-2.71-3.501m-36.751 0h-36.75m36.75 0h36.751m-36.751 0-.496-.856-.247-.425-.245-.423-.246-.422-.242-.42-.243-.416-.241-.416m-34.79 3.378-.166-.43-.165-.426-.329-.848-.162-.422-.163-.42-.161-.416-.161-.416m1.307 3.378H755.75m.678 3.502-.678-3.502m.678 3.502H719m106.398-10.14h-35.465m35.465 0-1.376-2.37-.45-.777m1.826 3.148h35.467m-35.467 0 .703 1.208.235.407.238.408.717 1.236m-37.358-3.26-.155-.399-.307-.793-.305-.787-.451-1.168m1.218 3.148.625 1.615.157.408.319.822.16.414m-1.261-3.26h-35.467m69.106-3.147h-34.857m34.857 0-1.548-2.666-.218-.375m1.766 3.041h34.857m2.436 3.148-2.436-3.148m2.436 3.148 2.523 3.26m-36.097 0h-36.097m36.097 0h36.097m-74.673-6.408-.15-.386-.149-.384-.148-.382-.147-.381-.439-1.133-.145-.375m1.178 3.041h-34.858m37.337 6.407h-36.097m-.631-3.26-.609-3.147m.609 3.148.631 3.26m-.631-3.26H719m102.806-6.189h-34.269m34.269 0h34.269m2.354 3.041-1.188-1.533-.877-1.133-.289-.375m-68.538 0h-34.269m.589 3.041-.074-.386-.075-.384-.074-.382-.366-1.889m.589 3.041H719m-95.604 313.919h-95.605m95.605 0 4.3-22.223m-4.3 22.223H719m-95.604 0-4.726 24.421m-90.879-24.421 8.601-22.223m-8.601 22.223-9.451 24.421m9.451-24.421h-95.605m195.51-22.223h-91.304m91.304 0H719m-91.304 0 3.93-20.31M719 326.247v-22.223m0 22.223v24.421m-100.33 0H518.34m100.33 0-5.218 26.961m5.218-26.961H719m-182.608-46.644 7.861-20.31m-7.861 20.31h-91.304m73.252 46.644-10.435 26.961m10.435-26.961H418.009m14.177-24.421 12.902-22.223m-12.902 22.223-14.177 24.421m14.177-24.421h-95.605M719 304.024v-20.31m-87.374 0h-87.373m87.373 0H719m-87.374 0 3.606-18.634m-90.979 18.634 7.211-18.634m-7.211 18.634h-87.374m-11.791 20.31 11.791-20.31m-11.791 20.31h-91.304m284.769-56.101h-80.449m80.449 0 3.066-15.849m-3.066 15.849H719m-80.447 0-3.321 17.157m-77.128-17.157 6.134-15.849m-6.134 15.849-6.64 17.157m6.64-17.157h-80.447m163.962-15.849h-77.381m77.381 0H719m-77.381 0 2.842-14.684M719 247.923v-15.849m0 15.849v17.157m-83.768 0h-83.768m83.768 0H719m-154.762-33.006 5.684-14.684m-5.684 14.684h-77.38m64.606 33.006h-83.768m9.961-17.157 9.201-15.849m-9.201 15.849-9.961 17.157m9.961-17.157h-80.448M719 232.074V217.39m-74.539 0h-74.539m74.539 0H719m-74.539 0 2.64-13.645m-77.179 13.645 5.281-13.645m-5.281 13.645h-74.539m-8.525 14.684 8.525-14.684m-8.525 14.684h-77.381m240.084-41.039h-69.439m69.439 0 2.297-11.87m-2.297 11.87H719m-69.439 0-2.46 12.71m-66.979-12.71 4.594-11.87m-4.594 11.87-4.919 12.71m4.919-12.71h-69.439m141.175-11.87h-67.142m67.142 0H719m-67.142 0 2.15-11.11M719 191.035v-11.87m0 11.87v12.71m-71.899 0h-71.898m71.898 0H719m-134.284-24.58 4.299-11.11m-4.299 11.11h-67.142m57.629 24.58h-71.899m7.379-12.71 6.891-11.87m-6.891 11.87-7.379 12.71m7.379-12.71h-69.439M719 179.165v-11.11m-64.992 0h-64.993m64.993 0H719m-64.992 0 2.016-10.42m-67.009 10.42 4.033-10.42m-4.033 10.42h-64.992m-6.449 11.11 6.449-11.11m-6.449 11.11h-67.142m207.487-31.324h-61.081m61.081 0 1.785-9.22m-1.785 9.22H719m-61.081 0-1.895 9.794m-59.186-9.794 3.569-9.22m-3.569 9.22-3.79 9.794m3.79-9.794h-61.08m123.946-9.22h-59.297m59.297 0H719m-59.296 0 1.683-8.698M719 147.841v-9.22m0 9.22v9.794m-62.976 0h-62.976m62.976 0H719m-118.593-19.014 3.367-8.698m-3.367 8.698h-59.296m51.937 19.014h-62.975m5.685-9.794 5.353-9.22m-5.353 9.22-5.685 9.794m5.685-9.794h-61.081M719 138.621v-8.698m-57.613 0h-57.613m57.613 0H719m-57.613 0 1.59-8.217m-59.203 8.217 3.18-8.217m-3.18 8.217H546.16m-5.049 8.698 5.049-8.698m-5.049 8.698h-59.296m182.667-24.692h-54.518m54.518 0 1.426-7.369m-1.426 7.369H719m-54.518 0-1.505 7.777m-53.013-7.777 2.851-7.369m-2.851 7.369-3.01 7.777m3.01-7.777h-54.519m110.463-7.369h-53.093m53.093 0H719m-53.092 0 1.353-6.993M719 113.929v-7.369m0 7.369v7.777m-56.023 0h-56.023m56.023 0H719M612.815 106.56l2.707-6.993m-2.707 6.993h-53.092m47.231 15.146h-56.023m4.514-7.777 4.278-7.369m-4.278 7.369-4.514 7.777m4.514-7.777h-54.518M719 106.56v-6.993m-51.739 0h-51.739m51.739 0H719m-51.739 0 1.129-5.833.157-.813m-53.025 6.646 2.572-6.646m-2.572 6.646h-51.739m-4.06 6.993 4.06-6.993m-4.06 6.993h-53.092m163.14-19.963h-49.23m49.23 0 1.166-6.023m-1.166 6.023H719m-49.229 0-1.224 6.324m-48.006-6.324 2.332-6.023m-2.332 6.023-2.447 6.324m2.447-6.324h-49.229m99.625-6.023h-48.064m48.064 0H719m-48.063 0 1.111-5.746M719 86.598v-6.024m0 6.023v6.324m-50.453 0h-50.453m50.453 0H719m-96.127-12.347 2.224-5.746m-2.224 5.746h-48.064m43.285 12.347h-50.453m3.671-6.324 3.497-6.023m-3.497 6.023-3.671 6.324m3.671-6.324h-49.229M719 80.575v-5.746m-46.952 0h-46.951m46.951 0H719m-46.952 0 1.062-5.485m-48.013 5.485 2.122-5.485m-2.122 5.485h-46.952m-3.336 5.746.849-1.462 2.487-4.284m-3.336 5.746h-48.063M674.125 64.1h-44.876m44.876 0 .97-5.016m-.97 5.016H719m-44.875 0-1.015 5.243M629.249 64.1l1.703-4.4.238-.616m-1.941 5.016-2.03 5.243m2.03-5.243h-44.876m90.722-5.016.118-.612.812-4.192m-.93 4.804H631.19m43.905 0H719m0 5.016v-5.016m0 5.016v5.243m-45.89 0h-45.891m45.891 0H719m-87.81-10.26.707-1.825.232-.602.233-.598.687-1.778m-1.859 4.804h-43.905m39.934 10.259h-45.89m3.044-5.243 2.912-5.016m-2.912 5.016-2.27 3.91-.774 1.333m3.044-5.243h-44.876m136.528-9.82h-42.976m42.976 0H719m-42.975 0 .226-1.17.445-2.301.219-1.133M719 59.084V54.28m-85.951 0 .678-1.75.222-.577.883-2.278m-1.783 4.605h-42.975m-2.789 4.804 2.789-4.804m-2.789 4.804H543.38m134.391-13.826h-41.23m41.23 0 .82-4.242m-.82 4.242H719m-41.229 0-.317 1.635-.107.551-.106.554-.216 1.115-.11.563m-40.374-4.418 1.237-3.197.405-1.044m-1.642 4.241-1.709 4.417m1.709-4.417h-41.23m83.28-4.242h-40.408m40.408 0H719m-40.409 0 .789-4.075M719 45.258v-4.242m0 4.242v4.417m-42.085 0h-42.083m42.083 0H719m-80.817-8.658.992-2.567.197-.506.194-.503.194-.5m-1.577 4.075h-40.409m37.058 8.66h-42.085m2.564-4.418 1.551-2.67.305-.527.305-.523.302-.521m-2.463 4.241-2.238 3.855-.326.563m2.564-4.418h-41.229M719 41.016v-4.075m-39.62 0h-39.62m39.62 0H719m-39.62 0 .759-3.92m-40.379 3.92 1.517-3.92m-1.517 3.92h-39.62m-2.366 4.075 1.195-2.058.295-.508.293-.506.583-1.004m-2.366 4.077h-40.409m123.504-11.77h-38.131m38.131 0 .703-3.632m-.703 3.633H719m-38.131 0-.73 3.772m-37.401-3.772-.18.464-1.095 2.829-.186.48m1.461-3.773 1.406-3.633m-1.406 3.633h-38.132m76.966-3.633h-37.428m37.428 0H719m-37.428 0 .677-3.502M719 29.248v-3.634m0 3.634v3.772m-38.861 0h-38.862m38.862 0H719m-77.723 0h-38.861m41.728-7.405.514-1.329.169-.439.17-.436.502-1.298m-1.355 3.502h-37.428m-2.11 3.633 2.11-3.633m-2.11 3.633-.54.93-.819 1.411-.831 1.431m2.19-3.772h-38.132M719 25.614v-3.501m-36.751 0h-36.75m36.75 0H719m-36.751 0 .654-3.378m-37.404 3.378.166-.43.494-1.274.162-.422.163-.42.161-.416.161-.416m-1.307 3.378h-36.75m-2.033 3.502 2.033-3.502m-2.033 3.502h-37.428m114.245-10.14h-35.466m35.466 0 .61-3.147m-.61 3.148H719m-35.467 0-.63 3.26m-34.836-3.26.155-.4.308-.793.152-.395.303-.783.15-.39.151-.387m-1.219 3.148-.625 1.615-.157.408-.319.822-.16.414m1.261-3.26h-35.466m71.542-3.147.074-.386.075-.384.074-.382.365-1.889m-.588 3.041h-34.857m34.857 0H719m0 3.148v-3.148m0 3.148v3.26m-36.097 0h-36.097m36.097 0H719m-69.714-6.408h-34.858m34.858 0 .298-.77.148-.382.147-.381.438-1.133.146-.375m-3.657 9.448h-36.097m1.892-3.26 1.377-2.37.45-.777m-1.827 3.148-1.175 2.023-.717 1.236m1.892-3.26h-35.466m107.596-6.188h-34.268m34.268 0H719m0 3.041v-3.04m-104.572 3.04h-34.857m34.857 0 1.33-2.29.436-.75m34.269 0h-34.269M240.977 326.246h-95.604m95.604 0 21.503-22.223m-21.503 22.223h95.604m-95.604 0-23.629 24.421m-71.975-24.421 25.803-22.223m-25.803 22.223-28.354 24.421m28.354-24.421H49.768m212.712-22.223h-91.304m91.304 0h91.304m-91.304 0 19.651-20.31m54.45 42.533 17.203-22.223m-17.203 22.223-18.902 24.421m-100.331 0H117.019m100.329 0-26.085 26.961m26.085-26.961h100.331m-146.503-46.644 23.582-20.31m-23.582 20.31H79.872m37.147 46.644-31.303 26.961m31.303-26.961H16.689m33.079-24.421 30.104-22.223m-30.104 22.223-33.08 24.421m33.08-24.421H-.612m354.396-22.223 15.721-20.31m-87.374 0h-87.373m87.373 0h87.374m-87.374 0 18.03-18.634m-105.403 18.634 21.635-18.634m-21.635 18.634h-87.374m-27.512 20.31 27.512-20.31m-27.512 20.31H-.612m317.373-56.101h-80.448m80.448 0 15.335-15.849m-15.335 15.849h80.448m-80.448 0-16.6 17.157m-63.848-17.157 18.402-15.849m-18.402 15.849-19.92 17.157m19.92-17.157h-80.447m176.23-15.849h-77.381m77.381 0h77.381m-77.381 0 14.208-14.684m50.905 30.533 12.268-15.849m-12.268 15.849-13.28 17.157m-83.768 0h-83.768m83.768 0h83.768m-129.214-33.006 17.05-14.684m-17.05 14.684h-77.381m39.059 33.006h-83.768m23.241-17.157 21.468-15.849m-21.468 15.849-23.241 17.157m23.241-17.157H75.418m334.059-15.849 11.367-14.684m-74.54 0h-74.539m74.539 0h74.54m-74.54 0 13.202-13.645m-87.741 13.645 15.842-13.645m-15.842 13.645h-74.539m-19.892 14.684 19.892-14.684m-19.892 14.684H99.953m271.851-41.039h-69.439m69.439 0 11.486-11.87m-11.486 11.87h69.44m-69.44 0-12.298 12.71m-57.141-12.71 13.782-11.87m-13.782 11.87-14.758 12.71m14.758-12.71h-69.439m150.364-11.87h-67.143m67.143 0h67.142m-67.142 0 10.749-11.11m47.205 22.98 9.188-11.87m-9.188 11.87-9.839 12.71m-71.899 0h-71.899m71.899 0h71.899m-115.258-24.58 12.899-11.11m-12.899 11.11h-67.142m38.602 24.58h-71.899m17.218-12.71 16.079-11.87m-16.079 11.87-17.218 12.71m17.218-12.71h-69.439m286.945-11.87 8.599-11.11m-64.992 0h-64.993m64.993 0h64.992m-64.992 0 10.082-10.42m-75.075 10.42 12.099-10.42m-12.099 10.42h-64.992m-15.049 11.11 15.049-11.11m-15.049 11.11h-67.142m231.733-31.324h-61.08m61.08 0 8.922-9.22m-8.922 9.22h61.081m-61.081 0-9.475 9.794m-51.605-9.794 10.706-9.22m-10.706 9.22-11.371 9.794m11.371-9.794h-61.081m131.083-9.22h-59.296m59.296 0h59.297m-59.297 0 8.416-8.698m43.743 17.918 7.138-9.22m-7.138 9.22-7.58 9.794m-62.976 0h-62.976m62.976 0h62.976m-103.875-19.014 10.099-8.698m-10.099 8.698h-59.296m37.219 19.014h-62.976m13.266-9.794 12.491-9.22m-12.491 9.22-13.266 9.794m13.266-9.794h-61.08m251.46-9.22 6.732-8.698m-57.613 0h-57.613m57.613 0h57.613m-57.613 0 7.951-8.217m-65.564 8.217 9.54-8.217m-9.54 8.217h-57.614m-11.781 8.698 11.781-8.698m-11.781 8.698h-59.297m201.78-24.692H391.89m54.519 0 7.13-7.369m-7.13 7.369h54.518m-54.518 0-7.524 7.777m-46.995-7.777 8.556-7.369m-8.556 7.369-9.029 7.777m9.029-7.777h-54.519m116.168-7.369h-53.093m53.093 0h53.092m-53.092 0 6.766-6.993m40.622 14.362 1.455-1.878 4.249-5.491m-5.704 7.369-6.02 7.777m-56.022 0h-56.024m56.024 0h56.022m-94.461-15.146 8.12-6.993m-8.12 6.993h-53.092m35.507 15.146h-56.023m10.533-7.777 9.983-7.369m-9.983 7.369-10.533 7.777m10.533-7.777h-54.518m223.778-7.369 5.413-6.993m-51.739 0h-51.739m51.739 0h51.739m-51.739 0 6.43-6.646m-58.169 6.646 7.716-6.646m-7.716 6.646h-51.739m-9.473 6.993 9.473-6.993m-9.473 6.993h-53.093m178.593-19.963h-49.229m49.229 0 5.828-6.023m-5.828 6.023h49.229m-49.229 0-6.119 6.324m-43.11-6.323 6.994-6.024m-6.994 6.024-7.343 6.323m7.343-6.323h-49.229m104.286-6.024h-48.063m48.063 0h48.064m-48.064 0 5.559-5.746m37.842 11.77 4.663-6.024m-4.663 6.023-4.895 6.324m-50.453 0h-50.453m50.453 0h50.453m-86.569-12.347 6.671-5.746m-6.671 5.746h-48.063m33.726 12.347H365.83m8.566-6.323 8.16-6.024m-8.16 6.024-8.566 6.323m8.566-6.323h-49.23m201.58-6.024 4.447-5.746m-46.952 0H437.29m46.951 0h46.952m-46.952 0 5.308-5.485m-52.259 5.485 6.369-5.485m-6.369 5.485h-46.952m-7.782 5.746 7.782-5.746m-7.782 5.746h-48.064M494.622 64.1l-.622.643-.625.646-3.826 3.954m5.073-5.243h-44.876m44.876 0 4.853-5.016m-4.853 5.016h44.875m-49.948 5.243h-45.89m45.89 0h45.89M449.746 64.1l5.824-5.016m-5.824 5.016-6.087 5.243m6.087-5.243H404.87m94.605-5.016H455.57m43.905 0h43.905m-43.905 0 4.648-4.804m35.374 9.82 3.883-5.016m-3.883 5.016-2.006 2.592-2.052 2.65M455.57 59.085l5.578-4.804m-5.578 4.804h-43.905m31.994 10.259h-45.89m7.101-5.243 6.795-5.016M404.87 64.1l-7.101 5.243m7.101-5.243h-44.875m183.385-5.016 3.719-4.804m-42.976 0h-42.975m42.975 0h42.976m-42.976 0 1.132-1.17 3.324-3.434m-47.431 4.604 2.031-1.75.67-.577 2.645-2.278m-5.346 4.605h-42.975m-6.508 4.804 6.508-4.804m-6.508 4.804H367.76m145.093-13.826h-41.23m41.23 0 4.104-4.241m-4.104 4.241h41.229m-41.229 0-4.274 4.417m-36.956-4.417 3.102-2.67 1.823-1.571m-4.925 4.241-5.129 4.417m5.129-4.417h-41.23m86.564-4.241h-40.409m40.409 0h40.408m-40.408 0 3.458-3.576.485-.5m33.182 8.317 2.474-3.197.809-1.044m-3.283 4.241-1.266 1.635-2.154 2.782m-42.083 0h-42.085m42.085 0h42.083m-74.114-8.658 4.732-4.076m-4.732 4.076h-40.409m30.355 8.658h-42.085m5.984-4.417 5.746-4.241m-5.746 4.241-5.984 4.417m5.984-4.417h-41.229m168.201-4.242 3.155-4.075m-39.62 0h-39.62m39.62 0h39.62m-39.62 0 3.793-3.92m-43.413 3.92 4.552-3.92m-4.552 3.92h-39.619m-5.522 4.076 3.477-2.567.684-.506 1.361-1.003m-5.522 4.076h-40.408m132.612-11.769h-38.131m38.131 0 .891-.922 2.625-2.711m-3.516 3.633h38.131m-38.131 0-.899.93-1.826 1.886-.925.956m-34.481-3.772 4.219-3.633m-4.219 3.633-1.623 1.398-1.095.943-1.662 1.431m4.38-3.772h-38.131m79.778-3.633h-37.428m37.428 0h37.429m-37.429 0 2.553-2.64.836-.862m31.226 7.135 2.467-3.187.347-.446m-2.814 3.633-.358.464-.361.465-.362.47-1.838 2.373m-38.862 0h-38.861m38.861 0h38.862m-69.124-7.405 1.542-1.329 1.017-.875 1.507-1.298m-4.066 3.502h-37.428m28.829 7.405h-38.861m5.11-3.772 4.922-3.633m-4.922 3.633-3.171 2.341-.644.475-1.295.956m5.11-3.772h-38.132m155.339-3.633 2.71-3.502m-36.75 0h-36.751m36.751 0h36.75m-36.75 0 3.267-3.378m-40.018 3.378 1.978-1.704.489-.422 1.454-1.252m-3.921 3.378h-36.751m-4.743 3.502 4.743-3.502m-4.743 3.502h-37.429m122.095-10.14h-35.467m35.467 0 1.916-1.98 1.129-1.167m-3.045 3.148h35.466m-35.466 0-3.154 3.26m-32.313-3.26 2.754-2.37.451-.39.45-.388m-3.655 3.148-1.875 1.615-1.909 1.644m3.784-3.26h-35.465m73.977-3.147h-34.857m34.857 0 1.484-1.533.732-.757.364-.376.362-.375m-2.942 3.041h34.857m-2.436 3.148 1.835-2.37.601-.778m-2.436 3.148-2.523 3.26m-36.097 0h-36.097m36.097 0h36.097m-64.755-6.408H475m34.857 0 3.531-3.04m-10.97 9.447h-36.097m4.416-3.26 3.211-2.37 1.052-.777m-4.263 3.148-3.855 2.845-.561.414m4.416-3.26H435.27m112.386-6.188h-34.268m34.268 0h34.269m-2.354 3.041 1.188-1.533.877-1.133.289-.375M475 12.328h-34.857m34.857 0 4.119-3.04m34.269 0h-34.269M22.573 232.073h77.38m-77.38 0 25.574-14.684m-25.574 14.684H-.612m23.185 0L-.612 245.387m100.565-13.313 22.733-14.684m-22.733 14.684-24.535 15.849m-27.27-30.533 23.763-13.645M48.147 217.39h74.539m-74.539 0H-.613m0 14.684V217.39m0 14.684v13.313m0 0v2.536m94.661-56.888H24.609m69.439 0 20.672-11.87m-20.672 11.87h69.439m-69.439 0-22.137 12.71m-47.302-12.71 22.97-11.87m-22.97 11.87L.012 203.745m24.597-12.71H-.612m115.332-11.87H47.578m67.142 0h67.143m-67.143 0 19.35-11.11m29.417 22.98 18.376-11.87m-18.376 11.87-19.678 12.71m-71.898 0H.01m71.9 0h71.898m-96.23-24.58 21.498-11.11m-21.499 11.11H-.612m.624 24.58h-.624m.624 0-.624.323m0-13.033v-11.87m0 11.87v12.71m182.475-24.58 17.199-11.11m-64.992 0H69.077m64.993 0h64.992m-64.992 0 18.147-10.42m-83.14 10.42 20.165-10.42m-20.165 10.42H4.085m-4.697 11.11v-8.903m169.886-22.421h-61.081m61.081 0 16.059-9.22m-16.059 9.22h61.081m-61.081 0-17.057 9.794m-44.024-9.794 17.843-9.22m-17.843 9.22-18.951 9.794m18.951-9.794H47.112m138.221-9.22h-59.297m59.297 0h59.296m-59.296 0 15.148-8.698m29.874 17.918 14.274-9.22m-14.274 9.22-15.162 9.794m-62.976 0H89.242m62.975 0h62.976m-89.157-19.014 16.832-8.698m-16.832 8.698H66.74m22.502 19.014H26.266m20.846-9.794 19.628-9.22m-19.628 9.22-20.846 9.794m20.846-9.794H-.612m245.241-9.22 13.465-8.698m-57.613 0h-57.613m57.613 0h57.613m-57.613 0 14.311-8.217m-71.924 8.217 15.901-8.217m-15.901 8.217H85.254m-18.514 8.698 18.514-8.698m-18.514 8.698H7.444m220.891-24.692h-54.518m54.518 0 12.834-7.369m-12.834 7.369h54.518m-54.518 0-13.543 7.777m-40.975-7.777 14.26-7.369m-14.26 7.369-15.048 7.777m15.048-7.777h-54.519m121.871-7.369h-53.092m53.092 0h53.092m-53.092 0 12.18-6.993m29.504 14.362 11.408-7.369m-11.408 7.369-12.037 7.777m-56.024 0h-56.023m56.023 0h56.024m-82.739-15.146 13.534-6.993m-13.534 6.993h-53.092m23.784 15.146h-56.023m16.552-7.777 15.687-7.369m-15.687 7.369-16.552 7.777m16.552-7.777H64.78m229.481-7.369 10.828-6.993m-51.74 0h-51.738m51.738 0h51.74m-51.74 0 11.575-6.646m-63.313 6.646 12.86-6.646m-12.86 6.646h-51.74m-14.886 6.993 14.886-6.993m-14.886 6.993H81.893m194.044-19.962h-49.229m49.229 0 10.491-6.024m-10.491 6.024h49.229m-49.229 0-11.013 6.323m-38.216-6.323 11.657-6.024m-11.657 6.024-12.237 6.323m12.237-6.323h-49.229m108.949-6.024h-48.063m48.063 0h48.064m-48.064 0 10.007-5.746m28.731 11.77 9.326-6.024m-9.326 6.024-9.789 6.323m-50.453 0h-50.453m50.453 0h50.453m-77.012-12.347 11.118-5.746m-11.118 5.746h-48.064m24.17 12.347h-50.453m13.461-6.323 12.822-6.024m-12.822 6.024-13.461 6.323m13.461-6.323h-49.23m206.243-6.024 8.894-5.746m-46.951 0h-46.952m46.952 0h46.951m-46.951 0 9.553-5.485m-56.505 5.485 10.615-5.485m-10.615 5.485h-46.952m-12.23 5.746 12.23-5.746m-12.23 5.746h-48.063M315.119 64.1h-44.875m44.875 0 8.737-5.016m-8.737 5.016h44.876m-44.876 0-9.131 5.243M270.244 64.1l9.707-5.016m-9.707 5.016-10.146 5.243m10.146-5.243h-44.876m98.488-5.016h-43.905m43.905 0h43.904m-43.904 0 8.366-4.804m27.773 9.82 7.765-5.016m-7.765 5.016-8.117 5.243m-45.89 0h-45.89m45.89 0h45.89m-71.927-10.26 9.296-4.803m-9.296 4.804h-43.905m24.052 10.259h-45.89m11.16-5.243 10.678-5.016M225.368 64.1l-11.16 5.243m11.16-5.243h-44.876m187.268-5.016 7.437-4.804m-42.975 0h-42.975m42.975 0h42.975m-42.975 0 8.019-4.605m-50.994 4.605 8.909-4.604m-8.909 4.604h-42.976m-10.225 4.804 10.225-4.804m-10.225 4.804h-43.905m155.794-13.826h-41.229m41.229 0 7.387-4.241m-7.387 4.241h41.229m-41.229 0-7.694 4.417m-33.535-4.417 8.207-4.241m-8.207 4.241-8.55 4.418m8.55-4.418h-41.231m89.847-4.241h-40.409m40.409 0h40.409m-40.409 0 7.099-4.076m26.743 8.317 6.567-4.241m-6.567 4.241-6.838 4.417m-42.085 0h-42.085m42.085 0h42.085m-67.413-8.658 7.888-4.076m-7.888 4.076h-40.409m23.652 8.659h-42.083m9.402-4.418 9.029-4.241m-9.029 4.241-9.402 4.418m9.402-4.418h-41.229m171.485-4.241 6.31-4.076m-39.62 0h-39.62m39.62 0h39.62m-39.62 0 6.826-3.92m-46.446 3.92 6.653-3.439.932-.482m-7.585 3.92h-39.62m-8.677 4.077 8.677-4.076m-8.677 4.076h-40.408m141.722-11.769h-38.131m38.131 0 6.328-3.633m-6.328 3.633h38.131m-38.131 0-1.62.93-.814.468-4.137 2.374m-31.56-3.772 7.031-3.633m-7.031 3.633-7.301 3.772m7.301-3.772h-38.131m82.59-3.633h-37.428m37.428 0h37.428m-37.428 0 6.099-3.502m25.704 7.135 5.625-3.633m-5.625 3.633-5.84 3.772m-38.862 0h-38.861m38.861 0h38.862m-63.391-7.405 6.777-3.502m-6.777 3.502H307.29m23.096 7.405h-38.861m8.031-3.772 7.734-3.633m-7.734 3.633-8.031 3.772m8.031-3.772h-38.132m158.15-3.633 5.422-3.502m-36.751 0h-36.75m36.75 0h36.751m-36.751 0 5.882-3.378m-42.632 3.378 6.535-3.378m-6.535 3.378h-36.751m-7.454 3.502 7.454-3.502m-7.454 3.502h-37.428m129.942-10.14h-35.466m35.466 0 5.482-3.147m-5.482 3.148h35.466m-35.466 0-5.677 3.26m-29.789-3.26 4.588-2.37.752-.39.751-.388m-6.091 3.148-6.308 3.26m6.308-3.26h-35.466m76.414-3.148h-34.857m34.857 0 4.643-2.666.653-.375m-5.296 3.041h34.857m-4.873 3.148 4.873-3.148m-4.873 3.148-5.045 3.26m-36.098 0H358.03m36.097 0h36.098m-59.796-6.408h-34.858m34.858 0 5.884-3.04m-18.283 9.447h-36.096m6.938-3.26 6.699-3.147m-6.699 3.148-6.938 3.26m6.938-3.26h-35.467m117.177-6.189h-34.269m34.269 0h34.269m-4.708 3.041 3.546-2.29 1.162-.75m-109.28 3.04h-34.857m34.857 0 6.473-3.04m34.269 0h-34.269M10.262 113.928 28.8 106.56m-18.538 7.369H64.78m-54.518 0-10.874 4.323m10.874-4.323H-.612M28.8 106.56h53.093m-53.093 0 17.593-6.993M28.8 106.56H-.612m65.392 7.369 17.113-7.369m-17.113 7.369-18.057 7.777m-47.335-3.454v-4.323m0 4.323v3.454m0-7.777v-7.369m82.505 0 16.24-6.993m-51.74 0 16.72-6.646m-16.72 6.646h51.74m-51.74 0H-.612m0 6.993v-6.993m79.632-12.97H29.79m49.23 0 15.155-6.023M79.02 86.598h49.229m-49.229 0L63.112 92.92M29.79 86.598l16.32-6.024m-16.32 6.024L12.66 92.92m17.13-6.323H-.612m94.787-6.024H46.11m48.064 0h48.063m-48.063 0 14.453-5.746m19.621 11.77 13.989-6.024m-13.989 6.024-14.684 6.323m-50.453 0H12.66m50.453 0h50.453M46.111 80.574l15.565-5.745M46.11 80.574H-.612M12.659 92.92-.612 97.82m13.271-4.899H-.612m0-6.323h-.366m.366 0v-6.024m0 6.024v6.323m142.85-12.347 13.341-5.746m-46.951 0H61.676m46.952 0h46.951m-46.951 0 13.799-5.485m-60.751 5.486 14.861-5.486m-14.861 5.486H14.724M-.612 80.574v-.462M135.617 64.1H90.741m44.876 0 12.619-5.016M135.617 64.1h44.875m-44.875 0-13.19 5.243M90.741 64.1l13.59-5.016M90.741 64.1l-14.204 5.243M90.741 64.1H45.865m102.371-5.016h-43.905m43.905 0h43.905m-43.905 0 12.085-4.804m20.171 9.82 11.649-5.016M180.492 64.1l-12.175 5.243m-45.89 0h-45.89m45.89 0h45.89m-63.986-10.259 13.014-4.804m-13.014 4.804H60.426m16.111 10.259h-45.89M45.865 64.1l14.56-5.016M45.866 64.1l-15.218 5.243M45.865 64.1H.99m191.151-5.016 11.155-4.804m-42.975 0h-42.976m42.976 0h42.975m-42.975 0 11.583-4.604m-54.559 4.604 12.475-4.604m-12.475 4.604H74.37m-13.944 4.804L74.37 54.28m-13.944 4.804H16.52m166.496-13.826h-41.229m41.229 0 10.67-4.241m-10.67 4.241h41.229m-41.229 0-11.113 4.418m-30.116-4.418 11.49-4.241m-11.49 4.241-11.968 4.418m11.968-4.418h-41.231m93.13-4.241h-40.409m40.409 0h40.409m-40.409 0 10.254-4.076m20.305 8.317 9.85-4.241m-9.85 4.241-10.258 4.418m-42.084 0H129.82m42.084 0h42.084m-60.71-8.66 11.043-4.075m-11.043 4.076H112.87m16.95 8.659H87.735m12.822-4.418 12.313-4.241m-12.313 4.241-12.822 4.418m12.822-4.418H59.328m174.768-4.241 9.465-4.076m-39.62 0h-39.62m39.62 0h39.62m-39.62 0 9.861-3.92m-49.481 3.92 10.62-3.92m-10.62 3.92h-39.62m-11.831 4.076 11.831-4.076m-11.831 4.076H72.461m150.832-11.769h-38.132m38.132 0 9.14-3.633m-9.14 3.633h38.131m-38.131 0-9.491 3.772m-28.641-3.772 9.844-3.633m-9.844 3.633-10.22 3.772m10.22-3.772H147.03m85.403-3.633h-37.428m37.428 0h37.429m-37.429 0 8.81-3.502m20.181 7.135 7.4-3.187 1.038-.446m-8.438 3.633-8.761 3.772m-38.861 0h-38.861m38.861 0h38.861m-57.658-7.405 9.488-3.502m-9.488 3.502h-37.428m17.364 7.405h-38.862m10.951-3.772 10.547-3.633m-10.547 3.633-10.951 3.772m10.951-3.772h-38.131m160.963-3.633 8.132-3.502m-36.751 0h-36.75m36.75 0h36.751m-36.751 0 8.497-3.378m-45.247 3.378 9.149-3.378m-9.149 3.378h-36.751m-10.165 3.502 10.165-3.502m-10.165 3.502h-37.428m137.79-10.14h-35.466m35.466 0 7.918-3.147m-7.918 3.148h35.466m-35.466 0-8.199 3.26m-27.267-3.26L231 12.328m-8.527 3.148-8.831 3.26m8.831-3.26h-35.467m78.851-3.148H231m34.857 0 7.65-3.04m-7.65 3.04h34.857m-7.309 3.148 7.309-3.148m-7.309 3.148-7.568 3.26m-36.097 0h-36.098m36.098 0h36.097M231 12.327h-34.858m34.858 0 8.239-3.04m-25.597 9.447h-36.096m9.46-3.26 9.136-3.147m-9.136 3.148-9.46 3.26m9.46-3.26h-35.465m121.966-6.189h-34.268m34.268 0h34.269m-7.062 3.041 7.062-3.04m-111.634 3.04h-34.857m34.857 0 8.828-3.04m34.269 0H204.97M18.099 45.257l13.954-4.241m-13.954 4.241h41.23m-41.23 0L3.566 49.676M18.1 45.258H-.612m32.665-4.241H72.46m-40.408 0L45.46 36.94m-13.408 4.076H-.612m59.94 4.241 13.133-4.241m-13.133 4.241-13.677 4.418m-42.085 0h42.085m-42.085 0H-.612m4.178 0-4.178 1.27m0-5.688v-4.241m0 4.241v4.418m73.073-8.66 12.62-4.075m-39.62 0H5.841m39.62 0h39.62m-39.62 0 12.896-3.92m-58.97 7.996v-2.224m71.38-9.545h-38.13m38.13 0 11.954-3.633m-11.953 3.633h38.131m-38.131 0L58.357 33.02m-25.72-3.772 12.656-3.633m-12.657 3.633-13.14 3.772m13.14-3.772H-.611m83.333-3.633H45.293m37.428 0h37.428m-37.428 0 11.52-3.502m14.658 7.135 11.25-3.633m-11.25 3.633L97.218 33.02m-38.861 0H19.495m38.862 0h38.861m-51.925-7.405 12.198-3.502m-12.198 3.502H7.865m11.63 7.405L5.842 36.94m13.653-3.92H-.612m0-3.772H-.73m.117 0V27.92m0 1.328v3.772m120.761-7.405 10.843-3.502m-36.75 0H57.49m36.75 0h36.751m-36.75 0 11.11-3.378m-47.861 3.378 11.764-3.378m-11.764 3.378H20.74M7.865 25.615l12.875-3.502M7.865 25.615-.612 27.92m8.477-2.305H-.612m116.686-10.14H80.608m35.466 0 10.354-3.147m-10.354 3.148h35.467m-35.467 0-10.722 3.26m-24.744-3.26 10.963-3.148m-10.963 3.148-11.353 3.26m11.353-3.26H45.14m81.287-3.148H91.571m34.857 0 10.004-3.04m-10.004 3.04h34.857m-9.744 3.148 9.744-3.148m-9.744 3.148-10.092 3.26m-36.097 0H69.255m36.097 0h36.097m-49.878-6.408H56.714m34.857 0 10.593-3.04m-32.909 9.447H33.158m11.983-3.26 11.573-3.147M45.14 15.476l-11.983 3.26m11.983-3.26H9.676m126.756-6.189h-34.268m34.268 0h34.269m-9.416 3.041 9.416-3.04m-113.987 3.04H21.857m34.857 0 11.181-3.04m34.269 0H67.895m-34.737 9.447L20.74 22.113m12.418-3.378H-.612m10.288-3.26 12.18-3.147m-12.18 3.148L-.612 18.134m10.288-2.658H-.612m22.469-3.148 11.77-3.04m-11.77 3.04H-.613m68.508-3.04H33.627m34.268 0 10.81-2.94M20.74 22.112H-.612m0-3.378v-.601m0 .601v3.378m0-3.98v-2.657m0 0v-3.148m34.239-3.04 11.379-2.94m-11.38 2.94H-.611m0 3.04v-3.04m79.317-2.94h-33.7M-.611 9.287h-.03l.03-.008m0 .007V9.28m0 18.64v-2.305m0 0v-3.502m131.604 0 10.457-3.378m-10.457 3.378h36.75m-26.293-3.378h36.097M5.842 36.941l-6.454 1.852m6.454-1.852H-.612m0-3.92v3.92m0 1.852v-1.852m85.693 0 12.137-3.92m-12.137 3.92h39.62m-27.483-3.92h38.861m41.467-14.286-9.804 3.378M204.97 9.287h-34.269m34.269 0 8.534-2.94m-42.803 2.94 9.104-2.94m33.699 0h-33.699m98.189 15.766 7.843-3.378m-7.843 3.378h36.75m-28.907-3.378h36.097M136.079 33.02l-11.378 3.92m118.86 0 9.102-3.92m-9.102 3.92h39.62m-30.518-3.92h38.862M87.735 49.676 74.37 54.28m13.365-4.604H45.65m0 0L31.394 54.28m42.976 0H31.394m0 0-14.873 4.804m14.873-4.804H-.611m0-4.604v1.27m0 0v3.334m17.133 4.804L.991 64.1m15.53-5.016H-.612m203.908-4.804 10.692-4.604m-10.692 4.604h42.975m-246.883 0h-.225m.225 0v4.804m214.6-9.408h42.085M30.647 69.343l-15.923 5.486m15.923-5.486H-.613M.99 64.1l-1.602.518M.99 64.1H-.612m0-5.016V64.1m0 .518-.388.125m.388-.125V64.1m0 .518v4.725m15.336 5.486H-.612m15.336 0L-.612 80.112m0-10.77v5.487m0 0v5.283m156.191-5.284 12.738-5.485m-12.738 5.485h46.952m-34.214-5.485h45.891M-.612 97.82l-.147.054m.147-.054V92.92m0 4.899v1.747m114.177-6.646h50.453m-50.453 0-15.433 6.646m223.802-80.832-7.19 3.378m27.3-12.826h-34.268m34.268 0 6.259-2.94m-40.527 2.94.866-.373 1.722-.74 4.239-1.827m33.7 0h-33.7m110.393 15.766 5.229-3.378m-5.229 3.378h36.75m-31.521-3.378h36.096M291.525 33.02l-8.344 3.92m118.86 0 6.068-3.92m-6.068 3.92h39.62m-33.552-3.92h38.862M256.073 49.676l-9.802 4.604m128.926 0 7.129-4.605m-7.129 4.605h42.976m-35.847-4.605h42.083M214.208 69.344l-11.677 5.485m140.855 0 8.492-5.485m-8.492 5.485h46.952m-38.46-5.485h45.891M164.018 92.92l-14.147 6.646m0 0H98.132m206.957 0 10.288-6.646m-10.288 6.646h51.738m-41.45-6.646h50.453m-263.084 28.785-17.492 8.217m17.492-8.217H46.723m0 0-19.082 8.217m19.082-8.217H-.612m85.866 8.217H27.641m0 0-20.197 8.698m20.197-8.698H-.612m0-8.217v8.217m8.056 8.698H-.612m8.056 0-8.056 3.469m258.706-12.167 12.722-8.217m-12.722 8.217h57.613m-316.32 0v8.698m271.429-16.915h56.022M26.266 157.635l-22.18 10.42m22.18-10.42H-.612m0-9.794v-5.751m0 5.751V157.635m0-19.014v3.469m4.697 25.965-4.697 2.207m4.697-2.207H-.612m0-10.42v10.42m0 2.207v-2.207m199.674 0 16.131-10.42m-16.131 10.42h64.992m-48.861-10.42h62.976M-.612 203.745v.323m0 0v13.322m144.421-13.645h71.899m-71.899 0-21.123 13.645M466.321 18.735l-1.128.833-3.447 2.545m17.373-12.826h-34.268m34.268 0 3.983-2.94m-38.251 2.94 1.725-1.114 2.826-1.826m33.7 0h-33.7m122.596 15.766.662-.856 1.952-2.522m-2.614 3.378h36.751m-34.137-3.378h36.097M446.971 33.02l-5.31 3.92m118.859 0 .386-.498.384-.496 2.265-2.926m-3.035 3.92h39.62m-36.585-3.92h38.861M424.409 49.675l-6.236 4.605m128.926 0 3.563-4.605m-3.563 4.605h42.975m-39.412-4.605h42.085M397.769 69.344l-7.431 5.485m140.855 0 4.246-5.485m-4.246 5.485h46.952m-42.706-5.485h45.89M365.83 92.92l-9.003 6.646m155.217 0 5.144-6.646m-5.144 6.646h51.739m-46.595-6.646h50.453m-240.803 28.785-11.131 8.217m172.84 0 6.36-8.217m-6.36 8.217h57.613m-51.253-8.217h56.024m-272.762 35.929-14.115 10.42m194.977 0 8.066-10.42m-8.066 10.42h64.992m-56.926-10.42h62.976m-314.365 46.11-18.482 13.645m0 0h-74.54m298.158 0 10.561-13.645m-10.561 13.645h74.539m-63.978-13.645h71.899M132.625 265.08l-25.241 18.634m25.241-18.634H48.857m26.561-17.157-26.56 17.157m26.56-17.157H-.612m49.47 17.157L20.01 283.714m28.847-18.634H-.613m0-17.157v17.157m107.997 18.634H20.01m0 0H-.612m20.622 0L-.612 297.035m0-31.955v18.634m0 20.31v-6.989m0 6.989v22.223m370.117-42.533 14.424-18.634m-14.424 18.634h87.374m-457.491 0v13.321m384.541-31.955h83.767M16.688 350.668l-17.3 12.773m17.3-12.773h-17.3m0-24.421v24.421m86.328 26.961h105.547m-105.547 0-86.328-.001m0-14.187v-12.773m0 12.773v14.187m191.875.001H296.81m-297.422-.001v.097H1438.61v-.097m-1141.8.001 20.869-26.961m-20.869 26.961h105.548m-84.679-26.961h100.33m192.7-331.933-.241.416-.243.417-.243.42-.245.42-.988 1.705m7.445-12.826.216-.373.43-.74.428-.736.211-.365.422-.726m-1.707 2.94h-34.269m0 0 1.995-2.578.282-.362m33.699 0h-33.699M719 22.113v-3.378m0 3.378h36.75M719 18.735h36.097M602.416 33.02l-2.276 3.92m118.86 0v-3.92m0 3.92h39.62M719 33.02h38.861M592.747 49.675l-2.673 4.605m128.926 0v-4.605m0 4.605h42.975M719 49.675h42.085M581.329 69.344l-3.184 5.485m140.855 0v-5.485m0 5.485h46.952M719 69.343h45.89M567.641 92.92l-3.858 6.646m155.217 0V92.92m0 6.646h51.739M719 92.92h50.453m-218.522 28.785-4.771 8.217m172.84 0v-8.217m0 8.217h57.613M719 121.706h56.023m-244.95 35.929-6.05 10.42m194.977 0v-10.42m0 10.42h64.992M719 157.635h62.976m-278.672 46.11-7.921 13.645m223.617 0v-13.645m0 13.645h74.539M719 203.745h71.899M467.696 265.08l-10.817 18.634m262.121 0V265.08m0 18.634h87.374M719 265.08h83.768m-384.759 85.588-15.651 26.961m105.547 0H402.358m105.547 0h105.547m0 0H719m0 0v-26.961m0 26.961h105.548M719 350.668h100.33M755.097 18.735l.081.416.08.417.082.42.41 2.125m-2.482-12.826H719m34.268 0-.215-1.114-.072-.368-.281-1.458M719 9.287v-2.94m33.7 0H719m147.002 15.766-.662-.856-1.952-2.522m2.614 3.378h36.75m-39.364-3.378h36.097M757.861 33.02l.759 3.92m118.86 0-3.035-3.92m3.035 3.92h39.62m-42.655-3.92h38.862M761.085 49.675l.218 1.134.446 2.302.226 1.17m128.926 0-3.563-4.605m3.563 4.604h42.976m-46.539-4.605h42.083M764.89 69.344l1.062 5.485m140.855 0-4.246-5.485m4.246 5.485h46.952m-51.198-5.485h45.89M769.453 92.92l1.286 6.646m155.217 0-5.144-6.646m5.144 6.646h51.739m-56.883-6.646h50.453m-196.242 28.785 1.59 8.217m172.84 0-6.36-8.217m6.36 8.217h57.617m-63.977-8.217h56.027m-217.144 35.929 2.016 10.42m194.977 0-8.066-10.42m8.066 10.42h64.991m-73.057-10.42h62.977m-242.981 46.11 2.64 13.645m223.621 0-10.56-13.645m10.56 13.645h74.54m-85.1-13.645h71.89M802.768 265.08l3.606 18.634m262.116 0-14.42-18.634m14.42 18.634h87.38m-101.8-18.634h83.77m-318.51 85.588 5.218 26.961m105.547 0H824.548m105.547 0h105.545m0 0h105.55m0 0-20.87-26.961m20.87 26.961h105.55m-126.42-26.961h100.33M899.485 18.735l3.267 3.378M890.343 9.287h-34.268m34.268 0-2.142-2.214-.702-.726m-31.424 2.94-.289-.373-.574-.74-1.413-1.827m33.7 0h-33.7M1013 22.113l-5.22-3.378m5.22 3.378h36.75m-41.97-3.378h36.09M913.307 33.02l3.793 3.92m118.86 0-5.32-3.438-.75-.482m6.07 3.92h39.62m-45.69-3.92h38.86M929.421 49.675l4.456 4.605m128.923 0-7.13-4.605m7.13 4.605h42.98m-50.11-4.605h42.09M948.451 69.344l5.308 5.485m140.851 0-8.49-5.485m8.49 5.485h46.96m-55.45-5.485h45.89M971.265 92.92l6.43 6.646m155.215 0-10.29-6.646m10.29 6.646h51.74m-62.03-6.646h50.46m-173.96 28.785 7.95 8.217m172.84 0-12.73-8.217m12.73 8.217h57.61m-70.34-8.217h56.03m-189.33 35.929 10.08 10.42m194.98 0-16.13-10.42m16.13 10.42h64.99m-81.12-10.42h62.97m-207.29 46.11 13.21 13.645m223.61 0-21.12-13.645m21.12 13.645h74.54m-95.66-13.645h71.9m-228.25 61.335 18.03 18.634m262.12 0-28.85-18.634m28.85 18.634h20.62m-20.62 0 20.62 13.321m-49.47-31.955h49.47m-217.96 85.588 26.09 26.961m105.54 0h-105.54m105.54 0 86.33-.001m0 0V363.44m0 0v-12.772M1043.87 18.735l5.88 3.378m-22.33-12.826-.65-.373-4.47-2.567m5.12 2.94h-34.271m0 0-1.725-1.114-2.827-1.826m33.703 0h-33.703m171.413 15.766-7.85-3.378m7.85 3.378h36.75m-44.6-3.378h36.1M1068.75 33.02l6.83 3.92m118.86 0-9.1-3.92m9.1 3.92h39.62m-48.72-3.92h38.86m-126.44 16.655 8.02 4.605m128.92 0-10.69-4.605m10.69 4.605h42.98m-53.67-4.605h42.09m-134.09 19.668 9.56 5.485m140.85 0-12.74-5.485m12.74 5.485h46.95m-59.69-5.485h45.89M1173.08 92.92l11.57 6.646m155.22 0-15.44-6.646m15.44 6.646h51.74m-67.18-6.646h50.46m-151.68 28.785 14.31 8.217m172.84 0-19.08-8.217m19.08 8.217h28.25m-47.33-8.217h47.33m-152.83 35.929 18.15 10.42m129.98 0h4.7m-4.7 0 4.7 2.207m0-2.207v2.207m0-2.207v-10.42m-72.52 46.11 23.76 13.645m48.76-13.645v.323m0 0v13.322m-48.76 0 25.58 14.684m-25.58-14.684h48.76m-23.18 14.684h23.18m-23.18 0 23.18 13.313m0-13.313v13.313m0-13.313V217.39m0 27.997v2.536m0 0v17.157m0 0v18.634m0 0v13.321m-250.35-278.3 8.5 3.378m-32.27-12.826-.94-.373-6.45-2.567m7.39 2.94h-34.27m0 0-.86-.373-5.96-2.567m33.7 0h-33.7m183.61 15.766-10.46-3.378m10.46 3.378h36.75m-47.21-3.378h36.1M1224.2 33.02l9.86 3.92m118.86 0-12.14-3.92m12.14 3.92h39.62m-51.76-3.92h38.86M1266.1 49.675l11.58 4.605m128.93 0-14.26-4.605m14.26 4.605h32m-46.26-4.605h42.08m-118.86 19.668 13.8 5.485m109.24-5.485v-4.726m-63.72 28.304 16.72 6.646m47-6.646v4.899m0 0 .15.054m-.15-.054v1.747m-47 0 17.59 6.993m-17.59-6.993h47m-29.41 6.993 18.54 7.369m-18.54-7.369h29.41m-10.87 7.369h10.87m-10.87 0 10.87 4.323m0-11.692v7.369m0-7.369v-6.993m0 14.362v4.323m0 0v3.454m0 0v8.217m0 8.698v3.469m0-3.469v-8.698M1332.65 18.735l11.11 3.378m-42.19-12.826h-34.27m34.27 0-9.68-2.94m-24.59 2.94-9.1-2.94m33.69 0h-33.69m180.41 15.766v-3.378m0 0v-.601m-58.97 14.886 12.9 3.92m39.62 0h-39.62m39.62 0 6.45 1.853m-6.45-1.852h6.45m0-3.92v3.92m-46.07 0 13.41 4.075m0 0 13.95 4.242m-13.95-4.242h32.66m-18.71 4.242 14.53 4.417m-14.53-4.417h18.71m0-4.242v4.242m0-4.242v-2.223m0 0v-1.852m-4.18 12.734 4.18 1.27m-4.18-1.27h4.18m0-4.417v4.417m0 1.27v3.335m0-3.334v-1.27m0 9.408V64.1m0-5.016V54.28m0 0h.23m-.23 9.82v.517m0 0 .39.126m-.39-49.267v2.658m0-2.658v-3.148m-34.24-3.04-11.38-2.941m11.38 2.94h34.24m0 3.041v-3.04m-45.62-2.941h33.7m11.92 2.94h.03l-.03-.007m0 .007V9.28m-11.92-2.933 11.92 2.933m-11.92-2.933h11.92m0 2.933V6.347M-.612 9.28V6.347" stroke="url(#c)" stroke-width=".6" stroke-miterlimit="10" stroke-linecap="round" stroke-linejoin="round"/></g></g><defs><clipPath id="a"><path fill="#fff" d="M0 0h1438v378H0z"/></clipPath><clipPath id="b"><path fill="#fff" transform="translate(-1 -.25)" d="M0 0h1440v379H0z"/></clipPath><radialGradient id="c" cx="0" cy="0" r="1" gradientUnits="userSpaceOnUse" gradientTransform="matrix(0 -590.104 2254.13 0 719 363.831)"><stop stop-color="#F5F7F8"/><stop offset=".489" stop-color="#B7BCC2" stop-opacity="0"/></radialGradient></defs></svg>