<svg width="1438" height="378" viewBox="0 0 1438 378" fill="none" xmlns="http://www.w3.org/2000/svg">
<g clip-path="url(#clip0_268_8)">
<g clip-path="url(#clip1_268_8)">
<path d="M22.8641 3.50316L34.0503 0.75012M22.8641 3.50316L56.0135 3.50315M22.8641 3.50316L11.3061 6.34711M22.8641 3.50316H-0.612488M34.0503 0.75012L29.9799 0.7512L25.9516 0.75716L22.0072 0.77392L18.1865 0.80693L14.5315 0.8605L11.0811 0.94113L7.87656 1.05313L4.90225 1.19597L2.34984 1.39347L0.0261148 1.62236L-0.612488 1.70252V3.50316M34.0503 0.75012H66.6667M56.0135 3.50315L66.6667 0.75012M56.0135 3.50315H89.1629M56.0135 3.50315L53.2955 4.20548L45.0057 6.3471M11.3061 6.34711L45.0057 6.3471M11.3061 6.34711L-0.612488 9.28018M11.3061 6.34711H-0.612488M-0.612488 3.50316V6.34711M66.6667 0.75012H99.283M99.283 0.75012L131.9 0.75011M99.283 0.75012L89.1629 3.50315M131.9 0.75011H164.517M131.9 0.75011L122.312 3.50315M89.1629 3.50315H122.312M89.1629 3.50315L78.7052 6.3471M164.517 0.75011H197.133M164.517 0.75011L155.461 3.50314M122.312 3.50315L155.461 3.50314M122.312 3.50315L112.405 6.3471M197.133 0.75011H229.75M197.133 0.75011L188.61 3.50314M155.461 3.50314H188.61M155.461 3.50314L146.105 6.34709M229.75 0.75011L262.367 0.7501M229.75 0.75011L221.76 3.50314M188.61 3.50314H221.76M188.61 3.50314L186.436 4.20547L185.342 4.55826L179.805 6.34709M262.367 0.7501H294.983M262.367 0.7501L254.909 3.50314M221.76 3.50314H254.909M221.76 3.50314L219.722 4.20547L213.504 6.34709M294.983 0.7501H327.6M294.983 0.7501L288.059 3.50313M254.909 3.50314L288.059 3.50313M254.909 3.50314L247.204 6.34709M327.6 0.7501L360.217 0.75009M327.6 0.7501L321.208 3.50313M288.059 3.50313H321.208M288.059 3.50313L286.292 4.20546L285.403 4.55826L280.904 6.34708M360.217 0.75009H392.833M360.217 0.75009L354.357 3.50313M321.208 3.50313H354.357M321.208 3.50313L314.603 6.34708M392.833 0.75009H425.45M392.833 0.75009L387.507 3.50312M354.357 3.50313L387.507 3.50312M354.357 3.50313L352.863 4.20546L352.11 4.55825L348.303 6.34708M425.45 0.75009H458.067M425.45 0.75009L424.266 1.43023L422.472 2.45992L420.656 3.50312M387.507 3.50312H420.656M387.507 3.50312L386.828 3.85321L386.148 4.20545L382.003 6.34707M458.067 0.75009L490.683 0.75008M458.067 0.75009L457.015 1.43022L453.806 3.50312M420.656 3.50312H453.806M420.656 3.50312L419.433 4.20545L418.817 4.55824L415.703 6.34707M490.683 0.75008H523.3M490.683 0.75008L486.955 3.50311M453.806 3.50312L486.955 3.50311M453.806 3.50312L449.402 6.34707M523.3 0.75008H555.917M523.3 0.75008L522.114 1.77218L520.912 2.8062L520.509 3.15412L520.104 3.50311M486.955 3.50311H520.104M486.955 3.50311L486.48 3.8532L486.004 4.20545L485.525 4.55824L483.102 6.34707M555.917 0.75008L588.533 0.75007M555.917 0.75008L554.928 1.77217L554.596 2.11522L554.262 2.45991L553.253 3.50311M520.104 3.50311H553.253M520.104 3.50311L519.289 4.20544L518.878 4.55823L518.466 4.91319L516.802 6.34706M588.533 0.75007H621.15M588.533 0.75007L586.402 3.50311M553.253 3.50311H586.402M553.253 3.50311L552.574 4.20544L551.198 5.62688L550.851 5.98616L550.501 6.34706M621.15 0.75007L620.953 1.08932L620.756 1.43021L619.755 3.15411L619.552 3.5031M621.15 0.75007H653.766M586.402 3.50311L619.552 3.5031M586.402 3.50311L586.131 3.85319L585.859 4.20544L585.585 4.55823L584.202 6.34706M619.552 3.5031H652.701M619.552 3.5031L617.901 6.34705M653.766 0.75007H686.384M653.766 0.75007L652.701 3.5031M686.384 0.75007L719 0.75006M686.384 0.75007L686.186 1.77216L685.851 3.5031M652.701 3.5031H685.851M652.701 3.5031L652.566 3.85318L652.43 4.20543L652.293 4.55822L651.601 6.34705M719 0.75006H751.616M719 0.75006V3.50309M685.851 3.5031L719 3.50309M685.851 3.5031L685.3 6.34705M751.616 0.75006H784.234M751.616 0.75006L751.814 1.77216L752.149 3.50309M719 3.50309H752.149M719 3.50309V6.34704M784.234 0.75006L816.85 0.75005M784.234 0.75006L785.299 3.50309M752.149 3.50309H785.299M752.149 3.50309L752.7 6.34704M816.85 0.75005L817.047 1.08931L817.244 1.43019L818.245 3.15409L818.448 3.50309M816.85 0.75005H849.466M785.299 3.50309H818.448M785.299 3.50309L785.434 3.85317L785.57 4.20542L785.707 4.55821L786.121 5.62686L786.399 6.34704M818.448 3.50309L851.598 3.50308M818.448 3.50309L820.099 6.34704M849.466 0.75005H882.084M849.466 0.75005L851.327 3.15409L851.598 3.50308M882.084 0.75005H914.7M882.084 0.75005L883.072 1.77215L883.404 2.1152L884.073 2.80617L884.409 3.15409L884.747 3.50308M851.598 3.50308H884.747M851.598 3.50308L851.869 3.85317L852.141 4.20541L852.415 4.55821L853.799 6.34703M914.7 0.75005L947.317 0.75004M914.7 0.75005L915.886 1.77214L917.087 2.80616L917.491 3.15408L917.896 3.50308M884.747 3.50308H917.896M884.747 3.50308L885.426 4.20541L886.802 5.62685L887.499 6.34703M947.317 0.75004H979.933M947.317 0.75004L951.045 3.50307M917.896 3.50308L951.045 3.50307M917.896 3.50308L918.711 4.20541L919.122 4.5582L919.533 4.91315L921.198 6.34703M979.933 0.75004H1012.55M979.933 0.75004L980.985 1.43018L984.194 3.50307M951.045 3.50307L951.52 3.85316L954.898 6.34702M951.045 3.50307H984.194M1012.55 0.75004L1045.17 0.75003M1012.55 0.75004L1017.34 3.50307M984.194 3.50307H1017.34M984.194 3.50307L984.737 3.85316L988.597 6.34702M1045.17 0.75003H1077.78M1045.17 0.75003L1050.49 3.50307M1017.34 3.50307H1050.49M1017.34 3.50307L1018.57 4.2054L1019.18 4.55819L1022.3 6.34702M1077.78 0.75003H1110.4M1077.78 0.75003L1083.64 3.50306M1050.49 3.50307L1083.64 3.50306M1050.49 3.50307L1051.17 3.85315L1051.85 4.2054L1056 6.34701M1110.4 0.75003H1143.02M1110.4 0.75003L1116.79 3.50306M1083.64 3.50306H1116.79M1083.64 3.50306L1085.14 4.20539L1085.89 4.55819L1089.7 6.34701M1143.02 0.75003L1175.63 0.75002M1143.02 0.75003L1149.94 3.50306M1116.79 3.50306H1149.94M1116.79 3.50306L1117.61 3.85314L1123.4 6.34701M1175.63 0.75002H1208.25M1175.63 0.75002L1183.09 3.50305M1149.94 3.50306L1183.09 3.50305M1149.94 3.50306L1151.71 4.20539L1152.6 4.55818L1157.1 6.34701M1208.25 0.75002H1240.87M1208.25 0.75002L1216.24 3.50305M1183.09 3.50305H1216.24M1183.09 3.50305L1190.8 6.347M1240.87 0.75002L1273.48 0.75001M1240.87 0.75002L1249.39 3.50305M1216.24 3.50305H1249.39M1216.24 3.50305L1218.28 4.20538L1224.5 6.347M1273.48 0.75001H1306.1M1273.48 0.75001L1282.54 3.50305M1249.39 3.50305H1282.54M1249.39 3.50305L1251.56 4.20538L1252.66 4.55817L1258.2 6.347M1306.1 0.75001H1338.72M1306.1 0.75001L1315.69 3.50304M1282.54 3.50305L1315.69 3.50304M1282.54 3.50305L1291.89 6.34699M1338.72 0.75001H1371.33M1338.72 0.75001L1348.84 3.50304M1315.69 3.50304H1348.84M1315.69 3.50304L1325.6 6.34699M1371.33 0.75001L1403.95 0.75M1371.33 0.75001L1381.99 3.50304M1348.84 3.50304H1381.99M1348.84 3.50304L1359.29 6.34699M1403.95 0.75L1408.02 0.75108L1412.05 0.75704L1415.99 0.7738L1419.81 0.80681L1423.47 0.86037L1426.92 0.941L1430.12 1.05301L1433.1 1.19584L1435.65 1.39335L1437.97 1.62223L1438.61 1.70241V3.50303M1403.95 0.75L1415.14 3.50303M1381.99 3.50304L1415.14 3.50303M1381.99 3.50304L1384.7 4.20537L1392.99 6.34699M1438.61 3.50303H1415.14M1438.61 3.50303V6.34698M1415.14 3.50303L1426.69 6.34698M1359.29 6.34699L1370.1 9.28724M1359.29 6.34699H1325.6M1359.29 6.34699H1392.99M1325.6 6.34699L1335.84 9.28724M1325.6 6.34699H1291.89M1224.5 6.347L1233.03 9.28725M1224.5 6.347H1190.8M1224.5 6.347H1258.2M1190.8 6.347L1198.76 9.28725M1190.8 6.347L1157.1 6.34701M1089.7 6.34701L1095.96 9.28726M1089.7 6.34701H1056M1089.7 6.34701H1123.4M1056 6.34701L1059.53 8.17318L1061.69 9.28727M1056 6.34701L1022.3 6.34702M954.898 6.34702L958.881 9.28727M954.898 6.34702L921.198 6.34703M954.898 6.34702H988.597M921.198 6.34703L923.318 8.17319L924.612 9.28728M921.198 6.34703H887.499M820.099 6.34704L820.521 7.07263L821.159 8.1732L821.59 8.91394L821.806 9.28729M820.099 6.34704H786.399M820.099 6.34704L853.799 6.34703M786.399 6.34704L786.822 7.43786L787.393 8.91394L787.537 9.28729M786.399 6.34704H752.7M685.3 6.34705L685.23 6.70904L685.16 7.07264L685.089 7.43787L685.018 7.80473L684.946 8.17321L684.731 9.2873M685.3 6.34705H651.601M685.3 6.34705L719 6.34704M651.601 6.34705L651.178 7.43787L650.607 8.91395L650.463 9.2873M651.601 6.34705H617.901M550.501 6.34706L549.799 7.07266L547.656 9.28731M550.501 6.34706H516.802M550.501 6.34706H584.202M516.802 6.34706L514.682 8.17322L513.388 9.28731M516.802 6.34706L483.102 6.34707M415.703 6.34707L411.231 8.91397L410.582 9.28732M415.703 6.34707H382.003M415.703 6.34707H449.402M382.003 6.34707L378.47 8.17324L376.313 9.28733M382.003 6.34707L348.303 6.34708M280.904 6.34708L273.507 9.28733M280.904 6.34708L247.204 6.34709M280.904 6.34708H314.603M247.204 6.34709L239.239 9.28734M247.204 6.34709H213.504M146.105 6.34709L136.432 9.28735M146.105 6.34709H179.805M146.105 6.34709L112.405 6.3471M112.405 6.3471L102.164 9.28735M112.405 6.3471H78.7052M1438.73 29.2479H1438.61M1438.61 29.2479H1405.36M1438.61 29.2479V33.0203M1438.61 29.2479V27.9196M1405.36 29.2479L1392.71 25.6145M1405.36 29.2479L1418.5 33.0203M1405.36 29.2479H1367.23M1392.71 25.6145H1430.14M1392.71 25.6145L1380.51 22.1126M1392.71 25.6145H1355.28M1418.5 33.0203L1432.16 36.9405M1418.5 33.0203H1379.64M1418.5 33.0203H1438.61M1367.23 29.2479L1355.28 25.6145M1367.23 29.2479L1379.64 33.0203M1367.23 29.2479H1329.1M1430.14 25.6145L1417.26 22.1126M1430.14 25.6145H1438.61M1430.14 25.6145L1438.61 27.9196M1380.51 22.1126L1368.74 18.7351M1380.51 22.1126H1343.76M1380.51 22.1126H1417.26M1355.28 25.6145L1343.76 22.1126M1355.28 25.6145H1317.85M1417.26 22.1126L1404.84 18.7351M1417.26 22.1126H1438.61M1438.61 25.6145V27.9196M1438.61 25.6145V22.1126M1392.86 15.4756H1357.39M1392.86 15.4756L1381.29 12.3281M1392.86 15.4756H1428.32M1392.86 15.4756L1404.84 18.7351M1357.39 15.4756L1346.43 12.3281M1357.39 15.4756L1368.74 18.7351M1357.39 15.4756H1321.93M1381.29 12.3281H1346.43M1381.29 12.3281L1370.1 9.28724M1381.29 12.3281H1416.14M1428.32 15.4756L1416.14 12.3281M1428.32 15.4756H1438.61M1428.32 15.4756L1438.61 18.1337M1404.84 18.7351H1368.74M1404.84 18.7351H1438.61M1346.43 12.3281H1311.57M1346.43 12.3281L1335.84 9.28724M1368.74 18.7351H1332.65M1321.93 15.4756L1311.57 12.3281M1321.93 15.4756L1332.65 18.7351M1321.93 15.4756H1286.46M1370.1 9.28724H1335.84M1370.1 9.28724H1404.37M1416.14 12.3281L1404.37 9.28724M1416.14 12.3281H1438.61M1311.57 12.3281H1276.71M1311.57 12.3281L1301.57 9.28724M1335.84 9.28724H1301.57M1438.98 86.5975H1438.61M1438.61 86.5975H1408.21M1438.61 86.5975V80.5736M1438.61 86.5975V92.9211M1408.21 86.5975L1391.89 80.5736M1408.21 86.5975L1425.34 92.9211M1408.21 86.5975H1358.98M1391.89 80.5736L1376.32 74.8283M1391.89 80.5736H1343.83M1391.89 80.5736H1438.61M1425.34 92.9211H1374.89M1425.34 92.9211H1438.61M1425.34 92.9211L1438.61 97.8197M1358.98 86.5975L1343.83 80.5736M1358.98 86.5975L1374.89 92.9211M1358.98 86.5975H1309.75M1376.32 74.8283H1423.28M1376.32 74.8283L1361.46 69.3428M1376.32 74.8283H1329.37M1343.83 80.5736L1329.37 74.8283M1343.83 80.5736H1295.76M1438.61 80.5736V80.1118M1423.28 74.8283L1407.35 69.3428M1423.28 74.8283H1438.61M1423.28 74.8283L1438.61 80.1118M1407.35 69.3428L1392.13 64.0997M1407.35 69.3428H1361.46M1407.35 69.3428H1438.61M1438.61 74.8283V80.1118M1438.61 74.8283V69.3428M1392.13 64.0997H1347.26M1392.13 64.0997L1377.57 59.0838M1392.13 64.0997H1437.01M1347.26 64.0997L1333.67 59.0839M1347.26 64.0997L1361.46 69.3428M1347.26 64.0997H1302.38M1377.57 59.0838L1333.67 59.0839M1377.57 59.0838H1421.48M1377.57 59.0838L1363.63 54.2801M1437.01 64.0997L1421.48 59.0838M1437.01 64.0997H1438.61M1437.01 64.0997L1438.61 64.6173M1333.67 59.0839L1320.66 54.2801M1333.67 59.0839H1289.76M1361.46 69.3428H1315.57M1302.38 64.0997L1289.76 59.0839M1302.38 64.0997L1315.57 69.3428M1302.38 64.0997H1257.51M1421.48 59.0838L1406.61 54.2801M1421.48 59.0838H1438.61M1363.63 54.2801H1320.66M1363.63 54.2801H1406.61M1363.63 54.2801L1350.27 49.6755M1320.66 54.2801L1308.18 49.6755M1320.66 54.2801H1277.68M1289.76 59.0839L1277.68 54.2801M1289.76 59.0839H1245.86M1337.44 45.258H1296.21M1337.44 45.258L1325.13 41.0165M1337.44 45.258H1378.67M1337.44 45.258L1350.27 49.6755M1296.21 45.258L1284.72 41.0165M1296.21 45.258L1308.18 49.6755M1296.21 45.258H1254.98M1325.13 41.0165H1284.72M1325.13 41.0165H1365.54M1325.13 41.0165L1313.3 36.9405M1378.67 45.258H1419.9M1378.67 45.258L1365.54 41.0165M1378.67 45.258L1392.35 49.6755M1350.27 49.6755H1308.18M1350.27 49.6755H1392.35M1284.72 41.0165L1273.68 36.9405M1284.72 41.0165H1244.31M1308.18 49.6755H1266.1M1254.98 45.258L1244.31 41.0165M1254.98 45.258L1266.1 49.6755M1254.98 45.258L1213.75 45.2581M1365.54 41.0165H1405.95M1365.54 41.0165L1352.92 36.9405M1313.3 36.9405H1273.68M1313.3 36.9405H1352.92M1313.3 36.9405L1301.92 33.0203M1273.68 36.9405L1263.06 33.0203M1273.68 36.9405H1234.06M1244.31 41.0165L1234.06 36.9405M1244.31 41.0165H1203.9M1290.97 29.2479H1252.84M1290.97 29.2479L1280.42 25.6145M1290.97 29.2479H1329.1M1290.97 29.2479L1301.92 33.0203M1252.84 29.2479L1242.99 25.6145M1252.84 29.2479L1263.06 33.0203M1252.84 29.2479H1214.71M1280.42 25.6145H1242.99M1280.42 25.6145H1317.85M1280.42 25.6145L1270.26 22.1126M1329.1 29.2479L1317.85 25.6145M1329.1 29.2479L1340.78 33.0203M1301.92 33.0203H1263.06M1301.92 33.0203H1340.78M1242.99 25.6145L1233.51 22.1126M1242.99 25.6145H1205.57M1263.06 33.0203H1224.2M1214.71 29.2479L1205.57 25.6145M1214.71 29.2479L1224.2 33.0203M1214.71 29.2479H1176.58M1317.85 25.6145L1307.01 22.1126M1270.26 22.1126H1233.51M1270.26 22.1126H1307.01M1270.26 22.1126L1260.45 18.7351M1233.51 22.1126L1224.36 18.7351M1233.51 22.1126H1196.76M1205.57 25.6145L1196.76 22.1126M1205.57 25.6145H1168.14M1250.99 15.4756H1215.53M1250.99 15.4756L1241.86 12.3281M1250.99 15.4756H1286.46M1250.99 15.4756L1260.45 18.7351M1215.53 15.4756L1207 12.3281M1215.53 15.4756L1224.36 18.7351M1215.53 15.4756L1180.06 15.4757M1241.86 12.3281H1207M1241.86 12.3281L1233.03 9.28725M1241.86 12.3281H1276.71M1286.46 15.4756L1276.71 12.3281M1286.46 15.4756L1296.55 18.7351M1260.45 18.7351H1224.36M1260.45 18.7351H1296.55M1207 12.3281L1172.14 12.3282M1207 12.3281L1198.76 9.28725M1224.36 18.7351H1188.26M1180.06 15.4757L1172.14 12.3282M1180.06 15.4757L1188.26 18.7351M1180.06 15.4757H1144.59M1233.03 9.28725H1198.76M1233.03 9.28725H1267.3M1276.71 12.3281L1267.3 9.28725M1172.14 12.3282H1137.29M1172.14 12.3282L1164.49 9.28726M1198.76 9.28725L1164.49 9.28726M1413.39 191.034L1390.42 179.165M1413.39 191.034L1437.99 203.745M1413.39 191.034H1343.95M1413.39 191.034H1438.61M1390.42 179.165L1368.92 168.055M1390.42 179.165H1323.28M1390.42 179.165H1438.61M1437.99 203.745H1366.09M1437.99 203.745H1438.61M1437.99 203.745L1438.61 204.068M1343.95 191.034L1323.28 179.165M1343.95 191.034L1366.09 203.745M1343.95 191.034L1274.51 191.035M1438.61 191.034V203.745M1438.61 191.034V179.165M1368.92 168.055L1348.76 157.635M1368.92 168.055H1303.93M1368.92 168.055H1433.91M1323.28 179.165L1303.93 168.055M1323.28 179.165H1256.14M1438.61 179.165V170.262M1390.89 147.841H1329.81M1390.89 147.841L1371.26 138.621M1390.89 147.841L1411.73 157.635M1390.89 147.841H1438.61M1329.81 147.841L1311.96 138.621M1329.81 147.841L1348.76 157.635M1329.81 147.841H1268.73M1371.26 138.621H1311.96M1371.26 138.621H1430.56M1371.26 138.621L1352.75 129.923M1411.73 157.635H1348.76M1411.73 157.635L1433.91 168.055M1411.73 157.635H1438.61M1438.61 147.841V157.635M1438.61 147.841V142.09M1311.96 138.621L1295.13 129.923M1311.96 138.621H1252.67M1348.76 157.635H1285.78M1268.73 147.841L1252.67 138.621M1268.73 147.841L1285.78 157.635M1268.73 147.841H1207.65M1430.56 138.621L1410.36 129.923M1430.56 138.621H1438.61M1430.56 138.621L1438.61 142.09M1352.75 129.923H1295.13M1352.75 129.923H1410.36M1352.75 129.923L1335.25 121.706M1295.13 129.923L1279.23 121.706M1295.13 129.923H1237.52M1252.67 138.621L1237.52 129.923M1252.67 138.621H1193.37M1318.7 113.929H1264.18M1318.7 113.929L1303.01 106.56M1318.7 113.929H1373.22M1318.7 113.929L1335.25 121.706M1264.18 113.929L1249.92 106.56M1264.18 113.929L1279.23 121.706M1264.18 113.929H1209.66M1303.01 106.56H1249.92M1303.01 106.56H1356.11M1303.01 106.56L1288.13 99.5668M1373.22 113.929H1427.74M1373.22 113.929L1356.11 106.56M1373.22 113.929L1391.28 121.706M1335.25 121.706H1279.23M1335.25 121.706H1391.28M1249.92 106.56L1236.39 99.5668M1249.92 106.56H1196.83M1279.23 121.706H1223.21M1209.66 113.929L1196.83 106.56M1209.66 113.929L1223.21 121.706M1209.66 113.929H1155.15M1356.11 106.56H1409.2M1356.11 106.56L1339.87 99.5668M1288.13 99.5668H1236.39M1288.13 99.5668H1339.87M1288.13 99.5668L1273.98 92.9211M1236.39 99.5668L1223.53 92.9211M1236.39 99.5668H1184.65M1196.83 106.56L1184.65 99.5668M1196.83 106.56H1143.74M1260.52 86.5975H1211.29M1260.52 86.5975L1247.7 80.5736M1260.52 86.5975H1309.75M1260.52 86.5975L1273.98 92.9211M1211.29 86.5975L1199.64 80.5736M1211.29 86.5975L1223.53 92.9211M1211.29 86.5975H1162.06M1247.7 80.5736H1199.64M1247.7 80.5736H1295.76M1247.7 80.5736L1235.47 74.8283M1309.75 86.5975L1295.76 80.5736M1309.75 86.5975L1324.43 92.9211M1273.98 92.9211H1223.53M1273.98 92.9211H1324.43M1199.64 80.5736L1188.52 74.8284M1199.64 80.5736H1151.57M1223.53 92.9211L1173.08 92.9212M1162.06 86.5975L1151.57 80.5736M1162.06 86.5975L1173.08 92.9212M1162.06 86.5975H1112.83M1295.76 80.5736L1282.42 74.8283M1235.47 74.8283L1188.52 74.8284M1235.47 74.8283H1282.42M1235.47 74.8283L1223.79 69.3428M1188.52 74.8284L1177.9 69.3428M1188.52 74.8284H1141.57M1151.57 80.5736L1141.57 74.8284M1151.57 80.5736H1103.51M1212.63 64.0997H1167.76M1212.63 64.0997L1201.95 59.0839M1212.63 64.0997H1257.51M1212.63 64.0997L1223.79 69.3428M1167.76 64.0997L1158.05 59.0839M1167.76 64.0997L1177.9 69.3428M1167.76 64.0997H1122.88M1201.95 59.0839H1158.05M1201.95 59.0839H1245.86M1201.95 59.0839L1191.73 54.2801M1257.51 64.0997L1245.86 59.0839M1257.51 64.0997L1269.68 69.3428M1223.79 69.3428H1177.9M1223.79 69.3428H1269.68M1158.05 59.0839L1148.75 54.2801M1158.05 59.0839H1114.14M1177.9 69.3428H1132.01M1122.88 64.0997L1114.14 59.0839M1122.88 64.0997L1132.01 69.3428M1122.88 64.0997H1078M1245.86 59.0839L1234.7 54.2801M1191.73 54.2801H1148.75M1191.73 54.2801H1234.7M1191.73 54.2801L1181.93 49.6755M1148.75 54.2801L1139.84 49.6755M1148.75 54.2801H1105.78M1114.14 59.0839L1105.78 54.2801M1114.14 59.0839H1070.24M1172.52 45.2581H1131.3M1172.52 45.2581L1163.5 41.0165M1172.52 45.2581H1213.75M1172.52 45.2581L1181.93 49.6755M1131.3 45.2581L1130.25 44.7186L1123.09 41.0165M1131.3 45.2581L1139.84 49.6755M1131.3 45.2581H1090.07M1163.5 41.0165H1123.09M1163.5 41.0165H1203.9M1163.5 41.0165L1154.82 36.9405M1213.75 45.2581L1203.9 41.0165M1213.75 45.2581L1224.01 49.6755M1181.93 49.6755H1139.84M1181.93 49.6755H1224.01M1123.09 41.0165L1115.2 36.9405M1123.09 41.0165H1082.68M1139.84 49.6755H1097.76M1090.07 45.2581L1082.68 41.0165M1090.07 45.2581L1097.76 49.6755M1090.07 45.2581H1048.84M1203.9 41.0165L1194.44 36.9405M1154.82 36.9405H1115.2M1154.82 36.9405H1194.44M1154.82 36.9405L1146.48 33.0203M1115.2 36.9405L1108.55 33.5024L1107.61 33.0203M1115.2 36.9405H1075.58M1082.68 41.0165L1075.58 36.9405M1082.68 41.0165H1042.27M1138.44 29.2479H1100.31M1138.44 29.2479L1130.71 25.6145M1138.44 29.2479H1176.58M1138.44 29.2479L1146.48 33.0203M1100.31 29.2479L1093.28 25.6145M1100.31 29.2479L1103.02 30.6461L1107.61 33.0203M1100.31 29.2479H1062.18M1130.71 25.6145H1093.28M1130.71 25.6145H1168.14M1130.71 25.6145L1123.26 22.1126M1176.58 29.2479L1169.18 26.0609L1168.14 25.6145M1176.58 29.2479L1185.34 33.0203M1146.48 33.0203H1107.61M1146.48 33.0203H1185.34M1093.28 25.6145L1086.51 22.1126M1093.28 25.6145H1055.85M1107.61 33.0203H1068.75M1062.18 29.2479L1055.85 25.6145M1062.18 29.2479L1063.8 30.1775L1068.75 33.0203M1062.18 29.2479H1024.05M1168.14 25.6145L1160.01 22.1126M1123.26 22.1126H1086.51M1123.26 22.1126H1160.01M1123.26 22.1126L1116.07 18.7351M1086.51 22.1126L1079.97 18.7352M1086.51 22.1126H1049.75M1055.85 25.6145L1049.75 22.1126M1055.85 25.6145H1018.43M1109.13 15.4757H1073.66M1109.13 15.4757L1102.43 12.3282M1109.13 15.4757H1144.59M1109.13 15.4757L1116.07 18.7351M1073.66 15.4757L1069.07 13.1052L1068.32 12.7156L1067.57 12.3282M1073.66 15.4757L1079.97 18.7352M1073.66 15.4757H1038.2M1102.43 12.3282H1067.57M1102.43 12.3282L1095.96 9.28726M1102.43 12.3282H1137.29M1144.59 15.4757L1137.29 12.3282M1144.59 15.4757L1152.16 18.7351M1116.07 18.7351L1079.97 18.7352M1116.07 18.7351H1152.16M1067.57 12.3282H1032.71M1067.57 12.3282L1061.69 9.28727M1079.97 18.7352H1043.87M1038.2 15.4757L1032.71 12.3282M1038.2 15.4757L1043.87 18.7352M1038.2 15.4757H1002.73M1095.96 9.28726L1061.69 9.28727M1095.96 9.28726H1130.22M1137.29 12.3282L1130.22 9.28726M1032.71 12.3282H997.857M1032.71 12.3282L1027.42 9.28727M1061.69 9.28727H1027.42M1388.23 326.247H1292.63M1388.23 326.247L1358.13 304.024M1388.23 326.247L1421.31 350.668M1388.23 326.247L1438.61 326.248M1292.63 326.247L1266.82 304.024M1292.63 326.247L1320.98 350.668M1292.63 326.247H1197.02M1358.13 304.024H1266.82M1358.13 304.024L1330.62 283.714M1358.13 304.024H1438.61M1421.31 350.668H1320.98M1421.31 350.668L1438.61 363.44M1421.31 350.668H1438.61M1438.61 326.248V350.668M1438.61 326.248V304.024M1266.82 304.024L1243.24 283.714M1266.82 304.024H1175.52M1320.98 350.668L1352.28 377.629M1320.98 350.668H1220.65M1197.02 326.247L1175.52 304.024M1197.02 326.247L1220.65 350.668M1197.02 326.247H1101.42M1330.62 283.714H1243.24M1330.62 283.714H1417.99M1330.62 283.714L1305.37 265.08M1438.61 304.024V297.035M1243.24 283.714L1221.61 265.08M1243.24 283.714H1155.87M1175.52 304.024L1155.87 283.714M1175.52 304.024H1084.22M1282.13 247.923H1201.69M1282.13 247.923L1260.67 232.074M1282.13 247.923H1362.58M1282.13 247.923L1305.37 265.08M1201.69 247.923L1183.28 232.074M1201.69 247.923L1221.61 265.08M1201.69 247.923H1121.24M1260.67 232.074H1183.28M1260.67 232.074H1338.05M1260.67 232.074L1240.77 217.39M1362.58 247.923L1338.05 232.074M1362.58 247.923L1389.14 265.08M1362.58 247.923H1438.61M1305.37 265.08H1221.61M1305.37 265.08H1389.14M1183.28 232.074L1166.23 217.39M1183.28 232.074H1105.9M1221.61 265.08H1137.84M1121.24 247.923L1105.9 232.074M1121.24 247.923L1137.84 265.08M1121.24 247.923H1040.79M1338.05 232.074H1415.43M1338.05 232.074L1315.31 217.39M1240.77 217.39H1166.23M1240.77 217.39H1315.31M1240.77 217.39L1222.29 203.745M1166.23 217.39L1150.39 203.745M1166.23 217.39H1091.7M1105.9 232.074L1091.7 217.39M1105.9 232.074H1028.52M1205.07 191.035H1135.63M1205.07 191.035L1188.99 179.165M1205.07 191.035H1274.51M1205.07 191.035L1222.29 203.745M1135.63 191.035L1121.85 179.165M1135.63 191.035L1150.39 203.745M1135.63 191.035H1066.2M1188.99 179.165H1121.85M1188.99 179.165H1256.14M1188.99 179.165L1173.95 168.055M1274.51 191.035L1256.14 179.165M1274.51 191.035L1294.19 203.745M1222.29 203.745H1150.39M1222.29 203.745H1294.19M1121.85 179.165L1108.95 168.055M1121.85 179.165H1054.71M1150.39 203.745H1078.49M1066.2 191.035L1054.71 179.165M1066.2 191.035L1078.49 203.745M1066.2 191.035H996.756M1256.14 179.165L1238.94 168.055M1173.95 168.055H1108.95M1173.95 168.055H1238.94M1173.95 168.055L1159.83 157.635M1108.95 168.055L1096.86 157.635M1108.95 168.055H1043.96M1054.71 179.165L1043.96 168.055M1054.71 179.165H987.568M1146.57 147.841H1085.48M1146.57 147.841L1134.07 138.621M1146.57 147.841H1207.65M1146.57 147.841L1159.83 157.635M1085.48 147.841L1074.78 138.621M1085.48 147.841L1096.86 157.635M1085.48 147.841H1024.4M1134.07 138.621H1074.78M1134.07 138.621H1193.37M1134.07 138.621L1122.29 129.923M1207.65 147.841L1193.37 138.621M1207.65 147.841L1222.81 157.635M1159.83 157.635H1096.86M1159.83 157.635H1222.81M1074.78 138.621L1064.68 129.923M1074.78 138.621H1015.48M1096.86 157.635H1033.88M1024.4 147.841L1015.48 138.621M1024.4 147.841L1033.88 157.635M1024.4 147.841H963.323M1193.37 138.621L1179.91 129.923M1122.29 129.923H1064.68M1122.29 129.923H1179.91M1122.29 129.923L1111.16 121.706M1064.68 129.923L1055.14 121.706M1064.68 129.923H1007.07M1015.48 138.621L1007.07 129.923M1015.48 138.621H956.185M1100.63 113.929H1046.11M1100.63 113.929L1090.65 106.56M1100.63 113.929H1155.15M1100.63 113.929L1111.16 121.706M1046.11 113.929L1037.55 106.56M1046.11 113.929L1055.14 121.706M1046.11 113.929H991.591M1090.65 106.56H1037.55M1090.65 106.56H1143.74M1090.65 106.56L1081.17 99.5668M1155.15 113.929L1143.74 106.56M1155.15 113.929L1167.18 121.706M1111.16 121.706H1055.14M1111.16 121.706H1167.18M1037.55 106.56L1029.43 99.5668M1037.55 106.56H984.461M1055.14 121.706H999.12M991.591 113.929L984.461 106.56M991.591 113.929L999.12 121.706M991.591 113.929H937.073M1143.74 106.56L1132.91 99.5668M1081.17 99.5668H1029.43M1081.17 99.5668H1132.91M1081.17 99.5668L1072.17 92.9212M1029.43 99.5668L1021.72 92.9212M1029.43 99.5668H977.695M984.461 106.56L977.695 99.5668M984.461 106.56H931.369M1063.6 86.5975H1014.38M1063.6 86.5975L1055.44 80.5736M1063.6 86.5975H1112.83M1063.6 86.5975L1072.17 92.9212M1014.38 86.5975L1007.38 80.5736M1014.38 86.5975L1021.72 92.9212M1014.38 86.5975H965.146M1055.44 80.5736H1007.38M1055.44 80.5736H1103.51M1055.44 80.5736L1047.66 74.8284M1112.83 86.5975L1103.51 80.5736M1112.83 86.5975L1122.62 92.9212M1072.17 92.9212H1021.72M1072.17 92.9212H1122.62M1007.38 80.5736L1000.71 74.8284M1007.38 80.5736H959.318M1021.72 92.9212H971.265M965.146 86.5975L959.318 80.5736M965.146 86.5975L971.265 92.9212M965.146 86.5975H915.917M1103.51 80.5736L1094.61 74.8284M1047.66 74.8284H1000.71M1047.66 74.8284H1094.61M1047.66 74.8284L1040.23 69.3428M1000.71 74.8284L994.341 69.3428M1000.71 74.8284H953.759M959.318 80.5736L955.812 76.9516L953.759 74.8284M959.318 80.5736H911.254M1033.13 64.0997H988.253M1033.13 64.0997L1026.33 59.0839M1033.13 64.0997H1078M1033.13 64.0997L1040.23 69.3428M988.253 64.0997L982.43 59.0839M988.253 64.0997L994.341 69.3428M988.253 64.0997H943.378M1026.33 59.0839H982.43M1026.33 59.0839H1070.24M1026.33 59.0839L1019.83 54.2801M1078 64.0997L1070.24 59.0839M1078 64.0997L1086.12 69.3428M1040.23 69.3428H994.341M1040.23 69.3428H1086.12M982.43 59.0839L976.852 54.2801M982.43 59.0839H938.524M994.341 69.3428L948.451 69.3429M943.378 64.0997L938.524 59.0839M943.378 64.0997L944.625 65.3886L948.451 69.3429M943.378 64.0997H898.503M1070.24 59.0839L1062.8 54.2801M1019.83 54.2801H976.852M1019.83 54.2801H1062.8M1019.83 54.2801L1013.59 49.6755M976.852 54.2801L974.151 51.9535L971.506 49.6755M976.852 54.2801H933.877M938.524 59.0839L933.877 54.2801M938.524 59.0839H894.62M1007.61 45.2581H966.376M1007.61 45.2581L1001.86 41.0165M1007.61 45.2581H1048.84M1007.61 45.2581L1013.59 49.6755M966.376 45.2581L967.007 45.8002L971.506 49.6755M966.376 45.2581L961.452 41.0165M966.376 45.2581H925.147M1001.86 41.0165H961.452M1001.86 41.0165H1042.27M1001.86 41.0165L996.339 36.9405M1048.84 45.2581L1042.27 41.0165M1048.84 45.2581L1055.67 49.6755M1013.59 49.6755H971.506M1013.59 49.6755H1055.67M971.506 49.6755H929.421M961.452 41.0165L956.719 36.9405M961.452 41.0165H921.043M925.147 45.2581L921.043 41.0165M925.147 45.2581L929.421 49.6755M925.147 45.2581H883.918M1042.27 41.0165L1035.96 36.9405M996.339 36.9405H956.719M996.339 36.9405H1035.96M996.339 36.9405L991.029 33.0203M956.719 36.9405L952.168 33.0204M956.719 36.9405H917.1M921.043 41.0165L917.1 36.9405M921.043 41.0165H880.635M985.919 29.2479H947.788M985.919 29.2479L980.997 25.6145M985.919 29.2479H1024.05M985.919 29.2479L991.029 33.0203M947.788 29.2479L943.569 25.6145M947.788 29.2479L949.411 30.6461L950.506 31.5892L952.168 33.0204M947.788 29.2479H909.657M980.997 25.6145H943.569M980.997 25.6145H1018.43M980.997 25.6145L976.254 22.1126M1024.05 29.2479L1018.43 25.6145M1024.05 29.2479L1029.89 33.0203M991.029 33.0203L952.168 33.0204M991.029 33.0203H1029.89M943.569 25.6145L942.027 24.2862L941.01 23.4107L939.503 22.1126M943.569 25.6145H906.141M952.168 33.0204H913.307M909.657 29.2479L908.765 28.3264L906.141 25.6145M909.657 29.2479L910.105 29.7116L910.556 30.1775L911.921 31.5892L912.382 32.0637L913.307 33.0204M909.657 29.2479H871.526M1018.43 25.6145L1013 22.1126M976.254 22.1126H939.503M976.254 22.1126H1013M976.254 22.1126L972.807 19.5679L971.678 18.7352M939.503 22.1126L937.525 20.4087L935.582 18.7352M939.503 22.1126H902.752M906.141 25.6145L905.71 25.1697L905.282 24.7266L903.588 22.9757L902.752 22.1126M906.141 25.6145H868.712M967.263 15.4757H931.798M967.263 15.4757L964.052 13.1052L963 12.3282M967.263 15.4757H1002.73M967.263 15.4757L971.118 18.3212L971.678 18.7352M931.798 15.4757L929.044 13.1052L928.593 12.7156L928.143 12.3282M931.798 15.4757L933.673 17.0908L935.582 18.7352M931.798 15.4757H896.331M963 12.3282H928.143M963 12.3282L958.881 9.28727M963 12.3282H997.857M1002.73 15.4757L997.857 12.3282M1002.73 15.4757L1007.78 18.7352M971.678 18.7352H935.582M971.678 18.7352H1007.78M928.143 12.3282H893.286M928.143 12.3282L924.612 9.28728M935.582 18.7352H899.485M896.331 15.4757L893.286 12.3282M896.331 15.4757L899.485 18.7352M896.331 15.4757H860.865M958.881 9.28727L924.612 9.28728M958.881 9.28727H993.149M997.857 12.3282L994.311 10.0378L993.149 9.28727M893.286 12.3282H858.429M893.286 12.3282L891.07 10.0378L890.343 9.28728M924.612 9.28728H890.343M1005.81 326.247H910.209M1005.81 326.247L992.912 304.024M1005.81 326.247H1101.42M1005.81 326.247L1019.99 350.668M910.209 326.247L901.608 304.024M910.209 326.247L919.66 350.668M910.209 326.247H814.604M992.912 304.024H901.608M992.912 304.024H1084.22M992.912 304.024L981.121 283.714M1101.42 326.247L1084.22 304.024M1101.42 326.247L1120.32 350.668M1019.99 350.668H919.66M1019.99 350.668L1035.64 377.629M1019.99 350.668H1120.32M901.608 304.024L893.747 283.714M901.608 304.024H810.304M919.66 350.668L930.095 377.629M919.66 350.668H819.33M814.604 326.247L810.304 304.024M814.604 326.247L819.33 350.668M814.604 326.247H719M1084.22 304.024L1068.49 283.714M981.121 283.714H893.747M981.121 283.714H1068.49M981.121 283.714L970.304 265.08M893.747 283.714L886.535 265.08M893.747 283.714H806.374M810.304 304.024L806.374 283.714M810.304 304.024H719M960.343 247.923H879.896M960.343 247.923L951.142 232.074M960.343 247.923H1040.79M960.343 247.923L970.304 265.08M879.896 247.923L873.762 232.074M879.896 247.923L886.535 265.08M879.896 247.923H799.447M951.142 232.074H873.762M951.142 232.074H1028.52M951.142 232.074L942.617 217.39M1040.79 247.923L1028.52 232.074M1040.79 247.923L1054.07 265.08M970.304 265.08H886.535M970.304 265.08H1054.07M873.762 232.074L868.078 217.39M873.762 232.074H796.381M886.535 265.08H802.768M799.447 247.923L796.381 232.074M799.447 247.923L802.768 265.08M799.447 247.923H719M1028.52 232.074L1017.16 217.39M942.617 217.39H868.078M942.617 217.39H1017.16M942.617 217.39L934.696 203.745M868.078 217.39L862.797 203.745M868.078 217.39H793.539M796.381 232.074L793.539 217.39M796.381 232.074H719M927.317 191.035H857.878M927.317 191.035L920.426 179.165M927.317 191.035H996.756M927.317 191.035L934.696 203.745M857.878 191.035L853.284 179.165M857.878 191.035L862.797 203.745M857.878 191.035H788.439M920.426 179.165H853.284M920.426 179.165H987.568M920.426 179.165L913.977 168.055M996.756 191.035L987.568 179.165M996.756 191.035L1006.6 203.745M934.696 203.745H862.797M934.696 203.745H1006.6M853.284 179.165L848.984 168.055M853.284 179.165H786.142M862.797 203.745H790.899M788.439 191.035L786.142 179.165M788.439 191.035L790.899 203.745M788.439 191.035H719M987.568 179.165L978.969 168.055M913.977 168.055H848.984M913.977 168.055H978.969M913.977 168.055L907.927 157.635M848.984 168.055L844.952 157.635M848.984 168.055H783.992M786.142 179.165L783.992 168.055M786.142 179.165H719M902.242 147.841H841.162M902.242 147.841L896.889 138.621M902.242 147.841H963.323M902.242 147.841L907.927 157.635M841.162 147.841L837.593 138.621M841.162 147.841L844.952 157.635M841.162 147.841H780.081M896.889 138.621H837.593M896.889 138.621H956.185M896.889 138.621L891.84 129.923M963.323 147.841L956.185 138.621M963.323 147.841L970.903 157.635M907.927 157.635H844.952M907.927 157.635H970.903M837.593 138.621L834.226 129.923M837.593 138.621H778.296M844.952 157.635H781.976M780.081 147.841L778.296 138.621M780.081 147.841L781.976 157.635M780.081 147.841H719M956.185 138.621L949.453 129.923M891.84 129.923H834.226M891.84 129.923H949.453M891.84 129.923L887.069 121.706M834.226 129.923L831.046 121.706M834.226 129.923H776.613M778.296 138.621L776.613 129.923M778.296 138.621H719M882.555 113.929H828.036M882.555 113.929L878.277 106.56M882.555 113.929H937.073M882.555 113.929L887.069 121.706M828.036 113.929L825.185 106.56M828.036 113.929L831.046 121.706M828.036 113.929H773.518M878.277 106.56H825.185M878.277 106.56H931.369M878.277 106.56L874.217 99.5668M937.073 113.929L931.369 106.56M937.073 113.929L943.093 121.706M887.069 121.706H831.046M887.069 121.706H943.093M825.185 106.56L822.478 99.5668M825.185 106.56H772.092M831.046 121.706H775.023M773.518 113.929L772.092 106.56M773.518 113.929L775.023 121.706M773.518 113.929H719M931.369 106.56L925.956 99.5668M874.217 99.5668H822.478M874.217 99.5668H925.956M874.217 99.5668L870.358 92.9212M822.478 99.5668L819.906 92.9212M822.478 99.5668H770.739M772.092 106.56L770.739 99.5668M772.092 106.56H719M866.688 86.5975H817.459M866.688 86.5975L863.191 80.5736M866.688 86.5975H915.917M866.688 86.5975L870.358 92.9212M817.459 86.5975L815.127 80.5736M817.459 86.5975L819.906 92.9212M817.459 86.5975H768.229M863.191 80.5736H815.127M863.191 80.5736H911.254M863.191 80.5736L861.921 78.3876L859.855 74.8284M915.917 86.5975L911.254 80.5736M915.917 86.5975L920.812 92.9212M870.358 92.9212H819.906M870.358 92.9212H920.812M815.127 80.5736L812.903 74.8284M815.127 80.5736H767.063M819.906 92.9212H769.453M768.229 86.5975L767.063 80.5736M768.229 86.5975L769.453 92.9212M768.229 86.5975H719M911.254 80.5736L906.807 74.8284M859.855 74.8284H812.903M859.855 74.8284H906.807M859.855 74.8284L856.671 69.3429M812.903 74.8284L810.781 69.3429M812.903 74.8284H765.952M767.063 80.5736L765.952 74.8284M767.063 80.5736H719M853.627 64.0997H808.751M853.627 64.0997L850.715 59.0839M853.627 64.0997H898.503M853.627 64.0997L855.896 68.0102L856.671 69.3429M808.751 64.0997L808.013 62.193L806.81 59.0839M808.751 64.0997L810.781 69.3429M808.751 64.0997L763.875 64.0998M850.715 59.0839L850.36 58.4719L847.926 54.2801M850.715 59.0839H806.81M850.715 59.0839H894.62M898.503 64.0997L894.62 59.0839M898.503 64.0997L899 64.7426L900.509 66.6921L902.561 69.3429M856.671 69.3429H810.781M856.671 69.3429H902.561M806.81 59.0839L806.103 57.2583L805.871 56.656L805.638 56.0576L804.951 54.2801M806.81 59.0839H762.905M810.781 69.3429H764.89M763.875 64.0998L762.905 59.0839M763.875 64.0998L764.89 69.3429M763.875 64.0998H719M847.926 54.2801H804.951M847.926 54.2801H890.901M847.926 54.2801L845.253 49.6755M894.62 59.0839L890.901 54.2801M804.951 54.2801L804.273 52.5308L804.051 51.9535L803.168 49.6755M804.951 54.2801L761.975 54.2802M762.905 59.0839L762.787 58.4719L761.975 54.2802M762.905 59.0839H719M842.689 45.2581H801.459M842.689 45.2581L841.445 43.1159L841.138 42.5873L840.833 42.0608L840.528 41.5376L840.226 41.0165M842.689 45.2581H883.918M842.689 45.2581L845.253 49.6755M801.459 45.2581L800.222 42.0608L800.019 41.5376L799.818 41.0165M801.459 45.2581L803.168 49.6755M801.459 45.2581H760.229M840.226 41.0165H799.818M840.226 41.0165H880.635M840.226 41.0165L838.736 38.4502L838.443 37.9442L837.86 36.9405M883.918 45.2581L881.443 42.0608L880.635 41.0165M883.918 45.2581L885.184 46.8932L886.47 48.5538L887.338 49.6755M845.253 49.6755H803.168M845.253 49.6755H887.338M799.818 41.0165L798.824 38.4502L798.628 37.9442L798.434 37.441L798.24 36.9405M799.818 41.0165H759.408M803.168 49.6755H761.085M760.229 45.2581L759.408 41.0165M760.229 45.2581L760.546 46.8933L760.867 48.5538L761.085 49.6755M760.229 45.2581H719M880.635 41.0165L877.48 36.9405M837.86 36.9405H798.24M837.86 36.9405H877.48M837.86 36.9405L835.584 33.0204M798.24 36.9405L796.723 33.0204M798.24 36.9405H758.62M759.408 41.0165L758.62 36.9405M759.408 41.0165H719M833.394 29.2479H795.262M833.394 29.2479L831.284 25.6145M833.394 29.2479H871.526M833.394 29.2479L833.934 30.1775L834.753 31.5892L835.584 33.0204M795.262 29.2479L795.442 29.7116L796.537 32.541L796.723 33.0204M795.262 29.2479L793.856 25.6145M795.262 29.2479H757.131M831.284 25.6145H793.856M831.284 25.6145H868.712M831.284 25.6145L829.251 22.1126M871.526 29.2479L869.059 26.0609L868.712 25.6145M871.526 29.2479L871.884 29.7116L872.245 30.1775L872.607 30.6461L874.445 33.0204M835.584 33.0204H796.723M835.584 33.0204H874.445M796.723 33.0204H757.861M793.856 25.6145L793.342 24.2862L793.173 23.8473L793.003 23.4107L792.501 22.1126M793.856 25.6145H756.428M757.131 29.2479L756.601 26.51L756.515 26.0609L756.428 25.6145M757.131 29.2479L757.861 33.0204M757.131 29.2479H719M868.712 25.6145L866.002 22.1126M829.251 22.1126H792.501M829.251 22.1126H866.002M829.251 22.1126L828.755 21.2566L828.508 20.8319L828.263 20.4088L828.017 19.9872L827.775 19.5679L827.532 19.1507L827.291 18.7352M792.501 22.1126L792.335 21.6836L792.17 21.2566L791.841 20.4088L791.679 19.9872L791.516 19.5679L791.355 19.1507L791.194 18.7352M792.501 22.1126H755.75M756.428 25.6145L755.75 22.1126M756.428 25.6145H719M825.398 15.4757H789.933M825.398 15.4757L824.022 13.1052L823.572 12.3282M825.398 15.4757H860.865M825.398 15.4757L826.101 16.6845L826.336 17.0908L826.574 17.4993L827.291 18.7352M789.933 15.4757L789.778 15.0764L789.471 14.2826L789.166 13.4959L788.715 12.3282M789.933 15.4757L790.558 17.0908L790.715 17.4993L791.034 18.3213L791.194 18.7352M789.933 15.4757H754.466M823.572 12.3282H788.715M823.572 12.3282L822.024 9.66173L821.806 9.28729M823.572 12.3282H858.429M860.865 15.4757L858.429 12.3282M860.865 15.4757L863.388 18.7352M827.291 18.7352H791.194M827.291 18.7352H863.388M788.715 12.3282L788.565 11.9424L788.416 11.5582L788.268 11.1757L788.121 10.7948L787.682 9.66173L787.537 9.28729M788.715 12.3282H753.857M791.194 18.7352H755.097M754.466 15.4757L753.857 12.3282M754.466 15.4757L755.097 18.7352M754.466 15.4757H719M821.806 9.28729H787.537M821.806 9.28729L856.075 9.28728M858.429 12.3282L857.241 10.7948L856.364 9.66172L856.075 9.28728M787.537 9.28729H753.268M753.857 12.3282L753.783 11.9424L753.708 11.5582L753.634 11.1757L753.268 9.28729M753.857 12.3282H719M623.396 326.247H527.791M623.396 326.247L627.696 304.024M623.396 326.247H719M623.396 326.247L618.67 350.668M527.791 326.247L536.392 304.024M527.791 326.247L518.34 350.668M527.791 326.247H432.186M627.696 304.024H536.392M627.696 304.024H719M627.696 304.024L631.626 283.714M719 326.247V304.024M719 326.247V350.668M618.67 350.668H518.34M618.67 350.668L613.452 377.629M618.67 350.668H719M536.392 304.024L544.253 283.714M536.392 304.024H445.088M518.34 350.668L507.905 377.629M518.34 350.668H418.009M432.186 326.247L445.088 304.024M432.186 326.247L418.009 350.668M432.186 326.247H336.581M719 304.024V283.714M631.626 283.714H544.253M631.626 283.714H719M631.626 283.714L635.232 265.08M544.253 283.714L551.464 265.08M544.253 283.714H456.879M445.088 304.024L456.879 283.714M445.088 304.024H353.784M638.553 247.923H558.104M638.553 247.923L641.619 232.074M638.553 247.923H719M638.553 247.923L635.232 265.08M558.104 247.923L564.238 232.074M558.104 247.923L551.464 265.08M558.104 247.923H477.657M641.619 232.074H564.238M641.619 232.074H719M641.619 232.074L644.461 217.39M719 247.923V232.074M719 247.923V265.08M635.232 265.08H551.464M635.232 265.08H719M564.238 232.074L569.922 217.39M564.238 232.074H486.858M551.464 265.08H467.696M477.657 247.923L486.858 232.074M477.657 247.923L467.696 265.08M477.657 247.923H397.209M719 232.074V217.39M644.461 217.39H569.922M644.461 217.39H719M644.461 217.39L647.101 203.745M569.922 217.39L575.203 203.745M569.922 217.39H495.383M486.858 232.074L495.383 217.39M486.858 232.074H409.477M649.561 191.035H580.122M649.561 191.035L651.858 179.165M649.561 191.035H719M649.561 191.035L647.101 203.745M580.122 191.035L584.716 179.165M580.122 191.035L575.203 203.745M580.122 191.035H510.683M651.858 179.165H584.716M651.858 179.165H719M651.858 179.165L654.008 168.055M719 191.035V179.165M719 191.035V203.745M647.101 203.745H575.203M647.101 203.745H719M584.716 179.165L589.015 168.055M584.716 179.165H517.574M575.203 203.745H503.304M510.683 191.035L517.574 179.165M510.683 191.035L503.304 203.745M510.683 191.035H441.244M719 179.165V168.055M654.008 168.055H589.015M654.008 168.055H719M654.008 168.055L656.024 157.635M589.015 168.055L593.048 157.635M589.015 168.055H524.023M517.574 179.165L524.023 168.055M517.574 179.165H450.432M657.919 147.841H596.838M657.919 147.841L659.704 138.621M657.919 147.841H719M657.919 147.841L656.024 157.635M596.838 147.841L600.407 138.621M596.838 147.841L593.048 157.635M596.838 147.841H535.758M659.704 138.621H600.407M659.704 138.621H719M659.704 138.621L661.387 129.923M719 147.841V138.621M719 147.841V157.635M656.024 157.635H593.048M656.024 157.635H719M600.407 138.621L603.774 129.923M600.407 138.621H541.111M593.048 157.635H530.073M535.758 147.841L541.111 138.621M535.758 147.841L530.073 157.635M535.758 147.841H474.677M719 138.621V129.923M661.387 129.923H603.774M661.387 129.923H719M661.387 129.923L662.977 121.706M603.774 129.923L606.954 121.706M603.774 129.923H546.16M541.111 138.621L546.16 129.923M541.111 138.621H481.815M664.482 113.929H609.964M664.482 113.929L665.908 106.56M664.482 113.929H719M664.482 113.929L662.977 121.706M609.964 113.929L612.815 106.56M609.964 113.929L606.954 121.706M609.964 113.929H555.445M665.908 106.56H612.815M665.908 106.56H719M665.908 106.56L667.261 99.5668M719 113.929V106.56M719 113.929V121.706M662.977 121.706H606.954M662.977 121.706H719M612.815 106.56L615.522 99.5668M612.815 106.56H559.723M606.954 121.706H550.931M555.445 113.929L559.723 106.56M555.445 113.929L550.931 121.706M555.445 113.929H500.927M719 106.56V99.5668M667.261 99.5668H615.522M667.261 99.5668H719M667.261 99.5668L668.39 93.7339L668.547 92.9212M615.522 99.5668L618.094 92.9212M615.522 99.5668H563.783M559.723 106.56L563.783 99.5668M559.723 106.56H506.631M669.771 86.5975H620.541M669.771 86.5975L670.937 80.5736M669.771 86.5975H719M669.771 86.5975L668.547 92.9212M620.541 86.5975L622.873 80.5736M620.541 86.5975L618.094 92.9212M620.541 86.5975H571.312M670.937 80.5736H622.873M670.937 80.5736H719M670.937 80.5736L672.048 74.8284M719 86.5975V80.5736M719 86.5975V92.9212M668.547 92.9212H618.094M668.547 92.9212H719M622.873 80.5736L625.097 74.8284M622.873 80.5736H574.809M618.094 92.9212H567.641M571.312 86.5975L574.809 80.5736M571.312 86.5975L567.641 92.9212M571.312 86.5975H522.083M719 80.5736V74.8284M672.048 74.8284H625.097M672.048 74.8284H719M672.048 74.8284L673.11 69.3429M625.097 74.8284L627.219 69.3429M625.097 74.8284H578.145M574.809 80.5736L575.658 79.1122L578.145 74.8284M574.809 80.5736H526.746M674.125 64.0998H629.249M674.125 64.0998L675.095 59.0839M674.125 64.0998H719M674.125 64.0998L673.11 69.3429M629.249 64.0998L630.952 59.6991L631.19 59.0839M629.249 64.0998L627.219 69.3429M629.249 64.0998H584.373M675.095 59.0839L675.213 58.4719L676.025 54.2802M675.095 59.0839H631.19M675.095 59.0839H719M719 64.0998V59.0839M719 64.0998V69.3429M673.11 69.3429H627.219M673.11 69.3429H719M631.19 59.0839L631.897 57.2583L632.129 56.6561L632.362 56.0576L633.049 54.2802M631.19 59.0839H587.285M627.219 69.3429H581.329M584.373 64.0998L587.285 59.0839M584.373 64.0998L582.103 68.0102L581.329 69.3429M584.373 64.0998H539.497M676.025 54.2802H633.049M676.025 54.2802H719M676.025 54.2802L676.251 53.1109L676.696 50.8085L676.915 49.6755M719 59.0839V54.2802M633.049 54.2802L633.727 52.5308L633.949 51.9535L634.832 49.6755M633.049 54.2802H590.074M587.285 59.0839L590.074 54.2802M587.285 59.0839H543.38M677.771 45.2581H636.541M677.771 45.2581L678.591 41.0165M677.771 45.2581H719M677.771 45.2581L677.454 46.8933L677.347 47.4441L677.241 47.9976L677.025 49.1133L676.915 49.6755M636.541 45.2581L637.778 42.0608L638.183 41.0165M636.541 45.2581L634.832 49.6755M636.541 45.2581H595.311M678.591 41.0165H638.183M678.591 41.0165H719M678.591 41.0165L679.38 36.9405M719 45.2581V41.0165M719 45.2581V49.6755M676.915 49.6755H634.832M676.915 49.6755H719M638.183 41.0165L639.175 38.4502L639.372 37.9443L639.566 37.4411L639.76 36.9405M638.183 41.0165H597.774M634.832 49.6755H592.747M595.311 45.2581L596.862 42.5873L597.167 42.0608L597.472 41.5376L597.774 41.0165M595.311 45.2581L593.073 49.1133L592.747 49.6755M595.311 45.2581H554.082M719 41.0165V36.9405M679.38 36.9405H639.76M679.38 36.9405H719M679.38 36.9405L680.139 33.0204M639.76 36.9405L641.277 33.0204M639.76 36.9405H600.14M597.774 41.0165L598.969 38.9582L599.264 38.4502L599.557 37.9443L600.14 36.9405M597.774 41.0165H557.365M680.869 29.2479H642.738M680.869 29.2479L681.572 25.6146M680.869 29.2479H719M680.869 29.2479L680.139 33.0204M642.738 29.2479L642.558 29.7116L641.463 32.541L641.277 33.0204M642.738 29.2479L644.144 25.6146M642.738 29.2479H604.606M681.572 25.6146H644.144M681.572 25.6146L719 25.6145M681.572 25.6146L682.249 22.1126M719 29.2479V25.6145M719 29.2479V33.0204M680.139 33.0204H641.277M680.139 33.0204H719M641.277 33.0204H602.416M644.144 25.6146L644.658 24.2862L644.827 23.8474L644.997 23.4107L645.499 22.1126M644.144 25.6146H606.716M604.606 29.2479L606.716 25.6146M604.606 29.2479L604.066 30.1775L603.247 31.5892L602.416 33.0204M604.606 29.2479H566.474M719 25.6145V22.1126M682.249 22.1126H645.499M682.249 22.1126H719M682.249 22.1126L682.903 18.7352M645.499 22.1126L645.665 21.6836L646.159 20.4088L646.321 19.9873L646.484 19.5679L646.645 19.1507L646.806 18.7352M645.499 22.1126H608.749M606.716 25.6146L608.749 22.1126M606.716 25.6146H569.288M683.533 15.4757H648.067M683.533 15.4757L684.143 12.3282M683.533 15.4757H719M683.533 15.4757L682.903 18.7352M648.067 15.4757L648.222 15.0764L648.53 14.2826L648.682 13.8881L648.985 13.1052L649.135 12.7156L649.286 12.3282M648.067 15.4757L647.442 17.0908L647.285 17.4994L646.966 18.3213L646.806 18.7352M648.067 15.4757H612.601M684.143 12.3282L684.217 11.9424L684.292 11.5582L684.366 11.1757L684.731 9.2873M684.143 12.3282H649.286M684.143 12.3282H719M719 15.4757V12.3282M719 15.4757V18.7352M682.903 18.7352H646.806M682.903 18.7352H719M649.286 12.3282H614.428M649.286 12.3282L649.584 11.5582L649.732 11.1757L649.879 10.7948L650.317 9.66174L650.463 9.2873M646.806 18.7352H610.709M612.601 15.4757L613.978 13.1052L614.428 12.3282M612.601 15.4757L611.426 17.4994L610.709 18.7352M612.601 15.4757H577.135M684.731 9.2873H650.463M684.731 9.2873H719M719 12.3282V9.2873M614.428 12.3282H579.571M614.428 12.3282L615.758 10.0378L616.194 9.2873M650.463 9.2873H616.194M240.977 326.247H145.373M240.977 326.247L262.48 304.024M240.977 326.247H336.581M240.977 326.247L217.348 350.668M145.373 326.247L171.176 304.024M145.373 326.247L117.019 350.668M145.373 326.247H49.7678M262.48 304.024H171.176M262.48 304.024H353.784M262.48 304.024L282.131 283.714M336.581 326.247L353.784 304.024M336.581 326.247L317.679 350.668M217.348 350.668H117.019M217.348 350.668L191.263 377.629M217.348 350.668H317.679M171.176 304.024L194.758 283.714M171.176 304.024H79.8717M117.019 350.668L85.7155 377.629M117.019 350.668H16.6882M49.7678 326.247L79.8717 304.024M49.7678 326.247L16.6882 350.668M49.7678 326.247H-0.61246M353.784 304.024L369.505 283.714M282.131 283.714H194.758M282.131 283.714H369.505M282.131 283.714L300.161 265.08M194.758 283.714L216.393 265.08M194.758 283.714H107.384M79.8717 304.024L107.384 283.714M79.8717 304.024H-0.612462M316.761 247.923H236.313M316.761 247.923L332.096 232.074M316.761 247.923H397.209M316.761 247.923L300.161 265.08M236.313 247.923L254.715 232.074M236.313 247.923L216.393 265.08M236.313 247.923H155.866M332.096 232.074H254.715M332.096 232.074H409.477M332.096 232.074L346.304 217.39M397.209 247.923L409.477 232.074M397.209 247.923L383.929 265.08M300.161 265.08H216.393M300.161 265.08H383.929M254.715 232.074L271.765 217.39M254.715 232.074H177.334M216.393 265.08H132.625M155.866 247.923L177.334 232.074M155.866 247.923L132.625 265.08M155.866 247.923H75.4183M409.477 232.074L420.844 217.39M346.304 217.39H271.765M346.304 217.39H420.844M346.304 217.39L359.506 203.745M271.765 217.39L287.607 203.745M271.765 217.39H197.226M177.334 232.074L197.226 217.39M177.334 232.074H99.953M371.804 191.035H302.365M371.804 191.035L383.29 179.165M371.804 191.035H441.244M371.804 191.035L359.506 203.745M302.365 191.035L316.147 179.165M302.365 191.035L287.607 203.745M302.365 191.035H232.926M383.29 179.165H316.147M383.29 179.165H450.432M383.29 179.165L394.039 168.055M441.244 191.035L450.432 179.165M441.244 191.035L431.405 203.745M359.506 203.745H287.607M359.506 203.745H431.405M316.147 179.165L329.046 168.055M316.147 179.165H249.005M287.607 203.745H215.708M232.926 191.035L249.005 179.165M232.926 191.035L215.708 203.745M232.926 191.035H163.487M450.432 179.165L459.031 168.055M394.039 168.055H329.046M394.039 168.055H459.031M394.039 168.055L404.121 157.635M329.046 168.055L341.145 157.635M329.046 168.055H264.054M249.005 179.165L264.054 168.055M249.005 179.165H181.863M413.596 147.841H352.516M413.596 147.841L422.518 138.621M413.596 147.841H474.677M413.596 147.841L404.121 157.635M352.516 147.841L363.222 138.621M352.516 147.841L341.145 157.635M352.516 147.841H291.435M422.518 138.621H363.222M422.518 138.621H481.815M422.518 138.621L430.934 129.923M474.677 147.841L481.815 138.621M474.677 147.841L467.097 157.635M404.121 157.635H341.145M404.121 157.635H467.097M363.222 138.621L373.321 129.923M363.222 138.621H303.926M341.145 157.635H278.169M291.435 147.841L303.926 138.621M291.435 147.841L278.169 157.635M291.435 147.841H230.355M481.815 138.621L488.547 129.923M430.934 129.923H373.321M430.934 129.923H488.547M430.934 129.923L438.885 121.706M373.321 129.923L382.861 121.706M373.321 129.923H315.707M303.926 138.621L315.707 129.923M303.926 138.621H244.629M446.409 113.929H391.89M446.409 113.929L453.539 106.56M446.409 113.929H500.927M446.409 113.929L438.885 121.706M391.89 113.929L400.446 106.56M391.89 113.929L382.861 121.706M391.89 113.929H337.371M453.539 106.56H400.446M453.539 106.56H506.631M453.539 106.56L460.305 99.5668M500.927 113.929L502.382 112.051L506.631 106.56M500.927 113.929L494.907 121.706M438.885 121.706H382.861M438.885 121.706H494.907M400.446 106.56L408.566 99.5669M400.446 106.56H347.354M382.861 121.706H326.838M337.371 113.929L347.354 106.56M337.371 113.929L326.838 121.706M337.371 113.929H282.853M506.631 106.56L512.044 99.5668M460.305 99.5668L408.566 99.5669M460.305 99.5668H512.044M460.305 99.5668L466.735 92.9212M408.566 99.5669L416.282 92.9212M408.566 99.5669H356.827M347.354 106.56L356.827 99.5669M347.354 106.56H294.261M472.854 86.5975L423.625 86.5976M472.854 86.5975L478.682 80.5736M472.854 86.5975H522.083M472.854 86.5975L466.735 92.9212M423.625 86.5976L430.619 80.5737M423.625 86.5976L416.282 92.9212M423.625 86.5976H374.396M478.682 80.5736L430.619 80.5737M478.682 80.5736H526.746M478.682 80.5736L484.241 74.8284M522.083 86.5975L526.746 80.5736M522.083 86.5975L517.188 92.9212M466.735 92.9212H416.282M466.735 92.9212H517.188M430.619 80.5737L437.29 74.8284M430.619 80.5737H382.556M416.282 92.9212H365.83M374.396 86.5976L382.556 80.5737M374.396 86.5976L365.83 92.9212M374.396 86.5976H325.166M526.746 80.5736L531.193 74.8284M484.241 74.8284H437.29M484.241 74.8284H531.193M484.241 74.8284L489.549 69.3429M437.29 74.8284L443.659 69.3429M437.29 74.8284H390.338M382.556 80.5737L390.338 74.8284M382.556 80.5737H334.492M494.622 64.0998L494 64.7426L493.375 65.3887L489.549 69.3429M494.622 64.0998H449.746M494.622 64.0998L499.475 59.0839M494.622 64.0998H539.497M489.549 69.3429H443.659M489.549 69.3429H535.439M449.746 64.0998L455.57 59.0839M449.746 64.0998L443.659 69.3429M449.746 64.0998H404.87M499.475 59.0839H455.57M499.475 59.0839H543.38M499.475 59.0839L504.123 54.2802M539.497 64.0998L543.38 59.0839M539.497 64.0998L537.491 66.6921L535.439 69.3429M455.57 59.0839L461.148 54.2802M455.57 59.0839H411.665M443.659 69.3429H397.769M404.87 64.0998L411.665 59.0839M404.87 64.0998L397.769 69.3429M404.87 64.0998H359.995M543.38 59.0839L547.099 54.2802M504.123 54.2802H461.148M504.123 54.2802H547.099M504.123 54.2802L505.255 53.1109L508.579 49.6755M461.148 54.2802L463.179 52.5308L463.849 51.9535L466.494 49.6755M461.148 54.2802H418.173M411.665 59.0839L418.173 54.2802M411.665 59.0839H367.76M512.853 45.2581H471.623M512.853 45.2581L516.957 41.0166M512.853 45.2581H554.082M512.853 45.2581L508.579 49.6755M471.623 45.2581L474.725 42.5873L476.548 41.0166M471.623 45.2581L466.494 49.6755M471.623 45.2581H430.393M516.957 41.0166H476.548M516.957 41.0166L557.365 41.0165M516.957 41.0166L520.415 37.4411L520.9 36.9405M554.082 45.2581L556.556 42.0608L557.365 41.0165M554.082 45.2581L552.816 46.8933L550.662 49.6755M508.579 49.6755H466.494M508.579 49.6755H550.662M476.548 41.0166L481.28 36.9406M476.548 41.0166H436.139M466.494 49.6755H424.409M430.393 45.2581L436.139 41.0166M430.393 45.2581L424.409 49.6755M430.393 45.2581H389.164M557.365 41.0165L560.52 36.9405M520.9 36.9405L481.28 36.9406M520.9 36.9405H560.52M520.9 36.9405L524.693 33.0204M481.28 36.9406L485.832 33.0204M481.28 36.9406H441.661M436.139 41.0166L439.616 38.4502L440.3 37.9443L441.661 36.9406M436.139 41.0166H395.731M528.343 29.248H490.212M528.343 29.248L529.234 28.3265L531.859 25.6146M528.343 29.248L566.474 29.2479M528.343 29.248L527.444 30.1775L525.618 32.0637L524.693 33.0204M490.212 29.248L494.431 25.6146M490.212 29.248L488.589 30.6461L487.494 31.5892L485.832 33.0204M490.212 29.248H452.081M531.859 25.6146H494.431M531.859 25.6146H569.288M531.859 25.6146L534.412 22.9757L535.248 22.1127M566.474 29.2479L568.941 26.0609L569.288 25.6146M566.474 29.2479L566.116 29.7117L565.755 30.1775L565.393 30.6461L563.555 33.0204M524.693 33.0204H485.832M524.693 33.0204H563.555M494.431 25.6146L495.973 24.2862L496.99 23.4107L498.497 22.1127M494.431 25.6146H457.003M485.832 33.0204H446.971M452.081 29.248L457.003 25.6146M452.081 29.248L448.91 31.5892L448.266 32.0638L446.971 33.0204M452.081 29.248H413.949M569.288 25.6146L571.998 22.1127M535.248 22.1127H498.497M535.248 22.1127H571.998M535.248 22.1127L538.515 18.7352M498.497 22.1127L500.475 20.4088L500.964 19.9873L502.418 18.7352M498.497 22.1127H461.746M457.003 25.6146L461.746 22.1127M457.003 25.6146H419.574M541.669 15.4757H506.202M541.669 15.4757L543.585 13.4959L544.714 12.3282M541.669 15.4757H577.135M541.669 15.4757L538.515 18.7352M506.202 15.4757L508.956 13.1052L509.407 12.7156L509.857 12.3282M506.202 15.4757L504.327 17.0908L502.418 18.7352M506.202 15.4757H470.737M544.714 12.3282H509.857M544.714 12.3282L546.198 10.7948L546.93 10.0378L547.294 9.66175L547.656 9.28731M544.714 12.3282H579.571M577.135 15.4757L578.97 13.1052L579.571 12.3282M577.135 15.4757L574.612 18.7352M538.515 18.7352H502.418M538.515 18.7352H574.612M509.857 12.3282H475M509.857 12.3282L513.388 9.28731M502.418 18.7352H466.321M470.737 15.4757L473.948 13.1052L475 12.3282M470.737 15.4757L466.882 18.3213L466.321 18.7352M470.737 15.4757H435.27M547.656 9.28731H513.388M547.656 9.28731H581.925M579.571 12.3282L580.759 10.7948L581.636 9.66175L581.925 9.28731M475 12.3282H440.143M475 12.3282L479.119 9.28732M513.388 9.28731L479.119 9.28732M22.5726 232.074H99.953M22.5726 232.074L48.1472 217.39M22.5726 232.074H-0.612468M22.5726 232.074L-0.612467 245.387M99.953 232.074L122.686 217.39M99.953 232.074L75.4183 247.923M48.1472 217.39L71.9109 203.745M48.1472 217.39H122.686M48.1472 217.39H-0.612469M-0.612468 232.074L-0.612469 217.39M-0.612468 232.074L-0.612467 245.387M-0.612467 245.387V247.923M94.048 191.035H24.6091M94.048 191.035L114.72 179.165M94.048 191.035H163.487M94.048 191.035L71.9109 203.745M24.6091 191.035L47.5782 179.165M24.6091 191.035L0.0119448 203.745M24.6091 191.035H-0.612472M114.72 179.165H47.5782M114.72 179.165H181.863M114.72 179.165L134.07 168.055M163.487 191.035L181.863 179.165M163.487 191.035L143.809 203.745M71.9109 203.745H0.0119448M71.9109 203.745H143.809M47.5782 179.165L69.0774 168.055M47.5782 179.165H-0.612473M0.0119448 203.745H-0.612471M0.0119448 203.745L-0.612471 204.068M-0.612472 191.035L-0.612473 179.165M-0.612472 191.035L-0.612471 203.745M181.863 179.165L199.062 168.055M134.07 168.055H69.0774M134.07 168.055H199.062M134.07 168.055L152.217 157.635M69.0774 168.055L89.2416 157.635M69.0774 168.055H4.08522M-0.612473 179.165V170.262M169.274 147.841H108.193M169.274 147.841L185.333 138.621M169.274 147.841H230.355M169.274 147.841L152.217 157.635M108.193 147.841L126.036 138.621M108.193 147.841L89.2416 157.635M108.193 147.841H47.112M185.333 138.621H126.036M185.333 138.621H244.629M185.333 138.621L200.481 129.923M230.355 147.841L244.629 138.621M230.355 147.841L215.193 157.635M152.217 157.635H89.2416M152.217 157.635H215.193M126.036 138.621L142.868 129.923M126.036 138.621H66.7403M89.2416 157.635H26.2658M47.112 147.841L66.7403 138.621M47.112 147.841L26.2658 157.635M47.112 147.841H-0.612475M244.629 138.621L258.094 129.923M200.481 129.923H142.868M200.481 129.923H258.094M200.481 129.923L214.792 121.706M142.868 129.923L158.769 121.706M142.868 129.923H85.2545M66.7403 138.621L85.2545 129.923M66.7403 138.621H7.44423M228.335 113.929H173.817M228.335 113.929L241.169 106.56M228.335 113.929H282.853M228.335 113.929L214.792 121.706M173.817 113.929L188.077 106.56M173.817 113.929L158.769 121.706M173.817 113.929H119.298M241.169 106.56H188.077M241.169 106.56H294.261M241.169 106.56L253.349 99.5669M282.853 113.929L294.261 106.56M282.853 113.929L270.816 121.706M214.792 121.706H158.769M214.792 121.706H270.816M188.077 106.56L201.611 99.5669M188.077 106.56H134.985M158.769 121.706H102.746M119.298 113.929L134.985 106.56M119.298 113.929L102.746 121.706M119.298 113.929H64.7801M294.261 106.56L305.089 99.5669M253.349 99.5669H201.611M253.349 99.5669H305.089M253.349 99.5669L264.924 92.9212M201.611 99.5669L214.471 92.9212M201.611 99.5669H149.871M134.985 106.56L149.871 99.5669M134.985 106.56H81.8926M275.937 86.5976H226.708M275.937 86.5976L286.428 80.5737M275.937 86.5976H325.166M275.937 86.5976L264.924 92.9212M226.708 86.5976L238.365 80.5737M226.708 86.5976L214.471 92.9212M226.708 86.5976H177.479M286.428 80.5737H238.365M286.428 80.5737H334.492M286.428 80.5737L296.435 74.8284M325.166 86.5976L334.492 80.5737M325.166 86.5976L315.377 92.9212M264.924 92.9212H214.471M264.924 92.9212H315.377M238.365 80.5737L249.483 74.8284M238.365 80.5737H190.301M214.471 92.9212H164.018M177.479 86.5976L190.301 80.5737M177.479 86.5976L164.018 92.9212M177.479 86.5976H128.249M334.492 80.5737L343.386 74.8284M296.435 74.8284H249.483M296.435 74.8284H343.386M296.435 74.8284L305.988 69.3429M249.483 74.8284L260.098 69.3429M249.483 74.8284H202.531M190.301 80.5737L202.531 74.8284M190.301 80.5737H142.238M315.119 64.0998H270.244M315.119 64.0998L323.856 59.0839M315.119 64.0998H359.995M315.119 64.0998L305.988 69.3429M270.244 64.0998L279.951 59.0839M270.244 64.0998L260.098 69.3429M270.244 64.0998H225.368M323.856 59.0839H279.951M323.856 59.0839H367.76M323.856 59.0839L332.222 54.2802M359.995 64.0998L367.76 59.0839M359.995 64.0998L351.878 69.3429M305.988 69.3429H260.098M305.988 69.3429H351.878M279.951 59.0839L289.247 54.2802M279.951 59.0839H236.046M260.098 69.3429H214.208M225.368 64.0998L236.046 59.0839M225.368 64.0998L214.208 69.3429M225.368 64.0998H180.492M367.76 59.0839L375.197 54.2802M332.222 54.2802H289.247M332.222 54.2802H375.197M332.222 54.2802L340.241 49.6755M289.247 54.2802L298.156 49.6756M289.247 54.2802H246.271M236.046 59.0839L246.271 54.2802M236.046 59.0839L192.141 59.084M347.935 45.2581H306.706M347.935 45.2581L355.322 41.0166M347.935 45.2581H389.164M347.935 45.2581L340.241 49.6755M306.706 45.2581L314.913 41.0166M306.706 45.2581L298.156 49.6756M306.706 45.2581H265.475M355.322 41.0166H314.913M355.322 41.0166H395.731M355.322 41.0166L362.421 36.9406M389.164 45.2581L395.731 41.0166M389.164 45.2581L382.326 49.6755M340.241 49.6755L298.156 49.6756M340.241 49.6755H382.326M314.913 41.0166L322.801 36.9406M314.913 41.0166H274.504M298.156 49.6756H256.073M265.475 45.2581L274.504 41.0166M265.475 45.2581L256.073 49.6756M265.475 45.2581H224.246M395.731 41.0166L402.041 36.9406M362.421 36.9406H322.801M362.421 36.9406H402.041M362.421 36.9406L369.247 33.0204M322.801 36.9406L329.454 33.5025L330.386 33.0204M322.801 36.9406H283.181M274.504 41.0166L283.181 36.9406M274.504 41.0166H234.096M375.818 29.248H337.687M375.818 29.248L382.146 25.6146M375.818 29.248H413.949M375.818 29.248L374.198 30.1775L373.384 30.6461L369.247 33.0204M337.687 29.248L344.718 25.6146M337.687 29.248L330.386 33.0204M337.687 29.248H299.556M382.146 25.6146H344.718M382.146 25.6146H419.574M382.146 25.6146L388.245 22.1127M413.949 29.248L419.574 25.6146M413.949 29.248L408.109 33.0204M369.247 33.0204H330.386M369.247 33.0204H408.109M344.718 25.6146L351.495 22.1127M344.718 25.6146H307.29M330.386 33.0204H291.525M299.556 29.248L307.29 25.6146M299.556 29.248L291.525 33.0204M299.556 29.248H261.424M419.574 25.6146L424.996 22.1127M388.245 22.1127H351.495M388.245 22.1127H424.996M388.245 22.1127L394.127 18.7352M351.495 22.1127L358.03 18.7352M351.495 22.1127H314.744M307.29 25.6146L314.744 22.1127M307.29 25.6146H269.862M399.804 15.4757H364.338M399.804 15.4757L405.286 12.3282M399.804 15.4757H435.27M399.804 15.4757L394.127 18.7352M364.338 15.4757L368.926 13.1052L369.678 12.7156L370.429 12.3282M364.338 15.4757L358.03 18.7352M364.338 15.4757H328.872M405.286 12.3282H370.429M405.286 12.3282L409.929 9.66176L410.582 9.28732M405.286 12.3282H440.143M435.27 15.4757L440.143 12.3282M435.27 15.4757L430.225 18.7352M394.127 18.7352H358.03M394.127 18.7352H430.225M370.429 12.3282H335.571M370.429 12.3282L376.313 9.28733M358.03 18.7352H321.934M328.872 15.4757L335.571 12.3282M328.872 15.4757L321.934 18.7352M328.872 15.4757H293.405M410.582 9.28732L376.313 9.28733M410.582 9.28732H444.851M440.143 12.3282L443.689 10.0378L444.851 9.28732M335.571 12.3282H300.714M335.571 12.3282L342.044 9.28733M376.313 9.28733H342.044M10.2618 113.929L28.8002 106.56M10.2618 113.929H64.7801M10.2618 113.929L-0.612478 118.252M10.2618 113.929H-0.612478M28.8002 106.56H81.8926M28.8002 106.56L46.3932 99.5669M28.8002 106.56H-0.612479M64.7801 113.929L81.8926 106.56M64.7801 113.929L46.723 121.706M-0.612478 118.252V113.929M-0.612478 118.252V121.706M-0.612478 113.929L-0.612479 106.56M81.8926 106.56L98.1325 99.5669M46.3932 99.5669L63.1121 92.9213M46.3932 99.5669H98.1325M46.3932 99.5669H-0.61248M-0.612479 106.56L-0.61248 99.5669M79.0201 86.5976H29.7903M79.0201 86.5976L94.1747 80.5737M79.0201 86.5976H128.249M79.0201 86.5976L63.1121 92.9213M29.7903 86.5976L46.1106 80.5737M29.7903 86.5976L12.6591 92.9213M29.7903 86.5976H-0.612481M94.1747 80.5737H46.1106M94.1747 80.5737H142.238M94.1747 80.5737L108.628 74.8284M128.249 86.5976L142.238 80.5737M128.249 86.5976L113.565 92.9212M63.1121 92.9213H12.6591M63.1121 92.9213L113.565 92.9212M46.1106 80.5737L61.6759 74.8285M46.1106 80.5737H-0.612481M12.6591 92.9213L-0.61248 97.8199M12.6591 92.9213H-0.61248M-0.612481 86.5976H-0.97758M-0.612481 86.5976V80.5737M-0.612481 86.5976L-0.61248 92.9213M142.238 80.5737L155.579 74.8284M108.628 74.8284L61.6759 74.8285M108.628 74.8284H155.579M108.628 74.8284L122.427 69.3429M61.6759 74.8285L76.5374 69.3429M61.6759 74.8285H14.7242M-0.612481 80.5737V80.112M135.617 64.0998H90.7408M135.617 64.0998L148.236 59.084M135.617 64.0998H180.492M135.617 64.0998L122.427 69.3429M90.7408 64.0998L104.331 59.084M90.7408 64.0998L76.5374 69.3429M90.7408 64.0998H45.8655M148.236 59.084H104.331M148.236 59.084H192.141M148.236 59.084L160.321 54.2802M180.492 64.0998L192.141 59.084M180.492 64.0998L168.317 69.3429M122.427 69.3429H76.5374M122.427 69.3429H168.317M104.331 59.084L117.345 54.2802M104.331 59.084H60.4256M76.5374 69.3429H30.6472M45.8655 64.0998L60.4256 59.084M45.8655 64.0998L30.6472 69.3429M45.8655 64.0998H0.990105M192.141 59.084L203.296 54.2802M160.321 54.2802H117.345M160.321 54.2802H203.296M160.321 54.2802L171.904 49.6756M117.345 54.2802L129.82 49.6756M117.345 54.2802H74.3696M60.4256 59.084L74.3696 54.2802M60.4256 59.084H16.521M183.017 45.2581H141.788M183.017 45.2581L193.687 41.0166M183.017 45.2581H224.246M183.017 45.2581L171.904 49.6756M141.788 45.2581L153.278 41.0166M141.788 45.2581L129.82 49.6756M141.788 45.2581L100.557 45.2582M193.687 41.0166H153.278M193.687 41.0166H234.096M193.687 41.0166L203.941 36.9406M224.246 45.2581L234.096 41.0166M224.246 45.2581L213.988 49.6756M171.904 49.6756H129.82M171.904 49.6756H213.988M153.278 41.0166L164.321 36.9406M153.278 41.0166H112.87M129.82 49.6756H87.7349M100.557 45.2582L112.87 41.0166M100.557 45.2582L87.7349 49.6756M100.557 45.2582H59.3282M234.096 41.0166L243.561 36.9406M203.941 36.9406H164.321M203.941 36.9406H243.561M203.941 36.9406L213.802 33.0204M164.321 36.9406L174.941 33.0204M164.321 36.9406H124.701M112.87 41.0166L124.701 36.9406M112.87 41.0166H72.4611M223.293 29.248H185.161M223.293 29.248L232.433 25.6146M223.293 29.248H261.424M223.293 29.248L213.802 33.0204M185.161 29.248L195.005 25.6146M185.161 29.248L174.941 33.0204M185.161 29.248H147.03M232.433 25.6146H195.005M232.433 25.6146H269.862M232.433 25.6146L241.243 22.1127M261.424 29.248L268.824 26.061L269.862 25.6146M261.424 29.248L252.663 33.0204M213.802 33.0204H174.941M213.802 33.0204H252.663M195.005 25.6146L204.493 22.1127M195.005 25.6146H157.577M174.941 33.0204H136.079M147.03 29.248L157.577 25.6146M147.03 29.248L136.079 33.0204M147.03 29.248H108.899M269.862 25.6146L277.994 22.1127M241.243 22.1127H204.493M241.243 22.1127H277.994M241.243 22.1127L249.74 18.7352M204.493 22.1127L213.642 18.7352M204.493 22.1127H167.742M157.577 25.6146L167.742 22.1127M157.577 25.6146H120.149M257.939 15.4757H222.473M257.939 15.4757L265.857 12.3282M257.939 15.4757H293.405M257.939 15.4757L249.74 18.7352M222.473 15.4757L231 12.3282M222.473 15.4757L213.642 18.7352M222.473 15.4757H187.006M265.857 12.3282H231M265.857 12.3282L273.507 9.28733M265.857 12.3282H300.714M293.405 15.4757L300.714 12.3282M293.405 15.4757L285.837 18.7352M249.74 18.7352H213.642M249.74 18.7352H285.837M231 12.3282H196.142M231 12.3282L239.239 9.28734M213.642 18.7352H177.546M187.006 15.4757L196.142 12.3282M187.006 15.4757L177.546 18.7352M187.006 15.4757H151.541M273.507 9.28733L239.239 9.28734M273.507 9.28733H307.776M300.714 12.3282L307.776 9.28733M196.142 12.3282H161.285M196.142 12.3282L204.97 9.28734M239.239 9.28734H204.97M18.0989 45.2582L32.0527 41.0166M18.0989 45.2582H59.3282M18.0989 45.2582L3.56647 49.6756M18.0989 45.2582H-0.612484M32.0527 41.0166H72.4611M32.0527 41.0166L45.4614 36.9406M32.0527 41.0166H-0.612485M59.3282 45.2582L72.4611 41.0166M59.3282 45.2582L45.6511 49.6756M3.56647 49.6756H45.6511M3.56647 49.6756H-0.612484M3.56647 49.6756L-0.612484 50.9457M-0.612484 45.2582L-0.612485 41.0166M-0.612484 45.2582V49.6756M72.4611 41.0166L85.0813 36.9406M45.4614 36.9406H5.84152M45.4614 36.9406H85.0813M45.4614 36.9406L58.3567 33.0204M-0.612485 41.0166V38.7933M70.7678 29.248H32.6365M70.7678 29.248L82.7209 25.6146M70.7678 29.248H108.899M70.7678 29.248L58.3567 33.0204M32.6365 29.248L45.2928 25.6146M32.6365 29.248L19.4954 33.0204M32.6365 29.248H-0.612486M82.7209 25.6146H45.2928M82.7209 25.6146H120.149M82.7209 25.6146L94.2414 22.1127M108.899 29.248L120.149 25.6146M108.899 29.248L97.218 33.0204M58.3567 33.0204H19.4954M58.3567 33.0204H97.218M45.2928 25.6146L57.4909 22.1127M45.2928 25.6146H7.86467M19.4954 33.0204L5.84152 36.9406M19.4954 33.0204H-0.612485M-0.612486 29.248H-0.728695M-0.612486 29.248V27.9197M-0.612486 29.248L-0.612485 33.0204M120.149 25.6146L130.992 22.1127M94.2414 22.1127H57.4909M94.2414 22.1127H130.992M94.2414 22.1127L105.352 18.7352M57.4909 22.1127L69.2551 18.7352M57.4909 22.1127H20.7397M7.86467 25.6146L20.7397 22.1127M7.86467 25.6146L-0.612486 27.9197M7.86467 25.6146H-0.612486M116.074 15.4757H80.6078M116.074 15.4757L126.428 12.3282M116.074 15.4757H151.541M116.074 15.4757L105.352 18.7352M80.6078 15.4757L91.5714 12.3282M80.6078 15.4757L69.2551 18.7352M80.6078 15.4757L45.1413 15.4758M126.428 12.3282H91.5714M126.428 12.3282L136.432 9.28735M126.428 12.3282H161.285M151.541 15.4757L161.285 12.3282M151.541 15.4757L141.449 18.7352M105.352 18.7352H69.2551M105.352 18.7352H141.449M91.5714 12.3282H56.7136M91.5714 12.3282L102.164 9.28735M69.2551 18.7352H33.1576M45.1413 15.4758L56.7136 12.3282M45.1413 15.4758L33.1576 18.7352M45.1413 15.4758H9.67574M136.432 9.28735H102.164M136.432 9.28735L170.701 9.28734M161.285 12.3282L170.701 9.28734M56.7136 12.3282L21.8566 12.3283M56.7136 12.3282L67.8953 9.28735M102.164 9.28735H67.8953M33.1576 18.7352L20.7397 22.1127M33.1576 18.7352H-0.612487M9.67574 15.4758L21.8566 12.3283M9.67574 15.4758L-0.612487 18.1339M9.67574 15.4758H-0.612487M21.8566 12.3283L33.6268 9.28736M21.8566 12.3283H-0.612487M67.8953 9.28735L33.6268 9.28736M67.8953 9.28735L78.7052 6.3471M20.7397 22.1127H-0.612486M-0.612487 18.7352V18.1339M-0.612487 18.7352L-0.612486 22.1127M-0.612487 18.1339V15.4758M-0.612487 15.4758V12.3283M33.6268 9.28736L45.0057 6.3471M33.6268 9.28736H-0.612488M-0.612487 12.3283L-0.612488 9.28736M78.7052 6.3471H45.0057M-0.612488 9.28736H-0.641677L-0.612488 9.28018M-0.612488 9.28736V9.28018M-0.612486 27.9197V25.6146M-0.612486 25.6146V22.1127M130.992 22.1127L141.449 18.7352M130.992 22.1127H167.742M141.449 18.7352H177.546M5.84152 36.9406L-0.612485 38.7933M5.84152 36.9406H-0.612485M-0.612485 33.0204V36.9406M-0.612485 38.7933V36.9406M85.0813 36.9406L97.218 33.0204M85.0813 36.9406H124.701M97.218 33.0204H136.079M177.546 18.7352L167.742 22.1127M204.97 9.28734H170.701M204.97 9.28734L213.504 6.34709M170.701 9.28734L179.805 6.34709M213.504 6.34709H179.805M277.994 22.1127L285.837 18.7352M277.994 22.1127H314.744M285.837 18.7352H321.934M136.079 33.0204L124.701 36.9406M243.561 36.9406L252.663 33.0204M243.561 36.9406H283.181M252.663 33.0204H291.525M87.7349 49.6756L74.3696 54.2802M87.7349 49.6756H45.6511M45.6511 49.6756L31.3945 54.2802M74.3696 54.2802H31.3945M31.3945 54.2802L16.521 59.084M31.3945 54.2802H-0.612484M-0.612484 49.6756V50.9457M-0.612484 50.9457V54.2802M16.521 59.084L0.990105 64.0998M16.521 59.084H-0.612483M203.296 54.2802L213.988 49.6756M203.296 54.2802H246.271M-0.612484 54.2802H-0.837399M-0.612484 54.2802L-0.612483 59.084M213.988 49.6756H256.073M30.6472 69.3429L14.7242 74.8285M30.6472 69.3429H-0.612482M0.990105 64.0998L-0.612483 64.6175M0.990105 64.0998H-0.612483M-0.612483 59.084V64.0998M-0.612483 64.6175L-1 64.7426M-0.612483 64.6175V64.0998M-0.612483 64.6175L-0.612482 69.3429M14.7242 74.8285H-0.612482M14.7242 74.8285L-0.612481 80.112M-0.612482 69.3429V74.8285M-0.612482 74.8285L-0.612481 80.112M155.579 74.8284L168.317 69.3429M155.579 74.8284H202.531M168.317 69.3429H214.208M-0.61248 97.8199L-0.758611 97.8738M-0.61248 97.8199V92.9213M-0.61248 97.8199V99.5669M113.565 92.9212H164.018M113.565 92.9212L98.1325 99.5669M321.934 18.7352L314.744 22.1127M342.044 9.28733H307.776M342.044 9.28733L348.303 6.34708M307.776 9.28733L308.642 8.91398L310.364 8.17324L314.603 6.34708M348.303 6.34708H314.603M424.996 22.1127L430.225 18.7352M424.996 22.1127H461.746M430.225 18.7352H466.321M291.525 33.0204L283.181 36.9406M402.041 36.9406L408.109 33.0204M402.041 36.9406H441.661M408.109 33.0204H446.971M256.073 49.6756L246.271 54.2802M375.197 54.2802L382.326 49.6755M375.197 54.2802H418.173M382.326 49.6755H424.409M214.208 69.3429L202.531 74.8284M343.386 74.8284L351.878 69.3429M343.386 74.8284H390.338M351.878 69.3429H397.769M164.018 92.9212L149.871 99.5669M149.871 99.5669H98.1325M305.089 99.5669L315.377 92.9212M305.089 99.5669H356.827M315.377 92.9212H365.83M102.746 121.706L85.2545 129.923M102.746 121.706H46.723M46.723 121.706L27.6413 129.923M46.723 121.706H-0.612478M85.2545 129.923H27.6413M27.6413 129.923L7.44423 138.621M27.6413 129.923H-0.612477M-0.612478 121.706L-0.612477 129.923M7.44423 138.621H-0.612476M7.44423 138.621L-0.612476 142.09M258.094 129.923L270.816 121.706M258.094 129.923H315.707M-0.612477 129.923L-0.612476 138.621M270.816 121.706H326.838M26.2658 157.635L4.08522 168.055M26.2658 157.635H-0.612475M-0.612475 147.841L-0.612476 142.09M-0.612475 147.841V149.56V157.635M-0.612476 138.621V142.09M4.08522 168.055L-0.612473 170.262M4.08522 168.055H-0.612474M-0.612475 157.635L-0.612474 168.055M-0.612473 170.262L-0.612474 168.055M199.062 168.055L215.193 157.635M199.062 168.055H264.054M215.193 157.635H278.169M-0.612471 203.745V204.068M-0.612471 204.068L-0.612469 217.39M143.809 203.745H215.708M143.809 203.745L122.686 217.39M466.321 18.7352L465.193 19.5679L461.746 22.1127M479.119 9.28732H444.851M479.119 9.28732L483.102 6.34707M444.851 9.28732L446.576 8.17323L449.402 6.34707M483.102 6.34707H449.402M571.998 22.1127L572.66 21.2567L574.612 18.7352M571.998 22.1127L608.749 22.1126M574.612 18.7352H610.709M446.971 33.0204L441.661 36.9406M560.52 36.9405L560.906 36.4422L561.29 35.946L563.555 33.0204M560.52 36.9405H600.14M563.555 33.0204H602.416M424.409 49.6755L418.173 54.2802M547.099 54.2802L550.662 49.6755M547.099 54.2802H590.074M550.662 49.6755H592.747M397.769 69.3429L390.338 74.8284M531.193 74.8284L535.439 69.3429M531.193 74.8284H578.145M535.439 69.3429H581.329M365.83 92.9212L356.827 99.5669M512.044 99.5668L517.188 92.9212M512.044 99.5668H563.783M517.188 92.9212H567.641M326.838 121.706L315.707 129.923M488.547 129.923L494.907 121.706M488.547 129.923H546.16M494.907 121.706H550.931M278.169 157.635L264.054 168.055M459.031 168.055L467.097 157.635M459.031 168.055H524.023M467.097 157.635H530.073M215.708 203.745L197.226 217.39M197.226 217.39H122.686M420.844 217.39L431.405 203.745M420.844 217.39H495.383M431.405 203.745H503.304M132.625 265.08L107.384 283.714M132.625 265.08H48.8571M75.4183 247.923L48.8571 265.08M75.4183 247.923H-0.612467M48.8571 265.08L20.0104 283.714M48.8571 265.08H-0.612465M-0.612467 247.923L-0.612465 265.08M107.384 283.714H20.0104M20.0104 283.714H-0.612464M20.0104 283.714L-0.612462 297.035M-0.612465 265.08L-0.612464 283.714M-0.612462 304.024V297.035M-0.612462 304.024L-0.61246 326.247M369.505 283.714L383.929 265.08M369.505 283.714H456.879M-0.612464 283.714L-0.612462 297.035M383.929 265.08H467.696M16.6882 350.668L-0.612457 363.441M16.6882 350.668H-0.612458M-0.61246 326.247L-0.612458 350.668M85.7155 377.629H191.263M85.7155 377.629L-0.612455 377.628M-0.612457 363.441L-0.612458 350.668M-0.612457 363.441L-0.612455 377.628M191.263 377.629H296.81M-0.612455 377.628V377.725H1438.61V377.628M296.81 377.629L317.679 350.668M296.81 377.629H402.358M317.679 350.668H418.009M610.709 18.7352L610.468 19.1507L610.225 19.5679L609.982 19.9873L609.737 20.4088L608.749 22.1126M616.194 9.2873L616.41 8.91395L616.84 8.17322L617.268 7.43788L617.479 7.07265L617.901 6.34705M616.194 9.2873L581.925 9.28731M581.925 9.28731L583.92 6.70905L584.202 6.34706M617.901 6.34705L584.202 6.34706M719 22.1126V18.7352M719 22.1126H755.75M719 18.7352H755.097M602.416 33.0204L600.14 36.9405M719 36.9405V33.0204M719 36.9405H758.62M719 33.0204H757.861M592.747 49.6755L590.074 54.2802M719 54.2802V49.6755M719 54.2802H761.975M719 49.6755H761.085M581.329 69.3429L578.145 74.8284M719 74.8284V69.3429M719 74.8284H765.952M719 69.3429H764.89M567.641 92.9212L563.783 99.5668M719 99.5668V92.9212M719 99.5668H770.739M719 92.9212H769.453M550.931 121.706L546.16 129.923M719 129.923V121.706M719 129.923H776.613M719 121.706H775.023M530.073 157.635L524.023 168.055M719 168.055V157.635M719 168.055H783.992M719 157.635H781.976M503.304 203.745L495.383 217.39M719 217.39V203.745M719 217.39H793.539M719 203.745H790.899M467.696 265.08L456.879 283.714M719 283.714V265.08M719 283.714H806.374M719 265.08H802.768M418.009 350.668L402.358 377.629M507.905 377.629H402.358M507.905 377.629H613.452M613.452 377.629H719M719 377.629V350.668M719 377.629H824.548M719 350.668H819.33M755.097 18.7352L755.178 19.1507L755.258 19.5679L755.34 19.9872L755.75 22.1126M753.268 9.28729L719 9.2873M753.268 9.28729L753.053 8.1732L752.981 7.80472L752.7 6.34704M719 9.2873V6.34704M752.7 6.34704H719M866.002 22.1126L865.34 21.2566L863.388 18.7352M866.002 22.1126H902.752M863.388 18.7352H899.485M757.861 33.0204L758.62 36.9405M877.48 36.9405L874.445 33.0204M877.48 36.9405H917.1M874.445 33.0204H913.307M761.085 49.6755L761.303 50.8085L761.749 53.1109L761.975 54.2802M890.901 54.2801L887.338 49.6755M890.901 54.2801H933.877M887.338 49.6755H929.421M764.89 69.3429L765.952 74.8284M906.807 74.8284L902.561 69.3429M906.807 74.8284H953.759M902.561 69.3429H948.451M769.453 92.9212L770.739 99.5668M925.956 99.5668L920.812 92.9212M925.956 99.5668H977.695M920.812 92.9212H971.265M775.023 121.706L776.613 129.923M949.453 129.923L943.093 121.706M949.453 129.923H1007.07M943.093 121.706H999.12M781.976 157.635L783.992 168.055M978.969 168.055L970.903 157.635M978.969 168.055H1043.96M970.903 157.635H1033.88M790.899 203.745L793.539 217.39M1017.16 217.39L1006.6 203.745M1017.16 217.39H1091.7M1006.6 203.745H1078.49M802.768 265.08L806.374 283.714M1068.49 283.714L1054.07 265.08M1068.49 283.714H1155.87M1054.07 265.08H1137.84M819.33 350.668L824.548 377.629M930.095 377.629H824.548M930.095 377.629H1035.64M1035.64 377.629H1141.19M1141.19 377.629L1120.32 350.668M1141.19 377.629H1246.74M1120.32 350.668H1220.65M899.485 18.7352L902.752 22.1126M890.343 9.28728H856.075M890.343 9.28728L888.201 7.07263L887.499 6.34703M856.075 9.28728L855.786 8.91393L855.212 8.17319L853.799 6.34703M887.499 6.34703H853.799M1013 22.1126L1007.78 18.7352M1013 22.1126H1049.75M1007.78 18.7352H1043.87M913.307 33.0204L917.1 36.9405M1035.96 36.9405L1030.64 33.5024L1029.89 33.0203M1035.96 36.9405H1075.58M1029.89 33.0203H1068.75M929.421 49.6755L933.877 54.2801M1062.8 54.2801L1055.67 49.6755M1062.8 54.2801H1105.78M1055.67 49.6755H1097.76M948.451 69.3429L953.759 74.8284M1094.61 74.8284L1086.12 69.3428M1094.61 74.8284H1141.57M1086.12 69.3428H1132.01M971.265 92.9212L977.695 99.5668M1132.91 99.5668L1122.62 92.9212M1132.91 99.5668H1184.65M1122.62 92.9212H1173.08M999.12 121.706L1007.07 129.923M1179.91 129.923L1167.18 121.706M1179.91 129.923H1237.52M1167.18 121.706H1223.21M1033.88 157.635L1043.96 168.055M1238.94 168.055L1222.81 157.635M1238.94 168.055H1303.93M1222.81 157.635H1285.78M1078.49 203.745L1091.7 217.39M1315.31 217.39L1294.19 203.745M1315.31 217.39H1389.85M1294.19 203.745H1366.09M1137.84 265.08L1155.87 283.714M1417.99 283.714L1389.14 265.08M1417.99 283.714H1438.61M1417.99 283.714L1438.61 297.035M1389.14 265.08H1438.61M1220.65 350.668L1246.74 377.629M1352.28 377.629H1246.74M1352.28 377.629L1438.61 377.628M1438.61 377.628V363.44M1438.61 363.44V350.668M1043.87 18.7352L1049.75 22.1126M1027.42 9.28727L1026.77 8.91392L1022.3 6.34702M1027.42 9.28727H993.149M993.149 9.28727L991.424 8.17318L988.597 6.34702M1022.3 6.34702H988.597M1160.01 22.1126L1152.16 18.7351M1160.01 22.1126H1196.76M1152.16 18.7351H1188.26M1068.75 33.0203L1075.58 36.9405M1194.44 36.9405L1185.34 33.0203M1194.44 36.9405H1234.06M1185.34 33.0203H1224.2M1097.76 49.6755L1105.78 54.2801M1234.7 54.2801L1224.01 49.6755M1234.7 54.2801H1277.68M1224.01 49.6755H1266.1M1132.01 69.3428L1141.57 74.8284M1282.42 74.8283L1269.68 69.3428M1282.42 74.8283H1329.37M1269.68 69.3428H1315.57M1173.08 92.9212L1184.65 99.5668M1339.87 99.5668L1324.43 92.9211M1339.87 99.5668H1391.61M1324.43 92.9211H1374.89M1223.21 121.706L1237.52 129.923M1410.36 129.923L1391.28 121.706M1410.36 129.923H1438.61M1391.28 121.706H1438.61M1285.78 157.635L1303.93 168.055M1433.91 168.055H1438.61M1433.91 168.055L1438.61 170.262M1438.61 168.055V170.262M1438.61 168.055V157.635M1366.09 203.745L1389.85 217.39M1438.61 203.745V204.068M1438.61 204.068V217.39M1389.85 217.39L1415.43 232.074M1389.85 217.39H1438.61M1415.43 232.074H1438.61M1415.43 232.074L1438.61 245.387M1438.61 232.074V245.387M1438.61 232.074V217.39M1438.61 245.387V247.923M1438.61 247.923V265.08M1438.61 265.08V283.714M1438.61 283.714V297.035M1188.26 18.7351L1196.76 22.1126M1164.49 9.28726L1163.55 8.91391L1157.1 6.34701M1164.49 9.28726H1130.22M1130.22 9.28726L1129.36 8.91391L1123.4 6.34701M1157.1 6.34701H1123.4M1307.01 22.1126L1296.55 18.7351M1307.01 22.1126H1343.76M1296.55 18.7351H1332.65M1224.2 33.0203L1234.06 36.9405M1352.92 36.9405L1340.78 33.0203M1352.92 36.9405H1392.54M1340.78 33.0203H1379.64M1266.1 49.6755L1277.68 54.2801M1406.61 54.2801L1392.35 49.6755M1406.61 54.2801H1438.61M1392.35 49.6755H1434.43M1315.57 69.3428L1329.37 74.8283M1438.61 69.3428V64.6173M1374.89 92.9211L1391.61 99.5668M1438.61 92.9211V97.8197M1438.61 97.8197L1438.76 97.8737M1438.61 97.8197V99.5668M1391.61 99.5668L1409.2 106.56M1391.61 99.5668H1438.61M1409.2 106.56L1427.74 113.929M1409.2 106.56H1438.61M1427.74 113.929H1438.61M1427.74 113.929L1438.61 118.252M1438.61 106.56V113.929M1438.61 106.56V99.5668M1438.61 113.929V118.252M1438.61 118.252V121.706M1438.61 121.706V129.923M1438.61 138.621V142.09M1438.61 138.621V129.923M1332.65 18.7351L1343.76 22.1126M1301.57 9.28724L1267.3 9.28725M1301.57 9.28724L1291.89 6.34699M1267.3 9.28725L1258.2 6.347M1291.89 6.34699L1258.2 6.347M1438.61 22.1126V18.7351M1438.61 18.7351V18.1337M1379.64 33.0203L1392.54 36.9405M1432.16 36.9405H1392.54M1432.16 36.9405L1438.61 38.7931M1432.16 36.9405H1438.61M1438.61 33.0203V36.9405M1392.54 36.9405L1405.95 41.0165M1405.95 41.0165L1419.9 45.258M1405.95 41.0165H1438.61M1419.9 45.258L1434.43 49.6755M1419.9 45.258H1438.61M1438.61 41.0165V45.258M1438.61 41.0165V38.7931M1438.61 38.7931V36.9405M1434.43 49.6755L1438.61 50.9456M1434.43 49.6755H1438.61M1438.61 45.258V49.6755M1438.61 50.9456V54.2801M1438.61 50.9456V49.6755M1438.61 59.0838V64.0997M1438.61 59.0838V54.2801M1438.61 54.2801H1438.84M1438.61 64.0997V64.6173M1438.61 64.6173L1439 64.7425M1438.61 15.4756V18.1337M1438.61 15.4756V12.3281M1404.37 9.28724L1392.99 6.34699M1404.37 9.28724L1438.61 9.28723M1438.61 12.3281V9.28723M1392.99 6.34699L1426.69 6.34698M1438.61 9.28723H1438.64L1438.61 9.28004M1438.61 9.28723V9.28004M1426.69 6.34698L1438.61 9.28004M1426.69 6.34698H1438.61M1438.61 9.28004V6.34698M-0.612488 9.28018V6.34711" stroke="url(#paint0_radial_268_8)" stroke-width="0.6" stroke-miterlimit="10" stroke-linecap="round" stroke-linejoin="round"/>
</g>
</g>
<defs>
<radialGradient id="paint0_radial_268_8" cx="0" cy="0" r="1" gradientUnits="userSpaceOnUse" gradientTransform="translate(719 363.831) rotate(-90) scale(590.104 2254.13)">
<stop stop-color="#F5F7F8"/>
<stop offset="0.489074" stop-color="#B7BCC2" stop-opacity="0"/>
</radialGradient>
<clipPath id="clip0_268_8">
<rect width="1438" height="378" fill="white"/>
</clipPath>
<clipPath id="clip1_268_8">
<rect width="1440" height="379" fill="white" transform="translate(-1 -0.25)"/>
</clipPath>
</defs>
</svg>
