<svg width="110" height="367" fill="none" xmlns="http://www.w3.org/2000/svg"><path fill-rule="evenodd" clip-rule="evenodd" d="M48.475 1.83c3.598-2.44 9.431-2.44 13.03 0l46.229 30.19A5 5 0 0 1 110 36.206v284.566c0 4.879-2.917 10.81-6.515 13.249l-46.526 31.108a5 5 0 0 1-5.584-.018L6.515 334.7C2.917 332.261 0 326.329 0 321.451L.001 38.254a5 5 0 0 1 2.14-4.1L48.475 1.828zm11.726.882 46.237 30.307a5 5 0 0 1 2.259 4.182v284.455l-.006.368c-.14 3.828-2.417 8.341-5.206 10.231l-47.832 31.981a2.665 2.665 0 0 1-2.977-.01l-.422-.285-45.74-31.008c-2.788-1.89-5.065-6.402-5.205-10.23l-.006-.369V39.137a5 5 0 0 1 2.14-4.1L49.777 2.711l.275-.177C52.946.763 57.413.822 60.2 2.712z" fill="url(#a)"/><path fill-rule="evenodd" clip-rule="evenodd" d="m60.201 2.712 46.237 30.307a5 5 0 0 1 2.259 4.182v284.455l-.006.368c-.14 3.828-2.417 8.341-5.206 10.231l-47.832 31.981V80.156a1.7 1.7 0 1 0-3.399 0v283.785l-45.74-31.008c-2.788-1.89-5.065-6.402-5.205-10.23l-.006-.369V39.137a5 5 0 0 1 2.14-4.1L49.777 2.711l.275-.177C52.946.763 57.413.822 60.2 2.712z" fill="#389D2D"/><path d="m52.254 363.941.422.285a2.665 2.665 0 0 0 2.977.01V80.156a1.7 1.7 0 1 0-3.399 0v283.785z" fill="#A2EC99"/><g filter="url(#b)"><rect width="57.883" height="56.372" rx="5" transform="scale(1.16855 .79655) rotate(-45 64.018 16.826)" fill="#389D2D"/></g><rect x=".826" width="56.883" height="55.372" rx="4.5" transform="scale(1.16855 .79655) rotate(-45 64.785 16.97)" stroke="#DDD"/><g clip-path="url(#c)"><path d="M71.933 38.499a3.6 3.6 0 0 1 .665.522c1.323 1.265 1.363 3.519-1.535 4.985-2.627 1.329-5.816 1.804-7.475.847-1.659-.958-1.002-2.89 1.467-4.316 2.469-1.425 5.204-2.987 6.878-2.038z" fill="#F9F9F9"/><path d="M65.33 40.699c-1.326.765-3.985 2.725-4.68 3.126-1.227.708-1.452 1.727-.502 2.276.457.264 1.104.367 1.787.328 0 0 1.65.002 2.739-1.084.476-.475.243-1.83 1.898-3.022.825-.594 3.277-1.183 6.345-2.934-.151-.238-.32-.367-.32-.367-1.66-.959-4.797.251-7.266 1.677z" fill="#389D2D"/><path d="M72.597 39.02s1.427-1.241 1.076-2.728c-.41-1.734-2.406-2.69-2.406-2.69-1.143-2.177-5.171-2.512-5.171-2.512-2.765-1.4-5.444-1.094-5.444-1.094-3.516-.828-6.484.118-6.484.118-3.925-.177-7.065 1.715-7.065 1.715s-4.108 1.1-6.997 4.197c-.477.512-2.287 2.108-2.935 3.665-2.045 4.907 2.589 8.043 3.481 8.473 4.982 2.404 9.01 1.025 11.535.118 1.774.473 5.922.838 8.191-1.497 3.209-2.64 3.686-4.256 4.642-4.808.956-.552 4.642-1.498 7.577-2.956z" fill="#EEE"/><path d="M55.404 40.456c.879-1.694 2.009-2.236 3.004-2.715.316-.152.61-.298.887-.46 1.588-.96 2.22-2.115 2.14-2.834-.016-.086-.089-.165-.203-.22a.887.887 0 0 0-.412-.08.805.805 0 0 0-.39.109c-.102.064-.157.148-.153.234.062.555-.48 1.52-1.82 2.33-.238.145-.51.273-.789.407-1.07.513-2.397 1.15-3.374 3.038-.25.484-.889.978-1.616 1.493-4.397-.46-5.577-2.392-5.806-2.882.032-.017.071-.028.102-.046.328-.19.577-.426.707-.695.035-.084.012-.174-.064-.248a.64.64 0 0 0-.344-.153.967.967 0 0 0-.432.028c-.132.042-.231.111-.276.194-.116.23-.378.428-.735.552-.356.123-.78.165-1.188.116a.936.936 0 0 0-.42.053c-.124.048-.21.121-.243.206-.032.084-.006.171.071.245.078.073.201.127.345.149.498.063 1 .037 1.462-.053.44.747 1.909 2.53 5.999 3.112-.978.688-1.911 1.403-2.214 2.21a2.83 2.83 0 0 0-.071 1.736c-.604.246-2.955 1.067-5.378.048a.758.758 0 0 0-.154-.635.407.407 0 0 0-.129-.107.717.717 0 0 0-.19-.071.962.962 0 0 0-.443.004.692.692 0 0 0-.186.074.386.386 0 0 0-.123.11.215.215 0 0 0-.04.128.223.223 0 0 0 .047.128.348.348 0 0 1 .086.216.342.342 0 0 1-.08.217.72.72 0 0 1-.241.172c-.1.046-.218.08-.343.099a.794.794 0 0 0-.201.06.481.481 0 0 0-.146.099c-.075.077-.093.169-.051.254.042.085.141.157.276.2a.965.965 0 0 0 .44.03c.362-.06.676-.166.924-.309.03-.017.045-.042.074-.06 2.366.916 4.796.515 6.164.03.164.26.402.504.706.72.098.067.24.11.393.118a.891.891 0 0 0 .422-.077l.039-.02c.102-.06.163-.139.17-.222.005-.084-.043-.165-.136-.23-.905-.624-.995-1.77-.697-2.571.28-.75 1.329-1.48 2.344-2.185.986-.684 1.917-1.331 2.286-2.046zm9.307-6.796c.043.086.143.157.278.2a.969.969 0 0 0 .441.028.623.623 0 0 0 .346-.161c.074-.078.09-.17.047-.255-.012-.025-1.316-2.502-5.991-1.973a.696.696 0 0 0-.37.141c-.086.074-.117.164-.088.251.03.087.118.164.246.214a.94.94 0 0 0 .434.05c3.622-.41 4.616 1.427 4.657 1.505zM41.12 39.645a.37.37 0 0 0 .142-.133.201.201 0 0 0 .02-.157c-.464-1.64 1.746-2.263 1.842-2.288a.486.486 0 0 0 .286-.189c.05-.081.042-.171-.021-.25a.561.561 0 0 0-.317-.172.977.977 0 0 0-.434.004c-1.078.286-2.986 1.281-2.498 3.003.017.061.063.118.133.164.07.047.16.081.26.1a.99.99 0 0 0 .314.007.764.764 0 0 0 .273-.089zm9.161-7.075c1.675-1.137 3.825-.853 3.925-.839a.96.96 0 0 0 .44-.035.592.592 0 0 0 .168-.087.313.313 0 0 0 .099-.118.2.2 0 0 0 .013-.13.261.261 0 0 0-.074-.123.498.498 0 0 0-.15-.098.815.815 0 0 0-.205-.057c-.118-.017-2.914-.415-5.096 1.053a.349.349 0 0 0-.11.114.205.205 0 0 0-.027.13c.012.088.084.17.2.227a.885.885 0 0 0 .422.08.783.783 0 0 0 .395-.117zm19.464 2.583c-.213.11-.275.33-.067.471.013.01 1.276.89.314 1.988-.064.071-.082.153-.05.232.032.077.112.146.224.193a.91.91 0 0 0 .39.062.806.806 0 0 0 .363-.1.424.424 0 0 0 .108-.085c1.306-1.49-.392-2.672-.465-2.722a.635.635 0 0 0-.177-.082.982.982 0 0 0-.443-.021.77.77 0 0 0-.197.064z" fill="#389D2D"/><path d="M45.489 44.56c.036.04.086.074.147.102.06.029.13.05.204.062a.992.992 0 0 0 .45-.031.591.591 0 0 0 .172-.089.312.312 0 0 0 .1-.12.198.198 0 0 0 .01-.133.269.269 0 0 0-.08-.125c-.205-.21-.265-.456-.168-.69.097-.234.344-.438.69-.57a.55.55 0 0 0 .162-.092.29.29 0 0 0 .089-.12.197.197 0 0 0 .002-.13.28.28 0 0 0-.084-.122.537.537 0 0 0-.158-.093.85.85 0 0 0-.208-.051.993.993 0 0 0-.436.047c-.41.157-.74.375-.952.631-2.588-.391-4.013-1.428-4.028-1.44a.743.743 0 0 0-.383-.128.914.914 0 0 0-.428.065c-.122.054-.2.133-.222.221-.02.088.02.176.111.247.069.052 1.668 1.228 4.65 1.68-.028.306.097.611.36.879zm7.134-6.456c.015-.18.147-.35.37-.476.224-.127.521-.2.834-.205a.828.828 0 0 0 .407-.101c.107-.064.165-.15.163-.238-.002-.089-.065-.173-.175-.235a.846.846 0 0 0-.412-.095 3.72 3.72 0 0 0-1.034.157c-.59-.62-1.055-.778-1.973-1.048a34.23 34.23 0 0 1-.536-.161l-.107-.033c-1.287-.4-2.138-.662-2.492-1.521-.036-.087-.13-.161-.26-.208a.954.954 0 0 0-.438-.04.663.663 0 0 0-.36.15c-.08.075-.105.166-.07.253.476 1.152 1.68 1.524 3.074 1.956l.107.033c.206.063.392.12.557.167.825.243 1.096.328 1.602.906-.255.211-.399.46-.415.716-.002.088.056.172.16.235a.82.82 0 0 0 .4.103.864.864 0 0 0 .41-.087c.112-.059.179-.14.188-.227zm2.768-4.421c.244-.14.431-.31.548-.497.052-.083.044-.175-.021-.256a.573.573 0 0 0-.328-.172.976.976 0 0 0-.443.012c-.14.038-.247.106-.299.19-.109.17-.325.309-.604.39a2.08 2.08 0 0 1-.904.048.982.982 0 0 0-.45.02.635.635 0 0 0-.18.083.339.339 0 0 0-.11.117.201.201 0 0 0-.021.133.25.25 0 0 0 .07.126c.038.04.088.074.15.101a.808.808 0 0 0 .206.06c.423.074.86.072 1.266.012.629.87 2.014 1.382 2.82 1.612a.984.984 0 0 0 .451.025.772.772 0 0 0 .203-.065.448.448 0 0 0 .142-.105.208.208 0 0 0 .026-.261.367.367 0 0 0-.12-.115.676.676 0 0 0-.188-.078c-.545-.156-1.843-.597-2.316-1.336.033-.016.072-.027.102-.044zm11.653 2.19a.75.75 0 0 0-.195-.066.975.975 0 0 0-.443.017.646.646 0 0 0-.18.08 2.37 2.37 0 0 1-.654.291 3.575 3.575 0 0 1-1.619.063 2.764 2.764 0 0 1-.716-.24.905.905 0 0 0-.42-.078.816.816 0 0 0-.397.111.353.353 0 0 0-.113.113.207.207 0 0 0-.029.13.237.237 0 0 0 .06.126c.033.039.08.074.137.103.517.26 1.137.405 1.772.448.116.828-.526 1.453-.95 1.763-.374.275-.79.464-1.27.683-.44.202-.937.43-1.472.757l-.003.003a3.586 3.586 0 0 0-1.11-.352.935.935 0 0 0-.416.053c-.122.047-.208.12-.24.203-.034.082-.01.17.063.243a.632.632 0 0 0 .334.152c.286.038.587.189.724.268-.264.324-.404.656-.516.964-.201.55-.36.983-1.197 1.289-.761.276-1.41.617-1.862.963a4.176 4.176 0 0 0-1.052-.132.82.82 0 0 0-.405.104c-.105.065-.162.151-.158.24.005.088.07.172.181.233.112.061.261.094.415.092.136-.003.289.02.43.05-.531.737-.362 1.358-.353 1.387a.31.31 0 0 0 .133.163c.07.047.16.08.261.1a.99.99 0 0 0 .312.006.763.763 0 0 0 .273-.089.374.374 0 0 0 .142-.133.202.202 0 0 0 .022-.156c-.002-.006-.155-.613.49-1.266.332-.337 1-.71 1.787-.997.22-.08.401-.168.565-.26.255.06.496.165.579.208.11.057.254.087.402.085a.83.83 0 0 0 .393-.098l.022-.013c.102-.066.155-.152.148-.24-.008-.089-.076-.172-.19-.231a4.212 4.212 0 0 0-.668-.263c.241-.297.356-.61.464-.904.163-.447.317-.87.877-1.215.468-.29.914-.494 1.345-.69a9.487 9.487 0 0 0 1.241-.66c.282.077.553.24.634.3.051.038.115.068.188.09a.986.986 0 0 0 .476.017.726.726 0 0 0 .204-.075c.1-.058.16-.134.168-.215.01-.08-.033-.16-.118-.225a3.444 3.444 0 0 0-.852-.436c.549-.546.798-1.175.716-1.805.657-.09 1.25-.295 1.695-.588.1-.066.151-.153.141-.242-.01-.088-.08-.17-.196-.229z" fill="#389D2D"/></g><defs><linearGradient id="a" x1="-7.349" y1="77.363" x2="137.081" y2="77.363" gradientUnits="userSpaceOnUse"><stop stop-color="#737373" stop-opacity=".11"/><stop offset="1" stop-color="#D9D9D9" stop-opacity=".2"/></linearGradient><clipPath id="c"><path fill="#fff" transform="matrix(.86603 -.5 .86603 .5 25.6 40.026)" d="M0 0h34.051v34.051H0z"/></clipPath><filter id="b" x="10.428" y="9.031" width="89.567" height="65.054" filterUnits="userSpaceOnUse" color-interpolation-filters="sRGB"><feFlood flood-opacity="0" result="BackgroundImageFix"/><feBlend in="SourceGraphic" in2="BackgroundImageFix" result="shape"/><feColorMatrix in="SourceAlpha" values="0 0 0 0 0 0 0 0 0 0 0 0 0 0 0 0 0 0 127 0" result="hardAlpha"/><feMorphology radius="1" operator="dilate" in="SourceAlpha" result="effect1_innerShadow_283_30"/><feOffset dy="4"/><feGaussianBlur stdDeviation="4.5"/><feComposite in2="hardAlpha" operator="arithmetic" k2="-1" k3="1"/><feColorMatrix values="0 0 0 0 0.144197 0 0 0 0 0.170861 0 0 0 0 0.141234 0 0 0 0.6 0"/><feBlend in2="shape" result="effect1_innerShadow_283_30"/></filter></defs></svg>