<svg width="110" height="367" viewBox="0 0 110 367" fill="none" xmlns="http://www.w3.org/2000/svg">
<path fill-rule="evenodd" clip-rule="evenodd" d="M48.4752 1.82916C52.0731 -0.609883 57.9064 -0.609883 61.5043 1.82916L107.734 32.0201C109.148 32.9434 110 34.5179 110 36.2065V320.772C110 325.651 107.083 331.582 103.485 334.021L56.9594 365.129C55.2677 366.26 53.0592 366.253 51.3747 365.111L6.51455 334.7C2.91669 332.261 2.69304e-05 326.329 0 321.451L0.0014444 38.254C0.00145273 36.6196 0.800243 35.0884 2.14067 34.1533L48.4752 1.82916ZM60.2014 2.71242L106.438 33.0193C107.848 33.9433 108.697 35.5155 108.697 37.201V321.656L108.691 322.024C108.551 325.852 106.274 330.365 103.485 332.255L55.6527 364.236V364.236C54.7509 364.839 53.5737 364.835 52.6758 364.226L52.2541 363.941L6.51455 332.933C3.7263 331.043 1.44901 326.531 1.30927 322.703L1.30291 322.334V39.1373C1.30291 37.5029 2.10173 35.9716 3.4422 35.0365L49.7781 2.71242L50.0529 2.53473C52.9462 0.7626 57.413 0.822153 60.2014 2.71242Z" fill="url(#paint0_linear_283_30)"/>
<path fill-rule="evenodd" clip-rule="evenodd" d="M60.2014 2.71242L106.438 33.0193C107.848 33.9433 108.697 35.5155 108.697 37.201V321.656L108.691 322.024C108.551 325.852 106.274 330.365 103.485 332.255L55.6527 364.236V80.1567C55.6527 79.2182 54.8919 78.4574 53.9534 78.4574V78.4574C53.0149 78.4574 52.2541 79.2182 52.2541 80.1567V363.941L6.51455 332.933C3.7263 331.043 1.44901 326.531 1.30927 322.703L1.30291 322.334V39.1373C1.30291 37.5029 2.10173 35.9716 3.4422 35.0365L49.7781 2.71242L50.0529 2.53473C52.9462 0.7626 57.413 0.822153 60.2014 2.71242Z" fill="#389D2D"/>
<path d="M52.2541 363.941L52.6758 364.226C53.5737 364.835 54.7509 364.839 55.6527 364.236V364.236V80.1567C55.6527 79.2182 54.8919 78.4574 53.9534 78.4574V78.4574C53.0149 78.4574 52.2541 79.2182 52.2541 80.1567V363.941Z" fill="#A2EC99"/>
<g filter="url(#filter0_i_283_30)">
<rect width="57.8825" height="56.3722" rx="5" transform="matrix(0.82629 -0.563245 0.82629 0.563245 8.00781 39.9833)" fill="#389D2D"/>
</g>
<rect x="0.82629" width="56.8825" height="55.3722" rx="4.5" transform="matrix(0.82629 -0.563245 0.82629 0.563245 8.15135 40.4487)" stroke="#DDDDDD"/>
<g clip-path="url(#clip0_283_30)">
<path d="M71.9333 38.4986C72.1676 38.631 72.4109 38.8405 72.5985 39.0207C73.9206 40.2862 73.9607 42.5397 71.0626 44.0058C68.4365 45.3347 65.2467 45.8105 63.588 44.8528C61.9292 43.8951 62.5862 41.9628 65.0551 40.5374C67.5239 39.1119 70.259 37.5499 71.9333 38.4986Z" fill="#F9F9F9"/>
<path d="M65.3306 40.6987C64.0044 41.4644 61.3447 43.4237 60.6501 43.8248C59.423 44.5332 59.1977 45.5524 60.1479 46.101C60.605 46.3648 61.2521 46.4679 61.9353 46.4292C61.9353 46.4292 63.5859 46.4306 64.6737 45.3447C65.1496 44.8695 64.917 43.515 66.5724 42.3227C67.3965 41.7287 69.849 41.1404 72.9166 39.3892C72.7659 39.1508 72.5972 39.0222 72.5972 39.0222C70.9368 38.0635 67.7995 39.2733 65.3306 40.6987Z" fill="#389D2D"/>
<path d="M72.5974 39.0209C72.5974 39.0209 74.0236 37.7786 73.673 36.2917C73.2634 34.5579 71.2672 33.6021 71.2672 33.6021C70.1236 31.4248 66.096 31.0895 66.096 31.0895C63.3306 29.6905 60.652 29.9961 60.652 29.9961C57.1363 29.1684 54.1677 30.1143 54.1677 30.1143C50.2432 29.9369 47.1027 31.8287 47.1027 31.8287C47.1027 31.8287 42.9947 32.9282 40.1064 36.0259C39.6289 36.5381 37.8194 38.1342 37.1707 39.6911C35.1261 44.5982 39.7599 47.7342 40.652 48.1641C45.634 50.5684 49.6617 49.1889 52.187 48.2823C53.9613 48.7552 58.1086 49.1198 60.3784 46.785C63.587 44.1446 64.0645 42.5286 65.0204 41.9767C65.9764 41.4248 69.6625 40.479 72.5974 39.0209Z" fill="#EEEEEE"/>
<path d="M55.4041 40.4565C56.283 38.762 57.4126 38.2204 58.4079 37.7414C58.7241 37.5891 59.0189 37.4425 59.295 37.2812C60.8833 36.3216 61.5148 35.1663 61.4346 34.4474C61.419 34.3613 61.3463 34.282 61.2318 34.2262C61.1172 34.1703 60.9697 34.1423 60.82 34.1478C60.6704 34.1534 60.5303 34.1922 60.4291 34.256C60.3279 34.3199 60.2734 34.4039 60.2771 34.4905C60.3394 35.0447 59.7971 36.0095 58.457 36.8192C58.2186 36.9653 57.9475 37.0935 57.6682 37.2273C56.5984 37.74 55.2714 38.3775 54.2942 40.2649C54.0435 40.7492 53.4054 41.2434 52.678 41.7579C48.2809 41.2973 47.1013 39.3659 46.872 38.8759C46.9039 38.8594 46.9433 38.848 46.9744 38.8301C47.302 38.6409 47.5511 38.4044 47.6805 38.1348C47.716 38.0505 47.6933 37.9614 47.6172 37.8866C47.5411 37.8117 47.4175 37.7568 47.2726 37.7336C47.1276 37.7104 46.9728 37.7206 46.8407 37.7621C46.7086 37.8037 46.6097 37.8732 46.5648 37.9561C46.449 38.1868 46.1867 38.3837 45.8303 38.5076C45.4739 38.6315 45.0496 38.6732 44.6423 38.6243C44.4955 38.6099 44.3447 38.6287 44.2213 38.6768C44.0978 38.7248 44.0112 38.7985 43.9793 38.8825C43.9475 38.9665 43.9729 39.0543 44.0503 39.1278C44.1277 39.2012 44.2511 39.2547 44.3949 39.277C44.893 39.3403 45.3951 39.3143 45.8571 39.2245C46.297 39.9712 47.7657 41.7546 51.8556 42.3359C50.8776 43.0235 49.9446 43.739 49.6423 44.5463C49.4367 45.1175 49.4126 45.7054 49.571 46.2815C48.9673 46.5279 46.6164 47.3489 44.1934 46.3302C44.2393 46.1202 44.1951 45.9036 44.0386 45.6951C44.0084 45.6548 43.9647 45.6183 43.91 45.5877C43.8554 45.5572 43.7909 45.5331 43.7201 45.517C43.6494 45.5008 43.5738 45.4928 43.4978 45.4935C43.4217 45.4942 43.3466 45.5036 43.2768 45.521C43.207 45.5385 43.1438 45.5637 43.0909 45.5953C43.038 45.6268 42.9963 45.6641 42.9683 45.7049C42.9403 45.7457 42.9265 45.7894 42.9277 45.8333C42.929 45.8772 42.9451 45.9206 42.9754 45.9609C43.0306 46.0284 43.0598 46.1021 43.0608 46.1769C43.0618 46.2516 43.0346 46.3255 42.9811 46.3936C42.923 46.4602 42.8408 46.5189 42.74 46.5657C42.6393 46.6124 42.5223 46.6462 42.3971 46.6646C42.3239 46.6766 42.2556 46.6969 42.196 46.7242C42.1364 46.7515 42.0867 46.7853 42.0497 46.8236C41.9751 46.9012 41.9568 46.9926 41.999 47.0779C42.0411 47.1632 42.1402 47.2353 42.2745 47.2784C42.4087 47.3215 42.5671 47.3321 42.7149 47.3078C43.0769 47.2482 43.3915 47.1422 43.6389 46.9994C43.6692 46.9819 43.6839 46.9573 43.7126 46.9389C46.0791 47.8549 48.5094 47.4544 49.8774 46.9682C50.0408 47.2294 50.2792 47.4729 50.5827 47.6885C50.6813 47.7564 50.8227 47.799 50.9757 47.8068C51.1287 47.8146 51.2808 47.787 51.3985 47.7301L51.437 47.7097C51.5394 47.6506 51.5997 47.5715 51.6061 47.488C51.6124 47.4045 51.5644 47.3227 51.4714 47.2586C50.5663 46.6338 50.4762 45.4875 50.7735 44.6868C51.0545 43.9372 52.103 43.2079 53.1179 42.5019C54.1041 41.818 55.0347 41.171 55.4041 40.4565ZM64.7111 33.6605C64.7543 33.7456 64.8544 33.8174 64.9893 33.86C65.1242 33.9025 65.2828 33.9124 65.4303 33.8875C65.5778 33.8625 65.7021 33.8048 65.7759 33.7269C65.8496 33.649 65.8667 33.5574 65.8235 33.4723C65.8112 33.4472 64.5071 30.97 59.8315 31.4987C59.6808 31.5158 59.5479 31.5667 59.4622 31.6403C59.3765 31.7139 59.3449 31.8042 59.3744 31.8913C59.404 31.9783 59.4922 32.055 59.6197 32.1045C59.7472 32.154 59.9036 32.1722 60.0543 32.1551C63.6765 31.7456 64.6702 33.582 64.7111 33.6605ZM41.1192 39.6444C41.1842 39.6069 41.2328 39.561 41.261 39.5105C41.2892 39.4601 41.2962 39.4064 41.2814 39.3541C40.8169 37.7144 43.027 37.0911 43.1228 37.066C43.257 37.027 43.3597 36.9594 43.4091 36.8775C43.4586 36.7956 43.4511 36.7058 43.388 36.6271C43.325 36.5483 43.2114 36.4868 43.0713 36.4555C42.9312 36.4242 42.7755 36.4255 42.6371 36.4593C41.5591 36.7449 39.6513 37.7404 40.1387 39.4624C40.1561 39.523 40.2021 39.5796 40.2716 39.6262C40.3411 39.6727 40.4315 39.7072 40.5328 39.726C40.6341 39.7448 40.7424 39.7472 40.8458 39.7328C40.9493 39.7184 41.0439 39.6878 41.1192 39.6444ZM50.2804 32.5694C51.9547 31.4316 54.105 31.7158 54.2049 31.73C54.3537 31.7523 54.5118 31.7396 54.6444 31.6946C54.71 31.6724 54.7674 31.6428 54.8133 31.6078C54.8592 31.5727 54.8927 31.5328 54.9118 31.4902C54.9309 31.4477 54.9354 31.4034 54.9249 31.3598C54.9144 31.3163 54.8891 31.2744 54.8506 31.2365C54.812 31.1986 54.7609 31.1654 54.7001 31.1389C54.6394 31.1125 54.5702 31.0931 54.4965 31.0821C54.3777 31.0646 51.582 30.6668 49.3998 32.1348C49.3504 32.1682 49.3129 32.2069 49.2893 32.2486C49.2658 32.2904 49.2567 32.3344 49.2626 32.3782C49.2746 32.4666 49.347 32.5487 49.4637 32.6063C49.5805 32.664 49.7321 32.6924 49.8853 32.6855C50.0385 32.6786 50.1806 32.6369 50.2804 32.5694ZM69.7439 35.1521C69.5309 35.2618 69.4686 35.4822 69.6767 35.6231C69.6898 35.6326 70.9529 36.5122 69.9913 37.6113C69.927 37.6824 69.9092 37.7644 69.9412 37.8425C69.9731 37.9205 70.0526 37.9893 70.1652 38.0362C70.2777 38.0832 70.4158 38.1052 70.5541 38.0982C70.6924 38.0912 70.8218 38.0557 70.9185 37.9982C70.9619 37.9731 70.9981 37.9442 71.0258 37.9126C72.3315 36.4228 70.6343 35.2405 70.5614 35.1909C70.5122 35.1573 70.452 35.1296 70.3842 35.1095C70.3165 35.0894 70.2425 35.0771 70.1666 35.0735C70.0906 35.0699 70.0142 35.075 69.9417 35.0885C69.8691 35.102 69.8019 35.1236 69.7439 35.1521Z" fill="#389D2D"/>
<path d="M45.4889 44.5595C45.5253 44.5991 45.5752 44.6341 45.6356 44.6624C45.6959 44.6907 45.7655 44.7116 45.8402 44.7241C45.9149 44.7365 45.9932 44.7401 46.0704 44.7347C46.1475 44.7293 46.222 44.7149 46.2894 44.6925C46.3568 44.6702 46.4157 44.6402 46.4625 44.6044C46.5094 44.5686 46.5433 44.5277 46.5623 44.4841C46.5812 44.4406 46.5848 44.3953 46.5727 44.351C46.5607 44.3067 46.5334 44.2642 46.4923 44.2261C46.2874 44.0167 46.2273 43.7702 46.3243 43.5363C46.4212 43.3024 46.668 43.0984 47.0149 42.9652C47.0786 42.9412 47.1335 42.9102 47.1764 42.8739C47.2193 42.8376 47.2494 42.7968 47.265 42.7538C47.2805 42.7108 47.2813 42.6665 47.2672 42.6233C47.2531 42.5801 47.2245 42.539 47.1828 42.5022C47.1412 42.4655 47.0874 42.4338 47.0246 42.409C46.9618 42.3843 46.8911 42.3669 46.8166 42.3579C46.7422 42.3489 46.6654 42.3484 46.5906 42.3566C46.5158 42.3647 46.4446 42.3812 46.3809 42.4053C45.9707 42.5621 45.6418 42.7801 45.4291 43.0362C42.8406 42.6446 41.4161 41.6075 41.4014 41.5961C41.3082 41.5256 41.1703 41.4794 41.0181 41.4676C40.8658 41.4558 40.7117 41.4794 40.5896 41.5332C40.4685 41.5872 40.3891 41.6665 40.3684 41.754C40.3477 41.8415 40.3874 41.9302 40.479 42.0009C40.5478 42.053 42.1468 43.2287 45.1293 43.6803C45.1009 43.9872 45.2257 44.2923 45.4889 44.5595ZM52.6227 38.1045C52.6377 37.9242 52.7701 37.7539 52.9934 37.6276C53.2167 37.5013 53.5144 37.4284 53.8268 37.4235C53.9804 37.4221 54.1268 37.3855 54.2337 37.3218C54.3406 37.2582 54.3993 37.1726 54.397 37.0839C54.3948 36.9952 54.3317 36.9107 54.2215 36.8489C54.1114 36.787 53.9632 36.753 53.8096 36.7543C53.4486 36.7594 53.0946 36.8131 52.7759 36.9113C52.1861 36.2908 51.7208 36.1328 50.8034 35.8633C50.6234 35.8108 50.4446 35.757 50.2669 35.702L50.1604 35.6689C48.8727 35.2697 48.0224 35.0068 47.6678 34.1475C47.6321 34.0612 47.5386 33.9866 47.4077 33.9401C47.2768 33.8937 47.1193 33.8791 46.9699 33.8997C46.8204 33.9202 46.6912 33.9743 46.6107 34.0498C46.5302 34.1254 46.505 34.2163 46.5406 34.3026C47.0157 35.4547 48.2199 35.8273 49.614 36.2586L49.7205 36.2917C49.9269 36.3554 50.1126 36.4112 50.2775 36.4592C51.1032 36.7022 51.3735 36.7874 51.8798 37.3653C51.6254 37.576 51.4815 37.8246 51.4653 38.0813C51.4635 38.1687 51.5209 38.253 51.6254 38.3162C51.7299 38.3794 51.8731 38.4165 52.0244 38.4195C52.1756 38.4225 52.3229 38.3913 52.4347 38.3324C52.5466 38.2735 52.614 38.1917 52.6227 38.1045ZM55.3914 33.6826C55.6354 33.5426 55.8223 33.373 55.9386 33.186C55.9906 33.1026 55.9831 33.0106 55.9176 32.9303C55.8522 32.85 55.7342 32.7881 55.5896 32.758C55.445 32.728 55.2857 32.7323 55.1467 32.7701C55.0077 32.8079 54.9003 32.876 54.8483 32.9595C54.7394 33.1291 54.5233 33.2685 54.2436 33.3499C53.9638 33.4312 53.6411 33.4484 53.3403 33.3979C53.2667 33.3835 53.1889 33.3779 53.1115 33.3812C53.034 33.3846 52.9586 33.3969 52.8895 33.4174C52.8205 33.4379 52.7593 33.4663 52.7096 33.5007C52.66 33.5352 52.6228 33.575 52.6003 33.6179C52.5778 33.6608 52.5705 33.7059 52.5789 33.7505C52.5872 33.7951 52.6109 33.8382 52.6487 33.8774C52.6865 33.9166 52.7375 33.9509 52.7988 33.9785C52.86 34.006 52.9302 34.0262 53.0052 34.0378C53.4279 34.1115 53.8645 34.1101 54.2708 34.0496C54.8999 34.9207 56.2851 35.432 57.0911 35.6618C57.1595 35.6833 57.2348 35.6966 57.3123 35.7009C57.3899 35.7052 57.4681 35.7005 57.5424 35.6869C57.6167 35.6734 57.6855 35.6513 57.7447 35.6221C57.8038 35.5928 57.8522 35.557 57.8868 35.5167C57.9214 35.4764 57.9416 35.4325 57.9461 35.3876C57.9507 35.3427 57.9395 35.2977 57.9132 35.2553C57.887 35.213 57.8462 35.1741 57.7933 35.1411C57.7404 35.1081 57.6766 35.0815 57.6055 35.0631C57.06 34.907 55.7624 34.4662 55.289 33.7275C55.3218 33.7105 55.3611 33.7001 55.3914 33.6826ZM67.0444 35.8732C66.9875 35.844 66.9211 35.8215 66.849 35.8072C66.777 35.7929 66.7007 35.7869 66.6247 35.7897C66.5487 35.7926 66.4743 35.8041 66.406 35.8236C66.3378 35.8431 66.2769 35.8703 66.2269 35.9035C66.0441 36.0247 65.8215 36.1239 65.5721 36.1953C65.3227 36.2668 65.0513 36.3091 64.7735 36.3198C64.4957 36.3305 64.217 36.3095 63.9533 36.2578C63.6896 36.2062 63.4462 36.125 63.2371 36.0189C63.12 35.9622 62.9695 35.9338 62.8171 35.9398C62.6647 35.9458 62.5222 35.9857 62.4196 36.051C62.3695 36.0841 62.3313 36.1226 62.307 36.1642C62.2827 36.2059 62.2729 36.2499 62.278 36.2937C62.2832 36.3375 62.3033 36.3803 62.3371 36.4197C62.371 36.459 62.4179 36.4941 62.4753 36.523C62.9921 36.7826 63.6122 36.9278 64.247 36.9709C64.3634 37.7985 63.7212 38.4237 63.2969 38.7339C62.9225 39.0087 62.5072 39.1984 62.0264 39.4173C61.5873 39.6188 61.0901 39.8463 60.5552 40.174L60.5519 40.1768C60.3013 40.0511 59.904 39.886 59.442 39.8245C59.2967 39.8112 59.1481 39.8302 59.0262 39.8778C58.9043 39.9253 58.8182 39.9978 58.7853 40.0806C58.7524 40.1633 58.7752 40.2502 58.8491 40.3237C58.9229 40.3971 59.0423 40.4516 59.1832 40.4762C59.469 40.5145 59.7705 40.6649 59.9073 40.7439C59.6427 41.0678 59.5034 41.3998 59.3912 41.7077C59.1897 42.2573 59.0316 42.6909 58.1936 42.9969C57.4327 43.2726 56.7839 43.6141 56.3317 43.9603C56.0442 43.8889 55.6691 43.8217 55.28 43.8279C55.1264 43.8304 54.9808 43.868 54.8753 43.9325C54.7697 43.9969 54.7129 44.083 54.7172 44.1717C54.7216 44.2603 54.7868 44.3444 54.8984 44.4053C55.0101 44.4663 55.1592 44.4991 55.3127 44.4966C55.4495 44.4942 55.6019 44.5179 55.7436 44.5476C55.212 45.284 55.3807 45.9045 55.3897 45.9343C55.4075 45.9947 55.4536 46.0511 55.5232 46.0974C55.5927 46.1436 55.683 46.1779 55.7841 46.1965C55.8852 46.2151 55.9932 46.2173 56.0963 46.2029C56.1994 46.1884 56.2936 46.1578 56.3686 46.1145C56.4337 46.0772 56.4825 46.0316 56.5111 45.9814C56.5398 45.9312 56.5473 45.8777 56.5333 45.8255C56.5308 45.8193 56.3784 45.2121 57.0223 44.5595C57.3548 44.2218 58.0233 43.8482 58.8105 43.5621C59.0308 43.4821 59.211 43.3942 59.3748 43.3024C59.6296 43.3615 59.8712 43.467 59.954 43.51C60.0643 43.567 60.2082 43.5974 60.3561 43.595C60.504 43.5926 60.6447 43.5577 60.7493 43.4973L60.7706 43.484C60.873 43.4183 60.9262 43.3319 60.9185 43.2436C60.9108 43.1554 60.8429 43.0725 60.7297 43.013C60.5254 42.9106 60.301 42.8224 60.0613 42.75C60.3021 42.453 60.4168 42.14 60.5249 41.8458C60.6879 41.3989 60.8419 40.9761 61.4022 40.6309C61.8699 40.341 62.3163 40.1371 62.7472 39.9404C63.1805 39.7422 63.5917 39.5389 63.9882 39.2816C64.27 39.3582 64.5411 39.5214 64.6222 39.5814C64.673 39.6187 64.7368 39.6494 64.8095 39.6715C64.8823 39.6935 64.9622 39.7064 65.0442 39.7094C65.1262 39.7123 65.2084 39.7052 65.2853 39.6886C65.3622 39.6719 65.4321 39.646 65.4905 39.6126C65.5896 39.5552 65.6493 39.479 65.6583 39.3981C65.6674 39.3172 65.6252 39.2371 65.5396 39.1728C65.3007 39.0006 65.0126 38.8531 64.6877 38.7368C65.2368 38.1908 65.4864 37.5616 65.4037 36.9321C66.0608 36.8427 66.6533 36.6372 67.0985 36.3442C67.1992 36.2776 67.2501 36.1906 67.24 36.1023C67.2298 36.014 67.1595 35.9316 67.0444 35.8732Z" fill="#389D2D"/>
</g>
<defs>
<filter id="filter0_i_283_30" x="10.428" y="9.03094" width="89.5671" height="65.054" filterUnits="userSpaceOnUse" color-interpolation-filters="sRGB">
<feFlood flood-opacity="0" result="BackgroundImageFix"/>
<feBlend mode="normal" in="SourceGraphic" in2="BackgroundImageFix" result="shape"/>
<feColorMatrix in="SourceAlpha" type="matrix" values="0 0 0 0 0 0 0 0 0 0 0 0 0 0 0 0 0 0 127 0" result="hardAlpha"/>
<feMorphology radius="1" operator="dilate" in="SourceAlpha" result="effect1_innerShadow_283_30"/>
<feOffset dy="4"/>
<feGaussianBlur stdDeviation="4.5"/>
<feComposite in2="hardAlpha" operator="arithmetic" k2="-1" k3="1"/>
<feColorMatrix type="matrix" values="0 0 0 0 0.144197 0 0 0 0 0.170861 0 0 0 0 0.141234 0 0 0 0.6 0"/>
<feBlend mode="normal" in2="shape" result="effect1_innerShadow_283_30"/>
</filter>
<linearGradient id="paint0_linear_283_30" x1="-7.34901" y1="77.3633" x2="137.081" y2="77.3633" gradientUnits="userSpaceOnUse">
<stop stop-color="#737373" stop-opacity="0.11"/>
<stop offset="1" stop-color="#D9D9D9" stop-opacity="0.2"/>
</linearGradient>
<clipPath id="clip0_283_30">
<rect width="34.0508" height="34.0508" fill="white" transform="matrix(0.866025 -0.5 0.866025 0.5 25.5999 40.0258)"/>
</clipPath>
</defs>
</svg>
