<svg width="24" height="24" viewBox="0 0 24 24" fill="none" xmlns="http://www.w3.org/2000/svg">
<path d="M9.9986 6.30619C10.4793 5.82555 10.4793 5.04626 9.9986 4.56562C9.51795 4.08498 8.73879 4.08498 8.25808 4.56562L1.69398 11.1298C1.45365 11.37 1.3335 11.6851 1.3335 12C1.3335 12.1669 1.36671 12.3261 1.42689 12.4711C1.48695 12.6162 1.57597 12.7523 1.69398 12.8702L8.25808 19.4343C8.73879 19.915 9.51795 19.915 9.9986 19.4343C10.4793 18.9537 10.4793 18.1745 9.9986 17.6939L5.53561 13.2308H21.4361C22.1158 13.2308 22.6668 12.6797 22.6668 12C22.6668 11.3203 22.1158 10.7692 21.4361 10.7692H5.53561L9.9986 6.30619Z" fill="currentColor"/>
</svg>
