<svg xmlns="http://www.w3.org/2000/svg" width="187" height="437" fill="none"><g clip-path="url(#a)" opacity=".4"><path fill="url(#b)" fill-rule="evenodd" d="M88.518 217.253c5.16-2.977 13.525-2.977 18.685 0l65.861 38.012a5 5 0 0 1 2.501 4.306l1.185 235.653c0 5.956-4.183 13.198-9.343 16.176l-68.245 38.847a5 5 0 0 1-4.972-.015l-65.847-38.004C23.183 509.25 19 502.008 19 496.053l.002-234.666a5 5 0 0 1 2.447-4.299zm16.816 1.079 65.862 38.012a5 5 0 0 1 2.5 4.305l1.185 235.653-.009.45c-.2 4.674-3.466 10.183-7.465 12.491L98.811 548.29a4.3 4.3 0 0 1-4.271-.013l-.603-.348-65.594-37.857c-4-2.308-7.265-7.818-7.465-12.491l-.01-.45V262.465a5 5 0 0 1 2.447-4.299l67.071-39.834.394-.217c4.15-2.164 10.555-2.091 14.554.217" clip-rule="evenodd"/><path fill="#EEE" fill-rule="evenodd" d="m105.334 218.332 65.862 38.012a5 5 0 0 1 2.5 4.305l1.185 235.653-.009.45c-.2 4.674-3.466 10.183-7.465 12.491L98.811 548.29V313.248a2.437 2.437 0 1 0-4.874 0v234.681l-65.594-37.857c-3.999-2.308-7.265-7.818-7.465-12.491l-.01-.45V262.465a5 5 0 0 1 2.447-4.299l67.071-39.834.395-.217c4.149-2.164 10.554-2.091 14.553.217" clip-rule="evenodd"/><path fill="#C7C7C7" d="m93.937 547.929.603.348a4.3 4.3 0 0 0 4.271.013V313.248a2.437 2.437 0 1 0-4.874 0z"/><g filter="url(#c)"><path fill="#EEE" d="M94.49 226.537 34.313 261.33c-2.39 1.382-2.39 3.624 0 5.006l58.38 33.755c2.391 1.382 6.267 1.382 8.658 0l60.176-34.794c2.391-1.382 2.391-3.623 0-5.005l-58.38-33.755c-2.391-1.383-6.267-1.383-8.657 0"/></g><path stroke="#DDD" d="M94.922 226.787 34.746 261.58c-2.152 1.244-2.152 3.261 0 4.505l58.38 33.755c2.152 1.244 5.64 1.244 7.792 0l60.176-34.793c2.152-1.244 2.152-3.261 0-4.505l-58.38-33.755c-2.152-1.244-5.64-1.244-7.792 0Z"/><path fill="url(#d)" d="M174.807 404.851H19.887v146.067h154.92z"/><path fill="url(#e)" d="M98.79 398.949h-4.853v85.575h4.853z"/><path fill="url(#f)" fill-rule="evenodd" d="M88.325 83.739c4.603-2.651 12.07-2.651 16.674 0l58.314 33.574a5.43 5.43 0 0 1 2.721 4.633l1.03 77.089c0 5.301-3.733 11.749-8.338 14.401l-60.42 34.309a5.44 5.44 0 0 1-5.401-.016l-58.283-33.556c-4.604-2.651-8.337-9.099-8.337-14.4l.002-76.184a5.43 5.43 0 0 1 2.663-4.671zm15.007.96 58.314 33.575a5.43 5.43 0 0 1 2.721 4.633l1.029 77.087-.008.401c-.179 4.161-3.093 9.066-6.662 11.12l-60.42 34.309a5.44 5.44 0 0 1-5.401-.015l-58.283-33.556c-3.567-2.055-6.483-6.959-6.661-11.12l-.008-.401v-76.183a5.43 5.43 0 0 1 2.663-4.672l59.376-35.178.35-.193c3.704-1.926 9.42-1.862 12.99.193" clip-rule="evenodd"/><path fill="#F9F9F9" d="m103.332 84.699 58.314 33.575a5.43 5.43 0 0 1 2.721 4.633l1.029 77.087-.008.401c-.179 4.161-3.093 9.066-6.662 11.12l-60.42 34.309a5.44 5.44 0 0 1-5.401-.015l-58.283-33.556c-3.568-2.055-6.483-6.959-6.661-11.12l-.008-.401v-76.183a5.43 5.43 0 0 1 2.663-4.672l59.375-35.178.352-.193c3.703-1.926 9.42-1.862 12.989.193"/><path stroke="#DDD" d="m92.776 92.775-52.01 29.999c-2.341 1.35-2.341 3.539 0 4.889l50.407 29.075c2.34 1.35 6.135 1.35 8.476 0l52.011-29.999c2.34-1.35 2.34-3.539 0-4.889l-50.408-29.075c-2.34-1.35-6.135-1.35-8.476 0Z"/><path fill="#389D2D" d="M94.29 210.938a2.64 2.64 0 0 1-1.854-.717 2.94 2.94 0 0 1-.939-1.755l-.359-2.63a6 6 0 0 1-.976-.478 14 14 0 0 1-.9-.598l-2.472 1.036q-.998.438-1.996.08a2.95 2.95 0 0 1-1.555-1.276l-1.875-3.268a2.53 2.53 0 0 1-.32-1.953 3.02 3.02 0 0 1 1.078-1.713l2.114-1.595a4 4 0 0 1-.04-.539v-1.076q0-.258.04-.537l-2.114-1.595a3.03 3.03 0 0 1-1.078-1.713 2.53 2.53 0 0 1 .32-1.953l1.874-3.269a2.94 2.94 0 0 1 1.556-1.275q.998-.359 1.996.08l2.473 1.035q.439-.319.917-.597.48-.28.958-.478l.36-2.631a2.92 2.92 0 0 1 .938-1.754 2.64 2.64 0 0 1 1.854-.717h3.75q1.077 0 1.856.717.778.717.937 1.754l.358 2.631q.519.198.979.478.46.278.897.597l2.474-1.035a2.6 2.6 0 0 1 1.994-.08 2.94 2.94 0 0 1 1.556 1.275l1.875 3.269q.56.916.32 1.953a3.03 3.03 0 0 1-1.078 1.713l-2.114 1.595q.039.279.039.539v1.074q0 .26-.079.539l2.114 1.595a3.02 3.02 0 0 1 1.078 1.713 2.53 2.53 0 0 1-.319 1.953l-1.916 3.268a2.94 2.94 0 0 1-1.555 1.276q-.998.358-1.995-.08l-2.394-1.036q-.439.318-.918.598a8 8 0 0 1-.958.478l-.358 2.63a2.94 2.94 0 0 1-.937 1.755 2.65 2.65 0 0 1-1.856.717zm1.955-10.363q2.314 0 3.949-1.634 1.636-1.634 1.636-3.947 0-2.31-1.636-3.945t-3.95-1.634q-2.352 0-3.97 1.634-1.617 1.634-1.615 3.945.002 2.313 1.617 3.947t3.969 1.634"/><path fill="url(#g)" stroke="url(#h)" d="M94.49 3.457 37.777 60.116a4.885 4.885 0 0 0 0 6.913l56.713 56.659a4.897 4.897 0 0 0 6.92 0l56.713-56.659a4.885 4.885 0 0 0 0-6.913L101.41 3.457a4.897 4.897 0 0 0-6.92 0Z"/><path stroke="#A7A7A7" stroke-opacity=".3" d="m94.558 10.963-49.2 49.153a4.885 4.885 0 0 0 0 6.913l49.2 49.152a4.897 4.897 0 0 0 6.92 0l49.2-49.152a4.885 4.885 0 0 0 0-6.913l-49.2-49.153a4.896 4.896 0 0 0-6.92 0Z"/><path fill="#F9F9F9" d="M111.616 74.198c.003.322-.08.743-.167 1.09-.604 2.44-3.289 5.177-7.067 4.928-3.425-.225-6.214-1.867-6.214-4.17s2.783-4.172 6.214-4.172 7.212.02 7.234 2.324"/><path fill="#A9A9A9" d="M104.35 72.258c-1.843 0-6.05.51-7.016.51-1.705 0-3.088 1.069-3.088 2.388 0 .635.325 1.208.847 1.636 0 0 1.145 1.148 3.208.597.904-.241 2.372-2.031 4.957-2.316 1.288-.142 3.701.853 7.941.877.181-.39.219-.663.219-.663 0-2.305-3.636-3.029-7.068-3.029"/><path fill="#EEE" d="M111.422 75.283s2.487-.504 4.033-2.535c1.802-2.37 1.565-4.904 1.565-4.904 1.827-3.412-.569-6.612-.569-6.612-.238-3.602-2.467-5.094-2.467-5.094-1.448-3.436-4.649-4.36-4.649-4.36-2.513-2.938-6.972-2.843-6.972-2.843s-4.18-1.53-9.914.19c-.95.284-4.128.947-6.453 2.369-7.327 4.481-7.881 11.47-7.779 12.605.569 6.35 5.028 7.488 7.874 8.15.664 1.801 3.107 5.12 7.494 3.887 5.409-.947 7.686-2.559 9.014-2.559 1.329 0 5.029 1.422 8.823 1.706"/><path fill="#4C4C4C" d="M97.755 65.074c2.651-1.428 4.088-1.295 5.356-1.18.403.037.785.065 1.171.063 2.258-.051 4.087-1.002 4.898-1.922a.571.571 0 0 0-.857-.752c-.623.71-2.162 1.493-4.068 1.536-.342.01-.684-.023-1.039-.056-1.361-.127-3.05-.281-6.001 1.31-.757.408-1.795.56-2.92.673-2.502-3.606-.997-6.748-.566-7.496.042.002.084.016.126.016.456 0 .913-.112 1.328-.346a.568.568 0 0 0-.56-.99 1.626 1.626 0 0 1-2.14-.53.57.57 0 0 0-.958.612c.27.422.65.74 1.08.952-.594 1.203-1.72 4.368.422 7.906-1.507.148-3.016.36-4.198 1.122a8.2 8.2 0 0 0-2.138 2.037c-.716-.123-3.338-.768-3.796-3.675.285-.22.514-.512.657-.871a.58.58 0 0 0-.007-.436.576.576 0 0 0-.75-.296.57.57 0 0 0-.302.313.87.87 0 0 1-.517.524.88.88 0 0 1-.732-.08.57.57 0 0 0-.433-.05.566.566 0 0 0-.39.704.57.57 0 0 0 .27.34c.323.18.67.272 1.013.272.043 0 .082-.02.124-.022.542 2.744 2.713 3.95 4.249 4.315-.2.428-.329.886-.376 1.356a.57.57 0 0 0 .516.616l.051.003a.57.57 0 0 0 .568-.519c.123-1.38 1.44-2.82 2.61-3.577 1.098-.706 2.704-.855 4.259-1 1.508-.138 2.934-.27 4.05-.872m14.649-1.71a.568.568 0 1 0 .999.545c.022-.039 2.096-3.923-1.789-6.533a.569.569 0 1 0-.635.944c3.01 2.022 1.49 4.92 1.425 5.043M88.806 54.18a.57.57 0 0 0 .462-.237c1.65-2.294 3.937-1.509 4.033-1.473a.57.57 0 0 0 .7-.77.57.57 0 0 0-.306-.297c-1.093-.404-3.618-.532-5.351 1.877a.567.567 0 0 0 .165.816c.09.055.193.084.297.084m14.882-2.148c2.534-.205 3.685 1.63 3.738 1.716a.572.572 0 0 0 .946.054.6.6 0 0 0 .096-.2.6.6 0 0 0 .013-.221.54.54 0 0 0-.072-.21c-.062-.103-1.526-2.523-4.81-2.273a.57.57 0 0 0-.388.198.568.568 0 0 0 .477.936m10.417 16.619c-.28-.016-.588.206-.613.52-.002.02-.184 1.955-2.175 2.609a.57.57 0 0 0-.39.631.57.57 0 0 0 .569.478q.091 0 .178-.029c2.7-.885 2.944-3.485 2.952-3.595a.56.56 0 0 0-.521-.614"/><path fill="#4C4C4C" d="M85.902 63.118a.565.565 0 0 0 .621.73.56.56 0 0 0 .477-.434 1.62 1.62 0 0 1 1.88-1.154.57.57 0 0 0 .587-.235.56.56 0 0 0 .09-.427.574.574 0 0 0-.443-.451 2.7 2.7 0 0 0-1.422.098c-1.326-2.268-1.068-4.504-1.064-4.528a.57.57 0 0 0-.49-.64.57.57 0 0 0-.639.486c-.015.11-.319 2.635 1.21 5.248-.389.35-.67.803-.808 1.307m12.726-2.81a1.217 1.217 0 0 1 1.657.018.568.568 0 0 0 .793-.817 2.3 2.3 0 0 0-.908-.529c.337-1.155.205-1.668-.108-2.63a24 24 0 0 1-.18-.566l-.034-.114c-.414-1.373-.688-2.28.1-3.56a.566.566 0 0 0-.188-.782.57.57 0 0 0-.783.186c-1.055 1.716-.667 3-.218 4.486l.035.114q.1.33.184.588c.282.866.367 1.156.023 2.202-.43.077-.83.276-1.149.573a.567.567 0 0 0 .37.975.57.57 0 0 0 .406-.143m7.247-3.394a2.3 2.3 0 0 0 .977-.218.568.568 0 1 0-.485-1.029 1.217 1.217 0 0 1-1.575-.52.563.563 0 0 0-.779-.25.58.58 0 0 0-.279.347.6.6 0 0 0-.018.225q.016.116.073.215c.205.382.51.684.865.893-.611 1.484-.265 3.06.019 3.897a.57.57 0 1 0 1.079-.363c-.191-.567-.563-1.997-.002-3.214.042.002.082.017.125.017m5.461 10.724a.56.56 0 0 0-.192-.392.56.56 0 0 0-.413-.14 2.075 2.075 0 0 1-2.216-1.936.58.58 0 0 0-.607-.529.57.57 0 0 0-.529.606c.046.671.302 1.276.691 1.769-.914 1.076-2.114 1.382-2.781 1.46-.592.07-1.108.01-1.707-.06-.546-.063-1.166-.134-1.933-.111h-.005c-.023-.325-.1-.799-.347-1.194a.57.57 0 0 0-.765-.148.57.57 0 0 0-.2.752c.153.245.182.635.182.825-.574.206-1.071.508-1.52.8-.8.522-1.432.933-2.384.72-.86-.197-1.722-.237-2.453-.135-.113-.285-.294-.626-.57-.89a.57.57 0 0 0-.784.828c.098.092.176.226.238.36-1.256.517-1.885 1.38-1.915 1.422a.57.57 0 0 0-.04.59.57.57 0 0 0 .764.245c.08-.04.15-.1.202-.172.006-.009.63-.845 1.864-1.183.638-.175 1.551-.16 2.443.042.249.057.48.077.705.08.106.248.146.543.152.652a.57.57 0 0 0 .569.537l.03-.002a.57.57 0 0 0 .538-.594 3.4 3.4 0 0 0-.148-.78c.526-.19.982-.487 1.41-.766.652-.424 1.269-.826 2.073-.852.675-.024 1.23.04 1.766.104a9.3 9.3 0 0 0 1.655.069c.104.288.096.672.08.8a.57.57 0 0 0 .14.447.56.56 0 0 0 .426.194.57.57 0 0 0 .563-.495c.042-.373.019-.75-.067-1.116a5.3 5.3 0 0 0 2.67-1.673 3.2 3.2 0 0 0 1.885.47.567.567 0 0 0 .53-.604"/><path stroke="url(#i)" d="M165.543 133.679v50.673"/><path stroke="url(#j)" d="M165.496 198.828v-18.615"/><path fill="#ACD4A7" d="M165.336 182.97c4.192 0 7.59-3.395 7.59-7.582 0-4.188-3.398-7.583-7.59-7.583s-7.59 3.395-7.59 7.583c0 4.187 3.398 7.582 7.59 7.582"/><path fill="#389D2D" d="M165.32 179.937a4.55 4.55 0 0 0 4.553-4.55 4.55 4.55 0 0 0-4.553-4.549 4.55 4.55 0 0 0-4.554 4.549 4.55 4.55 0 0 0 4.554 4.55"/><path fill="#ACD4A7" d="M96.418 256.719c4.192 0 7.59-3.394 7.59-7.582s-3.398-7.583-7.59-7.583-7.59 3.395-7.59 7.583 3.398 7.582 7.59 7.582"/><path fill="#389D2D" d="M96.402 253.686a4.55 4.55 0 1 0 0-9.099 4.55 4.55 0 0 0-4.554 4.55 4.55 4.55 0 0 0 4.554 4.549"/><path stroke="url(#k)" d="M26.836 131.604v50.673"/><path stroke="url(#l)" d="M26.79 196.767v-18.614"/><path fill="#ACD4A7" d="M26.617 182.97c4.192 0 7.59-3.395 7.59-7.582 0-4.188-3.398-7.583-7.59-7.583s-7.59 3.395-7.59 7.583c0 4.187 3.398 7.582 7.59 7.582"/><path fill="#389D2D" d="M26.66 179.937a4.55 4.55 0 0 0 4.553-4.55 4.55 4.55 0 0 0-4.554-4.549 4.55 4.55 0 0 0-4.553 4.549 4.55 4.55 0 0 0 4.553 4.55"/></g><defs><linearGradient id="b" x1="8.461" x2="215.586" y1="309.475" y2="309.475" gradientUnits="userSpaceOnUse"><stop stop-color="#737373" stop-opacity=".11"/><stop offset="1" stop-color="#D9D9D9" stop-opacity=".2"/></linearGradient><linearGradient id="d" x1="97.347" x2="97.347" y1="404.851" y2="550.918" gradientUnits="userSpaceOnUse"><stop stop-color="#EEE"/><stop offset="1" stop-color="#F9F9F9"/></linearGradient><linearGradient id="e" x1="96.364" x2="96.364" y1="398.949" y2="484.524" gradientUnits="userSpaceOnUse"><stop stop-color="#C7C7C7"/><stop offset="1" stop-color="#F1F1F1"/></linearGradient><linearGradient id="f" x1="16.88" x2="201.722" y1="165.839" y2="165.839" gradientUnits="userSpaceOnUse"><stop stop-color="#737373" stop-opacity=".11"/><stop offset="1" stop-color="#D9D9D9" stop-opacity=".2"/></linearGradient><linearGradient id="g" x1="65.974" x2="130.314" y1="31.945" y2="96.348" gradientUnits="userSpaceOnUse"><stop/><stop offset="1" stop-color="#666"/></linearGradient><linearGradient id="h" x1="65.974" x2="130.314" y1="31.945" y2="96.348" gradientUnits="userSpaceOnUse"><stop/><stop offset="1" stop-color="#666"/></linearGradient><radialGradient id="i" cx="0" cy="0" r="1" gradientUnits="userSpaceOnUse"><stop stop-color="#389D2D" stop-opacity="0"/><stop offset="1" stop-color="#389D2D"/></radialGradient><radialGradient id="j" cx="0" cy="0" r="1" gradientUnits="userSpaceOnUse"><stop stop-color="#389D2D" stop-opacity="0"/><stop offset="1" stop-color="#389D2D"/></radialGradient><radialGradient id="k" cx="0" cy="0" r="1" gradientUnits="userSpaceOnUse"><stop stop-color="#389D2D" stop-opacity="0"/><stop offset="1" stop-color="#389D2D"/></radialGradient><radialGradient id="l" cx="0" cy="0" r="1" gradientUnits="userSpaceOnUse"><stop stop-color="#389D2D" stop-opacity="0"/><stop offset="1" stop-color="#389D2D"/></radialGradient><clipPath id="a"><path fill="#fff" d="M19 0h158v437H19z"/></clipPath><filter id="c" width="148.8" height="93.628" x="23.52" y="220.5" color-interpolation-filters="sRGB" filterUnits="userSpaceOnUse"><feFlood flood-opacity="0" result="BackgroundImageFix"/><feColorMatrix in="SourceAlpha" result="hardAlpha" values="0 0 0 0 0 0 0 0 0 0 0 0 0 0 0 0 0 0 127 0"/><feOffset dy="4"/><feGaussianBlur stdDeviation="4.5"/><feComposite in2="hardAlpha" operator="out"/><feColorMatrix values="0 0 0 0 0.144197 0 0 0 0 0.170861 0 0 0 0 0.141234 0 0 0 0.6 0"/><feBlend in2="BackgroundImageFix" result="effect1_dropShadow_468_64"/><feBlend in="SourceGraphic" in2="effect1_dropShadow_468_64" result="shape"/></filter></defs></svg>