<svg xmlns="http://www.w3.org/2000/svg" width="187" height="627" fill="none"><g opacity=".4"><path fill="url(#a)" fill-rule="evenodd" d="M83.297 287.416c5.224-3.014 13.692-3.014 18.916 0l66.705 38.499a5 5 0 0 1 2.5 4.305l1.2 238.824c0 6.029-4.235 13.361-9.458 16.376l-69.117 39.343a5 5 0 0 1-4.973-.015l-66.69-38.49c-5.224-3.014-9.458-10.346-9.458-16.375l.002-237.824a5 5 0 0 1 2.447-4.299zm17.024 1.092 66.705 38.498a5 5 0 0 1 2.501 4.306l1.199 238.824-.009.455c-.203 4.731-3.509 10.309-7.557 12.645l-69.442 39.529a4.35 4.35 0 0 1-4.324-.013l-.61-.352-66.404-38.325c-4.048-2.336-7.354-7.914-7.557-12.645l-.01-.456V333.151a5 5 0 0 1 2.447-4.299l67.929-40.344.399-.22c4.2-2.19 10.685-2.116 14.733.22" clip-rule="evenodd"/><path fill="#EEE" fill-rule="evenodd" d="m100.321 288.508 66.705 38.498a5 5 0 0 1 2.501 4.306l1.199 238.824-.009.455c-.203 4.731-3.509 10.309-7.557 12.645l-69.442 39.529v-238.17a2.467 2.467 0 0 0-4.935 0V622.4L22.38 584.075c-4.048-2.336-7.354-7.914-7.557-12.645l-.01-.456V333.151a5 5 0 0 1 2.447-4.299l67.929-40.344.399-.22c4.2-2.19 10.685-2.116 14.733.22" clip-rule="evenodd"/><path fill="#C7C7C7" d="m88.783 622.4.61.352a4.35 4.35 0 0 0 4.325.013v-238.17a2.467 2.467 0 0 0-4.935 0z"/><g filter="url(#b)"><rect width="80.492" height="78.392" fill="#EEE" rx="5" transform="scale(1.2243 .70788)rotate(-45 580.33 212.653)"/></g><rect width="79.492" height="77.392" x=".866" stroke="#DDD" rx="4.5" transform="scale(1.2243 .70788)rotate(-45 581.117 212.845)"/><path fill="url(#c)" d="M11.719 502.569h160.925v136.294H11.719z"/><path fill="url(#d)" d="M88.898 482.864h4.926v95.241h-4.926z"/><path fill="url(#e)" fill-rule="evenodd" d="M88.222 110.956c5.031-2.877 13.188-2.877 18.218 0l63.771 36.473a5.76 5.76 0 0 1 2.913 4.927l1.126 83.733c0 5.755-4.078 12.753-9.109 15.63L99.068 288.99a5.86 5.86 0 0 1-5.78-.017L29.55 252.519c-5.03-2.877-9.109-9.874-9.109-15.629l.002-82.752a5.77 5.77 0 0 1 2.85-4.968zm16.396 1.042 63.772 36.474a5.77 5.77 0 0 1 2.913 4.925l1.125 83.734-.009.434c-.195 4.517-3.379 9.84-7.278 12.07l-66.073 37.271a5.86 5.86 0 0 1-5.78-.017L29.55 250.436c-3.898-2.23-7.082-7.553-7.278-12.069l-.009-.435v-82.753a5.77 5.77 0 0 1 2.85-4.966l64.931-38.215.384-.21c4.046-2.09 10.292-2.02 14.19.21" clip-rule="evenodd"/><path fill="url(#f)" d="M171.29 153.396a5.77 5.77 0 0 0-2.913-4.925l-63.772-36.474c-3.899-2.23-10.144-2.301-14.19-.21l-.384.21-64.93 38.215a5.77 5.77 0 0 0-2.851 4.966v82.752l.009.436c.195 4.516 3.38 9.839 7.278 12.069l63.737 36.452a5.86 5.86 0 0 0 5.78.018l66.074-37.271c3.898-2.23 7.082-7.553 7.278-12.07l.009-.434z"/><path fill="#F9F9F9" d="M171.29 153.396a5.77 5.77 0 0 0-2.913-4.925l-63.772-36.474c-3.899-2.23-10.144-2.301-14.19-.21l-.384.21-64.93 38.215a5.77 5.77 0 0 0-2.851 4.966v82.752l.009.436c.195 4.516 3.38 9.839 7.278 12.069l63.737 36.452a5.86 5.86 0 0 0 5.78.018l66.074-37.271c3.898-2.23 7.082-7.553 7.278-12.07l.009-.434z"/><path fill="#389D2D" d="M107.975 229.705c5.817 0 10.47 4.618 10.47 10.39 0 2.032-.582 3.949-1.605 5.542l7.166 7.158-3.234 3.209-7.259-7.088a10.5 10.5 0 0 1-5.538 1.569c-5.816 0-10.47-4.617-10.47-10.39 0-5.772 4.654-10.39 10.47-10.39m0 4.618a5.84 5.84 0 0 0-4.113 1.691 5.75 5.75 0 0 0-1.703 4.081c0 1.531.613 3 1.703 4.082a5.843 5.843 0 0 0 8.226 0 5.75 5.75 0 0 0 1.704-4.082 5.75 5.75 0 0 0-1.704-4.081 5.84 5.84 0 0 0-4.113-1.691m-12.796-23.09c2.468 0 4.835.974 6.581 2.706a9.2 9.2 0 0 1 2.725 6.53c0 2.102-.721 4.041-1.907 5.61a14.8 14.8 0 0 0-5.282 3.395l-2.117.231A9.34 9.34 0 0 1 88.6 227a9.2 9.2 0 0 1-2.726-6.531c0-2.45.98-4.799 2.725-6.53a9.34 9.34 0 0 1 6.581-2.706m-18.613 36.943v-4.617c0-4.896 7.701-8.912 17.45-9.236a15.1 15.1 0 0 0-1.163 5.772c0 2.979.884 5.773 2.326 8.081z"/><path stroke="#DDD" d="m93.2 120.699-57.036 32.68c-2.505 1.435-2.505 3.762 0 5.197l55.285 31.677c2.504 1.435 6.565 1.435 9.07 0l57.036-32.68c2.504-1.435 2.504-3.762 0-5.197l-55.285-31.677c-2.504-1.435-6.565-1.435-9.07 0Z"/><path stroke="url(#g)" d="M172.582 165.16v54.996"/><path stroke="url(#h)" d="M172.535 235.866v-20.201"/><path fill="#ACD4A7" d="M172.367 218.654c4.579 0 8.292-3.684 8.292-8.229s-3.713-8.23-8.292-8.23c-4.58 0-8.293 3.685-8.293 8.23s3.713 8.229 8.293 8.229"/><path fill="#389D2D" d="M172.366 215.361c2.748 0 4.975-2.211 4.975-4.938s-2.227-4.938-4.975-4.938-4.975 2.211-4.975 4.938 2.227 4.938 4.975 4.938"/><path fill="#ACD4A7" d="M97.042 298.695c4.58 0 8.293-3.685 8.293-8.23s-3.713-8.229-8.293-8.229-8.292 3.684-8.292 8.229 3.713 8.23 8.292 8.23"/><path fill="#389D2D" d="M97.046 295.402c2.748 0 4.975-2.211 4.975-4.938s-2.227-4.938-4.975-4.938-4.976 2.211-4.976 4.938 2.228 4.938 4.976 4.938"/><path stroke="url(#i)" d="M21.02 162.909v54.997"/><path stroke="url(#j)" d="M20.988 233.617v-20.203"/><path fill="#ACD4A7" d="M20.804 218.654c4.58 0 8.293-3.684 8.293-8.229s-3.713-8.23-8.293-8.23-8.292 3.685-8.292 8.23 3.712 8.229 8.292 8.229"/><path fill="#389D2D" d="M20.823 215.361c2.748 0 4.976-2.211 4.976-4.938s-2.228-4.938-4.976-4.938-4.975 2.211-4.975 4.938 2.227 4.938 4.975 4.938"/><path fill="url(#k)" stroke="url(#l)" d="M91.966 23.744 29.832 85.408a5.17 5.17 0 0 0 0 7.35l62.134 61.663a5.264 5.264 0 0 0 7.406 0l62.134-61.664a5.17 5.17 0 0 0 0-7.35L99.372 23.745a5.265 5.265 0 0 0-7.406 0Z"/><path fill="#EEE" d="M92.212 66.305c-.096.018-.686.131-1.302.253-6.336 1.246-12.127 5.523-15.225 11.255a23.2 23.2 0 0 0-2.543 7.77c-.167 1.246-.141 4.583.053 5.837.396 2.579 1.02 4.565 2.112 6.751 1.25 2.492 2.596 4.312 4.602 6.229 1.84 1.76 3.476 2.883 5.879 4.051 1.461.705 2.649 1.141 4.18 1.524 2.024.505 2.394.54 5.905.497 3.037-.035 3.257-.044 4.225-.253 6.952-1.524 12.593-5.898 15.656-12.135 1.443-2.927 2.13-5.68 2.261-8.929.291-7.71-3.476-14.966-10.05-19.348-1.936-1.289-4.602-2.465-6.89-3.031-1.99-.505-2.333-.532-5.642-.523-1.672.009-3.124.026-3.22.052m5.395.802.467.052-.29.54c-1.1 2.056-1.25 2.309-1.594 2.596-.431.366-.695.444-1.953.566-1.611.148-2.086.297-2.588.793-.36.349-.633.889-.924 1.82-.352 1.098-.616 1.281-1.162.802-.475-.41-.739-.836-.836-1.376-.105-.566-.264-.836-.862-1.455-.616-.645-1.162-1.002-1.602-1.071-.21-.035-.457-.096-.537-.14-.15-.07-.422-.505-.422-.662 0-.104 1.549-.819 2.702-1.246 1.144-.418 2.921-.888 4.127-1.08 1.655-.261 3.934-.322 5.474-.14m9.857 3.728c.563.384.915.82 2.49 3.119.607.88.88.993 1.523.618l.369-.209.511.645q2.917 3.662 4.066 8.04c.22.81.572 2.727.519 2.78-.018.017-.255.087-.537.165-.854.218-1.135.122-2.033-.68-.889-.792-1.813-1.324-2.253-1.28-.246.026-.281.06-.299.287-.018.236.079.349.959 1.09 1.954 1.637 2.095 1.82 2.095 2.595 0 .54-.229 1.211-.476 1.368-.096.06-.457.148-.8.183-.74.07-1.109.218-1.602.618-.37.296-.458.514-.326.845.027.079.379.375.784.662.774.558 1.32 1.098 1.452 1.446.123.305.105.967-.018 1.194-.132.261-.352.4-1.091.723-.854.366-1.311.75-1.593 1.333-.361.766-.396.975-.466 3.188-.044 1.568-.097 2.187-.203 2.465-.396 1.046-2.165 2.57-4.823 4.156-1.364.819-1.601.845-1.645.2-.018-.261.07-.784.255-1.437.519-1.917.537-2.048.484-2.649-.026-.322-.159-.923-.282-1.35-.607-2.03-.818-3.11-.827-4.129-.009-.758-.149-1.699-.299-1.995-.229-.427-.449-.462-2.385-.4-1.593.052-1.822.043-2.438-.114-1.18-.305-1.848-.827-2.367-1.873-.722-1.48-.871-3.223-.379-4.678.617-1.803 2.245-3.911 3.802-4.913 1.003-.644 1.831-.932 2.64-.932.388 0 .845.061 1.074.14.378.13 1.611.836 2.156 1.228 1.003.723 2.579 1.019 3.705.688.546-.157 1.998-1.298 2.042-1.603.088-.584-1.259-1.124-3.019-1.202-.598-.026-1.153-.096-1.276-.166-.123-.06-.475-.322-.792-.592-.713-.601-1.197-.871-1.936-1.054-.924-.235-1.628-.035-2.438.688-.704.627-1.883 1.098-2.78 1.098-.581 0-.854-.262-.854-.828 0-.33.044-.453.246-.653.308-.305.695-.41 1.778-.48.457-.034.906-.078.994-.104.3-.078.168-.479-.448-1.333-.564-.792-.625-.845-1.356-1.22-1.276-.661-1.434-.88-.95-1.42.308-.356.959-.583 1.645-.583.775 0 1.153.157 1.769.74.3.288.634.55.748.584.317.087.898.079 1.188-.026.476-.165.476-.366-.017-1.69-.167-.435-.317-.967-.352-1.185-.079-.514.114-1.019.502-1.306.325-.236 2.525-1.01 2.93-1.028.167 0 .414.087.634.226m-24.976.671c0 .183.449.497 1.276.906 1.065.523 1.698 1.254 1.61 1.855-.026.192-.079.21-1.056.314-1.09.113-1.619.27-1.716.514-.088.227.203.4 1.267.775 1.814.636 2.491 1.072 2.491 1.62 0 .314-.246.558-.774.785-.493.209-.916.174-1.215-.105-.114-.104-.229-.183-.246-.157-.018.018-.097.384-.167.82-.3 1.62-.396 1.768-1.364 2.081-.828.279-1.655.81-2.333 1.516-.642.67-.81 1.063-.932 2.16-.124 1.08-.088 1.203.616 1.917.43.453.519.592.519.854 0 .426-.15.705-.484.888-.467.244-.678.13-1.056-.592-1.065-2.013-1.84-2.579-2.561-1.864-.537.53-.308 1.237.651 1.977 1.426 1.098 1.751 1.55 1.883 2.596.044.357.123.723.167.81.168.305.634.427 1.629.41l.932-.01.484.332c.625.427 1.54 1.411 2.385 2.561.37.505.863 1.141 1.1 1.42.485.557 1.62 1.333 2.35 1.612.264.095.766.278 1.118.409.757.27 1.311.75 1.39 1.202.07.357-.008.531-.528 1.106-.21.236-.563.802-.783 1.264-.502 1.036-.748 1.358-1.276 1.681-.59.366-.827.636-1.206 1.385-.193.366-.59.984-.889 1.359-.308.374-.554.714-.554.74 0 .035-.062.131-.123.218-.115.148-.167.14-.819-.252-.528-.323-1.725-1.124-1.945-1.298-.017-.018-.105-.584-.193-1.264-.282-2.09-.537-2.779-1.276-3.484-.81-.767-1.303-1.56-1.628-2.579-.176-.566-.185-.714-.123-2.386.052-1.725.052-1.812-.132-2.222-.238-.54-.379-.688-.845-.915-.396-.191-.73-.575-1.77-2.047-1.293-1.82-1.724-2.761-2.05-4.434-.193-.958-.167-1.21.3-3.031.677-2.666 2.332-5.898 4.1-8.015.96-1.158 3.46-3.545 3.714-3.554.035 0 .062.061.062.122"/><path stroke="#A7A7A7" stroke-opacity=".3" d="M92.062 31.89 38.137 85.409a5.17 5.17 0 0 0 0 7.35l53.925 53.516a5.264 5.264 0 0 0 7.406 0l53.925-53.517a5.17 5.17 0 0 0 0-7.35L99.468 31.892a5.265 5.265 0 0 0-7.406 0Z"/></g><defs><linearGradient id="a" x1="2.253" x2="211.933" y1="380.776" y2="380.776" gradientUnits="userSpaceOnUse"><stop stop-color="#737373" stop-opacity=".11"/><stop offset="1" stop-color="#D9D9D9" stop-opacity=".2"/></linearGradient><linearGradient id="c" x1="92.181" x2="92.181" y1="502.569" y2="638.863" gradientUnits="userSpaceOnUse"><stop stop-color="#EEE"/><stop offset="1" stop-color="#F9F9F9"/></linearGradient><linearGradient id="d" x1="91.362" x2="91.362" y1="482.864" y2="578.105" gradientUnits="userSpaceOnUse"><stop stop-color="#C7C7C7"/><stop offset="1" stop-color="#F1F1F1"/></linearGradient><linearGradient id="e" x1="10.166" x2="212.115" y1="200.062" y2="200.062" gradientUnits="userSpaceOnUse"><stop stop-color="#737373" stop-opacity=".11"/><stop offset="1" stop-color="#D9D9D9" stop-opacity=".2"/></linearGradient><linearGradient id="f" x1="10.152" x2="212.102" y1="200.061" y2="200.061" gradientUnits="userSpaceOnUse"><stop stop-color="#737373" stop-opacity=".11"/><stop offset="1" stop-color="#D9D9D9" stop-opacity=".2"/></linearGradient><linearGradient id="k" x1="60.729" x2="130.557" y1="54.745" y2="125.106" gradientUnits="userSpaceOnUse"><stop/><stop offset="1" stop-color="#666"/></linearGradient><linearGradient id="l" x1="60.729" x2="130.557" y1="54.745" y2="125.106" gradientUnits="userSpaceOnUse"><stop/><stop offset="1" stop-color="#666"/></linearGradient><radialGradient id="g" cx="0" cy="0" r="1" gradientUnits="userSpaceOnUse"><stop stop-color="#389D2D" stop-opacity="0"/><stop offset="1" stop-color="#389D2D"/></radialGradient><radialGradient id="h" cx="0" cy="0" r="1" gradientUnits="userSpaceOnUse"><stop stop-color="#389D2D" stop-opacity="0"/><stop offset="1" stop-color="#389D2D"/></radialGradient><radialGradient id="i" cx="0" cy="0" r="1" gradientUnits="userSpaceOnUse"><stop stop-color="#389D2D" stop-opacity="0"/><stop offset="1" stop-color="#389D2D"/></radialGradient><radialGradient id="j" cx="0" cy="0" r="1" gradientUnits="userSpaceOnUse"><stop stop-color="#389D2D" stop-opacity="0"/><stop offset="1" stop-color="#389D2D"/></radialGradient><filter id="b" width="132.477" height="80.597" x="26.539" y="295.748" color-interpolation-filters="sRGB" filterUnits="userSpaceOnUse"><feFlood flood-opacity="0" result="BackgroundImageFix"/><feBlend in="SourceGraphic" in2="BackgroundImageFix" result="shape"/><feColorMatrix in="SourceAlpha" result="hardAlpha" values="0 0 0 0 0 0 0 0 0 0 0 0 0 0 0 0 0 0 127 0"/><feMorphology in="SourceAlpha" operator="dilate" radius="1" result="effect1_innerShadow_6089_4685"/><feOffset dy="4"/><feGaussianBlur stdDeviation="4.5"/><feComposite in2="hardAlpha" k2="-1" k3="1" operator="arithmetic"/><feColorMatrix values="0 0 0 0 0.144197 0 0 0 0 0.170861 0 0 0 0 0.141234 0 0 0 0.6 0"/><feBlend in2="shape" result="effect1_innerShadow_6089_4685"/></filter></defs></svg>