<svg width="365" height="367" viewBox="0 0 365 367" fill="none" xmlns="http://www.w3.org/2000/svg">
<g opacity="0.4">
<rect width="218.597" height="218.598" rx="10" transform="matrix(-0.866024 -0.500002 0 1 290.805 109.299)" fill="url(#paint0_linear_318_5)"/>
<path fill-rule="evenodd" clip-rule="evenodd" d="M216.84 129.784C216.84 127.964 215.551 125.75 213.96 124.84L160.912 94.4907C159.321 93.5805 158.031 94.3193 158.031 96.1386V185.677C158.031 187.496 159.321 189.71 160.912 190.62L188.281 206.278C190.818 207.73 192.26 204.9 191.004 201.656C188.733 195.802 187.436 189.787 187.436 184.164C187.436 181.426 187.743 178.945 188.322 176.748C188.776 175.017 187.548 172.212 185.752 171.184C184.362 170.389 183.235 168.456 183.235 166.867V163.43C183.235 161.607 184.525 160.872 186.115 161.782L190.662 164.383C191.2 164.691 191.636 165.438 191.636 166.054C191.636 167.172 192.987 168.422 193.606 167.913C198.613 163.78 206.221 163.67 214.74 168.544C215.874 169.193 216.84 168.73 216.84 167.432V129.784ZM205.979 149.112C207.57 150.023 208.859 152.237 208.859 154.056V157.078C208.859 158.898 207.57 159.636 205.979 158.726L169.733 137.99C168.142 137.08 166.852 134.865 166.852 133.046V130.024C166.852 128.205 168.142 127.466 169.733 128.376L205.979 149.112ZM205.558 129.647C207.149 130.558 208.439 132.769 208.439 134.591V137.61C208.439 139.433 207.149 140.168 205.558 139.258L169.313 118.522C167.722 117.612 166.433 115.401 166.433 113.578V110.559C166.433 108.736 167.722 108.001 169.313 108.911L205.558 129.647Z" fill="#389D2D"/>
<path fill-rule="evenodd" clip-rule="evenodd" d="M233.873 200.761C234.408 202.409 233.882 203.65 232.767 203.75C231.697 203.844 231.203 205.005 231.382 206.504C231.5 207.498 231.559 208.468 231.559 209.407C231.559 210.347 231.5 211.249 231.382 212.107C231.203 213.403 231.697 215.129 232.767 216.446C233.882 217.823 234.408 219.666 233.873 220.701C233.651 221.131 233.41 221.541 233.151 221.926L232.759 222.48C232.476 222.855 232.174 223.21 231.855 223.535C231.107 224.306 229.677 223.739 228.563 222.366C227.492 221.045 226.154 220.513 225.185 220.836C223.911 221.264 222.486 221.398 220.95 221.215C219.803 221.079 218.957 221.805 218.957 223.218C218.957 224.692 218.051 225.462 216.769 224.871C216.101 224.561 215.429 224.213 214.756 223.828C214.077 223.439 213.405 223.019 212.743 222.567C211.461 221.692 210.555 219.885 210.555 218.412C210.555 216.998 209.71 215.305 208.562 214.127C207.026 212.553 205.601 210.789 204.326 208.903C203.358 207.472 202.019 206.472 200.949 206.565C199.835 206.666 198.405 205.597 197.657 203.97C197.335 203.271 197.03 202.566 196.745 201.859L196.369 200.9C196.107 200.209 195.864 199.516 195.64 198.828C195.105 197.18 195.63 195.938 196.746 195.838C197.816 195.745 198.309 194.584 198.13 193.084C198.012 192.09 197.953 191.121 197.954 190.182C197.953 189.245 198.012 188.343 198.13 187.485C198.309 186.186 197.816 184.463 196.746 183.143C195.63 181.77 195.105 179.923 195.64 178.888C195.864 178.456 196.108 178.042 196.37 177.651L196.744 177.124C197.03 176.744 197.334 176.387 197.657 176.054C198.405 175.286 199.835 175.853 200.949 177.226C202.019 178.543 203.358 179.078 204.326 178.752C205.601 178.328 207.026 178.194 208.562 178.374C209.71 178.51 210.555 177.784 210.555 176.37C210.555 174.9 211.461 174.127 212.743 174.721C213.411 175.028 214.083 175.376 214.756 175.761C215.435 176.15 216.107 176.574 216.77 177.025C218.051 177.897 218.957 179.707 218.957 181.177C218.957 182.591 219.803 184.284 220.95 185.462C222.486 187.039 223.911 188.8 225.185 190.686C226.154 192.12 227.492 193.117 228.563 193.023C229.677 192.923 231.107 193.991 231.855 195.619C232.174 196.312 232.476 197.009 232.759 197.708L233.151 198.711C233.41 199.396 233.651 200.077 233.873 200.761ZM214.756 207.006C218.236 208.997 221.057 207.381 221.057 203.399C221.057 199.418 218.236 194.578 214.756 192.587C211.276 190.596 208.455 192.208 208.455 196.19C208.455 200.171 211.276 205.015 214.756 207.006Z" fill="#878787"/>
<rect width="160.673" height="159.575" rx="10" transform="matrix(-0.86799 -0.496582 0 1 227.711 180.881)" fill="url(#paint1_linear_318_5)"/>
<rect width="131.158" height="131.159" rx="10" transform="matrix(-0.866024 -0.500002 0 1 170.508 235.017)" fill="url(#paint2_linear_318_5)"/>
<g clip-path="url(#clip0_318_5)">
<path d="M132.423 295.243L123.232 284.147L114.04 284.629L123.232 295.725L132.423 295.243Z" fill="#878787"/>
<path fill-rule="evenodd" clip-rule="evenodd" d="M107.055 280.596L114.04 289.029V294.278L102.342 287.524C100.487 286.453 99 283.877 99 281.735V250.859C99 249.836 99.3521 249.057 99.9789 248.696C100.606 248.334 101.456 248.418 102.342 248.93L104.013 249.895L104.013 263.403L108.191 262.92L112.369 268.227V254.719L122.396 260.508C123.283 261.02 124.133 261.917 124.76 263.003C125.386 264.089 125.739 265.274 125.739 266.297V282.777L123.232 279.747L107.055 280.596Z" fill="#389D2D"/>
<path d="M117.383 290.592V294.452L123.232 301.514L129.081 301.206V297.346L123.232 297.655L117.383 290.592Z" fill="#878787"/>
</g>
<g clip-path="url(#clip1_318_5)">
<path d="M143.936 240.262C142.634 239.51 141.52 238.333 140.594 236.729C139.668 235.125 139.205 233.57 139.203 232.064V204.74C139.203 203.237 139.667 202.219 140.594 201.685C141.522 201.151 142.636 201.259 143.936 202.007L146.302 203.373V197.909C146.302 194.129 147.456 191.573 149.764 190.243C152.072 188.912 154.862 189.19 158.134 191.077C161.406 192.965 164.197 195.908 166.506 199.909C168.816 203.909 169.969 207.796 169.966 211.571V217.036L172.332 218.402C173.634 219.154 174.748 220.333 175.676 221.939C176.604 223.546 177.067 225.099 177.065 226.599V253.924C177.065 255.427 176.602 256.447 175.676 256.983C174.75 257.52 173.635 257.411 172.332 256.657L143.936 240.262ZM158.134 234.797C159.436 235.548 160.55 235.657 161.478 235.123C162.405 234.59 162.868 233.57 162.867 232.064C162.865 230.559 162.402 229.005 161.478 227.404C160.553 225.803 159.439 224.624 158.134 223.867C156.829 223.11 155.716 223.003 154.793 223.545C153.87 224.087 153.406 225.105 153.401 226.599C153.397 228.094 153.86 229.649 154.793 231.264C155.725 232.879 156.839 234.056 158.134 234.797ZM151.035 206.106L165.233 214.303V208.838C165.233 206.561 164.543 204.227 163.163 201.836C161.782 199.446 160.106 197.681 158.134 196.542C156.162 195.404 154.486 195.233 153.105 196.03C151.725 196.827 151.035 198.364 151.035 200.641V206.106Z" fill="#4C4C4C" fill-opacity="0.2"/>
</g>
<path d="M53.9812 245.597L17.3637 266.546C7.77615 272.031 7.77613 280.924 17.3637 286.41L124.143 347.499C133.731 352.984 149.275 352.984 158.863 347.499L347.131 239.789C356.719 234.304 356.719 225.411 347.131 219.926L293.742 189.381" stroke="#D9D9D9"/>
</g>
<defs>
<linearGradient id="paint0_linear_318_5" x1="144.283" y1="216.659" x2="135.526" y2="2.36983" gradientUnits="userSpaceOnUse">
<stop stop-color="#F9F9F9" stop-opacity="0.8"/>
<stop offset="1" stop-color="#A7A7A7" stop-opacity="0.6"/>
</linearGradient>
<linearGradient id="paint1_linear_318_5" x1="106.051" y1="158.16" x2="99.7023" y2="1.7264" gradientUnits="userSpaceOnUse">
<stop stop-color="#F9F9F9" stop-opacity="0.8"/>
<stop offset="1" stop-color="#A7A7A7" stop-opacity="0.6"/>
</linearGradient>
<linearGradient id="paint2_linear_318_5" x1="86.57" y1="129.996" x2="81.3157" y2="1.4219" gradientUnits="userSpaceOnUse">
<stop stop-color="#F9F9F9" stop-opacity="0.8"/>
<stop offset="1" stop-color="#A7A7A7" stop-opacity="0.6"/>
</linearGradient>
<clipPath id="clip0_318_5">
<rect width="51.0059" height="51.0061" fill="white" transform="matrix(0.866024 0.500002 0 1 91.8123 229.186)"/>
</clipPath>
<clipPath id="clip1_318_5">
<rect width="65.579" height="65.5793" fill="white" transform="matrix(0.866024 0.500003 0 1 129.742 171.95)"/>
</clipPath>
</defs>
</svg>
