<svg width="20" height="20" viewBox="0 0 20 20" fill="none" xmlns="http://www.w3.org/2000/svg">
<path d="M2.69998 15.7C1.69998 14.6 1.09998 13.4 1.09998 11.4C1.09998 7.90001 3.59998 4.80001 7.09998 3.20001L7.99998 4.50001C4.69998 6.30001 3.99998 8.60001 3.79998 10.1C4.29998 9.80001 4.99998 9.70001 5.69998 9.80001C7.49998 10 8.89998 11.4 8.89998 13.3C8.89998 14.2 8.49998 15.1 7.89998 15.8C7.19998 16.5 6.39998 16.8 5.39998 16.8C4.29998 16.8 3.29998 16.3 2.69998 15.7ZM12.7 15.7C11.7 14.6 11.1 13.4 11.1 11.4C11.1 7.90001 13.6 4.80001 17.1 3.20001L18 4.50001C14.7 6.30001 14 8.60001 13.8 10.1C14.3 9.80001 15 9.70001 15.7 9.80001C17.5 10 18.9 11.4 18.9 13.3C18.9 14.2 18.5 15.1 17.9 15.8C17.3 16.5 16.4 16.8 15.4 16.8C14.3 16.8 13.3 16.3 12.7 15.7Z" fill="currentColor"/>
</svg>
