<svg width="169" height="54" viewBox="0 0 169 54" fill="none" xmlns="http://www.w3.org/2000/svg">
<path d="M63.4468 3.14658H64.8164L68.3101 11.8404L71.7964 3.14658H73.1733L68.8374 13.8106H67.7681L63.4468 3.14658ZM63 3.14658H64.2085L64.4063 9.65048V13.8106H63V3.14658ZM72.4043 3.14658H73.6128V13.8106H72.2065V9.65048L72.4043 3.14658Z" fill="#4C4C4C"/>
<path d="M80.1753 4.0914L76.645 13.8106H75.2022L79.2671 3.14658H80.1973L80.1753 4.0914ZM83.1343 13.8106L79.5967 4.0914L79.5747 3.14658H80.5049L84.5845 13.8106H83.1343ZM82.9512 9.86289V11.0201H76.96V9.86289H82.9512Z" fill="#4C4C4C"/>
<path d="M92.3628 10.4195H93.7691C93.6958 11.0934 93.5029 11.6964 93.1904 12.2286C92.8779 12.7608 92.436 13.1832 91.8648 13.4957C91.2935 13.8033 90.5806 13.9571 89.7261 13.9571C89.1011 13.9571 88.5322 13.8399 88.0195 13.6056C87.5117 13.3712 87.0747 13.0392 86.7085 12.6095C86.3423 12.1749 86.0591 11.6549 85.8589 11.0494C85.6636 10.4391 85.5659 9.76035 85.5659 9.01328V7.95126C85.5659 7.20419 85.6636 6.52792 85.8589 5.92246C86.0591 5.3121 86.3447 4.78964 86.7158 4.35507C87.0918 3.9205 87.5435 3.58603 88.0708 3.35165C88.5982 3.11728 89.1914 3.00009 89.8506 3.00009C90.6563 3.00009 91.3374 3.15146 91.894 3.45419C92.4507 3.75693 92.8828 4.17685 93.1904 4.71396C93.5029 5.24619 93.6958 5.86386 93.7691 6.56699H92.3628C92.2944 6.06894 92.1675 5.64169 91.9819 5.28525C91.7964 4.92392 91.5327 4.6456 91.1909 4.45029C90.8491 4.25497 90.4024 4.15732 89.8506 4.15732C89.377 4.15732 88.9595 4.24765 88.5982 4.42831C88.2417 4.60898 87.9414 4.86533 87.6973 5.19736C87.458 5.52939 87.2773 5.92734 87.1553 6.39121C87.0332 6.85507 86.9722 7.37021 86.9722 7.93662V9.01328C86.9722 9.53574 87.0259 10.0265 87.1333 10.4854C87.2456 10.9444 87.4141 11.3473 87.6387 11.6939C87.8633 12.0406 88.1489 12.3141 88.4956 12.5143C88.8423 12.7096 89.2524 12.8072 89.7261 12.8072C90.3267 12.8072 90.8052 12.712 91.1616 12.5216C91.5181 12.3311 91.7866 12.0577 91.9673 11.7013C92.1528 11.3448 92.2847 10.9176 92.3628 10.4195Z" fill="#4C4C4C"/>
<path d="M99.416 3.14658V13.8106H98.0244V3.14658H99.416ZM102.844 3.14658V4.3038H94.604V3.14658H102.844Z" fill="#4C4C4C"/>
<path d="M111.201 12.6607V13.8106H105.554V12.6607H111.201ZM105.839 3.14658V13.8106H104.426V3.14658H105.839ZM110.454 7.73154V8.88144H105.554V7.73154H110.454ZM111.127 3.14658V4.3038H105.554V3.14658H111.127Z" fill="#4C4C4C"/>
<path d="M116.884 9.62851H114.035V8.47861H116.884C117.436 8.47861 117.883 8.39072 118.225 8.21494C118.566 8.03916 118.815 7.79501 118.972 7.48251C119.133 7.17001 119.213 6.81357 119.213 6.41318C119.213 6.04697 119.133 5.70273 118.972 5.38046C118.815 5.0582 118.566 4.79941 118.225 4.6041C117.883 4.4039 117.436 4.3038 116.884 4.3038H114.365V13.8106H112.951V3.14658H116.884C117.69 3.14658 118.371 3.28574 118.928 3.56406C119.484 3.84238 119.907 4.22812 120.195 4.72128C120.483 5.20956 120.627 5.76865 120.627 6.39853C120.627 7.08212 120.483 7.66562 120.195 8.14902C119.907 8.63242 119.484 9.00107 118.928 9.25498C118.371 9.504 117.69 9.62851 116.884 9.62851Z" fill="#4C4C4C"/>
<path d="M128.852 10.4195H130.258C130.185 11.0934 129.992 11.6964 129.68 12.2286C129.367 12.7608 128.925 13.1832 128.354 13.4957C127.783 13.8033 127.07 13.9571 126.215 13.9571C125.59 13.9571 125.021 13.8399 124.509 13.6056C124.001 13.3712 123.564 13.0392 123.198 12.6095C122.832 12.1749 122.548 11.6549 122.348 11.0494C122.153 10.4391 122.055 9.76035 122.055 9.01328V7.95126C122.055 7.20419 122.153 6.52792 122.348 5.92246C122.548 5.3121 122.834 4.78964 123.205 4.35507C123.581 3.9205 124.033 3.58603 124.56 3.35165C125.087 3.11728 125.681 3.00009 126.34 3.00009C127.146 3.00009 127.827 3.15146 128.383 3.45419C128.94 3.75693 129.372 4.17685 129.68 4.71396C129.992 5.24619 130.185 5.86386 130.258 6.56699H128.852C128.784 6.06894 128.657 5.64169 128.471 5.28525C128.286 4.92392 128.022 4.6456 127.68 4.45029C127.338 4.25497 126.892 4.15732 126.34 4.15732C125.866 4.15732 125.449 4.24765 125.087 4.42831C124.731 4.60898 124.431 4.86533 124.187 5.19736C123.947 5.52939 123.767 5.92734 123.645 6.39121C123.522 6.85507 123.461 7.37021 123.461 7.93662V9.01328C123.461 9.53574 123.515 10.0265 123.623 10.4854C123.735 10.9444 123.903 11.3473 124.128 11.6939C124.353 12.0406 124.638 12.3141 124.985 12.5143C125.332 12.7096 125.742 12.8072 126.215 12.8072C126.816 12.8072 127.294 12.712 127.651 12.5216C128.007 12.3311 128.276 12.0577 128.457 11.7013C128.642 11.3448 128.774 10.9176 128.852 10.4195Z" fill="#4C4C4C"/>
<path d="M133.664 3.14658V13.8106H132.251V3.14658H133.664ZM140.234 3.14658L135.605 9.01328H133.1L132.88 7.8414H134.763L138.483 3.14658H140.234ZM138.813 13.8106L134.807 8.83017L135.598 7.59238L140.542 13.8106H138.813Z" fill="#4C4C4C"/>
<path d="M145.771 4.0914L142.241 13.8106H140.798L144.863 3.14658H145.793L145.771 4.0914ZM148.73 13.8106L145.192 4.0914L145.17 3.14658H146.101L150.18 13.8106H148.73ZM148.547 9.86289V11.0201H142.556V9.86289H148.547Z" fill="#4C4C4C"/>
<path d="M157.526 9.65781H154.531L153.835 9.37216C153.063 9.12802 152.47 8.75449 152.055 8.25156C151.64 7.74375 151.433 7.11386 151.433 6.36191C151.433 5.67343 151.584 5.08994 151.887 4.61142C152.194 4.1329 152.629 3.76913 153.19 3.52011C153.757 3.27109 154.426 3.14658 155.197 3.14658H158.61V13.8106H157.197V4.3038H155.197C154.416 4.3038 153.828 4.48935 153.432 4.86044C153.042 5.23154 152.846 5.73203 152.846 6.36191C152.846 6.77207 152.932 7.13828 153.103 7.46054C153.278 7.78281 153.537 8.03671 153.879 8.22226C154.221 8.40781 154.646 8.50058 155.153 8.50058H157.534L157.526 9.65781ZM155.124 8.92539L152.531 13.8106H151.03L153.696 8.92539H155.124Z" fill="#4C4C4C"/>
<path d="M64.4063 29.3643L69.6577 21.1465H71.0713V31.8106H69.6577V23.5855L64.4063 31.8106H63V21.1465H64.4063V29.3643Z" fill="#4C4C4C"/>
<path d="M80.6074 25.7315V26.8814H74.8359V25.7315H80.6074ZM75.0557 21.1465V31.8106H73.6421V21.1465H75.0557ZM81.8379 21.1465V31.8106H80.4316V21.1465H81.8379Z" fill="#4C4C4C"/>
<path d="M87.5361 26.94L83.7275 21.1465H85.3828L88.2173 25.7681H90.2241L89.9971 26.94H87.5361ZM88.2979 26.8301L85.1997 31.8106H83.4419L87.4043 25.6143L88.2979 26.8301ZM90.832 21.1465V31.8106H89.4331V21.1465H90.832ZM96.4863 21.1465L92.6631 26.94H90.2754L90.0557 25.7681H91.9893L94.8237 21.1465H96.4863ZM95.0068 31.8106L91.916 26.8301L92.8169 25.6143L96.7647 31.8106H95.0068Z" fill="#4C4C4C"/>
<path d="M104.88 30.6607V31.8106H99.2329V30.6607H104.88ZM99.5186 21.1465V31.8106H98.105V21.1465H99.5186ZM104.133 25.7315V26.8814H99.2329V25.7315H104.133ZM104.807 21.1465V22.3038H99.2329V21.1465H104.807Z" fill="#4C4C4C"/>
<path d="M113.596 25.7315V26.8814H107.824V25.7315H113.596ZM108.044 21.1465V31.8106H106.63V21.1465H108.044ZM114.826 21.1465V31.8106H113.42V21.1465H114.826Z" fill="#4C4C4C"/>
<path d="M124.113 30.6607V31.8106H118.466V30.6607H124.113ZM118.752 21.1465V31.8106H117.338V21.1465H118.752ZM123.366 25.7315V26.8814H118.466V25.7315H123.366ZM124.04 21.1465V22.3038H118.466V21.1465H124.04Z" fill="#4C4C4C"/>
<path d="M129.797 27.6285H126.948V26.4786H129.797C130.349 26.4786 130.795 26.3907 131.137 26.2149C131.479 26.0391 131.728 25.795 131.884 25.4825C132.045 25.17 132.126 24.8135 132.126 24.4131C132.126 24.0469 132.045 23.7027 131.884 23.3804C131.728 23.0582 131.479 22.7994 131.137 22.6041C130.795 22.4039 130.349 22.3038 129.797 22.3038H127.277V31.8106H125.864V21.1465H129.797C130.603 21.1465 131.284 21.2857 131.84 21.564C132.397 21.8423 132.819 22.2281 133.107 22.7213C133.396 23.2095 133.54 23.7686 133.54 24.3985C133.54 25.0821 133.396 25.6656 133.107 26.149C132.819 26.6324 132.397 27.001 131.84 27.2549C131.284 27.504 130.603 27.6285 129.797 27.6285Z" fill="#4C4C4C"/>
<path d="M143.537 26.1417V26.8155C143.537 27.6163 143.437 28.334 143.237 28.9688C143.037 29.6036 142.749 30.1431 142.373 30.5875C141.997 31.0318 141.545 31.3712 141.018 31.6055C140.495 31.8399 139.909 31.9571 139.26 31.9571C138.63 31.9571 138.051 31.8399 137.524 31.6055C137.001 31.3712 136.547 31.0318 136.162 30.5875C135.781 30.1431 135.485 29.6036 135.275 28.9688C135.065 28.334 134.96 27.6163 134.96 26.8155V26.1417C134.96 25.3409 135.063 24.6256 135.268 23.9957C135.478 23.3609 135.773 22.8214 136.154 22.377C136.535 21.9278 136.987 21.586 137.509 21.3516C138.037 21.1172 138.615 21.0001 139.245 21.0001C139.895 21.0001 140.48 21.1172 141.003 21.3516C141.53 21.586 141.982 21.9278 142.358 22.377C142.739 22.8214 143.029 23.3609 143.23 23.9957C143.435 24.6256 143.537 25.3409 143.537 26.1417ZM142.138 26.8155V26.127C142.138 25.4922 142.072 24.9307 141.94 24.4424C141.813 23.9542 141.626 23.544 141.376 23.212C141.127 22.8799 140.822 22.6285 140.461 22.4576C140.105 22.2867 139.699 22.2012 139.245 22.2012C138.806 22.2012 138.408 22.2867 138.051 22.4576C137.7 22.6285 137.397 22.8799 137.143 23.212C136.894 23.544 136.701 23.9542 136.564 24.4424C136.428 24.9307 136.359 25.4922 136.359 26.127V26.8155C136.359 27.4551 136.428 28.0215 136.564 28.5147C136.701 29.003 136.896 29.4156 137.15 29.7525C137.409 30.0845 137.714 30.336 138.066 30.5069C138.422 30.6778 138.82 30.7632 139.26 30.7632C139.719 30.7632 140.126 30.6778 140.483 30.5069C140.839 30.336 141.14 30.0845 141.384 29.7525C141.633 29.4156 141.821 29.003 141.948 28.5147C142.075 28.0215 142.138 27.4551 142.138 26.8155Z" fill="#4C4C4C"/>
<path d="M149.455 26.8228H146.752L146.738 25.6876H149.191C149.597 25.6876 149.951 25.6192 150.253 25.4825C150.556 25.3458 150.791 25.1505 150.957 24.8965C151.127 24.6378 151.213 24.3301 151.213 23.9737C151.213 23.5831 151.137 23.2657 150.986 23.0215C150.839 22.7725 150.612 22.5919 150.305 22.4796C150.002 22.3624 149.616 22.3038 149.147 22.3038H147.067V31.8106H145.654V21.1465H149.147C149.694 21.1465 150.183 21.2027 150.612 21.315C151.042 21.4224 151.406 21.5933 151.704 21.8277C152.006 22.0572 152.236 22.3502 152.392 22.7066C152.548 23.063 152.626 23.4903 152.626 23.9883C152.626 24.4278 152.514 24.8257 152.29 25.1822C152.065 25.5338 151.752 25.8218 151.352 26.0464C150.957 26.2711 150.493 26.4151 149.96 26.4786L149.455 26.8228ZM149.389 31.8106H146.196L146.994 30.6607H149.389C149.838 30.6607 150.219 30.5826 150.532 30.4263C150.849 30.2701 151.091 30.0504 151.257 29.7672C151.423 29.4791 151.506 29.1397 151.506 28.7491C151.506 28.3536 151.435 28.0118 151.293 27.7237C151.152 27.4356 150.93 27.2134 150.627 27.0572C150.324 26.9009 149.934 26.8228 149.455 26.8228H147.441L147.456 25.6876H150.209L150.51 26.0977C151.022 26.1417 151.457 26.2881 151.813 26.5372C152.17 26.7813 152.441 27.0938 152.626 27.4747C152.817 27.8555 152.912 28.2755 152.912 28.7344C152.912 29.3985 152.766 29.96 152.473 30.419C152.185 30.8731 151.777 31.2198 151.25 31.459C150.722 31.6934 150.102 31.8106 149.389 31.8106Z" fill="#4C4C4C"/>
<path d="M157.614 26.7203V27.8336H154.04V26.7203H157.614Z" fill="#4C4C4C"/>
<path d="M63.4468 39.1465H64.8164L68.3101 47.8403L71.7964 39.1465H73.1733L68.8374 49.8105H67.7681L63.4468 39.1465ZM63 39.1465H64.2085L64.4063 45.6504V49.8105H63V39.1465ZM72.4043 39.1465H73.6128V49.8105H72.2065V45.6504L72.4043 39.1465Z" fill="#4C4C4C"/>
<path d="M82.8706 48.6606V49.8105H77.2236V48.6606H82.8706ZM77.5093 39.1465V49.8105H76.0957V39.1465H77.5093ZM82.1235 43.7314V44.8813H77.2236V43.7314H82.1235ZM82.7974 39.1465V40.3037H77.2236V39.1465H82.7974Z" fill="#4C4C4C"/>
<path d="M91.5864 43.7314V44.8813H85.8149V43.7314H91.5864ZM86.0347 39.1465V49.8105H84.6211V39.1465H86.0347ZM92.8169 39.1465V49.8105H91.4106V39.1465H92.8169Z" fill="#4C4C4C"/>
<path d="M102.104 48.6606V49.8105H96.457V48.6606H102.104ZM96.7427 39.1465V49.8105H95.3291V39.1465H96.7427ZM101.357 43.7314V44.8813H96.457V43.7314H101.357ZM102.031 39.1465V40.3037H96.457V39.1465H102.031Z" fill="#4C4C4C"/>
<path d="M112.241 48.6606V49.8105H104.169V48.6606H112.241ZM104.396 48.6606V52.4326H102.998L102.99 48.6606H104.396ZM113.471 48.6606L113.457 52.4253H112.058V48.6606H113.471ZM110.856 39.1465V40.3037H106.184V39.1465H110.856ZM112.072 39.1465V49.8105H110.666V39.1465H112.072ZM105.7 39.1465H107.114L106.894 43.4384C106.865 44.083 106.804 44.6787 106.711 45.2256C106.618 45.7675 106.503 46.2632 106.367 46.7124C106.23 47.1616 106.074 47.5644 105.898 47.9209C105.722 48.2724 105.534 48.5776 105.334 48.8364C105.134 49.0903 104.924 49.3003 104.704 49.4663C104.489 49.6274 104.272 49.7422 104.052 49.8105H103.408V48.6606H103.862C103.989 48.5239 104.133 48.3261 104.294 48.0674C104.46 47.8086 104.624 47.4741 104.785 47.0639C104.951 46.6489 105.095 46.1435 105.217 45.5478C105.344 44.9521 105.429 44.249 105.473 43.4384L105.7 39.1465Z" fill="#4C4C4C"/>
<path d="M118.188 44.9399L114.379 39.1465H116.035L118.869 43.768H120.876L120.649 44.9399H118.188ZM118.95 44.83L115.852 49.8105H114.094L118.056 43.6142L118.95 44.83ZM121.484 39.1465V49.8105H120.085V39.1465H121.484ZM127.138 39.1465L123.315 44.9399H120.927L120.708 43.768H122.641L125.476 39.1465H127.138ZM125.659 49.8105L122.568 44.83L123.469 43.6142L127.417 49.8105H125.659Z" fill="#4C4C4C"/>
<path d="M135.532 48.6606V49.8105H129.885V48.6606H135.532ZM130.17 39.1465V49.8105H128.757V39.1465H130.17ZM134.785 43.7314V44.8813H129.885V43.7314H134.785ZM135.459 39.1465V40.3037H129.885V39.1465H135.459Z" fill="#4C4C4C"/>
<path d="M141.215 45.6284H138.366V44.4785H141.215C141.767 44.4785 142.214 44.3906 142.556 44.2148C142.897 44.039 143.146 43.7949 143.303 43.4824C143.464 43.1699 143.544 42.8134 143.544 42.4131C143.544 42.0468 143.464 41.7026 143.303 41.3803C143.146 41.0581 142.897 40.7993 142.556 40.604C142.214 40.4038 141.767 40.3037 141.215 40.3037H138.696V49.8105H137.282V39.1465H141.215C142.021 39.1465 142.702 39.2856 143.259 39.5639C143.815 39.8423 144.238 40.228 144.526 40.7212C144.814 41.2094 144.958 41.7685 144.958 42.3984C144.958 43.082 144.814 43.6655 144.526 44.1489C144.238 44.6323 143.815 45.0009 143.259 45.2549C142.702 45.5039 142.021 45.6284 141.215 45.6284Z" fill="#4C4C4C"/>
<path d="M154.956 44.1416V44.8154C154.956 45.6162 154.855 46.334 154.655 46.9687C154.455 47.6035 154.167 48.143 153.791 48.5874C153.415 49.0317 152.963 49.3711 152.436 49.6054C151.914 49.8398 151.328 49.957 150.678 49.957C150.048 49.957 149.47 49.8398 148.942 49.6054C148.42 49.3711 147.966 49.0317 147.58 48.5874C147.199 48.143 146.904 47.6035 146.694 46.9687C146.484 46.334 146.379 45.6162 146.379 44.8154V44.1416C146.379 43.3408 146.481 42.6255 146.687 41.9956C146.896 41.3608 147.192 40.8213 147.573 40.3769C147.954 39.9277 148.405 39.5859 148.928 39.3515C149.455 39.1172 150.034 39 150.664 39C151.313 39 151.899 39.1172 152.421 39.3515C152.949 39.5859 153.4 39.9277 153.776 40.3769C154.157 40.8213 154.448 41.3608 154.648 41.9956C154.853 42.6255 154.956 43.3408 154.956 44.1416ZM153.557 44.8154V44.1269C153.557 43.4922 153.491 42.9306 153.359 42.4424C153.232 41.9541 153.044 41.5439 152.795 41.2119C152.546 40.8799 152.241 40.6284 151.879 40.4575C151.523 40.2866 151.118 40.2011 150.664 40.2011C150.224 40.2011 149.826 40.2866 149.47 40.4575C149.118 40.6284 148.815 40.8799 148.562 41.2119C148.313 41.5439 148.12 41.9541 147.983 42.4424C147.846 42.9306 147.778 43.4922 147.778 44.1269V44.8154C147.778 45.455 147.846 46.0215 147.983 46.5146C148.12 47.0029 148.315 47.4155 148.569 47.7524C148.828 48.0844 149.133 48.3359 149.484 48.5068C149.841 48.6777 150.239 48.7632 150.678 48.7632C151.137 48.7632 151.545 48.6777 151.901 48.5068C152.258 48.3359 152.558 48.0844 152.802 47.7524C153.051 47.4155 153.239 47.0029 153.366 46.5146C153.493 46.0215 153.557 45.455 153.557 44.8154Z" fill="#4C4C4C"/>
<path d="M160.874 44.8227H158.171L158.156 43.6875H160.61C161.015 43.6875 161.369 43.6191 161.672 43.4824C161.975 43.3457 162.209 43.1504 162.375 42.8965C162.546 42.6377 162.631 42.33 162.631 41.9736C162.631 41.583 162.556 41.2656 162.404 41.0215C162.258 40.7724 162.031 40.5918 161.723 40.4795C161.42 40.3623 161.035 40.3037 160.566 40.3037H158.486V49.8105H157.072V39.1465H160.566C161.113 39.1465 161.601 39.2026 162.031 39.3149C162.46 39.4223 162.824 39.5932 163.122 39.8276C163.425 40.0571 163.654 40.3501 163.811 40.7065C163.967 41.063 164.045 41.4902 164.045 41.9883C164.045 42.4277 163.933 42.8257 163.708 43.1821C163.483 43.5337 163.171 43.8217 162.771 44.0464C162.375 44.271 161.911 44.415 161.379 44.4785L160.874 44.8227ZM160.808 49.8105H157.614L158.413 48.6606H160.808C161.257 48.6606 161.638 48.5825 161.95 48.4262C162.268 48.27 162.509 48.0503 162.675 47.7671C162.841 47.479 162.924 47.1396 162.924 46.749C162.924 46.3535 162.854 46.0117 162.712 45.7236C162.57 45.4355 162.348 45.2133 162.045 45.0571C161.743 44.9008 161.352 44.8227 160.874 44.8227H158.859L158.874 43.6875H161.628L161.928 44.0976C162.441 44.1416 162.875 44.2881 163.232 44.5371C163.588 44.7812 163.859 45.0937 164.045 45.4746C164.235 45.8554 164.331 46.2754 164.331 46.7343C164.331 47.3984 164.184 47.9599 163.891 48.4189C163.603 48.873 163.195 49.2197 162.668 49.459C162.141 49.6933 161.521 49.8105 160.808 49.8105Z" fill="#4C4C4C"/>
<path fill-rule="evenodd" clip-rule="evenodd" d="M10.3288 3.7258L3.75592 10.246L8.87463 15.3236V17.2995H7.11053L0 10.246L10.3288 0L17.4461 7.06026V9.22089H15.8683L10.3288 3.7258ZM17.4461 11.8554H15.2792L11.5305 15.5741V17.2995H13.5471L17.4461 13.4317V11.8554ZM20.102 13.4079V11.8554H22.2929L25.8432 15.3773V17.2995H24.025L20.102 13.4079ZM17.4461 23.8066L13.5423 19.934H11.5305V21.6642L15.583 25.6842H17.4461V23.8066ZM20.102 25.6842V23.8483L24.0479 19.934H25.8432V21.8789L22.0072 25.6842H20.102ZM17.4461 28.3187H15.5826L11.5305 32.3384V34.0741H13.5367L17.4461 30.196V28.3187ZM20.102 30.1542V28.3187H22.0076L25.8432 32.1236V34.0741H24.0535L20.102 30.1542ZM17.4461 40.5503L13.5734 36.7086H11.5305V38.4079L15.5921 42.437H17.4461V40.5503ZM20.102 42.437V40.6101L24.035 36.7086H25.8432V38.6407L22.0163 42.437H20.102ZM17.4461 45.0715H15.5917L10.3469 50.2742L3.77408 43.754L8.87463 38.6944V36.7086H7.12052L0.0181552 43.754L10.3469 54L17.4461 46.9577V45.0715ZM20.102 46.898V45.0715H22.0166L27.2614 50.2742L32.5062 45.0715H34.3171V47.0008L27.2614 54L20.102 46.898ZM20.102 9.22089V7.084L27.2432 0L34.3171 7.01717V9.22089H32.7828L27.2432 3.7258L21.7037 9.22089H20.102ZM36.973 9.22089V7.10908L44.1395 0L54.4683 10.246L47.3578 17.2995H45.3762V15.5393L50.7124 10.246L44.1395 3.7258L38.6 9.22089H36.973ZM32.1936 11.8554H34.3171V13.4748L30.4615 17.2995H28.4991V15.5204L32.1936 11.8554ZM36.973 11.8554V13.3828L40.9213 17.2995H42.7204V15.3583L39.1891 11.8554H36.973ZM30.4567 19.934L34.3171 23.7635V25.6842H32.4975L28.4991 21.7179V19.934H30.4567ZM36.973 23.8734V25.6842H38.9035L42.7204 21.8979V19.934H40.9442L36.973 23.8734ZM32.4971 28.3187H34.3171V30.2391L30.4511 34.0741H28.4991V32.2847L32.4971 28.3187ZM36.973 28.3187V30.1292L40.9498 34.0741H42.7204V32.1047L38.9039 28.3187H36.973ZM30.4878 36.7086L34.3171 40.5072V42.437H32.5065L28.4991 38.4616V36.7086H30.4878ZM36.973 40.6352V42.437H38.9125L42.7204 38.6597V36.7086H40.9313L36.973 40.6352ZM36.973 45.0715V46.8729L44.1577 54L54.4865 43.754L47.3841 36.7086H45.3762V38.4426L50.7306 43.754L44.1577 50.2742L38.9129 45.0715H36.973ZM45.3762 19.934V21.6989L50.7215 27.0013L45.3762 32.3037V34.0741H47.3474L54.4774 27.0013L47.353 19.934H45.3762ZM7.13349 19.934H8.87463V21.9326L3.765 27.0013L8.87463 32.0699V34.0741H7.13906L0.00907758 27.0013L7.13349 19.934Z" fill="#4C4C4C"/>
</svg>
