<svg width="189" height="54" viewBox="0 0 189 54" fill="none" xmlns="http://www.w3.org/2000/svg">
<path d="M66.843 1.84728H68.3584V12.1236H72.2642V1.84728H73.764V12.1236H77.6464V1.84728H79.154V13.3656H66.843V1.84728Z" fill="#4C4C4C"/>
<path d="M83.4269 1.84728V13.3656H81.9193V1.84728H83.4269ZM90.4339 1.84728L85.497 8.18395H82.8254L82.5911 6.9182H84.5986L88.5669 1.84728H90.4339ZM88.9184 13.3656L84.6455 7.98618L85.4892 6.64923L90.762 13.3656H88.9184Z" fill="#4C4C4C"/>
<path d="M100.636 7.24255V7.97036C100.636 8.83529 100.529 9.61056 100.316 10.2962C100.102 10.9818 99.7947 11.5646 99.3938 12.0445C98.9928 12.5244 98.511 12.891 97.9486 13.1441C97.3914 13.3973 96.7665 13.5238 96.0738 13.5238C95.402 13.5238 94.7849 13.3973 94.2225 13.1441C93.6653 12.891 93.181 12.5244 92.7695 12.0445C92.3633 11.5646 92.0483 10.9818 91.8243 10.2962C91.6004 9.61056 91.4884 8.83529 91.4884 7.97036V7.24255C91.4884 6.37762 91.5978 5.60498 91.8165 4.92464C92.0405 4.23902 92.3555 3.65625 92.7617 3.17632C93.1679 2.69111 93.6496 2.32193 94.2069 2.06878C94.7693 1.81563 95.3864 1.68906 96.0582 1.68906C96.7508 1.68906 97.3758 1.81563 97.933 2.06878C98.4954 2.32193 98.9771 2.69111 99.3781 3.17632C99.7843 3.65625 100.094 4.23902 100.308 4.92464C100.526 5.60498 100.636 6.37762 100.636 7.24255ZM99.1438 7.97036V7.22673C99.1438 6.54111 99.0735 5.9346 98.9329 5.40721C98.7975 4.87981 98.597 4.4368 98.3314 4.07817C98.0658 3.71954 97.7403 3.44793 97.3549 3.26334C96.9748 3.07875 96.5425 2.98645 96.0582 2.98645C95.5895 2.98645 95.1651 3.07875 94.7849 3.26334C94.41 3.44793 94.0871 3.71954 93.8163 4.07817C93.5507 4.4368 93.345 4.87981 93.1992 5.40721C93.0534 5.9346 92.9805 6.54111 92.9805 7.22673V7.97036C92.9805 8.66125 93.0534 9.27303 93.1992 9.8057C93.345 10.3331 93.5533 10.7787 93.8241 11.1427C94.1001 11.5013 94.4256 11.7729 94.8006 11.9575C95.1807 12.1421 95.6051 12.2344 96.0738 12.2344C96.5634 12.2344 96.9982 12.1421 97.3784 11.9575C97.7585 11.7729 98.0788 11.5013 98.3392 11.1427C98.6048 10.7787 98.8053 10.3331 98.9407 9.8057C99.0761 9.27303 99.1438 8.66125 99.1438 7.97036Z" fill="#4C4C4C"/>
<path d="M109.955 1.84728V3.09721H104.752V1.84728H109.955ZM111.252 1.84728V13.3656H109.744V1.84728H111.252ZM104.237 1.84728H105.737L105.479 7.48779C105.443 8.29998 105.38 9.02515 105.291 9.6633C105.208 10.2962 105.088 10.8473 104.932 11.3167C104.776 11.7808 104.573 12.1658 104.323 12.4717C104.073 12.7723 103.766 12.9965 103.401 13.1441C103.042 13.2918 102.61 13.3656 102.104 13.3656H101.698V12.1236L102.011 12.0999C102.302 12.0788 102.552 12.0129 102.761 11.9021C102.974 11.7861 103.154 11.612 103.3 11.38C103.451 11.1479 103.573 10.8473 103.667 10.4781C103.76 10.109 103.833 9.65803 103.885 9.12536C103.943 8.58741 103.987 7.95981 104.018 7.24255L104.237 1.84728Z" fill="#4C4C4C"/>
<path d="M118.321 2.86779L114.556 13.3656H113.017L117.353 1.84728H118.345L118.321 2.86779ZM121.477 13.3656L117.704 2.86779L117.681 1.84728H118.673L123.024 13.3656H121.477ZM121.282 9.10162V10.3516H114.892V9.10162H121.282Z" fill="#4C4C4C"/>
<path d="M73.6546 28.6048H75.1545C75.0764 29.3326 74.8706 29.9839 74.5374 30.5588C74.2041 31.1336 73.7328 31.5898 73.1235 31.9274C72.5142 32.2596 71.7538 32.4258 70.8425 32.4258C70.1759 32.4258 69.5692 32.2992 69.0224 32.046C68.4808 31.7929 68.0147 31.4343 67.6241 30.9701C67.2335 30.5008 66.9315 29.9391 66.718 29.2851C66.5097 28.6259 66.4055 27.8928 66.4055 27.0859V25.9388C66.4055 25.1319 66.5097 24.4014 66.718 23.7474C66.9315 23.0882 67.2361 22.5239 67.6319 22.0545C68.0329 21.5851 68.5146 21.2238 69.0771 20.9707C69.6395 20.7175 70.2722 20.591 70.9753 20.591C71.8346 20.591 72.561 20.7545 73.1547 21.0815C73.7484 21.4084 74.2093 21.862 74.5374 22.4421C74.8706 23.017 75.0764 23.6842 75.1545 24.4436H73.6546C73.5817 23.9057 73.4463 23.4442 73.2484 23.0592C73.0506 22.6689 72.7693 22.3683 72.4048 22.1573C72.0403 21.9464 71.5638 21.8409 70.9753 21.8409C70.4701 21.8409 70.0249 21.9385 69.6395 22.1336C69.2593 22.3287 68.9391 22.6056 68.6787 22.9643C68.4235 23.3229 68.2308 23.7527 68.1006 24.2537C67.9704 24.7548 67.9053 25.3112 67.9053 25.923V27.0859C67.9053 27.6502 67.9626 28.1802 68.0772 28.676C68.197 29.1717 68.3766 29.6068 68.6162 29.9813C68.8557 30.3557 69.1604 30.6511 69.5301 30.8673C69.8999 31.0783 70.3373 31.1837 70.8425 31.1837C71.483 31.1837 71.9934 31.0809 72.3736 30.8752C72.7537 30.6695 73.0401 30.3742 73.2328 29.9892C73.4307 29.6042 73.5713 29.1427 73.6546 28.6048Z" fill="#4C4C4C"/>
<path d="M78.779 29.6253L84.3799 20.7492H85.8876V32.2675H84.3799V23.3835L78.779 32.2675H77.2792V20.7492H78.779V29.6253Z" fill="#4C4C4C"/>
<path d="M95.4958 28.6048H96.9956C96.9175 29.3326 96.7118 29.9839 96.3785 30.5588C96.0452 31.1336 95.5739 31.5898 94.9646 31.9274C94.3553 32.2596 93.595 32.4258 92.6836 32.4258C92.017 32.4258 91.4103 32.2992 90.8635 32.046C90.3219 31.7929 89.8558 31.4343 89.4653 30.9701C89.0747 30.5008 88.7726 29.9391 88.5591 29.2851C88.3508 28.6259 88.2466 27.8928 88.2466 27.0859V25.9388C88.2466 25.1319 88.3508 24.4014 88.5591 23.7474C88.7726 23.0882 89.0773 22.5239 89.4731 22.0545C89.8741 21.5851 90.3558 21.2238 90.9182 20.9707C91.4806 20.7175 92.1134 20.591 92.8164 20.591C93.6757 20.591 94.4022 20.7545 94.9958 21.0815C95.5895 21.4084 96.0504 21.862 96.3785 22.4421C96.7118 23.017 96.9175 23.6842 96.9956 24.4436H95.4958C95.4229 23.9057 95.2875 23.4442 95.0896 23.0592C94.8917 22.6689 94.6105 22.3683 94.2459 22.1573C93.8814 21.9464 93.4049 21.8409 92.8164 21.8409C92.3113 21.8409 91.866 21.9385 91.4806 22.1336C91.1005 22.3287 90.7802 22.6056 90.5198 22.9643C90.2646 23.3229 90.072 23.7527 89.9418 24.2537C89.8116 24.7548 89.7465 25.3112 89.7465 25.923V27.0859C89.7465 27.6502 89.8038 28.1802 89.9183 28.676C90.0381 29.1717 90.2178 29.6068 90.4573 29.9813C90.6969 30.3557 91.0015 30.6511 91.3713 30.8673C91.741 31.0783 92.1785 31.1837 92.6836 31.1837C93.3242 31.1837 93.8345 31.0809 94.2147 30.8752C94.5948 30.6695 94.8813 30.3742 95.074 29.9892C95.2718 29.6042 95.4125 29.1427 95.4958 28.6048Z" fill="#4C4C4C"/>
<path d="M103.018 20.7492V32.2675H101.534V20.7492H103.018ZM106.674 20.7492V21.9991H97.8861V20.7492H106.674Z" fill="#4C4C4C"/>
<path d="M115.587 31.0255V32.2675H109.564V31.0255H115.587ZM109.869 20.7492V32.2675H108.361V20.7492H109.869ZM114.79 25.7015V26.9435H109.564V25.7015H114.79ZM115.509 20.7492V21.9991H109.564V20.7492H115.509Z" fill="#4C4C4C"/>
<path d="M117.931 20.7492H119.391L123.117 30.1395L126.836 20.7492H128.304L123.68 32.2675H122.539L117.931 20.7492ZM117.454 20.7492H118.743L118.954 27.7741V32.2675H117.454V20.7492ZM127.484 20.7492H128.773V32.2675H127.273V27.7741L127.484 20.7492Z" fill="#4C4C4C"/>
<path d="M138.85 25.7015V26.9435H132.694V25.7015H138.85ZM132.929 20.7492V32.2675H131.421V20.7492H132.929ZM140.162 20.7492V32.2675H138.662V20.7492H140.162Z" fill="#4C4C4C"/>
<path d="M151.598 26.1445V26.8723C151.598 27.7372 151.492 28.5125 151.278 29.1981C151.065 29.8837 150.757 30.4665 150.356 30.9464C149.955 31.4263 149.474 31.7929 148.911 32.046C148.354 32.2992 147.729 32.4258 147.036 32.4258C146.365 32.4258 145.748 32.2992 145.185 32.046C144.628 31.7929 144.144 31.4263 143.732 30.9464C143.326 30.4665 143.011 29.8837 142.787 29.1981C142.563 28.5125 142.451 27.7372 142.451 26.8723V26.1445C142.451 25.2795 142.56 24.5069 142.779 23.8266C143.003 23.1409 143.318 22.5582 143.724 22.0782C144.131 21.593 144.612 21.2238 145.17 20.9707C145.732 20.7175 146.349 20.591 147.021 20.591C147.713 20.591 148.338 20.7175 148.896 20.9707C149.458 21.2238 149.94 21.593 150.341 22.0782C150.747 22.5582 151.057 23.1409 151.27 23.8266C151.489 24.5069 151.598 25.2795 151.598 26.1445ZM150.106 26.8723V26.1286C150.106 25.443 150.036 24.8365 149.896 24.3091C149.76 23.7817 149.56 23.3387 149.294 22.9801C149.028 22.6215 148.703 22.3498 148.318 22.1653C147.937 21.9807 147.505 21.8884 147.021 21.8884C146.552 21.8884 146.128 21.9807 145.748 22.1653C145.373 22.3498 145.05 22.6215 144.779 22.9801C144.513 23.3387 144.308 23.7817 144.162 24.3091C144.016 24.8365 143.943 25.443 143.943 26.1286V26.8723C143.943 27.5632 144.016 28.1749 144.162 28.7076C144.308 29.235 144.516 29.6807 144.787 30.0446C145.063 30.4032 145.388 30.6748 145.763 30.8594C146.143 31.044 146.568 31.1363 147.036 31.1363C147.526 31.1363 147.961 31.044 148.341 30.8594C148.721 30.6748 149.041 30.4032 149.302 30.0446C149.567 29.6807 149.768 29.235 149.903 28.7076C150.039 28.1749 150.106 27.5632 150.106 26.8723Z" fill="#4C4C4C"/>
<path d="M160.91 20.7492V21.9991H155.426V32.2675H153.926V20.7492H160.91Z" fill="#4C4C4C"/>
<path d="M170.987 26.1445V26.8723C170.987 27.7372 170.88 28.5125 170.666 29.1981C170.453 29.8837 170.146 30.4665 169.745 30.9464C169.344 31.4263 168.862 31.7929 168.3 32.046C167.742 32.2992 167.117 32.4258 166.425 32.4258C165.753 32.4258 165.136 32.2992 164.573 32.046C164.016 31.7929 163.532 31.4263 163.12 30.9464C162.714 30.4665 162.399 29.8837 162.175 29.1981C161.951 28.5125 161.839 27.7372 161.839 26.8723V26.1445C161.839 25.2795 161.949 24.5069 162.167 23.8266C162.391 23.1409 162.706 22.5582 163.113 22.0782C163.519 21.593 164.001 21.2238 164.558 20.9707C165.12 20.7175 165.737 20.591 166.409 20.591C167.102 20.591 167.727 20.7175 168.284 20.9707C168.846 21.2238 169.328 21.593 169.729 22.0782C170.135 22.5582 170.445 23.1409 170.659 23.8266C170.877 24.5069 170.987 25.2795 170.987 26.1445ZM169.495 26.8723V26.1286C169.495 25.443 169.424 24.8365 169.284 24.3091C169.148 23.7817 168.948 23.3387 168.682 22.9801C168.417 22.6215 168.091 22.3498 167.706 22.1653C167.326 21.9807 166.893 21.8884 166.409 21.8884C165.94 21.8884 165.516 21.9807 165.136 22.1653C164.761 22.3498 164.438 22.6215 164.167 22.9801C163.902 23.3387 163.696 23.7817 163.55 24.3091C163.404 24.8365 163.331 25.443 163.331 26.1286V26.8723C163.331 27.5632 163.404 28.1749 163.55 28.7076C163.696 29.235 163.904 29.6807 164.175 30.0446C164.451 30.4032 164.777 30.6748 165.151 30.8594C165.532 31.044 165.956 31.1363 166.425 31.1363C166.914 31.1363 167.349 31.044 167.729 30.8594C168.109 30.6748 168.43 30.4032 168.69 30.0446C168.956 29.6807 169.156 29.235 169.292 28.7076C169.427 28.1749 169.495 27.5632 169.495 26.8723Z" fill="#4C4C4C"/>
<path d="M67.2648 39.6511H68.7256L72.4517 49.0414L76.17 39.6511H77.6385L73.0141 51.1695H71.8736L67.2648 39.6511ZM66.7883 39.6511H68.0772L68.2881 46.676V51.1695H66.7883V39.6511ZM76.8183 39.6511H78.1072V51.1695H76.6074V46.676L76.8183 39.6511Z" fill="#4C4C4C"/>
<path d="M87.9811 49.9274V51.1695H81.9583V49.9274H87.9811ZM82.263 39.6511V51.1695H80.7554V39.6511H82.263ZM87.1843 44.6034V45.8454H81.9583V44.6034H87.1843ZM87.9029 39.6511V40.901H81.9583V39.6511H87.9029Z" fill="#4C4C4C"/>
<path d="M97.2768 44.6034V45.8454H91.1213V44.6034H97.2768ZM91.3557 39.6511V51.1695H89.848V39.6511H91.3557ZM98.5892 39.6511V51.1695H97.0893V39.6511H98.5892Z" fill="#4C4C4C"/>
<path d="M108.494 49.9274V51.1695H102.472V49.9274H108.494ZM102.776 39.6511V51.1695H101.269V39.6511H102.776ZM107.697 44.6034V45.8454H102.472V44.6034H107.697ZM108.416 39.6511V40.901H102.472V39.6511H108.416Z" fill="#4C4C4C"/>
<path d="M119.305 49.9274V51.1695H110.697V49.9274H119.305ZM110.939 49.9274V54.0016H109.447L109.439 49.9274H110.939ZM120.618 49.9274L120.602 53.9937H119.11V49.9274H120.618ZM117.829 39.6511V40.901H112.845V39.6511H117.829ZM119.126 39.6511V51.1695H117.626V39.6511H119.126ZM112.33 39.6511H113.837L113.603 44.2869C113.572 44.9831 113.507 45.6265 113.408 46.2172C113.309 46.8026 113.186 47.3379 113.041 47.8231C112.895 48.3083 112.728 48.7434 112.541 49.1284C112.353 49.5082 112.153 49.8378 111.939 50.1173C111.726 50.3916 111.502 50.6183 111.267 50.7976C111.038 50.9717 110.806 51.0956 110.572 51.1695H109.885V49.9274H110.369C110.504 49.7798 110.658 49.5662 110.83 49.2867C111.007 49.0071 111.181 48.6459 111.353 48.2029C111.53 47.7546 111.684 47.2087 111.814 46.5653C111.95 45.9219 112.041 45.1624 112.088 44.2869L112.33 39.6511Z" fill="#4C4C4C"/>
<path d="M125.648 45.9087L121.586 39.6511H123.352L126.375 44.6429H128.515L128.273 45.9087H125.648ZM126.461 45.79L123.157 51.1695H121.282L125.508 44.4768L126.461 45.79ZM129.164 39.6511V51.1695H127.672V39.6511H129.164ZM135.194 39.6511L131.117 45.9087H128.57L128.336 44.6429H130.398L133.421 39.6511H135.194ZM133.616 51.1695L130.32 45.79L131.281 44.4768L135.491 51.1695H133.616Z" fill="#4C4C4C"/>
<path d="M137.397 39.6511H138.858L142.584 49.0414L146.302 39.6511H147.771L143.146 51.1695H142.006L137.397 39.6511ZM136.921 39.6511H138.209L138.42 46.676V51.1695H136.921V39.6511ZM146.951 39.6511H148.239V51.1695H146.74V46.676L146.951 39.6511Z" fill="#4C4C4C"/>
<path d="M158.113 49.9274V51.1695H152.091V49.9274H158.113ZM152.395 39.6511V51.1695H150.888V39.6511H152.395ZM157.316 44.6034V45.8454H152.091V44.6034H157.316ZM158.035 39.6511V40.901H152.091V39.6511H158.035Z" fill="#4C4C4C"/>
<path d="M167.409 44.6034V45.8454H161.254V44.6034H167.409ZM161.488 39.6511V51.1695H159.98V39.6511H161.488ZM168.721 39.6511V51.1695H167.222V39.6511H168.721Z" fill="#4C4C4C"/>
<path d="M175.369 39.6511V51.1695H173.885V39.6511H175.369ZM179.025 39.6511V40.901H170.237V39.6511H179.025Z" fill="#4C4C4C"/>
<path d="M184.298 40.6716L180.532 51.1695H178.994L183.329 39.6511H184.321L184.298 40.6716ZM187.454 51.1695L183.681 40.6716L183.657 39.6511H184.649L189 51.1695H187.454ZM187.258 46.9055V48.1554H180.868V46.9055H187.258Z" fill="#4C4C4C"/>
<path fill-rule="evenodd" clip-rule="evenodd" d="M10.3288 3.72581L3.75593 10.246L8.87463 15.3236V17.2995H7.11053L0 10.246L10.3288 0L17.4461 7.06026V9.2209H15.8683L10.3288 3.72581ZM17.4461 11.8554H15.2792L11.5305 15.5741V17.2995H13.5471L17.4461 13.4317V11.8554ZM20.102 13.4079V11.8554H22.2929L25.8432 15.3773V17.2995H24.025L20.102 13.4079ZM17.4461 23.8066L13.5423 19.934H11.5305V21.6642L15.583 25.6842H17.4461V23.8066ZM20.102 25.6842V23.8483L24.0479 19.934H25.8432V21.8789L22.0072 25.6842H20.102ZM17.4461 28.3188H15.5826L11.5305 32.3384V34.0741H13.5367L17.4461 30.196V28.3188ZM20.102 30.1543V28.3188H22.0076L25.8432 32.1237V34.0741H24.0535L20.102 30.1543ZM17.4461 40.5503L13.5734 36.7086H11.5305V38.4079L15.5921 42.437H17.4461V40.5503ZM20.102 42.437V40.6101L24.035 36.7086H25.8432V38.6407L22.0163 42.437H20.102ZM17.4461 45.0715H15.5917L10.347 50.2742L3.77408 43.7541L8.87463 38.6944V36.7086H7.12052L0.0181552 43.7541L10.347 54L17.4461 46.9578V45.0715ZM20.102 46.898V45.0715H22.0166L27.2614 50.2742L32.5062 45.0715H34.3172V47.0009L27.2614 54L20.102 46.898ZM20.102 9.2209V7.084L27.2433 0L34.3172 7.01717V9.2209H32.7828L27.2433 3.72581L21.7037 9.2209H20.102ZM36.973 9.2209V7.10909L44.1396 0L54.4684 10.246L47.3578 17.2995H45.3762V15.5394L50.7124 10.246L44.1396 3.72581L38.6 9.2209H36.973ZM32.1936 11.8554H34.3172V13.4748L30.4615 17.2995H28.4991V15.5204L32.1936 11.8554ZM36.973 11.8554V13.3828L40.9213 17.2995H42.7204V15.3584L39.1892 11.8554H36.973ZM30.4567 19.934L34.3172 23.7635V25.6842H32.4975L28.4991 21.7179V19.934H30.4567ZM36.973 23.8734V25.6842H38.9035L42.7204 21.8979V19.934H40.9442L36.973 23.8734ZM32.4971 28.3188H34.3172V30.2391L30.4511 34.0741H28.4991V32.2847L32.4971 28.3188ZM36.973 28.3188V30.1292L40.9498 34.0741H42.7204V32.1047L38.9039 28.3188H36.973ZM30.4878 36.7086L34.3172 40.5072V42.437H32.5066L28.4991 38.4616V36.7086H30.4878ZM36.973 40.6352V42.437H38.9126L42.7204 38.6597V36.7086H40.9313L36.973 40.6352ZM36.973 45.0715V46.8729L44.1577 54L54.4865 43.7541L47.3841 36.7086H45.3762V38.4427L50.7306 43.7541L44.1577 50.2742L38.913 45.0715H36.973ZM45.3762 19.934V21.6989L50.7215 27.0013L45.3762 32.3037V34.0741H47.3474L54.4774 27.0013L47.353 19.934H45.3762ZM7.13349 19.934H8.87463V21.9326L3.765 27.0013L8.87463 32.07V34.0741H7.13906L0.00907758 27.0013L7.13349 19.934Z" fill="#4C4C4C"/>
</svg>
