<svg width="367" height="256" fill="none" xmlns="http://www.w3.org/2000/svg"><g clip-path="url(#a)"><path d="m46.963 174.361 50.824-22.583c5.047-2.242 13.421-2.754 18.703-1.142l106.41 32.467c5.282 1.612 5.473 4.737.426 6.979l-101.566 45.13c-5.079 2.257-13.519 2.758-18.789 1.115L9.886 207.32" stroke="#A7A7A7" stroke-dasharray="7 7"/><path d="m352.66 204.12-83.068-28.272c-5.208-1.773-13.927-1.317-19.142 1l-95.4 42.39c-4.739 2.106-4.9 5.019-.371 6.709l66.513 24.834c5.528 2.064 15.435 1.407 20.487-1.358l54.879-30.046" stroke="#A7A7A7" stroke-linecap="round" stroke-dasharray="6 6"/><rect width="149.649" height="149.625" rx="10" transform="matrix(-.95647 -.29184 -.91385 .40606 327.434 184.102)" fill="#A7A7A7"/><rect width="131.252" height="131.231" rx="10" transform="matrix(-.95647 -.29184 -.91385 .40606 311.603 184.102)" fill="#EEE"/><rect width="113.242" height="113.224" rx="10" transform="matrix(-.95647 -.29184 -.91385 .40606 296.258 184.101)" fill="#F9F9F9"/><rect opacity=".9" x="-.935" y=".057" width="32.021" height="32.021" rx="5.5" transform="matrix(-.9563 -.29237 -.91355 .40674 82.694 132.515)" stroke="#3D3D3D"/><rect opacity=".9" x="-.935" y=".057" width="32.021" height="32.021" rx="5.5" transform="matrix(-.9563 -.29237 -.91355 .40674 82.694 108.369)" stroke="#EEE"/><rect opacity=".8" width="86.493" height="86.346" rx="10" transform="matrix(-.92079 .39007 0 1 181.61 41.434)" fill="url(#b)"/><g clip-path="url(#c)"><path fill-rule="evenodd" clip-rule="evenodd" d="m159.759 102.866 6.749-3.896V88.579l4.499-2.598v10.391l31.496-18.184v-10.39l4.499-2.599V75.59l6.749-3.896c1.79-1.034 3.507-1.204 4.773-.473 1.265.73 1.976 2.302 1.976 4.37v51.954c0 2.067-.711 4.459-1.976 6.652-1.266 2.192-2.983 4.004-4.773 5.037l-53.992 31.173c-1.79 1.034-3.507 1.204-4.773.473-1.265-.731-1.976-2.303-1.976-4.369v-51.955c0-2.067.711-4.46 1.976-6.652 1.266-2.192 2.983-4.004 4.773-5.038zm29.138 31.142-17.332-12.869 3.384-5.372 14.164 10.515 7.298-12.645 3.185 1.839-10.699 18.532z" fill="#389D2D" fill-opacity=".7"/></g><rect opacity=".9" x="-.935" y=".057" width="32.021" height="32.021" rx="5.5" transform="matrix(-.9563 -.29237 -.91355 .40674 365.312 50.866)" stroke="#389D2D"/><rect opacity=".9" x="-.935" y=".057" width="32.021" height="32.021" rx="5.5" transform="matrix(-.9563 -.29237 -.91355 .40674 365.342 26.722)" stroke="#389D2D"/><rect opacity=".9" width="113.242" height="113.224" rx="10" transform="matrix(-.95647 -.29184 -.91385 .40606 296.737 33.048)" fill="#EEE"/><rect x="-.46" y=".695" width="85.493" height="85.346" rx="9.5" transform="matrix(-.92079 .39007 0 1 269.465 62.677)" stroke="#A7A7A7"/></g><defs><clipPath id="a"><path fill="#fff" d="M0 0h367v256H0z"/></clipPath><clipPath id="c"><path fill="#fff" transform="matrix(-.86603 .5 0 1 220.5 57.406)" d="M0 0h77.932v77.932H0z"/></clipPath><linearGradient id="b" x1="43.247" y1="0" x2="43.247" y2="86.346" gradientUnits="userSpaceOnUse"><stop stop-color="#4C4C4C"/><stop offset="1" stop-color="#B2B2B2"/></linearGradient></defs></svg>