<svg width="483" height="510" viewBox="0 0 483 510" fill="none" xmlns="http://www.w3.org/2000/svg">
<path d="M299.606 259.65L283.71 246.675L228.61 223.372L262.399 251.005L299.606 259.65ZM228.61 223.372L231.102 250.702L285.662 268.611L283.71 246.675L228.61 223.372ZM285.662 268.611L278.572 264.146L216.406 241.384L231.102 250.702L285.662 268.611ZM216.406 241.384L214.43 244.706L264.992 285.1L278.572 264.146L216.406 241.384ZM264.992 285.1L276.157 290.273L234.126 253.81L214.43 244.706L264.992 285.1ZM234.126 253.81L211.36 257.438L249.258 294.55L276.157 290.273L234.126 253.81ZM249.258 294.55L230.352 284.116L240.866 303.624L285.887 312.993L285.717 312.647L224.621 264.757L211.36 257.438L249.258 294.55ZM285.887 312.993L220.08 275.55L188.25 273.621L240.866 303.624L285.887 312.993ZM188.25 273.621L238.659 325.621L273.308 330.372L220.08 275.55L188.25 273.621ZM273.308 330.372L229.653 303.576L192.272 297.116L238.659 325.621L273.308 330.372ZM192.272 297.116L224.833 333.751L253.02 329.832L229.653 303.576L192.272 297.116ZM253.02 329.832L193.136 301.966L179.654 312.673L224.833 333.751L253.02 329.832ZM179.654 312.673L232.133 355.516L249.374 347.945L193.136 301.966L179.654 312.673ZM249.374 347.945L197.401 321.271L171.533 324.443L232.133 355.516L249.374 347.945ZM171.533 324.443L202.107 354.333L227.048 350.2L197.401 321.271L171.533 324.443ZM227.048 350.2L187.712 330.636L198.642 352.598L202.107 354.333L227.048 350.2Z" fill="#389D2D"/>
<path d="M214.373 225.29L198.137 237.837L162.961 286.25L197.521 259.588L214.373 225.29ZM162.961 286.25L190.128 290.018L219.932 240.912L198.137 237.837L162.961 286.25ZM219.932 240.912L213.979 246.808L177.724 302.228L190.128 290.018L219.932 240.912ZM177.724 302.228L180.511 304.906L231.296 264.793L213.979 246.808L177.724 302.228ZM231.296 264.793L238.863 255.085L193.839 287.776L180.511 304.906L231.296 264.793ZM193.839 287.776L192.208 310.786L236.925 282.269L238.863 255.085L193.839 287.776ZM236.925 282.269L222.483 298.327L243.855 292.505L263.184 250.756L262.809 250.843L202.339 299.521L192.208 310.786L236.925 282.269ZM263.184 250.756L211.814 306.395L202.718 336.977L243.855 292.505L263.184 250.756ZM202.718 336.977L264.765 299.644L277.249 266.955L211.814 306.395L202.718 336.977ZM277.249 266.955L241.266 303.421L226.5 338.385L264.765 299.644L277.249 266.955ZM226.5 338.385L269.544 314.962L272.12 286.605L241.266 303.421L226.5 338.385ZM272.12 286.605L231.417 338.642L238.781 354.211L269.544 314.962L272.12 286.605ZM238.781 354.211L292.384 312.785L288.925 294.266L231.417 338.642L238.781 354.211ZM288.925 294.266L251.175 338.865L248.396 364.794L292.384 312.785L288.925 294.266ZM248.396 364.794L284.424 341.777L286.058 316.534L251.175 338.865L248.396 364.794ZM286.058 316.534L258.094 350.43L281.95 344.761L284.424 341.777L286.058 316.534Z" fill="#389D2D"/>
<path d="M387.27 506.967C385.887 502.817 388.653 497.28 387.27 493.128C384.503 482.058 384.503 468.219 373.439 465.45C352.693 454.38 309.817 397.64 235.129 423.933M235.129 423.933C160.443 450.228 110.651 447.461 96.8203 465.45C91.2884 475.139 82.9894 482.058 82.9894 493.128C82.9894 497.28 81.607 502.817 82.9894 506.967M235.129 423.933C242.045 444.692 251.727 465.45 255.876 486.209M235.129 423.933C226.831 444.692 226.831 468.219 214.383 486.209M308.433 433.622C283.537 458.531 257.259 480.674 235.129 506.967C217.15 476.522 177.04 464.067 161.826 433.622M147.996 437.772C141.08 452.996 131.398 469.602 131.398 486.209C143.846 494.513 157.677 504.2 172.89 506.967M322.264 437.772C330.563 452.996 336.095 469.602 338.861 486.209C325.03 491.745 312.583 504.2 297.368 506.967M262.791 396.255C244.812 401.792 225.448 390.72 207.467 396.255M345.777 285.543C341.628 284.16 336.095 285.543 331.945 285.543M124.482 285.543C128.632 285.543 134.165 286.928 138.313 285.543M331.945 354.738C327.797 350.587 322.264 346.436 318.115 340.899M138.313 354.738C141.08 349.203 149.378 346.436 152.144 340.899M297.368 292.463C301.518 262.017 275.239 227.42 244.812 230.187C214.383 232.955 174.274 242.643 175.657 273.089C177.04 303.534 177.04 343.667 207.467 347.819C208.851 351.971 207.467 357.506 207.467 361.658C207.467 365.81 210.235 369.962 214.383 368.577C226.831 364.426 242.045 372.729 255.876 368.577C260.025 367.194 261.409 365.81 262.791 361.658C264.175 357.506 264.175 351.971 262.791 347.819C283.537 336.748 300.135 315.989 297.368 292.463Z" stroke="#484848" stroke-width="4" stroke-linecap="round" stroke-linejoin="round"/>
<path d="M387.265 506.969V493.13C387.432 482.202 382.272 471.876 373.434 465.452C354.97 451.35 314.376 423.935 235.125 423.935M235.125 423.935C155.874 423.935 115.28 451.35 96.8158 465.452C87.9777 471.876 82.8172 482.202 82.9849 493.13V506.969M235.125 423.935L255.871 486.21M235.125 423.935L214.378 486.21M308.733 433.317L235.125 506.969L161.517 433.317M147.519 437.787L131.393 486.21L172.886 506.969M322.729 437.787L338.856 486.21L297.364 506.969M262.787 396.257H207.463M345.772 285.545H331.941M124.478 285.545H138.308M331.941 354.74L318.11 340.901M138.308 354.74L152.139 340.901M297.364 292.464C297.494 261.714 275.174 235.473 244.817 230.684C214.459 225.895 185.154 243.995 175.824 273.294C166.493 302.592 179.933 334.319 207.463 347.987V361.659C207.463 365.481 210.559 368.579 214.378 368.579H255.871C259.69 368.579 262.787 365.481 262.787 361.659V347.987C283.911 337.547 297.306 316.039 297.364 292.464Z" stroke="#484848" stroke-width="4" stroke-linecap="round" stroke-linejoin="round"/>
<path fill-rule="evenodd" clip-rule="evenodd" d="M48.0913 90.1607C48.0416 90.1596 47.993 90.1596 47.9432 90.1596C39.1376 90.1596 32 97.3326 32 106.179C32 110.869 34.0059 115.089 37.2022 118.018C36.7788 119.849 36.5555 121.76 36.5555 123.725C36.5555 124.861 36.6296 125.979 36.7753 127.076C34.7139 130.288 33.5189 134.113 33.5189 138.219C33.5189 149.595 42.6959 158.816 54.0165 158.816C54.5429 158.816 55.0646 158.796 55.5805 158.757C61.1101 164.434 68.9094 167.97 77.5508 167.97C86.117 167.97 93.855 164.495 99.3753 158.907C101.27 159.826 103.395 160.342 105.641 160.342C113.608 160.342 120.065 153.852 120.065 145.848C120.065 141.467 118.131 137.539 115.073 134.882C119.986 130.543 123.103 124.08 123.103 116.859C123.103 110.641 120.791 104.985 117.013 100.763C117.024 100.537 117.028 100.307 117.028 100.077C117.028 92.0718 110.571 85.5829 102.604 85.5829C101.725 85.5829 100.863 85.6615 100.027 85.8132C93.7693 79.9956 85.3246 76.4282 76.033 76.4282C64.6072 76.4282 54.4631 81.8222 48.0913 90.1607Z" fill="#389D2D"/>
<path fill-rule="evenodd" clip-rule="evenodd" d="M99.6812 187.344C99.6812 194.067 105.127 199.517 111.847 199.517C118.566 199.517 124.014 194.067 124.014 187.344C124.014 180.621 118.566 175.171 111.847 175.171C105.127 175.171 99.6812 180.621 99.6812 187.344Z" fill="#389D2D"/>
<path fill-rule="evenodd" clip-rule="evenodd" d="M126.633 213.339C126.633 217.639 130.116 221.124 134.413 221.124C138.709 221.124 142.192 217.639 142.192 213.339C142.192 209.04 138.709 205.555 134.413 205.555C130.116 205.555 126.633 209.04 126.633 213.339Z" fill="#389D2D"/>
<path fill-rule="evenodd" clip-rule="evenodd" d="M51.5958 90.0901C51.546 90.0901 51.4974 90.0901 51.4477 90.0901C42.6281 90.0901 35.479 97.2434 35.479 106.067C35.479 110.744 37.4872 114.953 40.6893 117.875C40.2659 119.701 40.0415 121.606 40.0415 123.567C40.0415 124.7 40.1167 125.816 40.2613 126.908C38.1975 130.112 36.9991 133.928 36.9991 138.023C36.9991 149.369 46.1911 158.565 57.5302 158.565C58.0577 158.565 58.5795 158.545 59.0966 158.507C64.6354 164.169 72.4474 167.695 81.1027 167.695C89.6816 167.695 97.4323 164.23 102.962 158.657C104.859 159.573 106.989 160.087 109.238 160.087C117.216 160.087 123.685 153.616 123.685 145.631C123.685 141.262 121.747 137.345 118.685 134.694C123.605 130.367 126.726 123.92 126.726 116.719C126.726 110.518 124.412 104.876 120.628 100.666C120.638 100.439 120.644 100.21 120.644 99.9809C120.644 91.9965 114.175 85.5249 106.195 85.5249C105.315 85.5249 104.452 85.6036 103.613 85.7553C97.3467 79.9527 88.8892 76.3946 79.5815 76.3946C68.1382 76.3946 57.9779 81.7746 51.5958 90.0901Z" stroke="#484848" stroke-width="2" stroke-linecap="round" stroke-linejoin="round"/>
<path fill-rule="evenodd" clip-rule="evenodd" d="M131.015 214.37C132.513 218.146 134.481 222.657 138.508 221.737C142.536 220.815 146.563 218.421 146.002 214.37C145.439 210.32 142.442 205.808 138.508 207.005C134.575 208.202 132.513 210.596 131.015 214.37Z" stroke="#484848" stroke-width="2" stroke-linecap="round" stroke-linejoin="round"/>
<path fill-rule="evenodd" clip-rule="evenodd" d="M106.461 185.126C106.461 191.849 111.908 197.3 118.627 197.3C125.347 197.3 130.793 191.849 130.793 185.126C130.793 178.403 125.347 172.953 118.627 172.953C111.908 172.953 106.461 178.403 106.461 185.126Z" stroke="#484848" stroke-width="2" stroke-linecap="round" stroke-linejoin="round"/>
<path d="M86.9189 128.895C96.7287 131.178 103.572 133.916 104.028 138.253C104.713 143.732 92.1662 150.122 77.7939 148.297C63.4228 146.471 51.3329 143.732 51.5608 138.253C51.5608 133.916 58.8603 131.178 68.6701 128.895M86.9189 134.602C91.9383 136.884 95.8159 136.656 96.0438 138.253C96.2717 140.536 87.8316 143.96 77.7939 142.591C67.7574 141.449 59.773 140.764 59.5451 138.253C59.3172 136.656 63.4228 136.656 68.6701 134.602M81.2158 138.025C81.6727 133.916 80.76 129.352 82.1285 125.471C83.2691 125.699 84.6376 125.243 85.7783 125.471C86.2352 123.189 86.4631 120.906 85.7783 118.624C84.6376 114.288 81.9006 112.005 77.7939 110.634C73.6884 109.265 69.8107 114.288 69.8107 118.624C69.8107 120.906 70.7223 123.417 69.8107 125.471C70.9513 125.699 72.3199 125.015 73.4605 125.471C74.6011 129.58 75.0569 133.916 74.3732 138.025M71.635 102.189C71.8629 105.613 74.3732 109.265 77.7939 108.353C81.2158 107.44 83.7261 105.613 84.1818 102.189C84.4097 98.5375 80.9879 96.9402 77.7939 95.7989C74.6011 94.6576 72.3198 98.7656 71.635 102.189Z" stroke="#F9F9F9" stroke-width="2" stroke-linecap="round" stroke-linejoin="round"/>
<path d="M86.9169 128.895C96.9083 130.311 104.025 133.986 104.025 138.277C104.025 143.823 92.2775 148.297 77.7919 148.297C63.3062 148.297 51.5576 143.823 51.5576 138.277C51.5576 133.986 58.6755 130.311 68.6669 128.895M86.9169 134.602C92.3689 135.355 96.0407 136.748 96.0407 138.345C96.0407 140.627 87.8747 142.659 77.7919 142.659C67.7091 142.659 59.542 140.719 59.542 138.345C59.542 136.748 63.2149 135.355 68.6669 134.602M81.2138 138.025L82.1716 125.471H85.7762V118.623C85.7762 114.211 82.2017 110.634 77.7919 110.634C73.3821 110.634 69.8076 114.211 69.8076 118.623V125.471H73.4122L74.37 138.025M71.5185 102.076C71.5185 105.543 74.3272 108.352 77.7919 108.352C81.2566 108.352 84.0653 105.543 84.0653 102.076C84.0653 98.6092 81.2566 95.7989 77.7919 95.7989C74.3272 95.7989 71.5185 98.6092 71.5185 102.076Z" stroke="#F9F9F9" stroke-width="2" stroke-linecap="round" stroke-linejoin="round"/>
<path fill-rule="evenodd" clip-rule="evenodd" d="M226.445 6.96788C224.239 6.11793 221.845 5.65193 219.34 5.65193C208.421 5.65193 199.569 14.5086 199.569 25.4338C199.569 27.1523 199.789 28.8194 200.199 30.4089C195.118 36.3759 192.038 44.1937 192.038 52.7516C192.038 63.4723 196.871 73.0321 204.418 79.2455C203.716 81.2746 203.336 83.453 203.336 85.7217C203.336 96.6473 212.186 105.503 223.106 105.503C224.593 105.503 226.043 105.339 227.437 105.028C232.244 109.96 239.07 113.04 246.641 113.04C255.117 113.04 262.658 109.179 267.481 103.183C270.463 105.801 274.372 107.388 278.65 107.388C288.01 107.388 295.596 99.7957 295.596 90.4315C295.596 88.8099 295.37 87.2415 294.944 85.7564C301.211 78.4584 305.01 68.8848 305.01 58.4037C305.01 50.232 302.701 42.6127 298.714 36.1928C299.138 34.244 299.363 32.22 299.363 30.1438C299.363 14.5363 286.718 1.88394 271.119 1.88394C267.751 1.88394 264.518 2.47426 261.523 3.55675C257.078 1.2854 252.014 0 246.641 0C238.984 0 231.954 2.61154 226.445 6.96788Z" fill="#389D2D"/>
<path fill-rule="evenodd" clip-rule="evenodd" d="M230.826 140.217C230.826 148.541 237.571 155.289 245.889 155.289C254.209 155.289 260.952 148.541 260.952 140.217C260.952 131.893 254.209 125.145 245.889 125.145C237.571 125.145 230.826 131.893 230.826 140.217Z" fill="#389D2D"/>
<path fill-rule="evenodd" clip-rule="evenodd" d="M235.481 173.276C235.481 177.563 238.955 181.038 243.239 181.038C247.524 181.038 250.998 177.563 250.998 173.276C250.998 168.988 247.524 165.512 243.239 165.512C238.955 165.512 235.481 168.988 235.481 173.276Z" fill="#389D2D"/>
<path fill-rule="evenodd" clip-rule="evenodd" d="M225.105 10.3028C223.41 8.60733 220.398 9.17242 217.95 8.98409C207.029 8.60733 200.628 18.0272 198.18 28.766C197.803 30.4615 198.18 32.1571 198.744 33.6643C192.907 38.9395 191.589 47.6059 190.648 56.084C189.519 66.8221 194.226 78.3149 203.075 82.6485C202.51 84.7204 201.945 86.7924 201.945 89.0541C201.568 99.9808 210.795 110.154 221.715 108.836C223.221 108.647 224.54 108.271 226.046 108.271C232.26 111.474 237.72 117.313 245.252 116.371C253.724 115.241 261.068 112.227 266.152 106.575C269.353 108.836 272.93 110.72 277.261 110.72C286.675 110.72 296.466 102.806 294.207 93.7639C293.83 92.2569 294.207 90.5612 293.641 89.0541C299.667 81.7063 307.011 71.7206 303.621 61.7361C300.985 54.011 302.491 44.9683 297.408 39.5047C298.349 37.8091 297.408 35.3599 297.973 33.476C302.491 18.5924 285.169 2.76696 269.729 5.2161C266.339 5.78131 263.327 6.91171 260.126 6.91171C256.737 3.14372 250.335 1.82487 245.252 3.33216C237.908 5.40454 229.436 4.83934 225.105 10.3028Z" stroke="#484848" stroke-width="2" stroke-linecap="round" stroke-linejoin="round"/>
<path fill-rule="evenodd" clip-rule="evenodd" d="M225.044 10.298C222.838 9.4479 220.444 8.98201 217.939 8.98201C207.02 8.98201 198.168 17.8386 198.168 28.7639C198.168 30.4822 198.388 32.1494 198.799 33.739C193.717 39.706 190.637 47.5237 190.637 56.0817C190.637 66.8024 195.47 76.361 203.017 82.5756C202.315 84.6047 201.935 86.7831 201.935 89.0518C201.935 99.9774 210.785 108.833 221.705 108.833C223.192 108.833 224.642 108.669 226.036 108.358C230.844 113.29 237.669 116.37 245.241 116.37C253.716 116.37 261.257 112.51 266.08 106.513C269.062 109.131 272.971 110.718 277.249 110.718C286.609 110.718 294.195 103.126 294.195 93.7616C294.195 92.14 293.969 90.5716 293.543 89.0865C299.811 81.7885 303.611 72.2149 303.611 61.7338C303.611 53.5619 301.301 45.9427 297.313 39.5227C297.738 37.574 297.962 35.55 297.962 33.4739C297.962 17.8663 285.317 5.21402 269.718 5.21402C266.35 5.21402 263.119 5.80422 260.123 6.88683C255.677 4.61548 250.613 3.33008 245.241 3.33008C237.583 3.33008 230.553 5.94161 225.044 10.298Z" stroke="#484848" stroke-width="2" stroke-linecap="round" stroke-linejoin="round"/>
<path fill-rule="evenodd" clip-rule="evenodd" d="M232.633 177.965C231.215 181.923 236.039 185.495 240.2 185.689C244.361 185.881 246.82 182.115 247.766 177.965C248.712 173.813 244.361 169.565 240.2 170.241C236.039 170.917 233.106 173.717 232.633 177.965Z" stroke="#484848" stroke-width="2" stroke-linecap="round" stroke-linejoin="round"/>
<path fill-rule="evenodd" clip-rule="evenodd" d="M230.826 144.877C230.826 153.2 237.571 159.948 245.889 159.948C254.209 159.948 260.952 153.2 260.952 144.877C260.952 136.552 254.209 129.805 245.889 129.805C237.571 129.805 230.826 136.552 230.826 144.877Z" stroke="#484848" stroke-width="2" stroke-linecap="round" stroke-linejoin="round"/>
<path d="M237.488 39.5407C237.488 37.5626 238.053 35.8669 237.488 33.8887C236.641 30.7801 240.03 28.8019 243.137 28.2367C245.961 27.9542 248.785 28.5194 251.61 28.2367C254.716 27.9542 257.823 30.7801 257.259 33.8887C256.976 35.8669 256.693 37.8451 257.259 39.5407M268.555 39.5407C270.25 54.518 270.816 69.7784 268.555 84.7564M226.19 39.5407C228.451 54.518 224.497 69.7784 226.19 84.7564M243.137 59.3228C243.137 57.0622 245.114 55.084 247.373 55.084C249.633 55.084 251.892 57.0622 251.61 59.3228C251.61 61.5833 249.633 64.1264 247.373 63.5615M267.144 29.6497C267.144 27.9542 266.862 25.9759 267.426 24.2804C267.144 23.7152 267.708 23.15 267.991 23.15C269.968 22.0196 271.945 21.4544 273.075 20.324C273.922 19.4762 275.052 19.7588 275.899 20.0414C276.747 20.324 277.311 20.8892 277.876 21.7369C278.441 22.8674 279.006 23.7152 279.57 24.563C280.136 25.4107 280.136 26.2586 279.853 27.1063C279.57 27.9542 279.006 28.8019 278.441 29.0846C276.747 30.2149 274.487 30.7801 273.075 31.9105C272.793 32.1932 272.227 32.1932 271.945 31.9105C270.25 31.0628 268.839 30.4976 267.144 29.6497ZM267.144 29.6497C263.472 30.4976 260.647 33.6061 257.259 35.3017M223.367 39.5407C238.9 43.497 256.129 34.1713 271.38 39.5407C271.38 39.5407 277.593 39.8233 279.853 48.0187C282.113 57.0622 279.853 66.953 279.853 76.2789C279.853 76.2789 279.853 85.6037 271.38 84.7564C255.564 83.3431 239.183 82.2134 223.367 84.7564C223.367 84.7564 214.611 84.7564 214.894 76.2789C215.459 66.953 212.069 57.0622 214.894 48.0187C214.894 48.0187 214.894 39.5407 223.367 39.5407ZM233.252 62.1482C230.428 69.496 239.748 74.3007 247.373 76.2789C254.999 78.2571 260.931 70.0608 261.495 62.1482C262.06 54.2356 254.999 47.1708 247.373 48.0187C239.748 48.8664 232.405 54.518 233.252 62.1482ZM247.373 68.6487C247.656 68.3663 247.938 68.9311 248.221 69.2135C248.221 69.496 247.656 69.7784 247.373 70.0608C247.091 70.0608 246.808 69.496 246.808 69.2135C246.526 68.9311 247.091 68.3663 247.373 68.6487Z" stroke="#F9F9F9" stroke-width="2" stroke-linecap="round" stroke-linejoin="round"/>
<path d="M237.488 39.5384V33.8863C237.488 30.7649 240.017 28.2344 243.137 28.2344H251.61C254.729 28.2344 257.259 30.7649 257.259 33.8863V39.5384M268.555 39.5384V84.754M226.19 39.5384V84.754M243.137 59.3204C243.137 56.9788 245.034 55.0817 247.373 55.0817C249.713 55.0817 251.61 56.9788 251.61 59.3204C251.61 61.6609 249.713 63.5592 247.373 63.5592M267.031 29.5061L257.259 35.1581M223.367 39.5384H271.38C271.38 39.5384 279.853 39.5384 279.853 48.0163V76.2765C279.853 76.2765 279.853 84.754 271.38 84.754H223.367C223.367 84.754 214.894 84.754 214.894 76.2765V48.0163C214.894 48.0163 214.894 39.5384 223.367 39.5384ZM233.252 62.1459C233.252 69.9497 239.575 76.2765 247.373 76.2765C255.172 76.2765 261.495 69.9497 261.495 62.1459C261.495 54.342 255.172 48.0163 247.373 48.0163C239.575 48.0163 233.252 54.342 233.252 62.1459ZM247.373 68.5051C247.764 68.5051 248.08 68.8211 248.08 69.2112C248.08 69.6013 247.764 69.9173 247.373 69.9173C246.983 69.9173 246.667 69.6013 246.667 69.2112C246.667 68.8211 246.983 68.5051 247.373 68.5051ZM267.397 24.278L267.144 29.6474L271.86 31.9929C272.273 32.2192 272.774 32.2192 273.187 31.9929L278.299 29.167C279.068 28.7293 279.629 28.0014 279.859 27.1462C280.086 26.2911 279.963 25.3801 279.514 24.6171L277.876 21.7912C277.5 20.9332 276.781 20.2729 275.894 19.9719C275.008 19.6708 274.036 19.7567 273.216 20.2086L268.104 23.0346C267.652 23.2811 267.378 23.763 267.397 24.278Z" stroke="#F9F9F9" stroke-width="2" stroke-linecap="round" stroke-linejoin="round"/>
<path fill-rule="evenodd" clip-rule="evenodd" d="M430.244 173.154C438.508 173.154 446.135 170.485 452.273 165.98C454.924 167.362 457.936 168.142 461.131 168.142C471.734 168.142 480.331 159.542 480.331 148.931C480.331 143.944 478.431 139.399 475.316 135.985C479.387 132.773 482 127.793 482 122.202C482 118.161 480.634 114.438 478.338 111.471C478.55 110.07 478.661 108.632 478.661 107.168C478.661 91.9456 466.701 79.6044 451.948 79.6044C450.295 79.6044 448.676 79.7595 447.106 80.0558C441.95 75.6168 435.169 72.9222 427.74 72.9222C420.115 72.9222 413.172 75.7615 407.968 80.4112C406.305 79.8868 404.534 79.6044 402.697 79.6044C393.014 79.6044 385.166 87.458 385.166 97.1451C385.166 101.442 386.711 105.378 389.273 108.428C386.693 112.042 385.166 116.519 385.166 121.368C385.166 125.213 386.127 128.825 387.811 131.957C384.096 135.978 381.827 141.354 381.827 147.261C381.827 159.716 391.918 169.814 404.366 169.814C407.074 169.814 409.67 169.336 412.075 168.459C417.433 171.447 423.635 173.154 430.244 173.154Z" fill="#389D2D"/>
<path fill-rule="evenodd" clip-rule="evenodd" d="M354.391 182.293C354.391 189.674 360.37 195.657 367.746 195.657C375.123 195.657 381.103 189.674 381.103 182.293C381.103 174.912 375.123 168.928 367.746 168.928C360.37 168.928 354.391 174.912 354.391 182.293Z" fill="#389D2D"/>
<path fill-rule="evenodd" clip-rule="evenodd" d="M333.928 204.648C333.928 208.804 337.036 212.172 340.869 212.172C344.703 212.172 347.81 208.804 347.81 204.648C347.81 200.493 344.703 197.125 340.869 197.125C337.036 197.125 333.928 200.493 333.928 204.648Z" fill="#389D2D"/>
<path fill-rule="evenodd" clip-rule="evenodd" d="M427.131 176.195C435.312 175.026 443.159 173.689 449.17 169.012C451.841 170.181 455.013 172.185 458.018 171.183C468.203 168.009 479.89 162.163 477.218 151.972C475.883 147.128 475.715 142.116 472.21 138.942C475.382 134.933 479.055 130.756 478.888 125.243C478.721 121.235 477.887 117.057 475.215 114.553C475.382 113.049 475.883 111.712 475.549 110.208C472.377 95.3405 463.528 82.8118 448.835 82.6451C447.166 82.6451 445.663 82.9796 443.994 83.1463C439.486 77.9676 432.14 75.9629 424.628 75.9629C416.948 75.9629 409.1 77.801 404.926 83.4808C403.257 82.8117 401.421 82.3106 399.584 82.6451C390.068 84.1487 382.22 90.4964 382.054 100.186C382.054 104.529 383.222 108.705 386.227 111.545C383.055 114.553 383.222 119.731 382.054 124.409C381.218 128.084 382.555 132.26 384.725 134.933C380.885 138.942 379.383 144.455 378.715 150.302C377.212 162.664 388.899 171.351 401.253 172.853C403.924 173.188 406.597 172.185 408.933 171.517C414.61 174.023 420.453 176.362 427.131 176.195Z" stroke="#484848" stroke-width="2" stroke-linecap="round" stroke-linejoin="round"/>
<path fill-rule="evenodd" clip-rule="evenodd" d="M427.137 176.195C435.401 176.195 443.028 173.526 449.165 169.021C451.815 170.403 454.828 171.183 458.023 171.183C468.627 171.183 477.224 162.582 477.224 151.972C477.224 146.984 475.323 142.44 472.208 139.025C476.28 135.813 478.893 130.834 478.893 125.243C478.893 121.201 477.525 117.479 475.23 114.512C475.443 113.11 475.553 111.673 475.553 110.208C475.553 94.9851 463.594 82.6451 448.841 82.6451C447.187 82.6451 445.568 82.8002 443.997 83.0965C438.843 78.6575 432.06 75.9629 424.632 75.9629C417.007 75.9629 410.063 78.8022 404.861 83.4518C403.197 82.9275 401.425 82.6451 399.588 82.6451C389.907 82.6451 382.058 90.4987 382.058 100.186C382.058 104.482 383.602 108.419 386.166 111.469C383.585 115.083 382.058 119.56 382.058 124.409C382.058 128.253 383.018 131.865 384.703 134.997C380.989 139.019 378.719 144.395 378.719 150.302C378.719 162.756 388.81 172.853 401.258 172.853C403.966 172.853 406.563 172.376 408.968 171.5C414.325 174.488 420.527 176.195 427.137 176.195Z" stroke="#484848" stroke-width="2" stroke-linecap="round" stroke-linejoin="round"/>
<path fill-rule="evenodd" clip-rule="evenodd" d="M351.281 181.861C351.281 189.242 357.261 195.225 364.638 195.225C372.014 195.225 377.994 189.242 377.994 181.861C377.994 174.481 372.014 168.496 364.638 168.496C357.261 168.496 351.281 174.481 351.281 181.861Z" stroke="#484848" stroke-width="2" stroke-linecap="round" stroke-linejoin="round"/>
<path fill-rule="evenodd" clip-rule="evenodd" d="M329.301 205.227C329.301 209.062 332.408 212.172 336.242 212.172C340.075 212.172 343.183 209.062 343.183 205.227C343.183 201.391 340.075 198.282 336.242 198.282C332.408 198.282 329.301 201.391 329.301 205.227Z" stroke="#484848" stroke-width="2" stroke-linecap="round" stroke-linejoin="round"/>
<path d="M418.295 133.599C418.295 135.103 418.546 136.856 418.295 138.61M443.088 143.372C446.345 140.866 448.849 137.608 451.603 134.852C452.605 133.849 454.609 133.348 455.11 134.852C455.611 135.353 456.612 135.854 456.862 136.605M448.097 138.61C448.849 139.863 450.101 140.866 451.352 141.868M433.071 136.856C436.326 133.098 436.578 127.585 433.071 124.076C429.816 120.318 424.807 121.822 420.299 124.076C419.798 124.829 419.047 125.58 418.045 126.081C417.544 125.079 416.543 124.829 416.042 124.076C414.038 119.566 407.777 121.822 403.269 124.076C398.762 126.081 399.262 133.849 403.269 136.856C409.029 140.615 411.785 148.634 418.045 151.641C423.805 147.38 428.563 142.118 433.071 136.856ZM435.075 113.051C427.311 112.8 418.045 118.313 418.295 126.332C414.79 123.826 415.04 117.562 414.038 110.044C415.541 105.533 417.794 100.271 422.302 99.269C424.306 98.0166 427.311 98.5178 429.315 98.0166C432.57 96.763 436.077 98.7678 439.332 98.0166C443.589 96.763 447.596 101.274 446.845 105.533C446.344 109.543 443.589 112.299 439.332 113.051C438.08 113.051 436.578 112.8 435.075 113.051ZM438.831 154.397C442.086 155.399 444.591 151.39 445.092 148.133C445.844 144.624 442.337 142.118 438.831 141.868C435.325 141.367 433.071 144.624 432.57 148.133C432.32 151.39 435.325 153.896 438.831 154.397Z" stroke="#F9F9F9" stroke-width="2" stroke-linecap="round" stroke-linejoin="round"/>
<path d="M418.362 133.472V138.484M443.155 143.245L451.669 134.725C452.671 133.723 454.174 133.723 455.176 134.725L456.928 136.479M448.163 138.484L451.419 141.741M433.137 136.729C436.643 133.222 436.643 127.459 433.137 123.95C429.632 120.442 423.871 120.442 420.366 123.95L418.111 125.955L416.108 123.95C412.602 120.442 406.841 120.442 403.336 123.95C399.83 127.459 399.83 133.222 403.336 136.729L418.111 151.514L433.137 136.729ZM435.141 112.924C427.377 112.924 420.616 118.688 418.362 126.205C415.858 122.697 412.351 117.435 414.105 109.918C415.106 105.407 418.362 101.649 422.369 99.3929C424.623 98.3905 427.127 97.8893 429.381 97.8893H439.399C443.656 97.8893 446.911 101.148 446.911 105.407C446.911 109.667 443.656 112.924 439.399 112.924H435.141ZM438.898 154.27C442.356 154.27 445.159 151.465 445.159 148.005C445.159 144.546 442.356 141.741 438.898 141.741C435.44 141.741 432.636 144.546 432.636 148.005C432.636 151.465 435.44 154.27 438.898 154.27Z" stroke="#F9F9F9" stroke-width="2" stroke-linecap="round" stroke-linejoin="round"/>
</svg>
