<svg width="450" height="276" viewBox="0 0 450 276" fill="none" xmlns="http://www.w3.org/2000/svg">
<path fill-rule="evenodd" clip-rule="evenodd" d="M16.0055 61.0021C15.9565 61.0004 15.9074 61.0004 15.8583 61.0004C7.10021 61.0004 0 68.1582 0 76.9854C0 81.6657 1.99456 85.8755 5.17333 88.7998C4.75378 90.6253 4.53046 92.5324 4.53046 94.4938C4.53046 95.6282 4.60492 96.7439 4.74872 97.8358C2.70002 101.042 1.51073 104.86 1.51073 108.957C1.51073 120.308 10.6376 129.509 21.8978 129.509C22.4223 129.509 22.94 129.49 23.4542 129.451C28.9541 135.115 36.7124 138.643 45.3081 138.643C53.8277 138.643 61.5234 135.177 67.0148 129.601C68.8994 130.518 71.014 131.032 73.2471 131.032C81.1712 131.032 87.5948 124.557 87.5948 116.569C87.5948 112.197 85.6696 108.278 82.6295 105.627C87.5153 101.298 90.6145 94.847 90.6145 87.6433C90.6145 81.4381 88.3154 75.7933 84.5581 71.5818C84.5682 71.3543 84.5733 71.1267 84.5733 70.8957C84.5733 62.9091 78.1498 56.4339 70.2257 56.4339C69.3511 56.4339 68.4951 56.5121 67.6627 56.6632C61.4388 50.8588 53.0394 47.2994 43.7974 47.2994C32.4323 47.2994 22.3428 52.6809 16.0055 61.0021ZM157.066 56.4339C157.066 53.0698 154.361 50.3442 151.025 50.3442C147.689 50.3442 144.984 53.0698 144.984 56.4339C144.984 59.7964 147.689 62.5237 151.025 62.5237C154.361 62.5237 157.066 59.7964 157.066 56.4339Z" fill="#389D2D"/>
<path fill-rule="evenodd" clip-rule="evenodd" d="M190.748 186.741C188.977 186.055 187.052 185.68 185.04 185.68C176.269 185.68 169.158 192.819 169.158 201.624C169.158 203.008 169.334 204.353 169.664 205.634C165.582 210.443 163.107 216.743 163.107 223.641C163.107 232.282 166.991 239.986 173.053 244.994C172.489 246.63 172.183 248.386 172.183 250.213C172.183 259.018 179.293 266.157 188.065 266.157C189.261 266.157 190.425 266.025 191.545 265.773C195.407 269.749 200.892 272.23 206.974 272.23C213.783 272.23 219.841 269.12 223.715 264.286C226.112 266.397 229.252 267.675 232.69 267.675C240.208 267.675 246.303 261.557 246.303 254.01C246.303 252.702 246.12 251.439 245.779 250.242C250.813 244.359 253.867 236.644 253.867 228.196C253.867 221.61 252.011 215.47 248.807 210.295C249.149 208.724 249.328 207.092 249.328 205.42C249.328 192.841 239.169 182.643 226.638 182.643C223.932 182.643 221.337 183.119 218.929 183.992C215.358 182.161 211.289 181.125 206.974 181.125C200.823 181.125 195.174 183.229 190.748 186.741ZM214.537 120.388C214.537 117.034 211.829 114.315 208.488 114.315C205.145 114.315 202.436 117.034 202.436 120.388C202.436 123.742 205.145 126.462 208.488 126.462C211.829 126.462 214.537 123.742 214.537 120.388Z" fill="#389D2D"/>
<path fill-rule="evenodd" clip-rule="evenodd" d="M196.4 153.791C196.4 160.501 201.817 165.94 208.501 165.94C215.184 165.94 220.602 160.501 220.602 153.791C220.602 147.083 215.184 141.644 208.501 141.644C201.817 141.644 196.4 147.083 196.4 153.791Z" fill="#389D2D"/>
<path fill-rule="evenodd" clip-rule="evenodd" d="M403.107 138.076C410.594 138.076 417.505 135.649 423.066 131.555C425.466 132.812 428.197 133.52 431.091 133.52C440.699 133.52 448.486 125.703 448.486 116.059C448.486 111.525 446.765 107.395 443.944 104.291C447.632 101.371 450 96.8457 450 91.7647C450 88.0898 448.762 84.7053 446.681 82.0103C446.874 80.735 446.973 79.4291 446.973 78.0977C446.973 64.2608 436.138 53.0443 422.771 53.0443C421.273 53.0443 419.807 53.1852 418.383 53.4552C413.712 49.4203 407.569 46.9698 400.838 46.9698C393.929 46.9698 387.639 49.5511 382.926 53.7779C381.417 53.3007 379.813 53.0443 378.148 53.0443C369.377 53.0443 362.265 60.1818 362.265 68.9869C362.265 72.8927 363.664 76.4708 365.987 79.244C363.649 82.5283 362.265 86.5971 362.265 91.0039C362.265 94.4988 363.136 97.7831 364.662 100.629C361.297 104.284 359.24 109.171 359.24 114.541C359.24 125.861 368.382 135.04 379.661 135.04C382.114 135.04 384.467 134.605 386.646 133.809C391.5 136.524 397.12 138.076 403.107 138.076ZM304.785 56.0806C304.785 52.7267 302.076 50.0079 298.733 50.0079C295.392 50.0079 292.684 52.7267 292.684 56.0806C292.684 59.4346 295.392 62.1551 298.733 62.1551C302.076 62.1551 304.785 59.4346 304.785 56.0806Z" fill="#389D2D"/>
<path fill-rule="evenodd" clip-rule="evenodd" d="M319.911 65.195C319.911 71.9029 325.328 77.3422 332.012 77.3422C338.695 77.3422 344.113 71.9029 344.113 65.195C344.113 58.4855 338.695 53.0461 332.012 53.0461C325.328 53.0461 319.911 58.4855 319.911 65.195Z" fill="#389D2D"/>
<path fill-rule="evenodd" clip-rule="evenodd" d="M99.3101 67.7015C99.3101 74.4111 104.729 79.8487 111.411 79.8487C118.095 79.8487 123.512 74.4111 123.512 67.7015C123.512 60.9937 118.095 55.5544 111.411 55.5544C104.729 55.5544 99.3101 60.9937 99.3101 67.7015Z" fill="#389D2D"/>
<path fill-rule="evenodd" clip-rule="evenodd" d="M196.195 189.43C194.834 188.064 192.413 188.519 190.447 188.368C181.674 188.064 176.531 195.655 174.563 204.311C174.262 205.678 174.563 207.045 175.018 208.259C170.329 212.51 169.27 219.494 168.514 226.328C167.605 234.984 171.388 244.246 178.496 247.739C178.043 249.408 177.59 251.079 177.59 252.901C177.287 261.708 184.698 269.907 193.472 268.844C194.683 268.693 195.74 268.389 196.952 268.389C201.942 270.97 206.329 275.677 212.38 274.918C219.188 274.006 225.087 271.578 229.171 267.022C231.742 268.844 234.617 270.362 238.095 270.362C245.658 270.362 253.525 263.985 251.71 256.697C251.407 255.482 251.71 254.115 251.255 252.901C256.097 246.978 261.996 238.932 259.272 230.884C257.156 224.659 258.365 217.37 254.281 212.967C255.038 211.599 254.281 209.626 254.735 208.106C258.365 196.112 244.449 183.357 232.045 185.33C229.321 185.787 226.902 186.697 224.331 186.697C221.607 183.661 216.464 182.598 212.38 183.812C206.481 185.483 199.674 185.026 196.195 189.43ZM219.944 123.074C220.247 119.734 217.22 117.457 213.893 117.002C210.565 116.547 207.237 119.734 207.843 123.074C208.447 126.416 210.565 128.541 213.893 129.149C217.22 129.757 220.851 126.264 219.944 123.074Z" stroke="#484848" stroke-width="2" stroke-linecap="round" stroke-linejoin="round"/>
<path fill-rule="evenodd" clip-rule="evenodd" d="M196.154 189.428C194.382 188.742 192.459 188.366 190.446 188.366C181.674 188.366 174.564 195.506 174.564 204.311C174.564 205.695 174.739 207.04 175.069 208.32C170.987 213.129 168.512 219.43 168.512 226.328C168.512 234.968 172.396 242.673 178.46 247.681C177.895 249.316 177.588 251.072 177.588 252.899C177.588 261.705 184.7 268.844 193.472 268.844C194.666 268.844 195.83 268.711 196.95 268.46C200.814 272.435 206.297 274.916 212.381 274.916C219.188 274.916 225.248 271.807 229.122 266.974C231.518 269.083 234.657 270.362 238.095 270.362C245.613 270.362 251.708 264.243 251.708 256.697C251.708 255.389 251.526 254.126 251.184 252.928C256.219 247.046 259.272 239.331 259.272 230.882C259.272 224.297 257.416 218.156 254.214 212.982C254.554 211.411 254.733 209.779 254.733 208.106C254.733 195.528 244.576 185.33 232.044 185.33C229.339 185.33 226.742 185.806 224.336 186.678C220.763 184.848 216.696 183.812 212.381 183.812C206.228 183.812 200.581 185.916 196.154 189.428ZM219.944 123.074C219.944 119.72 217.234 117.002 213.893 117.002C210.552 117.002 207.842 119.72 207.842 123.074C207.842 126.428 210.552 129.149 213.893 129.149C217.234 129.149 219.944 126.428 219.944 123.074Z" stroke="#484848" stroke-width="2" stroke-linecap="round" stroke-linejoin="round"/>
<path fill-rule="evenodd" clip-rule="evenodd" d="M201.786 156.478C199.518 162.703 207.232 168.321 213.887 168.625C220.544 168.929 224.476 163.007 225.99 156.478C227.502 149.948 220.544 143.268 213.887 144.331C207.232 145.394 202.543 149.797 201.786 156.478Z" stroke="#484848" stroke-width="2" stroke-linecap="round" stroke-linejoin="round"/>
<path fill-rule="evenodd" clip-rule="evenodd" d="M201.778 156.481C201.778 163.191 207.197 168.63 213.881 168.63C220.563 168.63 225.982 163.191 225.982 156.481C225.982 149.773 220.563 144.334 213.881 144.334C207.197 144.334 201.778 149.773 201.778 156.481Z" stroke="#484848" stroke-width="2" stroke-linecap="round" stroke-linejoin="round"/>
<path fill-rule="evenodd" clip-rule="evenodd" d="M396.101 138.737C403.513 137.674 410.623 136.458 416.069 132.207C418.488 133.27 421.362 135.092 424.086 134.181C433.312 131.295 443.901 125.982 441.48 116.718C440.271 112.315 440.12 107.76 436.943 104.875C439.817 101.231 443.145 97.435 442.994 92.4237C442.842 88.7794 442.086 84.9839 439.665 82.7066C439.817 81.3396 440.271 80.1254 439.968 78.7583C437.093 65.2441 429.076 53.8561 415.766 53.7049C414.253 53.7049 412.892 54.0072 411.379 54.16C407.295 49.4527 400.64 47.6305 393.832 47.6305C386.874 47.6305 379.764 49.3015 375.983 54.464C374.47 53.8561 372.806 53.4009 371.143 53.7049C362.52 55.0703 355.411 60.8407 355.259 69.6475C355.259 73.5958 356.318 77.3913 359.042 79.9725C356.168 82.7066 356.318 87.414 355.259 91.6646C354.503 95.005 355.714 98.8021 357.68 101.231C354.2 104.875 352.84 109.886 352.234 115.2C350.872 126.437 361.461 134.333 372.655 135.699C375.076 136.003 377.495 135.092 379.613 134.484C384.756 136.762 390.051 138.888 396.101 138.737ZM297.779 56.7413C297.173 53.401 295.055 50.2117 291.728 50.6668C288.4 51.1237 286.888 53.5521 285.678 56.7413C284.467 59.9305 288.4 62.6629 291.728 62.814C295.055 62.9668 296.87 59.9305 297.779 56.7413Z" stroke="#484848" stroke-width="2" stroke-linecap="round" stroke-linejoin="round"/>
<path fill-rule="evenodd" clip-rule="evenodd" d="M396.103 138.737C403.591 138.737 410.5 136.31 416.06 132.216C418.463 133.471 421.191 134.181 424.086 134.181C433.693 134.181 441.482 126.362 441.482 116.718C441.482 112.186 439.76 108.054 436.938 104.951C440.626 102.03 442.995 97.5047 442.995 92.4237C442.995 88.7505 441.756 85.366 439.675 82.6693C439.87 81.3956 439.97 80.088 439.97 78.7583C439.97 64.9215 429.134 53.7049 415.766 53.7049C414.269 53.7049 412.802 53.8459 411.379 54.1142C406.708 50.0793 400.564 47.6305 393.833 47.6305C386.925 47.6305 380.634 50.2117 375.921 54.4385C374.413 53.9614 372.808 53.7049 371.143 53.7049C362.371 53.7049 355.261 60.8424 355.261 69.6475C355.261 73.5534 356.66 77.1315 358.983 79.9029C356.643 83.1872 355.261 87.2578 355.261 91.6646C355.261 95.1595 356.131 98.4421 357.657 101.29C354.292 104.944 352.235 109.832 352.235 115.2C352.235 126.522 361.378 135.699 372.655 135.699C375.11 135.699 377.462 135.266 379.641 134.469C384.496 137.185 390.114 138.737 396.103 138.737ZM297.779 56.7413C297.779 53.3874 295.071 50.6668 291.73 50.6668C288.388 50.6668 285.678 53.3874 285.678 56.7413C285.678 60.0952 288.388 62.814 291.73 62.814C295.071 62.814 297.779 60.0952 297.779 56.7413Z" stroke="#484848" stroke-width="2" stroke-linecap="round" stroke-linejoin="round"/>
<path fill-rule="evenodd" clip-rule="evenodd" d="M312.911 65.8538C313.97 72.5345 318.356 78.1538 325.012 78.001C331.667 77.8498 339.08 72.2305 337.113 65.8538C335.147 59.4771 331.667 53.5538 325.012 53.7066C318.356 53.8578 311.096 59.3242 312.911 65.8538Z" stroke="#484848" stroke-width="2" stroke-linecap="round" stroke-linejoin="round"/>
<path fill-rule="evenodd" clip-rule="evenodd" d="M312.905 65.8539C312.905 72.5634 318.324 78.0011 325.006 78.0011C331.69 78.0011 337.107 72.5634 337.107 65.8539C337.107 59.146 331.69 53.7067 325.006 53.7067C318.324 53.7067 312.905 59.146 312.905 65.8539Z" stroke="#484848" stroke-width="2" stroke-linecap="round" stroke-linejoin="round"/>
<path fill-rule="evenodd" clip-rule="evenodd" d="M19.4933 60.9326C19.4442 60.9326 19.3952 60.9308 19.3444 60.9308C10.5728 60.9308 3.4624 68.07 3.4624 76.8751C3.4624 81.5418 5.46035 85.7414 8.6442 88.6572C8.22296 90.4794 7.99965 92.3813 7.99965 94.3377C7.99965 95.4687 8.07407 96.581 8.21956 97.6712C6.16579 100.869 4.97481 104.676 4.97481 108.762C4.97481 120.082 14.117 129.261 25.3958 129.261C25.9202 129.261 26.4396 129.241 26.9539 129.202C32.4622 134.851 40.2323 138.372 48.8416 138.372C57.3747 138.372 65.0839 134.913 70.5838 129.351C72.4718 130.266 74.5898 130.779 76.8263 130.779C84.7622 130.779 91.1959 124.321 91.1959 116.355C91.1959 111.994 89.269 108.086 86.2239 105.44C91.1164 101.124 94.2207 94.6892 94.2207 87.5041C94.2207 81.3159 91.9199 75.6864 88.1541 71.4851C88.166 71.2575 88.1711 71.03 88.1711 70.8007C88.1711 62.8345 81.7374 56.3763 73.7998 56.3763C72.9234 56.3763 72.0657 56.4544 71.2317 56.6056C64.9994 50.8164 56.5863 47.2655 47.3292 47.2655C35.9472 47.2655 25.8407 52.6335 19.4933 60.9326ZM160.779 56.3763C160.779 53.0224 158.069 50.3019 154.727 50.3019C151.386 50.3019 148.678 53.0224 148.678 56.3763C148.678 59.7302 151.386 62.4507 154.727 62.4507C158.069 62.4507 160.779 59.7302 160.779 56.3763Z" stroke="#484848" stroke-width="2" stroke-linecap="round" stroke-linejoin="round"/>
<path fill-rule="evenodd" clip-rule="evenodd" d="M106.051 65.487C108.47 71.7126 111.648 79.154 118.152 77.6341C124.655 76.116 131.16 72.1694 130.253 65.487C129.345 58.8063 124.505 51.3665 118.152 53.3398C111.798 55.3148 108.47 59.2614 106.051 65.487Z" stroke="#484848" stroke-width="2" stroke-linecap="round" stroke-linejoin="round"/>
<path fill-rule="evenodd" clip-rule="evenodd" d="M106.051 65.4888C106.051 72.1983 111.468 77.6376 118.152 77.6376C124.835 77.6376 130.253 72.1983 130.253 65.4888C130.253 58.7809 124.835 53.3416 118.152 53.3416C111.468 53.3416 106.051 58.7809 106.051 65.4888Z" stroke="#484848" stroke-width="2" stroke-linecap="round" stroke-linejoin="round"/>
<path d="M222.796 41.8669C217.76 38.277 209.063 35.1353 204.485 39.6219M177.476 50.8419C177.476 49.0469 177.018 47.2519 177.018 45.0086C176.561 20.7737 197.16 1.92546 221.881 1.02881C246.601 0.130468 265.827 20.7737 266.742 45.0086C267.199 61.1635 259.876 79.5634 244.768 82.705M213.64 98.8599C221.422 93.475 218.218 87.6417 219.134 80.0117C224.168 78.665 228.746 76.8701 233.782 74.6267C236.986 73.2801 237.445 69.6901 237.445 66.5484C237.902 64.3051 235.613 63.4068 234.241 62.5101C232.409 61.1635 230.578 61.6118 228.746 62.0618C219.592 65.6518 210.893 68.7935 201.737 72.3834C199.448 73.2801 196.244 71.4851 196.703 69.2418C197.16 67.8951 197.16 66.5485 196.703 64.7535C196.244 63.4068 195.329 62.0618 194.414 60.2668C193.499 58.9202 191.21 58.9202 189.378 58.9202C186.173 59.3685 184.343 62.0618 183.885 65.2035C183.428 71.4851 184.8 77.7684 183.885 83.6017C181.596 95.27 194.414 99.7583 206.315 101.105C206.315 101.105 211.352 100.207 213.64 98.8599ZM200.365 23.9153C199.448 23.9153 198.076 23.0187 198.533 22.1203C198.992 21.2237 199.448 20.3254 200.365 20.3254C201.281 20.7737 201.737 21.2237 202.196 22.1203C202.196 23.0187 201.281 23.9153 200.365 23.9153ZM224.627 23.9153C223.711 23.9153 223.253 23.0187 222.796 22.1203C222.796 21.2237 223.711 20.3254 224.627 20.3254C225.542 20.3254 226.457 21.2237 226.457 22.1203C226 23.0187 225.542 23.9153 224.627 23.9153Z" stroke="#484848" stroke-width="2" stroke-linecap="round" stroke-linejoin="round"/>
<path d="M222.804 42.154C218.224 37.63 209.065 35.3697 204.487 39.892M177.469 51.1985C177.012 49.3883 177.012 47.5797 177.012 45.3194C177.012 20.8977 197.16 1 221.887 1C246.615 1 266.763 20.8977 266.763 45.3194C266.763 61.6 258.063 75.6185 244.783 83.3062M213.416 99.614C222.574 95.9951 220.856 88.0238 219.026 80.7878L233.605 75.211C236.985 73.9203 238.753 70.2438 237.63 66.8406C237.05 65.0796 235.762 63.6344 234.069 62.8396C232.375 62.0466 230.427 61.9753 228.677 62.6444L201.853 72.9099C199.564 73.8134 196.817 72.0048 196.817 69.7445L196.638 65.4617C196.565 63.7159 195.761 62.0788 194.421 60.9411C193.08 59.8033 191.32 59.2649 189.563 59.4551C186.33 59.8084 183.882 62.5068 183.88 65.7198V84.2148C183.88 95.9731 194.87 104.566 206.318 101.852C206.318 101.852 211.126 100.517 213.416 99.614ZM200.251 24.0631C199.302 24.0631 198.534 23.304 198.534 22.3683C198.534 21.4309 199.302 20.6718 200.251 20.6718C201.198 20.6718 201.968 21.4309 201.968 22.3683C201.968 23.304 201.198 24.0631 200.251 24.0631ZM224.634 24.0631C223.687 24.0631 222.917 23.304 222.917 22.3683C222.917 21.4309 223.687 20.6718 224.634 20.6718C225.583 20.6718 226.351 21.4309 226.351 22.3683C226.351 23.304 225.583 24.0631 224.634 24.0631Z" stroke="#484848" stroke-width="2" stroke-linecap="round" stroke-linejoin="round"/>
<path d="M54.6136 99.653C64.3698 101.93 71.1774 104.664 71.6308 108.991C72.3108 114.458 59.8326 120.835 45.5374 119.012C31.2422 117.19 19.2174 114.458 19.4441 108.991C19.4441 104.664 26.705 101.93 36.4612 99.653M54.6136 105.347C59.6059 107.624 63.4631 107.397 63.6897 108.991C63.9164 111.269 55.5204 114.685 45.5374 113.318C35.5545 112.181 27.6118 111.496 27.3851 108.991C27.1584 107.397 31.2422 107.397 36.4612 105.347M48.9412 108.764C49.3946 104.664 48.4878 100.108 49.848 96.2362C50.9831 96.4638 52.345 96.0087 53.4784 96.2362C53.9335 93.9589 54.1602 91.6817 53.4784 89.4044C52.345 85.0757 49.6213 82.7985 45.5374 81.4314C41.4536 80.0661 37.5964 85.0757 37.5964 89.4044C37.5964 91.6817 38.5032 94.1865 37.5964 96.2362C38.7299 96.4638 40.0917 95.7811 41.2269 96.2362C42.3603 100.337 42.8154 104.664 42.1337 108.764M39.4116 73.005C39.6383 76.4217 42.1336 80.0661 45.5374 79.1541C48.9412 78.2439 51.4365 76.4217 51.8899 73.005C52.1183 69.3607 48.7145 67.766 45.5374 66.6283C42.3603 65.4888 40.0917 69.5882 39.4116 73.005Z" stroke="#E7E7E7" stroke-width="2" stroke-linecap="round" stroke-linejoin="round"/>
<path d="M54.6104 99.6547C64.5494 101.068 71.6276 104.734 71.6276 109.015C71.6276 114.551 59.9428 119.014 45.5343 119.014C31.1257 119.014 19.4409 114.551 19.4409 109.015C19.4409 104.734 26.5208 101.068 36.4581 99.6547M54.6104 105.349C60.0325 106.101 63.6866 107.49 63.6866 109.085C63.6866 111.362 55.5629 113.39 45.5343 113.39C35.5056 113.39 27.3819 111.454 27.3819 109.085C27.3819 107.49 31.0361 106.101 36.4581 105.349M48.938 108.765L49.8905 96.2379H53.4753V89.4061C53.4753 85.0027 49.9209 81.4331 45.5343 81.4331C41.1493 81.4331 37.5933 85.0027 37.5933 89.4061V96.2379H41.178L42.1305 108.765M39.2951 72.8929C39.2951 76.3521 42.0882 79.1558 45.5343 79.1558C48.9803 79.1558 51.7734 76.3521 51.7734 72.8929C51.7734 69.4337 48.9803 66.6282 45.5343 66.6282C42.0882 66.6282 39.2951 69.4337 39.2951 72.8929Z" stroke="#E7E7E7" stroke-width="2" stroke-linecap="round" stroke-linejoin="round"/>
<path d="M388.082 100.02C388.082 101.385 388.311 102.98 388.082 104.574M410.545 108.901C413.496 106.624 415.764 103.664 418.261 101.158C419.168 100.247 420.983 99.7922 421.437 101.158C421.892 101.614 422.799 102.069 423.025 102.752M415.084 104.574C415.764 105.714 416.9 106.624 418.033 107.536M401.471 102.98C404.42 99.563 404.646 94.5533 401.471 91.3641C398.521 87.9473 393.983 89.3144 389.898 91.3641C389.444 92.0468 388.764 92.7311 387.856 93.1862C387.402 92.276 386.496 92.0468 386.041 91.3641C384.225 87.2647 378.553 89.3144 374.469 91.3641C370.385 93.1862 370.839 100.247 374.469 102.98C379.688 106.396 382.183 113.685 387.856 116.417C393.075 112.546 397.385 107.764 401.471 102.98ZM403.286 81.3431C396.252 81.1155 387.856 86.1252 388.082 93.4138C384.907 91.1365 385.134 85.4425 384.225 78.609C385.587 74.5095 387.629 69.7274 391.713 68.8155C393.528 67.676 396.252 68.1328 398.067 67.676C401.016 66.5382 404.193 68.3604 407.143 67.676C411 66.5382 414.631 70.6377 413.949 74.5095C413.496 78.1538 411 80.6587 407.143 81.3431C406.008 81.3431 404.646 81.1155 403.286 81.3431ZM406.688 118.924C409.639 119.834 411.907 116.19 412.361 113.23C413.042 110.041 409.865 107.764 406.688 107.536C403.513 107.079 401.471 110.041 401.016 113.23C400.789 116.19 403.513 118.469 406.688 118.924Z" stroke="#E7E7E7" stroke-width="2" stroke-linecap="round" stroke-linejoin="round"/>
<path d="M388.151 99.9043V104.459M410.614 108.786L418.329 101.042C419.237 100.132 420.597 100.132 421.506 101.042L423.094 102.637M415.152 104.459L418.102 107.421M401.538 102.864C404.715 99.6751 404.715 94.4379 401.538 91.2487C398.361 88.0595 393.144 88.0595 389.967 91.2487L387.925 93.0708L386.11 91.2487C382.932 88.0595 377.713 88.0595 374.538 91.2487C371.361 94.4379 371.361 99.6751 374.538 102.864L387.925 116.302L401.538 102.864ZM403.353 81.2276C396.319 81.2276 390.193 86.4649 388.151 93.2984C385.883 90.1092 382.706 85.3271 384.294 78.4935C385.201 74.3941 388.151 70.9774 391.782 68.9276C393.824 68.0174 396.093 67.5606 398.134 67.5606H407.211C411.068 67.5606 414.018 70.5222 414.018 74.3941C414.018 78.266 411.068 81.2276 407.211 81.2276H403.353ZM406.757 118.809C409.89 118.809 412.43 116.258 412.43 113.115C412.43 109.97 409.89 107.421 406.757 107.421C403.624 107.421 401.085 109.97 401.085 113.115C401.085 116.258 403.624 118.809 406.757 118.809Z" stroke="#E7E7E7" stroke-width="2" stroke-linecap="round" stroke-linejoin="round"/>
<path d="M205.95 212.995C205.95 211.401 206.403 210.034 205.95 208.439C205.27 205.934 207.992 204.34 210.489 203.885C212.758 203.657 215.026 204.112 217.295 203.885C219.792 203.657 222.287 205.934 221.834 208.439C221.607 210.034 221.38 211.628 221.834 212.995M230.91 212.995C232.27 225.066 232.725 237.366 230.91 249.437M196.874 212.995C198.689 225.066 195.514 237.366 196.874 249.437M210.489 228.938C210.489 227.116 212.077 225.521 213.891 225.521C215.706 225.521 217.521 227.116 217.295 228.938C217.295 230.76 215.706 232.81 213.891 232.355M229.775 205.024C229.775 203.657 229.548 202.062 230.001 200.695C229.775 200.24 230.228 199.785 230.455 199.785C232.043 198.873 233.632 198.418 234.54 197.508C235.22 196.823 236.127 197.051 236.809 197.279C237.489 197.508 237.942 197.963 238.397 198.646C238.851 199.558 239.304 200.24 239.758 200.923C240.213 201.607 240.213 202.29 239.984 202.973C239.758 203.657 239.304 204.34 238.851 204.567C237.489 205.479 235.674 205.934 234.54 206.844C234.312 207.074 233.859 207.074 233.632 206.844C232.27 206.162 231.137 205.707 229.775 205.024ZM229.775 205.024C226.824 205.707 224.556 208.212 221.834 209.579M194.605 212.995C207.085 216.183 220.925 208.667 233.178 212.995C233.178 212.995 238.169 213.223 239.984 219.827C241.8 227.116 239.984 235.089 239.984 242.605C239.984 242.605 239.984 250.121 233.178 249.437C220.472 248.299 207.312 247.387 194.605 249.437C194.605 249.437 187.571 249.437 187.799 242.605C188.253 235.089 185.529 227.116 187.799 219.827C187.799 219.827 187.799 212.995 194.605 212.995ZM202.546 231.215C200.278 237.139 207.765 241.01 213.891 242.605C220.018 244.198 224.782 237.594 225.237 231.215C225.691 224.839 220.018 219.144 213.891 219.827C207.765 220.512 201.866 225.066 202.546 231.215ZM213.891 236.454C214.119 236.227 214.346 236.682 214.573 236.911C214.573 237.139 214.119 237.366 213.891 237.594C213.664 237.594 213.438 237.139 213.438 236.911C213.211 236.682 213.664 236.227 213.891 236.454Z" stroke="#E7E7E7" stroke-width="2" stroke-linecap="round" stroke-linejoin="round"/>
<path d="M205.949 212.994V208.439C205.949 205.922 207.979 203.883 210.486 203.883H217.294C219.799 203.883 221.831 205.922 221.831 208.439V212.994M230.907 212.994V249.435M196.873 212.994V249.435M210.486 228.938C210.486 227.05 212.01 225.521 213.89 225.521C215.769 225.521 217.294 227.05 217.294 228.938C217.294 230.825 215.769 232.353 213.89 232.353M229.682 204.909L221.831 209.463M194.602 212.994H233.176C233.176 212.994 239.983 212.994 239.983 219.827V242.603C239.983 242.603 239.983 249.435 233.176 249.435H194.602C194.602 249.435 187.796 249.435 187.796 242.603V219.827C187.796 219.827 187.796 212.994 194.602 212.994ZM202.545 231.215C202.545 237.504 207.624 242.603 213.89 242.603C220.154 242.603 225.235 237.504 225.235 231.215C225.235 224.925 220.154 219.827 213.89 219.827C207.624 219.827 202.545 224.925 202.545 231.215ZM213.89 236.34C214.203 236.34 214.456 236.595 214.456 236.909C214.456 237.224 214.203 237.478 213.89 237.478C213.577 237.478 213.321 237.224 213.321 236.909C213.321 236.595 213.577 236.34 213.89 236.34ZM229.976 200.695L229.772 205.022L233.561 206.912C233.895 207.094 234.295 207.094 234.627 206.912L238.735 204.635C239.352 204.282 239.804 203.696 239.986 203.007C240.171 202.317 240.071 201.584 239.711 200.967L238.395 198.69C238.092 197.999 237.515 197.467 236.803 197.224C236.09 196.981 235.309 197.051 234.651 197.415L230.543 199.692C230.179 199.89 229.961 200.279 229.976 200.695Z" stroke="#E7E7E7" stroke-width="2" stroke-linecap="round" stroke-linejoin="round"/>
</svg>
