<svg width="543" height="376" viewBox="0 0 543 376" fill="none" xmlns="http://www.w3.org/2000/svg">
<path d="M434.394 78.9509L415.233 63.3658L348.812 35.3787L389.544 68.5673L434.394 78.9509ZM348.812 35.3787L351.817 68.2031L417.584 89.7122L415.233 63.3658L348.812 35.3787ZM417.584 89.7122L409.039 84.3507L334.101 57.0109L351.817 68.2031L417.584 89.7122ZM334.101 57.0109L331.72 61.0022L392.67 109.519L409.039 84.3507L334.101 57.0109ZM392.67 109.519L406.129 115.731L355.462 71.9358L331.72 61.0022L392.67 109.519ZM355.462 71.9358L328.019 76.2936L373.703 120.867L406.129 115.731L355.462 71.9358ZM373.703 120.867L350.913 108.336L363.588 131.767L417.857 143.019L417.653 142.604L344.005 85.0848L328.019 76.2936L373.703 120.867ZM417.857 143.019L338.531 98.0474L300.162 95.7313L363.588 131.767L417.857 143.019ZM300.162 95.7313L360.927 158.186L402.695 163.893L338.531 98.0474L300.162 95.7313ZM402.695 163.893L350.071 131.709L305.01 123.951L360.927 158.186L402.695 163.893ZM305.01 123.951L344.26 167.952L378.238 163.244L350.071 131.709L305.01 123.951ZM378.238 163.244L306.052 129.776L289.799 142.634L344.26 167.952L378.238 163.244ZM289.799 142.634L353.059 194.093L373.842 185L306.052 129.776L289.799 142.634ZM373.842 185L311.193 152.962L280.01 156.773L353.059 194.093L373.842 185ZM280.01 156.773L316.866 192.672L346.93 187.708L311.193 152.962L280.01 156.773ZM346.93 187.708L299.514 164.21L312.688 190.589L316.866 192.672L346.93 187.708Z" fill="#389D2D"/>
<path d="M331.65 37.683L312.08 52.7536L269.676 110.9L311.336 78.8765L331.65 37.683ZM269.676 110.9L302.424 115.426L338.352 56.4449L312.08 52.7536L269.676 110.9ZM338.352 56.4449L331.175 63.5271L287.473 130.091L302.424 115.426L338.352 56.4449ZM287.473 130.091L290.831 133.308L352.051 85.1288L331.175 63.5271L287.473 130.091ZM352.051 85.1288L361.172 73.4691L306.898 112.734L290.831 133.308L352.051 85.1288ZM306.898 112.734L304.931 140.37L358.835 106.119L361.172 73.4691L306.898 112.734ZM358.835 106.119L341.426 125.407L367.189 118.412L390.489 68.2701L390.037 68.3733L317.144 126.84L304.931 140.37L358.835 106.119ZM390.489 68.2701L328.567 135.096L317.602 171.827L367.189 118.412L390.489 68.2701ZM317.602 171.827L392.395 126.988L407.443 87.726L328.567 135.096L317.602 171.827ZM407.443 87.726L364.067 131.524L346.269 173.519L392.395 126.988L407.443 87.726ZM346.269 173.519L398.155 145.385L401.262 111.327L364.067 131.524L346.269 173.519ZM401.262 111.327L352.196 173.827L361.072 192.525L398.155 145.385L401.262 111.327ZM361.072 192.525L425.688 142.77L421.519 120.529L352.196 173.827L361.072 192.525ZM421.519 120.529L376.012 174.094L372.663 205.237L425.688 142.77L421.519 120.529ZM372.663 205.237L416.093 177.593L418.061 147.274L376.012 174.094L372.663 205.237ZM418.061 147.274L384.353 187.986L413.11 181.176L416.093 177.593L418.061 147.274Z" fill="#389D2D"/>
<path d="M540.053 376C538.386 371.013 541.721 364.365 540.053 359.378C536.719 346.081 536.719 329.459 523.382 326.135C498.373 312.838 446.689 244.688 356.659 276.27M356.659 276.27C266.629 307.851 206.608 304.526 189.936 326.135C183.267 337.77 173.263 346.081 173.263 359.378C173.263 364.365 171.596 371.013 173.263 376M356.659 276.27C364.995 301.203 376.665 326.135 381.667 351.068M356.659 276.27C346.655 301.203 346.655 329.459 331.65 351.068M445.022 287.906C415.011 317.824 383.334 344.419 356.659 376C334.984 339.432 286.635 324.473 268.296 287.906M251.623 292.891C243.287 311.175 231.617 331.122 231.617 351.068C246.621 361.041 263.294 372.675 281.633 376M461.694 292.891C471.697 311.175 478.367 331.122 481.701 351.068C465.028 357.716 450.023 372.675 431.683 376M390.003 243.026C368.329 249.675 344.988 236.378 323.314 243.026M490.037 110.053C485.035 108.391 478.367 110.053 473.364 110.053M223.281 110.053C228.282 110.053 234.951 111.716 239.953 110.053M473.364 193.161C468.362 188.175 461.694 183.188 456.692 176.539M239.953 193.161C243.287 186.513 253.29 183.188 256.625 176.539M431.683 118.364C436.686 81.7957 405.008 40.2419 368.329 43.5662C331.65 46.8906 283.301 58.5258 284.968 95.0939C286.635 131.661 286.635 179.864 323.314 184.851C324.981 189.837 323.314 196.486 323.314 201.472C323.314 206.459 326.648 211.445 331.65 209.783C346.655 204.797 364.995 214.77 381.667 209.783C386.668 208.121 388.335 206.459 390.003 201.472C391.671 196.486 391.671 189.837 390.003 184.851C415.011 171.553 435.019 146.62 431.683 118.364Z" stroke="#484848" stroke-width="4" stroke-linecap="round" stroke-linejoin="round"/>
<path d="M540.046 376V359.378C540.248 346.252 534.028 333.85 523.374 326.135C501.116 309.198 452.183 276.27 356.651 276.27M356.651 276.27C261.118 276.27 212.185 309.198 189.929 326.135C179.274 333.85 173.055 346.252 173.256 359.378V376M356.651 276.27L381.659 351.067M356.651 276.27L331.643 351.067M445.381 287.539L356.651 376L267.921 287.539M251.048 292.908L231.609 351.067L281.626 376M462.253 292.908L481.693 351.067L431.676 376M389.995 243.026H323.307M490.029 110.052H473.356M223.272 110.052H239.945M473.356 193.161L456.685 176.539M239.945 193.161L256.617 176.539M262.377 44.1608L278.572 56.2252M431.676 118.364C431.833 81.4306 404.928 49.912 368.334 44.1608C331.74 38.4097 296.414 60.1481 285.167 95.3386C273.92 130.528 290.121 168.635 323.307 185.049V201.472C323.307 206.062 327.039 209.783 331.643 209.783H381.659C386.264 209.783 389.995 206.062 389.995 201.472V185.049C415.46 172.511 431.607 146.679 431.676 118.364Z" stroke="#484848" stroke-width="4" stroke-linecap="round" stroke-linejoin="round"/>
<path fill-rule="evenodd" clip-rule="evenodd" d="M99.7721 89.4293C107.097 89.4293 113.856 87.0731 119.296 83.0947C121.644 84.3144 124.314 85.0046 127.146 85.0046C136.544 85.0046 144.162 77.4092 144.162 68.0397C144.162 63.6348 142.479 59.6223 139.717 56.6067C143.326 53.7702 145.642 49.3732 145.642 44.4367C145.642 40.8671 144.431 37.5796 142.396 34.9602C142.585 33.7219 142.682 32.4528 142.682 31.1602C142.682 17.7173 132.084 6.81966 119.008 6.81966C117.542 6.81966 116.108 6.95664 114.716 7.21874C110.147 3.29879 104.137 0.918945 97.5525 0.918945C90.7945 0.918945 84.6415 3.42621 80.0303 7.53246C78.5554 7.06943 76.9859 6.81966 75.358 6.81966C66.7771 6.81966 59.8212 13.7545 59.8212 22.3091C59.8212 26.1035 61.19 29.5792 63.4612 32.2725C61.1747 35.4638 59.8212 39.4176 59.8212 43.6992C59.8212 47.0944 60.6719 50.2837 62.165 53.05C58.873 56.6004 56.8618 61.3484 56.8618 66.5648C56.8618 77.5631 65.805 86.4795 76.8377 86.4795C79.237 86.4795 81.5378 86.057 83.6694 85.2837C88.4182 87.9219 93.9144 89.4293 99.7721 89.4293Z" fill="#389D2D"/>
<path fill-rule="evenodd" clip-rule="evenodd" d="M166.429 96.6892C166.429 103.206 161.13 108.49 154.591 108.49C148.054 108.49 142.754 103.206 142.754 96.6892C142.754 90.1711 148.054 84.8879 154.591 84.8879C161.13 84.8879 166.429 90.1711 166.429 96.6892Z" fill="#389D2D"/>
<path fill-rule="evenodd" clip-rule="evenodd" d="M184.565 116.43C184.565 120.1 181.81 123.074 178.413 123.074C175.016 123.074 172.262 120.1 172.262 116.43C172.262 112.76 175.016 109.787 178.413 109.787C181.81 109.787 184.565 112.76 184.565 116.43Z" fill="#389D2D"/>
<path fill-rule="evenodd" clip-rule="evenodd" d="M97.0203 92.1162C104.271 91.0839 111.226 89.9034 116.553 85.7731C118.919 86.8054 121.732 88.5757 124.395 87.6905C133.42 84.8879 143.778 79.7243 141.411 70.7256C140.227 66.4481 140.079 62.0225 136.972 59.2197C139.783 55.6792 143.038 51.9913 142.89 47.1233C142.743 43.5828 142.003 39.8948 139.635 37.6821C139.783 36.3544 140.227 35.1742 139.931 33.8466C137.119 20.7176 129.277 9.65368 116.256 9.50619C114.777 9.50619 113.445 9.80117 111.965 9.94876C107.97 5.37566 101.459 3.60547 94.8007 3.60547C87.9949 3.60547 81.0399 5.22816 77.3407 10.2437C75.861 9.65368 74.2341 9.21111 72.6062 9.50619C64.1716 10.8338 57.2176 16.4395 57.0694 24.9956C57.0694 28.831 58.1056 32.519 60.7687 35.0267C57.9574 37.6821 58.1056 42.2552 57.0694 46.3856C56.3296 49.631 57.5139 53.319 59.4371 55.6792C56.0342 59.2197 54.7017 64.0878 54.11 69.2507C52.7785 80.1668 63.1364 87.8377 74.0859 89.1655C76.4536 89.4608 78.8204 88.5757 80.8927 87.9859C85.9235 90.1988 91.1024 92.2635 97.0203 92.1162Z" stroke="#484848" stroke-width="2" stroke-linecap="round" stroke-linejoin="round"/>
<path fill-rule="evenodd" clip-rule="evenodd" d="M97.0201 92.1162C104.345 92.1162 111.105 89.7591 116.544 85.7817C118.892 87.0014 121.562 87.6905 124.394 87.6905C133.792 87.6905 141.41 80.0951 141.41 70.7256C141.41 66.321 139.727 62.3087 136.966 59.2932C140.574 56.4567 142.89 52.0596 142.89 47.1233C142.89 43.5536 141.679 40.266 139.644 37.6467C139.833 36.4085 139.93 35.1393 139.93 33.8466C139.93 20.4037 129.332 9.50619 116.256 9.50619C114.791 9.50619 113.356 9.64307 111.964 9.90517C107.395 5.98522 101.385 3.60547 94.8006 3.60547C88.0425 3.60547 81.8895 6.11264 77.2784 10.219C75.8035 9.75596 74.2339 9.50619 72.6061 9.50619C64.0252 9.50619 57.0693 16.441 57.0693 24.9956C57.0693 28.79 58.4381 32.2657 60.7092 34.9591C58.4228 38.1504 57.0693 42.104 57.0693 46.3856C57.0693 49.7809 57.92 52.9703 59.4131 55.7365C56.121 59.287 54.1099 64.0348 54.1099 69.2507C54.1099 80.25 63.053 89.1655 74.0858 89.1655C76.485 89.1655 78.7868 88.7439 80.9174 87.9706C85.6662 90.6088 91.1625 92.1162 97.0201 92.1162Z" stroke="#484848" stroke-width="2" stroke-linecap="round" stroke-linejoin="round"/>
<path fill-rule="evenodd" clip-rule="evenodd" d="M169.796 93.3302C169.796 99.8483 164.497 105.131 157.96 105.131C151.421 105.131 146.122 99.8483 146.122 93.3302C146.122 86.813 151.421 81.5289 157.96 81.5289C164.497 81.5289 169.796 86.813 169.796 93.3302Z" stroke="#484848" stroke-width="2" stroke-linecap="round" stroke-linejoin="round"/>
<path fill-rule="evenodd" clip-rule="evenodd" d="M189.276 113.965C189.276 117.351 186.523 120.097 183.125 120.097C179.728 120.097 176.973 117.351 176.973 113.965C176.973 110.577 179.728 107.832 183.125 107.832C186.523 107.832 189.276 110.577 189.276 113.965Z" stroke="#484848" stroke-width="2" stroke-linecap="round" stroke-linejoin="round"/>
<path d="M89.1752 54.5037C89.1752 55.8314 89.397 57.3803 89.1752 58.9292M111.148 63.1335C114.034 60.9208 116.253 58.0441 118.695 55.6101C119.583 54.725 121.358 54.2824 121.802 55.6101C122.246 56.0527 123.134 56.4951 123.355 57.159M115.587 58.9292C116.253 60.0356 117.363 60.9208 118.473 61.8058M102.27 57.3803C105.156 54.0611 105.377 49.193 102.27 46.0952C99.3849 42.776 94.9458 44.1037 90.9512 46.0952C90.5067 46.759 89.8415 47.4228 88.9535 47.8654C88.509 46.9803 87.6219 46.759 87.1774 46.0952C85.4024 42.1122 79.8535 44.1037 75.858 46.0952C71.8633 47.8654 72.3069 54.725 75.858 57.3803C80.9633 60.6995 83.4046 67.7806 88.9535 70.436C94.0578 66.6737 98.2752 62.0271 102.27 57.3803ZM104.046 36.359C97.1654 36.1378 88.9534 41.0058 89.1752 48.0867C86.0677 45.8739 86.2894 40.342 85.4024 33.7037C86.7339 29.7207 88.7317 25.0739 92.7263 24.1887C94.5023 23.0824 97.1654 23.525 98.9414 23.0824C101.826 21.976 104.934 23.7463 107.819 23.0824C111.592 21.976 115.143 25.959 114.477 29.7207C114.034 33.2611 111.592 35.6952 107.819 36.359C106.709 36.359 105.377 36.1378 104.046 36.359ZM107.375 72.8697C110.261 73.7548 112.479 70.2143 112.924 67.338C113.589 64.2398 110.483 62.0271 107.375 61.8058C104.268 61.3632 102.27 64.2398 101.826 67.338C101.604 70.2143 104.268 72.4271 107.375 72.8697Z" stroke="#F9F9F9" stroke-width="2" stroke-linecap="round" stroke-linejoin="round"/>
<path d="M89.2334 54.3908V58.8164M111.206 63.0206L118.753 55.4972C119.641 54.612 120.972 54.612 121.86 55.4972L123.414 57.0461M115.645 58.8164L118.531 61.6929M102.328 57.2674C105.435 54.1695 105.435 49.0802 102.328 45.9823C99.2213 42.8844 94.116 42.8844 91.0084 45.9823L89.0116 47.7525L87.2356 45.9823C84.128 42.8844 79.0237 42.8844 75.9161 45.9823C72.8086 49.0802 72.8086 54.1695 75.9161 57.2674L89.0116 70.3223L102.328 57.2674ZM104.104 36.2461C97.2236 36.2461 91.2312 41.3355 89.2334 47.9738C87.0138 44.8759 83.9063 40.2291 85.4605 33.5908C86.3476 29.6078 89.2334 26.2886 92.7845 24.2971C94.7822 23.4121 97.0018 22.9695 98.9996 22.9695H107.877C111.651 22.9695 114.535 25.8461 114.535 29.6078C114.535 33.3695 111.651 36.2461 107.877 36.2461H104.104ZM107.433 72.7569C110.498 72.7569 112.982 70.2803 112.982 67.2253C112.982 64.1697 110.498 61.6929 107.433 61.6929C104.369 61.6929 101.884 64.1697 101.884 67.2253C101.884 70.2803 104.369 72.7569 107.433 72.7569Z" stroke="#F9F9F9" stroke-width="2" stroke-linecap="round" stroke-linejoin="round"/>
<path fill-rule="evenodd" clip-rule="evenodd" d="M84.0019 138.702C82.3368 138.062 80.5292 137.711 78.6385 137.711C70.3969 137.711 63.7154 144.373 63.7154 152.59C63.7154 153.882 63.8807 155.135 64.1914 156.331C60.3555 160.819 58.0308 166.698 58.0308 173.134C58.0308 181.198 61.6793 188.387 67.3754 193.061C66.8459 194.587 66.5581 196.225 66.5581 197.931C66.5581 206.147 73.2387 212.809 81.4813 212.809C82.6035 212.809 83.6979 212.685 84.7494 212.45C88.3789 216.16 93.531 218.476 99.2462 218.476C105.644 218.476 111.336 215.573 114.976 211.064C117.227 213.033 120.178 214.226 123.408 214.226C130.472 214.226 136.198 208.516 136.198 201.473C136.198 200.253 136.027 199.074 135.706 197.957C140.437 192.468 143.304 185.268 143.304 177.385C143.304 171.24 141.561 165.509 138.552 160.681C138.872 159.215 139.041 157.693 139.041 156.131C139.041 144.393 129.497 134.877 117.722 134.877C115.18 134.877 112.74 135.322 110.48 136.136C107.124 134.427 103.302 133.461 99.2462 133.461C93.466 133.461 88.16 135.425 84.0019 138.702Z" fill="#389D2D"/>
<path fill-rule="evenodd" clip-rule="evenodd" d="M176.667 194.935C181.045 199.421 180.947 206.6 176.448 210.969C171.948 215.338 164.751 215.244 160.374 210.758C155.997 206.272 156.094 199.093 160.593 194.724C165.093 190.354 172.289 190.449 176.667 194.935Z" fill="#389D2D"/>
<path fill-rule="evenodd" clip-rule="evenodd" d="M191.533 215.195C193.788 217.505 193.738 221.203 191.421 223.453C189.103 225.703 185.397 225.655 183.142 223.344C180.887 221.033 180.937 217.336 183.255 215.086C185.572 212.836 189.278 212.884 191.533 215.195Z" fill="#389D2D"/>
<path fill-rule="evenodd" clip-rule="evenodd" d="M82.9957 141.206C81.7167 139.93 79.4427 140.355 77.595 140.214C69.3515 139.93 64.5196 147.015 62.6719 155.091C62.388 156.367 62.6719 157.642 63.0982 158.775C58.6925 162.743 57.6975 169.261 56.9873 175.637C56.1346 183.714 59.6876 192.357 66.3673 195.616C65.9409 197.175 65.5146 198.733 65.5146 200.433C65.2298 208.652 72.1943 216.303 80.4378 215.311C81.5743 215.169 82.5694 214.886 83.7059 214.886C88.3964 217.295 92.5181 221.687 98.2027 220.979C104.598 220.129 110.142 217.862 113.979 213.611C116.395 215.311 119.095 216.728 122.364 216.728C129.47 216.728 136.86 210.777 135.155 203.976C134.871 202.842 135.155 201.567 134.729 200.433C139.277 194.907 144.82 187.398 142.261 179.888C140.272 174.079 141.408 167.278 137.571 163.168C138.282 161.893 137.571 160.051 137.998 158.634C141.408 147.44 128.333 135.538 116.679 137.38C114.121 137.805 111.847 138.655 109.43 138.655C106.873 135.822 102.041 134.83 98.2027 135.963C92.6605 137.521 86.2648 137.097 82.9957 141.206Z" stroke="#484848" stroke-width="2" stroke-linecap="round" stroke-linejoin="round"/>
<path fill-rule="evenodd" clip-rule="evenodd" d="M82.9521 141.203C81.2879 140.564 79.4794 140.213 77.5887 140.213C69.3471 140.213 62.6656 146.875 62.6656 155.091C62.6656 156.384 62.8309 157.638 63.1416 158.833C59.3056 163.321 56.981 169.2 56.981 175.637C56.981 183.7 60.6295 190.889 66.3266 195.562C65.796 197.089 65.5083 198.727 65.5083 200.432C65.5083 208.65 72.1899 215.311 80.4315 215.311C81.5546 215.311 82.6481 215.187 83.7006 214.952C87.3291 218.662 92.4822 220.978 98.1974 220.978C104.594 220.978 110.287 218.076 113.926 213.565C116.178 215.534 119.128 216.727 122.358 216.727C129.422 216.727 135.149 211.018 135.149 203.975C135.149 202.756 134.978 201.577 134.656 200.459C139.387 194.971 142.256 187.771 142.256 179.888C142.256 173.741 140.512 168.011 137.502 163.183C137.823 161.718 137.991 160.195 137.991 158.634C137.991 146.896 128.447 137.38 116.673 137.38C114.13 137.38 111.691 137.823 109.43 138.638C106.074 136.93 102.252 135.962 98.1974 135.962C92.4162 135.962 87.1102 137.927 82.9521 141.203Z" stroke="#484848" stroke-width="2" stroke-linecap="round" stroke-linejoin="round"/>
<path fill-rule="evenodd" clip-rule="evenodd" d="M180.607 224.577C182.51 227.106 186.762 225.547 188.612 223.008C190.461 220.469 189.112 217.367 186.891 215.055C184.671 212.745 180.19 213.727 178.888 216.625C177.585 219.522 178.13 222.525 180.607 224.577Z" stroke="#484848" stroke-width="2" stroke-linecap="round" stroke-linejoin="round"/>
<path fill-rule="evenodd" clip-rule="evenodd" d="M159.017 212.032C164.257 215.472 171.306 214.017 174.76 208.783C178.215 203.549 176.767 196.516 171.528 193.076C166.288 189.637 159.239 191.092 155.784 196.326C152.33 201.56 153.777 208.593 159.017 212.032Z" stroke="#484848" stroke-width="2" stroke-linecap="round" stroke-linejoin="round"/>
<path d="M92.3478 163.199C92.3478 161.711 92.7741 160.436 92.3478 158.948C91.7083 156.61 94.2663 155.122 96.612 154.697C98.7436 154.484 100.875 154.91 103.008 154.697C105.353 154.484 107.697 156.61 107.271 158.948C107.058 160.436 106.845 161.923 107.271 163.199M115.798 163.199C117.077 174.463 117.504 185.94 115.798 197.205M83.8205 163.199C85.5257 174.463 82.5415 185.94 83.8205 197.205M96.612 178.076C96.612 176.376 98.1041 174.888 99.8094 174.888C101.515 174.888 103.221 176.376 103.008 178.076C103.008 179.777 101.515 181.689 99.8094 181.264M114.733 155.759C114.733 154.484 114.519 152.997 114.946 151.722C114.733 151.296 115.159 150.871 115.372 150.871C116.864 150.021 118.356 149.596 119.21 148.746C119.849 148.109 120.702 148.321 121.341 148.533C121.981 148.746 122.407 149.171 122.834 149.808C123.26 150.659 123.686 151.296 124.113 151.934C124.539 152.572 124.539 153.209 124.326 153.847C124.113 154.484 123.686 155.122 123.26 155.335C121.981 156.185 120.276 156.61 119.21 157.46C118.997 157.672 118.57 157.672 118.356 157.46C117.077 156.822 116.011 156.397 114.733 155.759ZM114.733 155.759C111.961 156.397 109.829 158.735 107.271 160.01M81.6889 163.199C93.4136 166.174 106.418 159.16 117.93 163.199C117.93 163.199 122.62 163.411 124.326 169.575C126.031 176.376 124.326 183.814 124.326 190.829C124.326 190.829 124.326 197.843 117.93 197.205C105.992 196.142 93.6268 195.292 81.6889 197.205C81.6889 197.205 75.0799 197.205 75.2931 190.829C75.7194 183.814 73.1615 176.376 75.2931 169.575C75.2931 169.575 75.2931 163.199 81.6889 163.199ZM89.1504 180.202C87.0188 185.728 94.0531 189.341 99.8094 190.829C105.566 192.316 110.042 186.152 110.468 180.202C110.896 174.251 105.566 168.937 99.8094 169.575C94.0531 170.212 88.5109 174.463 89.1504 180.202ZM99.8094 185.09C100.023 184.877 100.236 185.303 100.449 185.515C100.449 185.728 100.023 185.94 99.8094 186.152C99.5962 186.152 99.3831 185.728 99.3831 185.515C99.1699 185.303 99.5962 184.877 99.8094 185.09Z" stroke="#F9F9F9" stroke-width="2" stroke-linecap="round" stroke-linejoin="round"/>
<path d="M92.3462 163.198V158.947C92.3462 156.599 94.2551 154.697 96.6104 154.697H103.006C105.36 154.697 107.269 156.599 107.269 158.947V163.198M115.797 163.198V197.204M83.8189 163.198V197.204M96.6104 178.075C96.6104 176.315 98.0423 174.888 99.8078 174.888C101.574 174.888 103.006 176.315 103.006 178.075C103.006 179.836 101.574 181.263 99.8078 181.263M114.646 155.652L107.269 159.903M81.6873 163.198H117.929C117.929 163.198 124.324 163.198 124.324 169.574V190.828C124.324 190.828 124.324 197.204 117.929 197.204H81.6873C81.6873 197.204 75.2915 197.204 75.2915 190.828V169.574C75.2915 169.574 75.2915 163.198 81.6873 163.198ZM89.1488 180.201C89.1488 186.07 93.9215 190.828 99.8078 190.828C105.695 190.828 110.468 186.07 110.468 180.201C110.468 174.331 105.695 169.574 99.8078 169.574C93.9215 169.574 89.1488 174.331 89.1488 180.201ZM99.8078 184.983C100.102 184.983 100.341 185.221 100.341 185.514C100.341 185.807 100.102 186.045 99.8078 186.045C99.5134 186.045 99.2754 185.807 99.2754 185.514C99.2754 185.221 99.5134 184.983 99.8078 184.983ZM114.923 151.721L114.731 155.759L118.292 157.523C118.603 157.693 118.981 157.693 119.293 157.523L123.152 155.397C123.732 155.068 124.156 154.521 124.328 153.877C124.501 153.235 124.407 152.55 124.069 151.975L122.832 149.85C122.548 149.205 122.006 148.708 121.337 148.481C120.668 148.256 119.934 148.32 119.314 148.66L115.456 150.785C115.114 150.971 114.908 151.333 114.923 151.721Z" stroke="#F9F9F9" stroke-width="2" stroke-linecap="round" stroke-linejoin="round"/>
<path fill-rule="evenodd" clip-rule="evenodd" d="M15.1656 248.974C15.1202 248.974 15.075 248.974 15.0297 248.974C6.98573 248.974 0.464844 255.502 0.464844 263.556C0.464844 267.824 2.29697 271.664 5.21698 274.331C4.83081 275.998 4.62625 277.738 4.62625 279.526C4.62625 280.561 4.69459 281.579 4.82708 282.576C2.94429 285.5 1.85201 288.982 1.85201 292.719C1.85201 303.074 10.2361 311.468 20.5782 311.468C21.0588 311.468 21.5353 311.45 22.0068 311.414C27.0588 316.582 34.1838 319.801 42.0787 319.801C49.9047 319.801 56.9724 316.638 62.0166 311.551C63.7477 312.387 65.689 312.857 67.7404 312.857C75.0184 312.857 80.9181 306.95 80.9181 299.664C80.9181 295.676 79.1506 292.101 76.3576 289.682C80.8454 285.733 83.693 279.849 83.693 273.277C83.693 267.617 81.5814 262.468 78.1298 258.626C78.1393 258.419 78.1441 258.21 78.1441 258C78.1441 250.713 72.2444 244.807 64.9664 244.807C64.1625 244.807 63.3758 244.879 62.6111 245.017C56.895 239.722 49.1807 236.475 40.6916 236.475C30.2534 236.475 20.9862 241.384 15.1656 248.974Z" fill="#389D2D"/>
<path fill-rule="evenodd" clip-rule="evenodd" d="M92.7497 316.618C96.2042 321.679 103.117 322.988 108.189 319.543C113.261 316.099 114.571 309.204 111.116 304.144C107.661 299.083 100.748 297.774 95.6766 301.218C90.6047 304.663 89.2942 311.558 92.7497 316.618Z" fill="#389D2D"/>
<path fill-rule="evenodd" clip-rule="evenodd" d="M126.422 322.364C128.631 325.6 133.052 326.437 136.295 324.235C139.538 322.031 140.376 317.623 138.167 314.387C135.958 311.15 131.537 310.313 128.293 312.516C125.05 314.719 124.213 319.128 126.422 322.364Z" fill="#389D2D"/>
<path fill-rule="evenodd" clip-rule="evenodd" d="M18.3669 248.91C18.3214 248.91 18.2761 248.91 18.2307 248.91C10.1739 248.91 3.64258 255.421 3.64258 263.453C3.64258 267.711 5.47767 271.542 8.40236 274.201C8.01552 275.863 7.81058 277.598 7.81058 279.382C7.81058 280.414 7.87912 281.429 8.01179 282.423C6.12604 285.34 5.03194 288.814 5.03194 292.541C5.03194 302.869 13.4294 311.24 23.788 311.24C24.2695 311.24 24.7467 311.222 25.219 311.187C30.2791 316.34 37.4153 319.551 45.3229 319.551C53.1606 319.551 60.2408 316.396 65.2926 311.322C67.0265 312.157 68.9708 312.625 71.0259 312.625C78.3154 312.625 84.2246 306.734 84.2246 299.467C84.2246 295.489 82.4544 291.924 79.6565 289.511C84.152 285.573 87.0034 279.704 87.0034 273.15C87.0034 267.504 84.889 262.369 81.4316 258.536C81.4411 258.33 81.4459 258.122 81.4459 257.913C81.4459 250.645 75.5367 244.754 68.2472 244.754C67.4423 244.754 66.6537 244.826 65.8881 244.964C60.1633 239.682 52.436 236.443 43.9335 236.443C33.4787 236.443 24.1967 241.34 18.3669 248.91Z" stroke="#484848" stroke-width="2" stroke-linecap="round" stroke-linejoin="round"/>
<path fill-rule="evenodd" clip-rule="evenodd" d="M126.641 315.794C128.009 319.231 129.806 323.337 133.487 322.499C137.166 321.661 140.845 319.482 140.332 315.794C139.818 312.107 137.08 308.001 133.487 309.091C129.893 310.179 128.009 312.359 126.641 315.794Z" stroke="#484848" stroke-width="2" stroke-linecap="round" stroke-linejoin="round"/>
<path fill-rule="evenodd" clip-rule="evenodd" d="M95.6137 312.435C99.0672 317.494 105.979 318.8 111.053 315.353C116.127 311.907 117.44 305.012 113.988 299.953C110.534 294.896 103.622 293.589 98.5482 297.035C93.4744 300.482 92.161 307.377 95.6137 312.435Z" stroke="#484848" stroke-width="2" stroke-linecap="round" stroke-linejoin="round"/>
<path d="M50.6409 284.229C59.6023 286.306 65.8537 288.8 66.2705 292.748C66.8956 297.734 55.4337 303.551 42.3045 301.889C29.1753 300.228 18.13 297.734 18.3384 292.748C18.3384 288.8 25.0072 286.306 33.9684 284.229M50.6409 289.423C55.2253 291.501 58.7678 291.293 58.9771 292.748C59.1855 294.825 51.4745 297.942 42.3045 296.695C33.1349 295.657 25.8408 295.034 25.6324 292.748C25.4241 291.293 29.1753 291.293 33.9684 289.423M45.4306 292.54C45.8474 288.8 45.0138 284.645 46.2642 281.113C47.3062 281.321 48.5566 280.905 49.599 281.113C50.0158 279.035 50.2242 276.957 49.599 274.88C48.5566 270.932 46.0558 268.854 42.3045 267.608C38.5533 266.361 35.0105 270.932 35.0105 274.88C35.0105 276.957 35.8441 279.242 35.0105 281.113C36.0525 281.321 37.3029 280.697 38.3449 281.113C39.3869 284.852 39.8037 288.8 39.1786 292.54M36.6777 259.92C36.8861 263.037 39.1785 266.361 42.3045 265.53C45.4305 264.699 47.723 263.037 48.1398 259.92C48.3482 256.596 45.2222 255.142 42.3045 254.103C39.3869 253.064 37.3029 256.803 36.6777 259.92Z" stroke="#F9F9F9" stroke-width="2" stroke-linecap="round" stroke-linejoin="round"/>
<path d="M50.638 284.23C59.7657 285.519 66.2676 288.863 66.2676 292.77C66.2676 297.819 55.535 301.891 42.3017 301.891C29.0681 301.891 18.3354 297.819 18.3354 292.77C18.3354 288.863 24.8376 285.519 33.9656 284.23M50.638 289.424C55.6182 290.11 58.9733 291.377 58.9733 292.832C58.9733 294.909 51.5127 296.759 42.3017 296.759C33.0903 296.759 25.6296 294.992 25.6296 292.832C25.6296 291.377 28.9848 290.11 33.9656 289.424M45.4277 292.541L46.3029 281.114H49.5961V274.881C49.5961 270.864 46.33 267.608 42.3017 267.608C38.2732 267.608 35.0076 270.864 35.0076 274.881V281.114H38.3004L39.1756 292.541M36.5706 259.817C36.5706 262.973 39.1365 265.531 42.3017 265.531C45.4668 265.531 48.0327 262.973 48.0327 259.817C48.0327 256.662 45.4668 254.104 42.3017 254.104C39.1365 254.104 36.5706 256.662 36.5706 259.817Z" stroke="#F9F9F9" stroke-width="2" stroke-linecap="round" stroke-linejoin="round"/>
</svg>
