<svg width="450" height="276" fill="none" xmlns="http://www.w3.org/2000/svg"><path fill-rule="evenodd" clip-rule="evenodd" d="M16.006 61.002c-.05-.002-.099-.002-.148-.002C7.1 61 0 68.158 0 76.985c0 4.68 1.995 8.89 5.173 11.815a25.588 25.588 0 0 0-.425 9.036 20.59 20.59 0 0 0-3.237 11.121c0 11.351 9.127 20.552 20.387 20.552.524 0 1.042-.019 1.556-.058 5.5 5.664 13.258 9.192 21.854 9.192 8.52 0 16.215-3.466 21.707-9.042 1.884.917 3.999 1.431 6.232 1.431 7.924 0 14.348-6.475 14.348-14.463a14.48 14.48 0 0 0-4.966-10.942c4.886-4.329 7.986-10.78 7.986-17.984 0-6.205-2.3-11.85-6.057-16.061.01-.228.015-.455.015-.686 0-7.987-6.423-14.462-14.347-14.462-.875 0-1.73.078-2.563.23-6.224-5.805-14.624-9.365-23.866-9.365-11.365 0-21.454 5.382-27.791 13.703zm141.06-4.568c0-3.364-2.705-6.09-6.041-6.09-3.336 0-6.041 2.726-6.041 6.09 0 3.362 2.705 6.09 6.041 6.09 3.336 0 6.041-2.728 6.041-6.09zM190.748 186.741a15.77 15.77 0 0 0-5.708-1.061c-8.771 0-15.882 7.139-15.882 15.944 0 1.384.176 2.729.506 4.01-4.082 4.809-6.557 11.109-6.557 18.007 0 8.641 3.884 16.345 9.946 21.353a15.985 15.985 0 0 0-.87 5.219c0 8.805 7.11 15.944 15.882 15.944 1.196 0 2.36-.132 3.48-.384 3.862 3.976 9.347 6.457 15.429 6.457 6.809 0 12.867-3.11 16.741-7.944a13.531 13.531 0 0 0 8.975 3.389c7.518 0 13.613-6.118 13.613-13.665 0-1.308-.183-2.571-.524-3.768 5.034-5.883 8.088-13.598 8.088-22.046 0-6.586-1.856-12.726-5.06-17.901.342-1.571.521-3.203.521-4.875 0-12.579-10.159-22.777-22.69-22.777a22.57 22.57 0 0 0-7.709 1.349 26.141 26.141 0 0 0-11.955-2.867c-6.151 0-11.8 2.104-16.226 5.616zm23.789-66.353c0-3.354-2.708-6.073-6.049-6.073-3.343 0-6.052 2.719-6.052 6.073 0 3.354 2.709 6.074 6.052 6.074 3.341 0 6.049-2.72 6.049-6.074zM196.4 153.791c0 6.71 5.417 12.149 12.101 12.149 6.683 0 12.101-5.439 12.101-12.149 0-6.708-5.418-12.147-12.101-12.147-6.684 0-12.101 5.439-12.101 12.147zM403.107 138.076c7.487 0 14.398-2.427 19.959-6.521a17.247 17.247 0 0 0 8.025 1.965c9.608 0 17.395-7.817 17.395-17.461a17.44 17.44 0 0 0-4.542-11.768A15.938 15.938 0 0 0 450 91.765c0-3.675-1.238-7.06-3.319-9.755a26.13 26.13 0 0 0 .292-3.912c0-13.837-10.835-25.054-24.202-25.054-1.498 0-2.964.141-4.388.411-4.671-4.035-10.814-6.485-17.545-6.485-6.909 0-13.199 2.581-17.912 6.808a15.815 15.815 0 0 0-4.778-.734c-8.771 0-15.883 7.138-15.883 15.943a15.92 15.92 0 0 0 3.722 10.257c-2.338 3.284-3.722 7.353-3.722 11.76 0 3.495.871 6.78 2.397 9.625a20.473 20.473 0 0 0-5.422 13.912c0 11.32 9.142 20.499 20.421 20.499a20.32 20.32 0 0 0 6.985-1.231c4.854 2.715 10.474 4.267 16.461 4.267zm-98.322-81.995c0-3.354-2.709-6.073-6.052-6.073-3.341 0-6.049 2.719-6.049 6.073 0 3.354 2.708 6.074 6.049 6.074 3.343 0 6.052-2.72 6.052-6.074zM319.911 65.195c0 6.708 5.417 12.147 12.101 12.147 6.683 0 12.101-5.44 12.101-12.147 0-6.71-5.418-12.149-12.101-12.149-6.684 0-12.101 5.44-12.101 12.149zM99.31 67.701c0 6.71 5.419 12.148 12.101 12.148 6.684 0 12.101-5.438 12.101-12.148 0-6.707-5.417-12.147-12.101-12.147-6.682 0-12.1 5.44-12.1 12.147z" fill="#389D2D"/><path clip-rule="evenodd" d="M196.195 189.43c-1.361-1.366-3.782-.911-5.748-1.062-8.773-.304-13.916 7.287-15.884 15.943-.301 1.367 0 2.734.455 3.948-4.689 4.251-5.748 11.235-6.504 18.069-.909 8.656 2.874 17.918 9.982 21.411-.453 1.669-.906 3.34-.906 5.162-.303 8.807 7.108 17.006 15.882 15.943 1.211-.151 2.268-.455 3.48-.455 4.99 2.581 9.377 7.288 15.428 6.529 6.808-.912 12.707-3.34 16.791-7.896 2.571 1.822 5.446 3.34 8.924 3.34 7.563 0 15.43-6.377 13.615-13.665-.303-1.215 0-2.582-.455-3.796 4.842-5.923 10.741-13.969 8.017-22.017-2.116-6.225-.907-13.514-4.991-17.917.757-1.368 0-3.341.454-4.861 3.63-11.994-10.286-24.749-22.69-22.776-2.724.457-5.143 1.367-7.714 1.367-2.724-3.036-7.867-4.099-11.951-2.885-5.899 1.671-12.706 1.214-16.185 5.618zm23.749-66.356c.303-3.34-2.724-5.617-6.051-6.072-3.328-.455-6.656 2.732-6.05 6.072.604 3.342 2.722 5.467 6.05 6.075 3.327.608 6.958-2.885 6.051-6.075z" stroke="#484848" stroke-width="2" stroke-linecap="round" stroke-linejoin="round"/><path clip-rule="evenodd" d="M196.154 189.428a15.77 15.77 0 0 0-5.708-1.062c-8.772 0-15.882 7.14-15.882 15.945 0 1.384.175 2.729.505 4.009-4.082 4.809-6.557 11.11-6.557 18.008 0 8.64 3.884 16.345 9.948 21.353a15.949 15.949 0 0 0-.872 5.218c0 8.806 7.112 15.945 15.884 15.945a15.89 15.89 0 0 0 3.478-.384c3.864 3.975 9.347 6.456 15.431 6.456 6.807 0 12.867-3.109 16.741-7.942a13.533 13.533 0 0 0 8.973 3.388c7.518 0 13.613-6.119 13.613-13.665 0-1.308-.182-2.571-.524-3.769 5.035-5.882 8.088-13.597 8.088-22.046 0-6.585-1.856-12.726-5.058-17.9.34-1.571.519-3.203.519-4.876 0-12.578-10.157-22.776-22.689-22.776-2.705 0-5.302.476-7.708 1.348a26.16 26.16 0 0 0-11.955-2.866c-6.153 0-11.8 2.104-16.227 5.616zm23.79-66.354c0-3.354-2.71-6.072-6.051-6.072s-6.051 2.718-6.051 6.072 2.71 6.075 6.051 6.075 6.051-2.721 6.051-6.075zM201.786 156.478c-2.268 6.225 5.446 11.843 12.101 12.147 6.657.304 10.589-5.618 12.103-12.147 1.512-6.53-5.446-13.21-12.103-12.147-6.655 1.063-11.344 5.466-12.101 12.147z" stroke="#484848" stroke-width="2" stroke-linecap="round" stroke-linejoin="round"/><path clip-rule="evenodd" d="M201.778 156.481c0 6.71 5.419 12.149 12.103 12.149 6.682 0 12.101-5.439 12.101-12.149 0-6.708-5.419-12.147-12.101-12.147-6.684 0-12.103 5.439-12.103 12.147zM396.101 138.737c7.412-1.063 14.522-2.279 19.968-6.53 2.419 1.063 5.293 2.885 8.017 1.974 9.226-2.886 19.815-8.199 17.394-17.463-1.209-4.403-1.36-8.958-4.537-11.843 2.874-3.644 6.202-7.44 6.051-12.451-.152-3.645-.908-7.44-3.329-9.717.152-1.367.606-2.582.303-3.949-2.875-13.514-10.892-24.902-24.202-25.053-1.513 0-2.874.302-4.387.455-4.084-4.707-10.739-6.53-17.547-6.53-6.958 0-14.068 1.671-17.849 6.834-1.513-.608-3.177-1.063-4.84-.76-8.623 1.366-15.732 7.137-15.884 15.943 0 3.949 1.059 7.744 3.783 10.325-2.874 2.735-2.724 7.442-3.783 11.693-.756 3.34.455 7.137 2.421 9.566-3.48 3.644-4.84 8.655-5.446 13.969-1.362 11.237 9.227 19.133 20.421 20.499 2.421.304 4.84-.607 6.958-1.215 5.143 2.278 10.438 4.404 16.488 4.253zm-98.322-81.996c-.606-3.34-2.724-6.53-6.051-6.074-3.328.457-4.84 2.885-6.05 6.074-1.211 3.19 2.722 5.922 6.05 6.073 3.327.153 5.142-2.883 6.051-6.073z" stroke="#484848" stroke-width="2" stroke-linecap="round" stroke-linejoin="round"/><path clip-rule="evenodd" d="M396.103 138.737c7.488 0 14.397-2.427 19.957-6.521a17.282 17.282 0 0 0 8.026 1.965c9.607 0 17.396-7.819 17.396-17.463 0-4.532-1.722-8.664-4.544-11.767a15.943 15.943 0 0 0 6.057-12.527c0-3.674-1.239-7.058-3.32-9.755.195-1.273.295-2.581.295-3.91 0-13.838-10.836-25.054-24.204-25.054-1.497 0-2.964.14-4.387.41-4.671-4.036-10.815-6.485-17.546-6.485-6.908 0-13.199 2.582-17.912 6.808a15.813 15.813 0 0 0-4.778-.733c-8.772 0-15.882 7.137-15.882 15.942a15.91 15.91 0 0 0 3.722 10.256c-2.34 3.284-3.722 7.355-3.722 11.762 0 3.494.87 6.777 2.396 9.625a20.47 20.47 0 0 0-5.422 13.91c0 11.322 9.143 20.499 20.42 20.499 2.455 0 4.807-.433 6.986-1.23 4.855 2.716 10.473 4.268 16.462 4.268zm-98.324-81.996c0-3.354-2.708-6.074-6.049-6.074-3.342 0-6.052 2.72-6.052 6.074 0 3.354 2.71 6.073 6.052 6.073 3.341 0 6.049-2.719 6.049-6.073zM312.911 65.854c1.059 6.68 5.445 12.3 12.101 12.147 6.655-.151 14.068-5.77 12.101-12.147-1.966-6.377-5.446-12.3-12.101-12.147-6.656.15-13.916 5.617-12.101 12.147z" stroke="#484848" stroke-width="2" stroke-linecap="round" stroke-linejoin="round"/><path clip-rule="evenodd" d="M312.905 65.854c0 6.71 5.419 12.147 12.101 12.147 6.684 0 12.101-5.438 12.101-12.147 0-6.708-5.417-12.147-12.101-12.147-6.682 0-12.101 5.439-12.101 12.147zM19.493 60.933l-.149-.002c-8.771 0-15.882 7.139-15.882 15.944 0 4.667 1.998 8.866 5.182 11.782A25.199 25.199 0 0 0 8 94.337c0 1.132.074 2.244.22 3.334a20.455 20.455 0 0 0-3.245 11.091c0 11.32 9.142 20.499 20.42 20.499a20.6 20.6 0 0 0 1.559-.059c5.508 5.649 13.278 9.17 21.888 9.17 8.533 0 16.242-3.459 21.742-9.021a14.275 14.275 0 0 0 6.242 1.428c7.936 0 14.37-6.458 14.37-14.424a14.42 14.42 0 0 0-4.972-10.915c4.892-4.316 7.997-10.75 7.997-17.936 0-6.188-2.301-11.818-6.067-16.019.012-.228.017-.455.017-.684 0-7.967-6.434-14.425-14.371-14.425-.877 0-1.734.078-2.568.23-6.233-5.79-14.646-9.34-23.903-9.34-11.382 0-21.488 5.367-27.836 13.667zm141.286-4.557c0-3.354-2.71-6.074-6.052-6.074-3.341 0-6.049 2.72-6.049 6.074 0 3.354 2.708 6.075 6.049 6.075 3.342 0 6.052-2.72 6.052-6.075zM106.051 65.487c2.419 6.226 5.597 13.667 12.101 12.147 6.503-1.518 13.008-5.465 12.101-12.147-.908-6.68-5.748-14.12-12.101-12.147-6.354 1.975-9.682 5.921-12.101 12.147z" stroke="#484848" stroke-width="2" stroke-linecap="round" stroke-linejoin="round"/><path clip-rule="evenodd" d="M106.051 65.489c0 6.71 5.417 12.149 12.101 12.149 6.683 0 12.101-5.44 12.101-12.15 0-6.707-5.418-12.146-12.101-12.146-6.684 0-12.101 5.439-12.101 12.147z" stroke="#484848" stroke-width="2" stroke-linecap="round" stroke-linejoin="round"/><path d="M222.796 41.867c-5.036-3.59-13.733-6.732-18.311-2.245m-27.009 11.22c0-1.795-.458-3.59-.458-5.833-.457-24.235 20.142-43.084 44.863-43.98 24.72-.899 43.946 19.745 44.861 43.98.457 16.154-6.866 34.554-21.974 37.696M213.64 98.86c7.782-5.385 4.578-11.218 5.494-18.848 5.034-1.347 9.612-3.142 14.648-5.385 3.204-1.347 3.663-4.937 3.663-8.079.457-2.243-1.832-3.141-3.204-4.038-1.832-1.346-3.663-.898-5.495-.448-9.154 3.59-17.853 6.731-27.009 10.321-2.289.897-5.493-.898-5.034-3.141.457-1.347.457-2.694 0-4.489-.459-1.346-1.374-2.691-2.289-4.486-.915-1.347-3.204-1.347-5.036-1.347-3.205.448-5.035 3.142-5.493 6.284-.457 6.281.915 12.564 0 18.398-2.289 11.668 10.529 16.156 22.43 17.503 0 0 5.037-.898 7.325-2.245zm-13.275-74.945c-.917 0-2.289-.896-1.832-1.795.459-.896.915-1.795 1.832-1.795.916.449 1.372.899 1.831 1.795 0 .899-.915 1.795-1.831 1.795zm24.262 0c-.916 0-1.374-.896-1.831-1.795 0-.896.915-1.795 1.831-1.795.915 0 1.83.899 1.83 1.795-.457.899-.915 1.795-1.83 1.795z" stroke="#484848" stroke-width="2" stroke-linecap="round" stroke-linejoin="round"/><path d="M222.804 42.154c-4.58-4.524-13.739-6.784-18.317-2.262m-27.018 11.306c-.457-1.81-.457-3.618-.457-5.879C177.012 20.898 197.16 1 221.887 1c24.728 0 44.876 19.898 44.876 44.32 0 16.28-8.7 30.298-21.98 37.986m-31.367 16.308c9.158-3.619 7.44-11.59 5.61-18.826l14.579-5.577c3.38-1.29 5.148-4.967 4.025-8.37a6.765 6.765 0 0 0-3.561-4.001 6.906 6.906 0 0 0-5.392-.196L201.853 72.91c-2.289.903-5.036-.905-5.036-3.165l-.179-4.283a6.277 6.277 0 0 0-2.217-4.52 6.443 6.443 0 0 0-4.858-1.487c-3.233.353-5.681 3.052-5.683 6.265v18.495c0 11.758 10.99 20.351 22.438 17.637 0 0 4.808-1.335 7.098-2.238zm-13.165-75.55c-.949 0-1.717-.76-1.717-1.696 0-.937.768-1.696 1.717-1.696.947 0 1.717.759 1.717 1.696 0 .936-.77 1.695-1.717 1.695zm24.383 0c-.947 0-1.717-.76-1.717-1.696 0-.937.77-1.696 1.717-1.696.949 0 1.717.759 1.717 1.696 0 .936-.768 1.695-1.717 1.695z" stroke="#484848" stroke-width="2" stroke-linecap="round" stroke-linejoin="round"/><path d="M54.614 99.653c9.756 2.277 16.563 5.011 17.017 9.338.68 5.467-11.798 11.844-26.094 10.021-14.295-1.822-26.32-4.554-26.093-10.021 0-4.327 7.261-7.061 17.017-9.338m18.153 5.694c4.992 2.277 8.85 2.05 9.076 3.644.226 2.278-8.17 5.694-18.153 4.327-9.983-1.137-17.925-1.822-18.152-4.327-.227-1.594 3.857-1.594 9.076-3.644m12.48 3.417c.454-4.1-.453-8.656.907-12.528 1.135.228 2.497-.227 3.63 0 .456-2.277.682-4.554 0-6.832-1.133-4.328-3.857-6.605-7.94-7.973-4.084-1.365-7.942 3.645-7.942 7.973 0 2.278.907 4.782 0 6.832 1.134.228 2.496-.455 3.63 0 1.134 4.101 1.59 8.428.908 12.528m-2.722-35.759c.226 3.417 2.722 7.061 6.125 6.15 3.404-.911 5.9-2.733 6.353-6.15.228-3.644-3.175-5.239-6.353-6.377-3.177-1.14-5.445 2.96-6.125 6.377z" stroke="#E7E7E7" stroke-width="2" stroke-linecap="round" stroke-linejoin="round"/><path d="M54.61 99.655c9.94 1.413 17.018 5.079 17.018 9.36 0 5.536-11.685 9.999-26.094 9.999-14.408 0-26.093-4.463-26.093-9.999 0-4.281 7.08-7.947 17.017-9.36m18.152 5.694c5.422.752 9.077 2.141 9.077 3.736 0 2.277-8.124 4.305-18.153 4.305-10.028 0-18.152-1.936-18.152-4.305 0-1.595 3.654-2.984 9.076-3.736m12.48 3.416.953-12.527h3.584v-6.832c0-4.403-3.554-7.973-7.94-7.973-4.386 0-7.942 3.57-7.942 7.973v6.832h3.585l.953 12.527m-2.836-35.872c0 3.46 2.793 6.263 6.24 6.263 3.445 0 6.238-2.804 6.238-6.263 0-3.46-2.793-6.265-6.239-6.265-3.446 0-6.239 2.806-6.239 6.265zM388.082 100.02c0 1.365.229 2.96 0 4.554m22.463 4.327c2.951-2.277 5.219-5.237 7.716-7.743.907-.911 2.722-1.366 3.176 0 .455.456 1.362.911 1.588 1.594m-7.941 1.822c.68 1.14 1.816 2.05 2.949 2.962m-16.562-4.556c2.949-3.417 3.175-8.427 0-11.616-2.95-3.417-7.488-2.05-11.573 0a5.363 5.363 0 0 1-2.042 1.822c-.454-.91-1.36-1.14-1.815-1.822-1.816-4.1-7.488-2.05-11.572 0-4.084 1.822-3.63 8.883 0 11.616 5.219 3.416 7.714 10.705 13.387 13.437 5.219-3.871 9.529-8.653 13.615-13.437zm1.815-21.637c-7.034-.228-15.43 4.782-15.204 12.07-3.175-2.276-2.948-7.97-3.857-14.804 1.362-4.1 3.404-8.882 7.488-9.793 1.815-1.14 4.539-.683 6.354-1.14 2.949-1.138 6.126.684 9.076 0 3.857-1.138 7.488 2.962 6.806 6.834-.453 3.644-2.949 6.149-6.806 6.833-1.135 0-2.497-.228-3.857 0zm3.402 37.581c2.951.91 5.219-2.734 5.673-5.694.681-3.189-2.496-5.466-5.673-5.694-3.175-.457-5.217 2.505-5.672 5.694-.227 2.96 2.497 5.239 5.672 5.694z" stroke="#E7E7E7" stroke-width="2" stroke-linecap="round" stroke-linejoin="round"/><path d="M388.151 99.904v4.555m22.463 4.327 7.715-7.744c.908-.91 2.268-.91 3.177 0l1.588 1.595m-7.942 1.822 2.95 2.962m-16.564-4.557c3.177-3.189 3.177-8.426 0-11.615-3.177-3.19-8.394-3.19-11.571 0l-2.042 1.822-1.815-1.822c-3.178-3.19-8.397-3.19-11.572 0-3.177 3.189-3.177 8.426 0 11.615l13.387 13.438 13.613-13.438zm1.815-21.636c-7.034 0-13.16 5.237-15.202 12.07-2.268-3.189-5.445-7.97-3.857-14.805.907-4.099 3.857-7.516 7.488-9.565 2.042-.91 4.311-1.367 6.352-1.367h9.077c3.857 0 6.807 2.961 6.807 6.833 0 3.872-2.95 6.834-6.807 6.834h-3.858zm3.404 37.581c3.133 0 5.673-2.551 5.673-5.694 0-3.145-2.54-5.694-5.673-5.694s-5.672 2.549-5.672 5.694c0 3.143 2.539 5.694 5.672 5.694zM205.95 212.995c0-1.594.453-2.961 0-4.556-.68-2.505 2.042-4.099 4.539-4.554 2.269-.228 4.537.227 6.806 0 2.497-.228 4.992 2.049 4.539 4.554-.227 1.595-.454 3.189 0 4.556m9.076 0c1.36 12.071 1.815 24.371 0 36.442m-34.036-36.442c1.815 12.071-1.36 24.371 0 36.442m13.615-20.499c0-1.822 1.588-3.417 3.402-3.417 1.815 0 3.63 1.595 3.404 3.417 0 1.822-1.589 3.872-3.404 3.417m15.884-27.331c0-1.367-.227-2.962.226-4.329-.226-.455.227-.91.454-.91 1.588-.912 3.177-1.367 4.085-2.277.68-.685 1.587-.457 2.269-.229.68.229 1.133.684 1.588 1.367.454.912.907 1.594 1.361 2.277.455.684.455 1.367.226 2.05-.226.684-.68 1.367-1.133 1.594-1.362.912-3.177 1.367-4.311 2.277-.228.23-.681.23-.908 0-1.362-.682-2.495-1.137-3.857-1.82zm0 0c-2.951.683-5.219 3.188-7.941 4.555m-27.229 3.416c12.48 3.188 26.32-4.328 38.573 0 0 0 4.991.228 6.806 6.832 1.816 7.289 0 15.262 0 22.778 0 0 0 7.516-6.806 6.832-12.706-1.138-25.866-2.05-38.573 0 0 0-7.034 0-6.806-6.832.454-7.516-2.27-15.489 0-22.778 0 0 0-6.832 6.806-6.832zm7.941 18.22c-2.268 5.924 5.219 9.795 11.345 11.39 6.127 1.593 10.891-5.011 11.346-11.39.454-6.376-5.219-12.071-11.346-11.388-6.126.685-12.025 5.239-11.345 11.388zm11.345 5.239c.228-.227.455.228.682.457 0 .228-.454.455-.682.683-.227 0-.453-.455-.453-.683-.227-.229.226-.684.453-.457z" stroke="#E7E7E7" stroke-width="2" stroke-linecap="round" stroke-linejoin="round"/><path d="M205.949 212.994v-4.555c0-2.517 2.03-4.556 4.537-4.556h6.808c2.505 0 4.537 2.039 4.537 4.556v4.555m9.076 0v36.441m-34.034-36.441v36.441m13.613-20.497a3.41 3.41 0 0 1 3.404-3.417 3.41 3.41 0 0 1 3.404 3.417 3.41 3.41 0 0 1-3.404 3.415m15.792-27.444-7.851 4.554m-27.229 3.531h38.574s6.807 0 6.807 6.833v22.776s0 6.832-6.807 6.832h-38.574s-6.806 0-6.806-6.832v-22.776s0-6.833 6.806-6.833zm7.943 18.221c0 6.289 5.079 11.388 11.345 11.388 6.264 0 11.345-5.099 11.345-11.388 0-6.29-5.081-11.388-11.345-11.388-6.266 0-11.345 5.098-11.345 11.388zm11.345 5.125c.313 0 .566.255.566.569a.567.567 0 1 1-1.135 0 .57.57 0 0 1 .569-.569zm16.086-35.645-.204 4.327 3.789 1.89c.334.182.734.182 1.066 0l4.108-2.277a2.672 2.672 0 0 0 .976-3.668l-1.316-2.277a2.687 2.687 0 0 0-1.592-1.466 2.667 2.667 0 0 0-2.152.191l-4.108 2.277a1.094 1.094 0 0 0-.567 1.003z" stroke="#E7E7E7" stroke-width="2" stroke-linecap="round" stroke-linejoin="round"/></svg>