<svg width="483" height="510" fill="none" xmlns="http://www.w3.org/2000/svg"><path d="m299.606 259.65-15.896-12.975-55.1-23.303 33.789 27.633 37.207 8.645zm-70.996-36.278 2.492 27.33 54.56 17.909-1.952-21.936-55.1-23.303zm57.052 45.239-7.09-4.465-62.166-22.762 14.696 9.318 54.56 17.909zm-69.256-27.227-1.976 3.322 50.562 40.394 13.58-20.954-62.166-22.762zm48.586 43.716 11.165 5.173-42.031-36.463-19.696-9.104 50.562 40.394zm-30.866-31.29-22.766 3.628 37.898 37.112 26.899-4.277-42.031-36.463zm15.132 40.74-18.906-10.434 10.514 19.508 45.021 9.369-.17-.346-61.096-47.89-13.261-7.319 37.898 37.112zm36.629 18.443L220.08 275.55l-31.83-1.929 52.616 30.003 45.021 9.369zm-97.637-39.372 50.409 52 34.649 4.751-53.228-54.822-31.83-1.929zm85.058 56.751-43.655-26.796-37.381-6.46 46.387 28.505 34.649 4.751zm-81.036-33.256 32.561 36.635 28.187-3.919-23.367-26.256-37.381-6.46zm60.748 32.716-59.884-27.866-13.482 10.707 45.179 21.078 28.187-3.919zm-73.366-17.159 52.479 42.843 17.241-7.571-56.238-45.979-13.482 10.707zm69.72 35.272-51.973-26.674-25.868 3.172 60.6 31.073 17.241-7.571zm-77.841-23.502 30.574 29.89 24.941-4.133-29.647-28.929-25.868 3.172zm55.515 25.757-39.336-19.564 10.93 21.962 3.465 1.735 24.941-4.133z" fill="#389D2D"/><path d="m214.373 225.29-16.236 12.547-35.176 48.413 34.56-26.662 16.852-34.298zm-51.412 60.96 27.167 3.768 29.804-49.106-21.795-3.075-35.176 48.413zm56.971-45.338-5.953 5.896-36.255 55.42 12.404-12.21 29.804-49.106zm-42.208 61.316 2.787 2.678 50.785-40.113-17.317-17.985-36.255 55.42zm53.572-37.435 7.567-9.708-45.024 32.691-13.328 17.13 50.785-40.113zm-37.457 22.983-1.631 23.01 44.717-28.517 1.938-27.184-45.024 32.691zm43.086-5.507-14.442 16.058 21.372-5.822 19.329-41.749-.375.087-60.47 48.678-10.131 11.265 44.717-28.517zm26.259-31.513-51.37 55.639-9.096 30.582 41.137-44.472 19.329-41.749zm-60.466 86.221 62.047-37.333 12.484-32.689-65.435 39.44-9.096 30.582zm74.531-70.022-35.983 36.466-14.766 34.964 38.265-38.741 12.484-32.689zm-50.749 71.43 43.044-23.423 2.576-28.357-30.854 16.816-14.766 34.964zm45.62-51.78-40.703 52.037 7.364 15.569 30.763-39.249 2.576-28.357zm-33.339 67.606 53.603-41.426-3.459-18.519-57.508 44.376 7.364 15.569zm50.144-59.945-37.75 44.599-2.779 25.929 43.988-52.009-3.459-18.519zm-40.529 70.528 36.028-23.017 1.634-25.243-34.883 22.331-2.779 25.929zm37.662-48.26-27.964 33.896 23.856-5.669 2.474-2.984 1.634-25.243z" fill="#389D2D"/><path d="M387.27 506.967c-1.383-4.15 1.383-9.687 0-13.839-2.767-11.07-2.767-24.909-13.831-27.678-20.746-11.07-63.622-67.81-138.31-41.517m0 0c-74.686 26.295-124.478 23.528-138.309 41.517-5.532 9.689-13.83 16.608-13.83 27.678 0 4.152-1.383 9.689 0 13.839m152.139-83.034c6.916 20.759 16.598 41.517 20.747 62.276m-20.747-62.276c-8.298 20.759-8.298 44.286-20.746 62.276m94.05-52.587c-24.896 24.909-51.174 47.052-73.304 73.345-17.979-30.445-58.089-42.9-73.303-73.345m-13.83 4.15c-6.916 15.224-16.598 31.83-16.598 48.437 12.448 8.304 26.279 17.991 41.492 20.758m149.374-69.195c8.299 15.224 13.831 31.83 16.597 48.437-13.831 5.536-26.278 17.991-41.493 20.758m-34.577-110.712c-17.979 5.537-37.343-5.535-55.324 0m138.31-110.712c-4.149-1.383-9.682 0-13.832 0m-207.463 0c4.15 0 9.683 1.385 13.831 0m193.632 69.195c-4.148-4.151-9.681-8.302-13.83-13.839m-179.802 13.839c2.767-5.535 11.065-8.302 13.831-13.839m145.224-48.436c4.15-30.446-22.129-65.043-52.556-62.276-30.429 2.768-70.538 12.456-69.155 42.902 1.383 30.445 1.383 70.578 31.81 74.73 1.384 4.152 0 9.687 0 13.839 0 4.152 2.768 8.304 6.916 6.919 12.448-4.151 27.662 4.152 41.493 0 4.149-1.383 5.533-2.767 6.915-6.919 1.384-4.152 1.384-9.687 0-13.839 20.746-11.071 37.344-31.83 34.577-55.356z" stroke="#484848" stroke-width="4" stroke-linecap="round" stroke-linejoin="round"/><path d="M387.265 506.969V493.13a33.583 33.583 0 0 0-13.831-27.678c-18.464-14.102-59.058-41.517-138.309-41.517m0 0c-79.251 0-119.845 27.415-138.31 41.517a33.58 33.58 0 0 0-13.83 27.678v13.839m152.14-83.034 20.746 62.275m-20.746-62.275-20.747 62.275m94.355-52.893-73.608 73.652-73.608-73.652m-13.998 4.47-16.126 48.423 41.493 20.759m149.843-69.182 16.127 48.423-41.492 20.759m-34.577-110.712h-55.324m138.309-110.712h-13.831m-207.463 0h13.83m193.633 69.195-13.831-13.839M138.308 354.74l13.831-13.839m145.225-48.437c.13-30.75-22.19-56.991-52.547-61.78-30.358-4.789-59.663 13.311-68.993 42.61-9.331 29.298 4.109 61.025 31.639 74.693v13.672a6.917 6.917 0 0 0 6.915 6.92h41.493a6.918 6.918 0 0 0 6.916-6.92v-13.672c21.124-10.44 34.519-31.948 34.577-55.523z" stroke="#484848" stroke-width="4" stroke-linecap="round" stroke-linejoin="round"/><path fill-rule="evenodd" clip-rule="evenodd" d="M48.091 90.16h-.148C39.138 90.16 32 97.333 32 106.179c0 4.69 2.006 8.91 5.202 11.839a25.31 25.31 0 0 0-.646 5.707c0 1.136.074 2.254.22 3.351a20.562 20.562 0 0 0-3.257 11.143c0 11.376 9.177 20.597 20.498 20.597.526 0 1.048-.02 1.563-.059 5.53 5.677 13.33 9.213 21.97 9.213 8.567 0 16.305-3.475 21.825-9.063a14.316 14.316 0 0 0 6.266 1.435c7.967 0 14.424-6.49 14.424-14.494 0-4.381-1.934-8.309-4.992-10.966 4.913-4.339 8.03-10.802 8.03-18.023 0-6.218-2.312-11.874-6.09-16.096.011-.226.015-.456.015-.686 0-8.005-6.457-14.494-14.424-14.494-.879 0-1.741.079-2.577.23-6.258-5.817-14.702-9.385-23.994-9.385-11.426 0-21.57 5.394-27.942 13.733zM99.681 187.344c0 6.723 5.446 12.173 12.166 12.173 6.719 0 12.167-5.45 12.167-12.173s-5.448-12.173-12.167-12.173c-6.72 0-12.166 5.45-12.166 12.173zM126.633 213.339c0 4.3 3.483 7.785 7.78 7.785a7.782 7.782 0 0 0 7.779-7.785 7.782 7.782 0 0 0-7.779-7.784 7.782 7.782 0 0 0-7.78 7.784z" fill="#389D2D"/><path clip-rule="evenodd" d="M51.596 90.09h-.148c-8.82 0-15.969 7.153-15.969 15.977a15.94 15.94 0 0 0 5.21 11.808 25.45 25.45 0 0 0-.428 9.033A20.46 20.46 0 0 0 37 138.023c0 11.346 9.192 20.542 20.531 20.542.528 0 1.05-.02 1.567-.058 5.538 5.662 13.35 9.188 22.006 9.188 8.579 0 16.33-3.465 21.859-9.038a14.397 14.397 0 0 0 6.276 1.43c7.978 0 14.447-6.471 14.447-14.456 0-4.369-1.938-8.286-5-10.937 4.92-4.327 8.041-10.774 8.041-17.975 0-6.201-2.314-11.843-6.098-16.053.01-.227.016-.456.016-.685 0-7.984-6.469-14.456-14.449-14.456-.88 0-1.743.079-2.582.23-6.266-5.802-14.724-9.36-24.031-9.36-11.444 0-21.604 5.38-27.986 13.695zM131.015 214.37c1.498 3.776 3.466 8.287 7.493 7.367 4.028-.922 8.055-3.316 7.494-7.367-.563-4.05-3.56-8.562-7.494-7.365-3.933 1.197-5.995 3.591-7.493 7.365zM106.461 185.126c0 6.723 5.447 12.174 12.166 12.174 6.72 0 12.166-5.451 12.166-12.174s-5.446-12.173-12.166-12.173c-6.719 0-12.166 5.45-12.166 12.173z" stroke="#484848" stroke-width="2" stroke-linecap="round" stroke-linejoin="round"/><path d="M86.919 128.895c9.81 2.283 16.653 5.021 17.109 9.358.685 5.479-11.862 11.869-26.234 10.044-14.371-1.826-26.461-4.565-26.233-10.044 0-4.337 7.3-7.075 17.11-9.358m18.248 5.707c5.02 2.282 8.897 2.054 9.125 3.651.228 2.283-8.212 5.707-18.25 4.338-10.037-1.142-18.021-1.827-18.249-4.338-.228-1.597 3.878-1.597 9.125-3.651m12.546 3.423c.457-4.109-.456-8.673.913-12.554 1.14.228 2.509-.228 3.65 0 .456-2.282.684-4.565 0-6.847-1.141-4.336-3.878-6.619-7.985-7.99-4.106-1.369-7.983 3.654-7.983 7.99 0 2.282.911 4.793 0 6.847 1.14.228 2.509-.456 3.65 0 1.14 4.109 1.596 8.445.912 12.554m-2.738-35.836c.228 3.424 2.738 7.076 6.159 6.164 3.422-.913 5.932-2.74 6.388-6.164.228-3.651-3.194-5.249-6.388-6.39-3.193-1.141-5.474 2.967-6.159 6.39z" stroke="#F9F9F9" stroke-width="2" stroke-linecap="round" stroke-linejoin="round"/><path d="M86.917 128.895c9.991 1.416 17.108 5.091 17.108 9.382 0 5.546-11.748 10.02-26.233 10.02-14.486 0-26.234-4.474-26.234-10.02 0-4.291 7.117-7.966 17.109-9.382m18.25 5.707c5.452.753 9.124 2.146 9.124 3.743 0 2.282-8.166 4.314-18.25 4.314-10.082 0-18.249-1.94-18.249-4.314 0-1.597 3.673-2.99 9.125-3.743m12.547 3.423.958-12.554h3.604v-6.848a7.987 7.987 0 0 0-7.984-7.989 7.987 7.987 0 0 0-7.984 7.989v6.848h3.604l.958 12.554m-2.852-35.949a6.274 6.274 0 1 0 12.547 0 6.275 6.275 0 0 0-6.273-6.277 6.275 6.275 0 0 0-6.273 6.277z" stroke="#F9F9F9" stroke-width="2" stroke-linecap="round" stroke-linejoin="round"/><path fill-rule="evenodd" clip-rule="evenodd" d="M226.445 6.968a19.714 19.714 0 0 0-7.105-1.316c-10.919 0-19.771 8.857-19.771 19.782 0 1.718.22 3.385.63 4.975-5.081 5.967-8.161 13.785-8.161 22.343 0 10.72 4.833 20.28 12.38 26.494a19.769 19.769 0 0 0-1.082 6.476c0 10.925 8.85 19.781 19.77 19.781 1.487 0 2.937-.164 4.331-.475 4.807 4.932 11.633 8.012 19.204 8.012 8.476 0 16.017-3.861 20.84-9.857a16.873 16.873 0 0 0 11.169 4.205c9.36 0 16.946-7.592 16.946-16.957 0-1.621-.226-3.19-.652-4.675 6.267-7.298 10.066-16.871 10.066-27.352 0-8.172-2.309-15.791-6.296-22.211.424-1.949.649-3.973.649-6.05 0-15.607-12.645-28.26-28.244-28.26-3.368 0-6.601.591-9.596 1.674C257.078 1.285 252.014 0 246.641 0c-7.657 0-14.687 2.612-20.196 6.968zM230.826 140.217c0 8.324 6.745 15.072 15.063 15.072 8.32 0 15.063-6.748 15.063-15.072 0-8.324-6.743-15.072-15.063-15.072-8.318 0-15.063 6.748-15.063 15.072zM235.481 173.276a7.76 7.76 0 0 0 7.758 7.762 7.76 7.76 0 0 0 7.759-7.762 7.762 7.762 0 0 0-7.759-7.764c-4.284 0-7.758 3.476-7.758 7.764z" fill="#389D2D"/><path clip-rule="evenodd" d="M225.105 10.303c-1.695-1.696-4.707-1.13-7.155-1.319-10.921-.377-17.322 9.043-19.77 19.782-.377 1.696 0 3.391.564 4.898-5.837 5.276-7.155 13.942-8.096 22.42-1.129 10.738 3.578 22.23 12.427 26.564-.565 2.072-1.13 4.144-1.13 6.406-.377 10.927 8.85 21.1 19.77 19.782 1.506-.189 2.825-.565 4.331-.565 6.214 3.203 11.674 9.042 19.206 8.1 8.472-1.13 15.816-4.144 20.9-9.796 3.201 2.261 6.778 4.145 11.109 4.145 9.414 0 19.205-7.914 16.946-16.956-.377-1.507 0-3.203-.566-4.71 6.026-7.348 13.37-17.333 9.98-27.318-2.636-7.725-1.13-16.768-6.213-22.231.941-1.696 0-4.145.565-6.029 4.518-14.884-12.804-30.709-28.244-28.26-3.39.565-6.402 1.696-9.603 1.696-3.389-3.768-9.791-5.087-14.874-3.58-7.344 2.073-15.816 1.507-20.147 6.97z" stroke="#484848" stroke-width="2" stroke-linecap="round" stroke-linejoin="round"/><path clip-rule="evenodd" d="M225.044 10.298a19.71 19.71 0 0 0-7.105-1.316c-10.919 0-19.771 8.857-19.771 19.782 0 1.718.22 3.385.631 4.975-5.082 5.967-8.162 13.785-8.162 22.343 0 10.72 4.833 20.279 12.38 26.494a19.769 19.769 0 0 0-1.082 6.476c0 10.925 8.85 19.781 19.77 19.781 1.487 0 2.937-.164 4.331-.475 4.808 4.932 11.633 8.012 19.205 8.012 8.475 0 16.016-3.86 20.839-9.857a16.873 16.873 0 0 0 11.169 4.205c9.36 0 16.946-7.592 16.946-16.956 0-1.622-.226-3.19-.652-4.675 6.268-7.299 10.068-16.872 10.068-27.353 0-8.172-2.31-15.791-6.298-22.211.425-1.949.649-3.973.649-6.05 0-15.607-12.645-28.259-28.244-28.259-3.368 0-6.599.59-9.595 1.673-4.446-2.272-9.51-3.557-14.882-3.557-7.658 0-14.688 2.612-20.197 6.968zM232.633 177.965c-1.418 3.958 3.406 7.53 7.567 7.724 4.161.192 6.62-3.574 7.566-7.724.946-4.152-3.405-8.4-7.566-7.724-4.161.676-7.094 3.476-7.567 7.724zM230.826 144.877c0 8.323 6.745 15.071 15.063 15.071 8.32 0 15.063-6.748 15.063-15.071 0-8.325-6.743-15.072-15.063-15.072-8.318 0-15.063 6.747-15.063 15.072z" stroke="#484848" stroke-width="2" stroke-linecap="round" stroke-linejoin="round"/><path d="M237.488 39.54c0-1.977.565-3.673 0-5.651-.847-3.109 2.542-5.087 5.649-5.652 2.824-.283 5.648.282 8.473 0 3.106-.283 6.213 2.543 5.649 5.652-.283 1.978-.566 3.956 0 5.652m11.296 0c1.695 14.977 2.261 30.237 0 45.215M226.19 39.541c2.261 14.977-1.693 30.237 0 45.215m16.947-25.433c0-2.26 1.977-4.239 4.236-4.239 2.26 0 4.519 1.978 4.237 4.239 0 2.26-1.977 4.803-4.237 4.239m19.771-33.912c0-1.696-.282-3.674.282-5.37-.282-.565.282-1.13.565-1.13 1.977-1.13 3.954-1.696 5.084-2.826.847-.848 1.977-.565 2.824-.283.848.283 1.412.848 1.977 1.696.565 1.13 1.13 1.978 1.694 2.826.566.848.566 1.696.283 2.543-.283.848-.847 1.696-1.412 1.979-1.694 1.13-3.954 1.695-5.366 2.825-.282.283-.848.283-1.13 0-1.695-.847-3.106-1.412-4.801-2.26zm0 0c-3.672.848-6.497 3.956-9.885 5.652m-33.892 4.239c15.533 3.956 32.762-5.37 48.013 0 0 0 6.213.282 8.473 8.478 2.26 9.043 0 18.934 0 28.26 0 0 0 9.325-8.473 8.477-15.816-1.413-32.197-2.543-48.013 0 0 0-8.756 0-8.473-8.477.565-9.326-2.825-19.217 0-28.26 0 0 0-8.478 8.473-8.478zm9.885 22.607c-2.824 7.348 6.496 12.153 14.121 14.13 7.626 1.98 13.558-6.217 14.122-14.13.565-7.912-6.496-14.977-14.122-14.13-7.625.848-14.968 6.5-14.121 14.13zm14.121 6.5c.283-.282.565.283.848.566 0 .282-.565.564-.848.847-.282 0-.565-.565-.565-.848-.282-.282.283-.847.565-.564z" stroke="#F9F9F9" stroke-width="2" stroke-linecap="round" stroke-linejoin="round"/><path d="M237.488 39.538v-5.652a5.65 5.65 0 0 1 5.649-5.652h8.473a5.651 5.651 0 0 1 5.649 5.652v5.652m11.296 0v45.216M226.19 39.538v45.216m16.947-25.434a4.237 4.237 0 1 1 8.473 0 4.238 4.238 0 0 1-4.237 4.24m19.658-34.054-9.772 5.652m-33.892 4.38h48.013s8.473 0 8.473 8.478v28.26s0 8.478-8.473 8.478h-48.013s-8.473 0-8.473-8.478v-28.26s0-8.478 8.473-8.478zm9.885 22.608c0 7.804 6.323 14.13 14.121 14.13 7.799 0 14.122-6.326 14.122-14.13 0-7.804-6.323-14.13-14.122-14.13-7.798 0-14.121 6.326-14.121 14.13zm14.121 6.36a.706.706 0 1 1 .002 1.411.706.706 0 0 1-.002-1.412zm20.024-44.228-.253 5.37 4.716 2.345c.413.226.914.226 1.327 0l5.112-2.826a3.314 3.314 0 0 0 1.56-2.02 3.311 3.311 0 0 0-.345-2.53l-1.638-2.826a3.334 3.334 0 0 0-4.66-1.582l-5.112 2.826a1.36 1.36 0 0 0-.707 1.243z" stroke="#F9F9F9" stroke-width="2" stroke-linecap="round" stroke-linejoin="round"/><path fill-rule="evenodd" clip-rule="evenodd" d="M430.244 173.154c8.264 0 15.891-2.669 22.029-7.174a19.103 19.103 0 0 0 8.858 2.162c10.603 0 19.2-8.6 19.2-19.211 0-4.987-1.9-9.532-5.015-12.946A17.515 17.515 0 0 0 482 122.202c0-4.041-1.366-7.764-3.662-10.731.212-1.401.323-2.839.323-4.303 0-15.222-11.96-27.564-26.713-27.564-1.653 0-3.272.156-4.842.452-5.156-4.44-11.937-7.134-19.366-7.134-7.625 0-14.568 2.84-19.772 7.49a17.5 17.5 0 0 0-5.271-.808c-9.683 0-17.531 7.854-17.531 17.541 0 4.297 1.545 8.233 4.107 11.283-2.58 3.614-4.107 8.091-4.107 12.94 0 3.845.961 7.457 2.645 10.589a22.476 22.476 0 0 0-5.984 15.304c0 12.455 10.091 22.553 22.539 22.553 2.708 0 5.304-.478 7.709-1.355 5.358 2.988 11.56 4.695 18.169 4.695zM354.391 182.293c0 7.381 5.979 13.364 13.355 13.364 7.377 0 13.357-5.983 13.357-13.364 0-7.381-5.98-13.365-13.357-13.365-7.376 0-13.355 5.984-13.355 13.365zM333.928 204.648c0 4.156 3.108 7.524 6.941 7.524 3.834 0 6.941-3.368 6.941-7.524 0-4.155-3.107-7.523-6.941-7.523-3.833 0-6.941 3.368-6.941 7.523z" fill="#389D2D"/><path clip-rule="evenodd" d="M427.131 176.195c8.181-1.169 16.028-2.506 22.039-7.183 2.671 1.169 5.843 3.173 8.848 2.171 10.185-3.174 21.872-9.02 19.2-19.211-1.335-4.844-1.503-9.856-5.008-13.03 3.172-4.009 6.845-8.186 6.678-13.699-.167-4.008-1.001-8.186-3.673-10.69.167-1.504.668-2.841.334-4.345-3.172-14.867-12.021-27.396-26.714-27.563-1.669 0-3.172.335-4.841.501-4.508-5.178-11.854-7.183-19.366-7.183-7.68 0-15.528 1.838-19.702 7.518-1.669-.67-3.505-1.17-5.342-.836-9.516 1.504-17.364 7.851-17.53 17.541 0 4.343 1.168 8.519 4.173 11.359-3.172 3.008-3.005 8.186-4.173 12.864-.836 3.675.501 7.851 2.671 10.524-3.84 4.009-5.342 9.522-6.01 15.369-1.503 12.362 10.184 21.049 22.538 22.551 2.671.335 5.344-.668 7.68-1.336 5.677 2.506 11.52 4.845 18.198 4.678z" stroke="#484848" stroke-width="2" stroke-linecap="round" stroke-linejoin="round"/><path clip-rule="evenodd" d="M427.137 176.195c8.264 0 15.891-2.669 22.028-7.174a19.1 19.1 0 0 0 8.858 2.162c10.604 0 19.201-8.601 19.201-19.211a19.15 19.15 0 0 0-5.016-12.947 17.51 17.51 0 0 0 6.685-13.782 17.48 17.48 0 0 0-3.663-10.731c.213-1.402.323-2.839.323-4.304 0-15.223-11.959-27.563-26.712-27.563-1.654 0-3.273.155-4.844.452-5.154-4.44-11.937-7.134-19.365-7.134-7.625 0-14.569 2.84-19.771 7.489a17.521 17.521 0 0 0-5.273-.807c-9.681 0-17.53 7.854-17.53 17.541 0 4.296 1.544 8.233 4.108 11.283-2.581 3.614-4.108 8.091-4.108 12.94 0 3.844.96 7.456 2.645 10.588a22.485 22.485 0 0 0-5.984 15.305c0 12.454 10.091 22.551 22.539 22.551 2.708 0 5.305-.477 7.71-1.353 5.357 2.988 11.559 4.695 18.169 4.695zM351.281 181.861c0 7.381 5.98 13.364 13.357 13.364 7.376 0 13.356-5.983 13.356-13.364 0-7.38-5.98-13.365-13.356-13.365-7.377 0-13.357 5.985-13.357 13.365zM329.301 205.227a6.943 6.943 0 0 0 6.941 6.945 6.944 6.944 0 0 0 6.941-6.945 6.943 6.943 0 0 0-6.941-6.945 6.942 6.942 0 0 0-6.941 6.945z" stroke="#484848" stroke-width="2" stroke-linecap="round" stroke-linejoin="round"/><path d="M418.295 133.599c0 1.504.251 3.257 0 5.011m24.793 4.762c3.257-2.506 5.761-5.764 8.515-8.52 1.002-1.003 3.006-1.504 3.507 0 .501.501 1.502 1.002 1.752 1.753m-8.765 2.005c.752 1.253 2.004 2.256 3.255 3.258m-18.281-5.012c3.255-3.758 3.507-9.271 0-12.78-3.255-3.758-8.264-2.254-12.772 0a5.902 5.902 0 0 1-2.254 2.005c-.501-1.002-1.502-1.252-2.003-2.005-2.004-4.51-8.265-2.254-12.773 0-4.507 2.005-4.007 9.773 0 12.78 5.76 3.759 8.516 11.778 14.776 14.785 5.76-4.261 10.518-9.523 15.026-14.785zm2.004-23.805c-7.764-.251-17.03 5.262-16.78 13.281-3.505-2.506-3.255-8.77-4.257-16.288 1.503-4.511 3.756-9.773 8.264-10.775 2.004-1.252 5.009-.751 7.013-1.252 3.255-1.254 6.762.75 10.017 0 4.257-1.254 8.264 3.257 7.513 7.516-.501 4.01-3.256 6.766-7.513 7.518-1.252 0-2.754-.251-4.257 0zm3.756 41.346c3.255 1.002 5.76-3.007 6.261-6.264.752-3.509-2.755-6.015-6.261-6.265-3.506-.501-5.76 2.756-6.261 6.265-.25 3.257 2.755 5.763 6.261 6.264z" stroke="#F9F9F9" stroke-width="2" stroke-linecap="round" stroke-linejoin="round"/><path d="M418.362 133.472v5.012m24.793 4.761 8.514-8.52c1.002-1.002 2.505-1.002 3.507 0l1.752 1.754m-8.765 2.005 3.256 3.257m-18.282-5.012c3.506-3.507 3.506-9.27 0-12.779-3.505-3.508-9.266-3.508-12.771 0l-2.255 2.005-2.003-2.005c-3.506-3.508-9.267-3.508-12.772 0-3.506 3.509-3.506 9.272 0 12.779l14.775 14.785 15.026-14.785zm2.004-23.805c-7.764 0-14.525 5.764-16.779 13.281-2.504-3.508-6.011-8.77-4.257-16.287 1.001-4.511 4.257-8.269 8.264-10.525 2.254-1.002 4.758-1.504 7.012-1.504h10.018c4.257 0 7.512 3.259 7.512 7.518 0 4.26-3.255 7.517-7.512 7.517h-4.258zm3.757 41.346a6.263 6.263 0 0 0 6.261-6.265 6.263 6.263 0 1 0-12.523 0 6.264 6.264 0 0 0 6.262 6.265z" stroke="#F9F9F9" stroke-width="2" stroke-linecap="round" stroke-linejoin="round"/></svg>