<svg width="487" height="393" fill="none" xmlns="http://www.w3.org/2000/svg"><path d="m156.512 186.275-1.111 8.214 21.991 3.219 1.111-8.214-21.991-3.219zm83.297-32.969 3.999 5.661 26.766-.777-12.661-17.761-18.104 12.877zm30.765 4.884 16.659-26.087-22.879-5.55-20.546 32.414 26.766-.777zm-6.22-31.637 1.555 16.651 22.102-2.109-.778-8.992-22.879-5.55zM314 116.674l-.334 1.11 18.881 15.874 2.999-11.545L314 116.674zm18.547 16.984 26.433-11.767-26.433-12.544-18.881 8.437 18.881 15.874zm0-24.311 7.441 27.308 21.436-5.884-2.444-8.88-26.433-12.544z" fill="#EBEBEB"/><path d="m350.429 109.014-.223-.444-28.654-4.44 9.774 16.207 19.103-11.323zm-28.877-4.884-14.216 12.432 24.656 7.993 18.214-15.985-28.654-4.44zm10.44 20.425-9.329-40.961-23.546-3.442 8.219 36.41 24.656 7.993zm-32.875-44.403-21.102 37.52 22.879 4.441 21.769-38.52-23.546-3.44zm1.777 41.961-8.44-65.938-22.435-.111 7.996 61.608 22.879 4.441zm-30.875-66.049-10.44 73.708 22.546-.888 10.329-72.709-22.435-.111zm12.106 72.82-24.99-112.227-22.212 2.22 24.656 110.895 22.546-.888zM234.923 18.877l-2.11 125.77 22.212-.888 2.11-127.102-22.212 2.22zm20.102 124.882L244.363 25.093l-22.212.444 10.662 119.11 22.212-.888zM222.151 25.537l-6.664 137.426 22.323-1.443 6.553-136.427-22.212.444zM237.81 161.52 217.708 50.736l-22.435.999 20.214 111.228 22.323-1.443zM195.273 51.735l-10.44 115.002 22.435-.999 10.44-115.002-22.435.999zm11.995 114.003-16.215-93.69-22.324 1.111 16.104 93.578 22.435-.999zm-38.539-92.579-7.441 111.117 22.324-.777 7.441-111.45-22.324 1.11zm14.883 110.34-11.773-86.474-22.546-1.11 11.995 88.361 22.324-.777zm-34.319-87.584-13.772 58.945 22.546.999 13.772-58.834-22.546-1.11zm8.774 59.944-5.886-40.629-22.99-3.774 6.33 43.404 22.546.999zm-28.876-44.403-18.659 37.076 21.879 5.773 19.77-39.075-22.99-3.774zm3.22 42.849.889-18.316-22.102-1.111-.666 13.654 21.879 5.773z" fill="#389D2D"/><path d="m156.512 306.938 4.554 4.663 20.102-11.101-8.774-9.103-15.882 15.541zm24.656-6.438-12.328-51.618-20.546 9.769 12.772 52.95 20.102-11.101zm-32.874-41.849 39.871 52.284 19.214-11.323-38.539-50.73-20.546 9.769zm59.085 40.961-36.651-84.809-19.547 10.879 36.984 85.253 19.214-11.323zm-56.198-73.93 69.415 98.906 19.103-11.433-68.971-98.352-19.547 10.879zm88.518 87.473-60.752-120.997-18.992 11.766 60.641 120.664 19.103-11.433zm-79.744-109.231 110.508 146.751 18.881-11.878-110.397-146.639-18.992 11.766zm129.389 134.873-86.296-164.4-18.992 11.544 86.407 164.734 18.881-11.878zM184.056 185.941l128.722 185.936 18.881-11.656-128.611-185.824-18.992 11.544zm147.603 174.28L225.483 164.406l-18.881 11.878 106.176 195.593 18.881-11.656zM206.602 176.284l115.172 160.515 18.659-12.211-114.95-160.182-18.881 11.878zm133.831 148.304-94.626-160.515-18.325 12.655 94.292 160.071 18.659-12.211zm-112.951-147.86 87.74 110.118 18.769-12.099-88.184-110.674-18.325 12.655zm106.509 98.019-65.749-126.77-18.77 11.989 65.75 126.88 18.769-12.099zm-84.519-114.781 69.415 88.028 18.992-11.656-69.637-88.361-18.77 11.989zm88.407 76.372-44.426-96.686-19.103 11.655 44.537 96.687 18.992-11.656zm-63.529-85.031 45.314 58.501 19.992-10.435-46.203-59.721-19.103 11.655zm65.306 48.066-24.434-77.593-20.547 8.547 24.989 79.481 19.992-10.435zm-44.981-69.046 17.992 34.079 23.768-2.664-21.213-39.962-20.547 8.547zm41.76 31.415 9.329-34.856-24.323 5.106-8.774 32.414 23.768-2.664zm-14.994-29.75 18.326 18.76 18.214 6.106 6.886.999 8.33 1.998 5.109-21.535-5.998-1.443-15.327.111-2.665.666-8.552-10.768-24.323 5.106zM224.039 322.59l10.662 15.874 18.436-12.433-10.773-15.873-18.325 12.432z" fill="#EFEFEE"/><path d="m332.659 384.864.888-2.997L317.554 359l-6.108 19.093 21.213 6.771zM317.554 359l-23.212-.888 10.44 22.534 28.765 1.221L317.554 359zm-12.772 21.646 11.328-14.431-11.883-20.758-9.885 12.655 10.44 22.534zm-.555-35.189-36.54 5.218 16.437 20.092 31.986-4.552-11.883-20.758zm-20.103 25.31 7.663-21.536-18.214-14.874-5.886 16.318 16.437 20.092zm-10.551-36.41-31.875 19.537 17.104 15.541 32.985-20.204-18.214-14.874zm-14.771 35.078 10.217-21.092-15.215-19.426-12.106 24.977 17.104 15.541zm-4.998-40.518-29.21 6.217 13.772 19.759 30.653-6.55-15.215-19.426zm-15.438 25.976 7.886-12.544-11.218-23.866-10.44 16.651 13.772 19.759zm-3.332-36.41-28.099-3.886 6.664 23.312 32.653 4.44-11.218-23.866zm-21.435 19.426 10.551-8.659-8.996-21.424-8.219 6.771 6.664 23.312zm1.555-30.083-29.432 2.997 18.659 20.425 19.769-1.998-8.996-21.424zm-10.773 23.422 4.775-24.421-19.769-14.875-3.665 18.871 18.659 20.425zm-14.994-39.296-29.21 14.764 17.437 16.096 31.542-15.985-19.769-14.875zm-11.773 30.86 5.109-12.655-20.546-8.436-2 4.995 17.437 16.096z" fill="#EBEBEB"/><path d="m201.049 311.822-9.329-2.997-10.107 20.092 12.55 3.997 6.886-21.092zm-19.436 17.095 39.094 27.863 8.663-21.091-37.65-26.864-10.107 20.092zm47.757 6.772-62.973-10.213-5.22 21.646 59.53 9.658 8.663-21.091zm-68.193 11.433 136.275 44.958 4.887-21.757-135.942-44.847-5.22 21.646zm141.162 23.201-138.163-18.094-4.332 21.868 137.608 17.983 4.887-21.757zm-142.495 3.774 164.041 42.404 4.22-21.757-163.929-42.515-4.332 21.868zm168.261 20.647-170.26-21.313-4.331 21.757 170.371 21.313 4.22-21.757zm-174.591.444 174.924 47.955 3.888-21.868-174.481-47.844-4.331 21.757zm178.812 26.087-175.48-15.097-3.11 21.979 174.702 14.986 3.888-21.868zm-178.59 6.882 177.59 34.634 3.221-21.979-177.701-34.634-3.11 21.979zm180.811 12.655-173.37-16.762-3.887 21.979 174.036 16.762 3.221-21.979zm-177.257 5.217 172.148 45.069 3.998-21.98-172.259-45.068-3.887 21.979zm176.146 23.089-171.815-17.539-3.442 21.98 171.259 17.539 3.998-21.98zm-175.257 4.441 168.594 35.744 3.442-21.98-168.594-35.744-3.442 21.98zm172.036 13.764L162.843 470.45l-4.109 21.98 168.039 16.873 3.442-21.98zm-171.481 5.107 171.481 47.51 4.332-21.868-171.704-47.622-4.109 21.98zm175.813 25.642-172.926-20.203-4.331 21.757 172.925 20.314 4.332-21.868zm-177.257 1.554 135.386 38.963 4.221-21.979-135.276-38.741-4.331 21.757zm139.607 16.984-139.385-13.654-4.776 21.758 139.94 13.875 4.221-21.979zm-144.161 8.104 102.068 35.633 4.886-21.869-102.178-35.522-4.776 21.758zm106.954 13.764-93.959-9.546-6.886 21.646 95.959 9.769 4.886-21.869zm-100.845 12.1 46.202 26.198 6.22-21.98-45.536-25.864-6.886 21.646zm52.422 4.218-44.759-1.665-15.882 21.536 54.421 2.109 6.22-21.98zm-60.641 19.871 2.444 6.882-1.666 2.997 19.436 10.768.111-.111 1.888-24.2-6.331-17.872-15.882 21.536zm93.293-261.309-20.102 1.221 1.222 22.09 20.102-1.221-1.222-22.09z" fill="#389D2D"/><path d="M183.945 185.83v6.66m0-6.66h-19.992m19.992 0c-.111 2.22.444 4.44 0 6.66m0-6.66c-6.664.222-13.439 1.11-19.992 0m19.992 6.66H157.29m26.655 0c-8.885-.444-17.77-.111-26.655 0m0 0 6.663-6.66m-6.663 6.66c1.554-2.775 4.109-4.884 6.663-6.66m46.647-13.321v6.661m0-6.661h-19.991m19.991 0c-.111 2.22.555 4.552 0 6.661m0-6.661c-6.664-.444-13.55 1.887-19.991 0m19.991 6.661h-26.655m26.655 0c-8.774.999-17.881 1.11-26.655 0m0 0 6.664-6.661m-6.664 6.661c2.221-2.109 4.442-4.441 6.664-6.661m46.646-13.321v6.661m0-6.661h-19.991m19.991 0c.222 2.221.333 4.441 0 6.661m0-6.661c-6.664.556-13.327-.222-19.991 0m19.991 6.661H210.6m26.655 0c-8.885.111-17.77.333-26.655 0m0 0 6.664-6.661m-6.664 6.661c2.554-1.887 4.22-4.662 6.664-6.661m46.646-13.32v6.66m0-6.66h-19.991m19.991 0c.667 2.109-.555 4.551 0 6.66m0-6.66c-6.664.111-13.327-.222-19.991 0m19.991 6.66h-26.655m26.655 0c-8.885-.666-17.77-.111-26.655 0m0 0 6.664-6.66m-6.664 6.66c2.666-1.554 5.22-3.885 6.664-6.66m46.646-13.321v6.66m0-6.66h-19.991m19.991 0c.667 2.109-.111 4.44 0 6.66m0-6.66c-6.441-1.665-13.438-1.332-19.991 0m19.991 6.66H263.91m26.655 0c-8.774.999-17.77.222-26.655 0m0 0 6.664-6.66m-6.664 6.66c2.555-1.776 3.888-5.217 6.664-6.66m19.991-6.66h67.916l-6.342-6.661h-54.91m-6.664 6.661 6.664-6.661m-6.664 6.661c22.657.222 45.314 0 67.971 0-2.887-1.332-3.776-5.107-6.441-6.661-18.215.111-36.651-1.998-54.866 0m-6.664 6.661c1.889-2.443 4.554-4.33 6.664-6.661" stroke="#484848" stroke-width="4" stroke-linecap="round" stroke-linejoin="round"/><path d="M297.229 119.226h54.91L243.919 6m53.31 113.226-6.664 6.661m6.664-6.661c18.326.444 36.651-.777 54.866 0-18.992-19.648-37.651-39.629-56.532-59.277C278.237 42.077 262.022 23.095 243.919 6m53.31 113.226c-2.554 1.888-4.442 4.441-6.664 6.661m0 0v6.66m0-6.66c.667 2.109.445 4.44 0 6.66m0 0h-19.991m19.991 0c-6.552-1.11-13.327-.222-19.991 0m0 0-6.664 6.661m6.664-6.661c-2.332 2.109-3.998 5.107-6.664 6.661m0 0v6.66m0-6.66c.667 2.109.334 4.44 0 6.66m0 0h-19.991m19.991 0c-6.663-.111-13.327 0-19.991 0m0 0-6.664 6.66m6.664-6.66c-2.777 1.443-4.109 4.773-6.664 6.66m0 0v6.661m0-6.661c.222 2.22.333 4.441 0 6.661m0 0h-19.991m19.991 0c-6.664.111-13.327.222-19.991 0m0 0-6.664 6.66m6.664-6.66c-2.555 1.887-4.221 4.662-6.664 6.66m0 0v6.66m0-6.66c.222 2.22-.222 4.44 0 6.66m0 0h-19.991m19.991 0c-6.553 1.333-13.439-.888-19.991 0m0 0-6.664 6.661m6.664-6.661c-2.555 1.777-4.554 4.33-6.664 6.661m0 0v6.66m0-6.66c-.556 2.109-.667 4.551 0 6.66m0 0h-19.992m19.992 0c-6.664.222-13.328-.111-19.992 0m0 0-6.663 6.661m6.663-6.661c-1.666 2.664-4.664 4.33-6.663 6.661m0 0v-39.963m0 39.963c-1.444-13.21-.223-26.642 0-39.963m0 0h-53.311m53.311 0c-17.771-.999-35.541.999-53.311 0m0 0L243.919 6m-139.94 146.528c13.994-16.651 28.877-32.636 44.981-47.177 18.658-16.762 34.541-36.3 51.977-54.282C215.376 36.194 229.592 20.986 243.919 6" stroke="#484848" stroke-width="4" stroke-linecap="round" stroke-linejoin="round"/><path d="M157.29 205.811V192.49m0 13.321v93.245m0-93.245c-.222-4.44.222-8.88 0-13.321m0 13.321c-1.222 31.082-1.333 62.164 0 93.245m0-106.566h26.655m-26.655 0c8.885.555 17.881 1.554 26.655 0m0 0v-13.32m0 13.32c1.11-4.329-1.111-8.991 0-13.32m0 0H210.6m-26.655 0c8.774 1.332 17.992-1.887 26.655 0m0 0v-13.321m0 13.321c1-4.33.444-8.881 0-13.321m0 0h26.655m-26.655 0c8.885.999 17.77-.444 26.655 0m0 0v-13.321m0 13.321c.444-4.44 0-8.881 0-13.321m0 0h26.655m-26.655 0c8.885.111 17.77.777 26.655 0m0 0v-13.321m0 13.321c1.666-4.107 1.111-8.991 0-13.321m0 0h26.656m-26.656 0c8.885-.999 17.771-.222 26.656 0m0 0v-13.32m0 13.32c-.667-4.44.333-8.88 0-13.32m0 0h67.915l25.378 26.641m-93.293-26.641c22.545 1.443 45.313-1.666 67.97 0 8.552 8.769 16.104 18.649 25.323 26.641m0 0h-53.311m53.311 0c-17.77.111-35.541.444-53.311 0m0 0v53.283m0-53.283c1 17.761 1 35.522 0 53.283m0 0v93.245m0-93.245c1.666 14.764-1.11 29.75 0 44.625 1.222 16.096-.444 32.414 0 48.62m-173.258 0v6.661m0-6.661c-.556 2.11.333 4.441 0 6.661m173.258-6.661v73.265m0-73.265c-2.11 10.99 1.444 22.424 0 33.524-1.666 13.099 1.999 26.642 0 39.741M157.29 305.717h46.646m-46.646 0c15.549-.333 31.097.111 46.646 0m0 0v13.321m0-13.321c0 4.44.222 8.88 0 13.321m0 0h26.655m-26.655 0c8.774-1.11 17.881-1.554 26.655 0m0 0v13.32m0-13.32c-.333 4.44 0 8.88 0 13.32m0 0h26.656m-26.656 0c8.885.333 17.771-.777 26.656 0m0 0v13.321m0-13.321c-.445 4.441-1.555 9.214 0 13.321m0 0h26.655m-26.655 0c8.885-.333 17.77 0 26.655 0m0 0V359m0-13.321c.444 4.44.888 8.992 0 13.321m0 0h26.655m-26.655 0c8.774-1.332 17.77-.999 26.655 0m0 0v13.321m0-13.321c.444 4.44-1.555 9.213 0 13.321m0 0h19.991m-19.991 0c6.553-1.11 13.439 1.11 19.991 0" stroke="#484848" stroke-width="4" stroke-linecap="round" stroke-linejoin="round"/><path d="M483.815 125.887a6.662 6.662 0 0 1-6.664 6.66m6.664-6.66a6.662 6.662 0 0 0-6.664-6.661m6.664 6.661c.222 3.663-2.999 6.438-6.664 6.66m6.664-6.66c1.111-3.552-2.999-6.105-6.664-6.661m0 13.321a6.662 6.662 0 0 1-6.663-6.66m6.663 6.66c-3.665.222-5.664-3.108-6.663-6.66m0 0a6.662 6.662 0 0 1 6.663-6.661m-6.663 6.661c-1-3.552 2.998-7.216 6.663-6.661m-6.83 6.661H358.314c18.769 1.332 37.761-1.998 56.42 0 18.436 1.998 37.206-1.887 55.643 0M203.936 305.717l-6.663 6.66m6.663-6.66H157.29m46.646 0v13.321m0-13.321c-1.332 2.775-4.442 4.44-6.663 6.66m6.663-6.66c-15.549 1.221-31.097.555-46.646 0m46.646 0c.889 4.329-1.332 9.102 0 13.321m0-13.321c-1.555 2.775-3.998 4.995-6.663 6.66m0 0H157.29m39.983 0v13.321m0-13.321c-13.328.666-26.767 1.887-39.983 0m39.983 0a88.673 88.673 0 0 0 0 13.321m-39.983-13.321v-6.66m0 6.66c-.445-2.22.444-4.44 0-6.66m73.301 13.321-6.663 6.66m6.663-6.66h-26.655m26.655 0v13.32m0-13.32c-2.443 1.998-4.997 3.996-6.663 6.66m6.663-6.66c-8.662 1.776-17.992 1.776-26.655 0m26.655 0c-.222 4.44 1 8.991 0 13.32m0-13.32c-2.11 2.331-4.997 3.996-6.663 6.66m0 0h-26.655m26.655 0v13.321m0-13.321c-8.774 1.221-17.77.111-26.655 0m26.655 0c-.445 4.44.111 8.88 0 13.321m-26.655-13.321 6.663-6.66m-6.663 6.66c2.665-1.665 4.109-4.773 6.663-6.66m-6.663 6.66c1.777-2.553 4.886-4.107 6.663-6.66m53.311 13.32-6.664 6.661m6.664-6.661h-26.656m26.656 0v13.321m0-13.321c-1.888 2.553-3.888 5.107-6.664 6.661m6.664-6.661c-8.885.555-17.993 1.776-26.656 0m26.656 0c.333 4.441-1.111 8.992 0 13.321m0-13.321a94.529 94.529 0 0 1-6.664 6.661m0 0h-26.655m26.655 0v13.32m0-13.32c-8.774-1.443-17.77-.888-26.655 0m26.655 0c-.333 4.44 1.111 8.991 0 13.32m-26.655-13.32 6.663-6.661m-6.663 6.661c2.443-1.998 3.998-4.996 6.663-6.661m-6.663 6.661c1.888-2.442 4.886-3.997 6.663-6.661m53.311 13.321-6.664 6.66m6.664-6.66h-26.655m26.655 0V359m0-13.321c-2.444 1.998-4.443 4.44-6.664 6.66m6.664-6.66c-8.663-1.887-17.881-1.221-26.655 0m26.655 0c-.444 4.44-1.555 9.214 0 13.321m0-13.321c-2.444 1.998-4.998 3.996-6.664 6.66m0 0h-26.655m26.655 0v13.321m0-13.321h-26.655m26.655 0c.222 4.441 1 8.992 0 13.321m-26.655-13.321 6.664-6.66m-6.664 6.66c1.777-2.553 3.776-5.439 6.664-6.66m-6.664 6.66c2.443-1.998 4.331-4.551 6.664-6.66M310.557 359l-6.664 6.66m6.664-6.66h-26.655m26.655 0v13.321m0-13.321c-1.666 2.664-4.776 4.218-6.664 6.66m6.664-6.66c-8.885.777-17.77-.444-26.655 0m26.655 0c-1.333 4.218 0 8.88 0 13.321m0-13.321c-1.444 2.775-4.22 4.662-6.664 6.66m0 0h-26.655m26.655 0v13.321m0-13.321c-8.774-1.443-17.77.666-26.655 0m26.655 0c.556 4.44.333 8.881 0 13.321m-26.655-13.321 6.664-6.66m-6.664 6.66c2.221-2.22 3.776-5.328 6.664-6.66m-6.664 6.66c2.221-2.22 4.554-4.329 6.664-6.66m46.646 13.321v6.66m0-6.66h-19.991m19.991 0c.556 2.109-.111 4.44 0 6.66m0-6.66c-6.552-1.221-13.327-.777-19.991 0m19.991 6.66h-26.655m26.655 0c-8.885-.111-17.77.666-26.655 0m0 0 6.664-6.66m-6.664 6.66c2.221-2.22 5.109-3.885 6.664-6.66m-6.664 6.66c1.222-2.886 3.999-4.995 6.664-6.66M17.35 312.377a6.662 6.662 0 0 1-6.664 6.661m6.664-6.661a6.662 6.662 0 0 0-6.664-6.66m6.664 6.66h139.94c-21.102-.999-42.204.777-63.306 0-25.545-.999-51.09.888-76.634 0zm0 0c1 3.552-2.999 5.884-6.664 6.661m6.664-6.661c-.666-3.663-2.999-6.66-6.664-6.66m0 13.321a6.662 6.662 0 0 1-6.663-6.661m6.663 6.661c-3.554.777-6.997-2.998-6.663-6.661m0 0a6.662 6.662 0 0 1 6.663-6.66m-6.663 6.66c.333-3.663 2.998-6.66 6.663-6.66" stroke="#484848" stroke-width="4" stroke-linecap="round" stroke-linejoin="round"/><path d="M330.548 392.301V378.98m0 13.321v146.528m0-146.528c-1.222-4.218.888-8.992 0-13.321m0 13.321c1.221 24.532.444 49.176 0 73.708-.445 24.31.555 48.51 0 72.82m0-159.849h-26.656m26.656 0c-8.885.111-17.771.333-26.656 0m0 0v-13.321m0 13.321c.334-4.44.778-8.991 0-13.321m0 0h-26.655m26.655 0c-8.885-.888-17.77.999-26.655 0m0 0v-13.32m0 13.32c1.111-4.329-.888-8.991 0-13.32m0 0h-26.655m26.655 0c-8.774-1.443-17.77-.888-26.655 0m0 0v-13.321m0 13.321c-1.333-4.219.444-8.881 0-13.321m0 0h-26.655m26.655 0c-8.774 1.443-17.77.777-26.655 0m0 0v-13.321m0 13.321c.333-4.44-1.444-9.103 0-13.321m0 0h-26.655m26.655 0c-8.885-.666-17.77.999-26.655 0m0 0v-13.321m0 13.321c.444-4.44.111-8.88 0-13.321m0 0h-39.983m39.983 0c-13.328-.666-26.767 1.221-39.983 0m0 0v79.925m0-79.925c1.222 26.642.444 53.283 0 79.925m0 0v146.528m0-146.528c-1.999 25.753-1.222 51.618 0 77.482 1.111 22.979-1.222 46.068 0 69.046m0 0v79.925m0-79.925c1.222 26.642 1.111 53.283 0 79.925m173.259-79.925v6.661m0-6.661c-.111 2.22-.778 4.552 0 6.661m0 0h-33.319m33.319 0c-10.996-1.221-22.213.999-33.319 0m0 0-6.664 6.66m6.664-6.66c-1.777 2.553-5.331 3.774-6.664 6.66m0 0v6.66m0-6.66c-.778 2.109.777 4.551 0 6.66m0 0h-19.992m19.992 0c-6.664.111-13.328 0-19.992 0m0 0-6.663 6.661m6.663-6.661c-2.665 1.776-4.442 4.552-6.663 6.661m0 0v6.66m0-6.66c-.556 2.109-.111 4.44 0 6.66m0 0h-19.992m19.992 0c-6.664.777-13.439.888-19.992 0m0 0-6.664 6.661m6.664-6.661a17.461 17.461 0 0 1-6.664 6.661m0 0v6.66m0-6.66c.111 2.22.111 4.44 0 6.66m0 0h-19.991m19.991 0c-6.663.777-13.327.444-19.991 0m0 0-6.664 6.66m6.664-6.66c-1.555 2.775-4.442 4.44-6.664 6.66m0 0v6.661m0-6.661c-.777 2.109.556 4.552 0 6.661m0 0h-19.991m19.991 0c-6.664-.666-13.438 1.221-19.991 0m0 0-6.664 6.66m6.664-6.66c-2.666 1.776-4.887 4.107-6.664 6.66m0 0v6.66m0-6.66c.333 2.22.555 4.551 0 6.66m0 0h-19.991m19.991 0c-6.664-.333-13.328.333-19.991 0m0 0-6.664 6.661m6.664-6.661c-1.666 2.665-3.999 4.885-6.664 6.661" stroke="#484848" stroke-width="4" stroke-linecap="round" stroke-linejoin="round"/><path d="M397.186 64.834a4.442 4.442 0 0 0 4.443 4.44m-4.443-4.44a4.441 4.441 0 0 1 4.443-4.44m-4.443 4.44c-.444 2.442 1.999 5.106 4.443 4.44m-4.443-4.44c.222-2.442 2.222-5.328 4.443-4.44m0 8.88a4.441 4.441 0 0 0 4.442-4.44m-4.442 4.44c2.443-.666 5.109-1.998 4.442-4.44m0 0a4.441 4.441 0 0 0-4.442-4.44m4.442 4.44c-.666-2.442-2.221-3.552-4.442-4.44m-4.443 43.292v-23.51L392.1 85.28c-.871.871-2.284.871-3.155 0a2.228 2.228 0 0 1 0-3.152l6.487-6.46a6.664 6.664 0 0 1 4.709-1.954h4.575a6.665 6.665 0 0 1 3.71 1.11 13.32 13.32 0 0 1 6.53 11.5v1.82m-17.77 15.541c0 1.226.995 2.22 2.222 2.22m-2.222-2.22c-.666-7.77.889-15.763 0-23.533-1.777 1.554-3.998 2.886-5.109 5.106-.444 1.11-2.221.666-3.109 0-1.111-.666-.889-2.22 0-3.108 2.221-2.22 3.998-4.662 6.441-6.438 1.555-1.11 2.888-1.998 4.665-1.998 1.555 0 3.11-.222 4.665 0 1.332.222 2.443.666 3.776 1.11 4.442 1.554 7.774 6.882 6.441 11.544-.222.444-.222 1.11 0 1.776m-17.77 15.541c0 1.332 1.111 2.664 2.222 2.22m0 0a2.22 2.22 0 0 0 2.221-2.22m-2.221 2.22c1.11-.444 2.665-1.11 2.221-2.22m0 0V90.743a6.657 6.657 0 0 0 1.955 4.707l6.463 6.482a2.231 2.231 0 0 0 3.155 0 2.228 2.228 0 0 0 0-3.152l-6.486-6.46a2.221 2.221 0 0 1-.645-1.577V78.599m-4.442 25.087c-1.333-4.218-1.111-8.88 0-12.876.222 1.776.666 3.33 1.999 4.662 1.999 2.22 4.443 4.218 6.442 6.438.666.888 2.443 1.11 3.109 0 .667-.888.667-1.998 0-3.108-1.554-2.664-5.108-3.774-6.441-6.438a10.7 10.7 0 0 0-.667-1.554c-.666-3.997.223-8.215 0-12.211m0 0a8.88 8.88 0 0 1 4.443 7.726v1.82m-4.443-9.546c2.888 1.554 4.443 4.662 4.443 7.77 0 .666.222 1.11 0 1.776m0 0a2.22 2.22 0 0 0 2.221 2.22m-2.221-2.22c-.444 1.11.888 1.999 2.221 2.22m0 0a2.22 2.22 0 0 0 2.221-2.22m-2.221 2.22c1.333.223 2.666-1.11 2.221-2.22m-8.885 19.982v3.33a8.371 8.371 0 0 0 0-3.33zm0 0c0-.613.498-1.11 1.111-1.11m-1.111 1.11c0-.666.445-.888 1.111-1.11m0 0h12.217m-12.217 0c3.998-.889 8.219.666 12.217 0m0 0v-5.551m0 5.551c0-1.777.444-3.775 0-5.551m0 0c0-.613.497-1.11 1.111-1.11m-1.111 1.11c-.222-.666.444-.888 1.111-1.11m0 0h12.217c-3.999.666-8.219-.888-12.217 0zM78.435 277.966a2.22 2.22 0 0 1-2.221 2.22m2.221-2.22-.007-24.977c0-.919-.745-1.665-1.665-1.665H53.439c-.92 0-1.666.746-1.666 1.665v25.532c0 .919.746 1.665 1.666 1.665h22.775m2.221-2.22c-.444 1.11-.888 2.442-2.221 2.22m2.221-2.22c-1.555-8.215 3.11-17.317 0-24.866-.444-.888-.666-1.776-1.777-1.776-7.552.222-15.549-1.332-23.323 0-.889.222-1.555.666-1.555 1.776.222 8.437 0 16.873 0 25.532 0 .888.666 1.554 1.555 1.554 7.774-.444 15.327-.666 22.879 0m-17.777-25.532v-7.77m6.664 7.77v-7.77m6.664 7.77v-7.77m22.219 22.201v-9.991m0 9.991c-1.11-3.108 1.11-6.882 0-9.991m0 9.991c-1.777-1.776-4.22-3.33-5.553-5.55m5.553 5.55c1.555-2.22 3.332-4.218 5.553-5.55m-5.553-4.441a4.441 4.441 0 0 0-4.442-4.44m4.442 4.44c-.888-2.22-2-4.662-4.442-4.44m0 0h-4.443c1.333-.444 2.888.222 4.442 0zm-1.118 8.881 5.553 5.55 5.553-5.55m-12.738 14.684a12 12 0 0 0 13.327 2.679m-32.797-20.693h-8.885m11.106 6.66H58.437m13.328 6.66H58.437m.007-18.871c0-2.664.666-5.328 0-7.77m6.664 7.77c-.667-2.442.888-5.328 0-7.77m6.663 7.77c.889-2.442-.666-5.328 0-7.77m15.105 31.304c3.554 3.552 9.33 5.994 13.328 2.664m-32.875-20.647a59.35 59.35 0 0 0-8.885 0m11.106 6.66c-3.554-.888-7.552-1.11-11.106 0m13.327 6.66c-4.22.888-9.107 1.332-13.327 0m27.33 8.335a7.217 7.217 0 0 0 7.22 7.215 7.217 7.217 0 1 0 0-14.431 7.218 7.218 0 0 0-7.22 7.216zm17.095 16.087a11.924 11.924 0 0 0-19.991 0c1.777-3.552 5.997-6.439 9.995-5.329 3.999.888 6.664 3.109 9.996 5.329zm-17.104-15.985c-.888 3.774 3.332 6.216 7.33 7.104 3.777.888 5.776-3.552 7.109-7.104 1.332-3.774-3.332-8.215-7.108-7.327-3.999.888-7.553 3.331-7.33 7.327z" stroke="#484848" stroke-width="2" stroke-linecap="round" stroke-linejoin="round"/></svg>