<svg width="361" height="608" fill="none" xmlns="http://www.w3.org/2000/svg"><path d="m115.795 164.388-.821 6.078 16.264 2.382.821-6.078-16.264-2.382zm61.606-24.394 2.957 4.189 19.796-.575-9.364-13.142-13.389 9.528zm22.753 3.614 12.321-19.302-16.921-4.107-15.196 23.984 19.796-.575zm-4.6-23.409 1.15 12.321 16.346-1.561-.575-6.653-16.921-4.107zm36.717-7.31-.247.822 13.964 11.745 2.218-8.542-15.935-4.025zm13.717 12.567 19.549-8.706-19.549-9.282-13.964 6.243 13.964 11.745zm0-17.988 5.503 20.206 15.854-4.354-1.808-6.57-19.549-9.282z" fill="#EBEBEB"/><path d="m259.213 107.222-.164-.329-21.193-3.285 7.229 11.992 14.128-8.378zm-21.357-3.614-10.514 9.199 18.236 5.914 13.471-11.828-21.193-3.285zm7.722 15.113-6.9-30.308-17.414-2.546 6.078 26.94 18.236 5.914zm-24.314-32.854-15.607 27.761 16.921 3.286 16.1-28.501-17.414-2.546zm1.314 31.047-6.243-48.789-16.592-.082 5.914 45.585 16.921 3.286zm-22.835-48.87-7.721 54.537 16.674-.657 7.639-53.799-16.592-.082zm8.953 53.88-18.481-83.039-16.428 1.643 18.235 82.053 16.674-.657zm-34.909-81.396-1.561 93.059 16.428-.657 1.561-94.045-16.428 1.643zm14.867 92.402-7.885-87.803-16.428.33 7.885 88.13 16.428-.657zm-24.313-87.474-4.929 101.684 16.51-1.068 4.847-100.945-16.428.33zm11.581 100.616-14.867-81.971-16.592.739 14.949 82.3 16.51-1.068zM144.463 64.84l-7.722 85.092 16.593-.739 7.721-85.092-16.592.739zm8.871 84.353-11.993-69.322-16.51.821 11.91 69.24 16.593-.739zm-28.503-68.5-5.503 82.216 16.51-.574 5.503-82.464-16.51.821zm11.007 81.642-8.707-63.984-16.675-.821 8.872 65.379 16.51-.574zM110.456 97.53l-10.185 43.614 16.674.739 10.186-43.532-16.675-.821zm6.489 44.353-4.353-30.062-17.003-2.792 4.682 32.115 16.674.739zm-21.356-32.854-13.8 27.433 16.182 4.271 14.621-28.912-17.003-2.792zm2.382 31.704.657-13.552-16.346-.822-.493 10.103 16.182 4.271z" fill="#389D2D"/><path d="m115.796 253.669 3.367 3.449 14.868-8.213-6.489-6.735-11.746 11.499zm18.235-4.764-9.118-38.193-15.196 7.228 9.446 39.178 14.868-8.213zm-24.314-30.965 29.489 38.685 14.21-8.377-28.503-37.536-15.196 7.228zm43.699 30.308-27.106-62.752-14.457 8.05 27.353 63.079 14.21-8.377zm-41.563-54.702 51.338 73.182 14.128-8.46-51.009-72.772-14.457 8.05zm65.466 64.722-44.931-89.527-14.046 8.706 44.849 89.281 14.128-8.46zm-58.977-80.821 81.73 108.583 13.964-8.789-81.648-108.5-14.046 8.706zm95.694 99.794-63.824-121.642-14.046 8.542 63.906 121.889 13.964-8.789zm-77.87-113.1 95.201 137.577 13.964-8.624-95.119-137.495-14.046 8.542zm109.165 128.953-78.526-144.887-13.964 8.788 78.526 144.723 13.964-8.624zm-92.49-136.099 85.18 118.768 13.799-9.035-85.015-118.521-13.964 8.788zm98.979 109.733-69.983-118.767-13.554 9.363 69.738 118.439 13.799-9.035zm-83.537-109.404 64.891 81.478 13.882-8.953-65.219-81.888-13.554 9.363zm78.773 72.525-48.627-93.798-13.882 8.871 48.627 93.88 13.882-8.953zm-62.509-84.927 51.338 65.133 14.046-8.624-51.502-65.38-13.882 8.871zm65.384 56.509-32.856-71.54-14.128 8.624 32.938 71.54 14.046-8.624zm-46.984-62.916L236.46 181.8l14.785-7.72-34.17-44.189-14.128 8.624zm48.298 35.565-18.071-57.413-15.196 6.324L236.46 181.8l14.785-7.72zm-33.267-51.089 13.307 25.216 17.578-1.971-15.689-29.569-15.196 6.324zm30.885 23.245 6.9-25.791-17.989 3.778-6.489 23.984 17.578-1.971zm-11.089-22.013 13.553 13.881 13.471 4.518 5.093.739 6.161 1.478 3.778-15.934-4.435-1.068-11.336.083-1.971.492-6.325-7.967-17.989 3.778zM165.737 265.25l7.885 11.745 13.636-9.199-7.968-11.745-13.553 9.199z" fill="#EFEFEE"/><path d="m246.071 311.328.657-2.218-11.829-16.92-4.517 14.128 15.689 5.01zm-11.172-19.138-17.167-.657 7.721 16.674 21.275.903-11.829-16.92zm-9.446 16.017 8.379-10.678-8.789-15.359-7.311 9.363 7.721 16.674zm-.41-26.037-27.025 3.86 12.157 14.867 23.657-3.368-8.789-15.359zm-14.868 18.727 5.668-15.935-13.471-11.006-4.354 12.074 12.157 14.867zm-7.803-26.941-23.575 14.456 12.65 11.499 24.396-14.949-13.471-11.006zm-10.925 25.955 7.557-15.606-11.253-14.373-8.954 18.48 12.65 11.499zm-3.696-29.979-21.603 4.599 10.185 14.62 22.671-4.846-11.253-14.373zm-11.418 19.219 5.832-9.281-8.296-17.659-7.721 12.32 10.185 14.62zm-2.464-26.94-20.781-2.875 4.928 17.249 24.149 3.285-8.296-17.659zm-15.853 14.374 7.803-6.407-6.653-15.852-6.078 5.01 4.928 17.249zm1.15-22.259-21.767 2.218 13.799 15.112 14.621-1.478-6.653-15.852zm-7.968 17.33 3.532-18.069-14.621-11.006-2.71 13.963 13.799 15.112zm-11.089-29.075-21.603 10.924 12.896 11.909 23.328-11.827-14.621-11.006zm-8.707 22.833 3.779-9.363-15.196-6.243-1.479 3.697 12.896 11.909z" fill="#EBEBEB"/><path d="m148.734 257.283-6.9-2.218-7.474 14.866 9.281 2.957 5.093-15.605zm-14.374 12.648 28.913 20.616 6.407-15.605-27.846-19.877-7.474 14.866zm35.32 5.011-46.574-7.557-3.86 16.017 44.027 7.145 6.407-15.605zm-50.434 8.46 100.786 33.264 3.614-16.098-100.54-33.183-3.86 16.017zm104.4 17.166L121.464 287.18l-3.204 16.18 101.772 13.306 3.614-16.098zM118.26 303.36l121.322 31.376 3.121-16.098-121.239-31.458-3.204 16.18zm124.443 15.278-125.921-15.77-3.204 16.098 126.004 15.77 3.121-16.098zm-129.125.328 129.371 35.483 2.875-16.181-129.042-35.4-3.204 16.098zm132.246 19.302-129.782-11.17-2.3 16.262 129.207 11.089 2.875-16.181zm-132.082 5.092 131.343 25.627 2.382-16.263-131.425-25.626-2.3 16.262zm133.725 9.364-128.221-12.403-2.875 16.263 128.714 12.403 2.382-16.263zm-131.096 3.86 127.318 33.347 2.957-16.263-127.4-33.347-2.875 16.263zm130.275 17.084-127.072-12.977-2.546 16.263 126.661 12.977 2.957-16.263zm-129.618 3.286 124.689 26.447 2.547-16.263-124.69-26.447-2.546 16.263zm127.236 10.184-123.786-12.484-3.039 16.263 124.278 12.484 2.547-16.263zm-126.825 3.779 126.825 35.154 3.203-16.181-126.989-35.236-3.039 16.263zm130.028 18.973-127.893-14.949-3.203 16.099 127.893 15.031 3.203-16.181zm-131.096 1.15L216.5 439.869l3.121-16.262-100.047-28.666-3.203 16.099zm103.25 12.567-103.086-10.103-3.532 16.098L216.5 439.869l3.121-16.262zm-106.618 5.995 75.487 26.366 3.614-16.181-75.569-26.283-3.532 16.098zm79.101 10.185-69.491-7.063-5.092 16.016 70.969 7.228 3.614-16.181zm-74.583 8.953 34.17 19.384 4.6-16.263-33.678-19.137-5.092 16.016zm38.77 3.121-33.103-1.232-11.746 15.934 40.249 1.561 4.6-16.263zm-44.849 14.702 1.807 5.093-1.232 2.217 14.375 7.967.082-.082 1.396-17.905-4.682-13.224-11.746 15.934zm68.998-193.346-14.867.903.904 16.345 14.867-.903-.904-16.345z" fill="#389D2D"/><path d="m250.506 429.274-1.314-5.01-15.854 4.189 1.315 5.01 15.853-4.189zm-32.364 14.866-4.189-11.499-15.442 5.586 4.189 11.416 15.442-5.503zm-83.208 37.947-7.475-8.953-12.649 10.431 7.392 9.035 12.732-10.513z" fill="#EBEBEB"/><path d="m243.442 601.758 2.875-4.928-8.954-17.084-8.049 13.634 14.128 8.378zm-6.079-22.012-17.742-1.314 5.832 16.837 20.864 1.561-8.954-17.084zm-11.91 15.523 21.603-19.794-7.557-15.359-19.878 18.316 5.832 16.837zm14.046-35.153-35.977 6.57 8.789 15.113 34.745-6.324-7.557-15.359zm-27.188 21.683 32.609-38.932-11.089-12.402-30.309 36.221 8.789 15.113zm21.52-51.334-44.027 28.911 10.76 12.649 44.356-29.158-11.089-12.402zm-33.267 41.56 49.449-53.798-11.007-12.321-49.202 53.47 10.76 12.649zm38.442-66.119-68.012 49.446 11.5 11.991 67.519-49.116-11.007-12.321zm-56.512 61.437 62.755-79.671-12.075-11.17-62.18 78.85 11.5 11.991zm50.68-90.841-81.565 75.236 11.91 11.334 81.73-75.4-12.075-11.17zm-69.655 86.57 83.537-100.122-11.828-11.417-83.619 100.205 11.91 11.334zm71.709-111.539L137.563 539.5l11.91 11.416 97.583-87.966-11.828-11.417zm-85.755 99.383 92.08-111.457-12.157-11.088L137.563 539.5l11.91 11.416zm79.923-122.545L114.974 542.046l11.993 11.252 114.586-113.839-12.157-11.088zM126.967 553.298l77.376-88.049-10.925-12.402-78.444 89.199 11.993 11.252zm66.451-100.451-83.044 55.688 10.268 12.895 83.701-56.181-10.925-12.402zm-72.776 68.583 40.413-37.864-9.611-13.471-41.07 38.44 10.268 12.895zm30.802-51.335-37.374 19.959 13.061 11.663 33.924-18.151-9.611-13.471zm-24.313 31.622 4.107-10.513-15.278-5.996-1.89 4.846 13.061 11.663zm73.516-38.767 10.678-6.325-8.378-14.127-10.679 6.324 8.379 14.128z" fill="#EFEFEE"/><path d="m245.742 609.561-1.643-1.397-9.364-13.88-15.524-7.228 9.364 20.698.739.246v.904l16.428.657zm-17.167-1.807 7.803-19.302-13.142-11.335-4.025 9.939 9.364 20.698zm-5.339-30.637-27.435 16.099 13.635 11.088 26.942-15.852-13.142-11.335zm-13.8 27.187 6.489-19.384-13.142-12.484-6.982 20.78 13.635 11.088zm-6.653-31.868-21.275 8.377 11.007 13.306 23.41-9.199-13.142-12.484zm-10.268 21.683 8.379-13.141-9.775-15.36-9.611 15.195 11.007 13.306zm-1.396-28.501-27.353 3.45 11.828 15.031 25.3-3.121-9.775-15.36zm-15.525 18.481 4.189-11.088-11.006-17.249-5.011 13.306 11.828 15.031zm-6.817-28.337-14.539-.985 8.132 17.002 17.413 1.232-11.006-17.249zm-6.407 16.017 5.175-7.393-9.447-15.03-3.86 5.421 8.132 17.002zm-4.272-22.423-21.11 3.449 12.075 14.62 18.482-3.039-9.447-15.03zm-9.035 18.069 4.435-12.073-12.238-14.21-4.272 11.663 12.075 14.62zm-7.803-26.283-26.532 5.75 9.775 14.702 28.995-6.242-12.238-14.21zm-16.757 20.452 10.76-15.195-13.471-9.528-7.064 10.021 9.775 14.702z" fill="#EBEBEB"/><path d="m238.431 723.072 3.861-2.464-5.75-15.934-6.982 4.517 8.871 13.881zm-1.889-18.398-32.938 3.942 5.257 15.934 33.431-3.942-5.75-15.934zm-27.681 19.876 36.799-21.108-6.982-14.867-35.074 20.041 5.257 15.934zm29.817-35.975-66.041 25.052L180.933 728l64.727-24.558-6.982-14.867zM180.933 728l68.423-55.113-9.2-13.634-67.519 54.374L180.933 728zm59.223-68.747-95.94 54.209 8.953 13.799 96.187-54.374-9.2-13.634zm-86.987 68.008 95.283-69.815-8.706-14.045-95.53 70.061 8.953 13.799zm86.577-83.86-123.047 63.983 8.789 13.963 122.964-63.901-8.706-14.045zm-114.258 77.946 118.447-89.034-8.954-13.799-118.282 88.87 8.789 13.963zm109.493-102.833-123.21 69.24 9.035 13.799 123.129-69.24-8.954-13.799zm-114.175 83.039 121.239-92.485-9.199-13.634-121.075 92.32 9.035 13.799zm112.04-106.119-121.24 71.129 9.2 13.634 121.239-71.129-9.199-13.634zm-112.04 84.763 104.236-79.014-8.706-13.963-104.73 79.343 9.2 13.634zm95.53-92.977-104.073 52.32 8.297 14.21 104.482-52.567-8.706-13.963zm-95.776 66.53 85.837-57.741-8.297-14.21-85.837 57.741 8.297 14.21zm77.54-71.951-84.112 42.3 8.789 13.963 83.62-42.053-8.297-14.21zm-75.323 56.263 64.152-49.61-7.885-14.702-65.056 50.349 8.789 13.963zm56.267-64.312-61.934 21.191 7.885 14.62 61.934-21.109-7.885-14.702zm-54.049 35.811 45.26-35.318-7.886-14.702-45.259 35.4 7.885 14.62zm37.374-50.02L116.042 574.9l7.064 14.949 47.149-15.606-7.886-14.702zm-39.263 30.308 25.299-15.77-3.285-17.331-29.078 18.152 7.064 14.949zm22.014-33.101-30.064-5.421-.082 16.674 33.431 6.078-3.285-17.331zm-30.146 11.253 7.968-1.314-2.711-16.181-5.175.821-.082 16.674z" fill="#389D2D"/><path d="M136.084 164.059v4.928m0-4.928h-14.785m14.785 0c-.082 1.642.329 3.285 0 4.928m0-4.928c-4.928.164-9.939.821-14.785 0m14.785 4.928H116.37m19.714 0c-6.571-.329-13.142-.082-19.714 0m0 0 4.929-4.928m-4.929 4.928c1.15-2.054 3.04-3.614 4.929-4.928m34.499-9.857v4.928m0-4.928h-14.785m14.785 0c-.082 1.643.411 3.368 0 4.928m0-4.928c-4.928-.328-10.021 1.397-14.785 0m14.785 4.928h-19.714m19.714 0c-6.489.74-13.225.822-19.714 0m0 0 4.929-4.928m-4.929 4.928c1.643-1.56 3.286-3.285 4.929-4.928m34.499-9.856v4.928m0-4.928h-14.786m14.786 0c.164 1.643.246 3.285 0 4.928m0-4.928c-4.929.411-9.857-.164-14.786 0m14.786 4.928h-19.714m19.714 0c-6.572.082-13.143.247-19.714 0m0 0 4.928-4.928m-4.928 4.928c1.889-1.396 3.121-3.449 4.928-4.928m34.499-9.856v4.928m0-4.928H180.44m14.785 0c.493 1.56-.41 3.367 0 4.928m0-4.928c-4.928.082-9.856-.164-14.785 0m14.785 4.928h-19.713m19.713 0c-6.571-.493-13.142-.082-19.713 0m0 0 4.928-4.928m-4.928 4.928c1.971-1.15 3.86-2.875 4.928-4.928m34.499-9.856v4.928m0-4.928h-14.785m14.785 0c.493 1.56-.082 3.285 0 4.928m0-4.928c-4.764-1.232-9.939-.986-14.785 0m14.785 4.928h-19.714m19.714 0c-6.489.739-13.142.164-19.714 0m0 0 4.929-4.928m-4.929 4.928c1.89-1.314 2.875-3.861 4.929-4.928m14.785-4.928h50.229l-4.69-4.929h-40.61m-4.929 4.929 4.929-4.929m-4.929 4.929c16.757.164 33.513 0 50.27 0-2.136-.986-2.793-3.779-4.764-4.929-13.471.083-27.106-1.478-40.577 0m-4.929 4.929c1.397-1.807 3.368-3.204 4.929-4.929" stroke="#484848" stroke-width="4" stroke-linecap="round" stroke-linejoin="round"/><path d="M219.868 114.778h40.61L180.44 31m39.428 83.778-4.929 4.928m4.929-4.928c13.553.329 27.106-.575 40.577 0-14.046-14.538-27.846-29.322-41.81-43.86C205.821 57.694 193.829 43.648 180.44 31m39.428 83.778c-1.89 1.396-3.286 3.285-4.929 4.928m0 0v4.928m0-4.928c.493 1.561.329 3.285 0 4.928m0 0h-14.785m14.785 0c-4.846-.821-9.857-.164-14.785 0m0 0-4.929 4.928m4.929-4.928c-1.725 1.561-2.957 3.778-4.929 4.928m0 0v4.928m0-4.928c.493 1.561.247 3.286 0 4.928m0 0H180.44m14.785 0c-4.928-.082-9.857 0-14.785 0m0 0-4.928 4.929m4.928-4.929c-2.053 1.068-3.039 3.532-4.928 4.929m0 0v4.928m0-4.928c.164 1.642.246 3.285 0 4.928m0 0h-14.786m14.786 0c-4.929.082-9.857.164-14.786 0m0 0-4.928 4.928m4.928-4.928c-1.889 1.396-3.121 3.449-4.928 4.928m0 0v4.928m0-4.928c.164 1.642-.164 3.285 0 4.928m0 0h-14.785m14.785 0c-4.846.986-9.939-.657-14.785 0m0 0-4.929 4.928m4.929-4.928c-1.89 1.314-3.368 3.203-4.929 4.928m0 0v4.928m0-4.928c-.411 1.561-.493 3.368 0 4.928m0 0h-14.785m14.785 0c-4.928.164-9.857-.082-14.785 0m0 0-4.929 4.928m4.929-4.928c-1.232 1.971-3.45 3.203-4.929 4.928m0 0v-29.568m0 29.568c-1.067-9.774-.164-19.712 0-29.568m0 0H76.943m39.427 0c-13.142-.74-26.285.739-39.427 0m0 0L180.44 31M76.943 139.419c10.35-12.321 21.356-24.148 33.267-34.908 13.8-12.402 25.546-26.858 38.442-40.164C159.33 53.34 169.844 42.088 180.44 31" stroke="#484848" stroke-width="4" stroke-linecap="round" stroke-linejoin="round"/><path d="M116.37 178.843v-9.856m0 9.856v68.994m0-68.994c-.164-3.285.165-6.571 0-9.856m0 9.856c-.903 22.998-.985 45.996 0 68.994m0-78.85h19.714m-19.714 0c6.572.411 13.225 1.15 19.714 0m0 0v-9.856m0 9.856c.822-3.203-.821-6.653 0-9.856m0 0h19.714m-19.714 0c6.489.985 13.307-1.397 19.714 0m0 0v-9.856m0 9.856c.739-3.203.328-6.571 0-9.856m0 0h19.714m-19.714 0c6.571.739 13.142-.329 19.714 0m0 0v-9.857m0 9.857c.328-3.286 0-6.571 0-9.857m0 0h19.713m-19.713 0c6.571.082 13.142.575 19.713 0m0 0v-9.856m0 9.856c1.232-3.039.822-6.653 0-9.856m0 0h19.714m-19.714 0c6.572-.739 13.143-.164 19.714 0m0 0v-9.856m0 9.856c-.493-3.285.246-6.571 0-9.856m0 0h50.229l18.769 19.712m-68.998-19.712c16.675 1.068 33.513-1.232 50.27 0 6.325 6.489 11.91 13.799 18.728 19.712m0 0H244.51m39.427 0c-13.142.082-26.285.329-39.427 0m0 0v39.425m0-39.425a350.825 350.825 0 0 1 0 39.425m0 0v68.994m0-68.994c1.232 10.924-.822 22.013 0 33.019.903 11.909-.329 23.983 0 35.975m-128.14 0v4.928m0-4.928c-.41 1.56.247 3.285 0 4.928m128.14-4.928v54.209m0-54.209c-1.561 8.131 1.067 16.591 0 24.805-1.232 9.692 1.478 19.712 0 29.404m-128.14-49.281h34.499m-34.499 0c11.5-.246 23 .082 34.499 0m0 0v9.856m0-9.856c0 3.285.165 6.571 0 9.856m0 0h19.714m-19.714 0c6.49-.821 13.225-1.15 19.714 0m0 0v9.856m0-9.856c-.246 3.286 0 6.571 0 9.856m0 0h19.714m-19.714 0c6.571.247 13.143-.574 19.714 0m0 0v9.857m0-9.857c-.329 3.286-1.15 6.818 0 9.857m0 0h19.714m-19.714 0c6.571-.247 13.142 0 19.714 0m0 0v9.856m0-9.856c.328 3.285.657 6.653 0 9.856m0 0h19.713m-19.713 0c6.489-.986 13.142-.739 19.713 0m0 0v9.856m0-9.856c.329 3.285-1.15 6.817 0 9.856m0 0h14.786m-14.786 0c4.847-.821 9.939.822 14.786 0" stroke="#484848" stroke-width="4" stroke-linecap="round" stroke-linejoin="round"/><path d="M357.863 119.706a4.928 4.928 0 0 1-4.928 4.928m4.928-4.928a4.928 4.928 0 0 0-4.928-4.928m4.928 4.928c.165 2.71-2.218 4.764-4.928 4.928m4.928-4.928c.822-2.628-2.218-4.518-4.928-4.928m0 9.856a4.928 4.928 0 0 1-4.929-4.928m4.929 4.928c-2.711.164-4.189-2.3-4.929-4.928m0 0a4.928 4.928 0 0 1 4.929-4.928m-4.929 4.928c-.739-2.628 2.218-5.339 4.929-4.928m-5.052 4.928h-82.839c13.882.986 27.928-1.479 41.728 0 13.635 1.478 27.517-1.396 41.152 0M150.87 252.765l-4.929 4.928m4.929-4.928h-34.499m34.499 0v9.856m0-9.856c-.986 2.054-3.286 3.286-4.929 4.928m4.929-4.928c-11.5.904-23 .411-34.499 0m34.499 0c.657 3.203-.986 6.735 0 9.856m0-9.856c-1.15 2.054-2.957 3.696-4.929 4.928m0 0h-29.57m29.57 0v9.856m0-9.856c-9.857.493-19.796 1.397-29.57 0m29.57 0a65.906 65.906 0 0 0 0 9.856m-29.57-9.856v-4.928m0 4.928c-.329-1.642.328-3.285 0-4.928m54.212 9.856-4.928 4.928m4.928-4.928H150.87m19.713 0v9.857m0-9.857c-1.807 1.479-3.696 2.957-4.928 4.928m4.928-4.928c-6.407 1.315-13.306 1.315-19.713 0m19.713 0c-.164 3.286.74 6.653 0 9.857m0-9.857c-1.56 1.725-3.696 2.957-4.928 4.928m0 0h-19.714m19.714 0v9.857m0-9.857c-6.489.904-13.143.083-19.714 0m19.714 0c-.329 3.286.082 6.571 0 9.857m-19.714-9.857 4.929-4.928m-4.929 4.928c1.972-1.232 3.039-3.531 4.929-4.928m-4.929 4.928c1.314-1.889 3.614-3.039 4.929-4.928m39.427 9.857-4.928 4.928m4.928-4.928h-19.714m19.714 0v9.856m0-9.856c-1.396 1.889-2.875 3.778-4.928 4.928m4.928-4.928c-6.571.41-13.307 1.314-19.714 0m19.714 0c.247 3.285-.821 6.653 0 9.856m0-9.856a70.063 70.063 0 0 1-4.928 4.928m0 0h-19.714m19.714 0v9.856m0-9.856c-6.489-1.068-13.143-.657-19.714 0m19.714 0c-.247 3.285.821 6.653 0 9.856m-19.714-9.856 4.928-4.928m-4.928 4.928c1.807-1.479 2.957-3.696 4.928-4.928m-4.928 4.928c1.396-1.807 3.614-2.957 4.928-4.928m39.428 9.856-4.929 4.928m4.929-4.928h-19.714m19.714 0v9.856m0-9.856c-1.807 1.478-3.286 3.285-4.929 4.928m4.929-4.928c-6.407-1.396-13.225-.904-19.714 0m19.714 0c-.329 3.285-1.15 6.817 0 9.856m0-9.856c-1.807 1.478-3.697 2.957-4.929 4.928m0 0h-19.713m19.713 0v9.856m0-9.856h-19.713m19.713 0c.165 3.285.74 6.653 0 9.856m-19.713-9.856 4.928-4.928m-4.928 4.928c1.314-1.889 2.792-4.025 4.928-4.928m-4.928 4.928c1.807-1.478 3.203-3.368 4.928-4.928m39.428 9.856-4.929 4.928m4.929-4.928h-19.714m19.714 0v9.856m0-9.856c-1.233 1.971-3.533 3.121-4.929 4.928m4.929-4.928c-6.572.575-13.143-.328-19.714 0m19.714 0c-.986 3.121 0 6.571 0 9.856m0-9.856c-1.068 2.053-3.122 3.45-4.929 4.928m0 0h-19.714m19.714 0v9.856m0-9.856c-6.489-1.068-13.142.493-19.714 0m19.714 0c.411 3.286.247 6.571 0 9.856m-19.714-9.856 4.929-4.928m-4.929 4.928c1.643-1.643 2.793-3.942 4.929-4.928m-4.929 4.928c1.643-1.643 3.368-3.203 4.929-4.928m34.499 9.856v4.928m0-4.928h-14.785m14.785 0c.411 1.561-.082 3.286 0 4.928m0-4.928c-4.846-.903-9.857-.575-14.785 0m14.785 4.928h-19.714m19.714 0c-6.571-.082-13.143.493-19.714 0m0 0 4.929-4.928m-4.929 4.928c1.643-1.642 3.779-2.874 4.929-4.928m-4.929 4.928c.904-2.135 2.957-3.696 4.929-4.928M12.873 257.693a4.928 4.928 0 0 1-4.928 4.928m4.928-4.928a4.929 4.929 0 0 0-4.928-4.928m4.928 4.928h103.498c-15.607-.739-31.214.575-46.82 0-18.893-.739-37.785.657-56.678 0zm0 0c.74 2.629-2.217 4.353-4.928 4.928m4.928-4.928c-.492-2.71-2.217-4.928-4.928-4.928m0 9.856a4.928 4.928 0 0 1-4.928-4.928m4.928 4.928c-2.628.575-5.175-2.217-4.928-4.928m0 0a4.929 4.929 0 0 1 4.928-4.928m-4.928 4.928c.246-2.71 2.217-4.928 4.928-4.928" stroke="#484848" stroke-width="4" stroke-linecap="round" stroke-linejoin="round"/><path d="M244.509 316.83v-9.856m0 9.856v108.419m0-108.419c-.903-3.121.657-6.653 0-9.856m0 9.856c.904 18.152.329 36.386 0 54.538-.328 17.987.411 35.893 0 53.881m0-118.275h-19.714m19.714 0c-6.571.082-13.142.246-19.714 0m0 0v-9.856m0 9.856c.247-3.286.575-6.653 0-9.856m0 0h-19.713m19.713 0c-6.571-.658-13.142.739-19.713 0m0 0v-9.857m0 9.857c.821-3.204-.657-6.653 0-9.857m0 0h-19.714m19.714 0c-6.489-1.067-13.143-.657-19.714 0m0 0v-9.856m0 9.856c-.986-3.121.329-6.571 0-9.856m0 0h-19.714m19.714 0c-6.489 1.068-13.143.575-19.714 0m0 0v-9.856m0 9.856c.247-3.285-1.068-6.735 0-9.856m0 0h-19.713m19.713 0c-6.571-.493-13.142.739-19.713 0m0 0v-9.856m0 9.856c.328-3.286.082-6.571 0-9.856m0 0H116.37m29.571 0c-9.857-.493-19.796.903-29.571 0m0 0v59.137m0-59.137c.903 19.712.328 39.425 0 59.137m0 0v108.419m0-108.419c-1.479 19.055-.904 38.193 0 57.33.821 17.002-.904 34.087 0 51.089m0 0v59.137m0-59.137c.903 19.712.821 39.424 0 59.137m128.139-59.137v4.928m0-4.928c-.082 1.642-.575 3.367 0 4.928m0 0h-24.642m24.642 0c-8.132-.904-16.428.739-24.642 0m0 0-4.928 4.928m4.928-4.928c-1.314 1.889-3.943 2.792-4.928 4.928m0 0v4.928m0-4.928c-.575 1.56.575 3.367 0 4.928m0 0h-14.786m14.786 0c-4.929.082-9.857 0-14.786 0m0 0-4.928 4.928m4.928-4.928c-1.971 1.314-3.285 3.367-4.928 4.928m0 0v4.928m0-4.928c-.411 1.561-.082 3.285 0 4.928m0 0H180.44m14.785 0c-4.929.575-9.939.657-14.785 0m0 0-4.929 4.928m4.929-4.928a12.906 12.906 0 0 1-4.929 4.928m0 0v4.928m0-4.928a49.39 49.39 0 0 1 0 4.928m0 0h-14.785m14.785 0c-4.928.575-9.857.329-14.785 0m0 0-4.929 4.928m4.929-4.928c-1.15 2.054-3.286 3.286-4.929 4.928m0 0v4.929m0-4.929c-.575 1.561.411 3.368 0 4.929m0 0h-14.785m14.785 0c-4.928-.493-9.939.903-14.785 0m0 0-4.928 4.928m4.928-4.928c-1.971 1.314-3.614 3.039-4.928 4.928m0 0v4.928m0-4.928c.246 1.642.41 3.367 0 4.928m0 0h-14.786m14.786 0c-4.929-.247-9.857.246-14.786 0m0 0-4.928 4.928m4.928-4.928c-1.232 1.971-2.957 3.614-4.928 4.928" stroke="#484848" stroke-width="4" stroke-linecap="round" stroke-linejoin="round"/><path d="M244.51 430.177v4.928m0-4.928h-24.642m24.642 0c.082 1.643.246 3.286 0 4.928m0-4.928c-8.214.575-16.51-.985-24.642 0m24.642 4.928h-29.571m29.571 0c-9.857.329-19.714.247-29.571 0m0 0 4.929-4.928m-4.929 4.928c1.479-1.807 3.779-2.874 4.929-4.928m-4.929 9.856v4.929m0-4.929h-14.785m14.785 0c.165 1.643-.164 3.286 0 4.929m0-4.929c-4.928.247-9.939-.821-14.785 0m14.785 4.929h-19.713m19.713 0c-6.325 1.642-13.142.164-19.713 0m0 0 4.928-4.929m-4.928 4.929c1.56-1.725 3.285-3.286 4.928-4.929m-64.07 39.425v4.929m0-4.929h-14.785m14.785 0c.165 1.643.493 3.368 0 4.929m0-4.929c-4.846.904-9.939.986-14.785 0m14.785 4.929h-19.713m19.713 0c-6.489-.904-13.142.41-19.713 0m0 0 4.928-4.929m-4.928 4.929c1.396-1.89 2.792-3.943 4.928-4.929m34.499-9.856v4.928m0-4.928h-14.785m14.785 0c-.082 1.643.246 3.286 0 4.928m0-4.928c-4.928-.575-9.857-.082-14.785 0m14.785 4.928h-19.714m19.714 0c-6.571.165-13.142.657-19.714 0m0 0 4.929-4.928m-4.929 4.928c2.054-1.15 3.286-3.285 4.929-4.928m34.499-9.856v4.928m0-4.928h-14.786m14.786 0c-.493 1.561.657 3.45 0 4.928m0-4.928c-4.847-.821-9.939-.657-14.786 0m14.786 4.928h-19.714m19.714 0c-6.571-.082-13.143.657-19.714 0m0 0 4.928-4.928m-4.928 4.928c1.971-1.232 2.957-3.614 4.928-4.928m34.5-9.856v4.928m0-4.928H180.44m14.786 0c.082 1.642 0 3.285 0 4.928m0-4.928c-4.929-.329-9.857-.082-14.786 0m14.786 4.928h-19.714m19.714 0c-6.572.493-13.307-1.396-19.714 0m0 0 4.928-4.928m-4.928 4.928c1.807-1.479 2.957-3.696 4.928-4.928" stroke="#484848" stroke-width="4" stroke-linecap="round" stroke-linejoin="round"/><path d="M357.863 435.105a4.928 4.928 0 0 1-4.928 4.929m4.928-4.929a4.928 4.928 0 0 0-4.928-4.928m4.928 4.928c.493 2.711-2.218 4.518-4.928 4.929m4.928-4.929c-.821-2.628-2.218-4.517-4.928-4.928m0 9.857a4.93 4.93 0 0 1-4.929-4.929m4.929 4.929c-2.711.41-5.175-2.218-4.929-4.929m0 0a4.93 4.93 0 0 1 4.929-4.928m-4.929 4.928H244.509c16.51.575 33.021-.821 49.531 0 17.907.904 35.977-.082 53.966 0zm0 0c.247-2.71 2.218-5.338 4.929-4.928" stroke="#484848" stroke-width="4" stroke-linecap="round" stroke-linejoin="round"/><path d="M116.37 543.524v4.928m0-4.928v-49.282m0 49.282c.329 1.642-.411 3.367 0 4.928m0-4.928c1.068-16.427-.575-32.854 0-49.282m0 54.21h34.499m-34.499 0c11.5.328 22.999-.493 34.499 0m0 0v9.856m0-9.856c-.821 3.203-.904 6.735 0 9.856m0 0h19.714m-19.714 0c6.571.575 13.143-.082 19.714 0m0 0v9.856m0-9.856c.575 3.203.903 6.653 0 9.856m0 0h19.713m-19.713 0c6.489-.985 13.142.329 19.713 0m0 0v9.856m0-9.856c1.233 3.039.083 6.571 0 9.856m0 0h19.714m-19.714 0c6.572.575 13.143.329 19.714 0m0 0v9.857m0-9.857c.493 3.286.164 6.571 0 9.857m0 0h19.714m-19.714 0c6.407 1.396 13.225 1.232 19.714 0m0 0v9.856m0-9.856c0 3.285.903 6.735 0 9.856m0 0h14.785m-14.785 0c4.846.903 9.857 0 14.785 0m0 0v-54.209m0 54.209c.575-18.07-.739-36.14 0-54.209m0 0v-49.282m0 49.282c.411-16.427.904-32.854 0-49.282m-128.139 0v-9.856m0 9.856c-1.232-3.039.082-6.57 0-9.856m128.139 9.856v-59.137m0 59.137c-.41-10.595-.575-21.19 0-31.786.493-9.117-.246-18.234 0-27.351M116.37 484.386h19.714m-19.714 0c6.489.739 13.142-.328 19.714 0m0 0v-9.856m0 9.856c-.411-3.285.739-6.653 0-9.856m0 0h19.713m-19.713 0c6.489-1.15 13.224 1.15 19.713 0m0 0v-9.856m0 9.856c-.082-3.285-.903-6.735 0-9.856m0 0h19.714m-19.714 0c6.572-.739 13.143-.329 19.714 0m0 0v-9.856m0 9.856c-.493-3.286-.328-6.571 0-9.856m0 0h19.714m-19.714 0c6.571.164 13.307 1.56 19.714 0m0 0v-9.857m0 9.857c-1.15-3.039-.164-6.571 0-9.857m0 0h19.714m-19.714 0c6.571-.739 13.142 0 19.714 0m0 0v-9.856m0 9.856c0-3.285.328-6.57 0-9.856m0 0h29.57m-29.57 0c9.774-.986 19.796 1.561 29.57 0" stroke="#484848" stroke-width="4" stroke-linecap="round" stroke-linejoin="round"/><path d="m150.87 548.452-4.929 4.929m4.929-4.929h-34.499m34.499 0v9.857m0-9.857c-1.725 1.561-3.45 3.122-4.929 4.929m4.929-4.929c-11.5-.492-23-.821-34.499 0m34.499 0c-.657 3.204.41 6.571 0 9.857m0-9.857a69.878 69.878 0 0 0-4.929 4.929m0 0h-29.57m29.57 0v9.856m0-9.856c-9.774 1.396-19.713-.083-29.57 0m29.57 0c1.068 3.121-.575 6.653 0 9.856m-29.57-9.856v-4.929m0 4.929c0-1.643-.247-3.286 0-4.929m54.212 9.857-4.928 4.928m4.928-4.928H150.87m19.713 0v9.856m0-9.856c-1.478 1.725-3.121 3.531-4.928 4.928m4.928-4.928c-6.406 1.478-13.224.821-19.713 0m19.713 0c-.41 3.285.083 6.57 0 9.856m0-9.856c-2.135.985-3.121 3.449-4.928 4.928m0 0h-19.714m19.714 0v9.856m0-9.856c-6.571.657-13.142.575-19.714 0m19.714 0c0 3.285.246 6.571 0 9.856m-19.714-9.856 4.929-4.928m-4.929 4.928a69.651 69.651 0 0 1 4.929-4.928m-4.929 4.928c2.054-1.068 2.793-3.943 4.929-4.928m39.427 9.856-4.928 4.928m4.928-4.928h-19.714m19.714 0v9.856m0-9.856c-1.971 1.232-2.957 3.778-4.928 4.928m4.928-4.928c-6.571.328-13.224.821-19.714 0m19.714 0c.247 3.285.493 6.571 0 9.856m0-9.856c-1.314 1.889-3.121 3.532-4.928 4.928m0 0h-19.714m19.714 0v9.856m0-9.856c-6.407 1.314-13.143 0-19.714 0m19.714 0c-.329 3.285-.164 6.571 0 9.856m-19.714-9.856 4.928-4.928m-4.928 4.928c1.889-1.396 3.532-3.121 4.928-4.928m-4.928 4.928c1.889-1.396 2.875-3.86 4.928-4.928m39.428 9.856-4.928 4.928m4.928-4.928h-19.714m19.714 0v9.856m0-9.856c-1.561 1.643-3.614 3.039-4.928 4.928m4.928-4.928c-6.571-.493-13.143.575-19.714 0m19.714 0c.246 3.286.493 6.571 0 9.856m0-9.856c-1.889 1.314-3.45 3.121-4.928 4.928m0 0h-19.714m19.714 0v9.856m0-9.856c-6.49-.821-13.307 1.397-19.714 0m19.714 0c-.74 3.204.246 6.571 0 9.856m-19.714-9.856 4.928-4.928m-4.928 4.928c1.15-1.971 3.696-2.957 4.928-4.928m-4.928 4.928c1.396-1.807 3.614-3.039 4.928-4.928m39.428 9.856-4.929 4.928m4.929-4.928h-19.714m19.714 0v9.857m0-9.857c-1.479 1.807-3.861 2.875-4.929 4.928m4.929-4.928c-6.572.247-13.143.575-19.714 0m19.714 0c-.411 3.286-.575 6.653 0 9.857m0-9.857c-1.561 1.725-3.615 3.039-4.929 4.928m0 0h-19.713m19.713 0v9.857m0-9.857c-6.571.165-13.142.247-19.713 0m19.713 0c-.985 3.122.575 6.653 0 9.857m-19.713-9.857 4.928-4.928m-4.928 4.928c1.56-1.724 3.121-3.531 4.928-4.928m-4.928 4.928a69.85 69.85 0 0 1 4.928-4.928m34.499 9.857v4.928m0-4.928h-14.785m14.785 0c-.329 1.642-.575 3.367 0 4.928m0-4.928c-4.846.657-9.939.903-14.785 0m14.785 4.928h-19.714m19.714 0c-6.489-1.15-13.143.164-19.714 0m0 0 4.929-4.928m-4.929 4.928c1.561-1.725 3.286-3.286 4.929-4.928m-4.929 4.928c1.232-1.972 3.532-3.039 4.929-4.928M12.873 553.38a4.928 4.928 0 0 1-4.928 4.928m4.928-4.928a4.928 4.928 0 0 0-4.928-4.928m4.928 4.928H116.37c-18.892.904-37.866 1.314-56.759 0-15.524-1.15-31.131-.493-46.738 0zm0 0c.74 2.629-2.217 4.682-4.928 4.928m4.928-4.928c0-2.71-2.217-4.681-4.928-4.928m0 9.856a4.928 4.928 0 0 1-4.929-4.928m4.929 4.928c-2.71.247-4.929-2.217-4.929-4.928m0 0a4.928 4.928 0 0 1 4.929-4.928m-4.929 4.928c0-2.71 2.218-5.174 4.929-4.928" stroke="#484848" stroke-width="4" stroke-linecap="round" stroke-linejoin="round"/><path d="M244.51 612.518v-9.856m0 9.856v88.706m0-88.706c-.904-3.121.246-6.571 0-9.856m0 9.856c.657 14.62.082 29.322 0 43.942-.082 14.949.411 29.815 0 44.764m0-98.562h-19.714m19.714 0c-6.571-.247-13.143 0-19.714 0m0 0v-9.857m0 9.857c.822-3.204 0-6.571 0-9.857m0 0h-19.713m19.713 0c-6.571.247-13.142-.41-19.713 0m0 0v-9.856m0 9.856c.574-3.203.082-6.571 0-9.856m0 0h-19.714m19.714 0c-6.49.904-13.225 1.232-19.714 0m0 0v-9.856m0 9.856c.657-3.203-.411-6.571 0-9.856m0 0h-19.714m19.714 0c-6.571-.247-13.307-1.314-19.714 0m0 0v-9.856m0 9.856c-.575-3.203.164-6.571 0-9.856m0 0h-19.714m19.714 0c-6.571.657-13.142.492-19.714 0m0 0v-9.857m0 9.857c.493-3.286.329-6.571 0-9.857m0 0h-29.57m29.57 0c-9.857.083-19.713.493-29.57 0m0 0v59.138m0-59.138c1.643 9.117-.986 18.645 0 27.926 1.068 10.349-.082 20.781 0 31.212m0 0v88.706m0-88.706c.082 9.527.903 19.137 0 28.665-.904 9.117.41 18.316 0 27.433-.493 10.842.164 21.766 0 32.608m0 0v19.712m0-19.712c-.082 6.571-.493 13.141 0 19.712m128.139-19.712v19.712m0-19.712c1.478 6.406.164 13.141 0 19.712m-128.139 0H244.51m-128.139 0c22.917-.575 45.834-1.478 68.751 0 19.714 1.314 39.592-1.067 59.388 0" stroke="#484848" stroke-width="4" stroke-linecap="round" stroke-linejoin="round"/><path d="M293.794 74.532a3.286 3.286 0 0 0 3.286 3.285m-3.286-3.285a3.286 3.286 0 0 1 3.286-3.285m-3.286 3.285c-.328 1.807 1.479 3.778 3.286 3.285m-3.286-3.285c.164-1.807 1.643-3.942 3.286-3.285m0 6.57a3.285 3.285 0 0 0 3.285-3.285m-3.285 3.285c1.807-.492 3.778-1.478 3.285-3.285m0 0a3.285 3.285 0 0 0-3.285-3.285m3.285 3.285c-.493-1.807-1.642-2.628-3.285-3.285m-3.286 32.032V85.883l-3.762 3.778a1.65 1.65 0 0 1-2.333-2.332l4.797-4.78a4.93 4.93 0 0 1 3.483-1.446h3.384a4.93 4.93 0 0 1 2.744.821 9.858 9.858 0 0 1 4.83 8.51v1.346m-13.143 11.499c0 .908.736 1.643 1.643 1.643m-1.643-1.643c-.493-5.75.657-11.663 0-17.412-1.314 1.15-2.957 2.135-3.778 3.778-.329.821-1.643.493-2.3 0-.822-.493-.657-1.643 0-2.3 1.643-1.643 2.957-3.45 4.764-4.764 1.15-.821 2.136-1.478 3.45-1.478 1.15 0 2.3-.164 3.45 0 .985.164 1.807.493 2.792.821 3.286 1.15 5.75 5.093 4.765 8.542-.165.329-.165.822 0 1.314m-13.143 11.499c0 .986.821 1.972 1.643 1.643m0 0c.907 0 1.643-.735 1.643-1.643m-1.643 1.643c.821-.328 1.971-.821 1.643-1.643m0 0v-9.577a4.929 4.929 0 0 0 1.445 3.483l4.781 4.797a1.65 1.65 0 0 0 2.333-2.333l-4.797-4.78a1.643 1.643 0 0 1-.477-1.167v-8.985m-3.285 18.562c-.986-3.121-.822-6.57 0-9.527.164 1.314.493 2.464 1.478 3.45 1.479 1.642 3.286 3.121 4.764 4.763.493.657 1.807.822 2.3 0 .493-.657.493-1.478 0-2.3-1.15-1.97-3.778-2.792-4.764-4.763a7.894 7.894 0 0 0-.493-1.15c-.493-2.957.165-6.078 0-9.035m0 0a6.57 6.57 0 0 1 3.286 5.716v1.347m-3.286-7.063c2.136 1.15 3.286 3.45 3.286 5.75 0 .492.164.82 0 1.313m0 0c0 .908.735 1.643 1.643 1.643m-1.643-1.643c-.329.822.657 1.479 1.643 1.643m0 0c.907 0 1.643-.735 1.643-1.643m-1.643 1.643c.985.164 1.971-.821 1.643-1.643m-6.572 14.785v2.464a6.194 6.194 0 0 0 0-2.464zm0 0c0-.454.368-.822.822-.822m-.822.822c0-.493.329-.657.822-.822m0 0h9.035m-9.035 0c2.957-.657 6.078.493 9.035 0m0 0v-4.106m0 4.106c0-1.314.329-2.792 0-4.106m0 0c0-.454.368-.822.822-.822m-.822.822c-.164-.493.329-.657.822-.822m0 0h9.035c-2.957.493-6.078-.657-9.035 0zM58.051 232.231c0 .908-.735 1.643-1.643 1.643m1.643-1.643-.005-18.48c0-.681-.551-1.232-1.232-1.232h-17.25c-.68 0-1.231.551-1.231 1.232v18.891c0 .68.551 1.232 1.232 1.232h16.843m1.643-1.643c-.328.822-.657 1.807-1.643 1.643m1.643-1.643c-1.15-6.078 2.3-12.813 0-18.398-.328-.657-.493-1.314-1.314-1.314-5.586.164-11.5-.986-17.25 0-.657.164-1.15.493-1.15 1.314.165 6.242 0 12.485 0 18.891 0 .657.493 1.15 1.15 1.15 5.75-.329 11.336-.493 16.921 0m-13.147-18.891v-5.75m4.928 5.75v-5.75m4.929 5.75v-5.75M69.55 225.66v-7.392m0 7.392c-.822-2.299.821-5.092 0-7.392m0 7.392c-1.314-1.314-3.121-2.464-4.107-4.106m4.107 4.106c1.15-1.642 2.464-3.121 4.107-4.106m-4.107-3.286a3.286 3.286 0 0 0-3.286-3.285m3.286 3.285c-.657-1.642-1.479-3.449-3.286-3.285m0 0H62.98c.985-.329 2.135.164 3.285 0zm-.826 6.571 4.107 4.106 4.107-4.106m-9.422 10.865a8.871 8.871 0 0 0 9.857 1.982M49.832 219.09h-6.571m8.214 4.928h-8.214m9.857 4.928H43.26m.005-13.963c0-1.971.493-3.943 0-5.75m4.928 5.75c-.492-1.807.657-3.943 0-5.75m4.929 5.75c.657-1.807-.493-3.943 0-5.75m11.17 23.163c2.63 2.628 6.9 4.435 9.858 1.971M49.837 219.09a43.679 43.679 0 0 0-6.571 0m8.214 4.928c-2.629-.657-5.586-.822-8.214 0m9.857 4.928c-3.122.657-6.736.985-9.857 0m20.213 6.167a5.339 5.339 0 1 0 10.677-.001 5.339 5.339 0 0 0-10.677.001zm12.643 11.903a8.818 8.818 0 0 0-14.785 0c1.314-2.629 4.435-4.764 7.392-3.943 2.957.657 4.929 2.3 7.393 3.943zm-12.65-11.828c-.657 2.793 2.465 4.6 5.422 5.257 2.792.657 4.271-2.629 5.257-5.257.985-2.792-2.465-6.078-5.257-5.421-2.957.657-5.586 2.464-5.422 5.421zM296.722 423.709v-8.68m14.548 8.68v-4.157h2.078a4.156 4.156 0 0 0 4.157-4.156v-4.157h2.632a1.032 1.032 0 0 0 .856-.451 1.036 1.036 0 0 0 .114-.962c-2.926-7.589-4.894-14.488-11.129-16.617m-23.251-3.947 1.939 1.94 3.836-3.836m-5.775 10.213 1.939 1.939 3.836-3.835m5.269-6.399h7.797m-7.797 8.771h7.797m-7.797 8.601h7.797m-8.816 17.115c.657-2.792.492-5.913 0-8.706m14.456 8.706c.165-1.478 0-2.792 0-4.271.657-.164 1.479 0 2.136 0 1.15.165 2.3-.328 2.957-1.15.657-.985 1.314-1.807 1.15-2.957 0-1.314-.329-2.792 0-4.106.986.164 1.807.164 2.628 0 .165-.165.329-.165.493-.165.165 0 .329-.164.493-.328 0-.164.164-.329.164-.493-.164-.164-.164-.328-.164-.493-1.971-7.885-5.093-13.634-11.007-16.591m-23.328-3.943c.329.822 1.15 1.479 1.972 1.972 1.478-.986 2.464-2.793 3.778-3.943m-5.75 10.349c.657.493 1.479.986 1.972 1.807 1.478-.821 2.3-2.628 3.778-3.778m5.257-6.407c2.629-.164 5.257.165 7.886 0m-7.886 8.707c2.629-.164 5.421-.986 7.886 0m-7.886 8.706c2.629.657 5.257-.657 7.886 0m-19.496 2.625V404h5.386v5.312h-5.386zm-.054.003v-5.256a15.016 15.016 0 0 1 5.422 0c-.165 1.643.328 3.614 0 5.256h-5.422zM52.264 542.292v-7.762a11.605 11.605 0 0 1-2.915-12.753m15.926 20.515v-3.717h1.858a3.714 3.714 0 0 0 3.718-3.717v-3.717h2.354a.932.932 0 0 0 .923-.821.932.932 0 0 0-.056-.443c-1.121-2.909-2.086-5.705-3.26-8.1m-21.642.48c0 1.719 4.874 3.113 10.887 3.113 6.013 0 10.888-1.394 10.888-3.113s-4.874-3.113-10.887-3.113m-12.146-2.648-3.951 3.863m8.34 22.015c.658-2.628 0-5.257 0-7.885-1.807-1.478-2.792-3.614-3.45-5.914-.657-2.135-.492-4.764.493-6.735m15.936 20.534c0-1.314.328-2.628 0-3.778.657 0 1.314-.165 1.807 0 .985.328 1.971-.329 2.628-1.15.657-.657 1.314-1.643 1.15-2.628a13.31 13.31 0 0 1 0-3.614c.822.164 1.643-.329 2.3 0 .164 0 .329 0 .493-.165l.329-.328c.164 0 .164-.329.164-.329v-.493c-.986-2.956-1.479-6.242-3.286-8.049m-21.685.493c-.657 1.478 5.093 1.478 10.843 2.957 5.914 1.643 10.842-1.314 10.842-2.957.165-1.807-4.928-2.136-10.842-3.121m-12.157-2.793c-.986 1.479-2.3 3.121-3.943 3.943m8.751-1.802a6.554 6.554 0 1 1 0-13.108 6.554 6.554 0 1 1 0 13.108zm-.044-.005c-3.614-.329-6.407-2.957-6.571-6.571 0-3.614 2.957-6.571 6.571-6.571 3.614.164 5.914 3.121 6.571 6.571.657 3.614-2.957 6.735-6.571 6.571z" stroke="#484848" stroke-width="2" stroke-linecap="round" stroke-linejoin="round"/></svg>