<svg width="439" height="541" fill="none" xmlns="http://www.w3.org/2000/svg"><path d="m288.872 268.36-17.473-14.251-60.569-25.593 37.143 30.349 40.899 9.495zm-78.042-39.844 2.739 30.015 59.975 19.669-2.145-24.091-60.569-25.593zm62.714 49.684-7.794-4.903-68.336-24.999 16.155 10.233 59.975 19.669zm-76.13-29.902-2.172 3.648 55.581 44.365 14.927-23.014-68.336-24.999zm53.409 48.013 12.273 5.681-46.203-40.047-21.651-9.999 55.581 44.365zm-33.93-34.366-25.026 3.985 41.66 40.759 29.569-4.697-46.203-40.047zm16.634 44.744-20.782-11.459 11.558 21.425 49.489 10.29-.187-.38-67.16-52.597-14.578-8.038 41.66 40.759zm40.265 20.256-72.339-41.123-34.989-2.118 57.839 32.951 49.489 10.29zm-107.328-43.241 55.413 57.109 38.087 5.219-58.511-60.21-34.989-2.118zm93.5 62.328-47.987-29.43-41.091-7.094 50.991 31.305 38.087 5.219zm-89.078-36.524 35.792 40.235 30.985-4.305-25.686-28.836-41.091-7.094zm66.777 35.93-65.827-30.604-14.821 11.759 49.663 23.15 30.985-4.305zm-80.648-18.845 57.687 47.054 18.952-8.315-61.818-50.498-14.821 11.759zm76.639 38.739-57.13-29.296-28.436 3.485 66.614 34.126 18.952-8.315zm-85.566-25.811 33.609 32.827 27.416-4.539-32.589-31.773-28.436 3.485zm61.025 28.288-43.24-21.487 12.014 24.121 3.81 1.905 27.416-4.539z" fill="#389D2D"/><path d="m195.179 230.622-17.847 13.781-38.668 53.17 37.99-29.282 18.525-37.669zm-56.515 66.951 29.863 4.139 32.762-53.933-23.957-3.376-38.668 53.17zm62.625-49.794-6.544 6.476-39.852 60.866 13.634-13.409 32.762-53.933zm-46.396 67.342 3.063 2.942 55.826-44.055-19.037-19.753-39.852 60.866zm58.889-41.113 8.317-10.662-49.493 35.904-14.65 18.813 55.826-44.055zm-41.176 25.242-1.793 25.271 49.156-31.32 2.13-29.855-49.493 35.904zm47.363-6.049-15.876 17.636 23.493-6.394 21.248-45.852-.412.096-66.472 53.462-11.137 12.372 49.156-31.32zm28.865-34.61-56.468 61.107-9.999 33.588 45.219-48.843 21.248-45.852zm-66.467 94.695 68.205-41.002 13.722-35.902-71.928 43.316-9.999 33.588zm81.927-76.904-39.554 40.05-16.231 38.401 42.063-42.549 13.722-35.902zm-55.785 78.451 47.316-25.725 2.832-31.145-33.917 18.469-16.231 38.401zm50.148-56.87-44.743 57.152 8.095 17.098 33.816-43.105 2.832-31.145zm-36.648 74.25 58.923-45.497-3.802-20.338-63.216 48.737 8.095 17.098zm55.121-65.835-41.497 48.981-3.054 28.477 48.353-57.12-3.802-20.338zm-44.551 77.458 39.603-25.278 1.796-27.724-38.345 24.525-3.054 28.477zm41.399-53.002-30.739 37.227 26.223-6.226 2.72-3.277 1.796-27.724z" fill="#389D2D"/><path d="M385.236 539.983c-1.521-4.558 1.52-10.639 0-15.199-3.041-12.158-3.041-27.357-15.203-30.398-22.806-12.158-69.937-74.475-152.037-45.597m0 0c-82.099 28.879-136.832 25.839-152.036 45.597-6.08 10.64-15.203 18.24-15.203 30.398 0 4.56-1.52 10.641 0 15.199m167.239-91.194c7.602 22.798 18.245 45.597 22.805 68.396m-22.805-68.396c-9.121 22.798-9.121 48.638-22.805 68.396m103.384-57.756c-27.367 27.357-56.253 51.676-80.579 80.554-19.764-33.437-63.855-47.116-80.578-80.554m-15.204 4.559c-7.601 16.719-18.245 34.958-18.245 53.197 13.684 9.12 28.888 19.759 45.611 22.798m164.199-75.995c9.122 16.719 15.203 34.958 18.244 53.197-15.204 6.08-28.887 19.759-45.611 22.798M248.403 418.39c-19.764 6.081-41.049-6.079-60.814 0m152.037-121.593c-4.562-1.519-10.644 0-15.205 0m-228.054 0c4.562 0 10.644 1.521 15.204 0m212.85 75.996c-4.56-4.56-10.642-9.119-15.204-15.199m-197.646 15.199c3.042-6.079 12.163-9.119 15.203-15.199m159.638-53.197c4.561-33.438-24.325-71.436-57.773-68.396-33.448 3.039-77.538 13.68-76.017 47.118 1.519 33.437 1.519 77.514 34.967 82.074 1.521 4.56 0 10.64 0 15.2 0 4.56 3.041 9.12 7.602 7.599 13.684-4.56 30.407 4.56 45.61 0 4.562-1.519 6.082-3.039 7.602-7.599 1.521-4.56 1.521-10.64 0-15.2 22.805-12.159 41.051-34.958 38.009-60.796z" stroke="#484848" stroke-width="4" stroke-linecap="round" stroke-linejoin="round"/><path d="M385.23 539.985v-15.199a36.872 36.872 0 0 0-15.204-30.399C349.73 478.9 305.107 448.79 217.991 448.79m0 0c-87.117 0-131.74 30.11-152.036 45.597a36.872 36.872 0 0 0-15.204 30.399v15.199m167.24-91.195 22.805 68.396m-22.805-68.396-22.806 68.396m103.719-58.091-80.913 80.89-80.914-80.89m-15.387 4.909-17.726 53.182 45.611 22.799m164.715-75.981 17.727 53.182-45.61 22.799m-38.009-121.593h-60.815m152.036-121.593h-15.203m-228.054 0h15.204m212.85 75.995-15.204-15.199m-197.646 15.199 15.203-15.199m159.638-53.197c.143-33.772-24.393-62.592-57.763-67.852-33.37-5.259-65.584 14.62-75.839 46.798-10.257 32.178 4.516 67.023 34.778 82.034v15.016a7.6 7.6 0 0 0 7.602 7.599h45.611a7.6 7.6 0 0 0 7.602-7.599v-15.016c23.221-11.466 37.945-35.088 38.009-60.98z" stroke="#484848" stroke-width="4" stroke-linecap="round" stroke-linejoin="round"/><path fill-rule="evenodd" clip-rule="evenodd" d="M206.058 185.502c0 6.075 4.701 11 10.5 11s10.5-4.925 10.5-11-4.701-11-10.5-11-10.5 4.925-10.5 11zM209.058 209.002a5.5 5.5 0 1 0 11 0 5.5 5.5 0 0 0-11 0z" fill="#389D2D"/><path clip-rule="evenodd" d="M207.237 212.527c-1.005 3.059 2.414 5.82 5.364 5.97 2.95.148 4.693-2.762 5.364-5.97.67-3.209-2.414-6.492-5.364-5.97-2.95.523-5.028 2.687-5.364 5.97zM206.058 188.502c0 6.075 4.701 11 10.5 11s10.5-4.925 10.5-11c0-6.076-4.701-11-10.5-11s-10.5 4.924-10.5 11z" stroke="#484848" stroke-width="2" stroke-linecap="round" stroke-linejoin="round"/><path d="M144.181 76.8c0 40.181 32.574 72.756 72.756 72.756m-72.756-72.757c0-40.182 32.574-72.756 72.756-72.756m-72.756 72.756c-3.032 40.016 32.538 70.534 72.756 72.757m-72.756-72.757c2.425-40.218 32.538-71.342 72.756-72.756m0 145.513c40.182 0 72.757-32.575 72.757-72.757m-72.757 72.757c40.218 2.223 76.799-32.741 72.757-72.757m0 0c0-40.182-32.575-72.756-72.757-72.756m72.757 72.756c-4.042-40.016-32.539-74.171-72.757-72.756" stroke="#484848" stroke-width="5.333" stroke-linecap="round" stroke-linejoin="round"/><path d="M216.652 121c0-6.975 17.313-12.703 37.835-13.311 2.063-.033 3.718-1.737 3.717-3.826V69.348c3.4 11.096 1.134 22.956 0 34.435 0 2.295-1.888 4.591-3.777 3.826-19.265-7.27-39.286 6.504-37.775 13.391zm0 0c0-6.979-17.315-12.706-37.835-13.334-2.062-.033-3.717-1.737-3.717-3.826V48.373c0-1.026.407-2.01 1.129-2.728a3.754 3.754 0 0 1 2.713-1.098c20.466.643 37.71 6.363 37.71 13.323m0 63.13c1.511-6.887-17.376-12.626-37.774-13.391-2.267 0-3.778-1.531-3.778-3.826.756-18.366 3.778-37.113 0-55.479-.377-.765.378-2.295 1.134-2.678.755-.383 1.888-1.148 2.644-1.148 20.398-1.53 39.285 6.505 37.774 13.392m0 0c-2.266 20.66 2.267 42.087 0 62.747m-7.554-53.485a76.911 76.911 0 0 0-24.554-5.436c8.311 1.148 17.754.382 24.554 5.356m-24.554 7.671a76.92 76.92 0 0 1 24.554 5.43m-24.554 7.594a76.822 76.822 0 0 1 24.554 5.43m7.554-35.304v62.653m33.998-64.57c.021-5.842-4.293-10.77-10.023-11.445-5.73-.675-11.046 3.117-12.349 8.81-1.303 5.691 1.823 11.466 7.262 13.414v4.526m15.11-15.304c-.008 4.852-3.035 9.173-7.555 10.781v4.523m7.555-15.304c-1.511-5.74-4.533-13.01-10.2-11.479-5.288 1.53-9.443 3.444-12.087 8.8-2.645 5.357 2.644 9.948 7.177 13.392v4.59m15.11-15.304c-1.134 4.592-3.778 8.035-7.555 10.714.377 1.53 0 3.06 0 4.59m-7.555 0h7.555m-7.555 0c2.644 0 4.91-.382 7.555 0m-7.555 7.657h7.555m-5.667 7.652h3.778m-1.889-49.74v-3.825m13.357 9.431 2.671-2.705m-29.381 2.705-2.675-2.705m-38.745 34.974c7.933 2.679 18.132 0 24.554 5.357m-24.554 7.652c8.311 1.148 16.243 5.357 24.554 5.357m26.442-14.157c2.644.383 4.91-.383 7.555 0m-5.667 7.652c1.134.383 2.645.383 3.778 0m-1.889-49.739c0-1.148-.378-2.678 0-3.826m13.221 9.565c.756-1.148 2.267-1.53 2.644-2.678m-29.086 2.678c-1.133-.765-2.266-1.913-2.644-2.678" stroke="#484848" stroke-width="2.667" stroke-linecap="round" stroke-linejoin="round"/></svg>