<svg width="50" height="50" viewBox="0 0 50 50" fill="none" xmlns="http://www.w3.org/2000/svg">
<path d="M34.9276 44.0813C37.092 43.8698 39.2524 43.619 41.4076 43.3292C42.1073 43.2375 42.7566 42.9159 43.2535 42.4149C43.7504 41.9139 44.0667 41.262 44.1526 40.5617C44.4098 38.4949 44.6637 36.3445 44.8694 34.1427M16.0759 4.91846C13.9115 5.13001 11.7511 5.38076 9.59586 5.6706C8.89613 5.76146 8.24645 6.08231 7.74896 6.5827C7.25148 7.08309 6.93443 7.73464 6.84765 8.43489C6.57612 10.5718 6.33717 12.7128 6.13086 14.857M34.9276 4.91846C37.1455 5.1306 39.3151 5.39417 41.4076 5.6706C42.1068 5.76212 42.7557 6.08327 43.2526 6.5836C43.7494 7.08393 44.066 7.73511 44.1526 8.43489C44.4098 10.5049 44.6637 12.6552 44.8694 14.857M16.0759 44.0813C13.9117 43.8678 11.7514 43.617 9.59586 43.3292C8.89565 43.2382 8.2456 42.9168 7.74806 42.4158C7.25053 41.9148 6.93376 41.2625 6.84765 40.5617C6.57616 38.4258 6.3372 36.2859 6.13086 34.1427M25.5001 18.592V14.4617" stroke="#389D2D" stroke-width="3" stroke-linecap="round" stroke-linejoin="round"/>
<path d="M29.6691 28.1706V26.9235M21.3216 28.1706V26.9235M25.5002 18.592C28.0299 18.592 30.6559 18.592 32.9863 18.8942C33.9634 19.0161 34.874 19.4538 35.5796 20.1408C36.2851 20.8277 36.747 21.7263 36.8949 22.6999C37.0845 23.9953 37.0845 25.3099 37.0845 27.547C37.0845 29.7874 37.0845 31.102 36.8916 32.3942C36.7441 33.3668 36.2832 34.2647 35.5789 34.9515C34.8746 35.6384 33.9655 36.0767 32.9895 36.1999C30.6591 36.5053 28.0331 36.5053 25.5034 36.5053C22.977 36.5053 20.3509 36.5053 18.0206 36.1999C17.0434 36.078 16.1328 35.6403 15.4273 34.9533C14.7218 34.2663 14.2599 33.3677 14.112 32.3942C13.9224 31.102 13.9224 29.7874 13.9224 27.547C13.9224 25.3067 13.9224 23.9953 14.112 22.6999C14.2599 21.7263 14.7218 20.8277 15.4273 20.1408C16.1328 19.4538 17.0434 19.0161 18.0206 18.8942C20.3509 18.592 22.9738 18.592 25.5002 18.592Z" stroke="#389D2D" stroke-width="3" stroke-linecap="round" stroke-linejoin="round"/>
<path d="M25.5003 14.4199C27.4803 14.4199 28.5957 13.3045 28.5957 11.3245C28.5957 9.34452 27.4803 8.2356 25.5003 8.2356C23.5203 8.2356 22.4082 9.35095 22.4082 11.3277C22.4082 13.3045 23.5236 14.4199 25.5003 14.4199Z" fill="white"/>
<path d="M25.5003 14.4199C27.4803 14.4199 28.5957 13.3045 28.5957 11.3245C28.5957 9.34452 27.4803 8.2356 25.5003 8.2356C23.5203 8.2356 22.4082 9.35095 22.4082 11.3277C22.4082 13.3045 23.5236 14.4199 25.5003 14.4199Z" stroke="#389D2D" stroke-width="3" stroke-linecap="round" stroke-linejoin="round"/>
</svg>
