<svg width="50" height="50" viewBox="0 0 50 50" fill="none" xmlns="http://www.w3.org/2000/svg">
<g clip-path="url(#clip0_445_44)">
<path d="M24.4358 7.88958C27.9838 7.6636 31.5054 8.62452 34.4307 10.6169C37.838 12.9472 40.1677 16.5156 40.9084 20.5382C41.6619 24.5699 40.7524 28.7314 38.3817 32.0994C37.8539 32.8511 37.2591 33.5549 36.6044 34.2025C36.1513 34.65 32.6224 37.5284 32.1714 37.6022C31.8279 37.6585 31.5823 37.6187 31.3008 37.4105C31.0683 37.2385 30.8948 37.0037 30.8697 36.7117C30.7598 35.4351 33.3405 34.0518 34.2293 33.3316C34.8184 32.8542 35.3418 32.2944 35.8283 31.7173C38.08 29.0636 39.1693 25.6362 38.8563 22.1902C38.5517 18.65 36.8164 15.3792 34.0406 13.1133C31.2985 10.8586 27.7487 9.79167 24.1971 10.1547C20.4735 10.5148 17.3683 12.1715 14.9912 15.0264C13.045 17.4322 12.0906 20.1355 12.0539 23.2081C11.9935 26.9996 13.6126 30.6286 16.4883 33.1467C17.7142 34.2 19.2223 34.8824 20.1169 36.2542C20.8395 37.3621 21.0294 38.5606 21.01 39.8522C24.2485 39.7872 27.5842 39.8722 30.829 39.879C31.4687 39.8803 32.0678 40.1122 32.1609 40.8176C32.1978 41.1116 32.1126 41.4077 31.9246 41.6388C31.3726 42.3135 29.3254 42.1159 28.4708 42.116L24.2946 42.1147C23.436 42.1114 22.5774 42.1131 21.7188 42.12C19.9879 42.1445 18.5574 42.4154 18.7712 40.0929C19.0521 37.0439 17.2518 36.6689 15.3179 35.0629C12.1979 32.4717 10.2452 28.6499 9.89379 24.5945C9.52823 20.5176 10.8356 16.4664 13.5234 13.3474C16.3603 10.0372 20.0903 8.25708 24.4358 7.88958Z" fill="#389D2D"/>
<path d="M20.0153 43.6104C23.0574 43.5042 26.194 43.6565 29.245 43.591C29.8583 43.5778 31.5302 43.4957 31.8169 44.1528C32.1798 44.9846 31.3961 45.5597 30.7595 45.9053C30.0571 47.5531 29.4242 48.6611 27.727 49.5016C26.3271 50.1948 24.8849 50.1058 23.4405 49.5972C22.8869 49.3442 21.663 48.7005 21.6444 48.1205C21.5668 45.6988 23.9055 47.4429 24.4957 47.6571C26.385 48.3429 27.6104 47.2195 28.5206 45.7795C27.0347 45.7477 20.4441 45.9612 19.6317 45.5718C19.4022 45.4618 19.2245 45.2699 19.1446 45.0275C19.0533 44.75 19.0786 44.4072 19.2178 44.1495C19.3913 43.8283 19.6793 43.7041 20.0153 43.6104Z" fill="#389D2D"/>
<path d="M25.0737 13.5739C26.6467 13.5395 28.2055 13.8805 29.6219 14.5689C32.091 15.7537 33.9889 17.8771 34.8961 20.4699C35.2199 21.3979 35.754 23.4616 35.2849 24.3916C35.0939 24.7702 34.851 24.8724 34.4762 25.0001C32.974 24.9158 33.222 23.6791 33.0393 22.4924C32.9645 21.9789 32.8368 21.4744 32.6586 20.9872C31.789 18.6256 29.5994 16.6492 27.1175 16.1026C26.1961 15.8996 23.3964 16.0663 24.2281 14.1999C24.3911 13.8341 24.7041 13.6868 25.0737 13.5739Z" fill="#389D2D"/>
<path d="M45.6764 22.2059C46.721 22.1604 49.6663 21.6958 48.8626 24.1853C48.7227 24.6186 48.4356 24.7869 48.1181 24.9325C47.0659 24.9986 43.8957 25.4288 44.9326 22.8631C45.0979 22.4538 45.3549 22.3358 45.6764 22.2059Z" fill="#389D2D"/>
<path d="M41.9712 6.44495C42.1758 6.41424 42.4247 6.42667 42.6206 6.48582C44.5562 7.07066 41.8374 9.63759 41.0615 9.98454C39.4823 10.156 39.4473 8.87861 40.291 7.92515C40.7328 7.42592 41.3597 6.71693 41.9712 6.44495Z" fill="#389D2D"/>
<path d="M25.2523 0C26.843 0.0123235 26.9463 1.06285 26.9213 2.0695C26.898 3.00628 27.0199 3.90674 25.7361 4.28562C24.1591 4.29688 24.0469 3.28663 24.0802 2.28395C24.1132 1.29092 23.9148 0.428125 25.2523 0Z" fill="#389D2D"/>
<path d="M9.12492 6.44052C10.1034 6.28961 11.2671 7.62126 11.7681 8.36715C12.1982 9.00744 11.8973 9.63392 11.2573 9.98594C10.2773 10.1588 9.07018 8.71022 8.57886 7.95933C8.19225 7.36836 8.50265 6.72666 9.12492 6.44052Z" fill="#389D2D"/>
<path d="M5.88555 24.7429C5.33256 25.1462 2.9407 25.0833 2.41322 24.4949C1.39059 23.3541 2.4616 22.1402 3.50786 22.1655C4.46365 22.1887 5.51647 21.927 6.27273 22.7348L6.1994 22.9563L6.05253 23.015C6.0056 23.6199 6.03207 24.1707 5.88555 24.7429Z" fill="#389D2D"/>
</g>
<defs>
<clipPath id="clip0_445_44">
<rect width="47" height="50" fill="white" transform="translate(2)"/>
</clipPath>
</defs>
</svg>
