<svg width="50" height="50" viewBox="0 0 50 50" fill="none" xmlns="http://www.w3.org/2000/svg">
<path d="M33.7078 4.83325V10.5833M16.4578 4.83325V10.5833M25.0828 4.83325V10.5833M40.4162 26.8749V21.1249C40.4162 14.7999 40.4162 11.6374 38.4516 9.67284C36.487 7.70825 33.3245 7.70825 26.9995 7.70825H23.1662C16.8412 7.70825 13.6787 7.70825 11.7141 9.67284C9.74951 11.6374 9.74951 14.7999 9.74951 21.1249V29.7499C9.74951 36.0749 9.74951 39.2374 11.7141 41.202C13.6787 43.1666 16.8412 43.1666 23.1662 43.1666H26.9995M17.4162 29.7499H25.0828M17.4162 22.0833H32.7495M30.8328 39.3333C30.8328 39.3333 32.7495 39.3333 34.6662 43.1666C34.6662 43.1666 38.8388 33.5833 44.2495 31.6666" stroke="#389D2D" stroke-width="3" stroke-linecap="round" stroke-linejoin="round"/>
</svg>
