<svg width="60" height="50" viewBox="0 0 60 50" fill="none" xmlns="http://www.w3.org/2000/svg">
<g clip-path="url(#clip0_445_41)">
<path d="M52.0456 10.3746C52.5093 10.3289 52.8334 10.3429 53.1583 10.7406C53.584 11.2614 53.9786 11.8102 54.3847 12.3488L56.6109 15.2859L58.5027 17.7791C59.0079 18.4449 60.3866 19.8773 59.0977 20.6024C58.1609 21.1293 56.9991 21.5718 56.0021 22.005V26.5605C56.003 26.9564 56.0302 28.4657 55.9691 28.7697C55.9057 29.0868 55.7187 29.361 55.4531 29.527C54.7542 29.956 53.8563 29.423 53.854 28.5501C53.8487 26.1838 53.8286 23.8118 53.8554 21.4459C53.9014 20.8141 53.9723 20.4802 54.5556 20.2014C55.3179 19.8377 56.0771 19.53 56.8429 19.205C55.4036 17.3492 53.9835 15.4407 52.5669 13.5639L52.3487 13.2856C50.8567 15.1749 49.3232 17.261 47.87 19.1942C48.6787 19.5878 49.715 19.917 50.4519 20.4122C50.7125 20.587 50.8415 21.0216 50.8464 21.3363C50.8634 22.4125 50.8393 23.5199 50.842 24.5993L50.8522 27.2021C50.854 27.7006 50.8741 28.192 50.8254 28.6909C50.7625 29.6268 49.616 29.9639 49.0219 29.3587C48.5493 28.8775 48.71 27.3033 48.7104 26.6221V22.0073C47.6955 21.5704 46.5204 21.1349 45.5742 20.5893C44.7223 20.0503 45.0833 19.0889 45.6305 18.5181C46.8297 17.268 50.9932 10.8749 52.0456 10.3746Z" fill="#389D2D"/>
<path d="M7.48708 10.3751C8.02003 10.3201 8.28324 10.3649 8.64101 10.8093C9.05097 11.3185 9.43976 11.844 9.83486 12.3659L12.0239 15.2617C12.9656 16.5072 14.1264 17.9538 14.9933 19.2665C15.0976 19.4889 15.0932 19.8783 14.9951 20.0872C14.7976 20.5101 14.3763 20.7288 13.9792 20.9023C13.1279 21.2744 12.275 21.6461 11.4183 22.0047L11.4167 26.7145C11.4168 27.1529 11.4707 28.4837 11.3821 28.8423C11.0843 30.0478 9.28901 29.9727 9.29155 28.4656C9.29552 26.1148 9.29396 23.7394 9.28918 21.3868C9.28597 20.3828 9.95231 20.2215 10.6973 19.8857C11.2145 19.6526 11.7421 19.4315 12.2629 19.2068L7.84717 13.3773C7.81958 13.3428 7.84092 13.3652 7.76833 13.3311C7.59877 13.4776 6.64922 14.7744 6.43828 15.0533L3.29996 19.203C4.14144 19.6031 5.08903 19.9123 5.87631 20.4015C6.39899 20.7265 6.28868 22.0597 6.28904 22.645L6.28801 25.1122L6.29247 27.3086C6.29332 27.7796 6.30413 28.2338 6.25993 28.7043C6.18279 29.608 5.04381 30.0109 4.45568 29.3478C3.9609 28.7901 4.12787 27.3809 4.12804 26.6278L4.12979 22.0061C3.41277 21.7006 0.970396 20.8128 0.626198 20.1996C0.483117 19.9445 0.470662 19.584 0.559948 19.308C0.616778 19.1322 0.741422 18.9615 0.847136 18.8132C2.06187 17.1097 3.37884 15.4692 4.64041 13.8021L6.19149 11.7475C6.61064 11.1926 6.87207 10.696 7.48708 10.3751Z" fill="#389D2D"/>
<path d="M23.2094 11.2058C26.6203 5.73292 36.0256 6.31317 38.3813 12.4861C38.616 13.1018 38.7413 13.597 38.8774 14.2292L38.895 14.3728L38.9389 14.7048L38.9575 14.8445C39.2782 18.2951 38.3909 22.1698 36.1655 24.8767C36.0224 25.0501 35.8756 25.2205 35.7241 25.3864C36.1078 26.3306 36.5551 27.5258 36.9692 28.4343L39.8276 29.7702C41.2242 30.4212 42.4638 30.85 43.3862 32.1853C44.0489 33.1448 44.1701 33.8662 44.4291 34.9714L44.9702 37.282L45.4506 39.2946C45.5699 39.7936 45.7378 40.4015 45.7641 40.9011C45.79 41.3908 45.694 41.8794 45.4858 42.323C45.1576 43.0274 44.5638 43.5709 43.8364 43.8318C43.3191 44.0117 42.4082 44.1962 41.8491 44.3249L38.4028 45.1208C36.99 45.4485 35.3102 45.8838 33.9135 46.1355C31.2047 46.631 28.4283 46.6196 25.7241 46.1003C24.2881 45.8215 22.5943 45.3378 21.1635 44.9655L18.6225 44.3073C18.0398 44.1566 17.2627 43.9974 16.7416 43.739C15.6543 43.2 15.0102 41.9179 15.186 40.7146C15.2429 40.2948 15.344 39.9087 15.4418 39.4978L15.8588 37.7468L16.4155 35.3855C16.6146 34.5325 16.785 33.5723 17.1811 32.8034C17.5389 32.1052 18.0507 31.4987 18.6772 31.031C19.3077 30.5576 19.9127 30.3464 20.5981 30.0075C21.6708 29.477 22.9301 28.9772 23.9731 28.4304C24.3952 27.4183 24.8089 26.4024 25.2153 25.3835C22.7911 22.6545 21.7552 19.1333 21.9477 15.4958C21.9531 15.3819 21.9608 15.2683 21.9711 15.155C21.9727 14.9118 21.9897 14.7692 22.02 14.5271C22.2326 13.2686 22.5394 12.2808 23.2094 11.2058ZM34.0454 31.8923C32.5141 32.9046 31.5423 33.5092 29.5278 33.1638C28.1609 32.9291 26.9634 31.8222 25.7983 31.1208C25.6804 31.0497 25.1447 30.6741 25.06 30.6511L22.4936 31.821C21.3276 32.3521 20.0504 32.7773 19.5551 34.0827C19.3882 34.5228 19.2916 35.0076 19.1821 35.4655L18.7104 37.4294L18.2543 39.2878C18.1658 39.6504 18.0569 40.025 18.0112 40.3943C17.9303 41.0491 18.3072 41.5364 18.9399 41.7146C19.486 41.8682 20.0328 41.9958 20.5805 42.1316L23.2592 42.8093C24.3197 43.0763 25.5318 43.4076 26.5961 43.5993C28.7137 43.9801 30.8822 44.0022 33.0073 43.6638C34.3183 43.4554 36.0798 43.0196 37.4096 42.7136L40.5707 42.0036C41.1332 41.8772 41.7423 41.7709 42.2827 41.5749C42.5258 41.4867 42.6846 41.3324 42.8237 41.1208C43.1051 40.6977 42.9918 40.2827 42.8813 39.8318C42.4499 38.0758 42.0341 36.3111 41.5991 34.5564C41.1882 32.899 40.0185 32.5091 38.6118 31.8689L35.9301 30.6472L34.0454 31.8923ZM26.4936 26.5534C26.2016 27.2745 25.8924 28.0126 25.6108 28.7361C25.9732 28.9843 26.3372 29.2305 26.7026 29.4743C28.1183 30.4365 29.3623 31.5841 31.1577 31.2097C32.1317 31.0062 32.815 30.44 33.6303 29.8874C34.1949 29.5013 34.7631 29.1202 35.3334 28.7429C35.2216 28.4634 34.5243 26.6585 34.436 26.5583C31.3269 28.8431 29.5962 28.8059 26.4936 26.5534ZM30.7973 9.10324C27.2814 9.10324 24.4312 12.1312 24.4311 15.8669C24.4311 19.6027 27.2813 25.4167 30.7973 25.4167C34.3132 25.4165 37.1635 19.6026 37.1635 15.8669C37.1634 12.1313 34.3132 9.10335 30.7973 9.10324Z" fill="#389D2D"/>
</g>
<defs>
<clipPath id="clip0_445_41">
<rect width="60" height="50" fill="white"/>
</clipPath>
</defs>
</svg>
