<svg width="50" height="50" viewBox="0 0 50 50" fill="none" xmlns="http://www.w3.org/2000/svg">
<path d="M25 8.5C28.2634 8.5 31.4535 9.46771 34.1669 11.2808C36.8803 13.0938 38.9952 15.6707 40.244 18.6857C41.4929 21.7007 41.8196 25.0183 41.183 28.219C40.5463 31.4197 38.9748 34.3597 36.6673 36.6673C34.3597 38.9748 31.4197 40.5463 28.219 41.183C25.0183 41.8196 21.7007 41.4929 18.6857 40.244C15.6708 38.9952 13.0938 36.8803 11.2808 34.1669C9.46772 31.4535 8.50001 28.2634 8.50001 25C8.50001 20.6239 10.2384 16.4271 13.3327 13.3327C16.4271 10.2384 20.6239 8.5 25 8.5ZM25 5.75C21.1927 5.75 17.4709 6.87899 14.3053 8.99421C11.1396 11.1094 8.67231 14.1159 7.21533 17.6333C5.75834 21.1508 5.37713 25.0214 6.11989 28.7555C6.86266 32.4896 8.69604 35.9196 11.3882 38.6118C14.0804 41.304 17.5104 43.1374 21.2445 43.8801C24.9787 44.6229 28.8492 44.2417 32.3667 42.7847C35.8841 41.3277 38.8906 38.8604 41.0058 35.6947C43.121 32.5291 44.25 28.8073 44.25 25C44.25 19.8946 42.2219 14.9983 38.6118 11.3882C35.0017 7.77812 30.1054 5.75 25 5.75Z" fill="#389D2D"/>
<path d="M30.5 19.5V30.5H19.5V19.5H30.5ZM30.5 16.75H19.5C18.7707 16.75 18.0712 17.0397 17.5555 17.5555C17.0397 18.0712 16.75 18.7707 16.75 19.5V30.5C16.75 31.2293 17.0397 31.9288 17.5555 32.4445C18.0712 32.9603 18.7707 33.25 19.5 33.25H30.5C31.2293 33.25 31.9288 32.9603 32.4445 32.4445C32.9603 31.9288 33.25 31.2293 33.25 30.5V19.5C33.25 18.7707 32.9603 18.0712 32.4445 17.5555C31.9288 17.0397 31.2293 16.75 30.5 16.75Z" fill="#389D2D"/>
</svg>
