<svg width="50" height="50" viewBox="0 0 50 50" fill="none" xmlns="http://www.w3.org/2000/svg">
<path fill-rule="evenodd" clip-rule="evenodd" d="M15.324 39.4813C18.1881 41.395 21.5555 42.4165 25.0002 42.4165C29.6194 42.4165 34.0494 40.5815 37.3156 37.3153C40.5819 34.049 42.4168 29.619 42.4168 24.9998C42.4168 23.6306 42.2554 22.2735 41.9408 20.9554C41.6956 19.9284 40.4956 19.5406 39.6202 20.131C39.0256 20.532 38.7729 21.273 38.9252 21.9738C39.1397 22.9605 39.2502 23.9745 39.2502 24.9998C39.2502 27.8182 38.4144 30.5733 36.8486 32.9167C35.2828 35.2601 33.0573 37.0866 30.4534 38.1651C27.8496 39.2437 24.9844 39.5259 22.2201 38.976C19.4559 38.4262 16.9168 37.069 14.9239 35.0761C12.931 33.0832 11.5738 30.5441 11.024 27.7799C10.4741 25.0156 10.7563 22.1504 11.8349 19.5466C12.9134 16.9428 14.7399 14.7172 17.0833 13.1514C19.0562 11.8331 21.321 11.0323 23.6696 10.8121C24.4395 10.7399 25.1051 10.2005 25.2502 9.44105C25.4357 8.47018 24.7094 7.55756 23.7236 7.63001C23.0139 7.68217 22.3054 7.77798 21.6023 7.91783C18.2238 8.58986 15.1205 10.2486 12.6847 12.6844C10.249 15.1202 8.59019 18.2235 7.91816 21.602C7.24613 24.9805 7.59104 28.4824 8.90927 31.6649C10.2275 34.8474 12.4598 37.5675 15.324 39.4813ZM28.1707 9.35734C28.3976 8.56612 29.1996 8.07698 29.9882 8.31272C30.5553 8.48222 31.115 8.68103 31.6652 8.90894C32.24 9.14702 32.7997 9.41491 33.3423 9.71095C34.1579 10.156 34.316 11.2284 33.7363 11.9546C33.2216 12.5992 32.3046 12.7365 31.5727 12.3561C30.8622 11.9867 30.1217 11.6779 29.3594 11.433C28.4813 11.1508 27.9164 10.2439 28.1707 9.35734ZM37.4251 12.7948C36.8544 12.2139 35.9274 12.2477 35.345 12.8168L35.0452 13.1097C34.5398 13.6036 34.5768 14.4239 35.0764 14.9236C35.97 15.8171 36.7326 16.8171 37.3519 17.8937C37.8442 18.7493 38.9621 19.0918 39.7786 18.537C40.4034 18.1123 40.6384 17.2955 40.2755 16.6329C40.0309 16.1863 39.7661 15.7494 39.4816 15.3237C38.8738 14.414 38.1846 13.568 37.4251 12.7948Z" fill="#389D2D"/>
<path d="M26.7828 24.09C26.2536 23.6099 25.3305 23.7868 24.721 24.4852C24.1115 25.1835 23.7029 25.935 24.2322 26.4151L29.3667 30.9657C29.8959 31.4459 30.819 31.2689 31.4285 30.5706C32.038 29.8722 32.1031 28.9168 31.5739 28.4367L26.7828 24.09Z" fill="#389D2D"/>
<path d="M26.5822 25.0004C26.5822 25.8749 25.8733 26.5837 24.9989 26.5837C24.1244 26.5837 23.4155 25.8749 23.4155 25.0004V13.9171C23.4155 13.0426 24.1244 12.3337 24.9989 12.3337C25.8733 12.3337 26.5822 13.0426 26.5822 13.9171V25.0004Z" fill="#389D2D"/>
</svg>
