<svg width="405" height="269" fill="none" xmlns="http://www.w3.org/2000/svg"><path d="M323.565 193.416v-79.525a6 6 0 0 0-6-6H304.2a6 6 0 0 1-6-6V49.676" stroke="url(#a)" stroke-opacity=".5" stroke-linecap="round" stroke-dasharray="13 13"/><circle cx="298.437" cy="50.263" transform="rotate(-90 298.437 50.263)" fill="#ACD4A7" r="5.31"/><circle cx="298.433" cy="50.291" transform="rotate(-90 298.433 50.291)" fill="#389D2D" r="3.186"/><path d="M82.723 148.463V68.938a6 6 0 0 1 6-6h13.366a6 6 0 0 0 6-6V4.723" stroke="url(#b)" stroke-opacity=".5" stroke-linecap="round" stroke-dasharray="13 13"/><circle cx="5.31" cy="5.31" transform="matrix(0 -1 -1 0 113.161 10.62)" fill="#ACD4A7" r="5.31"/><circle cx="3.186" cy="3.186" transform="matrix(0 -1 -1 0 111.041 8.524)" fill="#389D2D" r="3.186"/><path d="M222.992 183.429h94.618a6 6 0 0 1 6 6v13.366a6 6 0 0 0 6 6h62.487" stroke="url(#c)" stroke-opacity=".5" stroke-linecap="round"/><circle cx="5.31" cy="5.31" transform="matrix(1 0 0 -1 387.023 214.345)" fill="#ACD4A7" r="5.31"/><circle cx="3.186" cy="3.186" transform="matrix(1 0 0 -1 389.151 212.216)" fill="#389D2D" r="3.186"/><path d="M157.411 170.705H77.886a6 6 0 0 1-6-6V151.34a6 6 0 0 0-6-6H13.671" stroke="url(#d)" stroke-opacity=".5" stroke-linecap="round" stroke-dasharray="13 13"/><circle cx="5.31" cy="5.31" transform="matrix(-1 0 0 1 19.611 140.269)" fill="#ACD4A7" r="5.31"/><circle cx="3.186" cy="3.186" transform="matrix(-1 0 0 1 17.483 142.394)" fill="#389D2D" r="3.186"/><g filter="url(#e)"><path d="M305.399 118.267c-60.658-22.078-153.216-10.713-206.731 25.383-53.516 36.097-47.726 83.258 12.933 105.336 60.659 22.078 153.216 10.713 206.732-25.384 53.515-36.097 47.725-83.257-12.934-105.335z" stroke="#7D7D7D" stroke-opacity=".3" stroke-width="2" stroke-linecap="round" stroke-linejoin="round"/></g><path d="M305.399 89.56c-60.658-22.078-153.216-10.714-206.731 25.383C45.152 151.04 50.942 198.2 111.6 220.278c60.659 22.078 153.216 10.713 206.732-25.384 53.515-36.096 47.725-83.256-12.934-105.334z" stroke="#389D2D" stroke-width="2" stroke-linecap="round" stroke-linejoin="round"/><circle opacity=".11" cx="89.765" cy="89.765" r="89.765" transform="matrix(-.9397 -.34202 -.82904 .5592 366.776 141.887)" fill="url(#f)"/><circle opacity=".11" cx="59.502" cy="59.502" r="59.502" transform="matrix(-.9397 -.34202 -.82904 .5592 310.807 155.809)" fill="url(#g)"/><path opacity=".61" d="M227.515 160.517c-15.397-5.604-38.889-2.719-52.473 6.443-13.584 9.162-12.114 21.132 3.283 26.736 15.396 5.604 38.889 2.719 52.473-6.443 13.583-9.162 12.113-21.132-3.283-26.736z" fill="#389D2D" stroke="#C2E6BE" stroke-linecap="round" stroke-linejoin="round"/><g clip-path="url(#h)"><path d="m199.738 19.414-54.445 54.517a4.6 4.6 0 0 0 0 6.498l54.445 54.517a4.585 4.585 0 0 0 6.489 0l54.446-54.517a4.6 4.6 0 0 0 0-6.498l-54.446-54.517a4.584 4.584 0 0 0-6.489 0z" fill="url(#i)" stroke="url(#j)"/><path d="m199.81 26.616-47.253 47.315a4.6 4.6 0 0 0 0 6.498l47.253 47.314a4.585 4.585 0 0 0 6.489 0l47.252-47.314a4.6 4.6 0 0 0 0-6.498l-47.252-47.314a4.584 4.584 0 0 0-6.489 0z" stroke="#A7A7A7" stroke-opacity=".3"/><path d="M182.328 89a.787.787 0 0 1-.578-.238.827.827 0 0 1-.238-.612v-4.08h-10.71a.787.787 0 0 1-.578-.238.827.827 0 0 1-.238-.612v-2.754c0-.159.034-.329.102-.51.068-.181.159-.351.272-.51l9.962-13.668c.295-.385.714-.578 1.258-.578h4.318c.227 0 .419.08.578.238a.827.827 0 0 1 .238.612v13.498h3.026c.272 0 .476.08.612.238a.786.786 0 0 1 .238.578v2.856c0 .25-.079.453-.238.612a.787.787 0 0 1-.578.238h-3.06v4.08c0 .25-.079.453-.238.612a.787.787 0 0 1-.578.238h-3.57zm-7.072-9.282h6.358v-8.942l-6.358 8.942zm27.778 9.622c-1.632 0-3.038-.227-4.216-.68-1.156-.476-2.12-1.122-2.89-1.938a8.613 8.613 0 0 1-1.7-2.89 13.743 13.743 0 0 1-.646-3.536c-.023-.612-.046-1.292-.068-2.04v-2.312c.022-.77.045-1.473.068-2.108.045-1.247.26-2.414.646-3.502a8.408 8.408 0 0 1 1.768-2.856c.77-.816 1.734-1.45 2.89-1.904 1.178-.476 2.561-.714 4.148-.714 1.586 0 2.958.238 4.114.714 1.156.453 2.119 1.088 2.89 1.904a8.015 8.015 0 0 1 1.734 2.856c.408 1.088.646 2.255.714 3.502.022.635.034 1.337.034 2.108.022.77.022 1.541 0 2.312 0 .748-.012 1.428-.034 2.04a12.886 12.886 0 0 1-.68 3.536 8.361 8.361 0 0 1-1.734 2.89c-.748.816-1.712 1.462-2.89 1.938-1.156.453-2.539.68-4.148.68zm0-4.42c1.314 0 2.278-.43 2.89-1.292.612-.861.94-2.029.986-3.502a60.97 60.97 0 0 0 .034-2.04c.022-.703.022-1.405 0-2.108 0-.703-.012-1.36-.034-1.972-.046-1.405-.374-2.55-.986-3.434-.612-.884-1.576-1.337-2.89-1.36-1.338.023-2.312.476-2.924 1.36-.59.884-.907 2.029-.952 3.434-.023.612-.046 1.27-.068 1.972v2.108c.022.703.045 1.383.068 2.04.045 1.473.374 2.64.986 3.502.612.861 1.575 1.292 2.89 1.292zM227.717 89a.785.785 0 0 1-.578-.238.827.827 0 0 1-.238-.612v-4.08h-10.71a.785.785 0 0 1-.578-.238.827.827 0 0 1-.238-.612v-2.754c0-.159.034-.329.102-.51.068-.181.158-.351.272-.51l9.962-13.668c.294-.385.714-.578 1.258-.578h4.318c.226 0 .419.08.578.238a.831.831 0 0 1 .238.612v13.498h3.026c.272 0 .476.08.612.238a.79.79 0 0 1 .238.578v2.856c0 .25-.08.453-.238.612a.788.788 0 0 1-.578.238h-3.06v4.08c0 .25-.08.453-.238.612a.788.788 0 0 1-.578.238h-3.57zm-7.072-9.282h6.358v-8.942l-6.358 8.942z" fill="#fff"/></g><defs><linearGradient id="a" x1="310.882" y1="193.416" x2="310.882" y2="49.676" gradientUnits="userSpaceOnUse"><stop stop-color="#A7A7A7" stop-opacity="0"/><stop offset="1" stop-color="#414141" stop-opacity=".6"/></linearGradient><linearGradient id="b" x1="95.406" y1="148.463" x2="95.406" y2="4.723" gradientUnits="userSpaceOnUse"><stop stop-color="#A7A7A7" stop-opacity="0"/><stop offset="1" stop-color="#414141" stop-opacity=".6"/></linearGradient><linearGradient id="c" x1="222.992" y1="196.112" x2="392.097" y2="196.112" gradientUnits="userSpaceOnUse"><stop stop-color="#A7A7A7" stop-opacity="0"/><stop offset="1" stop-color="#414141" stop-opacity=".6"/></linearGradient><linearGradient id="d" x1="157.411" y1="158.022" x2="13.671" y2="158.022" gradientUnits="userSpaceOnUse"><stop stop-color="#A7A7A7" stop-opacity="0"/><stop offset="1" stop-color="#414141" stop-opacity=".6"/></linearGradient><linearGradient id="i" x1="172.366" y1="46.822" x2="234.103" y2="108.478" gradientUnits="userSpaceOnUse"><stop/><stop offset="1" stop-color="#666"/></linearGradient><linearGradient id="j" x1="172.366" y1="46.822" x2="234.103" y2="108.478" gradientUnits="userSpaceOnUse"><stop/><stop offset="1" stop-color="#666"/></linearGradient><radialGradient id="f" cx="0" cy="0" r="1" gradientUnits="userSpaceOnUse" gradientTransform="rotate(90 0 89.765) scale(89.7646)"><stop stop-color="#143710"/><stop offset="1" stop-color="#389D2D"/></radialGradient><radialGradient id="g" cx="0" cy="0" r="1" gradientUnits="userSpaceOnUse" gradientTransform="rotate(90 0 59.502) scale(59.5019)"><stop stop-color="#143710"/><stop offset="1" stop-color="#389D2D"/></radialGradient><clipPath id="h"><path fill="#fff" transform="translate(141.888 16.165)" d="M0 0h122.03v122.03H0z"/></clipPath><filter id="e" x="55.778" y="101.345" width="305.443" height="164.563" filterUnits="userSpaceOnUse" color-interpolation-filters="sRGB"><feFlood flood-opacity="0" result="BackgroundImageFix"/><feBlend in="SourceGraphic" in2="BackgroundImageFix" result="shape"/><feGaussianBlur stdDeviation="2.5" result="effect1_foregroundBlur_345_6"/></filter></defs></svg>