<svg width="490" height="330" viewBox="0 0 490 330" fill="none" xmlns="http://www.w3.org/2000/svg">
<path d="M412.702 224.763L344.544 194.478C339.497 192.236 331.124 191.724 325.841 193.336L183.143 236.876C177.86 238.487 177.67 241.612 182.717 243.855L318.949 304.388C324.028 306.644 332.468 307.146 337.738 305.503L460.496 267.249" stroke="#A7A7A7" stroke-dasharray="7 7"/>
<path d="M18.6374 263.124L128.482 225.738C133.69 223.965 142.409 224.421 147.624 226.738L275.79 283.687C280.529 285.793 280.691 288.706 276.162 290.397L185.014 324.428C179.486 326.492 169.579 325.835 164.527 323.07L90.9572 282.791" stroke="#A7A7A7" stroke-linecap="round" stroke-dasharray="6 6"/>
<rect width="192.907" height="192.877" rx="10" transform="matrix(0.956469 -0.291835 0.913848 0.406056 51.1562 237.318)" fill="#A7A7A7"/>
<rect width="169.193" height="169.166" rx="10" transform="matrix(0.956469 -0.291835 0.913848 0.406056 71.5625 237.319)" fill="#EEEEEE"/>
<rect width="145.977" height="145.953" rx="10" transform="matrix(0.956469 -0.291835 0.913848 0.406056 91.3438 237.318)" fill="#F9F9F9"/>
<rect opacity="0.9" x="0.934925" y="0.0571825" width="41.5662" height="41.5662" rx="5.5" transform="matrix(0.956305 -0.292372 0.913545 0.406737 364.34 171.436)" stroke="#3D3D3D"/>
<rect opacity="0.9" x="0.934925" y="0.0571825" width="41.5662" height="41.5662" rx="5.5" transform="matrix(0.956305 -0.292372 0.913545 0.406737 364.34 140.311)" stroke="#EEEEEE"/>
<rect opacity="0.8" width="111.496" height="111.306" rx="10" transform="matrix(0.920786 0.390067 0 1 239.133 53.4104)" fill="url(#paint0_linear_4810_7571)"/>
<path opacity="0.7" d="M253.786 165.374C264.882 171.767 273.759 187.004 273.759 199.655C273.759 204.107 272.65 207.669 270.697 210.034L284.368 233.6L278.198 237.079L264.35 213.563C261.287 213.975 257.648 213.141 253.786 210.916C242.69 204.523 233.813 189.289 233.813 176.638C233.813 163.987 242.69 158.98 253.786 165.374ZM253.786 175.496C250.843 173.8 248.021 173.505 245.94 174.68C243.859 175.853 242.69 178.397 242.69 181.753C242.69 185.107 243.859 189 245.94 192.57C248.021 196.141 250.843 199.101 253.786 200.797C256.729 202.493 259.551 202.785 261.632 201.612C263.713 200.44 264.882 197.893 264.882 194.54C264.882 191.183 263.713 187.293 261.632 183.722C259.551 180.149 256.729 177.191 253.786 175.496ZM229.375 110.825C234.083 113.538 238.599 118.274 241.929 123.989C245.258 129.702 247.128 135.928 247.128 141.296C247.128 145.903 245.753 149.36 243.489 151.495C239.672 150.916 236.254 151.529 233.414 153.129L229.375 151.308C224.666 148.595 220.15 143.862 216.821 138.147C213.491 132.432 211.621 126.206 211.621 120.837C211.621 115.469 213.491 111.398 216.821 109.522C220.15 107.644 224.666 108.112 229.375 110.825ZM193.867 171.332V161.212C193.867 150.483 208.558 150.145 227.155 160.151C225.735 163.279 224.936 167.071 224.936 171.523C224.936 178.051 226.623 185.146 229.375 191.791L193.867 171.332Z" fill="#389D2D"/>
<rect opacity="0.9" x="0.934925" y="0.0571825" width="41.5662" height="41.5662" rx="5.5" transform="matrix(0.956305 -0.292372 0.913545 0.406737 0.0276755 66.185)" stroke="#389D2D"/>
<rect opacity="0.9" x="0.934925" y="0.0571825" width="41.5662" height="41.5662" rx="5.5" transform="matrix(0.956305 -0.292372 0.913545 0.406737 -0.011387 35.0615)" stroke="#389D2D"/>
<rect opacity="0.9" width="145.977" height="145.953" rx="10" transform="matrix(0.956469 -0.291835 0.913848 0.406056 90.7266 42.6013)" fill="#EEEEEE"/>
<rect x="0.460393" y="0.695034" width="110.496" height="110.306" rx="9.5" transform="matrix(0.920786 0.390067 0 1 124.779 80.3839)" stroke="#A7A7A7"/>
<defs>
<linearGradient id="paint0_linear_4810_7571" x1="55.7478" y1="0" x2="55.7478" y2="111.306" gradientUnits="userSpaceOnUse">
<stop stop-color="#4C4C4C"/>
<stop offset="1" stop-color="#B2B2B2"/>
</linearGradient>
</defs>
</svg>
