<svg xmlns="http://www.w3.org/2000/svg" width="340" height="200" fill="none"><g clip-path="url(#a)"><mask id="b" width="340" height="200" x="0" y="0" maskUnits="userSpaceOnUse" style="mask-type:luminance"><path fill="#fff" d="M340 0H0v200h340z"/></mask><g mask="url(#b)"><path fill="#389D2D" fill-opacity=".4" d="m162.657 135.129-50.697 29.27c-1.913 1.104-1.913 2.895 0 4l50.697 29.27c1.913 1.104 5.015 1.104 6.928 0l50.697-29.27c1.914-1.105 1.914-2.896 0-4l-50.697-29.27c-1.913-1.105-5.015-1.105-6.928 0"/><path fill="#389D2D" d="M179.103 97.827c-2.248-2.427-5.387-3.764-8.853-3.764-3.484 0-6.634 1.329-8.872 3.74-2.262 2.439-3.364 5.754-3.105 9.332.513 7.061 5.886 12.804 11.977 12.804s11.455-5.742 11.976-12.801c.262-3.547-.847-6.854-3.123-9.311m11.478 47.989h-40.662a3.59 3.59 0 0 1-2.796-1.286c-.75-.898-1.053-2.123-.829-3.363.975-5.408 4.018-9.952 8.8-13.141 4.249-2.832 9.631-4.39 15.156-4.39s10.907 1.56 15.156 4.39c4.783 3.188 7.825 7.731 8.8 13.14.224 1.239-.078 2.465-.829 3.363a3.6 3.6 0 0 1-2.796 1.287"/><path fill="url(#c)" d="M179.103 97.827c-2.248-2.427-5.387-3.764-8.853-3.764-3.484 0-6.634 1.329-8.872 3.74-2.262 2.439-3.364 5.754-3.105 9.332.513 7.061 5.886 12.804 11.977 12.804s11.455-5.742 11.976-12.801c.262-3.547-.847-6.854-3.123-9.311m11.478 47.989h-40.662a3.59 3.59 0 0 1-2.796-1.286c-.75-.898-1.053-2.123-.829-3.363.975-5.408 4.018-9.952 8.8-13.141 4.249-2.832 9.631-4.39 15.156-4.39s10.907 1.56 15.156 4.39c4.783 3.188 7.825 7.731 8.8 13.14.224 1.239-.078 2.465-.829 3.363a3.6 3.6 0 0 1-2.796 1.287"/><path fill="url(#d)" d="m162.657 118.837-50.697-29.27c-1.913-1.105-3.464-.21-3.464 2v58.54c0 2.209 1.551 4.895 3.464 6l50.697 29.27c1.913 1.104 3.464.209 3.464-2v-58.54c0-2.209-1.551-4.896-3.464-6"/><path fill="url(#e)" d="m229.424 85.328-50.697 29.27c-1.913 1.104-3.464 3.791-3.464 6v58.54c0 2.209 1.551 3.104 3.464 2l50.697-29.27c1.913-1.105 3.464-3.791 3.464-6v-58.54c0-2.21-1.551-3.105-3.464-2"/><path stroke="#389D2D" stroke-dasharray="22 22" d="m167.51 36.949-54.228 31.308c-1.674.967-1.674 2.534 0 3.5l54.228 31.309c1.674.966 4.388.966 6.062 0L227.8 71.757c1.674-.966 1.674-2.533 0-3.5L173.572 36.95c-1.674-.967-4.388-.967-6.062 0Z"/><path fill="url(#f)" fill-rule="evenodd" d="m105.153 150.002-.827 3.583c-.632 2.74-4.164 5.219-5.596 3.929l-9.332-8.402c-.304-.274-.508-.653-.6-1.117s-.07-1 .064-1.582a7 7 0 0 1 .718-1.808c.34-.612.77-1.21 1.264-1.759l15.158-16.835c2.328-2.585 5.226-2.319 4.593.421l-.766 3.319 18.379-6.329c.434-.149.81-.115 1.044.096.234.21.307.58.204 1.028l-3.896 16.876c-.104.448-.375.937-.756 1.359-.38.422-.837.743-1.272.893z" clip-rule="evenodd"/><path fill="url(#g)" fill-rule="evenodd" d="m105.153 150.002-.827 3.583c-.632 2.74-4.164 5.219-5.596 3.929l-9.332-8.402c-.304-.274-.508-.653-.6-1.117s-.07-1 .064-1.582a7 7 0 0 1 .718-1.808c.34-.612.77-1.21 1.264-1.759l15.158-16.835c2.328-2.585 5.226-2.319 4.593.421l-.766 3.319 18.379-6.329c.434-.149.81-.115 1.044.096.234.21.307.58.204 1.028l-3.896 16.876c-.104.448-.375.937-.756 1.359-.38.422-.837.743-1.272.893z" clip-rule="evenodd"/><path fill="url(#h)" fill-rule="evenodd" d="m235.538 153.374-.827 3.583c-.633 2.739 2.024 5.76 4.21 4.786l14.24-6.34c.465-.206.87-.532 1.194-.959s.56-.946.694-1.528a5.5 5.5 0 0 0 .089-1.863 6.6 6.6 0 0 0-.53-1.915l-8.414-18.897c-1.291-2.902-4.582-3.178-5.215-.438l-.766 3.319-17.001-9.424c-.401-.223-.828-.258-1.185-.099s-.616.499-.719.947l-3.896 16.877c-.104.447-.043.965.168 1.439s.555.865.957 1.088z" clip-rule="evenodd"/><path fill="url(#i)" fill-rule="evenodd" d="m235.538 153.374-.827 3.583c-.633 2.739 2.024 5.76 4.21 4.786l14.24-6.34c.465-.206.87-.532 1.194-.959s.56-.946.694-1.528a5.5 5.5 0 0 0 .089-1.863 6.6 6.6 0 0 0-.53-1.915l-8.414-18.897c-1.291-2.902-4.582-3.178-5.215-.438l-.766 3.319-17.001-9.424c-.401-.223-.828-.258-1.185-.099s-.616.499-.719.947l-3.896 16.877c-.104.447-.043.965.168 1.439s.555.865.957 1.088z" clip-rule="evenodd"/><path fill="url(#j)" fill-rule="evenodd" d="m161.866 48.983-3.185-1.839c-2.435-1.406-3.299-5.491-1.369-6.474l12.569-6.405a2.5 2.5 0 0 1 1.38-.242c.502.048 1.026.227 1.544.525a6.2 6.2 0 0 1 1.47 1.215 8 8 0 0 1 1.175 1.717l9.862 19.355c1.514 2.972-.061 5.65-2.496 4.243l-2.95-1.703-2.032 19.332c-.048.457-.252.803-.567.964-.316.16-.716.122-1.114-.108l-15-8.66c-.398-.23-.76-.632-1.008-1.117-.247-.485-.359-1.015-.311-1.472z" clip-rule="evenodd"/><path fill="url(#k)" fill-rule="evenodd" d="m161.866 48.983-3.185-1.839c-2.435-1.406-3.299-5.491-1.369-6.474l12.569-6.405a2.5 2.5 0 0 1 1.38-.242c.502.048 1.026.227 1.544.525a6.2 6.2 0 0 1 1.47 1.215 8 8 0 0 1 1.175 1.717l9.862 19.355c1.514 2.972-.061 5.65-2.496 4.243l-2.95-1.703-2.032 19.332c-.048.457-.252.803-.567.964-.316.16-.716.122-1.114-.108l-15-8.66c-.398-.23-.76-.632-1.008-1.117-.247-.485-.359-1.015-.311-1.472z" clip-rule="evenodd"/></g></g><defs><linearGradient id="c" x1="170.25" x2="170.25" y1="94.063" y2="145.816" gradientUnits="userSpaceOnUse"><stop/><stop offset="1" stop-color="#666"/></linearGradient><linearGradient id="d" x1="137.309" x2="108.496" y1="104.202" y2="154.107" gradientUnits="userSpaceOnUse"><stop stop-color="#E7E7E7" stop-opacity="0"/><stop offset="1" stop-color="#E7E7E7"/></linearGradient><linearGradient id="e" x1="204.076" x2="232.888" y1="99.963" y2="149.868" gradientUnits="userSpaceOnUse"><stop stop-color="#E7E7E7" stop-opacity="0"/><stop offset="1" stop-color="#E7E7E7"/></linearGradient><linearGradient id="f" x1="88.862" x2="122.609" y1="146.413" y2="154.204" gradientUnits="userSpaceOnUse"><stop/><stop offset="1" stop-color="#666"/></linearGradient><linearGradient id="g" x1="88.862" x2="122.609" y1="146.413" y2="154.204" gradientUnits="userSpaceOnUse"><stop stop-color="#4C4C4C"/><stop offset="1" stop-color="#B2B2B2"/></linearGradient><linearGradient id="h" x1="255.05" x2="216.797" y1="152.916" y2="144.085" gradientUnits="userSpaceOnUse"><stop/><stop offset="1" stop-color="#666"/></linearGradient><linearGradient id="i" x1="255.05" x2="216.797" y1="152.916" y2="144.085" gradientUnits="userSpaceOnUse"><stop stop-color="#4C4C4C"/><stop offset="1" stop-color="#B2B2B2"/></linearGradient><linearGradient id="j" x1="172.805" x2="154.15" y1="34.548" y2="66.86" gradientUnits="userSpaceOnUse"><stop/><stop offset="1" stop-color="#666"/></linearGradient><linearGradient id="k" x1="172.805" x2="154.15" y1="34.548" y2="66.86" gradientUnits="userSpaceOnUse"><stop stop-color="#4C4C4C"/><stop offset="1" stop-color="#B2B2B2"/></linearGradient><clipPath id="a"><path fill="#fff" d="M0 0h340v200H0z"/></clipPath></defs></svg>