<svg width="340" height="210" viewBox="0 0 340 210" fill="none" xmlns="http://www.w3.org/2000/svg">
<g opacity="0.8">
<path d="M165.227 22.2394C165.49 22.2394 165.742 22.2046 165.984 22.1348C166.226 22.0627 166.455 21.9677 166.672 21.8498L176.796 15.9139C177.009 15.7961 177.145 15.6145 177.206 15.3692C177.265 15.1239 177.235 14.8942 177.117 14.6802C176.998 14.4661 176.819 14.3291 176.579 14.2689C176.34 14.2088 176.116 14.2407 175.907 14.3645L165.234 20.6107L154.562 14.3645C154.352 14.2395 154.128 14.2076 153.89 14.2689C153.651 14.3303 153.472 14.4673 153.352 14.6802C153.232 14.893 153.206 15.1227 153.272 15.3692C153.339 15.6157 153.475 15.7973 153.681 15.9139L163.797 21.848C164.011 21.9683 164.238 22.0639 164.476 22.1348C164.715 22.2058 164.965 22.2412 165.227 22.2412M151 28.1555V15.1329C151 14.611 151.126 14.1283 151.377 13.6845C151.629 13.2408 151.982 12.8831 152.438 12.6114L163.797 5.97741C164.048 5.8271 164.286 5.72369 164.509 5.66717C164.732 5.61066 164.974 5.583 165.234 5.58421C165.495 5.58541 165.745 5.61306 165.982 5.66717C166.221 5.72369 166.452 5.8271 166.674 5.97741L178.033 12.6114C178.489 12.8831 178.842 13.2408 179.094 13.6845C179.345 14.1283 179.47 14.611 179.469 15.1329V21.1951C179.469 21.6208 179.303 21.9605 178.973 22.2142C178.642 22.4691 178.258 22.5563 177.823 22.4757C177.524 22.3939 177.213 22.3446 176.891 22.3278C176.568 22.311 176.241 22.3032 175.91 22.3044C172.773 22.3044 170.095 23.4286 167.877 25.6772C165.659 27.9258 164.549 30.6398 164.549 33.8191V34.5405C164.549 34.763 164.568 34.968 164.605 35.1556C164.678 35.7424 164.492 36.2053 164.046 36.5444C163.6 36.8835 163.137 36.9232 162.658 36.6635L152.438 30.6752C151.982 30.4047 151.629 30.0476 151.377 29.6039C151.126 29.1602 151 28.6774 151 28.1555Z" fill="url(#paint0_linear_4975_11291)"/>
<path d="M175.91 26.6044C177.891 26.6045 179.573 27.3052 180.956 28.706C182.339 30.1068 183.03 31.8113 183.027 33.8193C183.025 35.8273 182.334 37.5325 180.956 38.9345C179.578 40.3365 177.896 41.0364 175.91 41.0341C173.928 41.0341 172.246 40.3342 170.865 38.9345C169.484 37.5325 168.793 35.8272 168.793 33.8193C168.793 31.8113 169.483 30.1068 170.865 28.706C172.247 27.3051 173.929 26.6044 175.91 26.6044ZM171.855 33.5175C171.717 33.5557 171.601 33.6519 171.538 33.7812L170.632 35.6464L171.082 35.8642L171.532 36.0829L171.771 35.5908C172.404 37.3099 174.033 38.5399 175.955 38.54C177.678 38.54 179.168 37.5498 179.913 36.1074L180.052 35.8134C180.161 35.5596 180.043 35.2651 179.789 35.1562C179.567 35.0612 179.314 35.1391 179.182 35.33L179.133 35.4189C178.595 36.6724 177.371 37.54 175.955 37.54C174.395 37.5399 173.067 36.4841 172.636 35.0244L173.604 35.6611L173.694 35.7079C173.91 35.7939 174.164 35.7193 174.297 35.5175C174.448 35.2868 174.384 34.9768 174.153 34.8251L172.263 33.582C172.143 33.503 171.994 33.4795 171.855 33.5175ZM170.632 35.6464C170.512 35.8947 170.615 36.1938 170.863 36.3144C171.112 36.4351 171.412 36.3313 171.532 36.0829L170.632 35.6464ZM175.955 29.4599C174.118 29.4599 172.545 30.5863 171.858 32.1865C171.75 32.4402 171.867 32.7348 172.121 32.8437C172.375 32.9523 172.669 32.8347 172.777 32.581C173.315 31.3275 174.54 30.4599 175.955 30.4599C177.555 30.4599 178.911 31.5707 179.306 33.0888L178.471 32.6298L178.378 32.5898C178.156 32.5207 177.909 32.6146 177.792 32.8261C177.675 33.0378 177.728 33.2974 177.905 33.4482L177.988 33.5058L179.682 34.4374C179.907 34.5616 180.19 34.4946 180.335 34.2822L181.439 32.666C181.595 32.438 181.537 32.1264 181.309 31.9706C181.081 31.8152 180.77 31.8739 180.614 32.1015L180.227 32.6679C179.667 30.8147 177.972 29.4599 175.955 29.4599Z" fill="url(#paint1_linear_4975_11291)"/>
</g>
<g filter="url(#filter0_f_4975_11291)">
<circle cx="65.5506" cy="65.5506" r="64.5506" transform="matrix(-0.939693 -0.34202 -0.829038 0.559193 285.883 128.874)" stroke="#7D7D7D" stroke-opacity="0.3" stroke-width="2" stroke-linecap="round" stroke-linejoin="round"/>
</g>
<circle cx="65.5506" cy="65.5506" r="64.5506" transform="matrix(-0.939693 -0.34202 -0.829038 0.559193 285.883 112.911)" stroke="#389D2D" stroke-width="2" stroke-linecap="round" stroke-linejoin="round"/>
<circle opacity="0.11" cx="49.9158" cy="49.9158" r="49.9158" transform="matrix(-0.939693 -0.34202 -0.829038 0.559193 257.957 119.899)" fill="url(#paint2_radial_4975_11291)"/>
<circle opacity="0.11" cx="33.0875" cy="33.0875" r="33.0875" transform="matrix(-0.939693 -0.34202 -0.829038 0.559193 226.832 127.641)" fill="url(#paint3_radial_4975_11291)"/>
<circle opacity="0.61" cx="16.7752" cy="16.7752" r="16.2752" transform="matrix(-0.939693 -0.34202 -0.829038 0.559193 196.512 135.841)" fill="#389D2D" stroke="#C2E6BE" stroke-linecap="round" stroke-linejoin="round"/>
<g clip-path="url(#clip0_4975_11291)">
<path d="M165.072 51.7957L134.797 82.1111C133.8 83.1089 133.8 84.7266 134.796 85.7244L165.072 116.04C166.069 117.038 167.684 117.038 168.681 116.04L198.956 85.7244C199.953 84.7266 199.953 83.1089 198.956 82.1111L168.681 51.7957C167.684 50.7979 166.069 50.7979 165.072 51.7957Z" fill="url(#paint4_linear_4975_11291)" stroke="url(#paint5_linear_4975_11291)"/>
<path d="M165.111 55.8008L138.836 82.111C137.839 83.1088 137.839 84.7265 138.836 85.7243L165.111 112.035C166.108 113.032 167.723 113.032 168.72 112.035L194.996 85.7243C195.992 84.7265 195.992 83.1088 194.996 82.111L168.72 55.8008C167.723 54.803 166.108 54.803 165.111 55.8008Z" stroke="#A7A7A7" stroke-opacity="0.3"/>
<path d="M174.147 89.5824C174.149 89.7541 174.105 89.9787 174.059 90.1638C173.737 91.4656 172.308 92.9263 170.296 92.7934C168.473 92.6732 166.988 91.7969 166.988 90.5679C166.988 89.339 168.47 88.3425 170.296 88.3425C172.123 88.3425 174.136 88.3535 174.147 89.5824Z" fill="#F9F9F9"/>
<path d="M170.293 88.55C169.312 88.55 167.072 88.822 166.558 88.822C165.65 88.822 164.914 89.3924 164.914 90.0964C164.914 90.435 165.087 90.7409 165.365 90.9691C165.365 90.9691 165.975 91.5814 167.073 91.2877C167.554 91.159 168.335 90.2038 169.712 90.0521C170.397 89.9762 171.682 90.5073 173.939 90.52C174.036 90.3112 174.056 90.1662 174.056 90.1662C174.056 88.936 172.12 88.55 170.293 88.55Z" fill="#A9A9A9"/>
<path d="M174.053 90.1633C174.053 90.1633 175.377 89.8944 176.2 88.8105C177.16 87.5464 177.034 86.1937 177.034 86.1937C178.006 84.373 176.731 82.6659 176.731 82.6659C176.604 80.7439 175.417 79.9477 175.417 79.9477C174.647 78.1143 172.942 77.6215 172.942 77.6215C171.604 76.0539 169.23 76.1043 169.23 76.1043C169.23 76.1043 167.006 75.2881 163.952 76.2057C163.448 76.3574 161.755 76.7112 160.518 77.4698C156.617 79.8609 156.322 83.5896 156.376 84.1958C156.679 87.584 159.053 88.1909 160.568 88.5447C160.921 89.5054 162.222 91.2757 164.558 90.6184C167.437 90.1129 168.649 89.253 169.356 89.253C170.064 89.253 172.033 90.0115 174.053 90.1633Z" fill="#EEEEEE"/>
<path d="M166.776 84.7165C168.186 83.9549 168.951 84.0259 169.627 84.0872C169.841 84.1066 170.044 84.1218 170.25 84.1206C171.452 84.0933 172.426 83.5859 172.857 83.095C172.906 83.034 172.93 82.9562 172.924 82.8779C172.917 82.7996 172.881 82.727 172.822 82.6751C172.763 82.6232 172.686 82.5962 172.608 82.5997C172.529 82.6032 172.455 82.6369 172.401 82.6938C172.069 83.0725 171.25 83.4906 170.236 83.5137C170.054 83.5192 169.871 83.501 169.682 83.4834C168.958 83.416 168.059 83.3335 166.488 84.1825C166.085 84.4003 165.532 84.4811 164.933 84.5418C163.601 82.6174 164.403 80.9412 164.632 80.5418C164.654 80.543 164.676 80.5503 164.699 80.5503C164.942 80.5503 165.185 80.4909 165.406 80.3658C165.473 80.3249 165.522 80.2593 165.541 80.1831C165.561 80.1069 165.551 80.0258 165.512 79.9573C165.473 79.8887 165.409 79.8379 165.334 79.8156C165.258 79.7933 165.177 79.8013 165.108 79.8379C164.917 79.9429 164.694 79.9721 164.482 79.9196C164.271 79.8671 164.088 79.7367 163.968 79.5545C163.923 79.4908 163.855 79.447 163.779 79.4321C163.702 79.4172 163.623 79.4324 163.557 79.4745C163.492 79.5166 163.445 79.5823 163.426 79.6581C163.408 79.7339 163.42 79.8139 163.458 79.8816C163.602 80.1067 163.804 80.276 164.033 80.3895C163.717 81.0316 163.118 82.7199 164.258 84.6079C163.456 84.6868 162.652 84.8003 162.023 85.2063C161.581 85.4966 161.196 85.8649 160.885 86.2932C160.504 86.2277 159.108 85.8836 158.864 84.3324C159.016 84.2147 159.138 84.0593 159.214 83.8675C159.229 83.8305 159.236 83.7909 159.235 83.751C159.235 83.7112 159.226 83.6719 159.21 83.6353C159.194 83.5987 159.172 83.5656 159.143 83.5379C159.114 83.5102 159.081 83.4883 159.044 83.4737C159.007 83.459 158.967 83.4518 158.927 83.4524C158.888 83.4531 158.848 83.4615 158.812 83.4774C158.775 83.4932 158.742 83.5161 158.714 83.5447C158.687 83.5733 158.665 83.6071 158.65 83.6442C158.628 83.708 158.591 83.7661 158.544 83.8144C158.496 83.8628 158.439 83.9001 158.375 83.924C158.311 83.9452 158.243 83.9524 158.176 83.9451C158.108 83.9378 158.044 83.9161 157.986 83.8815C157.951 83.8621 157.912 83.8498 157.873 83.8452C157.833 83.8407 157.793 83.844 157.755 83.8549C157.678 83.877 157.612 83.9289 157.573 83.9992C157.534 84.0696 157.525 84.1526 157.547 84.23C157.569 84.3073 157.621 84.3728 157.691 84.4119C157.863 84.5078 158.047 84.5563 158.23 84.5563C158.253 84.5563 158.274 84.546 158.296 84.5448C158.585 86.0092 159.741 86.6525 160.558 86.8473C160.451 87.0755 160.384 87.32 160.358 87.5707C160.351 87.6509 160.376 87.7305 160.427 87.7922C160.479 87.8539 160.553 87.8926 160.633 87.8996L160.66 87.9009C160.736 87.9009 160.809 87.8724 160.865 87.8212C160.921 87.77 160.955 87.6997 160.962 87.6241C161.027 86.888 161.729 86.119 162.352 85.7154C162.936 85.3386 163.791 85.2591 164.619 85.182C165.422 85.1086 166.181 85.0382 166.776 84.7165ZM174.573 83.8038C174.535 83.8745 174.526 83.9576 174.548 84.0349C174.571 84.1121 174.623 84.1773 174.694 84.2159C174.765 84.2545 174.848 84.2635 174.925 84.2409C175.002 84.2182 175.067 84.1658 175.106 84.0951C175.117 84.0745 176.222 82.002 174.153 80.6092C174.087 80.5643 174.005 80.5478 173.926 80.5633C173.847 80.5787 173.778 80.6249 173.733 80.6917C173.688 80.7585 173.671 80.8404 173.687 80.9194C173.702 80.9984 173.748 81.068 173.815 81.1129C175.418 82.1919 174.609 83.7383 174.573 83.8038ZM162.011 78.9038C162.059 78.9039 162.107 78.8924 162.149 78.8705C162.192 78.8485 162.229 78.8167 162.257 78.7776C163.136 77.5535 164.353 77.9723 164.405 77.9918C164.479 78.0164 164.56 78.0111 164.631 77.9768C164.702 77.9426 164.757 77.8822 164.784 77.8083C164.811 77.7344 164.808 77.6529 164.777 77.5809C164.745 77.5089 164.686 77.4521 164.614 77.4225C164.032 77.2065 162.688 77.1385 161.765 78.4238C161.733 78.4691 161.713 78.5226 161.709 78.5782C161.705 78.6337 161.716 78.6894 161.742 78.739C161.767 78.7886 161.806 78.8302 161.853 78.8593C161.901 78.8884 161.955 78.9038 162.011 78.9038ZM169.934 77.7581C171.282 77.6482 171.896 78.6271 171.924 78.6733C171.964 78.7427 172.031 78.7931 172.109 78.8133C172.147 78.8234 172.188 78.8257 172.227 78.8202C172.266 78.8147 172.304 78.8015 172.339 78.7813C172.373 78.7611 172.403 78.7343 172.427 78.7025C172.451 78.6707 172.469 78.6344 172.479 78.5958C172.489 78.5572 172.491 78.517 172.486 78.4775C172.48 78.438 172.467 78.3999 172.447 78.3656C172.414 78.3103 171.634 77.0195 169.887 77.153C169.847 77.1561 169.808 77.167 169.773 77.1851C169.737 77.2032 169.706 77.2281 169.68 77.2583C169.628 77.3196 169.602 77.399 169.608 77.4792C169.614 77.5594 169.652 77.6339 169.713 77.6862C169.774 77.7385 169.854 77.7644 169.934 77.7581ZM175.479 86.6252C175.33 86.6167 175.166 86.735 175.153 86.9025C175.152 86.9135 175.055 87.9458 173.995 88.2947C173.926 88.3165 173.867 88.3626 173.829 88.4245C173.79 88.4864 173.776 88.5599 173.787 88.6318C173.799 88.7036 173.836 88.7688 173.891 88.8156C173.947 88.8623 174.018 88.8875 174.09 88.8864C174.122 88.8864 174.154 88.8813 174.185 88.8713C175.623 88.3991 175.752 87.0118 175.757 86.9529C175.76 86.9131 175.756 86.873 175.744 86.8351C175.732 86.797 175.712 86.7618 175.686 86.7314C175.66 86.7009 175.629 86.6759 175.593 86.6576C175.558 86.6394 175.519 86.6284 175.479 86.6252Z" fill="#4C4C4C"/>
<path d="M160.478 83.6757C160.466 83.7146 160.462 83.7555 160.467 83.7961C160.471 83.8366 160.483 83.8758 160.503 83.9114C160.522 83.9471 160.549 83.9784 160.581 84.0035C160.613 84.0286 160.65 84.047 160.689 84.0576C160.728 84.0682 160.769 84.0708 160.81 84.0651C160.85 84.0596 160.889 84.0459 160.924 84.025C160.958 84.004 160.989 83.9763 161.013 83.9434C161.037 83.9105 161.054 83.8731 161.063 83.8335C161.121 83.6232 161.257 83.4428 161.443 83.3287C161.629 83.2145 161.851 83.175 162.064 83.2181C162.103 83.2262 162.143 83.2266 162.183 83.2193C162.222 83.2119 162.259 83.1969 162.292 83.1751C162.326 83.1533 162.354 83.1251 162.377 83.0922C162.399 83.0593 162.415 83.0222 162.423 82.9832C162.431 82.9442 162.432 82.904 162.424 82.8648C162.417 82.8257 162.402 82.7883 162.38 82.755C162.358 82.7216 162.33 82.6929 162.297 82.6704C162.264 82.6479 162.228 82.6321 162.189 82.6239C161.936 82.5726 161.675 82.5907 161.432 82.6762C160.725 81.466 160.863 80.2729 160.865 80.2602C160.876 80.1804 160.854 80.0997 160.805 80.0357C160.757 79.9718 160.684 79.9298 160.605 79.9191C160.525 79.9089 160.445 79.9303 160.382 79.9788C160.318 80.0273 160.276 80.0989 160.264 80.1783C160.256 80.2371 160.095 81.5838 160.909 82.9784C160.701 83.1648 160.552 83.4068 160.478 83.6757ZM167.254 82.1767C167.375 82.0666 167.533 82.0064 167.696 82.0081C167.86 82.0097 168.017 82.0732 168.135 82.1858C168.193 82.2418 168.271 82.2726 168.351 82.2713C168.431 82.27 168.508 82.2369 168.564 82.1791C168.62 82.1214 168.651 82.0438 168.65 81.9633C168.649 81.8829 168.616 81.8062 168.558 81.7501C168.421 81.6196 168.256 81.5229 168.075 81.4679C168.254 80.8513 168.183 80.5776 168.017 80.0648C167.984 79.9644 167.952 79.8636 167.922 79.7625L167.903 79.7018C167.683 78.9687 167.537 78.4851 167.956 77.8023C167.998 77.7337 168.011 77.6512 167.993 77.5729C167.974 77.4946 167.925 77.4269 167.857 77.3848C167.788 77.3426 167.706 77.3294 167.628 77.3481C167.549 77.3668 167.482 77.4158 167.44 77.4843C166.877 78.3995 167.084 79.0846 167.323 79.8778L167.341 79.9385C167.377 80.0558 167.41 80.1604 167.44 80.2523C167.59 80.7141 167.635 80.8689 167.452 81.4272C167.223 81.4682 167.011 81.5744 166.84 81.7331C166.784 81.7884 166.751 81.8638 166.749 81.9431C166.747 82.0224 166.776 82.0992 166.83 82.1572C166.884 82.2151 166.959 82.2496 167.038 82.2533C167.117 82.2569 167.195 82.2294 167.254 82.1767ZM171.111 80.3652C171.291 80.3657 171.469 80.3261 171.632 80.2492C171.705 80.2149 171.761 80.1532 171.788 80.0774C171.815 80.0017 171.811 79.9182 171.777 79.8454C171.743 79.7725 171.681 79.7163 171.605 79.6891C171.53 79.6618 171.446 79.6657 171.374 79.7C171.225 79.7685 171.056 79.7779 170.9 79.7265C170.744 79.675 170.614 79.5665 170.535 79.4226C170.517 79.3862 170.492 79.3538 170.461 79.3272C170.43 79.3007 170.394 79.2806 170.356 79.2682C170.317 79.2558 170.276 79.2513 170.236 79.255C170.195 79.2587 170.156 79.2705 170.12 79.2897C170.084 79.3089 170.053 79.3352 170.027 79.3668C170.002 79.3985 169.983 79.435 169.972 79.4741C169.961 79.5133 169.958 79.5542 169.963 79.5946C169.968 79.6349 169.981 79.6739 170.001 79.7091C170.11 79.913 170.272 80.0738 170.462 80.1855C170.136 80.9775 170.321 81.8186 170.472 82.2647C170.483 82.3038 170.503 82.3402 170.529 82.3717C170.555 82.4032 170.587 82.4292 170.623 82.448C170.659 82.4668 170.698 82.4781 170.739 82.4813C170.78 82.4844 170.821 82.4794 170.859 82.4663C170.898 82.4533 170.934 82.4326 170.964 82.4054C170.994 82.3784 171.019 82.3453 171.037 82.3084C171.054 82.2716 171.064 82.2315 171.065 82.1907C171.067 82.1499 171.06 82.1092 171.046 82.0711C170.944 81.7688 170.746 81.0054 171.045 80.356C171.068 80.3573 171.089 80.3652 171.111 80.3652ZM174.019 86.0874C174.016 86.0476 174.006 86.0086 173.989 85.9727C173.971 85.9368 173.947 85.9048 173.917 85.8784C173.887 85.852 173.852 85.8319 173.814 85.8191C173.777 85.8063 173.737 85.8012 173.697 85.804C173.552 85.814 173.406 85.7952 173.268 85.7487C173.13 85.7022 173.002 85.6288 172.892 85.5328C172.783 85.4367 172.693 85.3199 172.629 85.1891C172.564 85.0583 172.526 84.916 172.517 84.7705C172.51 84.6907 172.472 84.6168 172.412 84.5642C172.352 84.5116 172.274 84.4844 172.194 84.4883C172.154 84.491 172.115 84.5015 172.08 84.5192C172.044 84.5369 172.012 84.5615 171.986 84.5915C171.96 84.6216 171.94 84.6565 171.927 84.6943C171.914 84.7321 171.909 84.772 171.912 84.8118C171.937 85.1698 172.073 85.4927 172.28 85.7554C171.793 86.3296 171.155 86.4928 170.799 86.5347C170.485 86.5723 170.209 86.5401 169.891 86.5025C169.6 86.4691 169.27 86.4309 168.862 86.443L168.859 86.4437C168.847 86.2701 168.806 86.017 168.674 85.8064C168.629 85.7441 168.562 85.7012 168.486 85.6866C168.411 85.6719 168.332 85.6865 168.267 85.7274C168.202 85.7684 168.155 85.8326 168.135 85.907C168.115 85.9815 168.125 86.0607 168.161 86.1287C168.242 86.2592 168.257 86.4673 168.257 86.5687C167.952 86.6785 167.688 86.84 167.449 86.9959C167.022 87.2739 166.686 87.4935 166.18 87.3795C165.721 87.2745 165.263 87.2532 164.874 87.3078C164.813 87.1555 164.717 86.9734 164.569 86.8333C164.511 86.778 164.433 86.7482 164.353 86.7505C164.272 86.7528 164.196 86.7869 164.141 86.8454C164.086 86.9039 164.056 86.982 164.058 87.0624C164.06 87.1429 164.094 87.2192 164.153 87.2745C164.205 87.3236 164.246 87.3953 164.28 87.4669C163.611 87.7423 163.276 88.203 163.26 88.2254C163.228 88.2708 163.209 88.324 163.205 88.3795C163.201 88.435 163.212 88.4904 163.238 88.5398C163.263 88.5892 163.302 88.6306 163.349 88.6595C163.397 88.6884 163.451 88.7037 163.507 88.7037C163.555 88.7039 163.602 88.6927 163.645 88.6711C163.688 88.6495 163.725 88.618 163.753 88.5793C163.756 88.5744 164.089 88.1283 164.745 87.9481C165.084 87.8547 165.571 87.8625 166.046 87.9705C166.178 88.0009 166.301 88.0112 166.421 88.013C166.477 88.1454 166.499 88.3025 166.502 88.3608C166.506 88.4382 166.54 88.511 166.596 88.5642C166.653 88.6175 166.727 88.6472 166.805 88.6472L166.821 88.6466C166.901 88.6424 166.976 88.6066 167.03 88.5471C167.083 88.4877 167.111 88.4093 167.108 88.3292C167.098 88.1878 167.071 88.0482 167.029 87.9129C167.308 87.8116 167.551 87.6531 167.78 87.5045C168.126 87.2781 168.454 87.0639 168.883 87.0499C169.242 87.0372 169.537 87.0718 169.823 87.1051C170.11 87.1385 170.393 87.1604 170.704 87.1421C170.759 87.2957 170.755 87.5008 170.746 87.5694C170.741 87.6122 170.745 87.6555 170.758 87.6966C170.771 87.7376 170.792 87.7756 170.821 87.8079C170.849 87.8401 170.884 87.866 170.923 87.8838C170.962 87.9016 171.005 87.9109 171.048 87.9111C171.121 87.911 171.192 87.8841 171.247 87.8356C171.302 87.787 171.338 87.72 171.348 87.6471C171.37 87.4481 171.358 87.2467 171.312 87.0517C171.865 86.9048 172.36 86.5936 172.733 86.159C173.034 86.3451 173.384 86.4328 173.737 86.4096C173.817 86.4042 173.891 86.3672 173.944 86.3068C173.997 86.2465 174.024 86.1675 174.019 86.0874Z" fill="#4C4C4C"/>
</g>
<path d="M235.926 142.552V100.994C235.926 97.6804 233.239 94.9941 229.926 94.9941H227.821C224.507 94.9941 221.821 92.3078 221.821 88.9941L221.821 62.6225" stroke="url(#paint6_linear_4975_11291)" stroke-opacity="0.5" stroke-linecap="round" stroke-dasharray="13 13"/>
<circle cx="221.953" cy="62.9486" r="2.95261" transform="rotate(-90 221.953 62.9486)" fill="#ACD4A7"/>
<circle cx="221.951" cy="62.9645" r="1.7714" transform="rotate(-90 221.951 62.9645)" fill="#389D2D"/>
<path d="M101.996 117.555L101.996 75.997C101.996 72.6833 104.682 69.997 107.996 69.997H110.101C113.415 69.997 116.101 67.3107 116.101 63.997L116.101 37.6254" stroke="url(#paint7_linear_4975_11291)" stroke-opacity="0.5" stroke-linecap="round" stroke-dasharray="13 13"/>
<circle cx="2.95261" cy="2.95261" r="2.95261" transform="matrix(0 -1 -1 0 118.922 40.9041)" fill="#ACD4A7"/>
<circle cx="1.7714" cy="1.7714" r="1.7714" transform="matrix(0 -1 -1 0 117.742 39.7388)" fill="#389D2D"/>
<defs>
<filter id="filter0_f_4975_11291" x="82.7969" y="95.1355" width="174.289" height="95.9486" filterUnits="userSpaceOnUse" color-interpolation-filters="sRGB">
<feFlood flood-opacity="0" result="BackgroundImageFix"/>
<feBlend mode="normal" in="SourceGraphic" in2="BackgroundImageFix" result="shape"/>
<feGaussianBlur stdDeviation="2.5" result="effect1_foregroundBlur_4975_11291"/>
</filter>
<linearGradient id="paint0_linear_4975_11291" x1="165" y1="44.0002" x2="163.542" y2="3.10568" gradientUnits="userSpaceOnUse">
<stop stop-color="#F9F9F9" stop-opacity="0.8"/>
<stop offset="1" stop-color="#A7A7A7" stop-opacity="0.6"/>
</linearGradient>
<linearGradient id="paint1_linear_4975_11291" x1="176.004" y1="45.0009" x2="174.872" y2="27.0724" gradientUnits="userSpaceOnUse">
<stop stop-color="#F9F9F9" stop-opacity="0.8"/>
<stop offset="1" stop-color="#A7A7A7" stop-opacity="0.6"/>
</linearGradient>
<radialGradient id="paint2_radial_4975_11291" cx="0" cy="0" r="1" gradientUnits="userSpaceOnUse" gradientTransform="translate(49.9158 49.9158) rotate(90) scale(49.9158)">
<stop stop-color="#143710"/>
<stop offset="1" stop-color="#389D2D"/>
</radialGradient>
<radialGradient id="paint3_radial_4975_11291" cx="0" cy="0" r="1" gradientUnits="userSpaceOnUse" gradientTransform="translate(33.0875 33.0875) rotate(90) scale(33.0875)">
<stop stop-color="#143710"/>
<stop offset="1" stop-color="#389D2D"/>
</radialGradient>
<linearGradient id="paint4_linear_4975_11291" x1="149.851" y1="67.0365" x2="184.181" y2="101.322" gradientUnits="userSpaceOnUse">
<stop/>
<stop offset="1" stop-color="#666666"/>
</linearGradient>
<linearGradient id="paint5_linear_4975_11291" x1="149.851" y1="67.0365" x2="184.181" y2="101.322" gradientUnits="userSpaceOnUse">
<stop/>
<stop offset="1" stop-color="#666666"/>
</linearGradient>
<linearGradient id="paint6_linear_4975_11291" x1="228.873" y1="142.552" x2="228.873" y2="62.6225" gradientUnits="userSpaceOnUse">
<stop stop-color="#A7A7A7" stop-opacity="0"/>
<stop offset="1" stop-color="#414141" stop-opacity="0.6"/>
</linearGradient>
<linearGradient id="paint7_linear_4975_11291" x1="109.049" y1="117.555" x2="109.049" y2="37.6254" gradientUnits="userSpaceOnUse">
<stop stop-color="#A7A7A7" stop-opacity="0"/>
<stop offset="1" stop-color="#414141" stop-opacity="0.6"/>
</linearGradient>
<clipPath id="clip0_4975_11291">
<rect width="67.8575" height="67.8575" fill="white" transform="translate(132.902 49.9891)"/>
</clipPath>
</defs>
</svg>
