<svg width="340" height="210" fill="none" xmlns="http://www.w3.org/2000/svg"><g opacity=".8"><path d="M165.227 22.24c.263 0 .515-.035.757-.105.242-.072.471-.167.688-.285l10.124-5.936a.82.82 0 0 0 .41-.545.93.93 0 0 0-.089-.689.818.818 0 0 0-.538-.411.86.86 0 0 0-.672.095l-10.673 6.247-10.672-6.247a.85.85 0 0 0-.672-.095.83.83 0 0 0-.538.411.885.885 0 0 0-.08.69.853.853 0 0 0 .409.544l10.116 5.934c.214.12.441.216.679.287.239.07.489.106.751.106M151 28.156V15.133a2.893 2.893 0 0 1 1.438-2.522l11.359-6.634c.251-.15.489-.253.712-.31.223-.056.465-.084.725-.083.261.001.511.03.748.083.239.057.47.16.692.31l11.359 6.634a2.88 2.88 0 0 1 1.436 2.521v6.063c0 .426-.166.765-.496 1.02-.331.254-.715.341-1.15.26a4.39 4.39 0 0 0-.932-.147c-.323-.017-.65-.025-.981-.024-3.137 0-5.815 1.125-8.033 3.373-2.218 2.249-3.328 4.963-3.328 8.142v.721c0 .223.019.428.056.616.073.586-.113 1.05-.559 1.388-.446.34-.909.38-1.388.12l-10.22-5.989a2.89 2.89 0 0 1-1.438-2.52z" fill="url(#a)"/><path d="M175.91 26.604c1.981 0 3.663.701 5.046 2.102 1.383 1.4 2.074 3.105 2.071 5.113-.002 2.008-.693 3.713-2.071 5.115-1.378 1.403-3.06 2.102-5.046 2.1-1.982 0-3.664-.7-5.045-2.1-1.381-1.401-2.072-3.107-2.072-5.115s.69-3.712 2.072-5.113c1.382-1.4 3.064-2.102 5.045-2.102zm-4.055 6.913a.502.502 0 0 0-.317.264l-.906 1.865.45.218.45.219.239-.492c.633 1.719 2.262 2.949 4.184 2.949 1.723 0 3.213-.99 3.958-2.433l.139-.294a.5.5 0 0 0-.87-.483l-.049.089c-.538 1.253-1.762 2.121-3.178 2.121-1.56 0-2.888-1.056-3.319-2.516l.968.637.09.047a.501.501 0 0 0 .459-.883l-1.89-1.243a.502.502 0 0 0-.408-.065zm-1.223 2.13a.5.5 0 0 0 .9.436l-.9-.437zm5.323-6.187c-1.837 0-3.41 1.126-4.097 2.727a.5.5 0 1 0 .919.395c.538-1.255 1.763-2.122 3.178-2.122 1.6 0 2.956 1.11 3.351 2.629l-.835-.46-.093-.04a.5.5 0 0 0-.473.86l.083.057 1.694.931a.499.499 0 0 0 .653-.155l1.104-1.616a.5.5 0 1 0-.825-.564l-.387.566c-.56-1.853-2.255-3.208-4.272-3.208z" fill="url(#b)"/></g><g filter="url(#c)"><circle cx="65.551" cy="65.551" r="64.551" transform="matrix(-.9397 -.34202 -.82904 .5592 285.883 128.874)" stroke="#7D7D7D" stroke-opacity=".3" stroke-width="2" stroke-linecap="round" stroke-linejoin="round"/></g><circle cx="65.551" cy="65.551" r="64.551" transform="matrix(-.9397 -.34202 -.82904 .5592 285.883 112.911)" stroke="#389D2D" stroke-width="2" stroke-linecap="round" stroke-linejoin="round"/><circle opacity=".11" cx="49.916" cy="49.916" r="49.916" transform="matrix(-.9397 -.34202 -.82904 .5592 257.957 119.899)" fill="url(#d)"/><circle opacity=".11" cx="33.087" cy="33.087" r="33.087" transform="matrix(-.9397 -.34202 -.82904 .5592 226.832 127.641)" fill="url(#e)"/><circle opacity=".61" cx="16.775" cy="16.775" r="16.275" transform="matrix(-.9397 -.34202 -.82904 .5592 196.512 135.841)" fill="#389D2D" stroke="#C2E6BE" stroke-linecap="round" stroke-linejoin="round"/><g clip-path="url(#f)"><path d="M165.072 51.796 134.797 82.11a2.557 2.557 0 0 0-.001 3.613l30.276 30.316a2.55 2.55 0 0 0 3.609 0l30.275-30.316a2.556 2.556 0 0 0 0-3.613l-30.275-30.315a2.55 2.55 0 0 0-3.609 0z" fill="url(#g)" stroke="url(#h)"/><path d="m165.111 55.8-26.275 26.311a2.556 2.556 0 0 0 0 3.613l26.275 26.311a2.551 2.551 0 0 0 3.609 0l26.276-26.31a2.558 2.558 0 0 0 0-3.614l-26.276-26.31a2.55 2.55 0 0 0-3.609 0z" stroke="#A7A7A7" stroke-opacity=".3"/><path d="M174.147 89.582c.002.172-.042.397-.088.582-.322 1.302-1.751 2.762-3.763 2.63-1.823-.12-3.308-.997-3.308-2.226s1.482-2.225 3.308-2.225c1.827 0 3.84.01 3.851 1.24z" fill="#F9F9F9"/><path d="M170.293 88.55c-.981 0-3.221.272-3.735.272-.908 0-1.644.57-1.644 1.274 0 .339.173.645.451.873 0 0 .61.612 1.708.319.481-.129 1.262-1.084 2.639-1.236.685-.076 1.97.455 4.227.468.097-.209.117-.354.117-.354 0-1.23-1.936-1.616-3.763-1.616z" fill="#A9A9A9"/><path d="M174.053 90.163s1.324-.269 2.147-1.352c.96-1.265.834-2.617.834-2.617.972-1.821-.303-3.528-.303-3.528-.127-1.922-1.314-2.718-1.314-2.718-.77-1.834-2.475-2.326-2.475-2.326-1.338-1.568-3.712-1.518-3.712-1.518s-2.224-.816-5.278.102c-.504.151-2.197.505-3.434 1.264-3.901 2.39-4.196 6.12-4.142 6.726.303 3.388 2.677 3.995 4.192 4.349.353.96 1.654 2.73 3.99 2.073 2.879-.505 4.091-1.365 4.798-1.365.708 0 2.677.758 4.697.91z" fill="#EEE"/><path d="M166.776 84.716c1.41-.761 2.175-.69 2.851-.629.214.02.417.035.623.034 1.202-.028 2.176-.535 2.607-1.026a.305.305 0 0 0-.249-.495.303.303 0 0 0-.207.094c-.332.379-1.151.797-2.165.82-.182.005-.365-.013-.554-.03-.724-.068-1.623-.15-3.194.699-.403.217-.956.298-1.555.359-1.332-1.925-.53-3.6-.301-4 .022.001.044.008.067.008.243 0 .486-.06.707-.184a.3.3 0 0 0 .135-.183.302.302 0 0 0-.433-.345.866.866 0 0 1-1.14-.283.303.303 0 0 0-.51.327c.144.225.346.394.575.507a4.34 4.34 0 0 0 .225 4.219c-.802.079-1.606.192-2.235.598-.442.29-.827.659-1.138 1.087-.381-.065-1.777-.41-2.021-1.96.152-.118.274-.274.35-.465a.29.29 0 0 0 .021-.117.299.299 0 0 0-.191-.277.305.305 0 0 0-.394.17.461.461 0 0 1-.275.28.471.471 0 0 1-.389-.043.31.31 0 0 0-.231-.026.304.304 0 0 0-.208.375.304.304 0 0 0 .144.182c.172.096.356.144.539.144.023 0 .044-.01.066-.011.289 1.464 1.445 2.108 2.262 2.302a2.25 2.25 0 0 0-.2.724.304.304 0 0 0 .275.329h.027a.304.304 0 0 0 .302-.276c.065-.736.767-1.505 1.39-1.909.584-.376 1.439-.456 2.267-.533.803-.073 1.562-.144 2.157-.466zm7.797-.912a.304.304 0 0 0 .533.291c.011-.02 1.116-2.093-.953-3.486a.301.301 0 0 0-.42.083.3.3 0 0 0-.046.227.3.3 0 0 0 .128.194c1.603 1.079.794 2.625.758 2.69zm-12.562-4.9a.299.299 0 0 0 .246-.126c.879-1.225 2.096-.806 2.148-.786a.301.301 0 0 0 .379-.184.308.308 0 0 0-.007-.227.306.306 0 0 0-.163-.159c-.582-.215-1.926-.284-2.849 1.002a.307.307 0 0 0-.023.315.303.303 0 0 0 .269.165zm7.923-1.146c1.348-.11 1.962.87 1.99.915a.3.3 0 0 0 .303.147.311.311 0 0 0 .2-.117.305.305 0 0 0 .02-.337c-.033-.056-.813-1.347-2.56-1.213a.299.299 0 0 0-.207.105.303.303 0 0 0 .254.5zm5.545 8.867c-.149-.008-.313.11-.326.278-.001.01-.098 1.043-1.158 1.392a.302.302 0 0 0 .095.592.31.31 0 0 0 .095-.016c1.438-.472 1.567-1.86 1.572-1.918a.298.298 0 0 0-.164-.295.3.3 0 0 0-.114-.033z" fill="#4C4C4C"/><path d="M160.478 83.676a.288.288 0 0 0-.011.12c.004.04.016.08.036.115a.293.293 0 0 0 .186.147.302.302 0 0 0 .374-.225.861.861 0 0 1 1.001-.615.31.31 0 0 0 .228-.043.304.304 0 0 0-.103-.551 1.425 1.425 0 0 0-.757.052c-.707-1.21-.569-2.403-.567-2.416a.302.302 0 0 0-.06-.224.302.302 0 0 0-.423-.057.307.307 0 0 0-.118.2c-.008.058-.169 1.405.645 2.8a1.453 1.453 0 0 0-.431.697zm6.776-1.5a.647.647 0 0 1 .881.01.305.305 0 0 0 .515-.223.302.302 0 0 0-.092-.213 1.21 1.21 0 0 0-.483-.282c.179-.617.108-.89-.058-1.403-.033-.1-.065-.201-.095-.302l-.019-.061c-.22-.733-.366-1.217.053-1.9a.308.308 0 0 0 .037-.23.303.303 0 0 0-.553-.089c-.563.916-.356 1.602-.117 2.395l.018.06c.036.118.069.222.099.314.15.462.195.617.012 1.175a1.214 1.214 0 0 0-.612.306.307.307 0 0 0-.01.424.304.304 0 0 0 .424.02zm3.857-1.81c.18 0 .358-.04.521-.117a.301.301 0 0 0 .145-.404.302.302 0 0 0-.403-.145.648.648 0 0 1-.839-.277.302.302 0 0 0-.415-.133.308.308 0 0 0-.148.184.306.306 0 0 0 .029.235c.109.204.271.365.461.477-.326.791-.141 1.633.01 2.079a.305.305 0 0 0 .387.202.296.296 0 0 0 .105-.062.299.299 0 0 0 .101-.215.304.304 0 0 0-.019-.119c-.102-.302-.3-1.066-.001-1.715.023.001.044.01.066.01zm2.908 5.721a.31.31 0 0 0-.205-.268.296.296 0 0 0-.117-.015 1.106 1.106 0 0 1-1.18-1.034.311.311 0 0 0-.323-.282.298.298 0 0 0-.208.103.313.313 0 0 0-.074.22c.025.359.161.682.368.944a2.297 2.297 0 0 1-1.481.78c-.314.037-.59.005-.908-.032-.291-.034-.621-.072-1.029-.06h-.003a1.41 1.41 0 0 0-.185-.637.302.302 0 0 0-.407-.079.306.306 0 0 0-.106.402c.081.13.096.338.096.44-.305.11-.569.271-.808.427-.427.278-.763.498-1.269.383a3.689 3.689 0 0 0-1.306-.071 1.341 1.341 0 0 0-.305-.475.3.3 0 0 0-.428.012.306.306 0 0 0-.083.217.3.3 0 0 0 .095.213.65.65 0 0 1 .127.192 2.476 2.476 0 0 0-1.02.758.305.305 0 0 0 .089.434.305.305 0 0 0 .404-.08c.003-.005.336-.45.992-.63.339-.094.826-.087 1.301.022.132.03.255.04.375.042.056.132.078.29.081.348a.303.303 0 0 0 .303.286h.016a.304.304 0 0 0 .287-.318 1.843 1.843 0 0 0-.079-.416c.279-.101.522-.26.751-.409.346-.226.674-.44 1.103-.454.359-.013.654.022.94.055.287.033.57.055.881.037.055.154.051.359.042.427a.304.304 0 0 0 .177.315.302.302 0 0 0 .425-.237c.022-.199.01-.4-.036-.595a2.83 2.83 0 0 0 1.421-.893c.301.186.651.274 1.004.25a.302.302 0 0 0 .282-.322z" fill="#4C4C4C"/></g><path d="M235.926 142.552v-41.558a6 6 0 0 0-6-6h-2.105a6 6 0 0 1-6-6V62.623" stroke="url(#i)" stroke-opacity=".5" stroke-linecap="round" stroke-dasharray="13 13"/><circle cx="221.953" cy="62.949" r="2.953" transform="rotate(-90 221.953 62.949)" fill="#ACD4A7"/><circle cx="221.951" cy="62.965" r="1.771" transform="rotate(-90 221.951 62.965)" fill="#389D2D"/><path d="M101.996 117.555V75.997a6 6 0 0 1 6-6h2.105a6 6 0 0 0 6-6V37.625" stroke="url(#j)" stroke-opacity=".5" stroke-linecap="round" stroke-dasharray="13 13"/><circle cx="2.953" cy="2.953" r="2.953" transform="matrix(0 -1 -1 0 118.922 40.904)" fill="#ACD4A7"/><circle cx="1.771" cy="1.771" r="1.771" transform="matrix(0 -1 -1 0 117.742 39.739)" fill="#389D2D"/><defs><linearGradient id="a" x1="165" y1="44" x2="163.542" y2="3.106" gradientUnits="userSpaceOnUse"><stop stop-color="#F9F9F9" stop-opacity=".8"/><stop offset="1" stop-color="#A7A7A7" stop-opacity=".6"/></linearGradient><linearGradient id="b" x1="176.004" y1="45.001" x2="174.872" y2="27.072" gradientUnits="userSpaceOnUse"><stop stop-color="#F9F9F9" stop-opacity=".8"/><stop offset="1" stop-color="#A7A7A7" stop-opacity=".6"/></linearGradient><linearGradient id="g" x1="149.851" y1="67.037" x2="184.181" y2="101.322" gradientUnits="userSpaceOnUse"><stop/><stop offset="1" stop-color="#666"/></linearGradient><linearGradient id="h" x1="149.851" y1="67.037" x2="184.181" y2="101.322" gradientUnits="userSpaceOnUse"><stop/><stop offset="1" stop-color="#666"/></linearGradient><linearGradient id="i" x1="228.873" y1="142.552" x2="228.873" y2="62.623" gradientUnits="userSpaceOnUse"><stop stop-color="#A7A7A7" stop-opacity="0"/><stop offset="1" stop-color="#414141" stop-opacity=".6"/></linearGradient><linearGradient id="j" x1="109.049" y1="117.555" x2="109.049" y2="37.625" gradientUnits="userSpaceOnUse"><stop stop-color="#A7A7A7" stop-opacity="0"/><stop offset="1" stop-color="#414141" stop-opacity=".6"/></linearGradient><radialGradient id="d" cx="0" cy="0" r="1" gradientUnits="userSpaceOnUse" gradientTransform="rotate(90 0 49.916) scale(49.9158)"><stop stop-color="#143710"/><stop offset="1" stop-color="#389D2D"/></radialGradient><radialGradient id="e" cx="0" cy="0" r="1" gradientUnits="userSpaceOnUse" gradientTransform="rotate(90 0 33.087) scale(33.0875)"><stop stop-color="#143710"/><stop offset="1" stop-color="#389D2D"/></radialGradient><clipPath id="f"><path fill="#fff" transform="translate(132.902 49.99)" d="M0 0h67.858v67.858H0z"/></clipPath><filter id="c" x="82.797" y="95.135" width="174.289" height="95.949" filterUnits="userSpaceOnUse" color-interpolation-filters="sRGB"><feFlood flood-opacity="0" result="BackgroundImageFix"/><feBlend in="SourceGraphic" in2="BackgroundImageFix" result="shape"/><feGaussianBlur stdDeviation="2.5" result="effect1_foregroundBlur_4975_11291"/></filter></defs></svg>