<svg width="80" height="80" viewBox="0 0 80 80" fill="none" xmlns="http://www.w3.org/2000/svg">
<path d="M37.87 2.12997L2.12997 37.87C0.95362 39.0464 0.953619 40.9536 2.12997 42.13L37.87 77.87C39.0464 79.0464 40.9536 79.0464 42.13 77.87L77.87 42.13C79.0464 40.9536 79.0464 39.0464 77.87 37.87L42.13 2.12997C40.9536 0.953619 39.0464 0.95362 37.87 2.12997Z" fill="url(#paint0_linear_4429_6101)" stroke="url(#paint1_linear_4429_6101)"/>
<path d="M35.4445 27.476C33.0117 28.8316 31.0225 29.9645 31.0225 29.9907C31.0225 30.0103 31.4203 30.2461 31.903 30.508L32.79 30.9795L32.7834 32.5316L32.7769 34.0836L32.5486 34.4045C32.3008 34.7581 32.0986 35.3671 32.0399 35.9631C32.0073 36.2577 32.0138 36.3363 32.0791 36.3101C32.1247 36.2905 32.5291 36.1268 32.9791 35.9434C33.4813 35.7404 33.8009 35.5767 33.814 35.5112C33.8531 35.3409 33.6313 34.7778 33.3965 34.4307L33.1748 34.1032V32.656C33.1748 31.51 33.1943 31.2153 33.2596 31.2415C33.3052 31.2546 33.7944 31.5231 34.3488 31.8309L35.3597 32.394L35.3923 31.3004L35.4249 30.2133L35.9728 29.9317C37.0555 29.3817 38.3664 29.0542 39.4295 29.0673L39.9904 29.0804L39.41 29.1328C38.3142 29.231 37.1598 29.565 36.2272 30.0627L35.7184 30.3312V32.7084C35.7184 34.0181 35.7315 35.0855 35.7445 35.0855C35.7641 35.0855 35.9728 35.0462 36.2206 34.9939C38.3403 34.542 41.9406 34.5747 43.9233 35.0659L44.0668 35.0986V33.8347V32.5643L46.4148 31.2873C47.6997 30.5866 48.7367 29.9907 48.7106 29.971C48.6715 29.9317 39.8926 25.0006 39.8665 25.0006C39.8665 25.0006 37.8707 26.1139 35.4445 27.476Z" fill="#EEEEEE"/>
<path d="M38.5363 35.0645L38.2559 35.0907V40.8928V46.7015L38.4385 46.5247C39.1168 45.8764 40.643 45.8764 41.3408 46.5312L41.5169 46.7015V40.9256C41.5169 36.3808 41.4974 35.1497 41.4387 35.1038C41.3474 35.0514 38.9863 35.0187 38.5363 35.0645Z" fill="#EEEEEE"/>
<path d="M36.6527 35.2825C35.2309 35.5379 33.9264 35.9243 32.7068 36.4416C32.1524 36.6774 31.1284 37.1882 31.0176 37.2864C31.0045 37.293 30.998 39.2117 31.0045 41.5496C31.011 44.909 31.0371 45.9306 31.1089 46.448C31.598 49.7551 33.3916 52.2566 36.7636 54.3064C37.4615 54.732 39.2159 55.6161 39.2681 55.5637C39.2877 55.5441 39.1442 55.2101 38.942 54.8237L38.5898 54.1099L38.0941 53.8545C36.3918 52.9901 34.7482 51.6542 33.7503 50.3117C32.9742 49.2705 32.3807 47.8232 32.1459 46.3825C32.035 45.7407 32.022 45.2299 32.022 41.7722V37.8889L32.7394 37.5615C33.5025 37.2144 35.0222 36.6839 35.4526 36.6184L35.707 36.5726V41.8836V47.1945L35.9418 47.0374C36.2614 46.8213 36.5484 46.7427 37.1941 46.6968L37.7289 46.6575V40.9078V35.1515L37.5202 35.1581C37.4028 35.1581 37.0114 35.217 36.6527 35.2825Z" fill="#EEEEEE"/>
<path d="M42.0401 40.9065V46.6759H42.4184C42.9011 46.6759 43.5076 46.833 43.8207 47.0426L44.062 47.1998V41.8953C44.062 37.1279 44.075 36.5909 44.1664 36.5909C44.512 36.5909 46.5209 37.2982 47.3166 37.6976L47.7209 37.9072L47.6949 42.0787C47.6753 46.0079 47.6622 46.2829 47.5383 46.8396C47.1339 48.6208 46.4165 49.9764 45.2229 51.2272C44.2707 52.2291 43.2663 52.9822 41.8249 53.7746L41.1205 54.161L40.8009 54.8486C40.6183 55.2284 40.4879 55.5493 40.5009 55.5689C40.5531 55.6213 42.5228 54.6063 43.2141 54.1741C45.8295 52.5238 47.4535 50.592 48.2297 48.2017C48.7254 46.6824 48.7254 46.6693 48.7254 41.6989V37.2785L48.0079 36.9053C46.41 36.0736 44.1598 35.3794 42.4184 35.1764L42.0401 35.1306V40.9065Z" fill="#EEEEEE"/>
<path d="M39.0083 50.4486C38.5582 50.5468 37.8604 50.835 37.6517 51.0052C37.5538 51.0904 37.6517 51.3065 38.6756 53.4152C39.3018 54.6856 39.8235 55.7465 39.8431 55.7596C39.8822 55.7989 42.165 51.2279 42.165 51.1035C42.165 50.9987 41.4997 50.6647 40.991 50.5076C40.4692 50.3504 39.5561 50.3242 39.0083 50.4486Z" fill="#389D2D"/>
<path d="M37.9196 6.85188L6.90146 37.87C5.7251 39.0464 5.7251 40.9536 6.90145 42.13L37.9196 73.1481C39.096 74.3245 41.0032 74.3245 42.1795 73.1481L73.1977 42.13C74.374 40.9536 74.374 39.0464 73.1977 37.87L42.1795 6.85188C41.0032 5.67553 39.096 5.67553 37.9196 6.85188Z" stroke="#A7A7A7" stroke-opacity="0.3"/>
<defs>
<linearGradient id="paint0_linear_4429_6101" x1="19.902" y1="20.098" x2="60.3753" y2="60.5714" gradientUnits="userSpaceOnUse">
<stop/>
<stop offset="1" stop-color="#666666"/>
</linearGradient>
<linearGradient id="paint1_linear_4429_6101" x1="19.902" y1="20.098" x2="60.3753" y2="60.5714" gradientUnits="userSpaceOnUse">
<stop/>
<stop offset="1" stop-color="#666666"/>
</linearGradient>
</defs>
</svg>
