<svg width="226" height="163" viewBox="0 0 226 163" fill="none" xmlns="http://www.w3.org/2000/svg">
<path d="M190.992 42.7626C190.992 37.2397 187.265 31.5929 182.667 30.1501L138.136 16.1765C133.538 14.7337 129.81 18.0412 129.81 23.564V109.696C129.81 115.218 133.538 120.865 138.136 122.308L182.667 136.282C187.265 137.724 190.992 134.417 190.992 128.894V42.7626Z" fill="url(#paint0_linear_4809_5422)"/>
<path d="M157.902 53.1948L152.721 48.1753L147.54 49.9433L152.721 54.9628L157.902 53.1948Z" fill="#878787"/>
<path fill-rule="evenodd" clip-rule="evenodd" d="M143.603 48.7078L147.54 52.5226V55.5996L140.946 53.5304C139.901 53.2023 139.062 51.9325 139.062 50.6768V32.5768C139.062 31.9768 139.261 31.4636 139.614 31.1502C139.968 30.8367 140.447 30.7487 140.946 30.9055L141.888 31.2011V39.1198L144.243 38.1619L146.598 40.5978V32.6791L152.25 34.4526C152.75 34.6094 153.229 34.9981 153.582 35.5333C153.936 36.0685 154.134 36.7062 154.134 37.3063V46.9671L152.721 45.5961L143.603 48.7078Z" fill="#F9F9F9"/>
<path d="M149.424 52.8988V55.1613L152.721 58.3566L156.018 57.2305V54.968L152.721 56.0941L149.424 52.8988Z" fill="#878787"/>
<ellipse cx="131.847" cy="16.8405" rx="6.94116" ry="6.93915" fill="#ACD4A7"/>
<ellipse cx="131.851" cy="16.8402" rx="4.16393" ry="4.16348" fill="#389D2D"/>
<path d="M144.516 42.8661C144.516 37.3432 140.793 31.696 136.2 30.2526L91.575 16.2276C86.9824 14.7842 83.2594 18.0912 83.2594 23.6141V110.041C83.2594 115.564 86.9824 121.211 91.575 122.655L136.2 136.68C140.793 138.123 144.516 134.816 144.516 129.293V42.8661Z" fill="url(#paint1_linear_4809_5422)"/>
<path d="M111.334 53.3577L106.148 48.3235L100.962 50.0951L106.148 55.1293L111.334 53.3577Z" fill="#878787"/>
<path fill-rule="evenodd" clip-rule="evenodd" d="M97.0212 48.8553L100.962 52.6813V55.7666L94.3623 53.6904C93.3157 53.3611 92.4766 52.0876 92.4766 50.8285V32.6796C92.4766 32.078 92.6752 31.5634 93.0289 31.2492C93.3825 30.935 93.8622 30.8469 94.3623 31.0042L95.3052 31.3008V39.241L97.6623 38.281L100.019 40.724V32.7838L105.677 34.5635C106.177 34.7208 106.656 35.1107 107.01 35.6474C107.364 36.1841 107.562 36.8236 107.562 37.4253V47.1123L106.148 45.7372L97.0212 48.8553Z" fill="#F9F9F9"/>
<path d="M102.848 53.059V55.3276L106.148 58.5322L109.448 57.4038V55.1352L106.148 56.2636L102.848 53.059Z" fill="#878787"/>
<ellipse cx="85.2971" cy="16.0834" rx="6.92214" ry="6.95824" fill="#ACD4A7"/>
<ellipse cx="85.3013" cy="16.0829" rx="4.15289" ry="4.17455" fill="#389D2D"/>
<path d="M94.8047 45.5155C94.8047 39.9927 91.1642 34.175 86.6734 32.5213L46.8925 17.8728C42.4018 16.2192 38.7613 19.3558 38.7613 24.8786V104.331C38.7613 109.854 42.4018 115.671 46.8925 117.325L86.6735 131.974C91.1642 133.627 94.8047 130.491 94.8047 124.968V45.5155Z" fill="url(#paint2_linear_4809_5422)"/>
<path d="M82.4156 38.7469L42.6345 24.0983C38.3684 22.5276 34.9098 25.5072 34.9098 30.7538L34.9098 110.206C34.9098 115.453 38.3684 120.979 42.6345 122.55L82.4156 137.199C86.6819 138.77 90.1403 135.79 90.1403 130.544L90.1403 51.0914C90.1403 45.8447 86.6819 40.3179 82.4156 38.7469Z" stroke="#4C4C4C"/>
<path d="M69.7736 52.6137L65.0234 47.6853L60.2731 49.118L65.0234 54.0464L69.7736 52.6137Z" fill="#878787"/>
<path fill-rule="evenodd" clip-rule="evenodd" d="M56.6629 47.7897L60.2731 51.5352V54.4189L54.2274 52.1944C53.2687 51.8416 52.5 50.6152 52.5 49.4384V32.4757C52.5 31.9133 52.682 31.441 53.0059 31.1625C53.3299 30.8841 53.7692 30.8224 54.2274 30.9909L55.091 31.3087V38.7299L57.2502 37.9341L59.4094 40.3188V32.8976L64.5915 34.8044C65.0496 34.9729 65.489 35.358 65.8129 35.8748C66.1369 36.3916 66.3189 36.9979 66.3189 37.5603V46.6141L65.0234 45.2681L56.6629 47.7897Z" fill="#F9F9F9"/>
<path d="M62.0005 51.9693V54.0897L65.0234 57.2269L68.0462 56.3142V54.1938L65.0234 55.1065L62.0005 51.9693Z" fill="#878787"/>
<ellipse cx="45.2994" cy="16.8758" rx="6.93217" ry="6.94815" fill="#ACD4A7"/>
<ellipse cx="45.2995" cy="16.8764" rx="4.15891" ry="4.1685" fill="#389D2D"/>
<path d="M144.744 141.911C144.75 142.522 144.593 143.32 144.429 143.978C143.283 148.606 138.195 153.799 131.034 153.327C124.544 152.9 119.258 149.784 119.258 145.415C119.258 141.046 124.531 137.503 131.034 137.503C137.537 137.503 144.703 137.542 144.744 141.911Z" fill="#878787"/>
<path d="M131.032 138.232C127.538 138.232 119.566 139.199 117.736 139.199C114.504 139.199 111.883 141.227 111.883 143.73C111.883 144.934 112.5 146.021 113.488 146.833C113.488 146.833 115.659 149.01 119.568 147.965C121.279 147.508 124.063 144.112 128.963 143.573C131.403 143.303 135.975 145.191 144.01 145.236C144.355 144.494 144.426 143.978 144.426 143.978C144.426 139.605 137.535 138.232 131.032 138.232Z" fill="#EEEEEE"/>
<path d="M144.432 143.98C144.432 143.98 149.145 143.024 152.075 139.171C155.49 134.677 155.041 129.867 155.041 129.867C158.502 123.394 153.963 117.325 153.963 117.325C153.512 110.492 149.287 107.661 149.287 107.661C146.545 101.143 140.478 99.391 140.478 99.391C135.714 93.8178 127.262 93.9969 127.262 93.9969C127.262 93.9969 119.344 91.0949 108.474 94.3572C106.676 94.8966 100.652 96.1545 96.2464 98.8516C82.36 107.353 81.3092 120.609 81.5034 122.764C82.58 134.81 91.0314 136.968 96.4255 138.226C97.6834 141.641 102.314 147.935 110.629 145.599C120.878 143.801 125.193 140.744 127.711 140.744C130.229 140.744 137.241 143.441 144.432 143.98Z" fill="#389D2D"/>
<path d="M118.512 124.613C123.535 121.905 126.258 122.158 128.662 122.376C129.426 122.445 130.148 122.499 130.88 122.495C135.16 122.397 138.628 120.594 140.162 118.848C140.338 118.631 140.423 118.355 140.399 118.076C140.376 117.798 140.246 117.54 140.036 117.355C139.826 117.171 139.553 117.075 139.274 117.087C138.995 117.1 138.732 117.22 138.539 117.422C137.357 118.768 134.442 120.255 130.83 120.337C130.183 120.356 129.533 120.292 128.86 120.229C126.282 119.99 123.08 119.696 117.487 122.715C116.053 123.489 114.085 123.776 111.953 123.992C107.213 117.15 110.065 111.191 110.881 109.771C110.961 109.775 111.038 109.801 111.12 109.801C111.983 109.801 112.851 109.59 113.636 109.145C113.875 109 114.049 108.767 114.119 108.496C114.19 108.225 114.152 107.937 114.014 107.693C113.876 107.449 113.649 107.268 113.38 107.189C113.112 107.11 112.823 107.138 112.575 107.268C111.896 107.642 111.101 107.746 110.349 107.559C109.597 107.372 108.943 106.908 108.518 106.261C108.358 106.034 108.116 105.879 107.844 105.826C107.572 105.773 107.29 105.827 107.056 105.976C106.823 106.126 106.656 106.36 106.59 106.629C106.524 106.899 106.565 107.183 106.704 107.424C107.215 108.224 107.936 108.826 108.749 109.229C107.625 111.512 105.491 117.515 109.552 124.227C106.695 124.508 103.834 124.911 101.594 126.354C100.021 127.387 98.6479 128.696 97.5424 130.219C96.1852 129.986 91.2162 128.762 90.3489 123.248C90.8883 122.829 91.3241 122.277 91.5938 121.595C91.646 121.463 91.6716 121.322 91.6694 121.181C91.6671 121.039 91.637 120.899 91.5807 120.769C91.5244 120.639 91.443 120.521 91.3413 120.423C91.2395 120.324 91.1193 120.247 90.9875 120.194C90.8558 120.142 90.7151 120.117 90.5734 120.119C90.4317 120.121 90.2919 120.151 90.1618 120.208C90.0318 120.264 89.9141 120.345 89.8155 120.447C89.717 120.549 89.6394 120.669 89.5872 120.801C89.5059 121.028 89.3762 121.234 89.207 121.406C89.0379 121.578 88.8334 121.711 88.6077 121.795C88.3791 121.871 88.137 121.897 87.8976 121.871C87.6583 121.844 87.4273 121.767 87.2203 121.644C87.0965 121.576 86.9603 121.532 86.8196 121.516C86.6789 121.499 86.5363 121.511 86.4001 121.55C86.1249 121.628 85.8922 121.813 85.7532 122.063C85.6141 122.313 85.5801 122.608 85.6586 122.883C85.7371 123.158 85.9217 123.391 86.1717 123.53C86.7845 123.871 87.4404 124.044 88.092 124.044C88.1718 124.044 88.2474 124.007 88.3272 124.003C89.3542 129.209 93.4688 131.496 96.3794 132.189C95.9987 133 95.7573 133.869 95.6653 134.761C95.6401 135.046 95.7292 135.329 95.9129 135.548C96.0966 135.767 96.3599 135.905 96.6448 135.93L96.7419 135.934C97.0116 135.934 97.2714 135.833 97.4703 135.651C97.6692 135.469 97.7927 135.219 97.8164 134.95C98.0494 132.333 100.546 129.6 102.764 128.165C104.844 126.825 107.888 126.542 110.835 126.268C113.694 126.007 116.396 125.757 118.512 124.613ZM146.272 121.368C146.135 121.619 146.103 121.915 146.183 122.19C146.264 122.464 146.45 122.696 146.702 122.833C146.953 122.971 147.248 123.003 147.523 122.922C147.798 122.841 148.029 122.655 148.167 122.404C148.208 122.331 152.141 114.962 144.777 110.011C144.539 109.851 144.248 109.792 143.968 109.847C143.687 109.902 143.439 110.066 143.28 110.304C143.12 110.541 143.061 110.833 143.116 111.113C143.171 111.394 143.336 111.642 143.573 111.801C149.278 115.638 146.397 121.135 146.272 121.368ZM101.551 103.948C101.722 103.948 101.891 103.907 102.043 103.829C102.196 103.751 102.327 103.638 102.427 103.499C105.556 99.1469 109.888 100.636 110.072 100.705C110.337 100.792 110.627 100.773 110.879 100.652C111.131 100.53 111.326 100.315 111.422 100.053C111.519 99.79 111.51 99.5001 111.397 99.2442C111.283 98.9882 111.075 98.7863 110.816 98.6809C108.745 97.9128 103.961 97.6711 100.675 102.241C100.56 102.402 100.491 102.592 100.477 102.79C100.462 102.987 100.502 103.185 100.593 103.361C100.683 103.538 100.821 103.686 100.99 103.789C101.159 103.893 101.353 103.947 101.551 103.948ZM129.756 99.874C134.556 99.4835 136.74 102.964 136.839 103.128C136.984 103.375 137.221 103.554 137.499 103.626C137.636 103.662 137.779 103.67 137.919 103.65C138.06 103.631 138.195 103.584 138.317 103.512C138.439 103.44 138.546 103.345 138.632 103.232C138.717 103.118 138.78 102.99 138.815 102.852C138.851 102.715 138.859 102.572 138.84 102.432C138.82 102.291 138.773 102.156 138.701 102.034C138.585 101.837 135.81 97.2482 129.587 97.7229C129.446 97.7339 129.308 97.7727 129.182 97.837C129.056 97.9012 128.943 97.9897 128.851 98.0974C128.666 98.3149 128.574 98.5974 128.596 98.8826C128.618 99.1679 128.753 99.4326 128.97 99.6185C129.188 99.8044 129.47 99.8964 129.756 99.874ZM149.498 131.399C148.967 131.369 148.382 131.79 148.335 132.385C148.331 132.424 147.988 136.094 144.214 137.335C143.967 137.412 143.756 137.576 143.621 137.796C143.485 138.016 143.432 138.278 143.474 138.533C143.515 138.788 143.646 139.02 143.844 139.187C144.043 139.353 144.294 139.442 144.553 139.438C144.667 139.438 144.781 139.42 144.889 139.384C150.007 137.706 150.469 132.773 150.486 132.564C150.498 132.423 150.482 132.28 150.438 132.145C150.395 132.01 150.325 131.885 150.234 131.777C150.142 131.668 150.03 131.579 149.903 131.514C149.777 131.45 149.639 131.41 149.498 131.399Z" fill="#EEEEEE"/>
<path d="M96.0919 120.913C96.0495 121.051 96.0353 121.196 96.0503 121.34C96.0653 121.485 96.1092 121.624 96.1792 121.751C96.2493 121.877 96.3441 121.989 96.4581 122.078C96.5721 122.167 96.7029 122.233 96.8427 122.27C96.9825 122.308 97.1284 122.317 97.2718 122.297C97.4153 122.277 97.5532 122.229 97.6774 122.154C97.8016 122.08 97.9096 121.981 97.995 121.864C98.0803 121.747 98.1412 121.615 98.174 121.473C98.3818 120.726 98.8648 120.085 99.5261 119.679C100.187 119.273 100.978 119.132 101.738 119.286C101.877 119.315 102.02 119.316 102.159 119.29C102.299 119.264 102.431 119.21 102.55 119.133C102.669 119.055 102.771 118.955 102.851 118.838C102.931 118.721 102.987 118.589 103.016 118.451C103.045 118.312 103.046 118.169 103.02 118.03C102.994 117.89 102.94 117.758 102.863 117.639C102.785 117.52 102.685 117.418 102.568 117.338C102.451 117.258 102.319 117.202 102.181 117.173C101.283 116.991 100.352 117.055 99.488 117.359C96.9722 113.057 97.462 108.815 97.4685 108.769C97.5065 108.486 97.4303 108.199 97.2568 107.971C97.0832 107.744 96.8264 107.595 96.5429 107.557C96.2603 107.521 95.9747 107.597 95.7479 107.769C95.521 107.941 95.371 108.196 95.3303 108.478C95.3022 108.687 94.7261 113.475 97.6238 118.433C96.8864 119.096 96.3547 119.957 96.0919 120.913ZM120.212 115.583C120.643 115.192 121.206 114.978 121.788 114.984C122.37 114.99 122.928 115.215 123.351 115.616C123.557 115.815 123.833 115.924 124.119 115.92C124.405 115.915 124.678 115.797 124.877 115.592C125.076 115.387 125.186 115.111 125.182 114.825C125.178 114.539 125.06 114.266 124.855 114.066C124.368 113.602 123.779 113.259 123.136 113.063C123.774 110.871 123.522 109.898 122.928 108.075C122.811 107.718 122.698 107.36 122.59 107L122.525 106.784C121.74 104.178 121.22 102.458 122.713 100.031C122.863 99.7873 122.909 99.494 122.843 99.2156C122.777 98.9372 122.603 98.6966 122.359 98.5466C122.115 98.3967 121.822 98.3498 121.543 98.4161C121.265 98.4825 121.024 98.6567 120.874 98.9005C118.872 102.154 119.608 104.59 120.46 107.41L120.525 107.626C120.651 108.043 120.769 108.415 120.876 108.741C121.409 110.383 121.571 110.934 120.92 112.919C120.104 113.064 119.347 113.442 118.74 114.006C118.539 114.203 118.422 114.471 118.416 114.753C118.409 115.035 118.513 115.308 118.705 115.514C118.898 115.72 119.163 115.843 119.444 115.856C119.726 115.869 120.002 115.771 120.212 115.583ZM133.945 109.143C134.586 109.145 135.219 109.004 135.799 108.731C136.057 108.609 136.257 108.389 136.354 108.12C136.451 107.85 136.437 107.554 136.315 107.295C136.193 107.036 135.974 106.836 135.704 106.739C135.435 106.642 135.138 106.656 134.879 106.778C134.349 107.021 133.746 107.055 133.192 106.872C132.639 106.689 132.174 106.303 131.893 105.792C131.829 105.662 131.74 105.547 131.63 105.453C131.52 105.358 131.393 105.287 131.255 105.243C131.117 105.199 130.972 105.183 130.828 105.196C130.684 105.209 130.544 105.251 130.417 105.319C130.289 105.388 130.177 105.481 130.086 105.593C129.995 105.706 129.928 105.836 129.889 105.975C129.849 106.114 129.838 106.26 129.856 106.403C129.874 106.547 129.92 106.685 129.992 106.81C130.381 107.535 130.959 108.107 131.632 108.504C130.474 111.32 131.132 114.31 131.669 115.896C131.71 116.035 131.779 116.165 131.871 116.277C131.963 116.389 132.077 116.481 132.206 116.548C132.335 116.615 132.476 116.655 132.62 116.666C132.765 116.677 132.91 116.659 133.048 116.613C133.185 116.567 133.312 116.493 133.421 116.397C133.529 116.3 133.617 116.183 133.679 116.052C133.741 115.92 133.776 115.778 133.782 115.633C133.787 115.488 133.764 115.343 133.712 115.208C133.35 114.133 132.646 111.419 133.708 109.11C133.79 109.115 133.865 109.143 133.945 109.143ZM144.295 129.487C144.287 129.345 144.251 129.207 144.189 129.079C144.126 128.951 144.039 128.837 143.933 128.744C143.826 128.65 143.702 128.578 143.568 128.533C143.433 128.488 143.291 128.469 143.15 128.479C142.632 128.515 142.113 128.448 141.621 128.283C141.13 128.117 140.676 127.856 140.286 127.515C139.895 127.173 139.576 126.758 139.347 126.293C139.117 125.828 138.982 125.322 138.949 124.805C138.924 124.521 138.79 124.259 138.576 124.071C138.361 123.884 138.083 123.788 137.799 123.802C137.657 123.811 137.519 123.849 137.392 123.912C137.265 123.974 137.152 124.062 137.059 124.169C136.966 124.275 136.894 124.4 136.849 124.534C136.804 124.668 136.786 124.81 136.795 124.952C136.884 126.225 137.369 127.372 138.107 128.307C136.372 130.348 134.101 130.928 132.834 131.077C131.714 131.211 130.735 131.096 129.602 130.963C128.564 130.844 127.39 130.708 125.938 130.751L125.927 130.753C125.884 130.136 125.738 129.237 125.269 128.488C125.108 128.266 124.869 128.114 124.6 128.062C124.331 128.01 124.053 128.062 123.82 128.207C123.588 128.353 123.42 128.581 123.35 128.846C123.28 129.111 123.312 129.392 123.442 129.634C123.731 130.097 123.785 130.838 123.785 131.198C122.698 131.588 121.757 132.162 120.907 132.717C119.388 133.705 118.19 134.486 116.389 134.08C114.757 133.707 113.124 133.632 111.739 133.826C111.523 133.284 111.182 132.637 110.656 132.139C110.448 131.942 110.17 131.836 109.884 131.844C109.598 131.852 109.327 131.974 109.13 132.182C108.934 132.39 108.828 132.667 108.836 132.953C108.844 133.239 108.966 133.511 109.174 133.707C109.359 133.882 109.506 134.137 109.624 134.391C107.245 135.371 106.051 137.008 105.995 137.088C105.881 137.249 105.813 137.439 105.799 137.636C105.785 137.833 105.826 138.03 105.916 138.206C106.007 138.381 106.144 138.529 106.313 138.631C106.482 138.734 106.676 138.788 106.874 138.788C107.044 138.789 107.212 138.749 107.365 138.673C107.517 138.596 107.649 138.484 107.75 138.346C107.76 138.329 108.945 136.743 111.282 136.102C112.49 135.77 114.222 135.798 115.912 136.182C116.384 136.29 116.822 136.327 117.247 136.333C117.448 136.803 117.526 137.362 117.536 137.569C117.552 137.844 117.672 138.103 117.872 138.293C118.072 138.482 118.338 138.588 118.613 138.588L118.671 138.586C118.956 138.57 119.223 138.443 119.414 138.232C119.606 138.02 119.705 137.742 119.692 137.457C119.656 136.955 119.562 136.458 119.411 135.977C120.406 135.617 121.271 135.054 122.085 134.525C123.319 133.72 124.486 132.958 126.012 132.909C127.289 132.864 128.342 132.987 129.358 133.105C130.381 133.224 131.386 133.302 132.495 133.237C132.692 133.783 132.676 134.512 132.646 134.756C132.628 134.908 132.642 135.062 132.688 135.208C132.733 135.354 132.809 135.489 132.91 135.603C133.011 135.718 133.136 135.81 133.275 135.873C133.414 135.937 133.566 135.97 133.719 135.971C133.98 135.97 134.233 135.875 134.429 135.702C134.626 135.529 134.753 135.291 134.787 135.032C134.865 134.324 134.822 133.609 134.659 132.915C136.628 132.393 138.392 131.286 139.719 129.741C140.788 130.403 142.037 130.715 143.292 130.633C143.577 130.613 143.842 130.482 144.03 130.267C144.218 130.052 144.314 129.772 144.295 129.487Z" fill="#EEEEEE"/>
<defs>
<linearGradient id="paint0_linear_4809_5422" x1="139.13" y1="122.038" x2="161.835" y2="66.8902" gradientUnits="userSpaceOnUse">
<stop stop-color="#F9F9F9" stop-opacity="0.8"/>
<stop offset="1" stop-color="#A7A7A7" stop-opacity="0.6"/>
</linearGradient>
<linearGradient id="paint1_linear_4809_5422" x1="104.084" y1="93.1859" x2="127.31" y2="29.2785" gradientUnits="userSpaceOnUse">
<stop stop-color="#F9F9F9" stop-opacity="0.8"/>
<stop offset="1" stop-color="#EEEEEE"/>
</linearGradient>
<linearGradient id="paint2_linear_4809_5422" x1="47.2985" y1="116.929" x2="70.513" y2="67.3661" gradientUnits="userSpaceOnUse">
<stop stop-color="#F9F9F9" stop-opacity="0.8"/>
<stop offset="1" stop-color="#A7A7A7" stop-opacity="0.6"/>
</linearGradient>
</defs>
</svg>
