<svg width="226" height="163" fill="none" xmlns="http://www.w3.org/2000/svg"><path d="M190.992 42.763c0-5.523-3.727-11.17-8.325-12.613l-44.531-13.973c-4.598-1.443-8.326 1.864-8.326 7.387v86.132c0 5.522 3.728 11.169 8.326 12.612l44.531 13.974c4.598 1.442 8.325-1.865 8.325-7.388V42.763z" fill="url(#a)"/><path d="m157.902 53.195-5.181-5.02-5.181 1.768 5.181 5.02 5.181-1.768z" fill="#878787"/><path fill-rule="evenodd" clip-rule="evenodd" d="m143.603 48.708 3.937 3.815V55.6l-6.594-2.07c-1.045-.328-1.884-1.598-1.884-2.853v-18.1c0-.6.199-1.113.552-1.427.354-.313.833-.401 1.332-.244l.942.295v7.919l2.355-.958 2.355 2.436v-7.919l5.652 1.774c.5.156.979.545 1.332 1.08.354.535.552 1.173.552 1.773v9.661l-1.413-1.37-9.118 3.11z" fill="#F9F9F9"/><path d="M149.424 52.899v2.262l3.297 3.196 3.297-1.127v-2.262l-3.297 1.126-3.297-3.195z" fill="#878787"/><ellipse cx="131.847" cy="16.84" rx="6.941" ry="6.939" fill="#ACD4A7"/><ellipse cx="131.851" cy="16.84" rx="4.164" ry="4.163" fill="#389D2D"/><path d="M144.516 42.866c0-5.523-3.723-11.17-8.316-12.613L91.575 16.228c-4.593-1.444-8.316 1.863-8.316 7.386v86.427c0 5.523 3.723 11.17 8.316 12.614L136.2 136.68c4.593 1.443 8.316-1.864 8.316-7.387V42.866z" fill="url(#b)"/><path d="m111.334 53.358-5.186-5.034-5.186 1.771 5.186 5.034 5.186-1.771z" fill="#878787"/><path fill-rule="evenodd" clip-rule="evenodd" d="m97.021 48.855 3.941 3.826v3.086l-6.6-2.077c-1.046-.329-1.885-1.602-1.885-2.861v-18.15c0-.601.198-1.116.552-1.43.353-.314.833-.402 1.333-.245l.943.297v7.94l2.357-.96 2.357 2.443v-7.94l5.658 1.78c.5.157.979.547 1.333 1.083.354.537.552 1.177.552 1.778v9.687l-1.414-1.375-9.127 3.118z" fill="#F9F9F9"/><path d="M102.848 53.059v2.269l3.3 3.204 3.3-1.128v-2.269l-3.3 1.129-3.3-3.205z" fill="#878787"/><ellipse cx="85.297" cy="16.083" rx="6.922" ry="6.958" fill="#ACD4A7"/><ellipse cx="85.301" cy="16.083" rx="4.153" ry="4.175" fill="#389D2D"/><path d="M94.805 45.516c0-5.523-3.64-11.341-8.132-12.995l-39.78-14.648c-4.491-1.654-8.132 1.483-8.132 7.006v79.452c0 5.523 3.64 11.34 8.131 12.994l39.782 14.649c4.49 1.653 8.13-1.483 8.13-7.006V45.515z" fill="url(#c)"/><path d="M82.416 38.747 42.635 24.098c-4.267-1.57-7.725 1.41-7.725 6.656v79.452c0 5.247 3.458 10.773 7.725 12.344l39.78 14.649c4.267 1.571 7.725-1.409 7.725-6.655V51.091c0-5.246-3.458-10.773-7.724-12.344z" stroke="#4C4C4C"/><path d="m69.774 52.614-4.75-4.929-4.75 1.433 4.75 4.928 4.75-1.432z" fill="#878787"/><path fill-rule="evenodd" clip-rule="evenodd" d="m56.663 47.79 3.61 3.745v2.884l-6.046-2.225c-.958-.352-1.727-1.579-1.727-2.756V32.476c0-.563.182-1.035.506-1.313.324-.279.763-.34 1.221-.172l.864.318v7.42l2.16-.795 2.158 2.385v-7.421l5.182 1.906c.459.169.898.554 1.222 1.07.324.518.506 1.124.506 1.686v9.054l-1.296-1.346-8.36 2.522z" fill="#F9F9F9"/><path d="M62 51.97v2.12l3.023 3.137 3.023-.913v-2.12l-3.023.912-3.022-3.137z" fill="#878787"/><ellipse cx="45.299" cy="16.876" rx="6.932" ry="6.948" fill="#ACD4A7"/><ellipse cx="45.3" cy="16.876" rx="4.159" ry="4.168" fill="#389D2D"/><path d="M144.744 141.911c.006.611-.151 1.409-.315 2.067-1.146 4.628-6.234 9.821-13.395 9.349-6.49-.427-11.776-3.543-11.776-7.912s5.273-7.912 11.776-7.912 13.669.039 13.71 4.408z" fill="#878787"/><path d="M131.032 138.232c-3.494 0-11.466.967-13.296.967-3.232 0-5.853 2.028-5.853 4.531 0 1.204.617 2.291 1.605 3.103 0 0 2.171 2.177 6.08 1.132 1.711-.457 4.495-3.853 9.395-4.392 2.44-.27 7.012 1.618 15.047 1.663.345-.742.416-1.258.416-1.258 0-4.373-6.891-5.746-13.394-5.746z" fill="#EEE"/><path d="M144.432 143.98s4.713-.956 7.643-4.809c3.415-4.494 2.966-9.304 2.966-9.304 3.461-6.473-1.078-12.542-1.078-12.542-.451-6.833-4.676-9.664-4.676-9.664-2.742-6.518-8.809-8.27-8.809-8.27-4.764-5.573-13.216-5.394-13.216-5.394s-7.918-2.902-18.788.36c-1.798.54-7.822 1.797-12.228 4.495-13.886 8.501-14.937 21.757-14.743 23.912 1.077 12.046 9.528 14.204 14.922 15.462 1.258 3.415 5.889 9.709 14.204 7.373 10.249-1.798 14.564-4.855 17.082-4.855 2.518 0 9.53 2.697 16.721 3.236z" fill="#389D2D"/><path d="M118.512 124.613c5.023-2.708 7.746-2.455 10.15-2.237.764.069 1.486.123 2.218.119 4.28-.098 7.748-1.901 9.282-3.647a1.08 1.08 0 0 0-1.623-1.426c-1.182 1.346-4.097 2.833-7.709 2.915-.647.019-1.297-.045-1.97-.108-2.578-.239-5.78-.533-11.373 2.486-1.434.774-3.402 1.061-5.534 1.277-4.74-6.842-1.888-12.801-1.072-14.221.08.004.157.03.239.03.863 0 1.731-.211 2.516-.656a1.074 1.074 0 0 0 .378-1.452 1.077 1.077 0 0 0-1.439-.425 3.076 3.076 0 0 1-4.057-1.007 1.075 1.075 0 0 0-1.462-.285 1.077 1.077 0 0 0-.352 1.448 5.078 5.078 0 0 0 2.045 1.805c-1.124 2.283-3.258 8.286.803 14.998-2.857.281-5.718.684-7.958 2.127a15.559 15.559 0 0 0-4.052 3.865c-1.357-.233-6.326-1.457-7.193-6.971.54-.419.975-.971 1.245-1.653a1.081 1.081 0 0 0-.606-1.401 1.085 1.085 0 0 0-1.172.253 1.082 1.082 0 0 0-.229.354 1.66 1.66 0 0 1-.98.994c-.228.076-.47.102-.71.076a1.698 1.698 0 0 1-.677-.227 1.089 1.089 0 0 0-.82-.094 1.077 1.077 0 0 0-.741 1.333c.078.275.263.508.513.647a3.943 3.943 0 0 0 1.92.514c.08 0 .155-.037.235-.041 1.027 5.206 5.142 7.493 8.052 8.186a7.977 7.977 0 0 0-.714 2.572 1.077 1.077 0 0 0 .98 1.169l.097.004a1.079 1.079 0 0 0 1.074-.984c.233-2.617 2.73-5.35 4.948-6.785 2.08-1.34 5.124-1.623 8.071-1.897 2.859-.261 5.561-.511 7.677-1.655zm27.76-3.245a1.08 1.08 0 0 0 1.895 1.036c.041-.073 3.974-7.442-3.39-12.393a1.078 1.078 0 1 0-1.204 1.79c5.705 3.837 2.824 9.334 2.699 9.567zm-44.721-17.42a1.079 1.079 0 0 0 .876-.449c3.129-4.352 7.461-2.863 7.645-2.794a1.079 1.079 0 0 0 .744-2.024c-2.071-.768-6.855-1.01-10.141 3.56a1.076 1.076 0 0 0-.082 1.12 1.08 1.08 0 0 0 .958.587zm28.205-4.074c4.8-.39 6.984 3.09 7.083 3.254a1.078 1.078 0 0 0 1.478.384 1.08 1.08 0 0 0 .384-1.478c-.116-.197-2.891-4.786-9.114-4.311a1.076 1.076 0 0 0-.991 1.16 1.079 1.079 0 0 0 1.16.991zm19.742 31.525c-.531-.03-1.116.391-1.163.986-.004.039-.347 3.709-4.121 4.95a1.072 1.072 0 0 0-.74 1.198c.041.255.172.487.37.654.199.166.45.255.709.251.114 0 .228-.018.336-.054 5.118-1.678 5.58-6.611 5.597-6.82a1.082 1.082 0 0 0-.988-1.165z" fill="#EEE"/><path d="M96.092 120.913a1.074 1.074 0 0 0 .366 1.165 1.072 1.072 0 0 0 .814.219 1.069 1.069 0 0 0 .723-.433c.085-.117.146-.249.179-.391a3.071 3.071 0 0 1 3.564-2.187 1.085 1.085 0 0 0 1.113-.448 1.08 1.08 0 0 0-.67-1.665 5.077 5.077 0 0 0-2.693.186c-2.516-4.302-2.026-8.544-2.02-8.59a1.08 1.08 0 0 0-.925-1.212 1.088 1.088 0 0 0-1.213.921c-.028.209-.604 4.997 2.294 9.955a5.183 5.183 0 0 0-1.532 2.48zm24.12-5.33a2.31 2.31 0 0 1 3.139.033 1.083 1.083 0 0 0 1.526-.024 1.08 1.08 0 0 0-.022-1.526 4.316 4.316 0 0 0-1.719-1.003c.638-2.192.386-3.165-.208-4.988-.117-.357-.23-.715-.338-1.075l-.065-.216c-.785-2.606-1.305-4.326.188-6.753a1.08 1.08 0 0 0-1.839-1.13c-2.002 3.253-1.266 5.689-.414 8.509l.065.216c.126.417.244.789.351 1.115.533 1.642.695 2.193.044 4.178a4.312 4.312 0 0 0-2.18 1.087 1.079 1.079 0 0 0 1.472 1.577zm13.733-6.44a4.321 4.321 0 0 0 1.854-.412 1.083 1.083 0 0 0 .516-1.436 1.078 1.078 0 0 0-1.436-.517 2.31 2.31 0 0 1-2.986-.986 1.07 1.07 0 0 0-1.065-.596 1.077 1.077 0 0 0-.836 1.614 4.368 4.368 0 0 0 1.64 1.694c-1.158 2.816-.5 5.806.037 7.392a1.085 1.085 0 0 0 .537.652 1.077 1.077 0 0 0 1.215-.151 1.092 1.092 0 0 0 .361-.764 1.08 1.08 0 0 0-.07-.425c-.362-1.075-1.066-3.789-.004-6.098.082.005.157.033.237.033zm10.35 20.344a1.072 1.072 0 0 0-1.145-1.008 3.946 3.946 0 0 1-2.864-.964 3.93 3.93 0 0 1-1.337-2.71 1.1 1.1 0 0 0-1.15-1.003 1.068 1.068 0 0 0-.74.367 1.074 1.074 0 0 0-.264.783 6.08 6.08 0 0 0 1.312 3.355c-1.735 2.041-4.006 2.621-5.273 2.77-1.12.134-2.099.019-3.232-.114-1.038-.119-2.212-.255-3.664-.212l-.011.002c-.043-.617-.189-1.516-.658-2.265a1.079 1.079 0 0 0-1.919.358 1.08 1.08 0 0 0 .092.788c.289.463.343 1.204.343 1.564-1.087.39-2.028.964-2.878 1.519-1.519.988-2.717 1.769-4.518 1.363-1.632-.373-3.265-.448-4.65-.254-.216-.542-.557-1.189-1.083-1.687a1.08 1.08 0 1 0-1.482 1.568c.185.175.332.43.45.684-2.379.98-3.573 2.617-3.629 2.697a1.082 1.082 0 0 0-.079 1.118 1.075 1.075 0 0 0 .958.582 1.085 1.085 0 0 0 .876-.442c.01-.017 1.195-1.603 3.532-2.244 1.208-.332 2.94-.304 4.63.08.472.108.91.145 1.335.151a4.15 4.15 0 0 1 .289 1.236 1.08 1.08 0 0 0 1.077 1.019l.058-.002a1.084 1.084 0 0 0 1.021-1.129 6.493 6.493 0 0 0-.281-1.48c.995-.36 1.86-.923 2.674-1.452 1.234-.805 2.401-1.567 3.927-1.616 1.277-.045 2.33.078 3.346.196 1.023.119 2.028.197 3.137.132.197.546.181 1.275.151 1.519a1.08 1.08 0 0 0 .264.847 1.079 1.079 0 0 0 1.877-.571 6.256 6.256 0 0 0-.128-2.117 10.073 10.073 0 0 0 5.06-3.174 6.039 6.039 0 0 0 3.573.892 1.08 1.08 0 0 0 1.003-1.146z" fill="#EEE"/><defs><linearGradient id="a" x1="139.13" y1="122.038" x2="161.835" y2="66.89" gradientUnits="userSpaceOnUse"><stop stop-color="#F9F9F9" stop-opacity=".8"/><stop offset="1" stop-color="#A7A7A7" stop-opacity=".6"/></linearGradient><linearGradient id="b" x1="104.084" y1="93.186" x2="127.31" y2="29.279" gradientUnits="userSpaceOnUse"><stop stop-color="#F9F9F9" stop-opacity=".8"/><stop offset="1" stop-color="#EEE"/></linearGradient><linearGradient id="c" x1="47.298" y1="116.929" x2="70.513" y2="67.366" gradientUnits="userSpaceOnUse"><stop stop-color="#F9F9F9" stop-opacity=".8"/><stop offset="1" stop-color="#A7A7A7" stop-opacity=".6"/></linearGradient></defs></svg>