<svg width="185" height="153" viewBox="0 0 185 153" fill="none" xmlns="http://www.w3.org/2000/svg">
<g clip-path="url(#clip0_312_17)">
<path d="M56.7082 111.841C52.7941 110.793 49.4434 108.452 46.6561 104.82C43.8688 101.187 42.4752 97.3448 42.4752 93.2927C42.4752 89.2405 43.8688 86.1451 46.6561 84.0063C49.4434 81.8676 52.7941 81.3226 56.7082 82.3713C60.6222 83.4201 63.9729 85.7607 66.7602 89.3932C69.5475 93.0257 70.9412 96.868 70.9412 100.92C70.9412 104.972 69.5475 108.068 66.7602 110.206C63.9729 112.345 60.6222 112.89 56.7082 111.841ZM28.2422 133.684V123.37C28.2422 121.282 28.7617 119.503 29.8007 118.033C30.8397 116.563 32.2179 115.596 33.9354 115.133C37.6122 114.215 41.3484 113.789 45.1439 113.856C48.9393 113.922 52.7941 114.479 56.7082 115.525C60.6222 116.572 64.477 118.081 68.2725 120.053C72.0679 122.026 75.8041 124.453 79.481 127.337C81.2008 128.719 82.5802 130.424 83.6192 132.454C84.6582 134.483 85.1765 136.54 85.1742 138.625V148.939L28.2422 133.684Z" fill="#389D2D"/>
<g clip-path="url(#clip1_312_17)">
<path d="M114.653 100.943C110.739 99.8945 107.389 97.5539 104.601 93.9214C101.814 90.289 100.42 86.4466 100.42 82.3945C100.42 78.3424 101.814 75.2469 104.601 73.1081C107.389 70.9694 110.739 70.4244 114.653 71.4731C118.568 72.5219 121.918 74.8625 124.706 78.495C127.493 82.1275 128.886 85.9698 128.886 90.0219C128.886 94.0741 127.493 97.1695 124.706 99.3083C121.918 101.447 118.568 101.992 114.653 100.943ZM86.1875 122.786V112.471C86.1875 110.384 86.707 108.605 87.746 107.135C88.785 105.665 90.1632 104.698 91.8807 104.235C95.5576 103.317 99.2937 102.891 103.089 102.958C106.885 103.024 110.739 103.581 114.653 104.627C118.568 105.673 122.422 107.183 126.218 109.155C130.013 111.127 133.749 113.555 137.426 116.439C139.146 117.821 140.526 119.526 141.565 121.556C142.604 123.585 143.122 125.642 143.119 127.726V138.041L86.1875 122.786Z" fill="#389D2D"/>
</g>
<g clip-path="url(#clip2_312_17)">
<path d="M78.4011 62.0797L70.958 60.0853C70.5185 59.968 70.0848 59.9549 69.6892 60.047C69.2937 60.1392 68.9464 60.3342 68.6734 60.6176L60.0512 65.4219C59.7751 65.7054 59.4248 65.9002 59.0262 65.9918C58.6277 66.0833 58.1912 66.0693 57.749 65.9509C57.3068 65.8324 56.8703 65.6124 56.4718 65.3073C56.0733 65.0022 55.723 64.6197 55.4468 64.1882L46.8246 54.7632C46.5513 54.3331 46.2036 53.9516 45.8075 53.6473C45.4114 53.343 44.9771 53.1237 44.5371 53.0059L37.1324 51.0218C32.2332 49.7091 28.2891 44.569 28.2891 39.497V18.1347C28.2891 13.0627 32.2332 10.0363 37.1324 11.349L78.4011 22.407C83.3032 23.7205 87.2443 28.8598 87.2443 33.9318V55.294C87.2443 60.366 83.3032 63.3932 78.4011 62.0797Z" fill="url(#paint0_linear_312_17)"/>
<path d="M31.5308 17.4506L72.7996 28.5086C77.4349 29.7506 81.16 34.608 81.16 39.404V60.7663C81.1599 65.5622 77.4348 68.4233 72.7996 67.1814L65.3561 65.1869C64.844 65.0501 64.3381 65.0348 63.8771 65.1422C63.4358 65.245 63.0463 65.4581 62.7347 65.7658L54.149 70.5521L54.1065 70.5759L54.0725 70.6098C53.8416 70.8469 53.5483 71.0095 53.2151 71.0861C52.8819 71.1626 52.517 71.151 52.1473 71.0519C51.7776 70.9529 51.4127 70.769 51.0795 70.5139C50.7463 70.2587 50.4529 69.9388 50.222 69.5781L50.189 69.5262L50.1466 69.4797L41.5589 60.0917C41.247 59.6167 40.8574 59.1941 40.4156 58.8547C39.9541 58.5002 39.4482 58.2448 38.9356 58.1076L31.5308 56.1235C26.8984 54.8822 23.1705 50.0239 23.1705 45.228V23.8657L23.1808 23.4213C23.4041 18.8948 27.0433 16.2482 31.5308 17.4506Z" stroke="#4C4C4C"/>
</g>
<g clip-path="url(#clip3_312_17)">
<path d="M145.206 54.8356L137.763 52.8412C137.323 52.7238 136.889 52.7107 136.494 52.8029C136.098 52.8951 135.751 53.0901 135.478 53.3735L126.856 58.1778C126.58 58.4613 126.229 58.656 125.831 58.7476C125.432 58.8392 124.996 58.8252 124.554 58.7067C124.112 58.5882 123.675 58.3683 123.276 58.0632C122.878 57.758 122.528 57.3755 122.252 56.944L113.629 47.5191C113.356 47.0889 113.008 46.7074 112.612 46.4031C112.216 46.0988 111.782 45.8796 111.342 45.7618L103.937 43.7777C99.0379 42.4649 95.0938 37.3249 95.0938 32.2529V10.8906C95.0938 5.81859 99.0379 2.79217 103.937 4.1049L145.206 15.1628C150.108 16.4763 154.049 21.6156 154.049 26.6876V48.0499C154.049 53.1219 150.108 56.1491 145.206 54.8356Z" fill="url(#paint1_linear_312_17)"/>
</g>
</g>
<defs>
<linearGradient id="paint0_linear_312_17" x1="67.2021" y1="53.0817" x2="74.8963" y2="21.5994" gradientUnits="userSpaceOnUse">
<stop stop-color="#F9F9F9" stop-opacity="0.8"/>
<stop offset="1" stop-color="#EEEEEE"/>
</linearGradient>
<linearGradient id="paint1_linear_312_17" x1="145.068" y1="63.9343" x2="151.352" y2="35.4987" gradientUnits="userSpaceOnUse">
<stop stop-color="#F9F9F9" stop-opacity="0.8"/>
<stop offset="1" stop-color="#A7A7A7" stop-opacity="0.6"/>
</linearGradient>
<clipPath id="clip0_312_17">
<rect width="184" height="153" fill="white" transform="translate(0.832031)"/>
</clipPath>
<clipPath id="clip1_312_17">
<rect width="88.4105" height="88.4105" fill="white" transform="matrix(0.965926 0.258819 0 1 86.8047 30.4375)"/>
</clipPath>
<clipPath id="clip2_312_17">
<rect width="73.242" height="73.242" fill="white" transform="matrix(0.965926 0.258819 0 1 22.3906 -1.75586)"/>
</clipPath>
<clipPath id="clip3_312_17">
<rect width="73.242" height="73.242" fill="white" transform="matrix(0.965926 0.258819 0 1 89.1953 -9)"/>
</clipPath>
</defs>
</svg>
