<svg width="226" height="159" fill="none" xmlns="http://www.w3.org/2000/svg"><path d="M147.653 30.907 87.724 4.692c-.653-.286-1.183.154-1.183.983v111.422c0 .829.53 1.732 1.183 2.018l59.929 26.215c.653.286 1.183-.154 1.183-.982V32.925c0-.828-.53-1.732-1.183-2.018z" stroke="#4C4C4C"/><path d="M133.121 42.42c0-1.105-.706-2.31-1.578-2.69L71.615 13.514c-.872-.38-1.578.206-1.578 1.31v111.423c0 1.104.706 2.309 1.578 2.69l59.928 26.216c.872.381 1.578-.206 1.578-1.31V42.42z" fill="url(#a)"/><path d="M133.121 42.42c0-1.105-.706-2.31-1.578-2.69L71.615 13.514c-.872-.38-1.578.206-1.578 1.31v111.423c0 1.104.706 2.309 1.578 2.69l59.928 26.216c.872.381 1.578-.206 1.578-1.31V42.42z" fill="url(#b)"/><path d="m99.762 72.649 1.833-4.01c1.207-2.64 4.012-3.815 7.119-2.983l-1.833 4.01c-1.207 2.64-4.012 3.815-7.12 2.983z" fill="#4C4C4C"/><path opacity=".4" d="m99.762 103.274 1.833-4.01c1.207-2.64 4.012-3.815 7.119-2.983l-1.833 4.009c-1.207 2.641-4.012 3.816-7.12 2.984z" fill="#4C4C4C"/><path opacity=".2" d="m114.488 82.578 4.347 3.062c2.863 2.017 4.724 5.42 4.724 8.637l-4.346-3.063c-2.863-2.017-4.725-5.42-4.725-8.636z" fill="#4C4C4C"/><path opacity=".7" d="m84.91 74.652 4.347 3.063c2.863 2.016 4.724 5.419 4.724 8.636l-4.346-3.062c-2.864-2.017-4.725-5.42-4.725-8.637z" fill="#4C4C4C"/><path opacity=".1" d="m108.316 74.776 4.37-.67c2.878-.44 6.178 1.134 8.375 3.998l-4.37.669c-2.878.441-6.178-1.134-8.375-3.997z" fill="#4C4C4C"/><path opacity=".5" d="m87.402 90.827 4.37-.67c2.878-.44 6.177 1.134 8.375 3.997l-4.37.67c-2.878.44-6.177-1.134-8.375-3.997z" fill="#4C4C4C"/><path opacity=".3" d="m114.65 91.485 1.778 5c1.17 3.294.503 6.531-1.694 8.217l-1.777-5c-1.171-3.294-.504-6.53 1.693-8.217z" fill="#4C4C4C"/><path opacity=".8" d="m93.736 64.226 1.777 5c1.171 3.293.504 6.53-1.693 8.216l-1.778-5c-1.17-3.293-.503-6.53 1.694-8.216z" fill="#4C4C4C"/><g clip-path="url(#c)"><path d="M96.607 49.087c.003.213-.05.476-.105.69-.384 1.502-2.09 2.847-4.489 2.04-2.175-.73-3.947-2.286-3.947-3.802s1.768-2.272 3.947-1.688c2.18.584 4.58 1.24 4.594 2.76z" fill="#878787"/><path d="M92.015 46.58c-1.17-.313-3.843-.693-4.456-.858-1.083-.29-1.961.178-1.961 1.047 0 .417.207.85.538 1.22 0 0 .727.95 2.037.94.574-.006 1.506-.934 3.148-.681.818.125 2.35 1.19 5.043 1.928.116-.226.14-.399.14-.399 0-1.517-2.31-2.612-4.489-3.196z" fill="#EEE"/><path d="M96.498 49.778s1.58.092 2.561-.982c1.145-1.253.994-2.962.994-2.962 1.16-1.935-.361-4.448-.361-4.448-.151-2.412-1.567-3.773-1.567-3.773-.92-2.508-2.952-3.66-2.952-3.66-1.597-2.362-4.43-3.059-4.43-3.059s-2.653-1.717-6.296-1.562c-.602.026-2.621-.079-4.097.462-4.654 1.702-5.006 6.207-4.941 6.972.36 4.276 3.193 5.784 5 6.705.422 1.298 1.974 3.897 4.76 3.833 3.435.297 4.881-.377 5.725-.15.844.226 3.194 1.791 5.604 2.624z" fill="#389D2D"/><path d="M87.817 40.731c1.683-.488 2.596-.156 3.401.135.256.093.499.176.744.24 1.434.351 2.596.037 3.11-.431a.309.309 0 0 0 .08-.247.509.509 0 0 0-.122-.282.48.48 0 0 0-.255-.162.285.285 0 0 0-.246.05c-.397.361-1.373.615-2.584.32-.217-.052-.434-.133-.66-.215-.864-.315-1.937-.704-3.811-.159-.481.14-1.14.063-1.855-.054-1.589-2.799-.633-4.61-.36-5.03.027.009.053.025.08.032.29.078.58.082.844-.002a.259.259 0 0 0 .162-.181.423.423 0 0 0-.035-.288.535.535 0 0 0-.213-.232.358.358 0 0 0-.27-.045c-.227.069-.494.033-.746-.1a1.513 1.513 0 0 1-.613-.614.524.524 0 0 0-.226-.211.334.334 0 0 0-.264-.019.26.26 0 0 0-.156.185.427.427 0 0 0 .038.286c.171.323.412.597.685.81-.377.69-1.092 2.582.27 5.275-.958-.159-1.917-.276-2.668.024a3.583 3.583 0 0 0-1.358.977c-.454-.203-2.12-1.074-2.41-3.065a.918.918 0 0 0 .417-.462.334.334 0 0 0 .025-.136c0-.05-.01-.101-.03-.151a.536.536 0 0 0-.198-.253.442.442 0 0 0-.14-.063.327.327 0 0 0-.137-.006.257.257 0 0 0-.193.154.403.403 0 0 1-.127.176.401.401 0 0 1-.2.081.556.556 0 0 1-.239-.038.75.75 0 0 1-.227-.139.477.477 0 0 0-.134-.08.363.363 0 0 0-.14-.026.257.257 0 0 0-.218.12.354.354 0 0 0-.031.276c.026.102.088.2.172.27.205.173.425.292.643.35.027.008.052.002.08.008.343 1.898 1.722 3.061 2.698 3.563a2.314 2.314 0 0 0-.24.828.47.47 0 0 0 .083.295.51.51 0 0 0 .246.199l.032.01c.09.024.178.012.244-.033a.279.279 0 0 0 .116-.212c.078-.887.915-1.611 1.658-1.91.697-.278 1.718-.103 2.705.067.958.166 1.864.322 2.573.115zm9.303 1.367a.356.356 0 0 0-.03.277c.027.102.09.2.174.27.084.07.183.107.275.104a.257.257 0 0 0 .216-.122c.014-.022 1.332-2.225-1.136-4.604a.442.442 0 0 0-.271-.13.264.264 0 0 0-.23.097.332.332 0 0 0-.055.267.526.526 0 0 0 .153.28c1.911 1.843.946 3.491.904 3.56zm-14.987-10.06a.321.321 0 0 0 .165.003.25.25 0 0 0 .129-.08c1.048-1.229 2.5-.323 2.561-.283.09.054.186.074.27.054a.254.254 0 0 0 .183-.159.394.394 0 0 0-.009-.283.54.54 0 0 0-.194-.247c-.694-.453-2.297-.966-3.399.324a.297.297 0 0 0-.066.173.445.445 0 0 0 .039.209c.03.069.076.133.133.184a.467.467 0 0 0 .188.105zm9.452 1.12c1.609.295 2.34 1.698 2.374 1.764a.533.533 0 0 0 .22.232c.047.025.095.04.142.046a.297.297 0 0 0 .133-.012.25.25 0 0 0 .106-.069.278.278 0 0 0 .061-.115.373.373 0 0 0 .008-.144.487.487 0 0 0-.046-.15c-.04-.079-.97-1.92-3.054-2.314a.31.31 0 0 0-.136.003.251.251 0 0 0-.111.06.305.305 0 0 0-.086.25.509.509 0 0 0 .126.29.473.473 0 0 0 .263.158zm6.616 12.71c-.178-.058-.374.035-.39.237-.001.014-.116 1.256-1.38 1.348a.256.256 0 0 0-.2.106.332.332 0 0 0-.049.243.516.516 0 0 0 .362.41c.038.011.076.015.113.012 1.715-.122 1.87-1.792 1.875-1.863a.42.42 0 0 0-.016-.15.52.52 0 0 0-.179-.267.469.469 0 0 0-.136-.076z" fill="#EEE"/><path d="M80.289 37.432a.36.36 0 0 0-.014.145c.005.052.02.104.043.154a.543.543 0 0 0 .222.24.407.407 0 0 0 .144.048.298.298 0 0 0 .136-.013.249.249 0 0 0 .106-.072.28.28 0 0 0 .06-.12c.07-.24.232-.42.453-.501.222-.082.487-.06.742.062a.39.39 0 0 0 .141.04.288.288 0 0 0 .13-.02.25.25 0 0 0 .102-.075.285.285 0 0 0 .055-.12.385.385 0 0 0 .001-.146.546.546 0 0 0-.281-.373 1.724 1.724 0 0 0-.902-.177c-.843-1.718-.68-3.146-.677-3.16a.46.46 0 0 0-.071-.297.518.518 0 0 0-.24-.208.32.32 0 0 0-.266.003.27.27 0 0 0-.14.208c-.009.07-.202 1.68.769 3.66a1.268 1.268 0 0 0-.513.722zm8.083.317a.631.631 0 0 1 .528-.066c.195.054.382.183.524.36.069.087.161.15.257.174a.287.287 0 0 0 .254-.046.293.293 0 0 0 .102-.239.496.496 0 0 0-.109-.292 2.09 2.09 0 0 0-.576-.502c.214-.704.13-1.064-.07-1.75-.04-.134-.077-.268-.113-.403l-.022-.08c-.263-.976-.437-1.619.063-2.327a.342.342 0 0 0 .044-.271.53.53 0 0 0-.163-.276.432.432 0 0 0-.273-.118.26.26 0 0 0-.224.108c-.671.949-.424 1.86-.139 2.915l.022.08c.042.157.081.296.118.42.178.617.233.822.014 1.452a1.105 1.105 0 0 0-.73.182.287.287 0 0 0-.11.23.485.485 0 0 0 .098.29.5.5 0 0 0 .248.185.3.3 0 0 0 .257-.026zm4.602-1c.215.057.427.065.621.023a.254.254 0 0 0 .187-.163.4.4 0 0 0-.013-.29.538.538 0 0 0-.205-.247.373.373 0 0 0-.277-.06.792.792 0 0 1-.565-.12 1.148 1.148 0 0 1-.435-.49.536.536 0 0 0-.214-.249.42.42 0 0 0-.143-.054.31.31 0 0 0-.138.006.252.252 0 0 0-.177.18.364.364 0 0 0-.011.145.483.483 0 0 0 .046.154c.13.286.324.537.55.735-.39.873-.169 1.97.011 2.568a.515.515 0 0 0 .18.274c.044.035.09.061.14.078a.353.353 0 0 0 .143.02.255.255 0 0 0 .212-.138.323.323 0 0 0 .034-.136.435.435 0 0 0-.024-.154c-.121-.405-.357-1.41-.001-2.116.027.01.053.026.08.033zm3.469 7.987a.459.459 0 0 0-.036-.151.534.534 0 0 0-.208-.245.424.424 0 0 0-.14-.057 1.55 1.55 0 0 1-.512-.205 1.97 1.97 0 0 1-.762-.895 1.692 1.692 0 0 1-.134-.552.519.519 0 0 0-.125-.288.488.488 0 0 0-.26-.163.315.315 0 0 0-.137.002.254.254 0 0 0-.181.167.35.35 0 0 0-.018.14c.03.45.192.891.44 1.282-.582.552-1.344.55-1.768.487-.375-.054-.704-.181-1.083-.33-.348-.134-.741-.286-1.228-.402h-.004a2.18 2.18 0 0 0-.22-.845.525.525 0 0 0-.224-.208.336.336 0 0 0-.262-.02.26.26 0 0 0-.157.18.42.42 0 0 0 .03.281c.097.187.115.449.115.574-.364.038-.68.152-.964.268-.51.207-.91.37-1.514.068-.547-.276-1.094-.45-1.559-.506a2.33 2.33 0 0 0-.363-.683.485.485 0 0 0-.258-.171.285.285 0 0 0-.253.05.295.295 0 0 0-.099.24c.003.1.044.205.114.292.062.078.111.18.15.278-.797.126-1.197.587-1.215.61a.296.296 0 0 0-.066.172.445.445 0 0 0 .04.209c.03.069.076.132.132.183.057.05.122.087.188.105a.323.323 0 0 0 .165.004.251.251 0 0 0 .128-.08c.004-.004.401-.448 1.184-.46.405-.007.986.158 1.552.443.158.08.305.132.447.172.068.181.094.382.097.455a.501.501 0 0 0 .113.281.49.49 0 0 0 .248.17l.02.004c.095.02.185 0 .249-.056a.3.3 0 0 0 .093-.244 2.67 2.67 0 0 0-.094-.539c.333-.036.623-.153.895-.264.414-.168.805-.327 1.317-.208.428.1.78.236 1.121.369.343.133.68.25 1.051.327a1.5 1.5 0 0 1 .051.54.417.417 0 0 0 .014.161.524.524 0 0 0 .345.358.295.295 0 0 0 .239-.03.274.274 0 0 0 .12-.2 2.35 2.35 0 0 0-.043-.746c.66-.004 1.25-.23 1.695-.647a2.56 2.56 0 0 0 1.198.63.279.279 0 0 0 .247-.06.302.302 0 0 0 .089-.247z" fill="#EEE"/></g><defs><linearGradient id="a" x1="91.483" y1="101.405" x2="122.455" y2="38.093" gradientUnits="userSpaceOnUse"><stop stop-color="#F9F9F9" stop-opacity=".8"/><stop offset="1" stop-color="#EEE"/></linearGradient><linearGradient id="b" x1="79.647" y1="131.817" x2="108.993" y2="77.544" gradientUnits="userSpaceOnUse"><stop stop-color="#F9F9F9" stop-opacity=".8"/><stop offset="1" stop-color="#A7A7A7" stop-opacity=".6"/></linearGradient><clipPath id="c"><path fill="#fff" transform="matrix(.96593 .25882 0 1 74.988 23.334)" d="M0 0h26.949v26.949H0z"/></clipPath></defs></svg>