<svg width="226" height="169" fill="none" xmlns="http://www.w3.org/2000/svg"><path d="M103.445 21.611c0-3.866-2.609-7.819-5.827-8.829L59.974.967c-3.219-1.01-5.828 1.305-5.828 5.17v71.54c0 3.866 2.61 7.82 5.828 8.83l37.644 11.815c3.218 1.01 5.827-1.305 5.827-5.171v-71.54z" fill="url(#a)"/><path d="M103.445 21.611c0-3.866-2.609-7.819-5.827-8.829L59.974.967c-3.219-1.01-5.828 1.305-5.828 5.17v71.54c0 3.866 2.61 7.82 5.828 8.83l37.644 11.815c3.218 1.01 5.827-1.305 5.827-5.171v-71.54z" fill="url(#b)"/><path d="M73.557 30.988c1.389-.474 1.389-2.87 0-4.216-.597-.578-1.318-.804-1.915-.6-1.389.473-1.389 2.87 0 4.215.597.579 1.318.805 1.915.601z" fill="#878787"/><path fill-rule="evenodd" clip-rule="evenodd" d="M67.649 25.456c-1.035.353-1.035 2.137 0 3.14l.1.098c.417.403.676 1.009.676 1.578 0 .86-.58 1.374-1.296 1.15l-4.017-1.261c-.843-.265-1.518-1.288-1.518-2.3V13.273c0-.484.16-.897.444-1.15.285-.253.671-.324 1.074-.197.419.131.759.646.759 1.15v3.486c0 .873.793 1.662 1.416 1.408.296-.12.666-.005.962.302.624.645 1.417.354 1.417-.519v-2.09c0-1.275.86-2.038 1.92-1.705l2.634.826c.403.127.789.44 1.073.871.285.432.445.946.445 1.43v6.608c0 .53-.473.719-.86.343-.174-.168-.384-.234-.557-.175l-4.672 1.595z" fill="#666"/><path d="M70.928 30.607c-.444-.43-.985-.215-.985.393 0 .293.133.604.347.811l1.037 1.006c.793.769 1.752 1.07 2.545.798l1.037-.354c.214-.073.347-.3.347-.593 0-.608-.541-1.164-.986-1.012l-1.02.349c-.406.138-.895-.016-1.3-.408l-1.022-.99z" fill="#878787"/><path d="M177.336 39.639c0-3.866-2.551-7.9-5.698-9.01l-34.111-12.033c-3.147-1.11-5.698 1.124-5.698 4.99v66.68c0 3.866 2.551 7.9 5.698 9.01l34.111 12.032c3.147 1.11 5.698-1.124 5.698-4.99v-66.68z" fill="url(#c)"/><path d="M177.336 39.639c0-3.866-2.551-7.9-5.698-9.01l-34.111-12.033c-3.147-1.11-5.698 1.124-5.698 4.99v66.68c0 3.866 2.551 7.9 5.698 9.01l34.111 12.032c3.147 1.11 5.698-1.124 5.698-4.99v-66.68z" fill="url(#d)"/><path fill-rule="evenodd" clip-rule="evenodd" d="M149.059 27.906c0-.298-.22-.6-.492-.672L139.5 24.8c-.272-.073-.492.11-.492.408v14.664c0 .298.22.599.492.672l4.678 1.255c.434.117.68-.416.465-.887a6.528 6.528 0 0 1-.609-2.694c0-.448.052-.87.151-1.257.078-.305-.132-.706-.439-.788-.238-.064-.43-.327-.43-.587v-.563c0-.298.22-.48.492-.408l.777.21c.092.024.166.125.166.226 0 .183.231.323.337.21.856-.916 2.156-1.298 3.612-.907.194.052.359-.07.359-.282v-6.166zm-1.856 3.685c.272.073.492.374.492.672v.495c0 .297-.22.48-.492.407l-6.195-1.663c-.272-.073-.492-.373-.492-.671v-.495c0-.298.22-.481.492-.408l6.195 1.663zm-.072-3.168c.272.073.492.373.492.672v.494c0 .299-.22.48-.492.408l-6.195-1.663c-.272-.073-.492-.373-.492-.672v-.494c0-.299.22-.48.492-.408l6.195 1.663z" fill="#666"/><path fill-rule="evenodd" clip-rule="evenodd" d="M151.97 38.715c.092.245.002.473-.189.543-.183.066-.267.28-.236.517.02.157.03.313.03.467 0 .154-.01.305-.03.45-.031.222.053.48.236.645.191.172.281.45.189.644-.038.081-.079.16-.123.235l-.067.11a2.71 2.71 0 0 1-.154.216c-.128.162-.373.137-.563-.034-.183-.165-.412-.188-.577-.09a2.052 2.052 0 0 1-.724.265c-.196.033-.341.192-.341.424 0 .241-.155.41-.374.375a3.558 3.558 0 0 1-.688-.185c-.219-.082-.374-.334-.374-.576 0-.231-.144-.468-.341-.606a4.146 4.146 0 0 1-.724-.653c-.165-.188-.394-.288-.577-.221-.19.07-.435-.037-.563-.268a5 5 0 0 1-.155-.302l-.065-.14a5.883 5.883 0 0 1-.124-.304c-.092-.244-.002-.472.189-.542.183-.067.267-.28.236-.518a3.698 3.698 0 0 1-.03-.466c0-.154.01-.304.03-.45a.755.755 0 0 0-.236-.645c-.191-.172-.281-.45-.189-.644.038-.082.08-.161.124-.238l.065-.104c.048-.076.1-.149.155-.219.128-.162.373-.137.563.034.183.165.412.189.577.089.218-.13.462-.22.724-.264.197-.033.341-.192.341-.424 0-.24.155-.41.374-.375a3.438 3.438 0 0 1 .688.185c.219.081.374.335.374.575 0 .232.145.469.341.607.262.185.506.405.724.653.165.188.394.288.577.221.19-.07.435.037.563.268.054.098.106.198.154.299l.067.145c.044.1.085.2.123.301zm-3.267 1.938c.595.16 1.077-.24 1.077-.892 0-.653-.482-1.31-1.077-1.47-.595-.16-1.077.24-1.077.891 0 .652.482 1.31 1.077 1.47z" fill="#878787"/><path d="M113.538 70.272c-5.961 0-11.064-2.122-15.308-6.367-4.245-4.245-6.368-9.348-6.368-15.308 0-5.96 2.123-11.063 6.368-15.308 4.244-4.245 9.347-6.367 15.308-6.367 5.96 0 11.063 2.122 15.308 6.367 4.244 4.245 6.367 9.347 6.367 15.308 0 5.96-2.123 11.063-6.367 15.308-4.245 4.245-9.348 6.367-15.308 6.367zm-43.35 43.35V98.449c0-3.07.79-5.892 2.373-8.464 1.582-2.572 3.681-4.537 6.296-5.895 5.6-2.8 11.29-4.899 17.07-6.297a74.846 74.846 0 0 1 17.611-2.102 74.09 74.09 0 0 1 17.61 2.102c5.78 1.405 11.47 3.504 17.07 6.297 2.619 1.354 4.719 3.32 6.302 5.895 1.582 2.576 2.371 5.397 2.368 8.464v15.173h-86.7z" fill="#389D2D"/><path d="M127.531 88.137c0-3.866-2.568-7.938-5.737-9.095L84.437 65.4C81.27 64.244 78.7 66.44 78.7 70.306v72.006c0 3.866 2.569 7.937 5.737 9.094l37.357 13.642c3.169 1.157 5.737-1.039 5.737-4.905V88.137z" fill="url(#e)"/><path d="M127.531 88.137c0-3.866-2.568-7.938-5.737-9.095L84.437 65.4C81.27 64.244 78.7 66.44 78.7 70.306v72.006c0 3.866 2.569 7.937 5.737 9.094l37.357 13.642c3.169 1.157 5.737-1.039 5.737-4.905V88.137z" fill="url(#f)"/><path d="m120.693 82.985-37.357-13.64c-2.942-1.075-5.328.964-5.328 4.554v72.006c0 3.589 2.386 7.371 5.328 8.445l37.357 13.641c2.942 1.074 5.327-.965 5.327-4.555V91.43c0-3.477-2.238-7.134-5.053-8.336l-.274-.109z" stroke="#4C4C4C"/><g clip-path="url(#g)"><path d="M101.549 92.9c.002.138-.033.31-.069.448-.249.978-1.359 1.853-2.92 1.328-1.415-.476-2.568-1.488-2.568-2.474 0-.986 1.15-1.478 2.568-1.098 1.418.38 2.98.807 2.989 1.796z" fill="#878787"/><path d="M98.558 91.27c-.762-.205-2.5-.453-2.899-.56-.705-.188-1.276.116-1.276.681 0 .272.134.554.35.794 0 0 .473.619 1.326.611.373-.003.98-.607 2.048-.442.532.081 1.529.775 3.281 1.254.075-.147.091-.26.091-.26 0-.986-1.503-1.699-2.921-2.079z" fill="#EEE"/><path d="M101.483 93.348s1.028.06 1.666-.639c.745-.815.647-1.927.647-1.927.755-1.259-.235-2.894-.235-2.894-.098-1.569-1.019-2.455-1.019-2.455-.598-1.631-1.921-2.381-1.921-2.381-1.039-1.537-2.882-1.99-2.882-1.99s-1.726-1.118-4.096-1.016c-.392.016-1.706-.052-2.666.3-3.028 1.108-3.257 4.039-3.215 4.536.235 2.783 2.078 3.763 3.254 4.362.274.845 1.283 2.536 3.097 2.495 2.234.193 3.175-.246 3.724-.098.55.147 2.078 1.165 3.646 1.707z" fill="#666"/><path d="M95.829 87.463c1.095-.318 1.689-.102 2.213.088.166.06.324.114.483.156.934.228 1.69.023 2.024-.281a.2.2 0 0 0 .052-.16.335.335 0 0 0-.245-.29.187.187 0 0 0-.161.033c-.257.235-.893.4-1.68.208-.142-.034-.283-.086-.43-.14-.562-.204-1.26-.458-2.48-.103-.313.091-.742.04-1.206-.035-1.034-1.821-.412-3-.234-3.273.017.006.034.016.052.021.188.05.377.053.549-.001a.168.168 0 0 0 .105-.118.275.275 0 0 0-.023-.188.348.348 0 0 0-.138-.15.233.233 0 0 0-.176-.03.649.649 0 0 1-.485-.064.984.984 0 0 1-.4-.4.341.341 0 0 0-.146-.138.217.217 0 0 0-.172-.012.17.17 0 0 0-.102.12.278.278 0 0 0 .025.186c.111.21.269.389.446.528-.245.45-.71 1.68.175 3.432-.623-.104-1.247-.18-1.735.015a2.331 2.331 0 0 0-.884.636c-.296-.132-1.379-.699-1.568-1.994a.597.597 0 0 0 .271-.3.218.218 0 0 0 .017-.09.293.293 0 0 0-.02-.098.346.346 0 0 0-.22-.205.214.214 0 0 0-.089-.004.167.167 0 0 0-.125.1.261.261 0 0 1-.083.114.26.26 0 0 1-.13.053.361.361 0 0 1-.156-.024.488.488 0 0 1-.147-.09.31.31 0 0 0-.088-.053.236.236 0 0 0-.091-.017.167.167 0 0 0-.141.078.23.23 0 0 0-.02.18c.016.066.057.13.111.176.134.112.277.19.419.228.017.004.034 0 .051.004.224 1.235 1.121 1.992 1.756 2.318-.083.161-.136.343-.156.54a.307.307 0 0 0 .054.192c.04.06.098.106.16.129l.02.006a.191.191 0 0 0 .16-.021.181.181 0 0 0 .075-.138c.051-.577.595-1.049 1.079-1.243.453-.18 1.117-.067 1.76.044.623.108 1.212.209 1.674.075zm6.053.889a.234.234 0 0 0-.02.18.35.35 0 0 0 .113.176c.055.045.119.07.179.068a.168.168 0 0 0 .141-.08c.009-.014.866-1.447-.739-2.995a.29.29 0 0 0-.177-.084.172.172 0 0 0-.15.063.215.215 0 0 0-.036.173.341.341 0 0 0 .1.182c1.244 1.199.616 2.272.589 2.317zm-9.752-6.545a.21.21 0 0 0 .108.002.164.164 0 0 0 .084-.052c.682-.8 1.626-.21 1.666-.184a.24.24 0 0 0 .176.035.165.165 0 0 0 .119-.104.256.256 0 0 0-.006-.184.35.35 0 0 0-.126-.16c-.452-.295-1.495-.63-2.212.21a.194.194 0 0 0-.043.112.29.29 0 0 0 .025.136c.02.046.05.087.087.12.037.033.08.057.123.069zm6.15.728c1.047.192 1.523 1.106 1.545 1.148a.348.348 0 0 0 .144.151c.03.016.061.026.091.03.031.004.06.001.087-.008a.164.164 0 0 0 .069-.044.191.191 0 0 0 .04-.075.263.263 0 0 0 .005-.094.325.325 0 0 0-.03-.098c-.026-.051-.63-1.249-1.987-1.505a.203.203 0 0 0-.089.002.166.166 0 0 0-.072.04.199.199 0 0 0-.056.161.33.33 0 0 0 .082.188.308.308 0 0 0 .171.104zm4.305 8.27c-.116-.038-.243.023-.254.154-.001.009-.075.817-.898.877a.168.168 0 0 0-.13.07.219.219 0 0 0-.032.157.338.338 0 0 0 .236.267c.025.007.049.01.073.008 1.116-.08 1.217-1.166 1.22-1.213a.274.274 0 0 0-.01-.097.357.357 0 0 0-.117-.174.295.295 0 0 0-.088-.05z" fill="#F9F9F9"/><path d="M90.938 85.317a.232.232 0 0 0-.01.094.31.31 0 0 0 .029.1.355.355 0 0 0 .145.156c.03.017.062.027.093.031a.193.193 0 0 0 .089-.008.161.161 0 0 0 .069-.047.183.183 0 0 0 .039-.078.478.478 0 0 1 .295-.326.625.625 0 0 1 .482.04c.03.015.062.024.092.026.03.002.06-.002.085-.013a.162.162 0 0 0 .066-.049.186.186 0 0 0 .036-.078.249.249 0 0 0 0-.094.353.353 0 0 0-.183-.242 1.121 1.121 0 0 0-.587-.116c-.548-1.118-.441-2.047-.44-2.057a.299.299 0 0 0-.046-.193.337.337 0 0 0-.156-.135.207.207 0 0 0-.173.002.176.176 0 0 0-.091.135c-.006.046-.132 1.093.5 2.382a.824.824 0 0 0-.334.47zm5.26.206a.41.41 0 0 1 .343-.043.683.683 0 0 1 .34.234.318.318 0 0 0 .168.113.187.187 0 0 0 .165-.03.19.19 0 0 0 .067-.155.322.322 0 0 0-.072-.19 1.362 1.362 0 0 0-.374-.327c.139-.458.084-.692-.046-1.138-.025-.088-.05-.175-.073-.263l-.014-.052c-.172-.634-.285-1.053.04-1.514a.222.222 0 0 0 .029-.176.345.345 0 0 0-.106-.18.28.28 0 0 0-.178-.077.169.169 0 0 0-.145.07c-.437.618-.277 1.211-.09 1.897l.013.053c.028.102.053.192.077.272.116.402.151.536.01.946a.719.719 0 0 0-.476.118.187.187 0 0 0-.07.15.316.316 0 0 0 .063.188c.041.058.1.101.16.12.062.02.122.014.168-.016zm2.994-.652c.14.038.277.044.404.016.056-.013.1-.05.12-.106a.26.26 0 0 0-.008-.188.35.35 0 0 0-.133-.161.242.242 0 0 0-.18-.04.515.515 0 0 1-.368-.077.747.747 0 0 1-.283-.32.35.35 0 0 0-.139-.161.272.272 0 0 0-.093-.036.2.2 0 0 0-.09.004.163.163 0 0 0-.072.043.177.177 0 0 0-.043.074.236.236 0 0 0-.007.095.313.313 0 0 0 .03.1c.084.186.21.35.357.478-.252.568-.109 1.282.008 1.67a.338.338 0 0 0 .208.23c.031.011.063.016.093.013a.166.166 0 0 0 .138-.09.21.21 0 0 0 .022-.088.282.282 0 0 0-.015-.1c-.08-.264-.233-.918-.001-1.377.018.006.034.017.052.021zm2.256 5.197a.293.293 0 0 0-.023-.098.342.342 0 0 0-.135-.16.286.286 0 0 0-.092-.036 1.012 1.012 0 0 1-.333-.134 1.285 1.285 0 0 1-.496-.582 1.093 1.093 0 0 1-.086-.359.34.34 0 0 0-.082-.187.318.318 0 0 0-.169-.106.206.206 0 0 0-.089 0 .165.165 0 0 0-.118.11.23.23 0 0 0-.012.09c.02.293.125.58.286.835-.378.359-.874.357-1.15.317-.244-.035-.457-.118-.704-.215-.227-.087-.483-.187-.8-.262h-.002a1.417 1.417 0 0 0-.143-.55.341.341 0 0 0-.146-.135.219.219 0 0 0-.17-.013.169.169 0 0 0-.103.117.274.274 0 0 0 .02.183.897.897 0 0 1 .075.373c-.237.025-.442.1-.627.175-.332.134-.593.24-.986.044a3.194 3.194 0 0 0-1.013-.33 1.515 1.515 0 0 0-.236-.443.316.316 0 0 0-.169-.112.186.186 0 0 0-.164.032.192.192 0 0 0-.064.157.325.325 0 0 0 .073.19c.04.05.073.117.099.18-.52.083-.78.383-.792.398a.194.194 0 0 0-.042.112.29.29 0 0 0 .025.135c.02.045.05.087.087.12a.302.302 0 0 0 .122.068c.037.01.074.01.107.002a.163.163 0 0 0 .084-.05c.002-.004.26-.293.77-.301.263-.004.641.103 1.01.288.103.052.198.086.29.113.044.117.061.248.064.295.003.064.03.129.073.183a.317.317 0 0 0 .162.11l.012.003c.062.013.12 0 .162-.036a.195.195 0 0 0 .06-.159 1.734 1.734 0 0 0-.06-.35c.217-.024.405-.1.583-.172.269-.11.523-.213.856-.135.278.064.508.153.73.24.222.086.442.162.683.212.043.135.04.299.033.352a.271.271 0 0 0 .01.105.343.343 0 0 0 .224.232.192.192 0 0 0 .155-.019.178.178 0 0 0 .078-.13c.017-.156.008-.32-.028-.486a1.6 1.6 0 0 0 1.103-.42c.234.211.506.355.78.41a.181.181 0 0 0 .161-.04.196.196 0 0 0 .057-.16z" fill="#F9F9F9"/></g><defs><linearGradient id="a" x1="61.656" y1="86.565" x2="79.958" y2="42.121" gradientUnits="userSpaceOnUse"><stop stop-color="#F9F9F9" stop-opacity=".8"/><stop offset="1" stop-color="#A7A7A7" stop-opacity=".6"/></linearGradient><linearGradient id="b" x1="70.906" y1="63.093" x2="89.555" y2="11.712" gradientUnits="userSpaceOnUse"><stop stop-color="#F9F9F9" stop-opacity=".8"/><stop offset="1" stop-color="#EEE"/></linearGradient><linearGradient id="c" x1="138.761" y1="99.268" x2="157.184" y2="58.582" gradientUnits="userSpaceOnUse"><stop stop-color="#F9F9F9" stop-opacity=".8"/><stop offset="1" stop-color="#A7A7A7" stop-opacity=".6"/></linearGradient><linearGradient id="d" x1="147.299" y1="77.403" x2="166.311" y2="30.217" gradientUnits="userSpaceOnUse"><stop stop-color="#F9F9F9" stop-opacity=".8"/><stop offset="1" stop-color="#EEE"/></linearGradient><linearGradient id="e" x1="86.138" y1="151.556" x2="106.109" y2="108.568" gradientUnits="userSpaceOnUse"><stop stop-color="#F9F9F9" stop-opacity=".8"/><stop offset="1" stop-color="#A7A7A7" stop-opacity=".6"/></linearGradient><linearGradient id="f" x1="95.3" y1="128.382" x2="115.999" y2="78.505" gradientUnits="userSpaceOnUse"><stop stop-color="#F9F9F9" stop-opacity=".8"/><stop offset="1" stop-color="#EEE"/></linearGradient><clipPath id="g"><rect width="17.534" height="17.534" rx="7" transform="matrix(.96593 .25882 0 1 87.484 76.144)" fill="#fff"/></clipPath></defs></svg>