<svg width="226" height="159" viewBox="0 0 226 159" fill="none" xmlns="http://www.w3.org/2000/svg">
<path d="M147.653 30.9074L87.7243 4.6922C87.0707 4.40631 86.5409 4.84611 86.5409 5.67454L86.5409 117.097C86.5409 117.926 87.0707 118.829 87.7243 119.115L147.653 145.33C148.306 145.616 148.836 145.176 148.836 144.348V32.9251C148.836 32.0967 148.306 31.1933 147.653 30.9074Z" stroke="#4C4C4C"/>
<path d="M133.121 42.4199C133.121 41.3154 132.415 40.1109 131.543 39.7297L71.6145 13.5143C70.7431 13.1331 70.0367 13.7195 70.0367 14.8241V126.247C70.0367 127.351 70.7431 128.556 71.6145 128.937L131.543 155.153C132.415 155.534 133.121 154.947 133.121 153.843V42.4199Z" fill="url(#paint0_linear_4809_5371)"/>
<path d="M133.121 42.4199C133.121 41.3154 132.415 40.1109 131.543 39.7297L71.6145 13.5143C70.7431 13.1331 70.0367 13.7195 70.0367 14.8241V126.247C70.0367 127.351 70.7431 128.556 71.6145 128.937L131.543 155.153C132.415 155.534 133.121 154.947 133.121 153.843V42.4199Z" fill="url(#paint1_linear_4809_5371)"/>
<path d="M99.7617 72.6488L101.595 68.6399C102.802 65.9994 105.607 64.8239 108.714 65.6565L106.881 69.6655C105.674 72.306 102.869 73.4814 99.7617 72.6488Z" fill="#4C4C4C"/>
<path opacity="0.4" d="M99.7617 103.274L101.595 99.2649C102.802 96.6244 105.607 95.4489 108.714 96.2815L106.881 100.29C105.674 102.931 102.869 104.106 99.7617 103.274Z" fill="#4C4C4C"/>
<path opacity="0.2" d="M114.488 82.5781L118.835 85.6404C121.698 87.6573 123.559 91.0598 123.559 94.2766L119.213 91.2143C116.35 89.1973 114.488 85.7948 114.488 82.5781Z" fill="#4C4C4C"/>
<path opacity="0.7" d="M84.9102 74.6523L89.257 77.7146C92.12 79.7315 93.9813 83.134 93.9813 86.3508L89.6345 83.2886C86.7714 81.2716 84.9102 77.869 84.9102 74.6523Z" fill="#4C4C4C"/>
<path opacity="0.1" d="M108.316 74.7759L112.686 74.1064C115.564 73.6655 118.864 75.2402 121.061 78.1035L116.691 78.773C113.813 79.214 110.513 77.6391 108.316 74.7759Z" fill="#4C4C4C"/>
<path opacity="0.5" d="M87.4023 90.8267L91.7719 90.1572C94.6501 89.7162 97.9495 91.291 100.147 94.1544L95.777 94.8238C92.8989 95.2646 89.5995 93.69 87.4023 90.8267Z" fill="#4C4C4C"/>
<path opacity="0.3" d="M114.65 91.4853L116.428 96.4854C117.598 99.7788 116.931 103.016 114.734 104.702L114.734 104.702L112.957 99.7015C111.786 96.4082 112.453 93.1712 114.65 91.4853Z" fill="#4C4C4C"/>
<path opacity="0.8" d="M93.7358 64.2256L95.5135 69.2256C96.6845 72.5191 96.0172 75.7561 93.8201 77.4419L92.0424 72.4417C90.8716 69.1486 91.5387 65.9115 93.7358 64.2256Z" fill="#4C4C4C"/>
<g clip-path="url(#clip0_4809_5371)">
<path d="M96.6074 49.0874C96.6096 49.2999 96.5568 49.5627 96.5018 49.7763C96.1179 51.2791 94.4129 52.6241 92.013 51.8171C89.8379 51.0861 88.0664 49.5305 88.0664 48.0146C88.0664 46.4987 89.8336 45.7431 92.013 46.327C94.1923 46.911 96.5937 47.5679 96.6074 49.0874Z" fill="#878787"/>
<path d="M92.015 46.5808C90.8443 46.2672 88.1725 45.8866 87.5594 45.7223C86.4762 45.4321 85.5977 45.9004 85.5977 46.7687C85.5977 47.1864 85.8045 47.6191 86.1356 47.9893C86.1356 47.9893 86.863 48.9396 88.1733 48.9283C88.7467 48.9233 89.6794 47.9949 91.3215 48.2478C92.1393 48.3733 93.6715 49.4389 96.3643 50.1761C96.48 49.9496 96.5038 49.7771 96.5038 49.7771C96.5038 48.2597 94.1943 47.1648 92.015 46.5808Z" fill="#EEEEEE"/>
<path d="M96.498 49.778C96.498 49.778 98.0772 49.8695 99.0591 48.7957C100.204 47.5431 100.053 45.8342 100.053 45.8342C101.213 43.8992 99.6918 41.3858 99.6918 41.3858C99.5407 38.9745 98.1249 37.613 98.1249 37.613C97.2059 35.1053 95.1726 33.9526 95.1726 33.9526C93.576 31.5912 90.7437 30.8944 90.7437 30.8944C90.7437 30.8944 88.09 29.1765 84.4472 29.3323C83.8449 29.358 81.826 29.2535 80.3495 29.7936C75.6958 31.4961 75.3436 36.001 75.4087 36.7663C75.7695 41.0423 78.6018 42.5498 80.4095 43.4706C80.8311 44.7686 82.3828 47.368 85.1695 47.304C88.6042 47.6007 90.0503 46.9275 90.8941 47.1536C91.738 47.3797 94.088 48.9451 96.498 49.778Z" fill="#389D2D"/>
<path d="M87.817 40.731C89.5003 40.2426 90.4129 40.5747 91.2184 40.8661C91.4743 40.9586 91.7166 41.0423 91.9617 41.1064C93.3963 41.4572 94.5583 41.1427 95.0724 40.6748C95.1313 40.6154 95.1599 40.5271 95.152 40.4284C95.1441 40.3298 95.1005 40.2284 95.0302 40.1456C94.9599 40.0628 94.8684 40.005 94.7749 39.9842C94.6814 39.9635 94.5932 39.9814 94.5286 40.0343C94.1324 40.3953 93.1555 40.6493 91.9451 40.3534C91.7281 40.302 91.5105 40.2212 91.2849 40.1391C90.4208 39.8245 89.3478 39.4351 87.4736 39.9802C86.9927 40.1201 86.3333 40.043 85.6189 39.9264C84.0303 37.127 84.9862 35.3155 85.2595 34.8962C85.2862 34.9049 85.3123 34.9208 85.3398 34.9282C85.629 35.0057 85.9197 35.0102 86.1829 34.9265C86.263 34.8975 86.3211 34.8322 86.3447 34.7445C86.3684 34.6567 86.3558 34.5535 86.3096 34.4565C86.2634 34.3595 86.1872 34.2765 86.0971 34.2248C86.0071 34.1732 85.9103 34.1571 85.8271 34.1799C85.5996 34.2486 85.3333 34.2133 85.0813 34.0809C84.8293 33.9486 84.6102 33.729 84.4677 33.4661C84.414 33.3732 84.333 33.2975 84.2418 33.2547C84.1506 33.2118 84.056 33.2052 83.9777 33.2362C83.8995 33.2671 83.8435 33.3333 83.8215 33.4209C83.7996 33.5085 83.8132 33.6108 83.8596 33.7066C84.031 34.0303 84.2725 34.3038 84.5451 34.5169C84.1684 35.2079 83.4532 37.0989 84.8141 39.7924C83.8567 39.6331 82.8979 39.5162 82.1474 39.8159C81.62 40.0327 81.1599 40.3637 80.7894 40.7928C80.3346 40.5901 78.6694 39.7194 78.3787 37.7281C78.5595 37.6314 78.7055 37.4789 78.7959 37.2665C78.8134 37.2255 78.822 37.179 78.8212 37.1296C78.8205 37.0803 78.8104 37.029 78.7915 36.9789C78.7726 36.9287 78.7454 36.8806 78.7113 36.8372C78.6772 36.7939 78.6369 36.7562 78.5927 36.7262C78.5486 36.6963 78.5014 36.6748 78.4539 36.6628C78.4064 36.6509 78.3596 36.6488 78.316 36.6567C78.2724 36.6645 78.233 36.6822 78.2 36.7086C78.1669 36.7351 78.1409 36.7698 78.1234 36.8109C78.0962 36.8823 78.0527 36.9423 77.996 36.9867C77.9393 37.0311 77.8708 37.0588 77.7952 37.068C77.7186 37.0737 77.6374 37.0608 77.5572 37.0303C77.477 36.9997 77.3996 36.9522 77.3302 36.891C77.2887 36.856 77.2431 36.8286 77.1959 36.8103C77.1488 36.792 77.101 36.7833 77.0553 36.7845C76.9631 36.7871 76.8851 36.8302 76.8385 36.9045C76.7919 36.9788 76.7805 37.0781 76.8068 37.1806C76.8331 37.2831 76.895 37.3804 76.9788 37.4511C77.1842 37.6244 77.404 37.7432 77.6224 37.8017C77.6491 37.8089 77.6744 37.8029 77.7012 37.8086C78.0454 39.7072 79.4243 40.8701 80.3997 41.3718C80.2721 41.619 80.1912 41.899 80.1604 42.2C80.1519 42.2966 80.1818 42.4029 80.2433 42.4955C80.3049 42.588 80.3931 42.6593 80.4886 42.6937L80.5212 42.7039C80.6115 42.7281 80.6986 42.7164 80.7653 42.6711C80.8319 42.6257 80.8733 42.5501 80.8813 42.459C80.9594 41.5719 81.796 40.8476 82.5393 40.549C83.2363 40.2709 84.2566 40.4462 85.2443 40.6158C86.2024 40.7819 87.1077 40.9377 87.817 40.731ZM97.1201 42.0979C97.0741 42.1727 97.0634 42.2724 97.0904 42.3749C97.1174 42.4775 97.1798 42.5745 97.264 42.6447C97.3482 42.7149 97.4472 42.7525 97.5393 42.7493C97.6314 42.746 97.709 42.7021 97.755 42.6273C97.7687 42.6055 99.0869 40.4023 96.619 38.0231C96.5395 37.9463 96.4419 37.8998 96.3478 37.8937C96.2537 37.8876 96.1707 37.9224 96.1172 37.9904C96.0637 38.0585 96.044 38.1542 96.0625 38.2566C96.0809 38.3589 96.136 38.4596 96.2156 38.5363C98.1274 40.3795 97.1621 42.0283 97.1201 42.0979ZM82.1329 32.038C82.1903 32.0534 82.2468 32.0544 82.2978 32.041C82.3489 32.0276 82.393 32.0002 82.4265 31.9609C83.4749 30.732 84.9269 31.6376 84.9883 31.678C85.0774 31.7323 85.1744 31.7517 85.2588 31.7321C85.3433 31.7125 85.4086 31.6555 85.441 31.573C85.4734 31.4906 85.4703 31.3892 85.4323 31.2902C85.3944 31.1913 85.3247 31.1025 85.2378 31.0426C84.5436 30.5902 82.9406 30.0768 81.8393 31.3672C81.8007 31.4128 81.7777 31.4724 81.7728 31.5397C81.7679 31.607 81.7814 31.6792 81.8117 31.7485C81.842 31.8178 81.888 31.8815 81.9447 31.9326C82.0014 31.9836 82.0665 32.0201 82.1329 32.038ZM91.585 33.1573C93.1938 33.4529 93.9256 34.8565 93.9588 34.9223C94.0075 35.021 94.0869 35.1044 94.1798 35.1543C94.2258 35.179 94.2737 35.1947 94.3208 35.2005C94.3679 35.2064 94.4132 35.2022 94.4542 35.1882C94.4951 35.1743 94.531 35.1509 94.5596 35.1193C94.5882 35.0877 94.6091 35.0486 94.6211 35.0042C94.633 34.9598 94.6358 34.9109 94.6293 34.8604C94.6227 34.81 94.6069 34.7588 94.5829 34.7099C94.5438 34.6314 93.6139 32.79 91.5286 32.3959C91.4812 32.387 91.4351 32.3881 91.3928 32.3991C91.3505 32.41 91.3128 32.4306 91.282 32.4597C91.2196 32.5185 91.1888 32.6082 91.1963 32.7092C91.2038 32.8102 91.249 32.9141 91.3218 32.9982C91.3947 33.0822 91.4894 33.1395 91.585 33.1573ZM98.2011 45.8677C98.0233 45.8096 97.8273 45.903 97.8114 46.1054C97.81 46.1185 97.695 47.361 96.4303 47.4526C96.3476 47.4573 96.2771 47.4952 96.2315 47.5594C96.186 47.6235 96.1685 47.7096 96.1822 47.8019C96.196 47.8941 96.2401 47.9865 96.3065 48.0619C96.3729 48.1374 96.4572 48.191 96.5438 48.2129C96.5822 48.2231 96.6202 48.227 96.6566 48.2244C98.3718 48.1015 98.5265 46.4317 98.5323 46.3607C98.5363 46.3127 98.5308 46.2618 98.5163 46.211C98.5018 46.1603 98.4785 46.1106 98.4477 46.0648C98.417 46.019 98.3794 45.978 98.337 45.9442C98.2947 45.9104 98.2485 45.8844 98.2011 45.8677Z" fill="#EEEEEE"/>
<path d="M80.2886 37.4325C80.2744 37.4767 80.2697 37.5259 80.2747 37.5772C80.2797 37.6285 80.2944 37.6809 80.3179 37.7311C80.3414 37.7814 80.3732 37.8285 80.4114 37.8697C80.4496 37.9109 80.4934 37.9454 80.5402 37.971C80.5871 37.9966 80.636 38.0129 80.6841 38.0189C80.7321 38.0248 80.7783 38.0204 80.82 38.0057C80.8616 37.9911 80.8978 37.9666 80.9264 37.9336C80.955 37.9007 80.9754 37.8601 80.9864 37.8141C81.056 37.5734 81.2179 37.3943 81.4395 37.3128C81.6611 37.2314 81.926 37.2536 82.1809 37.3751C82.2274 37.3976 82.2753 37.411 82.322 37.4144C82.3687 37.4178 82.4132 37.4112 82.4529 37.3949C82.4927 37.3786 82.5269 37.3531 82.5537 37.3197C82.5805 37.2862 82.5993 37.2456 82.609 37.2001C82.6187 37.1546 82.6192 37.1051 82.6104 37.0544C82.6016 37.0037 82.5837 36.9529 82.5577 36.9048C82.5317 36.8567 82.4982 36.8122 82.459 36.774C82.4197 36.7357 82.3756 36.7045 82.3292 36.6819C82.0283 36.538 81.7164 36.4767 81.4268 36.5045C80.5836 34.7859 80.7478 33.3582 80.75 33.3431C80.7627 33.2481 80.7372 33.1417 80.679 33.0472C80.6208 32.9527 80.5348 32.8779 80.4398 32.8392C80.3451 32.8013 80.2494 32.8021 80.1733 32.8415C80.0973 32.8809 80.047 32.9558 80.0334 33.05C80.024 33.1201 79.8309 34.7295 80.802 36.7099C80.5549 36.8736 80.3767 37.1244 80.2886 37.4325ZM88.3719 37.7494C88.5163 37.6523 88.705 37.6285 88.9001 37.6829C89.0952 37.7372 89.2823 37.8657 89.424 38.0425C89.4928 38.1301 89.5854 38.1928 89.6812 38.2169C89.7771 38.2411 89.8685 38.2247 89.9352 38.1713C90.002 38.118 90.0388 38.0321 90.0375 37.9325C90.0361 37.8329 89.9967 37.7277 89.928 37.6401C89.7647 37.4354 89.5674 37.2633 89.3517 37.1376C89.5657 36.4344 89.4811 36.0741 89.2823 35.3882C89.2429 35.2539 89.2051 35.1195 89.1687 34.985L89.1471 34.9044C88.8839 33.9295 88.7096 33.2862 89.21 32.5781C89.2602 32.507 89.2759 32.4095 89.2537 32.3069C89.2315 32.2044 89.1731 32.1052 89.0914 32.0313C89.0097 31.9574 88.9114 31.9148 88.8181 31.9128C88.7248 31.9109 88.6441 31.9497 88.5939 32.0208C87.9229 32.9699 88.1695 33.8811 88.4551 34.936L88.4768 35.0167C88.5192 35.1728 88.5585 35.3123 88.5946 35.4353C88.7732 36.0528 88.8275 36.2583 88.6091 36.8884C88.3357 36.8657 88.0822 36.9288 87.8788 37.07C87.8112 37.1202 87.7721 37.2028 87.7699 37.3C87.7677 37.3971 87.8025 37.5013 87.867 37.59C87.9314 37.6788 88.0203 37.7452 88.1147 37.775C88.2091 37.8048 88.3014 37.7956 88.3719 37.7494ZM92.9743 36.7481C93.189 36.8063 93.4012 36.8143 93.5954 36.7715C93.6822 36.7525 93.7492 36.6942 93.7817 36.6095C93.8142 36.5247 93.8094 36.4205 93.7686 36.3197C93.7278 36.219 93.6541 36.1299 93.5639 36.0721C93.4736 36.0143 93.3742 35.9925 93.2874 36.0115C93.1097 36.0483 92.9077 36.0059 92.7221 35.8927C92.5364 35.7794 92.3808 35.6039 92.2867 35.4013C92.2652 35.3505 92.2352 35.3024 92.1984 35.2599C92.1617 35.2173 92.119 35.1811 92.0728 35.1534C92.0267 35.1258 91.978 35.1072 91.9297 35.0988C91.8815 35.0905 91.8346 35.0925 91.7919 35.1047C91.7491 35.117 91.7115 35.1392 91.681 35.1701C91.6506 35.2011 91.6281 35.24 91.6149 35.2847C91.6016 35.3294 91.5978 35.379 91.6038 35.4304C91.6098 35.4817 91.6254 35.534 91.6496 35.5839C91.7798 35.8703 91.9736 36.1206 92.1992 36.3188C91.8109 37.1917 92.0314 38.2883 92.2115 38.8867C92.2252 38.9387 92.2483 38.9898 92.2792 39.0369C92.3101 39.0841 92.3483 39.1263 92.3914 39.1611C92.4346 39.1959 92.4818 39.2225 92.5303 39.2394C92.5788 39.2562 92.6275 39.263 92.6736 39.2593C92.7197 39.2556 92.7622 39.2414 92.7985 39.2177C92.8348 39.194 92.8643 39.1611 92.8851 39.1212C92.9058 39.0813 92.9175 39.035 92.9195 38.9852C92.9214 38.9354 92.9135 38.8831 92.8962 38.8314C92.7747 38.4261 92.539 37.4212 92.8948 36.7155C92.9222 36.7244 92.9475 36.7409 92.9743 36.7481ZM96.4429 44.7359C96.4401 44.686 96.428 44.6346 96.4071 44.5848C96.3863 44.5349 96.3572 44.4876 96.3215 44.4455C96.2857 44.4034 96.2442 44.3674 96.1991 44.3396C96.154 44.3118 96.1064 44.2927 96.0589 44.2834C95.8856 44.2494 95.7115 44.1796 95.5468 44.078C95.3821 43.9764 95.23 43.8451 95.0992 43.6916C94.9684 43.5381 94.8615 43.3654 94.7846 43.1835C94.7077 43.0015 94.6623 42.8139 94.6511 42.6314C94.6428 42.5308 94.598 42.4276 94.5262 42.3434C94.4543 42.2593 94.361 42.2007 94.2657 42.18C94.2183 42.1706 94.172 42.1712 94.1295 42.1816C94.0869 42.1921 94.049 42.2122 94.0177 42.2409C93.9865 42.2696 93.9627 42.3063 93.9475 42.3488C93.9324 42.3914 93.9262 42.439 93.9295 42.4889C93.9591 42.9385 94.1218 43.3803 94.3691 43.7707C93.7878 44.3231 93.0264 44.3205 92.6019 44.2584C92.2266 44.2043 91.8984 44.0766 91.5187 43.9285C91.1709 43.7941 90.7776 43.6416 90.291 43.5261L90.2873 43.5259C90.2729 43.308 90.2237 42.9826 90.0668 42.6808C90.0129 42.5894 89.9327 42.5151 89.8426 42.4729C89.7524 42.4306 89.659 42.4236 89.5812 42.4533C89.5034 42.4829 89.4471 42.547 89.4235 42.6326C89.4 42.7182 89.411 42.8188 89.4544 42.9142C89.5513 43.1011 89.5693 43.3627 89.5693 43.4877C89.2049 43.5256 88.8896 43.6402 88.6047 43.7563C88.0957 43.9627 87.6944 44.1262 87.0906 43.8237C86.544 43.5477 85.9966 43.3748 85.5324 43.3178C85.4601 43.1106 85.3458 42.8554 85.1694 42.6352C85.0997 42.5483 85.0067 42.4866 84.9108 42.4638C84.8149 42.4409 84.7241 42.4586 84.6582 42.5132C84.5923 42.5677 84.5568 42.6545 84.5595 42.7545C84.5623 42.8544 84.6029 42.9594 84.6727 43.0463C84.7348 43.1236 84.784 43.2251 84.8238 43.3241C84.0262 43.4502 83.6264 43.9113 83.6076 43.9339C83.5692 43.9795 83.5464 44.0392 83.5418 44.1063C83.5371 44.1735 83.5507 44.2455 83.5811 44.3146C83.6115 44.3837 83.6575 44.4471 83.7141 44.4979C83.7707 44.5487 83.8356 44.585 83.9018 44.6027C83.959 44.6183 84.0154 44.6196 84.0665 44.6066C84.1175 44.5936 84.1617 44.5666 84.1954 44.5279C84.199 44.5229 84.596 44.079 85.3791 44.0665C85.784 44.0597 86.3647 44.225 86.9308 44.51C87.0892 44.5898 87.236 44.6419 87.3784 44.6823C87.4457 44.8635 87.4717 45.0644 87.4753 45.1372C87.4805 45.2341 87.5207 45.3347 87.5878 45.4183C87.6549 45.502 87.7438 45.5624 87.8361 45.5872L87.8556 45.5917C87.951 45.6121 88.0406 45.5919 88.1047 45.5357C88.1687 45.4795 88.2022 45.3919 88.1977 45.2918C88.1857 45.1143 88.1542 44.9335 88.1037 44.7531C88.437 44.7174 88.7269 44.5997 88.9995 44.4894C89.4131 44.321 89.8043 44.1616 90.3155 44.2813C90.7436 44.3803 91.0965 44.5175 91.437 44.6499C91.7798 44.783 92.1167 44.9002 92.4884 44.9773C92.5542 45.1843 92.5491 45.436 92.539 45.5179C92.5329 45.569 92.5376 45.6237 92.5528 45.6784C92.5681 45.7332 92.5935 45.7868 92.6275 45.8357C92.6614 45.8846 92.7031 45.9277 92.7498 45.9621C92.7965 45.9966 92.8471 46.0216 92.8984 46.0356C92.986 46.059 93.0706 46.0486 93.1365 46.0063C93.2023 45.964 93.2449 45.8928 93.2563 45.8059C93.2825 45.5674 93.2681 45.3152 93.2136 45.0601C93.8734 45.0557 94.4645 44.8301 94.9093 44.4133C95.2676 44.7388 95.6862 44.9591 96.1067 45.0433C96.2021 45.0621 96.2911 45.0404 96.3541 44.9827C96.4171 44.9251 96.4491 44.8364 96.4429 44.7359Z" fill="#EEEEEE"/>
</g>
<defs>
<linearGradient id="paint0_linear_4809_5371" x1="91.4826" y1="101.405" x2="122.455" y2="38.093" gradientUnits="userSpaceOnUse">
<stop stop-color="#F9F9F9" stop-opacity="0.8"/>
<stop offset="1" stop-color="#EEEEEE"/>
</linearGradient>
<linearGradient id="paint1_linear_4809_5371" x1="79.6465" y1="131.817" x2="108.993" y2="77.5438" gradientUnits="userSpaceOnUse">
<stop stop-color="#F9F9F9" stop-opacity="0.8"/>
<stop offset="1" stop-color="#A7A7A7" stop-opacity="0.6"/>
</linearGradient>
<clipPath id="clip0_4809_5371">
<rect width="26.9491" height="26.9491" fill="white" transform="matrix(0.965926 0.258819 0 1 74.9883 23.334)"/>
</clipPath>
</defs>
</svg>
