<svg width="226" height="159" viewBox="0 0 226 159" fill="none" xmlns="http://www.w3.org/2000/svg">
<path d="M202.174 70.0577C202.174 66.094 198.904 61.3319 195.595 60.4759L38.5338 19.843C36.2806 19.2601 34.7199 20.7258 34.7199 23.4249V97.6191C34.7199 101.583 37.9893 106.345 41.2983 107.201L198.36 147.834C200.613 148.417 202.174 146.951 202.174 144.252V70.0577Z" fill="url(#paint0_linear_4809_5313)" fill-opacity="0.6"/>
<path d="M190.186 73.2705C190.186 69.6372 187.189 65.2721 184.156 64.4873L27.0943 23.8545C25.0289 23.3202 23.598 24.6636 23.598 27.1377V101.332C23.5981 104.965 26.595 109.33 29.6281 110.115L186.69 150.748C188.755 151.282 190.186 149.939 190.186 147.465L190.186 73.2705Z" stroke="#4C4C4C"/>
<circle cx="2" cy="2" r="2" transform="matrix(0.965926 0.258819 0 1 156.971 68.0361)" fill="#389D2D"/>
<circle cx="2" cy="2" r="2" transform="matrix(0.965926 0.258819 0 1 163.732 69.8478)" fill="#389D2D"/>
<circle cx="2" cy="2" r="2" transform="matrix(0.965926 0.258819 0 1 170.494 71.6595)" fill="#389D2D"/>
<path d="M76.1504 22.5762C76.1504 21.4716 75.4219 20.3081 74.5233 19.9774L40.8645 7.59152C39.9659 7.26084 39.2374 7.8882 39.2374 8.99277L39.2374 70.5107C39.2374 71.6153 39.9659 72.7788 40.8645 73.1095L74.5233 85.4954C75.4219 85.8261 76.1504 85.1987 76.1504 84.0941V22.5762Z" fill="url(#paint1_linear_4809_5313)"/>
<path d="M57.987 31.217L54.6331 27.7351L51.2792 28.7495L54.6331 32.2313L57.987 31.217Z" fill="#878787"/>
<path fill-rule="evenodd" clip-rule="evenodd" d="M48.7302 27.8118L51.2792 30.458V32.4962L47.0106 30.926C46.3337 30.677 45.791 29.8104 45.791 28.9787V16.9889C45.791 16.5915 45.9195 16.2575 46.1482 16.0606C46.3769 15.8637 46.6872 15.8199 47.0106 15.9389L47.6204 16.1632V21.4087L49.1449 20.8455L50.6694 22.5303V17.2848L54.3282 18.6307C54.6516 18.7497 54.9619 19.0217 55.1906 19.3869C55.4193 19.7521 55.5478 20.1806 55.5478 20.5781V26.9776L54.6331 26.0266L48.7302 27.8118Z" fill="#389D2D"/>
<path d="M52.4988 30.7642V32.263L54.6331 34.4793L56.7674 33.8332V32.3345L54.6331 32.9806L52.4988 30.7642Z" fill="#878787"/>
<path d="M126.4 57.2363C126.4 56.1318 125.672 54.9683 124.773 54.6376L91.1145 42.2517C90.2159 41.921 89.4874 42.5484 89.4874 43.6529V105.171C89.4874 106.275 90.2159 107.439 91.1145 107.77L124.773 120.156C125.672 120.486 126.4 119.859 126.4 118.754V57.2363Z" fill="url(#paint2_linear_4809_5313)"/>
<g clip-path="url(#clip0_4809_5313)">
<path d="M106.693 62.04C106.694 62.1715 106.662 62.3341 106.628 62.4662C106.39 63.3961 105.335 64.2283 103.85 63.729C102.504 63.2767 101.408 62.3141 101.408 61.3762C101.408 60.4383 102.502 59.9707 103.85 60.332C105.199 60.6934 106.684 61.0998 106.693 62.04Z" fill="#878787"/>
<path d="M103.848 60.4897C103.123 60.2956 101.47 60.0602 101.091 59.9585C100.421 59.7789 99.877 60.0687 99.877 60.606C99.877 60.8644 100.005 61.1321 100.21 61.3612C100.21 61.3612 100.66 61.9491 101.471 61.9422C101.825 61.9391 102.403 61.3647 103.419 61.5211C103.925 61.5988 104.873 62.2581 106.539 62.7143C106.61 62.5741 106.625 62.4674 106.625 62.4674C106.625 61.5285 105.196 60.851 103.848 60.4897Z" fill="#EEEEEE"/>
<path d="M106.625 62.4671C106.625 62.4671 107.602 62.5238 108.21 61.8593C108.918 61.0843 108.825 60.0269 108.825 60.0269C109.542 58.8297 108.601 57.2745 108.601 57.2745C108.508 55.7826 107.632 54.9402 107.632 54.9402C107.063 53.3886 105.805 52.6753 105.805 52.6753C104.817 51.2143 103.065 50.7831 103.065 50.7831C103.065 50.7831 101.423 49.7202 99.1687 49.8166C98.796 49.8325 97.5468 49.7678 96.6333 50.102C93.7538 51.1554 93.5359 53.9428 93.5762 54.4163C93.7995 57.062 95.5519 57.9948 96.6704 58.5645C96.9312 59.3676 97.8913 60.976 99.6156 60.9364C101.741 61.12 102.636 60.7034 103.158 60.8433C103.68 60.9832 105.134 61.9518 106.625 62.4671Z" fill="#389D2D"/>
<path d="M101.253 56.8694C102.294 56.5672 102.859 56.7727 103.357 56.953C103.516 57.0102 103.665 57.062 103.817 57.1017C104.705 57.3187 105.424 57.1241 105.742 56.8346C105.778 56.7979 105.796 56.7432 105.791 56.6822C105.786 56.6211 105.759 56.5584 105.716 56.5072C105.672 56.456 105.616 56.4202 105.558 56.4073C105.5 56.3945 105.445 56.4056 105.405 56.4383C105.16 56.6617 104.556 56.8188 103.807 56.6358C103.673 56.604 103.538 56.554 103.398 56.5031C102.864 56.3085 102.2 56.0676 101.04 56.4048C100.743 56.4914 100.335 56.4437 99.8926 56.3716C98.9096 54.6394 99.5011 53.5186 99.6702 53.2592C99.6868 53.2645 99.7029 53.2744 99.7199 53.279C99.8988 53.3269 100.079 53.3297 100.242 53.2779C100.291 53.26 100.327 53.2196 100.342 53.1653C100.356 53.111 100.349 53.0471 100.32 52.9871C100.291 52.9271 100.244 52.8757 100.188 52.8438C100.133 52.8118 100.073 52.8019 100.021 52.816C99.8807 52.8585 99.7159 52.8366 99.5599 52.7547C99.404 52.6729 99.2684 52.537 99.1803 52.3743C99.147 52.3168 99.097 52.27 99.0405 52.2435C98.9841 52.217 98.9256 52.2129 98.8771 52.2321C98.8287 52.2512 98.7941 52.2921 98.7805 52.3463C98.7669 52.4005 98.7753 52.4639 98.804 52.5231C98.9101 52.7234 99.0595 52.8927 99.2282 53.0245C98.9951 53.4521 98.5526 54.6221 99.3946 56.2886C98.8023 56.1901 98.209 56.1178 97.7446 56.3032C97.4183 56.4373 97.1336 56.6421 96.9044 56.9076C96.623 56.7822 95.5926 56.2435 95.4128 55.0114C95.5246 54.9515 95.615 54.8572 95.6709 54.7258C95.6817 54.7004 95.6871 54.6716 95.6866 54.6411C95.6861 54.6105 95.6799 54.5788 95.6682 54.5478C95.6565 54.5168 95.6397 54.487 95.6186 54.4602C95.5975 54.4333 95.5725 54.41 95.5452 54.3915C95.5179 54.373 95.4887 54.3597 95.4593 54.3523C95.43 54.3449 95.401 54.3436 95.374 54.3484C95.347 54.3533 95.3226 54.3642 95.3022 54.3806C95.2818 54.397 95.2657 54.4185 95.2549 54.4438C95.238 54.488 95.2111 54.5252 95.176 54.5526C95.1409 54.5801 95.0985 54.5973 95.0517 54.6029C95.0043 54.6065 94.9541 54.5985 94.9045 54.5796C94.8549 54.5607 94.807 54.5313 94.7641 54.4934C94.7384 54.4718 94.7102 54.4548 94.681 54.4435C94.6518 54.4322 94.6222 54.4268 94.594 54.4276C94.5369 54.4291 94.4887 54.4558 94.4598 54.5018C94.431 54.5477 94.4239 54.6092 94.4402 54.6726C94.4565 54.736 94.4948 54.7963 94.5466 54.84C94.6737 54.9472 94.8097 55.0207 94.9448 55.0569C94.9614 55.0614 94.977 55.0577 94.9936 55.0612C95.2065 56.2359 96.0597 56.9555 96.6633 57.2659C96.5843 57.4189 96.5343 57.5921 96.5152 57.7783C96.51 57.8381 96.5284 57.9038 96.5665 57.9611C96.6046 58.0184 96.6592 58.0625 96.7183 58.0838L96.7384 58.0901C96.7943 58.1051 96.8482 58.0978 96.8895 58.0698C96.9307 58.0417 96.9563 57.9949 96.9612 57.9386C97.0095 57.3897 97.5272 56.9416 97.9871 56.7568C98.4184 56.5847 99.0497 56.6932 99.6608 56.7981C100.254 56.9009 100.814 56.9973 101.253 56.8694ZM107.009 57.7151C106.98 57.7614 106.974 57.8231 106.99 57.8865C107.007 57.95 107.046 58.01 107.098 58.0535C107.15 58.0969 107.211 58.1202 107.268 58.1182C107.325 58.1162 107.373 58.089 107.402 58.0427C107.41 58.0292 108.226 56.666 106.699 55.1939C106.65 55.1464 106.589 55.1176 106.531 55.1138C106.473 55.11 106.421 55.1316 106.388 55.1737C106.355 55.2158 106.343 55.275 106.354 55.3384C106.366 55.4017 106.4 55.464 106.449 55.5114C107.632 56.6519 107.035 57.6721 107.009 57.7151ZM97.7357 51.4907C97.7712 51.5002 97.8061 51.5008 97.8377 51.4926C97.8693 51.4843 97.8966 51.4673 97.9173 51.443C98.566 50.6826 99.4644 51.2429 99.5024 51.2679C99.5575 51.3015 99.6175 51.3135 99.6698 51.3014C99.7221 51.2893 99.7625 51.254 99.7825 51.203C99.8025 51.152 99.8006 51.0892 99.7772 51.028C99.7537 50.9668 99.7105 50.9119 99.6568 50.8748C99.2273 50.5949 98.2354 50.2772 97.554 51.0756C97.5301 51.1038 97.5159 51.1408 97.5128 51.1824C97.5098 51.224 97.5182 51.2687 97.5369 51.3116C97.5557 51.3545 97.5842 51.3939 97.6192 51.4255C97.6543 51.4571 97.6946 51.4796 97.7357 51.4907ZM103.584 52.1833C104.579 52.3662 105.032 53.2346 105.053 53.2753C105.083 53.3364 105.132 53.388 105.19 53.4189C105.218 53.4342 105.248 53.4439 105.277 53.4475C105.306 53.4511 105.334 53.4485 105.359 53.4399C105.385 53.4312 105.407 53.4167 105.425 53.3972C105.442 53.3777 105.455 53.3535 105.463 53.326C105.47 53.2985 105.472 53.2683 105.468 53.237C105.464 53.2058 105.454 53.1742 105.439 53.1439C105.415 53.0953 104.839 51.956 103.549 51.7121C103.52 51.7067 103.491 51.7073 103.465 51.7141C103.439 51.7209 103.416 51.7336 103.397 51.7516C103.358 51.788 103.339 51.8435 103.344 51.906C103.348 51.9685 103.376 52.0328 103.421 52.0848C103.466 52.1368 103.525 52.1722 103.584 52.1833ZM107.678 60.0477C107.568 60.0117 107.446 60.0695 107.437 60.1947C107.436 60.2028 107.365 60.9716 106.582 61.0283C106.531 61.0312 106.487 61.0547 106.459 61.0944C106.431 61.134 106.42 61.1873 106.429 61.2444C106.437 61.3015 106.464 61.3586 106.505 61.4053C106.547 61.452 106.599 61.4852 106.652 61.4987C106.676 61.5051 106.7 61.5075 106.722 61.5058C107.783 61.4298 107.879 60.3967 107.883 60.3527C107.885 60.323 107.882 60.2915 107.873 60.2601C107.864 60.2287 107.849 60.1979 107.83 60.1696C107.811 60.1413 107.788 60.1159 107.762 60.095C107.736 60.0741 107.707 60.058 107.678 60.0477Z" fill="#EEEEEE"/>
<path d="M96.5952 54.8288C96.5864 54.8562 96.5834 54.8866 96.5865 54.9184C96.5897 54.9501 96.5987 54.9825 96.6133 55.0136C96.6278 55.0447 96.6475 55.0739 96.6711 55.0994C96.6947 55.1249 96.7219 55.1462 96.7508 55.162C96.7798 55.1779 96.8101 55.1879 96.8398 55.1916C96.8696 55.1953 96.8982 55.1926 96.9239 55.1835C96.9497 55.1744 96.9721 55.1593 96.9898 55.1389C97.0075 55.1185 97.0201 55.0934 97.0269 55.0649C97.07 54.916 97.1701 54.8052 97.3073 54.7548C97.4444 54.7044 97.6083 54.7182 97.766 54.7933C97.7948 54.8072 97.8244 54.8155 97.8533 54.8176C97.8822 54.8197 97.9097 54.8156 97.9343 54.8056C97.9589 54.7955 97.9801 54.7797 97.9966 54.759C98.0132 54.7383 98.0248 54.7132 98.0309 54.685C98.0369 54.6569 98.0372 54.6262 98.0317 54.5949C98.0263 54.5635 98.0152 54.5321 97.9991 54.5023C97.9831 54.4725 97.9623 54.445 97.938 54.4214C97.9138 54.3977 97.8865 54.3784 97.8577 54.3644C97.6715 54.2753 97.4786 54.2374 97.2994 54.2547C96.7777 53.1913 96.8793 52.3079 96.8806 52.2985C96.8885 52.2398 96.8727 52.1739 96.8367 52.1155C96.8007 52.057 96.7475 52.0107 96.6887 51.9868C96.6301 51.9633 96.5709 51.9638 96.5238 51.9882C96.4768 52.0126 96.4457 52.0589 96.4372 52.1172C96.4314 52.1606 96.312 53.1564 96.9128 54.3817C96.7599 54.483 96.6497 54.6382 96.5952 54.8288ZM101.597 55.0249C101.686 54.9648 101.803 54.9501 101.923 54.9837C102.044 55.0174 102.16 55.0969 102.248 55.2063C102.29 55.2604 102.347 55.2993 102.407 55.3142C102.466 55.3291 102.523 55.319 102.564 55.2859C102.605 55.253 102.628 55.1998 102.627 55.1382C102.626 55.0766 102.602 55.0115 102.559 54.9573C102.458 54.8306 102.336 54.7241 102.203 54.6463C102.335 54.2112 102.283 53.9883 102.16 53.564C102.136 53.4809 102.112 53.3977 102.09 53.3145L102.076 53.2646C101.913 52.6614 101.806 52.2634 102.115 51.8252C102.146 51.7812 102.156 51.7209 102.142 51.6574C102.128 51.594 102.092 51.5326 102.042 51.4869C101.991 51.4412 101.93 51.4148 101.873 51.4136C101.815 51.4124 101.765 51.4364 101.734 51.4804C101.319 52.0676 101.471 52.6314 101.648 53.2842L101.661 53.3341C101.688 53.4307 101.712 53.517 101.734 53.5931C101.845 53.9752 101.878 54.1023 101.743 54.4922C101.574 54.4782 101.417 54.5172 101.291 54.6046C101.25 54.6356 101.225 54.6867 101.224 54.7468C101.223 54.8069 101.244 54.8714 101.284 54.9263C101.324 54.9812 101.379 55.0223 101.437 55.0407C101.496 55.0592 101.553 55.0535 101.597 55.0249ZM104.444 54.4053C104.577 54.4414 104.708 54.4463 104.829 54.4199C104.882 54.4081 104.924 54.372 104.944 54.3196C104.964 54.2672 104.961 54.2027 104.936 54.1403C104.91 54.078 104.865 54.0228 104.809 53.9871C104.753 53.9513 104.692 53.9378 104.638 53.9496C104.528 53.9724 104.403 53.9461 104.288 53.8761C104.173 53.806 104.077 53.6974 104.019 53.572C104.006 53.5406 103.987 53.5109 103.964 53.4845C103.941 53.4582 103.915 53.4358 103.886 53.4187C103.858 53.4016 103.828 53.3901 103.798 53.3849C103.768 53.3797 103.739 53.3809 103.713 53.3885C103.686 53.3961 103.663 53.4099 103.644 53.429C103.625 53.4481 103.611 53.4723 103.603 53.4999C103.595 53.5276 103.593 53.5582 103.596 53.59C103.6 53.6218 103.61 53.6541 103.625 53.685C103.705 53.8622 103.825 54.0171 103.965 54.1397C103.724 54.6798 103.861 55.3583 103.972 55.7286C103.981 55.7608 103.995 55.7924 104.014 55.8215C104.033 55.8507 104.057 55.8768 104.084 55.8984C104.11 55.9199 104.14 55.9364 104.17 55.9468C104.2 55.9572 104.23 55.9614 104.258 55.9591C104.287 55.9568 104.313 55.9481 104.336 55.9334C104.358 55.9187 104.376 55.8984 104.389 55.8737C104.402 55.849 104.409 55.8204 104.41 55.7895C104.412 55.7587 104.407 55.7264 104.396 55.6944C104.321 55.4436 104.175 54.8218 104.395 54.3852C104.412 54.3907 104.428 54.4009 104.444 54.4053ZM106.59 59.3477C106.589 59.3168 106.581 59.2851 106.568 59.2542C106.555 59.2234 106.537 59.1941 106.515 59.168C106.493 59.142 106.467 59.1197 106.44 59.1025C106.412 59.0853 106.382 59.0735 106.353 59.0678C106.246 59.0467 106.138 59.0035 106.036 58.9407C105.934 58.8778 105.84 58.7966 105.759 58.7016C105.678 58.6066 105.612 58.4998 105.564 58.3872C105.517 58.2746 105.489 58.1585 105.482 58.0456C105.477 57.9833 105.449 57.9195 105.404 57.8674C105.36 57.8153 105.302 57.7791 105.243 57.7663C105.214 57.7605 105.185 57.7608 105.159 57.7673C105.133 57.7738 105.109 57.7862 105.09 57.804C105.071 57.8217 105.056 57.8444 105.046 57.8707C105.037 57.8971 105.033 57.9265 105.035 57.9574C105.054 58.2356 105.154 58.509 105.307 58.7505C104.948 59.0923 104.476 59.0907 104.214 59.0523C103.982 59.0188 103.779 58.9398 103.544 58.8481C103.328 58.765 103.085 58.6706 102.784 58.5992L102.782 58.5991C102.773 58.4642 102.742 58.2629 102.645 58.0762C102.612 58.0196 102.562 57.9736 102.507 57.9475C102.451 57.9214 102.393 57.917 102.345 57.9354C102.297 57.9537 102.262 57.9934 102.247 58.0463C102.233 58.0993 102.24 58.1615 102.266 58.2206C102.326 58.3362 102.337 58.4981 102.337 58.5754C102.112 58.5989 101.917 58.6698 101.741 58.7416C101.426 58.8693 101.177 58.9705 100.804 58.7833C100.466 58.6125 100.127 58.5056 99.8397 58.4703C99.7949 58.3421 99.7243 58.1842 99.6151 58.0479C99.572 57.9942 99.5144 57.956 99.4551 57.9419C99.3958 57.9277 99.3395 57.9387 99.2988 57.9724C99.258 58.0062 99.2361 58.0599 99.2377 58.1217C99.2394 58.1836 99.2646 58.2485 99.3077 58.3023C99.3462 58.3501 99.3766 58.4129 99.4012 58.4742C98.9078 58.5522 98.6603 58.8375 98.6487 58.8515C98.625 58.8797 98.6109 58.9166 98.608 58.9582C98.6051 58.9997 98.6135 59.0443 98.6324 59.0871C98.6512 59.1298 98.6796 59.169 98.7146 59.2005C98.7496 59.2319 98.7898 59.2543 98.8308 59.2653C98.8662 59.2749 98.9011 59.2758 98.9327 59.2677C98.9642 59.2597 98.9916 59.243 99.0124 59.219C99.0147 59.2159 99.2603 58.9413 99.7448 58.9335C99.9954 58.9293 100.355 59.0316 100.705 59.2079C100.803 59.2574 100.894 59.2896 100.982 59.3146C101.023 59.4267 101.04 59.551 101.042 59.596C101.045 59.656 101.07 59.7182 101.111 59.77C101.153 59.8217 101.208 59.8591 101.265 59.8745L101.277 59.8772C101.336 59.8898 101.392 59.8774 101.431 59.8426C101.471 59.8078 101.492 59.7536 101.489 59.6917C101.481 59.5818 101.462 59.47 101.431 59.3584C101.637 59.3363 101.816 59.2635 101.985 59.1952C102.241 59.091 102.483 58.9924 102.799 59.0665C103.064 59.1277 103.282 59.2126 103.493 59.2945C103.705 59.3768 103.914 59.4494 104.144 59.4971C104.184 59.6252 104.181 59.7809 104.175 59.8316C104.171 59.8632 104.174 59.897 104.184 59.9309C104.193 59.9648 104.209 59.998 104.23 60.0282C104.251 60.0585 104.276 60.0851 104.305 60.1064C104.334 60.1278 104.366 60.1433 104.397 60.1519C104.452 60.1664 104.504 60.1599 104.545 60.1338C104.585 60.1076 104.612 60.0636 104.619 60.0098C104.635 59.8622 104.626 59.7062 104.592 59.5483C105.001 59.5456 105.366 59.406 105.642 59.1481C105.863 59.3495 106.122 59.4858 106.382 59.5379C106.441 59.5496 106.496 59.5361 106.535 59.5005C106.574 59.4648 106.594 59.4099 106.59 59.3477Z" fill="#EEEEEE"/>
</g>
<path d="M187.611 25.1367C187.611 24.0322 186.866 22.9028 185.946 22.6141L145.999 10.0759C145.08 9.7873 144.334 10.4488 144.334 11.5533V82.6438C144.334 83.7483 145.08 84.8777 145.999 85.1663L185.946 97.7046C186.866 97.9932 187.611 97.3317 187.611 96.2271V25.1367Z" fill="url(#paint3_linear_4809_5313)"/>
<path fill-rule="evenodd" clip-rule="evenodd" d="M160.725 22.5167C160.725 22.2491 160.515 21.9758 160.257 21.9065L151.634 19.5962C151.376 19.5269 151.166 19.6879 151.166 19.9554V33.1234C151.166 33.3909 151.376 33.6642 151.634 33.7335L156.083 34.9255C156.495 35.036 156.73 34.5613 156.525 34.1353C156.156 33.3665 155.945 32.5345 155.945 31.7076C155.945 31.3048 155.995 30.9275 156.089 30.581C156.163 30.308 155.964 29.9453 155.672 29.867C155.446 29.8065 155.263 29.5679 155.263 29.3343V28.8287C155.263 28.5607 155.472 28.4002 155.731 28.4695L156.47 28.6675C156.557 28.6909 156.628 28.7831 156.628 28.8738C156.628 29.0381 156.848 29.1672 156.948 29.0672C157.762 28.2562 158.999 27.9312 160.383 28.3023C160.568 28.3517 160.725 28.2444 160.725 28.0535V22.5167ZM158.959 25.8001C159.218 25.8694 159.428 26.1427 159.428 26.4103V26.8547C159.428 27.1223 159.218 27.2833 158.959 27.214L153.068 25.6354C152.809 25.5661 152.6 25.2928 152.6 25.0252V24.5808C152.6 24.3132 152.809 24.1522 153.068 24.2215L158.959 25.8001ZM158.891 22.9545C159.15 23.0238 159.359 23.2966 159.359 23.5647V24.0087C159.359 24.2767 159.15 24.4372 158.891 24.3679L153 22.7893C152.741 22.72 152.532 22.4472 152.532 22.1792V21.7352C152.532 21.4672 152.741 21.3067 153 21.3759L158.891 22.9545Z" fill="#389D2D"/>
<path fill-rule="evenodd" clip-rule="evenodd" d="M163.493 32.2638C163.58 32.4844 163.495 32.6883 163.314 32.7483C163.14 32.8055 163.059 32.9963 163.088 33.2096C163.108 33.3509 163.117 33.4912 163.117 33.6293C163.117 33.7674 163.108 33.9025 163.088 34.0336C163.059 34.2313 163.14 34.4651 163.314 34.6154C163.495 34.7726 163.58 35.0223 163.493 35.1963C163.457 35.2685 163.418 35.3385 163.376 35.4058L163.312 35.5031C163.266 35.5697 163.217 35.6342 163.165 35.6949C163.044 35.8388 162.811 35.8133 162.63 35.6567C162.456 35.5059 162.239 35.482 162.081 35.5687C161.874 35.6833 161.643 35.7609 161.393 35.7963C161.206 35.8229 161.069 35.9639 161.069 36.1719C161.069 36.3885 160.922 36.5386 160.713 36.5036C160.605 36.4852 160.495 36.4612 160.386 36.4319C160.276 36.4024 160.167 36.3678 160.059 36.3283C159.851 36.2516 159.703 36.0226 159.703 35.806C159.703 35.598 159.566 35.3833 159.379 35.2567C159.13 35.0876 158.898 34.8859 158.691 34.6603C158.533 34.4892 158.316 34.3964 158.142 34.4536C157.961 34.5136 157.728 34.4145 157.607 34.2055C157.554 34.1158 157.505 34.0245 157.459 33.9321L157.398 33.8062C157.355 33.7153 157.315 33.6233 157.279 33.5311C157.192 33.3106 157.277 33.1066 157.459 33.0466C157.633 32.9895 157.713 32.7987 157.684 32.5854C157.665 32.444 157.655 32.3038 157.655 32.1657C157.655 32.028 157.665 31.8929 157.684 31.7619C157.713 31.5637 157.633 31.3303 157.459 31.1795C157.277 31.0229 157.192 30.7726 157.279 30.5987C157.315 30.526 157.355 30.4552 157.398 30.3872L157.458 30.2944C157.505 30.2269 157.554 30.1621 157.607 30.1C157.728 29.9567 157.961 29.9821 158.142 30.1387C158.316 30.2891 158.533 30.3134 158.691 30.2262C158.898 30.1121 159.13 30.0345 159.379 29.9987C159.566 29.9721 159.703 29.831 159.703 29.6231C159.703 29.4069 159.851 29.2564 160.059 29.2918C160.168 29.3098 160.277 29.3337 160.386 29.363C160.497 29.3926 160.606 29.4277 160.713 29.4672C160.922 29.5433 161.069 29.7728 161.069 29.989C161.069 30.1969 161.206 30.4116 161.393 30.5382C161.643 30.7079 161.874 30.909 162.081 31.1347C162.239 31.3062 162.456 31.3985 162.63 31.3414C162.811 31.2813 163.044 31.3804 163.165 31.5895C163.217 31.6785 163.266 31.7687 163.312 31.86L163.376 31.9915C163.418 32.0818 163.457 32.1722 163.493 32.2638ZM160.386 33.958C160.952 34.1096 161.41 33.7574 161.41 33.1719C161.41 32.5864 160.952 31.989 160.386 31.8374C159.821 31.6859 159.362 32.0375 159.362 32.6231C159.362 33.2086 159.821 33.8065 160.386 33.958Z" fill="#878787"/>
<defs>
<linearGradient id="paint0_linear_4809_5313" x1="60.2285" y1="119.458" x2="98.453" y2="58.2538" gradientUnits="userSpaceOnUse">
<stop stop-color="#F9F9F9" stop-opacity="0.8"/>
<stop offset="1" stop-color="#A7A7A7" stop-opacity="0.6"/>
</linearGradient>
<linearGradient id="paint1_linear_4809_5313" x1="51.7862" y1="56.5669" x2="67.6397" y2="18.658" gradientUnits="userSpaceOnUse">
<stop stop-color="#F9F9F9" stop-opacity="0.8"/>
<stop offset="1" stop-color="#EEEEEE"/>
</linearGradient>
<linearGradient id="paint2_linear_4809_5313" x1="102.036" y1="91.2271" x2="117.89" y2="53.3181" gradientUnits="userSpaceOnUse">
<stop stop-color="#F9F9F9" stop-opacity="0.8"/>
<stop offset="1" stop-color="#EEEEEE"/>
</linearGradient>
<linearGradient id="paint3_linear_4809_5313" x1="159.047" y1="65.6958" x2="175.418" y2="20.5916" gradientUnits="userSpaceOnUse">
<stop stop-color="#F9F9F9" stop-opacity="0.8"/>
<stop offset="1" stop-color="#EEEEEE"/>
</linearGradient>
<clipPath id="clip0_4809_5313">
<rect width="16.6744" height="16.6744" fill="white" transform="matrix(0.965926 0.258819 0 1 93.3145 46.1055)"/>
</clipPath>
</defs>
</svg>
