<svg width="226" height="159" fill="none" xmlns="http://www.w3.org/2000/svg"><path d="M202.174 70.058c0-3.964-3.27-8.726-6.579-9.582L38.534 19.843c-2.253-.583-3.814.883-3.814 3.582v74.194c0 3.964 3.27 8.726 6.578 9.582l157.062 40.633c2.253.583 3.814-.883 3.814-3.582V70.058z" fill="url(#a)" fill-opacity=".6"/><path d="M190.186 73.27c0-3.633-2.997-7.998-6.03-8.783L27.094 23.855c-2.065-.535-3.496.809-3.496 3.283v74.194c0 3.633 2.997 7.998 6.03 8.783l157.062 40.633c2.065.534 3.496-.809 3.496-3.283V73.27z" stroke="#4C4C4C"/><circle cx="2" cy="2" r="2" transform="matrix(.96593 .25882 0 1 156.971 68.036)" fill="#389D2D"/><circle cx="2" cy="2" r="2" transform="matrix(.96593 .25882 0 1 163.732 69.848)" fill="#389D2D"/><circle cx="2" cy="2" r="2" transform="matrix(.96593 .25882 0 1 170.494 71.66)" fill="#389D2D"/><path d="M76.15 22.576c0-1.104-.728-2.268-1.627-2.599L40.865 7.592c-.9-.331-1.628.296-1.628 1.4v61.519c0 1.104.729 2.268 1.627 2.599l33.66 12.385c.898.331 1.626-.296 1.626-1.4V22.575z" fill="url(#b)"/><path d="m57.987 31.217-3.354-3.482-3.354 1.015 3.354 3.481 3.354-1.014z" fill="#878787"/><path fill-rule="evenodd" clip-rule="evenodd" d="m48.73 27.812 2.55 2.646v2.038l-4.27-1.57c-.676-.249-1.219-1.116-1.219-1.947v-11.99c0-.398.129-.732.357-.928.229-.197.54-.241.863-.122l.61.224v5.246l1.524-.563 1.524 1.684v-5.245l3.66 1.346c.323.119.633.39.862.756a2.3 2.3 0 0 1 .357 1.191v6.4l-.915-.951-5.903 1.785z" fill="#389D2D"/><path d="M52.499 30.764v1.499l2.134 2.216 2.134-.646v-1.498l-2.134.646-2.134-2.217z" fill="#878787"/><path d="M126.4 57.236c0-1.104-.728-2.268-1.627-2.598L91.115 42.252c-.9-.331-1.628.296-1.628 1.4v61.519c0 1.104.729 2.268 1.628 2.599l33.658 12.386c.899.33 1.627-.297 1.627-1.402V57.236z" fill="url(#c)"/><g clip-path="url(#d)"><path d="M106.693 62.04c.001.132-.031.294-.065.426-.238.93-1.293 1.762-2.778 1.263-1.346-.452-2.442-1.415-2.442-2.353 0-.938 1.094-1.405 2.442-1.044 1.349.361 2.834.768 2.843 1.708z" fill="#878787"/><path d="M103.848 60.49c-.725-.194-2.378-.43-2.757-.532-.67-.18-1.214.11-1.214.648 0 .258.128.526.333.755 0 0 .45.588 1.261.581.354-.003.932-.577 1.948-.42.506.077 1.454.736 3.12 1.192a.877.877 0 0 0 .086-.247c0-.938-1.429-1.616-2.777-1.977z" fill="#EEE"/><path d="M106.625 62.467s.977.057 1.585-.608c.708-.775.615-1.832.615-1.832.717-1.197-.224-2.752-.224-2.752-.093-1.492-.969-2.335-.969-2.335-.569-1.551-1.827-2.265-1.827-2.265-.988-1.46-2.74-1.892-2.74-1.892s-1.642-1.063-3.896-.966c-.373.016-1.622-.05-2.536.285-2.88 1.053-3.097 3.84-3.057 4.314.224 2.646 1.976 3.579 3.094 4.149.261.803 1.221 2.411 2.946 2.371 2.125.184 3.02-.233 3.542-.093.522.14 1.976 1.109 3.467 1.624z" fill="#389D2D"/><path d="M101.253 56.87c1.041-.303 1.606-.097 2.104.083.159.057.308.109.46.149.888.217 1.607.022 1.925-.267a.192.192 0 0 0 .049-.153.318.318 0 0 0-.233-.275.177.177 0 0 0-.153.031c-.245.224-.849.38-1.598.198-.134-.032-.269-.082-.409-.133-.534-.194-1.198-.435-2.358-.098-.297.086-.705.039-1.147-.033-.983-1.733-.392-2.853-.223-3.113.017.005.033.015.05.02a.93.93 0 0 0 .522-.001.162.162 0 0 0 .1-.113.263.263 0 0 0-.022-.178.333.333 0 0 0-.132-.143.22.22 0 0 0-.167-.028.616.616 0 0 1-.461-.061.935.935 0 0 1-.38-.38.325.325 0 0 0-.14-.132.207.207 0 0 0-.163-.01.16.16 0 0 0-.096.113.264.264 0 0 0 .023.177c.106.2.255.37.424.502-.233.427-.675 1.597.167 3.264-.593-.099-1.186-.171-1.65.014a2.216 2.216 0 0 0-.84.605c-.282-.126-1.312-.665-1.492-1.897a.569.569 0 0 0 .258-.285.208.208 0 0 0 .016-.085.278.278 0 0 0-.019-.093.331.331 0 0 0-.123-.157.273.273 0 0 0-.086-.039.203.203 0 0 0-.085-.004.159.159 0 0 0-.12.096.247.247 0 0 1-.203.16.342.342 0 0 1-.147-.024.463.463 0 0 1-.14-.087.296.296 0 0 0-.083-.05.224.224 0 0 0-.087-.015.159.159 0 0 0-.134.074.219.219 0 0 0-.02.17.331.331 0 0 0 .107.168c.127.107.263.18.398.217.016.004.032 0 .049.004.213 1.175 1.066 1.895 1.67 2.205a1.432 1.432 0 0 0-.149.512.291.291 0 0 0 .052.183.316.316 0 0 0 .151.123l.02.006c.056.015.11.008.151-.02a.173.173 0 0 0 .072-.131c.049-.55.566-.997 1.026-1.182.431-.172 1.063-.064 1.674.041.593.103 1.153.2 1.592.071zm5.756.845a.22.22 0 0 0-.019.171.335.335 0 0 0 .108.167.257.257 0 0 0 .17.065.16.16 0 0 0 .134-.075c.008-.014.824-1.377-.703-2.85a.274.274 0 0 0-.168-.08.164.164 0 0 0-.143.06.207.207 0 0 0-.034.165.331.331 0 0 0 .095.173c1.183 1.14.586 2.161.56 2.204zm-9.273-6.224a.2.2 0 0 0 .102.002.155.155 0 0 0 .08-.05c.648-.76 1.546-.2 1.584-.175a.227.227 0 0 0 .168.033.157.157 0 0 0 .112-.098.245.245 0 0 0-.005-.175.335.335 0 0 0-.12-.153c-.43-.28-1.422-.598-2.103.2a.185.185 0 0 0-.041.107.277.277 0 0 0 .024.13.337.337 0 0 0 .082.114.29.29 0 0 0 .117.065zm5.848.692c.995.183 1.448 1.052 1.469 1.092.03.061.079.113.137.144a.247.247 0 0 0 .087.029.183.183 0 0 0 .082-.008.156.156 0 0 0 .104-.114.239.239 0 0 0 .005-.089.296.296 0 0 0-.029-.093c-.024-.049-.6-1.188-1.89-1.432a.194.194 0 0 0-.084.002.155.155 0 0 0-.068.038.186.186 0 0 0-.053.154.31.31 0 0 0 .077.179.294.294 0 0 0 .163.098zm4.094 7.865c-.11-.036-.232.021-.241.147-.001.008-.072.777-.855.833a.158.158 0 0 0-.123.066.203.203 0 0 0-.03.15.314.314 0 0 0 .223.255.211.211 0 0 0 .07.007c1.061-.076 1.157-1.11 1.161-1.153a.27.27 0 0 0-.01-.093.325.325 0 0 0-.111-.165.291.291 0 0 0-.084-.047z" fill="#EEE"/><path d="M96.595 54.829a.222.222 0 0 0-.008.09.336.336 0 0 0 .164.244.25.25 0 0 0 .089.029c.03.003.058 0 .084-.008a.154.154 0 0 0 .066-.045.173.173 0 0 0 .037-.074.454.454 0 0 1 .28-.31.594.594 0 0 1 .459.038.242.242 0 0 0 .087.025.18.18 0 0 0 .081-.012.154.154 0 0 0 .063-.047.177.177 0 0 0 .034-.074.237.237 0 0 0 0-.09.333.333 0 0 0-.174-.23 1.065 1.065 0 0 0-.558-.11c-.521-1.064-.42-1.947-.418-1.957a.284.284 0 0 0-.044-.183.32.32 0 0 0-.148-.128.197.197 0 0 0-.165.001.168.168 0 0 0-.087.13c-.006.043-.125 1.038.476 2.264a.784.784 0 0 0-.318.447zm5.002.196a.39.39 0 0 1 .326-.041.652.652 0 0 1 .325.222.297.297 0 0 0 .159.108.177.177 0 0 0 .157-.028.181.181 0 0 0 .063-.148.305.305 0 0 0-.068-.18 1.298 1.298 0 0 0-.356-.312c.132-.435.08-.658-.043-1.082a11.463 11.463 0 0 1-.07-.25l-.014-.05c-.163-.603-.27-1 .039-1.439a.211.211 0 0 0 .027-.168.333.333 0 0 0-.1-.17.27.27 0 0 0-.169-.073.161.161 0 0 0-.139.066c-.415.588-.263 1.151-.086 1.804l.013.05.073.26c.111.381.144.508.009.898a.685.685 0 0 0-.452.113.178.178 0 0 0-.067.142c-.001.06.02.124.06.18.04.054.095.095.153.114a.187.187 0 0 0 .16-.016zm2.847-.62a.81.81 0 0 0 .385.015.158.158 0 0 0 .115-.1.249.249 0 0 0-.008-.18.337.337 0 0 0-.127-.153.23.23 0 0 0-.171-.037.49.49 0 0 1-.35-.074.707.707 0 0 1-.269-.304.322.322 0 0 0-.221-.187.188.188 0 0 0-.085.004.155.155 0 0 0-.069.04.165.165 0 0 0-.041.07.243.243 0 0 0-.007.091.307.307 0 0 0 .029.095c.08.177.2.332.34.455-.241.54-.104 1.218.007 1.589a.335.335 0 0 0 .112.17.281.281 0 0 0 .086.048c.03.01.06.014.088.012a.167.167 0 0 0 .078-.026.161.161 0 0 0 .053-.06.193.193 0 0 0 .021-.084.245.245 0 0 0-.014-.095c-.075-.25-.221-.872-.001-1.309.017.006.033.016.049.02zm2.146 4.943a.265.265 0 0 0-.022-.094.339.339 0 0 0-.128-.151.266.266 0 0 0-.087-.035.966.966 0 0 1-.317-.127 1.23 1.23 0 0 1-.472-.553 1.063 1.063 0 0 1-.082-.342.317.317 0 0 0-.078-.179.3.3 0 0 0-.161-.1.193.193 0 0 0-.084 0 .156.156 0 0 0-.069.037.176.176 0 0 0-.044.067.224.224 0 0 0-.011.086c.019.279.119.552.272.794-.359.341-.831.34-1.093.301-.232-.033-.435-.112-.67-.204-.216-.083-.459-.177-.76-.249h-.002a1.353 1.353 0 0 0-.137-.523.325.325 0 0 0-.138-.129.209.209 0 0 0-.162-.012.162.162 0 0 0-.098.111.269.269 0 0 0 .019.175c.06.115.071.277.071.354-.225.024-.42.095-.596.167-.315.127-.564.229-.937.041a3.034 3.034 0 0 0-.964-.313 1.443 1.443 0 0 0-.225-.422.3.3 0 0 0-.16-.106.176.176 0 0 0-.156.03.183.183 0 0 0-.061.15.309.309 0 0 0 .07.18c.038.048.069.11.093.172-.493.078-.74.364-.752.378a.184.184 0 0 0-.041.106.275.275 0 0 0 .024.13.336.336 0 0 0 .083.112.288.288 0 0 0 .116.065.2.2 0 0 0 .102.003.155.155 0 0 0 .08-.049c.002-.003.247-.278.732-.285.25-.005.61.098.96.274.098.05.189.082.277.107.041.112.058.236.06.281.003.06.028.122.069.174.042.052.097.09.154.104l.012.003c.059.013.115 0 .154-.034a.184.184 0 0 0 .058-.151 1.71 1.71 0 0 0-.058-.334c.206-.022.385-.094.554-.163.256-.104.498-.203.814-.129.265.062.483.147.694.228.212.083.421.155.651.203.04.128.037.284.031.335a.244.244 0 0 0 .009.099.328.328 0 0 0 .121.175.286.286 0 0 0 .092.046.184.184 0 0 0 .148-.018.171.171 0 0 0 .074-.124 1.453 1.453 0 0 0-.027-.462 1.525 1.525 0 0 0 1.05-.4c.221.201.48.338.74.39a.172.172 0 0 0 .153-.037.187.187 0 0 0 .055-.153z" fill="#EEE"/></g><path d="M187.611 25.137c0-1.105-.745-2.234-1.665-2.523l-39.947-12.538c-.919-.289-1.665.373-1.665 1.477v71.09c0 1.105.746 2.235 1.665 2.523l39.947 12.539c.92.288 1.665-.373 1.665-1.478v-71.09z" fill="url(#e)"/><path fill-rule="evenodd" clip-rule="evenodd" d="M160.725 22.517c0-.268-.21-.541-.468-.61l-8.623-2.31c-.258-.07-.468.09-.468.358v13.168c0 .268.21.541.468.61l4.449 1.193c.412.11.647-.365.442-.79-.369-.77-.58-1.602-.58-2.428 0-.403.05-.78.144-1.127.074-.273-.125-.636-.417-.714a.582.582 0 0 1-.409-.533v-.505c0-.268.209-.429.468-.36l.739.198a.225.225 0 0 1 .158.207c0 .164.22.293.32.193.814-.81 2.051-1.136 3.435-.765.185.05.342-.058.342-.248v-5.537zm-1.766 3.283c.259.07.469.343.469.61v.445c0 .267-.21.428-.469.359l-5.891-1.579a.665.665 0 0 1-.468-.61v-.444c0-.268.209-.429.468-.36l5.891 1.58zm-.068-2.846c.259.07.468.343.468.61v.445c0 .268-.209.428-.468.359L153 22.789a.665.665 0 0 1-.468-.61v-.444c0-.268.209-.428.468-.36l5.891 1.58z" fill="#389D2D"/><path fill-rule="evenodd" clip-rule="evenodd" d="M163.493 32.264c.087.22.002.424-.179.484-.174.058-.255.248-.226.462a2.993 2.993 0 0 1 0 .824.667.667 0 0 0 .226.581c.181.158.266.407.179.581a2.518 2.518 0 0 1-.117.21l-.064.097a2.332 2.332 0 0 1-.147.192c-.121.144-.354.118-.535-.038-.174-.151-.391-.175-.549-.088a1.99 1.99 0 0 1-.688.227.364.364 0 0 0-.324.376c0 .217-.147.367-.356.332a3.582 3.582 0 0 1-.654-.176.578.578 0 0 1-.356-.522c0-.208-.137-.423-.324-.55a3.95 3.95 0 0 1-.688-.596c-.158-.17-.375-.264-.549-.206-.181.06-.414-.04-.535-.248a4.33 4.33 0 0 1-.148-.274l-.061-.126a4.316 4.316 0 0 1-.119-.275c-.087-.22-.002-.424.18-.484.174-.057.254-.248.225-.462a3.154 3.154 0 0 1-.029-.42c0-.137.01-.272.029-.403a.667.667 0 0 0-.225-.582c-.182-.157-.267-.407-.18-.581.036-.073.076-.144.119-.212l.06-.093c.047-.067.096-.132.149-.194.121-.143.354-.118.535.039.174.15.391.174.549.087.207-.114.439-.191.688-.227a.364.364 0 0 0 .324-.376c0-.216.148-.367.356-.331a3.383 3.383 0 0 1 .654.175.576.576 0 0 1 .356.522c0 .208.137.423.324.55.25.169.481.37.688.596.158.171.375.263.549.206.181-.06.414.04.535.248.052.09.101.18.147.271l.064.131c.042.09.081.181.117.273zm-3.107 1.694c.566.152 1.024-.2 1.024-.786 0-.586-.458-1.183-1.024-1.335-.565-.151-1.024.2-1.024.786 0 .586.459 1.184 1.024 1.335z" fill="#878787"/><defs><linearGradient id="a" x1="60.228" y1="119.458" x2="98.453" y2="58.254" gradientUnits="userSpaceOnUse"><stop stop-color="#F9F9F9" stop-opacity=".8"/><stop offset="1" stop-color="#A7A7A7" stop-opacity=".6"/></linearGradient><linearGradient id="b" x1="51.786" y1="56.567" x2="67.64" y2="18.658" gradientUnits="userSpaceOnUse"><stop stop-color="#F9F9F9" stop-opacity=".8"/><stop offset="1" stop-color="#EEE"/></linearGradient><linearGradient id="c" x1="102.036" y1="91.227" x2="117.89" y2="53.318" gradientUnits="userSpaceOnUse"><stop stop-color="#F9F9F9" stop-opacity=".8"/><stop offset="1" stop-color="#EEE"/></linearGradient><linearGradient id="e" x1="159.047" y1="65.696" x2="175.418" y2="20.592" gradientUnits="userSpaceOnUse"><stop stop-color="#F9F9F9" stop-opacity=".8"/><stop offset="1" stop-color="#EEE"/></linearGradient><clipPath id="d"><path fill="#fff" transform="matrix(.96593 .25882 0 1 93.314 46.105)" d="M0 0h16.674v16.674H0z"/></clipPath></defs></svg>