<svg width="226" height="169" viewBox="0 0 226 169" fill="none" xmlns="http://www.w3.org/2000/svg">
<path d="M103.445 21.6113C103.445 17.7453 100.836 13.7924 97.618 12.7823L59.9736 0.966784C56.7552 -0.0433652 54.1462 2.27175 54.1462 6.13775V77.6774C54.1462 81.5434 56.7552 85.4963 59.9736 86.5064L97.618 98.3219C100.836 99.3321 103.445 97.0169 103.445 93.151V21.6113Z" fill="url(#paint0_linear_4809_5343)"/>
<path d="M103.445 21.6113C103.445 17.7453 100.836 13.7924 97.618 12.7823L59.9736 0.966784C56.7552 -0.0433652 54.1462 2.27175 54.1462 6.13775V77.6774C54.1462 81.5434 56.7552 85.4963 59.9736 86.5064L97.618 98.3219C100.836 99.3321 103.445 97.0169 103.445 93.151V21.6113Z" fill="url(#paint1_linear_4809_5343)"/>
<path d="M73.5566 30.9883C74.9456 30.5141 74.9456 28.1183 73.5566 26.7722C72.96 26.194 72.2388 25.9676 71.6422 26.1713C70.2531 26.6454 70.2531 29.0413 71.6422 30.3874C72.2388 30.9656 72.96 31.192 73.5566 30.9883Z" fill="#878787"/>
<path fill-rule="evenodd" clip-rule="evenodd" d="M67.6488 25.4556C66.6141 25.8088 66.6141 27.5935 67.6488 28.5963L67.7497 28.694C68.1659 29.0974 68.4248 29.7026 68.4248 30.2721C68.4248 31.1315 67.8448 31.6462 67.1294 31.4216L63.1118 30.1606C62.2693 29.8962 61.5938 28.8727 61.5938 27.8607V13.2727C61.5938 12.7891 61.7537 12.3755 62.0384 12.1229C62.3231 11.8702 62.7092 11.7993 63.1118 11.9257C63.531 12.0573 63.8708 12.5721 63.8708 13.0757V16.562C63.8708 17.4352 64.6638 18.2235 65.2871 17.9699C65.5833 17.8494 65.9533 17.9655 66.2495 18.2719C66.8728 18.9168 67.6658 18.6264 67.6658 17.7532V15.6623C67.6658 14.3881 68.5258 13.625 69.5865 13.9579L72.2199 14.7845C72.6225 14.9108 73.0086 15.2241 73.2933 15.6555C73.578 16.0868 73.7379 16.6008 73.7379 17.0844V23.6934C73.7379 24.2236 73.2652 24.412 72.8779 24.036C72.7043 23.8676 72.4944 23.8016 72.3208 23.8609L67.6488 25.4556Z" fill="#666666"/>
<path d="M70.9283 30.6068C70.4843 30.1764 69.9429 30.3925 69.9429 31C69.9429 31.2929 70.076 31.6041 70.29 31.8115L71.3268 32.8167C72.12 33.5855 73.0788 33.8865 73.8719 33.6155L74.9088 33.2612C75.1228 33.1881 75.2559 32.9605 75.2559 32.6677C75.2559 32.0601 74.7145 31.5041 74.2705 31.6558L73.2493 32.0047C72.8442 32.1431 72.3546 31.9894 71.9495 31.5968L70.9283 30.6068Z" fill="#878787"/>
<path d="M177.336 39.6387C177.336 35.7727 174.785 31.7388 171.638 30.6288L137.527 18.5963C134.38 17.4862 131.829 19.7204 131.829 23.5864V90.2658C131.829 94.1318 134.38 98.1656 137.527 99.2756L171.638 111.308C174.785 112.418 177.336 110.184 177.336 106.318V39.6387Z" fill="url(#paint2_linear_4809_5343)"/>
<path d="M177.336 39.6387C177.336 35.7727 174.785 31.7388 171.638 30.6288L137.527 18.5963C134.38 17.4862 131.829 19.7204 131.829 23.5864V90.2658C131.829 94.1318 134.38 98.1656 137.527 99.2756L171.638 111.308C174.785 112.418 177.336 110.184 177.336 106.318V39.6387Z" fill="url(#paint3_linear_4809_5343)"/>
<path fill-rule="evenodd" clip-rule="evenodd" d="M149.059 27.9056C149.059 27.6076 148.839 27.3067 148.567 27.2337L139.5 24.8001C139.228 24.7271 139.008 24.9098 139.008 25.2077V39.872C139.008 40.1699 139.228 40.4709 139.5 40.5439L144.178 41.7994C144.612 41.9159 144.858 41.3834 144.643 40.9123C144.255 40.0621 144.034 39.139 144.034 38.2181C144.034 37.7696 144.086 37.3486 144.185 36.9611C144.263 36.6559 144.053 36.2552 143.746 36.1728C143.508 36.109 143.316 35.8463 143.316 35.5861V35.0231C143.316 34.7246 143.536 34.5425 143.808 34.6155L144.585 34.8241C144.677 34.8487 144.751 34.9503 144.751 35.0512C144.751 35.2342 144.982 35.3744 145.088 35.2614C145.944 34.3452 147.244 33.9633 148.7 34.3541C148.894 34.4061 149.059 34.2842 149.059 34.0715V27.9056ZM147.203 31.5906C147.475 31.6636 147.695 31.9646 147.695 32.2626V32.7575C147.695 33.0555 147.475 33.2382 147.203 33.1652L141.008 31.5024C140.736 31.4294 140.516 31.1285 140.516 30.8305V30.3355C140.516 30.0375 140.736 29.8549 141.008 29.9279L147.203 31.5906ZM147.131 28.4228C147.403 28.4958 147.623 28.7962 147.623 29.0947V29.5892C147.623 29.8877 147.403 30.0698 147.131 29.9968L140.936 28.3341C140.664 28.2611 140.444 27.9606 140.444 27.6621V27.1677C140.444 26.8692 140.664 26.6871 140.936 26.7601L147.131 28.4228Z" fill="#666666"/>
<path fill-rule="evenodd" clip-rule="evenodd" d="M151.97 38.7155C152.062 38.9598 151.972 39.1883 151.781 39.258C151.598 39.3245 151.514 39.5382 151.545 39.7753C151.565 39.9324 151.575 40.0884 151.575 40.2422C151.575 40.3961 151.565 40.5467 151.545 40.6929C151.514 40.9136 151.598 41.1727 151.781 41.3373C151.972 41.5093 152.062 41.7861 151.97 41.9812C151.932 42.0623 151.891 42.1408 151.847 42.2164L151.78 42.3258C151.732 42.4008 151.68 42.4733 151.626 42.5418C151.498 42.704 151.253 42.6794 151.063 42.5079C150.88 42.3427 150.651 42.3196 150.486 42.4188C150.268 42.5498 150.024 42.6399 149.762 42.6833C149.566 42.716 149.421 42.8753 149.421 43.1068C149.421 43.3481 149.266 43.5176 149.047 43.482C148.933 43.4632 148.818 43.4384 148.703 43.4075C148.587 43.3763 148.472 43.3396 148.359 43.2973C148.14 43.2153 147.985 42.9627 147.985 42.7214C147.985 42.4899 147.841 42.253 147.644 42.115C147.382 41.9307 147.138 41.7098 146.92 41.4619C146.755 41.2739 146.526 41.1742 146.343 41.2406C146.153 41.3104 145.908 41.2038 145.78 40.973C145.725 40.874 145.673 40.7731 145.625 40.6709L145.56 40.5317C145.516 40.4312 145.474 40.3293 145.436 40.2273C145.344 39.9831 145.434 39.7545 145.625 39.6848C145.808 39.6184 145.892 39.4046 145.861 39.1675C145.841 39.0104 145.831 38.8544 145.831 38.7006C145.831 38.5473 145.841 38.3967 145.861 38.2504C145.892 38.0292 145.808 37.7707 145.625 37.6056C145.434 37.434 145.344 37.1568 145.436 36.9616C145.474 36.8801 145.516 36.8006 145.56 36.7241L145.625 36.6199C145.673 36.5439 145.725 36.471 145.78 36.401C145.908 36.2394 146.153 36.264 146.343 36.4355C146.526 36.6001 146.755 36.6237 146.92 36.524C147.138 36.3936 147.382 36.3035 147.644 36.2595C147.841 36.2269 147.985 36.0676 147.985 35.836C147.985 35.5952 148.14 35.4252 148.359 35.4613C148.473 35.4796 148.588 35.5045 148.703 35.5353C148.819 35.5665 148.934 35.6038 149.047 35.6461C149.266 35.7275 149.421 35.9807 149.421 36.2214C149.421 36.453 149.566 36.6899 149.762 36.8278C150.024 37.0127 150.268 37.233 150.486 37.4809C150.651 37.6694 150.88 37.7686 151.063 37.7022C151.253 37.6324 151.498 37.7391 151.626 37.9699C151.68 38.0682 151.732 38.1678 151.78 38.2688L151.847 38.4142C151.891 38.514 151.932 38.6141 151.97 38.7155ZM148.703 40.6525C149.298 40.8121 149.78 40.4125 149.78 39.7605C149.78 39.1084 149.298 38.4506 148.703 38.2909C148.108 38.1313 147.626 38.5303 147.626 39.1824C147.626 39.8344 148.108 40.4928 148.703 40.6525Z" fill="#878787"/>
<path d="M113.538 70.2719C107.577 70.2719 102.474 68.1496 98.2296 63.9049C93.9849 59.6602 91.8625 54.5575 91.8625 48.5969C91.8625 42.6363 93.9849 37.5336 98.2296 33.2889C102.474 29.0442 107.577 26.9219 113.538 26.9219C119.498 26.9219 124.601 29.0442 128.846 33.2889C133.09 37.5336 135.213 42.6363 135.213 48.5969C135.213 54.5575 133.09 59.6602 128.846 63.9049C124.601 68.1496 119.498 70.2719 113.538 70.2719ZM70.1875 113.622V98.4494C70.1875 95.3788 70.9786 92.5574 72.5609 89.9853C74.1432 87.4132 76.2421 85.448 78.8575 84.0897C84.4569 81.29 90.1466 79.1912 95.9266 77.7931C101.707 76.3951 107.577 75.6943 113.538 75.6907C119.498 75.6871 125.368 76.3879 131.148 77.7931C136.928 79.1984 142.618 81.2973 148.218 84.0897C150.837 85.4444 152.937 87.4096 154.52 89.9853C156.102 92.5611 156.891 95.3824 156.888 98.4494V113.622H70.1875Z" fill="#389D2D"/>
<path d="M127.531 88.1367C127.531 84.2707 124.963 80.1988 121.794 79.0418L84.4371 65.4006C81.2686 64.2436 78.7 66.4397 78.7 70.3057V142.312C78.7 146.178 81.2686 150.249 84.4371 151.406L121.794 165.048C124.963 166.205 127.531 164.009 127.531 160.143V88.1367Z" fill="url(#paint4_linear_4809_5343)"/>
<path d="M127.531 88.1367C127.531 84.2707 124.963 80.1988 121.794 79.0418L84.4371 65.4006C81.2686 64.2436 78.7 66.4397 78.7 70.3057V142.312C78.7 146.178 81.2686 150.249 84.4371 151.406L121.794 165.048C124.963 166.205 127.531 164.009 127.531 160.143V88.1367Z" fill="url(#paint5_linear_4809_5343)"/>
<path d="M120.693 82.9851L83.3357 69.3441C80.3935 68.2697 78.0084 70.3089 78.0084 73.8988V145.905C78.0084 149.494 80.3935 153.276 83.3357 154.35L120.693 167.991C123.635 169.065 126.02 167.026 126.02 163.436V91.4304C126.02 87.9529 123.782 84.2963 120.967 83.0942L120.693 82.9851Z" stroke="#4C4C4C"/>
<g clip-path="url(#clip0_4809_5343)">
<path d="M101.549 92.9C101.551 93.0382 101.516 93.2092 101.48 93.3482C101.231 94.326 100.121 95.2011 98.5599 94.676C97.1448 94.2004 95.9922 93.1883 95.9922 92.202C95.9922 91.2157 97.142 90.7241 98.5599 91.104C99.9778 91.484 101.54 91.9114 101.549 92.9Z" fill="#878787"/>
<path d="M98.558 91.2691C97.7964 91.0651 96.0581 90.8175 95.6591 90.7106C94.9544 90.5217 94.3828 90.8264 94.3828 91.3914C94.3828 91.6632 94.5174 91.9447 94.7328 92.1855C94.7328 92.1855 95.2061 92.8038 96.0586 92.7965C96.4316 92.7932 97.0385 92.1892 98.1069 92.3537C98.639 92.4354 99.6358 93.1287 101.388 93.6083C101.463 93.4609 101.479 93.3487 101.479 93.3487C101.479 92.3615 99.976 91.6491 98.558 91.2691Z" fill="#EEEEEE"/>
<path d="M101.483 93.3482C101.483 93.3482 102.511 93.4077 103.149 92.709C103.894 91.8941 103.796 90.7822 103.796 90.7822C104.551 89.5233 103.561 87.888 103.561 87.888C103.463 86.3192 102.542 85.4334 102.542 85.4334C101.944 83.8018 100.621 83.0518 100.621 83.0518C99.582 81.5155 97.7392 81.0621 97.7392 81.0621C97.7392 81.0621 96.0127 79.9444 93.6426 80.0458C93.2507 80.0625 91.9372 79.9945 90.9765 80.3459C87.9487 81.4536 87.7196 84.3846 87.762 84.8825C87.9967 87.6646 89.8395 88.6454 91.0156 89.2445C91.2899 90.0889 92.2994 91.7802 94.1126 91.7385C96.3472 91.9316 97.2881 91.4935 97.8371 91.6407C98.3861 91.7878 99.9151 92.8063 101.483 93.3482Z" fill="#666666"/>
<path d="M95.8287 87.4626C96.9239 87.1448 97.5176 87.3608 98.0417 87.5505C98.2083 87.6107 98.3659 87.6651 98.5253 87.7068C99.4587 87.935 100.215 87.7304 100.549 87.426C100.588 87.3873 100.606 87.3299 100.601 87.2657C100.596 87.2015 100.567 87.1356 100.522 87.0817C100.476 87.0278 100.417 86.9902 100.356 86.9767C100.295 86.9632 100.237 86.9749 100.195 87.0093C99.9376 87.2441 99.3021 87.4094 98.5145 87.2169C98.3734 87.1835 98.2318 87.1309 98.085 87.0775C97.5228 86.8728 96.8247 86.6194 95.6053 86.9741C95.2924 87.0651 94.8634 87.0149 94.3986 86.9391C93.365 85.1177 93.9869 83.9391 94.1647 83.6663C94.1822 83.672 94.1991 83.6823 94.217 83.6871C94.4051 83.7375 94.5943 83.7405 94.7655 83.686C94.8177 83.6671 94.8555 83.6247 94.8708 83.5676C94.8862 83.5105 94.878 83.4433 94.8479 83.3803C94.8179 83.3172 94.7683 83.2631 94.7097 83.2295C94.6512 83.1959 94.5882 83.1855 94.5341 83.2003C94.3861 83.245 94.2128 83.222 94.0488 83.1359C93.8848 83.0498 93.7423 82.9069 93.6496 82.7359C93.6146 82.6754 93.562 82.6262 93.5026 82.5983C93.4433 82.5704 93.3817 82.5661 93.3308 82.5863C93.2799 82.6064 93.2435 82.6495 93.2292 82.7065C93.2149 82.7635 93.2238 82.83 93.254 82.8924C93.3655 83.1029 93.5226 83.2809 93.6999 83.4195C93.4548 83.8691 92.9896 85.0994 93.875 86.8519C93.2521 86.7483 92.6283 86.6722 92.1399 86.8672C91.7968 87.0082 91.4975 87.2236 91.2564 87.5028C90.9605 87.3709 89.8771 86.8044 89.688 85.5088C89.8056 85.4459 89.9006 85.3467 89.9594 85.2085C89.9708 85.1818 89.9764 85.1515 89.9759 85.1194C89.9754 85.0873 89.9688 85.054 89.9565 85.0213C89.9443 84.9887 89.9265 84.9574 89.9043 84.9292C89.8821 84.901 89.8559 84.8765 89.8272 84.857C89.7985 84.8375 89.7678 84.8235 89.7369 84.8157C89.706 84.808 89.6755 84.8066 89.6472 84.8117C89.6188 84.8168 89.5932 84.8283 89.5717 84.8455C89.5502 84.8627 89.5333 84.8853 89.5219 84.912C89.5042 84.9585 89.4759 84.9976 89.439 85.0264C89.4021 85.0553 89.3575 85.0734 89.3083 85.0793C89.2585 85.083 89.2057 85.0747 89.1535 85.0548C89.1013 85.0349 89.0509 85.004 89.0058 84.9642C88.9788 84.9414 88.9491 84.9236 88.9184 84.9117C88.8877 84.8998 88.8567 84.8941 88.8269 84.8949C88.767 84.8966 88.7162 84.9246 88.6859 84.973C88.6556 85.0213 88.6482 85.0859 88.6653 85.1526C88.6824 85.2193 88.7226 85.2826 88.7772 85.3286C88.9108 85.4414 89.0538 85.5186 89.1959 85.5567C89.2133 85.5614 89.2297 85.5575 89.2471 85.5612C89.4711 86.7964 90.3682 87.5531 91.0029 87.8795C90.9199 88.0403 90.8672 88.2225 90.8471 88.4183C90.8417 88.4812 90.8611 88.5503 90.9011 88.6106C90.9412 88.6708 90.9986 88.7172 91.0607 88.7395L91.0819 88.7462C91.1407 88.7619 91.1974 88.7543 91.2407 88.7248C91.2841 88.6953 91.311 88.6461 91.3162 88.5869C91.367 88.0097 91.9113 87.5384 92.3949 87.3442C92.8484 87.1632 93.5122 87.2773 94.1549 87.3876C94.7782 87.4957 95.3672 87.597 95.8287 87.4626ZM101.882 88.3519C101.852 88.4006 101.845 88.4654 101.862 88.5321C101.88 88.5989 101.92 88.662 101.975 88.7077C102.03 88.7534 102.094 88.7778 102.154 88.7757C102.214 88.7736 102.265 88.745 102.295 88.6963C102.304 88.6822 103.161 87.2487 101.556 85.7007C101.504 85.6508 101.44 85.6205 101.379 85.6165C101.318 85.6126 101.264 85.6352 101.229 85.6795C101.194 85.7238 101.181 85.7861 101.193 85.8527C101.205 85.9193 101.241 85.9847 101.293 86.0346C102.537 87.2339 101.909 88.3066 101.882 88.3519ZM92.1305 81.8067C92.1678 81.8167 92.2046 81.8174 92.2378 81.8087C92.271 81.8 92.2997 81.7821 92.3215 81.7566C93.0037 80.957 93.9483 81.5462 93.9883 81.5725C94.0463 81.6078 94.1094 81.6204 94.1643 81.6077C94.2193 81.595 94.2618 81.5578 94.2828 81.5042C94.3039 81.4506 94.3019 81.3846 94.2772 81.3202C94.2525 81.2558 94.2072 81.1981 94.1506 81.1591C93.699 80.8647 92.656 80.5307 91.9395 81.3703C91.9144 81.3999 91.8994 81.4388 91.8962 81.4825C91.893 81.5263 91.9018 81.5733 91.9215 81.6184C91.9413 81.6635 91.9712 81.7049 92.0081 81.7381C92.0449 81.7714 92.0873 81.7951 92.1305 81.8067ZM98.2802 82.535C99.327 82.7273 99.8031 83.6405 99.8247 83.6833C99.8564 83.7475 99.9081 83.8018 99.9685 83.8343C99.9984 83.8503 100.03 83.8605 100.06 83.8643C100.091 83.8681 100.12 83.8654 100.147 83.8563C100.174 83.8473 100.197 83.832 100.216 83.8115C100.234 83.7909 100.248 83.7655 100.256 83.7366C100.263 83.7077 100.265 83.6759 100.261 83.6431C100.257 83.6102 100.246 83.5769 100.231 83.5451C100.205 83.494 99.6003 82.296 98.2435 82.0396C98.2127 82.0338 98.1827 82.0345 98.1552 82.0416C98.1277 82.0488 98.1032 82.0622 98.0831 82.0811C98.0426 82.1193 98.0225 82.1777 98.0274 82.2434C98.0322 82.3091 98.0616 82.3768 98.109 82.4314C98.1565 82.4861 98.218 82.5234 98.2802 82.535ZM102.585 90.8046C102.469 90.7668 102.342 90.8276 102.331 90.9593C102.33 90.9678 102.256 91.7762 101.433 91.8358C101.379 91.8388 101.333 91.8635 101.303 91.9052C101.274 91.947 101.262 92.003 101.271 92.063C101.28 92.1231 101.309 92.1831 101.352 92.2322C101.395 92.2813 101.45 92.3162 101.507 92.3304C101.532 92.3371 101.556 92.3396 101.58 92.3379C102.696 92.258 102.797 91.1716 102.8 91.1254C102.803 91.0941 102.799 91.061 102.79 91.028C102.78 90.995 102.765 90.9626 102.745 90.9328C102.725 90.903 102.701 90.8764 102.673 90.8544C102.646 90.8324 102.616 90.8155 102.585 90.8046Z" fill="#F9F9F9"/>
<path d="M90.938 85.3167C90.9287 85.3454 90.9256 85.3775 90.9289 85.4109C90.9322 85.4442 90.9417 85.4783 90.957 85.511C90.9723 85.5437 90.993 85.5744 91.0178 85.6012C91.0427 85.628 91.0712 85.6504 91.1017 85.6671C91.1322 85.6837 91.164 85.6943 91.1953 85.6982C91.2265 85.7021 91.2566 85.6992 91.2837 85.6896C91.3108 85.6801 91.3343 85.6642 91.3529 85.6427C91.3715 85.6213 91.3848 85.5949 91.392 85.565C91.4373 85.4083 91.5426 85.2918 91.6868 85.2388C91.831 85.1858 92.0033 85.2003 92.1691 85.2793C92.1994 85.294 92.2306 85.3027 92.2609 85.3049C92.2913 85.3071 92.3202 85.3028 92.3461 85.2922C92.372 85.2817 92.3942 85.265 92.4117 85.2433C92.4291 85.2215 92.4413 85.1951 92.4476 85.1655C92.454 85.1359 92.4543 85.1037 92.4486 85.0707C92.4429 85.0377 92.4312 85.0046 92.4143 84.9733C92.3974 84.942 92.3756 84.9131 92.35 84.8882C92.3245 84.8634 92.2958 84.843 92.2656 84.8284C92.0698 84.7347 91.8669 84.6948 91.6785 84.7129C91.1299 83.5948 91.2367 82.6659 91.2381 82.656C91.2464 82.5942 91.2298 82.525 91.192 82.4635C91.1541 82.402 91.0981 82.3534 91.0363 82.3282C90.9747 82.3035 90.9124 82.304 90.863 82.3297C90.8135 82.3553 90.7808 82.4041 90.7719 82.4653C90.7658 82.5109 90.6402 83.558 91.272 84.8466C91.1112 84.9531 90.9953 85.1162 90.938 85.3167ZM96.1971 85.5229C96.2911 85.4597 96.4138 85.4442 96.5408 85.4796C96.6677 85.515 96.7894 85.5985 96.8816 85.7136C96.9264 85.7705 96.9866 85.8114 97.049 85.8271C97.1114 85.8428 97.1708 85.8321 97.2142 85.7973C97.2577 85.7627 97.2817 85.7068 97.2808 85.642C97.2799 85.5772 97.2543 85.5087 97.2095 85.4517C97.1033 85.3186 96.9749 85.2066 96.8346 85.1248C96.9738 84.6673 96.9188 84.4329 96.7894 83.9867C96.7638 83.8993 96.7392 83.8118 96.7156 83.7243L96.7015 83.6718C96.5302 83.0376 96.4168 82.619 96.7424 82.1583C96.7751 82.1121 96.7853 82.0486 96.7708 81.9819C96.7564 81.9152 96.7184 81.8507 96.6652 81.8026C96.6121 81.7545 96.5481 81.7268 96.4874 81.7255C96.4267 81.7242 96.3742 81.7495 96.3416 81.7957C95.905 82.4132 96.0654 83.0061 96.2512 83.6924L96.2653 83.7449C96.2929 83.8465 96.3185 83.9373 96.342 84.0173C96.4582 84.419 96.4935 84.5527 96.3514 84.9627C96.1736 84.9479 96.0086 84.989 95.8763 85.0809C95.8323 85.1135 95.8069 85.1672 95.8054 85.2304C95.804 85.2937 95.8267 85.3614 95.8686 85.4192C95.9105 85.4769 95.9684 85.5201 96.0298 85.5395C96.0912 85.5589 96.1513 85.5529 96.1971 85.5229ZM99.1915 84.8714C99.3312 84.9093 99.4693 84.9145 99.5957 84.8866C99.6521 84.8743 99.6957 84.8363 99.7168 84.7812C99.738 84.7261 99.7349 84.6583 99.7083 84.5927C99.6818 84.5271 99.6338 84.4692 99.5751 84.4316C99.5164 84.3939 99.4517 84.3798 99.3952 84.3922C99.2796 84.4161 99.1482 84.3885 99.0274 84.3148C98.9066 84.2412 98.8054 84.1269 98.7441 83.9951C98.7302 83.9621 98.7106 83.9308 98.6867 83.9031C98.6628 83.8754 98.635 83.8519 98.605 83.8339C98.575 83.8159 98.5433 83.8038 98.5119 83.7984C98.4805 83.7929 98.45 83.7942 98.4222 83.8022C98.3944 83.8101 98.3699 83.8246 98.3501 83.8447C98.3303 83.8649 98.3157 83.8902 98.3071 83.9193C98.2984 83.9484 98.296 83.9806 98.2999 84.014C98.3038 84.0475 98.3139 84.0815 98.3297 84.114C98.4144 84.3003 98.5404 84.4631 98.6872 84.5921C98.4346 85.16 98.5781 85.8735 98.6952 86.2628C98.7042 86.2967 98.7192 86.3299 98.7393 86.3606C98.7594 86.3912 98.7842 86.4187 98.8123 86.4413C98.8404 86.464 98.8711 86.4813 98.9027 86.4923C98.9342 86.5032 98.9659 86.5077 98.9959 86.5052C99.0259 86.5028 99.0535 86.4936 99.0772 86.4782C99.1008 86.4627 99.12 86.4414 99.1335 86.4154C99.147 86.3894 99.1546 86.3593 99.1559 86.3269C99.1571 86.2945 99.152 86.2605 99.1407 86.2269C99.0617 85.9631 98.9083 85.3093 99.1398 84.8502C99.1577 84.856 99.1741 84.8667 99.1915 84.8714ZM101.448 90.0684C101.446 90.036 101.439 90.0025 101.425 89.9701C101.411 89.9377 101.393 89.9069 101.369 89.8795C101.346 89.8521 101.319 89.8287 101.29 89.8106C101.26 89.7925 101.229 89.7801 101.198 89.774C101.086 89.7519 100.972 89.7065 100.865 89.6404C100.758 89.5743 100.659 89.4889 100.574 89.389C100.489 89.2891 100.419 89.1768 100.369 89.0584C100.319 88.94 100.29 88.8179 100.283 88.6992C100.277 88.6337 100.248 88.5666 100.201 88.5118C100.154 88.4571 100.094 88.419 100.032 88.4055C100.001 88.3994 99.9708 88.3998 99.9431 88.4066C99.9154 88.4134 99.8907 88.4265 99.8704 88.4451C99.8501 88.4638 99.8346 88.4877 99.8247 88.5153C99.8149 88.543 99.8109 88.574 99.813 88.6065C99.8323 88.899 99.9381 89.1865 100.099 89.4405C99.7208 89.7999 99.2254 89.7982 98.9493 89.7578C98.7051 89.7225 98.4915 89.6395 98.2445 89.5431C98.0182 89.4557 97.7623 89.3564 97.4457 89.2813L97.4433 89.2812C97.4339 89.1394 97.402 88.9277 97.2999 88.7314C97.2648 88.6719 97.2126 88.6235 97.154 88.5961C97.0953 88.5686 97.0346 88.564 96.9839 88.5833C96.9333 88.6026 96.8966 88.6443 96.8813 88.7C96.866 88.7556 96.8732 88.8211 96.9014 88.8832C96.9644 89.0048 96.9762 89.175 96.9762 89.2564C96.7391 89.281 96.534 89.3556 96.3486 89.4311C96.0174 89.5654 95.7563 89.6717 95.3635 89.4749C95.0078 89.2954 94.6517 89.1829 94.3497 89.1458C94.3026 89.0109 94.2283 88.8449 94.1135 88.7017C94.0682 88.6451 94.0076 88.605 93.9453 88.5901C93.8829 88.5752 93.8238 88.5868 93.7809 88.6223C93.738 88.6577 93.715 88.7142 93.7167 88.7793C93.7185 88.8443 93.745 88.9126 93.7903 88.9691C93.8308 89.0194 93.8628 89.0855 93.8886 89.1499C93.3697 89.232 93.1096 89.5319 93.0973 89.5467C93.0724 89.5763 93.0576 89.6151 93.0545 89.6588C93.0515 89.7025 93.0604 89.7494 93.0801 89.7943C93.0999 89.8393 93.1298 89.8805 93.1667 89.9136C93.2035 89.9466 93.2457 89.9702 93.2888 89.9817C93.326 89.9919 93.3627 89.9928 93.3959 89.9843C93.4291 89.9759 93.4579 89.9583 93.4798 89.9331C93.4822 89.9298 93.7404 89.641 94.2499 89.6329C94.5134 89.6285 94.8912 89.7361 95.2595 89.9214C95.3626 89.9734 95.4581 90.0073 95.5507 90.0336C95.5945 90.1515 95.6114 90.2822 95.6138 90.3295C95.6171 90.3926 95.6433 90.458 95.687 90.5124C95.7306 90.5669 95.7884 90.6062 95.8485 90.6223L95.8612 90.6252C95.9233 90.6385 95.9816 90.6254 96.0233 90.5888C96.0649 90.5523 96.0867 90.4952 96.0838 90.4301C96.076 90.3146 96.0555 90.197 96.0226 90.0796C96.2395 90.0564 96.4281 89.9798 96.6055 89.908C96.8746 89.7985 97.1291 89.6948 97.4617 89.7727C97.7402 89.8371 97.9698 89.9263 98.1914 90.0125C98.4144 90.099 98.6336 90.1753 98.8754 90.2255C98.9182 90.3602 98.9149 90.5239 98.9083 90.5772C98.9043 90.6104 98.9074 90.646 98.9173 90.6817C98.9273 90.7173 98.9438 90.7522 98.9659 90.784C98.988 90.8158 99.0151 90.8438 99.0454 90.8662C99.0758 90.8887 99.1088 90.905 99.1421 90.9141C99.1992 90.9293 99.2542 90.9225 99.2971 90.895C99.3399 90.8675 99.3676 90.8211 99.375 90.7646C99.3921 90.6094 99.3827 90.4453 99.3473 90.2794C99.7765 90.2765 100.161 90.1297 100.45 89.8585C100.684 90.0703 100.956 90.2136 101.23 90.2684C101.292 90.2807 101.35 90.2665 101.391 90.229C101.432 90.1915 101.452 90.1338 101.448 90.0684Z" fill="#F9F9F9"/>
</g>
<defs>
<linearGradient id="paint0_linear_4809_5343" x1="61.656" y1="86.5651" x2="79.9584" y2="42.1206" gradientUnits="userSpaceOnUse">
<stop stop-color="#F9F9F9" stop-opacity="0.8"/>
<stop offset="1" stop-color="#A7A7A7" stop-opacity="0.6"/>
</linearGradient>
<linearGradient id="paint1_linear_4809_5343" x1="70.9058" y1="63.0927" x2="89.5549" y2="11.7121" gradientUnits="userSpaceOnUse">
<stop stop-color="#F9F9F9" stop-opacity="0.8"/>
<stop offset="1" stop-color="#EEEEEE"/>
</linearGradient>
<linearGradient id="paint2_linear_4809_5343" x1="138.761" y1="99.2683" x2="157.184" y2="58.5824" gradientUnits="userSpaceOnUse">
<stop stop-color="#F9F9F9" stop-opacity="0.8"/>
<stop offset="1" stop-color="#A7A7A7" stop-opacity="0.6"/>
</linearGradient>
<linearGradient id="paint3_linear_4809_5343" x1="147.299" y1="77.4031" x2="166.311" y2="30.2173" gradientUnits="userSpaceOnUse">
<stop stop-color="#F9F9F9" stop-opacity="0.8"/>
<stop offset="1" stop-color="#EEEEEE"/>
</linearGradient>
<linearGradient id="paint4_linear_4809_5343" x1="86.1385" y1="151.556" x2="106.109" y2="108.568" gradientUnits="userSpaceOnUse">
<stop stop-color="#F9F9F9" stop-opacity="0.8"/>
<stop offset="1" stop-color="#A7A7A7" stop-opacity="0.6"/>
</linearGradient>
<linearGradient id="paint5_linear_4809_5343" x1="95.3005" y1="128.382" x2="115.999" y2="78.505" gradientUnits="userSpaceOnUse">
<stop stop-color="#F9F9F9" stop-opacity="0.8"/>
<stop offset="1" stop-color="#EEEEEE"/>
</linearGradient>
<clipPath id="clip0_4809_5343">
<rect width="17.5336" height="17.5336" rx="7" transform="matrix(0.965926 0.258819 0 1 87.4844 76.1445)" fill="white"/>
</clipPath>
</defs>
</svg>
