<svg width="226" height="163" fill="none" xmlns="http://www.w3.org/2000/svg"><rect width="115.42" height="120.368" rx="5" transform="matrix(.96593 .25882 0 1 50.166 -.999)" fill="#F9F9F9"/><rect x=".483" y=".629" width="77.109" height="76.335" rx="4.5" transform="matrix(.96593 .25882 0 1 65.284 29.382)" stroke="url(#a)" stroke-opacity=".4"/><rect x=".483" y=".629" width="126.234" height="124.974" rx="4.5" transform="matrix(.96593 .25882 0 1 38.182 2.872)" stroke="#3D3D3D"/><rect x=".483" y=".629" width="78.716" height="26.915" rx="4.5" transform="matrix(.96593 .25882 0 1 6.182 3.876)" stroke="#A7A7A7" stroke-dasharray="6 6"/><rect x=".483" y=".629" width="78.716" height="26.915" rx="4.5" transform="matrix(.96593 .25882 0 1 109.182 114.877)" stroke="#A7A7A7" stroke-dasharray="6 6"/><rect x=".483" y=".629" width="93.349" height="91.029" rx="4.5" transform="matrix(.96593 .25882 0 1 57.065 19.126)" stroke="url(#b)" stroke-opacity=".1"/><rect width="64.775" height="64.775" rx="5" transform="matrix(.96593 .25882 0 1 70.502 36.773)" fill="url(#c)"/><rect x=".483" y=".629" width="56.218" height="56.218" rx="4.5" transform="matrix(.96593 .25882 0 1 74.253 41.517)" stroke="#A7A7A7" stroke-opacity=".3"/><g clip-path="url(#d)"><path d="M111.068 87.022c.003.23-.055.514-.114.745-.415 1.626-2.259 3.08-4.855 2.208-2.353-.791-4.269-2.474-4.269-4.113 0-1.64 1.912-2.457 4.269-1.826 2.357.632 4.954 1.343 4.969 2.986z" fill="#3D3D3D"/><path d="M106.099 84.311c-1.266-.34-4.156-.75-4.819-.929-1.172-.314-2.122.193-2.122 1.132 0 .452.224.92.582 1.32 0 0 .787 1.028 2.204 1.016.62-.005 1.629-1.01 3.405-.736.885.136 2.542 1.288 5.455 2.086.125-.245.151-.432.151-.432 0-1.641-2.498-2.825-4.856-3.457z" fill="#fff"/><path d="M110.96 87.768s1.708.099 2.77-1.063c1.238-1.355 1.076-3.203 1.076-3.203 1.254-2.093-.391-4.812-.391-4.812-.164-2.608-1.695-4.08-1.695-4.08-.994-2.713-3.194-3.96-3.194-3.96-1.726-2.554-4.79-3.307-4.79-3.307s-2.87-1.858-6.81-1.69c-.652.028-2.835-.085-4.433.5-5.033 1.84-5.414 6.713-5.343 7.54.39 4.626 3.453 6.256 5.408 7.252.456 1.404 2.135 4.216 5.149 4.147 3.715.32 5.279-.408 6.192-.163.913.245 3.454 1.938 6.061 2.839z" fill="#389D2D"/><path d="M101.559 77.982c1.82-.529 2.807-.17 3.679.146.276.1.538.19.804.26 1.551.379 2.808.039 3.364-.467a.332.332 0 0 0 .086-.267.546.546 0 0 0-.131-.306.522.522 0 0 0-.277-.174.307.307 0 0 0-.266.054c-.429.39-1.485.665-2.794.345-.235-.055-.47-.143-.714-.232-.935-.34-2.096-.761-4.123-.171-.52.15-1.233.067-2.006-.059-1.718-3.028-.684-4.987-.389-5.44.03.009.057.026.087.034.313.084.627.089.912-.002a.28.28 0 0 0 .175-.197.458.458 0 0 0-.038-.311.579.579 0 0 0-.23-.25.388.388 0 0 0-.292-.05c-.246.075-.534.037-.806-.106a1.637 1.637 0 0 1-.664-.665.567.567 0 0 0-.244-.229.361.361 0 0 0-.286-.02.281.281 0 0 0-.169.2.461.461 0 0 0 .041.309c.186.35.447.646.742.876-.408.748-1.181 2.793.29 5.706-1.035-.172-2.072-.298-2.884.026a3.875 3.875 0 0 0-1.469 1.056c-.491-.219-2.293-1.16-2.607-3.314a.995.995 0 0 0 .451-.5.364.364 0 0 0 .028-.148.487.487 0 0 0-.033-.163.579.579 0 0 0-.215-.273.475.475 0 0 0-.15-.069.355.355 0 0 0-.149-.006.278.278 0 0 0-.208.166.435.435 0 0 1-.138.19.433.433 0 0 1-.217.089.599.599 0 0 1-.258-.041.806.806 0 0 1-.245-.15.517.517 0 0 0-.145-.088.395.395 0 0 0-.153-.028.278.278 0 0 0-.234.13.382.382 0 0 0-.034.298c.028.111.095.217.186.293.222.188.46.316.696.38.029.007.056 0 .085.007.372 2.053 1.864 3.311 2.919 3.854-.138.267-.226.57-.259.895a.51.51 0 0 0 .09.32.55.55 0 0 0 .265.215l.035.01a.317.317 0 0 0 .264-.035.301.301 0 0 0 .126-.23c.084-.959.99-1.742 1.793-2.065.754-.301 1.858-.111 2.926.072 1.036.18 2.015.348 2.783.125zm10.062 1.478a.385.385 0 0 0-.032.3c.029.11.097.216.188.291a.45.45 0 0 0 .297.114.279.279 0 0 0 .234-.132c.015-.024 1.44-2.407-1.229-4.98a.48.48 0 0 0-.293-.14.286.286 0 0 0-.25.104.358.358 0 0 0-.059.288c.02.111.08.22.166.303 2.067 1.993 1.023 3.777.978 3.852zm-16.21-10.88a.35.35 0 0 0 .178.002.272.272 0 0 0 .14-.086c1.133-1.33 2.704-.35 2.77-.306.096.058.201.08.293.058a.275.275 0 0 0 .197-.172.427.427 0 0 0-.01-.306.583.583 0 0 0-.21-.267c-.75-.49-2.485-1.045-3.676.35a.322.322 0 0 0-.072.187.481.481 0 0 0 .042.226.587.587 0 0 0 .144.2.504.504 0 0 0 .204.113zm10.223 1.21c1.74.32 2.532 1.838 2.568 1.909a.57.57 0 0 0 .239.25.43.43 0 0 0 .152.05c.051.007.1.002.144-.012a.27.27 0 0 0 .115-.075.312.312 0 0 0 .066-.125.401.401 0 0 0 .009-.155.521.521 0 0 0-.05-.163c-.043-.085-1.048-2.077-3.304-2.503a.339.339 0 0 0-.147.004.276.276 0 0 0-.12.065.331.331 0 0 0-.092.27.553.553 0 0 0 .42.485zm7.156 13.748c-.192-.063-.404.038-.421.257-.002.014-.126 1.358-1.494 1.457a.275.275 0 0 0-.215.115.36.36 0 0 0-.053.263c.014.1.062.2.134.28a.52.52 0 0 0 .257.164.37.37 0 0 0 .122.013c1.855-.133 2.022-1.94 2.028-2.016a.433.433 0 0 0-.017-.162.58.58 0 0 0-.194-.289.499.499 0 0 0-.147-.082z" fill="#fff"/><path d="M93.434 74.416a.388.388 0 0 0-.015.157.516.516 0 0 0 .047.166.587.587 0 0 0 .24.26c.051.028.104.045.156.052a.322.322 0 0 0 .147-.015.27.27 0 0 0 .115-.078.304.304 0 0 0 .065-.129.794.794 0 0 1 .49-.542c.24-.088.526-.064.802.067.05.025.102.039.153.043a.313.313 0 0 0 .141-.021.27.27 0 0 0 .11-.082.308.308 0 0 0 .059-.13.414.414 0 0 0 .002-.157.59.59 0 0 0-.304-.403 1.863 1.863 0 0 0-.977-.191c-.912-1.86-.734-3.404-.732-3.42a.497.497 0 0 0-.077-.32.56.56 0 0 0-.258-.225.344.344 0 0 0-.288.003.292.292 0 0 0-.152.225c-.01.076-.219 1.817.832 3.959a1.37 1.37 0 0 0-.556.781zm8.743.343a.685.685 0 0 1 .572-.072c.211.059.413.198.566.39a.531.531 0 0 0 .279.188.31.31 0 0 0 .274-.05.32.32 0 0 0 .111-.258.535.535 0 0 0-.119-.316 2.256 2.256 0 0 0-.623-.544c.232-.76.14-1.15-.075-1.892-.043-.145-.083-.29-.123-.436l-.023-.087c-.285-1.055-.473-1.75.068-2.516a.371.371 0 0 0 .047-.294.575.575 0 0 0-.175-.298.468.468 0 0 0-.296-.128.283.283 0 0 0-.243.117c-.725 1.026-.459 2.012-.15 3.153l.024.087c.046.17.088.32.127.453.193.668.252.89.016 1.572a1.196 1.196 0 0 0-.79.196.313.313 0 0 0-.118.249.526.526 0 0 0 .105.314c.07.096.166.167.268.2a.324.324 0 0 0 .278-.028zm4.978-1.083c.233.063.462.072.672.025a.277.277 0 0 0 .202-.175.429.429 0 0 0-.015-.313.578.578 0 0 0-.221-.268.403.403 0 0 0-.299-.066.855.855 0 0 1-.611-.128 1.236 1.236 0 0 1-.471-.532.6.6 0 0 0-.232-.268.454.454 0 0 0-.154-.059.339.339 0 0 0-.15.007.264.264 0 0 0-.119.07.29.29 0 0 0-.072.124.41.41 0 0 0-.012.158.491.491 0 0 0 .05.166c.14.31.35.58.594.795-.42.944-.181 2.13.013 2.777a.568.568 0 0 0 .345.381.38.38 0 0 0 .155.022.275.275 0 0 0 .229-.15.352.352 0 0 0 .037-.146.464.464 0 0 0-.025-.167c-.132-.438-.386-1.525-.002-2.288.03.01.057.027.086.035zm3.752 8.64a.488.488 0 0 0-.039-.164.58.58 0 0 0-.225-.265.45.45 0 0 0-.151-.06 1.676 1.676 0 0 1-.554-.223 2.14 2.14 0 0 1-.825-.968 1.831 1.831 0 0 1-.144-.597.559.559 0 0 0-.135-.311.53.53 0 0 0-.282-.177.338.338 0 0 0-.147.002.276.276 0 0 0-.197.18.377.377 0 0 0-.019.152c.032.487.208.965.475 1.387-.629.597-1.452.594-1.911.527-.406-.058-.761-.196-1.172-.357-.376-.145-.802-.31-1.328-.435h-.004a2.375 2.375 0 0 0-.238-.914.57.57 0 0 0-.243-.225.364.364 0 0 0-.283-.021.279.279 0 0 0-.17.194.45.45 0 0 0 .033.304c.105.203.124.486.124.62-.394.042-.735.166-1.043.291-.55.224-.985.4-1.638.073-.591-.298-1.183-.485-1.685-.547a2.517 2.517 0 0 0-.393-.738.525.525 0 0 0-.28-.186.308.308 0 0 0-.273.054.32.32 0 0 0-.106.26.539.539 0 0 0 .122.316c.067.084.12.194.164.3-.863.137-1.296.636-1.316.66a.32.32 0 0 0-.071.187.48.48 0 0 0 .043.225.587.587 0 0 0 .143.198.504.504 0 0 0 .203.114.35.35 0 0 0 .178.004.27.27 0 0 0 .14-.085c.004-.006.433-.486 1.28-.5.438-.007 1.066.172 1.679.48.171.087.33.143.484.187.072.196.101.413.105.492a.541.541 0 0 0 .121.304c.073.09.169.156.269.183l.021.005c.103.021.2 0 .269-.061a.321.321 0 0 0 .101-.264 2.862 2.862 0 0 0-.102-.583c.361-.038.674-.166.969-.285.448-.182.871-.354 1.424-.225.463.107.844.256 1.213.399.37.144.735.27 1.137.354.071.224.065.496.055.585a.434.434 0 0 0 .015.173.6.6 0 0 0 .212.307.5.5 0 0 0 .161.08.32.32 0 0 0 .258-.032.295.295 0 0 0 .129-.217 2.52 2.52 0 0 0-.046-.806c.714-.005 1.353-.25 1.834-.7.388.352.841.59 1.295.681.104.02.2-.003.268-.065a.327.327 0 0 0 .096-.267z" fill="#fff"/></g><defs><linearGradient id="a" x1="39.054" y1="0" x2="39.054" y2="77.335" gradientUnits="userSpaceOnUse"><stop/><stop offset="1" stop-color="#666"/></linearGradient><linearGradient id="b" x1="47.175" y1="0" x2="47.175" y2="92.029" gradientUnits="userSpaceOnUse"><stop/><stop offset="1" stop-color="#666"/></linearGradient><linearGradient id="c" x1="54.907" y1="64.419" x2="52.693" y2="25.181" gradientUnits="userSpaceOnUse"><stop stop-color="#F9F9F9" stop-opacity=".8"/><stop offset="1" stop-color="#A7A7A7" stop-opacity=".6"/></linearGradient><clipPath id="d"><path fill="#fff" transform="matrix(.96593 .25882 0 1 87.69 59.165)" d="M0 0h29.149v29.149H0z"/></clipPath></defs></svg>