<svg width="437" height="461" viewBox="0 0 437 461" fill="none" xmlns="http://www.w3.org/2000/svg">
<g clip-path="url(#clip0_334_24)">
<g clip-path="url(#clip1_334_24)">
<path d="M285.211 55.0686C285.211 49.5458 281.568 43.7285 277.075 42.0754L184.785 8.12175C180.292 6.46868 176.649 9.60575 176.649 15.1286V147.985C176.649 153.508 180.292 159.325 184.785 160.978L277.075 194.932C281.568 196.585 285.211 193.448 285.211 187.925V55.0686Z" fill="url(#paint0_linear_334_24)"/>
<path d="M235.066 89.6667L224.29 79.2245L213.515 82.9026L224.29 93.3447L235.066 89.6667Z" fill="#878787"/>
<path fill-rule="evenodd" clip-rule="evenodd" d="M205.326 80.3322L213.515 88.2683V94.6695L199.801 90.365C197.626 89.6825 195.883 87.0407 195.883 84.4285V46.7744C195.883 45.5261 196.296 44.4585 197.03 43.8064C197.765 43.1544 198.762 42.9713 199.801 43.2975L201.76 43.9124V60.386L206.658 58.3933L211.556 63.4606V46.987L223.311 50.6765C224.35 51.0026 225.347 51.8113 226.081 52.9247C226.816 54.038 227.229 55.3647 227.229 56.6131V76.7109L224.29 73.8588L205.326 80.3322Z" fill="#EEEEEE"/>
<path d="M217.433 89.051V93.7577L224.29 100.405L231.147 98.0621V93.3554L224.29 95.6981L217.433 89.051Z" fill="#878787"/>
<g clip-path="url(#clip2_334_24)">
<path d="M222.162 277.785C212.134 275.101 203.55 269.111 196.409 259.815C189.268 250.518 185.697 240.685 185.697 230.315C185.697 226.408 186.204 222.848 187.218 219.636C188.895 214.323 191.958 209.961 196.409 206.55C196.858 206.206 197.312 205.878 197.772 205.566C204.635 200.917 212.764 199.85 222.162 202.365C232.19 205.049 240.774 211.04 247.915 220.336C255.056 229.632 258.627 239.465 258.627 249.835C258.627 256.701 257.062 262.493 253.932 267.213C252.334 269.622 250.329 271.751 247.915 273.601C240.774 279.074 232.19 280.469 222.162 277.785ZM149.232 333.684V307.287C149.232 301.945 148.992 298.962 151.654 295.2C153.392 292.742 157.073 289.266 159.553 287.908C160.87 287.186 162.292 286.62 163.818 286.209C173.238 283.859 182.81 282.77 192.534 282.94C202.258 283.111 212.134 284.535 222.162 287.212C232.19 289.89 242.066 293.753 251.79 298.8C261.514 303.848 271.086 310.061 280.506 317.441C284.912 320.977 288.446 325.342 291.108 330.536C293.77 335.729 295.098 340.993 295.092 346.327V363.377V372.724L149.232 333.684Z" fill="#4C4C4C"/>
<path d="M163.818 286.209C173.238 283.859 182.81 282.77 192.534 282.94C202.258 283.111 212.134 284.535 222.162 287.212C232.19 289.89 242.066 293.753 251.79 298.8C261.514 303.848 271.086 310.061 280.506 317.441C284.912 320.977 288.446 325.342 291.108 330.536C293.77 335.729 295.098 340.993 295.092 346.327V363.377L302.472 365.352V338.956C302.478 333.621 301.15 328.357 298.488 323.164C295.826 317.97 292.292 313.605 287.886 310.069C278.466 302.689 268.894 296.476 259.17 291.428C249.446 286.381 239.57 282.518 229.542 279.84C219.514 277.163 209.638 275.739 199.915 275.568C190.191 275.398 180.618 276.487 171.198 278.837C166.961 279.805 155.863 285.688 151.654 295.2C153.392 292.742 157.073 289.266 159.553 287.908C160.87 287.186 162.292 286.62 163.818 286.209Z" fill="url(#paint1_linear_334_24)"/>
<path d="M295.092 372.724L302.472 365.352L295.092 363.377V372.724Z" fill="url(#paint2_linear_334_24)"/>
<path d="M222.162 202.365C232.19 205.049 240.774 211.04 247.915 220.336C255.056 229.632 258.627 239.465 258.627 249.835C258.627 256.701 257.062 262.493 253.932 267.213C252.334 269.622 250.329 271.751 247.915 273.601C252.507 270.848 262.116 263.279 263.82 255.022C265.278 251.336 266.007 247.149 266.007 242.463C266.007 232.093 262.437 222.26 255.296 212.964C248.155 203.668 239.57 197.678 229.542 194.994C222.181 193.023 215.597 193.251 209.792 195.677C203.789 197.643 190.871 205.187 187.218 219.636C188.895 214.323 191.958 209.961 196.409 206.55C196.858 206.206 197.312 205.878 197.772 205.566C204.635 200.917 212.764 199.85 222.162 202.365Z" fill="url(#paint3_linear_334_24)"/>
</g>
<g clip-path="url(#clip3_334_24)">
<path d="M96.8336 293.583C85.8745 290.647 76.4929 284.093 68.6887 273.923C60.8845 263.752 56.9824 252.994 56.9824 241.648C56.9824 237.373 57.5363 233.479 58.6442 229.964C60.4768 224.152 63.825 219.379 68.6887 215.647C69.1793 215.271 69.6761 214.912 70.1791 214.571C77.6786 209.485 86.5634 208.317 96.8336 211.069C107.793 214.006 117.174 220.559 124.979 230.73C132.783 240.901 136.685 251.659 136.685 263.004C136.685 270.516 134.975 276.853 131.554 282.017C129.808 284.652 127.616 286.982 124.979 289.006C117.174 294.994 107.793 296.52 96.8336 293.583ZM17.1311 354.741V325.861C17.1311 320.017 16.8687 316.753 19.7778 312.636C21.6778 309.948 25.7 306.144 28.4102 304.658C29.8497 303.869 31.4035 303.25 33.0716 302.8C43.3665 300.229 53.8275 299.037 64.4545 299.224C75.0815 299.41 85.8745 300.968 96.8336 303.898C107.793 306.827 118.586 311.053 129.213 316.576C139.84 322.098 150.301 328.896 160.596 336.97C165.411 340.839 169.273 345.614 172.182 351.296C175.092 356.979 176.543 362.738 176.536 368.574V387.227V397.454L17.1311 354.741Z" fill="#389D2D"/>
<path d="M33.0716 302.8C43.3665 300.229 53.8275 299.037 64.4545 299.224C75.0815 299.41 85.8745 300.968 96.8336 303.898C107.793 306.827 118.586 311.053 129.213 316.576C139.84 322.098 150.301 328.896 160.596 336.97C165.411 340.839 169.273 345.614 172.182 351.296C175.092 356.979 176.543 362.738 176.536 368.574V387.227L184.602 389.388V360.508C184.608 354.672 183.157 348.913 180.248 343.231C177.339 337.549 173.477 332.773 168.661 328.904C158.366 320.831 147.905 314.033 137.278 308.51C126.651 302.988 115.858 298.762 104.899 295.832C93.9402 292.903 83.1471 291.345 72.5201 291.158C61.8931 290.972 51.4322 292.164 41.1373 294.734C36.5065 295.793 24.3778 302.23 19.7778 312.636C21.6778 309.948 25.7 306.144 28.4102 304.658C29.8497 303.869 31.4035 303.25 33.0716 302.8Z" fill="url(#paint4_linear_334_24)"/>
<path d="M176.536 397.454L184.602 389.388L176.536 387.227V397.454Z" fill="url(#paint5_linear_334_24)"/>
<path d="M96.8336 211.069C107.793 214.006 117.174 220.559 124.979 230.73C132.783 240.901 136.685 251.659 136.685 263.004C136.685 270.516 134.975 276.853 131.554 282.017C129.808 284.652 127.616 286.982 124.979 289.006C129.996 285.994 140.498 277.713 142.36 268.679C143.954 264.646 144.75 260.066 144.75 254.939C144.75 243.593 140.848 232.835 133.044 222.665C125.24 212.494 115.858 205.94 104.899 203.004C96.8543 200.848 89.6595 201.098 83.3147 203.751C76.7549 205.902 62.6371 214.156 58.6442 229.964C60.4768 224.152 63.825 219.379 68.6887 215.647C69.1793 215.271 69.6761 214.912 70.1791 214.571C77.6786 209.485 86.5634 208.317 96.8336 211.069Z" fill="url(#paint6_linear_334_24)"/>
</g>
<path d="M277.628 375.449C269.289 373.2 262.151 368.182 256.212 360.393C250.274 352.604 247.305 344.366 247.305 335.677C247.305 332.404 247.726 329.421 248.569 326.73C249.964 322.278 252.511 318.624 256.212 315.766C256.585 315.477 256.963 315.203 257.346 314.941C263.053 311.046 269.813 310.153 277.628 312.26C285.967 314.509 293.106 319.527 299.044 327.316C304.982 335.105 307.952 343.343 307.952 352.032C307.952 357.784 306.65 362.637 304.047 366.591C302.719 368.61 301.051 370.394 299.044 371.943C293.106 376.529 285.967 377.698 277.628 375.449ZM216.981 422.284V400.168C216.981 395.692 216.782 393.192 218.995 390.04C220.441 387.981 223.501 385.068 225.564 383.93C226.659 383.326 227.841 382.852 229.111 382.507C236.944 380.539 244.904 379.626 252.99 379.768C261.077 379.911 269.289 381.104 277.628 383.348C285.967 385.591 294.18 388.828 302.266 393.056C310.352 397.285 318.312 402.491 326.146 408.674C329.81 411.637 332.749 415.294 334.962 419.646C337.176 423.997 338.28 428.407 338.275 432.877V447.161V454.993L216.981 422.284Z" fill="#389D2D"/>
<path d="M229.111 382.507C236.944 380.539 244.904 379.626 252.99 379.768C261.077 379.911 269.289 381.104 277.628 383.348C285.967 385.591 294.18 388.828 302.266 393.056C310.352 397.285 318.312 402.491 326.146 408.674C329.81 411.637 332.749 415.294 334.962 419.646C337.176 423.997 338.28 428.407 338.275 432.877V447.161L344.412 448.816V426.7C344.417 422.231 343.313 417.821 341.099 413.469C338.886 409.118 335.947 405.461 332.283 402.498C324.449 396.315 316.489 391.109 308.403 386.88C300.317 382.651 292.104 379.415 283.765 377.171C275.426 374.928 267.214 373.735 259.128 373.592C251.041 373.449 243.081 374.362 235.248 376.331C231.724 377.142 222.495 382.07 218.995 390.04C220.441 387.981 223.501 385.068 225.564 383.93C226.659 383.326 227.841 382.852 229.111 382.507Z" fill="url(#paint7_linear_334_24)"/>
<path d="M338.275 454.993L344.412 448.816L338.275 447.161V454.993Z" fill="url(#paint8_linear_334_24)"/>
<path d="M277.628 312.26C285.967 314.509 293.106 319.527 299.044 327.316C304.982 335.105 307.952 343.343 307.952 352.032C307.952 357.784 306.65 362.637 304.047 366.591C302.719 368.61 301.051 370.394 299.044 371.943C302.862 369.637 310.853 363.295 312.27 356.377C313.483 353.289 314.089 349.782 314.089 345.855C314.089 337.167 311.12 328.928 305.181 321.14C299.243 313.351 292.104 308.332 283.765 306.083C277.644 304.433 272.169 304.624 267.341 306.656C262.35 308.303 251.607 314.624 248.569 326.73C249.964 322.278 252.511 318.624 256.212 315.766C256.585 315.477 256.963 315.203 257.346 314.941C263.053 311.046 269.813 310.153 277.628 312.26Z" fill="url(#paint9_linear_334_24)"/>
<g clip-path="url(#clip4_334_24)">
<path d="M124.184 193.932L108.477 189.723C107.55 189.476 106.635 189.448 105.8 189.642C104.965 189.837 104.232 190.248 103.656 190.846L85.4619 200.984C84.8791 201.583 84.1399 201.994 83.2989 202.187C82.458 202.38 81.5369 202.351 80.6038 202.101C79.6707 201.851 78.7495 201.386 77.9086 200.743C77.0676 200.099 76.3284 199.292 75.7457 198.381L57.5511 178.493C56.9744 177.585 56.2407 176.78 55.4048 176.138C54.5689 175.495 53.6525 175.033 52.7241 174.784L37.0986 170.597C26.7603 167.827 18.4375 156.981 18.4375 146.278L18.4375 101.199C18.4375 90.4963 26.7603 84.11 37.0986 86.8801L124.184 110.214C134.528 112.986 142.845 123.831 142.845 134.534V179.613C142.845 190.316 134.528 196.704 124.184 193.932Z" fill="url(#paint10_linear_334_24)"/>
<path d="M124.184 193.932L108.477 189.723C107.55 189.476 106.635 189.448 105.8 189.642C104.965 189.837 104.232 190.248 103.656 190.846L85.4619 200.984C84.8791 201.583 84.1399 201.994 83.2989 202.187C82.458 202.38 81.5369 202.351 80.6038 202.101C79.6707 201.851 78.7495 201.386 77.9086 200.743C77.0676 200.099 76.3284 199.292 75.7457 198.381L57.5511 178.493C56.9744 177.585 56.2407 176.78 55.4048 176.138C54.5689 175.495 53.6525 175.033 52.7241 174.784L37.0986 170.597C26.7603 167.827 18.4375 156.981 18.4375 146.278L18.4375 101.199C18.4375 90.4963 26.7603 84.11 37.0986 86.8801L124.184 110.214C134.528 112.986 142.845 123.831 142.845 134.534V179.613C142.845 190.316 134.528 196.704 124.184 193.932Z" fill="url(#paint11_linear_334_24)"/>
</g>
<rect width="98.4659" height="73.7543" rx="5" transform="matrix(0.965926 0.258819 0 1 321.922 235.137)" fill="url(#paint12_linear_334_24)"/>
<rect x="0.482963" y="0.62941" width="97.4659" height="72.7543" rx="4.5" transform="matrix(0.965926 0.258819 0 1 315.141 236.711)" stroke="#3D3D3D" stroke-dasharray="12 12"/>
</g>
</g>
<defs>
<linearGradient id="paint0_linear_334_24" x1="193.187" y1="230.794" x2="245.713" y2="121.974" gradientUnits="userSpaceOnUse">
<stop stop-color="#F9F9F9"/>
<stop offset="1" stop-color="#FDFDFD"/>
</linearGradient>
<linearGradient id="paint1_linear_334_24" x1="225.849" y1="193.669" x2="225.849" y2="372.724" gradientUnits="userSpaceOnUse">
<stop stop-color="#4C4C4C"/>
<stop offset="1" stop-color="#B2B2B2"/>
</linearGradient>
<linearGradient id="paint2_linear_334_24" x1="225.849" y1="193.669" x2="225.849" y2="372.724" gradientUnits="userSpaceOnUse">
<stop stop-color="#4C4C4C"/>
<stop offset="1" stop-color="#B2B2B2"/>
</linearGradient>
<linearGradient id="paint3_linear_334_24" x1="225.849" y1="193.669" x2="225.849" y2="372.724" gradientUnits="userSpaceOnUse">
<stop stop-color="#4C4C4C"/>
<stop offset="1" stop-color="#B2B2B2"/>
</linearGradient>
<linearGradient id="paint4_linear_334_24" x1="100.863" y1="201.555" x2="100.863" y2="397.454" gradientUnits="userSpaceOnUse">
<stop stop-color="#389D2D"/>
<stop offset="1" stop-color="#143710"/>
</linearGradient>
<linearGradient id="paint5_linear_334_24" x1="100.863" y1="201.555" x2="100.863" y2="397.454" gradientUnits="userSpaceOnUse">
<stop stop-color="#389D2D"/>
<stop offset="1" stop-color="#143710"/>
</linearGradient>
<linearGradient id="paint6_linear_334_24" x1="100.863" y1="201.555" x2="100.863" y2="397.454" gradientUnits="userSpaceOnUse">
<stop stop-color="#389D2D"/>
<stop offset="1" stop-color="#143710"/>
</linearGradient>
<linearGradient id="paint7_linear_334_24" x1="280.694" y1="304.974" x2="280.694" y2="454.993" gradientUnits="userSpaceOnUse">
<stop stop-color="#389D2D"/>
<stop offset="1" stop-color="#143710"/>
</linearGradient>
<linearGradient id="paint8_linear_334_24" x1="280.694" y1="304.974" x2="280.694" y2="454.993" gradientUnits="userSpaceOnUse">
<stop stop-color="#389D2D"/>
<stop offset="1" stop-color="#143710"/>
</linearGradient>
<linearGradient id="paint9_linear_334_24" x1="280.694" y1="304.974" x2="280.694" y2="454.993" gradientUnits="userSpaceOnUse">
<stop stop-color="#389D2D"/>
<stop offset="1" stop-color="#143710"/>
</linearGradient>
<linearGradient id="paint10_linear_334_24" x1="100.552" y1="174.944" x2="116.788" y2="108.51" gradientUnits="userSpaceOnUse">
<stop stop-color="#F9F9F9" stop-opacity="0.8"/>
<stop offset="1" stop-color="#EEEEEE"/>
</linearGradient>
<linearGradient id="paint11_linear_334_24" x1="123.893" y1="258.907" x2="141.382" y2="171.501" gradientUnits="userSpaceOnUse">
<stop stop-color="#F9F9F9"/>
<stop offset="1" stop-color="#FDFDFD"/>
</linearGradient>
<linearGradient id="paint12_linear_334_24" x1="83.4664" y1="105.949" x2="79.5277" y2="41.4504" gradientUnits="userSpaceOnUse">
<stop stop-color="#F9F9F9"/>
<stop offset="1" stop-color="#FDFDFD"/>
</linearGradient>
<clipPath id="clip0_334_24">
<rect width="437" height="461" fill="white"/>
</clipPath>
<clipPath id="clip1_334_24">
<rect width="510" height="480" fill="white" transform="translate(-26 -23)"/>
</clipPath>
<clipPath id="clip2_334_24">
<rect width="166.166" height="231.741" fill="white" transform="matrix(0.965926 0.258819 0 1 149.227 145.822)"/>
</clipPath>
<clipPath id="clip3_334_24">
<rect width="173.682" height="241.752" fill="white" transform="matrix(0.965926 0.258819 0 1 16.9531 155.977)"/>
</clipPath>
<clipPath id="clip4_334_24">
<rect width="154.555" height="154.555" fill="white" transform="matrix(0.965926 0.258819 0 1 6 59.2266)"/>
</clipPath>
</defs>
</svg>
