<svg width="437" height="461" fill="none" xmlns="http://www.w3.org/2000/svg"><g clip-path="url(#a)"><g clip-path="url(#b)"><path d="M285.211 55.069c0-5.523-3.643-11.34-8.136-12.994l-92.29-33.953c-4.493-1.653-8.136 1.484-8.136 7.007v132.856c0 5.523 3.643 11.34 8.136 12.993l92.29 33.954c4.493 1.653 8.136-1.484 8.136-7.007V55.069z" fill="url(#c)"/><path d="M235.066 89.667 224.29 79.225l-10.775 3.678 10.775 10.442 10.776-3.678z" fill="#878787"/><path fill-rule="evenodd" clip-rule="evenodd" d="m205.326 80.332 8.189 7.936v6.401l-13.714-4.304c-2.175-.682-3.918-3.324-3.918-5.936V46.773c0-1.248.413-2.316 1.147-2.968.735-.652 1.732-.835 2.771-.508l1.959.614v16.474l4.898-1.993 4.898 5.068V46.987l11.755 3.69c1.039.326 2.036 1.134 2.77 2.248.735 1.113 1.148 2.44 1.148 3.688v20.098l-2.939-2.852-18.964 6.473z" fill="#EEE"/><path d="M217.433 89.051v4.707l6.857 6.647 6.857-2.343v-4.707l-6.857 2.343-6.857-6.647z" fill="#878787"/><g clip-path="url(#d)"><path d="M222.162 277.785c-10.028-2.684-18.612-8.674-25.753-17.97-7.141-9.297-10.712-19.13-10.712-29.5 0-3.907.507-7.467 1.521-10.679 1.677-5.313 4.74-9.675 9.191-13.086.449-.344.903-.672 1.363-.984 6.863-4.649 14.992-5.716 24.39-3.201 10.028 2.684 18.612 8.675 25.753 17.971 7.141 9.296 10.712 19.129 10.712 29.499 0 6.866-1.565 12.658-4.695 17.378-1.598 2.409-3.603 4.538-6.017 6.388-7.141 5.473-15.725 6.868-25.753 4.184zm-72.93 55.899v-26.397c0-5.342-.24-8.325 2.422-12.087 1.738-2.458 5.419-5.934 7.899-7.292a19.247 19.247 0 0 1 4.265-1.699 110.172 110.172 0 0 1 28.716-3.269c9.724.171 19.6 1.595 29.628 4.272 10.028 2.678 19.904 6.541 29.628 11.588 9.724 5.048 19.296 11.261 28.716 18.641 4.406 3.536 7.94 7.901 10.602 13.095 2.662 5.193 3.99 10.457 3.984 15.791v26.397l-145.86-39.04z" fill="#4C4C4C"/><path d="M163.818 286.209a110.172 110.172 0 0 1 28.716-3.269c9.724.171 19.6 1.595 29.628 4.272 10.028 2.678 19.904 6.541 29.628 11.588 9.724 5.048 19.296 11.261 28.716 18.641 4.406 3.536 7.94 7.901 10.602 13.095 2.662 5.193 3.99 10.457 3.984 15.791v17.05l7.38 1.975v-26.396c.006-5.335-1.322-10.599-3.984-15.792-2.662-5.194-6.196-9.559-10.602-13.095-9.42-7.38-18.992-13.593-28.716-18.641-9.724-5.047-19.6-8.91-29.628-11.588-10.028-2.677-19.904-4.101-29.627-4.272a110.18 110.18 0 0 0-28.717 3.269c-4.237.968-15.335 6.851-19.544 16.363 1.738-2.458 5.419-5.934 7.899-7.292a19.247 19.247 0 0 1 4.265-1.699z" fill="url(#e)"/><path d="m295.092 372.724 7.38-7.372-7.38-1.975v9.347z" fill="url(#f)"/><path d="M222.162 202.365c10.028 2.684 18.612 8.675 25.753 17.971 7.141 9.296 10.712 19.129 10.712 29.499 0 6.866-1.565 12.658-4.695 17.378-1.598 2.409-3.603 4.538-6.017 6.388 4.592-2.753 14.201-10.322 15.905-18.579 1.458-3.686 2.187-7.873 2.187-12.559 0-10.37-3.57-20.203-10.711-29.499s-15.726-15.286-25.754-17.97c-7.361-1.971-13.945-1.743-19.75.683-6.003 1.966-18.921 9.51-22.574 23.959 1.677-5.313 4.74-9.675 9.191-13.086.449-.344.903-.672 1.363-.984 6.863-4.649 14.992-5.716 24.39-3.201z" fill="url(#g)"/></g><g clip-path="url(#h)"><path d="M96.834 293.583c-10.96-2.936-20.341-9.49-28.145-19.66-7.804-10.171-11.707-20.929-11.707-32.275 0-4.275.554-8.169 1.662-11.684 1.833-5.812 5.181-10.585 10.045-14.317.49-.376.987-.735 1.49-1.076 7.5-5.086 16.384-6.254 26.655-3.502 10.959 2.937 20.34 9.49 28.145 19.661 7.804 10.171 11.706 20.929 11.706 32.274 0 7.512-1.71 13.849-5.131 19.013-1.746 2.635-3.938 4.965-6.575 6.989-7.805 5.988-17.186 7.514-28.145 4.577zM17.13 354.741v-28.88c0-5.844-.262-9.108 2.647-13.225 1.9-2.688 5.922-6.492 8.632-7.978a21.08 21.08 0 0 1 4.662-1.858 120.238 120.238 0 0 1 31.382-3.576c10.628.186 21.42 1.744 32.38 4.674 10.959 2.929 21.752 7.155 32.379 12.678 10.627 5.522 21.088 12.32 31.383 20.394 4.815 3.869 8.677 8.644 11.586 14.326 2.91 5.683 4.361 11.442 4.354 17.278v28.88L17.131 354.741z" fill="#389D2D"/><path d="M33.072 302.8a120.238 120.238 0 0 1 31.382-3.576c10.628.186 21.42 1.744 32.38 4.674 10.959 2.929 21.752 7.155 32.379 12.678 10.627 5.522 21.088 12.32 31.383 20.394 4.815 3.869 8.677 8.644 11.586 14.326 2.91 5.683 4.361 11.442 4.354 17.278v18.653l8.066 2.161v-28.88c.006-5.836-1.445-11.595-4.354-17.277s-6.771-10.458-11.587-14.327c-10.295-8.073-20.756-14.871-31.383-20.394-10.627-5.522-21.42-9.748-32.379-12.678-10.959-2.929-21.752-4.487-32.379-4.674a120.322 120.322 0 0 0-31.383 3.576c-4.63 1.059-16.76 7.496-21.36 17.902 1.9-2.688 5.923-6.492 8.633-7.978a21.08 21.08 0 0 1 4.662-1.858z" fill="url(#i)"/><path d="m176.536 397.454 8.066-8.066-8.066-2.161v10.227z" fill="url(#j)"/><path d="M96.834 211.069c10.959 2.937 20.34 9.49 28.145 19.661 7.804 10.171 11.706 20.929 11.706 32.274 0 7.512-1.71 13.849-5.131 19.013-1.746 2.635-3.938 4.965-6.575 6.989 5.017-3.012 15.519-11.293 17.381-20.327 1.594-4.033 2.39-8.613 2.39-13.74 0-11.346-3.902-22.104-11.706-32.274-7.804-10.171-17.186-16.725-28.145-19.661-8.045-2.156-15.24-1.906-21.584.747-6.56 2.151-20.678 10.405-24.67 26.213 1.832-5.812 5.18-10.585 10.044-14.317.49-.376.987-.735 1.49-1.076 7.5-5.086 16.384-6.254 26.655-3.502z" fill="url(#k)"/></g><path d="M277.628 375.449c-8.339-2.249-15.477-7.267-21.416-15.056-5.938-7.789-8.907-16.027-8.907-24.716 0-3.273.421-6.256 1.264-8.947 1.395-4.452 3.942-8.106 7.643-10.964.373-.289.751-.563 1.134-.825 5.707-3.895 12.467-4.788 20.282-2.681 8.339 2.249 15.478 7.267 21.416 15.056 5.938 7.789 8.908 16.027 8.908 24.716 0 5.752-1.302 10.605-3.905 14.559-1.328 2.019-2.996 3.803-5.003 5.352-5.938 4.586-13.077 5.755-21.416 3.506zm-60.647 46.835v-22.116c0-4.476-.199-6.976 2.014-10.128 1.446-2.059 4.506-4.972 6.569-6.11a15.99 15.99 0 0 1 3.547-1.423 91.016 91.016 0 0 1 23.879-2.739c8.087.143 16.299 1.336 24.638 3.58 8.339 2.243 16.552 5.48 24.638 9.708 8.086 4.229 16.046 9.435 23.88 15.618 3.664 2.963 6.603 6.62 8.816 10.972 2.214 4.351 3.318 8.761 3.313 13.231v22.116l-121.294-32.709z" fill="#389D2D"/><path d="M229.111 382.507a91.016 91.016 0 0 1 23.879-2.739c8.087.143 16.299 1.336 24.638 3.58 8.339 2.243 16.552 5.48 24.638 9.708 8.086 4.229 16.046 9.435 23.88 15.618 3.664 2.963 6.603 6.62 8.816 10.972 2.214 4.351 3.318 8.761 3.313 13.231v14.284l6.137 1.655V426.7c.005-4.469-1.099-8.879-3.313-13.231-2.213-4.351-5.152-8.008-8.816-10.971-7.834-6.183-15.794-11.389-23.88-15.618-8.086-4.229-16.299-7.465-24.638-9.709-8.339-2.243-16.551-3.436-24.637-3.579a90.934 90.934 0 0 0-23.88 2.739c-3.524.811-12.753 5.739-16.253 13.709 1.446-2.059 4.506-4.972 6.569-6.11a15.99 15.99 0 0 1 3.547-1.423z" fill="url(#l)"/><path d="m338.275 454.993 6.137-6.177-6.137-1.655v7.832z" fill="url(#m)"/><path d="M277.628 312.26c8.339 2.249 15.478 7.267 21.416 15.056 5.938 7.789 8.908 16.027 8.908 24.716 0 5.752-1.302 10.605-3.905 14.559-1.328 2.019-2.996 3.803-5.003 5.352 3.818-2.306 11.809-8.648 13.226-15.566 1.213-3.088 1.819-6.595 1.819-10.522 0-8.688-2.969-16.927-8.908-24.715-5.938-7.789-13.077-12.808-21.416-15.057-6.121-1.65-11.596-1.459-16.424.573-4.991 1.647-15.734 7.968-18.772 20.074 1.395-4.452 3.942-8.106 7.643-10.964.373-.289.751-.563 1.134-.825 5.707-3.895 12.467-4.788 20.282-2.681z" fill="url(#n)"/><g clip-path="url(#o)"><path d="m124.184 193.932-15.707-4.209c-.927-.247-1.842-.275-2.677-.081a4.304 4.304 0 0 0-2.144 1.204l-18.194 10.138a4.341 4.341 0 0 1-2.163 1.203c-.841.193-1.762.164-2.695-.086-.933-.25-1.855-.715-2.695-1.358a9.29 9.29 0 0 1-2.163-2.362L57.55 178.493a9.197 9.197 0 0 0-2.146-2.355c-.836-.643-1.752-1.105-2.68-1.354l-15.626-4.187c-10.339-2.77-18.661-13.616-18.661-24.319v-45.079c0-10.703 8.322-17.089 18.66-14.319l87.086 23.334c10.344 2.772 18.661 13.617 18.661 24.32v45.079c0 10.703-8.317 17.091-18.661 14.319z" fill="url(#p)"/><path d="m124.184 193.932-15.707-4.209c-.927-.247-1.842-.275-2.677-.081a4.304 4.304 0 0 0-2.144 1.204l-18.194 10.138a4.341 4.341 0 0 1-2.163 1.203c-.841.193-1.762.164-2.695-.086-.933-.25-1.855-.715-2.695-1.358a9.29 9.29 0 0 1-2.163-2.362L57.55 178.493a9.197 9.197 0 0 0-2.146-2.355c-.836-.643-1.752-1.105-2.68-1.354l-15.626-4.187c-10.339-2.77-18.661-13.616-18.661-24.319v-45.079c0-10.703 8.322-17.089 18.66-14.319l87.086 23.334c10.344 2.772 18.661 13.617 18.661 24.32v45.079c0 10.703-8.317 17.091-18.661 14.319z" fill="url(#q)"/></g><rect width="98.466" height="73.754" rx="5" transform="matrix(.96593 .25882 0 1 321.922 235.137)" fill="url(#r)"/><rect x=".483" y=".629" width="97.466" height="72.754" rx="4.5" transform="matrix(.96593 .25882 0 1 315.141 236.711)" stroke="#3D3D3D" stroke-dasharray="12 12"/></g></g><defs><linearGradient id="n" x1="280.694" y1="304.974" x2="280.694" y2="454.993" gradientUnits="userSpaceOnUse"><stop stop-color="#389D2D"/><stop offset="1" stop-color="#143710"/></linearGradient><linearGradient id="c" x1="193.187" y1="230.794" x2="245.713" y2="121.974" gradientUnits="userSpaceOnUse"><stop stop-color="#F9F9F9"/><stop offset="1" stop-color="#FDFDFD"/></linearGradient><linearGradient id="f" x1="225.849" y1="193.669" x2="225.849" y2="372.724" gradientUnits="userSpaceOnUse"><stop stop-color="#4C4C4C"/><stop offset="1" stop-color="#B2B2B2"/></linearGradient><linearGradient id="g" x1="225.849" y1="193.669" x2="225.849" y2="372.724" gradientUnits="userSpaceOnUse"><stop stop-color="#4C4C4C"/><stop offset="1" stop-color="#B2B2B2"/></linearGradient><linearGradient id="i" x1="100.863" y1="201.555" x2="100.863" y2="397.454" gradientUnits="userSpaceOnUse"><stop stop-color="#389D2D"/><stop offset="1" stop-color="#143710"/></linearGradient><linearGradient id="j" x1="100.863" y1="201.555" x2="100.863" y2="397.454" gradientUnits="userSpaceOnUse"><stop stop-color="#389D2D"/><stop offset="1" stop-color="#143710"/></linearGradient><linearGradient id="k" x1="100.863" y1="201.555" x2="100.863" y2="397.454" gradientUnits="userSpaceOnUse"><stop stop-color="#389D2D"/><stop offset="1" stop-color="#143710"/></linearGradient><linearGradient id="l" x1="280.694" y1="304.974" x2="280.694" y2="454.993" gradientUnits="userSpaceOnUse"><stop stop-color="#389D2D"/><stop offset="1" stop-color="#143710"/></linearGradient><linearGradient id="m" x1="280.694" y1="304.974" x2="280.694" y2="454.993" gradientUnits="userSpaceOnUse"><stop stop-color="#389D2D"/><stop offset="1" stop-color="#143710"/></linearGradient><linearGradient id="e" x1="225.849" y1="193.669" x2="225.849" y2="372.724" gradientUnits="userSpaceOnUse"><stop stop-color="#4C4C4C"/><stop offset="1" stop-color="#B2B2B2"/></linearGradient><linearGradient id="p" x1="100.552" y1="174.944" x2="116.788" y2="108.51" gradientUnits="userSpaceOnUse"><stop stop-color="#F9F9F9" stop-opacity=".8"/><stop offset="1" stop-color="#EEE"/></linearGradient><linearGradient id="q" x1="123.893" y1="258.907" x2="141.382" y2="171.501" gradientUnits="userSpaceOnUse"><stop stop-color="#F9F9F9"/><stop offset="1" stop-color="#FDFDFD"/></linearGradient><linearGradient id="r" x1="83.466" y1="105.949" x2="79.528" y2="41.45" gradientUnits="userSpaceOnUse"><stop stop-color="#F9F9F9"/><stop offset="1" stop-color="#FDFDFD"/></linearGradient><clipPath id="a"><path fill="#fff" d="M0 0h437v461H0z"/></clipPath><clipPath id="b"><path fill="#fff" transform="translate(-26 -23)" d="M0 0h510v480H0z"/></clipPath><clipPath id="d"><path fill="#fff" transform="matrix(.96593 .25882 0 1 149.227 145.822)" d="M0 0h166.166v231.741H0z"/></clipPath><clipPath id="h"><path fill="#fff" transform="matrix(.96593 .25882 0 1 16.953 155.977)" d="M0 0h173.682v241.752H0z"/></clipPath><clipPath id="o"><path fill="#fff" transform="matrix(.96593 .25882 0 1 6 59.227)" d="M0 0h154.555v154.555H0z"/></clipPath></defs></svg>