<svg width="151" height="304" viewBox="0 0 151 304" fill="none" xmlns="http://www.w3.org/2000/svg">
<path d="M75.0001 303.207L77.8869 298.207H72.1133L75.0001 303.207ZM75.0001 277.667C76.4729 277.667 77.6668 276.473 77.6668 275C77.6668 273.527 76.4729 272.333 75.0001 272.333C73.5273 272.333 72.3334 273.527 72.3334 275C72.3334 276.473 73.5273 277.667 75.0001 277.667ZM75.0001 298.707H75.5001V275H75.0001H74.5001V298.707H75.0001Z" fill="url(#paint0_linear_4192_5748)"/>
<path fill-rule="evenodd" clip-rule="evenodd" d="M69.0524 108.821C73.2869 106.38 80.1524 106.38 84.387 108.821L138.014 139.726C139.543 140.607 140.494 142.228 140.517 143.992L141.464 214.952C141.464 219.832 138.031 225.767 133.796 228.208L78.2323 259.79C76.691 260.666 74.801 260.66 73.2649 259.775L19.6672 228.887C15.4328 226.446 12 220.511 12 215.631L12.0016 145.503C12.0017 143.738 12.9327 142.103 14.4511 141.203L69.0524 108.821ZM82.8535 109.704L136.481 140.61C138.009 141.491 138.96 143.112 138.984 144.875L139.93 215.835L139.923 216.204C139.758 220.034 137.078 224.549 133.796 226.44L78.2323 258.023C76.691 258.899 74.801 258.893 73.2649 258.008L19.6672 227.119C16.3856 225.228 13.7054 220.713 13.5409 216.883L13.5335 216.514V146.387C13.5335 144.621 14.4645 142.987 15.983 142.086L70.5859 109.704L70.9093 109.526C74.3145 107.753 79.5717 107.813 82.8535 109.704Z" fill="url(#paint1_linear_4192_5748)"/>
<path d="M140.113 213.972V196.837" stroke="url(#paint2_radial_4192_5748)"/>
<path d="M13.1133 213.972V196.837" stroke="url(#paint3_radial_4192_5748)"/>
<path d="M13.1641 154V200.645" stroke="url(#paint4_radial_4192_5748)"/>
<path d="M138.986 144.875C138.962 143.112 138.011 141.491 136.483 140.61L82.8552 109.704C79.5734 107.813 74.3162 107.753 70.911 109.526L70.5876 109.704L15.9847 142.086C14.4662 142.987 13.5352 144.621 13.5352 146.387V216.514L13.5426 216.883C13.7071 220.713 16.3873 225.228 19.6689 227.119L73.2666 258.008C74.8027 258.893 76.6927 258.899 78.234 258.023L133.798 226.44C137.08 224.549 139.76 220.034 139.925 216.204L139.932 215.835L138.986 144.875Z" fill="#F9F9F9"/>
<path fill-rule="evenodd" clip-rule="evenodd" d="M88.7617 204.379C88.6767 204.375 88.5916 204.374 88.5065 204.375H84.9554C82.0504 204.375 79.5625 206.68 79.5625 209.688C79.5625 212.695 82.0504 215 84.9569 215H88.505C88.5944 215.001 88.6795 214.999 88.7602 214.994C89.3596 214.956 89.9245 214.7 90.3499 214.276C90.7754 213.852 91.0323 213.288 91.0731 212.689C91.079 212.603 91.079 212.511 91.079 212.426V206.949C91.079 206.864 91.079 206.772 91.0731 206.686C91.0324 206.087 90.7756 205.523 90.3505 205.099C89.9254 204.675 89.3608 204.42 88.7617 204.381M84.6448 211.105C85.3929 211.105 86.001 210.472 86.001 209.689C86.001 208.906 85.3929 208.273 84.6448 208.273C83.8967 208.273 83.29 208.906 83.29 209.689C83.29 210.472 83.8952 211.105 84.6448 211.105Z" fill="#389D2D"/>
<path fill-rule="evenodd" clip-rule="evenodd" d="M88.5053 217.125C88.5542 217.123 88.6027 217.133 88.6471 217.153C88.6915 217.174 88.7304 217.205 88.7608 217.243C88.7912 217.281 88.8121 217.326 88.822 217.374C88.8318 217.422 88.8302 217.471 88.8174 217.519C88.5345 218.528 88.0868 219.388 87.3678 220.112C86.3164 221.172 84.982 221.643 83.3341 221.866C81.7328 222.083 79.6882 222.083 77.1041 222.083H74.1334C71.5507 222.083 69.5047 222.083 67.9034 221.866C66.2555 221.643 64.9211 221.172 63.8697 220.112C62.8182 219.054 62.3516 217.708 62.1299 216.049C61.9141 214.433 61.9141 212.371 61.9141 209.768V209.607C61.9141 207.004 61.9141 204.94 62.1299 203.328C62.3516 201.667 62.8182 200.325 63.8682 199.262C64.9197 198.203 66.2541 197.73 67.902 197.509C69.5047 197.292 71.5507 197.292 74.1334 197.292H77.1041C79.6868 197.292 81.7328 197.292 83.3341 197.509C84.982 197.732 86.3164 198.203 87.3678 199.262C88.0868 199.987 88.5345 200.847 88.8174 201.858C88.8299 201.905 88.8313 201.954 88.8213 202.002C88.8114 202.049 88.7904 202.094 88.7601 202.132C88.7297 202.17 88.6909 202.201 88.6467 202.221C88.6024 202.242 88.554 202.251 88.5053 202.25H84.9572C80.9701 202.25 77.457 205.425 77.457 209.687C77.457 213.95 80.9716 217.125 84.9586 217.125H88.5053ZM67.1845 202.959C67.0456 202.959 66.9083 202.987 66.7802 203.041C66.6521 203.094 66.5359 203.173 66.4381 203.271C66.3404 203.37 66.263 203.487 66.2104 203.615C66.1578 203.744 66.131 203.881 66.1316 204.02C66.1316 204.608 66.6026 205.083 67.1845 205.083H72.8078C73.3911 205.083 73.8622 204.608 73.8622 204.02C73.863 203.74 73.7524 203.47 73.5547 203.271C73.357 203.072 73.0884 202.96 72.8078 202.959H67.1845Z" fill="#389D2D"/>
<path d="M70.3438 195.868L73.1992 193.764C73.9444 193.213 74.8464 192.916 75.773 192.916C76.6996 192.916 77.6018 193.213 78.347 193.764L81.2184 195.88C80.0168 195.833 78.6751 195.833 77.2066 195.833H74.042C72.6974 195.833 71.4622 195.833 70.3438 195.868Z" fill="#389D2D"/>
<path d="M12.9799 201.277C16.8347 201.277 19.9597 198.152 19.9597 194.297C19.9597 190.442 16.8347 187.317 12.9799 187.317C9.12499 187.317 6 190.442 6 194.297C6 198.152 9.12499 201.277 12.9799 201.277Z" fill="#ACD4A7"/>
<path d="M12.9809 198.486C15.2938 198.486 17.1688 196.611 17.1688 194.298C17.1688 191.985 15.2938 190.11 12.9809 190.11C10.668 190.11 8.79297 191.985 8.79297 194.298C8.79297 196.611 10.668 198.486 12.9809 198.486Z" fill="#389D2D"/>
<path d="M140.164 154V200.645" stroke="url(#paint5_radial_4192_5748)"/>
<path d="M139.98 201.277C143.835 201.277 146.96 198.152 146.96 194.297C146.96 190.442 143.835 187.317 139.98 187.317C136.125 187.317 133 190.442 133 194.297C133 198.152 136.125 201.277 139.98 201.277Z" fill="#ACD4A7"/>
<path d="M139.981 198.486C142.294 198.486 144.169 196.611 144.169 194.298C144.169 191.985 142.294 190.11 139.981 190.11C137.668 190.11 135.793 191.985 135.793 194.298C135.793 196.611 137.668 198.486 139.981 198.486Z" fill="#389D2D"/>
<path d="M73.1653 117.138L25.3346 144.753C23.1823 145.996 23.1823 148.01 25.3346 149.253L71.6914 176.017C73.8437 177.26 77.3333 177.26 79.4856 176.017L127.316 148.402C129.469 147.159 129.469 145.145 127.316 143.902L80.9596 117.138C78.8072 115.895 75.3177 115.895 73.1653 117.138Z" stroke="#DDDDDD"/>
<path d="M72.3179 3.88917L3.88901 72.318C2.13165 74.0754 2.13165 76.9246 3.88901 78.682L72.3179 147.111C74.0752 148.868 76.9245 148.868 78.6818 147.111L147.111 78.682C148.868 76.9246 148.868 74.0754 147.111 72.318L78.6818 3.88917C76.9245 2.13181 74.0752 2.13181 72.3179 3.88917Z" fill="url(#paint6_linear_4192_5748)" stroke="url(#paint7_linear_4192_5748)"/>
<path d="M45.4642 81.5022C45.3575 81.5022 45.2668 81.4649 45.1922 81.3902C45.1282 81.3262 45.0962 81.2409 45.0962 81.1342V79.8702C43.5175 79.8702 42.3068 79.5289 41.4642 78.8462C40.6322 78.1529 40.1468 77.1129 40.0082 75.7262C40.0082 75.6089 40.0028 75.4862 39.9922 75.3582C39.9922 75.2302 39.9922 75.1022 39.9922 74.9742C40.0028 74.8462 40.0082 74.7236 40.0082 74.6062C40.0615 73.6782 40.2962 72.9102 40.7122 72.3022C41.1388 71.6836 41.7255 71.2249 42.4722 70.9262C43.2188 70.6169 44.0935 70.4622 45.0962 70.4622V69.3582C45.0962 69.2516 45.1282 69.1662 45.1922 69.1022C45.2668 69.0276 45.3575 68.9902 45.4642 68.9902H46.2962C46.4028 68.9902 46.4882 69.0276 46.5522 69.1022C46.6268 69.1662 46.6642 69.2516 46.6642 69.3582V70.4622C47.6668 70.4622 48.5415 70.6169 49.2882 70.9262C50.0348 71.2249 50.6215 71.6836 51.0482 72.3022C51.4748 72.9102 51.7095 73.6782 51.7522 74.6062C51.7628 74.8089 51.7682 74.9956 51.7682 75.1662C51.7788 75.3262 51.7735 75.5129 51.7522 75.7262C51.6242 77.1129 51.1388 78.1529 50.2962 78.8462C49.4642 79.5289 48.2535 79.8702 46.6642 79.8702V81.1342C46.6642 81.2409 46.6268 81.3262 46.5522 81.3902C46.4882 81.4649 46.4028 81.5022 46.2962 81.5022H45.4642ZM45.0962 78.4942V71.8222C44.0508 71.8222 43.2295 72.0462 42.6322 72.4942C42.0455 72.9422 41.7042 73.6729 41.6082 74.6862C41.5975 74.8569 41.5922 75.0169 41.5922 75.1662C41.5922 75.3049 41.5975 75.4649 41.6082 75.6462C41.6615 76.6489 41.9922 77.3742 42.6002 77.8222C43.2082 78.2702 44.0402 78.4942 45.0962 78.4942ZM46.6642 78.4942C47.7202 78.4942 48.5522 78.2702 49.1602 77.8222C49.7682 77.3742 50.0988 76.6489 50.1522 75.6462C50.1628 75.5396 50.1682 75.4329 50.1682 75.3262C50.1682 75.2196 50.1682 75.1129 50.1682 75.0062C50.1682 74.8889 50.1628 74.7822 50.1522 74.6862C50.0455 73.6729 49.6988 72.9422 49.1122 72.4942C48.5255 72.0462 47.7095 71.8222 46.6642 71.8222V78.4942ZM54.2713 80.9902C54.1753 80.9902 54.0899 80.9582 54.0153 80.8942C53.9513 80.8196 53.9193 80.7396 53.9193 80.6542V73.0382C53.9193 72.9316 53.9513 72.8462 54.0153 72.7822C54.0899 72.7076 54.1806 72.6702 54.2873 72.6702H55.0553C55.1619 72.6702 55.2473 72.7076 55.3113 72.7822C55.3753 72.8462 55.4073 72.9316 55.4073 73.0382V79.8222L54.9913 79.3902L59.8393 72.9102C59.8926 72.8462 59.9513 72.7929 60.0153 72.7502C60.0793 72.6969 60.1593 72.6702 60.2553 72.6702H60.9913C61.0766 72.6702 61.1513 72.7022 61.2153 72.7662C61.2899 72.8302 61.3273 72.9049 61.3273 72.9902V80.6222C61.3273 80.7289 61.2899 80.8196 61.2153 80.8942C61.1513 80.9582 61.0659 80.9902 60.9593 80.9902H60.2073C60.0899 80.9902 59.9993 80.9582 59.9353 80.8942C59.8713 80.8196 59.8393 80.7289 59.8393 80.6222V74.2382L60.2873 74.2222L55.4073 80.7502C55.3646 80.8036 55.3113 80.8569 55.2473 80.9102C55.1833 80.9636 55.0979 80.9902 54.9913 80.9902H54.2713ZM64.0373 80.9902C63.9306 80.9902 63.8399 80.9582 63.7653 80.8942C63.7013 80.8196 63.6693 80.7289 63.6693 80.6222V73.0382C63.6693 72.9316 63.7013 72.8462 63.7653 72.7822C63.8399 72.7076 63.9306 72.6702 64.0373 72.6702H64.8053C64.9119 72.6702 64.9973 72.7076 65.0613 72.7822C65.1253 72.8462 65.1573 72.9316 65.1573 73.0382V76.1102H69.5253V73.0382C69.5253 72.9316 69.5573 72.8462 69.6213 72.7822C69.6959 72.7076 69.7866 72.6702 69.8933 72.6702H70.6453C70.7519 72.6702 70.8373 72.7076 70.9013 72.7822C70.9759 72.8462 71.0133 72.9316 71.0133 73.0382V80.6222C71.0133 80.7289 70.9759 80.8196 70.9013 80.8942C70.8373 80.9582 70.7519 80.9902 70.6453 80.9902H69.8933C69.7866 80.9902 69.6959 80.9582 69.6213 80.8942C69.5573 80.8196 69.5253 80.7289 69.5253 80.6222V77.3902H65.1573V80.6222C65.1573 80.7289 65.1253 80.8196 65.0613 80.8942C64.9973 80.9582 64.9119 80.9902 64.8053 80.9902H64.0373ZM75.7393 81.1502C75.2059 81.1502 74.7206 81.0436 74.2833 80.8302C73.8459 80.6169 73.4939 80.3289 73.2273 79.9662C72.9606 79.6036 72.8273 79.1929 72.8273 78.7342C72.8273 77.9982 73.1259 77.4116 73.7233 76.9742C74.3206 76.5369 75.0993 76.2489 76.0593 76.1102L78.4433 75.7742V75.3102C78.4433 74.7982 78.2939 74.3982 77.9953 74.1102C77.7073 73.8222 77.2326 73.6782 76.5713 73.6782C76.0913 73.6782 75.7019 73.7742 75.4033 73.9662C75.1153 74.1582 74.9126 74.4036 74.7953 74.7022C74.7313 74.8622 74.6193 74.9422 74.4593 74.9422H73.7393C73.6219 74.9422 73.5313 74.9102 73.4673 74.8462C73.4139 74.7716 73.3873 74.6862 73.3873 74.5902C73.3873 74.4302 73.4459 74.2329 73.5633 73.9982C73.6913 73.7636 73.8833 73.5342 74.1393 73.3102C74.3953 73.0862 74.7206 72.8996 75.1153 72.7502C75.5206 72.5902 76.0113 72.5102 76.5873 72.5102C77.2273 72.5102 77.7659 72.5956 78.2033 72.7662C78.6406 72.9262 78.9819 73.1449 79.2273 73.4222C79.4833 73.6996 79.6646 74.0142 79.7713 74.3662C79.8886 74.7182 79.9473 75.0756 79.9473 75.4382V80.6222C79.9473 80.7289 79.9099 80.8196 79.8353 80.8942C79.7713 80.9582 79.6859 80.9902 79.5793 80.9902H78.8433C78.7259 80.9902 78.6353 80.9582 78.5713 80.8942C78.5073 80.8196 78.4753 80.7289 78.4753 80.6222V79.9342C78.3366 80.1262 78.1499 80.3182 77.9153 80.5102C77.6806 80.6916 77.3873 80.8462 77.0353 80.9742C76.6833 81.0916 76.2513 81.1502 75.7393 81.1502ZM76.0753 79.9502C76.5126 79.9502 76.9126 79.8596 77.2753 79.6782C77.6379 79.4862 77.9206 79.1929 78.1233 78.7982C78.3366 78.4036 78.4433 77.9076 78.4433 77.3102V76.8622L76.5873 77.1342C75.8299 77.2409 75.2593 77.4222 74.8753 77.6782C74.4913 77.9236 74.2993 78.2382 74.2993 78.6222C74.2993 78.9209 74.3846 79.1716 74.5553 79.3742C74.7366 79.5662 74.9606 79.7102 75.2273 79.8062C75.5046 79.9022 75.7873 79.9502 76.0753 79.9502ZM82.6154 80.9902C82.5087 80.9902 82.4181 80.9582 82.3434 80.8942C82.2794 80.8196 82.2474 80.7289 82.2474 80.6222V73.0382C82.2474 72.9316 82.2794 72.8462 82.3434 72.7822C82.4181 72.7076 82.5087 72.6702 82.6154 72.6702H83.3834C83.4901 72.6702 83.5754 72.7076 83.6394 72.7822C83.7034 72.8462 83.7354 72.9316 83.7354 73.0382V76.1102H88.1034V73.0382C88.1034 72.9316 88.1354 72.8462 88.1994 72.7822C88.2741 72.7076 88.3647 72.6702 88.4714 72.6702H89.2234C89.3301 72.6702 89.4154 72.7076 89.4794 72.7822C89.5541 72.8462 89.5914 72.9316 89.5914 73.0382V80.6222C89.5914 80.7289 89.5541 80.8196 89.4794 80.8942C89.4154 80.9582 89.3301 80.9902 89.2234 80.9902H88.4714C88.3647 80.9902 88.2741 80.9582 88.1994 80.8942C88.1354 80.8196 88.1034 80.7289 88.1034 80.6222V77.3902H83.7354V80.6222C83.7354 80.7289 83.7034 80.8196 83.6394 80.8942C83.5754 80.9582 83.4901 80.9902 83.3834 80.9902H82.6154ZM95.3574 81.1502C94.6001 81.1502 93.9441 81.0062 93.3894 80.7182C92.8454 80.4196 92.4241 79.9982 92.1254 79.4542C91.8267 78.8996 91.6667 78.2382 91.6454 77.4702C91.6347 77.3102 91.6294 77.0969 91.6294 76.8302C91.6294 76.5636 91.6347 76.3502 91.6454 76.1902C91.6667 75.4222 91.8267 74.7662 92.1254 74.2222C92.4241 73.6676 92.8454 73.2462 93.3894 72.9582C93.9441 72.6596 94.6001 72.5102 95.3574 72.5102C95.9761 72.5102 96.5041 72.5956 96.9414 72.7662C97.3894 72.9369 97.7574 73.1556 98.0454 73.4222C98.3334 73.6889 98.5467 73.9769 98.6854 74.2862C98.8347 74.5956 98.9147 74.8889 98.9254 75.1662C98.9361 75.2729 98.9041 75.3582 98.8294 75.4222C98.7547 75.4862 98.6641 75.5182 98.5574 75.5182H97.7894C97.6827 75.5182 97.6027 75.4969 97.5494 75.4542C97.4961 75.4009 97.4427 75.3156 97.3894 75.1982C97.1974 74.6756 96.9361 74.3076 96.6054 74.0942C96.2747 73.8809 95.8641 73.7742 95.3734 73.7742C94.7334 73.7742 94.2107 73.9716 93.8054 74.3662C93.4107 74.7609 93.1974 75.3956 93.1654 76.2702C93.1547 76.6542 93.1547 77.0276 93.1654 77.3902C93.1974 78.2756 93.4107 78.9156 93.8054 79.3102C94.2107 79.6942 94.7334 79.8862 95.3734 79.8862C95.8641 79.8862 96.2747 79.7796 96.6054 79.5662C96.9361 79.3529 97.1974 78.9849 97.3894 78.4622C97.4427 78.3449 97.4961 78.2649 97.5494 78.2222C97.6027 78.1689 97.6827 78.1422 97.7894 78.1422H98.5574C98.6641 78.1422 98.7547 78.1742 98.8294 78.2382C98.9041 78.3022 98.9361 78.3876 98.9254 78.4942C98.9147 78.7182 98.8667 78.9476 98.7814 79.1822C98.6961 79.4169 98.5574 79.6569 98.3654 79.9022C98.1841 80.1369 97.9547 80.3502 97.6774 80.5422C97.4001 80.7236 97.0641 80.8729 96.6694 80.9902C96.2854 81.0969 95.8481 81.1502 95.3574 81.1502ZM101.194 80.9902C101.087 80.9902 100.996 80.9582 100.922 80.8942C100.858 80.8196 100.826 80.7289 100.826 80.6222V73.0382C100.826 72.9316 100.858 72.8462 100.922 72.7822C100.996 72.7076 101.087 72.6702 101.194 72.6702H101.962C102.068 72.6702 102.154 72.7076 102.218 72.7822C102.292 72.8462 102.33 72.9316 102.33 73.0382V75.3902H103.994C105.082 75.3902 105.876 75.6462 106.378 76.1582C106.879 76.6702 107.13 77.3636 107.13 78.2382C107.13 79.1769 106.852 79.8702 106.298 80.3182C105.743 80.7662 104.911 80.9902 103.802 80.9902H101.194ZM102.314 79.7902H103.85C104.5 79.7902 104.975 79.6782 105.274 79.4542C105.572 79.2196 105.722 78.8142 105.722 78.2382C105.722 77.6836 105.578 77.2729 105.29 77.0062C105.002 76.7289 104.522 76.5902 103.85 76.5902H102.314V79.7902ZM108.634 80.9902C108.527 80.9902 108.436 80.9582 108.362 80.8942C108.298 80.8196 108.266 80.7289 108.266 80.6222V73.0382C108.266 72.9316 108.298 72.8462 108.362 72.7822C108.436 72.7076 108.527 72.6702 108.634 72.6702H109.402C109.508 72.6702 109.594 72.7076 109.658 72.7822C109.732 72.8462 109.77 72.9316 109.77 73.0382V80.6222C109.77 80.7289 109.732 80.8196 109.658 80.8942C109.594 80.9582 109.508 80.9902 109.402 80.9902H108.634Z" fill="white"/>
<path d="M72.9799 13.4351L12.4984 73.9167C10.741 75.674 10.741 78.5233 12.4984 80.2806L71.6554 139.438C73.4127 141.195 76.262 141.195 78.0193 139.438L138.501 78.9561C140.258 77.1987 140.258 74.3495 138.501 72.5921L79.3439 13.4351C77.5865 11.6778 74.7373 11.6778 72.9799 13.4351Z" stroke="#A7A7A7" stroke-opacity="0.3"/>
<defs>
<linearGradient id="paint0_linear_4192_5748" x1="75.5001" y1="303.207" x2="75.5001" y2="275" gradientUnits="userSpaceOnUse">
<stop stop-color="#4C4C4C"/>
<stop offset="1" stop-color="#878787"/>
</linearGradient>
<linearGradient id="paint1_linear_4192_5748" x1="3.35065" y1="184.396" x2="173.336" y2="184.396" gradientUnits="userSpaceOnUse">
<stop stop-color="#737373" stop-opacity="0.11"/>
<stop offset="1" stop-color="#D9D9D9" stop-opacity="0.2"/>
</linearGradient>
<radialGradient id="paint2_radial_4192_5748" cx="0" cy="0" r="1" gradientUnits="userSpaceOnUse" gradientTransform="translate(nan nan) rotate(nan) scale(nan nan)">
<stop stop-color="#389D2D" stop-opacity="0"/>
<stop offset="1" stop-color="#389D2D"/>
</radialGradient>
<radialGradient id="paint3_radial_4192_5748" cx="0" cy="0" r="1" gradientUnits="userSpaceOnUse" gradientTransform="translate(nan nan) rotate(nan) scale(nan nan)">
<stop stop-color="#389D2D" stop-opacity="0"/>
<stop offset="1" stop-color="#389D2D"/>
</radialGradient>
<radialGradient id="paint4_radial_4192_5748" cx="0" cy="0" r="1" gradientUnits="userSpaceOnUse" gradientTransform="translate(nan nan) rotate(nan) scale(nan nan)">
<stop stop-color="#389D2D" stop-opacity="0"/>
<stop offset="1" stop-color="#389D2D"/>
</radialGradient>
<radialGradient id="paint5_radial_4192_5748" cx="0" cy="0" r="1" gradientUnits="userSpaceOnUse" gradientTransform="translate(nan nan) rotate(nan) scale(nan nan)">
<stop stop-color="#389D2D" stop-opacity="0"/>
<stop offset="1" stop-color="#389D2D"/>
</radialGradient>
<linearGradient id="paint6_linear_4192_5748" x1="37.9571" y1="38.25" x2="113.457" y2="113.75" gradientUnits="userSpaceOnUse">
<stop/>
<stop offset="1" stop-color="#666666"/>
</linearGradient>
<linearGradient id="paint7_linear_4192_5748" x1="37.9571" y1="38.25" x2="113.457" y2="113.75" gradientUnits="userSpaceOnUse">
<stop/>
<stop offset="1" stop-color="#666666"/>
</linearGradient>
</defs>
</svg>
