<svg width="151" height="304" fill="none" xmlns="http://www.w3.org/2000/svg"><path d="m75 303.207 2.887-5h-5.774l2.887 5zm0-25.54a2.667 2.667 0 1 0 0-5.334 2.667 2.667 0 0 0 0 5.334zm0 21.04h.5V275h-1v23.707h.5z" fill="url(#a)"/><path fill-rule="evenodd" clip-rule="evenodd" d="M69.052 108.821c4.235-2.441 11.1-2.441 15.335 0l53.627 30.905a4.998 4.998 0 0 1 2.503 4.266l.947 70.96c0 4.88-3.433 10.815-7.668 13.256L78.232 259.79a5 5 0 0 1-4.967-.015l-53.598-30.888C15.433 226.446 12 220.511 12 215.631l.002-70.128a5 5 0 0 1 2.45-4.3l54.6-32.382zm13.801.883 53.628 30.906a5.002 5.002 0 0 1 2.503 4.265l.946 70.96-.007.369c-.165 3.83-2.845 8.345-6.127 10.236l-55.564 31.583a5 5 0 0 1-4.967-.015l-53.598-30.889c-3.281-1.891-5.962-6.406-6.126-10.236l-.008-.369v-70.127a5 5 0 0 1 2.45-4.301l54.603-32.382.323-.178c3.405-1.773 8.663-1.713 11.944.178z" fill="url(#b)"/><path d="M140.113 213.972v-17.135" stroke="url(#c)"/><path d="M13.113 213.972v-17.135" stroke="url(#d)"/><path d="M13.164 154v46.645" stroke="url(#e)"/><path d="M138.986 144.875a5.002 5.002 0 0 0-2.503-4.265l-53.628-30.906c-3.282-1.891-8.539-1.951-11.944-.178l-.323.178-54.603 32.382a5 5 0 0 0-2.45 4.301v70.127l.008.369c.164 3.83 2.844 8.345 6.126 10.236l53.598 30.889a5 5 0 0 0 4.967.015l55.564-31.583c3.282-1.891 5.962-6.406 6.127-10.236l.007-.369-.946-70.96z" fill="#F9F9F9"/><path fill-rule="evenodd" clip-rule="evenodd" d="M88.762 204.379a4.343 4.343 0 0 0-.255-.004h-3.552c-2.905 0-5.392 2.305-5.392 5.313 0 3.007 2.487 5.312 5.394 5.312h3.548a3.5 3.5 0 0 0 .255-.006 2.475 2.475 0 0 0 2.313-2.305c.006-.086.006-.178.006-.263v-5.477c0-.085 0-.177-.006-.263a2.479 2.479 0 0 0-2.311-2.305m-4.117 6.724c.748 0 1.356-.633 1.356-1.416 0-.783-.608-1.416-1.356-1.416-.748 0-1.355.633-1.355 1.416 0 .783.605 1.416 1.355 1.416z" fill="#389D2D"/><path fill-rule="evenodd" clip-rule="evenodd" d="M88.505 217.125a.314.314 0 0 1 .256.118.31.31 0 0 1 .056.276c-.282 1.009-.73 1.869-1.45 2.593-1.05 1.06-2.385 1.531-4.033 1.754-1.601.217-3.646.217-6.23.217h-2.97c-2.583 0-4.63 0-6.23-.217-1.648-.223-2.983-.694-4.034-1.754-1.052-1.058-1.518-2.404-1.74-4.063-.216-1.616-.216-3.678-.216-6.281v-.161c0-2.603 0-4.667.216-6.279.222-1.661.688-3.003 1.738-4.066 1.052-1.059 2.386-1.532 4.034-1.753 1.603-.217 3.649-.217 6.231-.217h2.971c2.583 0 4.629 0 6.23.217 1.648.223 2.982.694 4.034 1.753.719.725 1.166 1.585 1.45 2.596a.311.311 0 0 1-.313.392h-3.548c-3.987 0-7.5 3.175-7.5 7.437 0 4.263 3.515 7.438 7.502 7.438h3.546zm-21.32-14.166a1.054 1.054 0 0 0-1.053 1.061c0 .588.47 1.063 1.052 1.063h5.624c.583 0 1.054-.475 1.054-1.063a1.06 1.06 0 0 0-1.054-1.061h-5.624z" fill="#389D2D"/><path d="m70.344 195.868 2.855-2.104a4.329 4.329 0 0 1 5.148 0l2.871 2.116c-1.201-.047-2.543-.047-4.011-.047h-3.165c-1.345 0-2.58 0-3.698.035z" fill="#389D2D"/><path d="M12.98 201.277a6.98 6.98 0 1 0 0-13.96 6.98 6.98 0 0 0 0 13.96z" fill="#ACD4A7"/><path d="M12.98 198.486a4.188 4.188 0 1 0 0-8.376 4.188 4.188 0 0 0 0 8.376z" fill="#389D2D"/><path d="M140.164 154v46.645" stroke="url(#f)"/><path d="M139.98 201.277a6.98 6.98 0 1 0 0-13.96 6.98 6.98 0 0 0 0 13.96z" fill="#ACD4A7"/><path d="M139.981 198.486a4.188 4.188 0 1 0 0-8.376 4.188 4.188 0 0 0 0 8.376z" fill="#389D2D"/><path d="m73.165 117.138-47.83 27.615c-2.153 1.243-2.153 3.257 0 4.5l46.356 26.764c2.153 1.243 5.642 1.243 7.795 0l47.83-27.615c2.153-1.243 2.153-3.257 0-4.5L80.96 117.138c-2.153-1.243-5.642-1.243-7.795 0z" stroke="#DDD"/><path d="M72.318 3.89 3.889 72.317a4.5 4.5 0 0 0 0 6.364l68.429 68.429a4.5 4.5 0 0 0 6.364 0l68.429-68.429a4.5 4.5 0 0 0 0-6.364L78.681 3.889a4.5 4.5 0 0 0-6.363 0z" fill="url(#g)" stroke="url(#h)"/><path d="M45.464 81.502a.37.37 0 0 1-.272-.112.346.346 0 0 1-.096-.256V79.87c-1.578 0-2.79-.341-3.632-1.024-.832-.693-1.317-1.733-1.456-3.12 0-.117-.005-.24-.016-.368v-.384c.01-.128.016-.25.016-.368.053-.928.288-1.696.704-2.304.427-.618 1.013-1.077 1.76-1.376.747-.31 1.621-.464 2.624-.464v-1.104c0-.106.032-.192.096-.256a.37.37 0 0 1 .272-.112h.832a.32.32 0 0 1 .256.112.32.32 0 0 1 .112.256v1.104c1.003 0 1.877.155 2.624.464.747.299 1.334.758 1.76 1.376.427.608.661 1.376.704 2.304.01.203.016.39.016.56.01.16.005.347-.016.56-.128 1.387-.613 2.427-1.456 3.12-.832.683-2.042 1.024-3.632 1.024v1.264a.32.32 0 0 1-.112.256.32.32 0 0 1-.256.112h-.832zm-.368-3.008v-6.672c-1.045 0-1.866.224-2.464.672-.587.448-.928 1.179-1.024 2.192a7.696 7.696 0 0 0 0 .96c.053 1.003.384 1.728.992 2.176.608.448 1.44.672 2.496.672zm1.568 0c1.056 0 1.888-.224 2.496-.672.608-.448.939-1.173.992-2.176.01-.106.016-.213.016-.32v-.32c0-.117-.005-.224-.016-.32-.107-1.013-.453-1.744-1.04-2.192-.587-.448-1.403-.672-2.448-.672v6.672zm7.607 2.496a.382.382 0 0 1-.256-.096.362.362 0 0 1-.096-.24v-7.616c0-.106.032-.192.096-.256a.37.37 0 0 1 .272-.112h.768a.32.32 0 0 1 .256.112c.064.064.096.15.096.256v6.784l-.416-.432 4.848-6.48a.825.825 0 0 1 .176-.16.362.362 0 0 1 .24-.08h.736c.086 0 .16.032.224.096a.288.288 0 0 1 .112.224v7.632a.37.37 0 0 1-.112.272.346.346 0 0 1-.256.096h-.752c-.117 0-.208-.032-.272-.096a.404.404 0 0 1-.096-.272v-6.384l.448-.016-4.88 6.528a1.128 1.128 0 0 1-.16.16.387.387 0 0 1-.256.08h-.72zm9.766 0a.404.404 0 0 1-.272-.096.404.404 0 0 1-.096-.272v-7.584c0-.106.032-.192.096-.256a.37.37 0 0 1 .272-.112h.768a.32.32 0 0 1 .256.112c.064.064.096.15.096.256v3.072h4.368v-3.072c0-.106.032-.192.096-.256a.37.37 0 0 1 .272-.112h.752a.32.32 0 0 1 .256.112.32.32 0 0 1 .112.256v7.584a.37.37 0 0 1-.112.272.346.346 0 0 1-.256.096h-.752a.404.404 0 0 1-.272-.096.404.404 0 0 1-.096-.272V77.39h-4.368v3.232a.404.404 0 0 1-.096.272.346.346 0 0 1-.256.096h-.768zm11.702.16a3.275 3.275 0 0 1-1.456-.32 2.814 2.814 0 0 1-1.056-.864 2.027 2.027 0 0 1-.4-1.232c0-.736.299-1.322.896-1.76.598-.437 1.376-.725 2.336-.864l2.384-.336v-.464c0-.512-.15-.912-.448-1.2-.288-.288-.762-.432-1.424-.432-.48 0-.87.096-1.168.288a1.56 1.56 0 0 0-.608.736c-.064.16-.176.24-.336.24h-.72c-.117 0-.208-.032-.272-.096a.429.429 0 0 1-.08-.256c0-.16.059-.357.176-.592.128-.234.32-.464.576-.688.256-.224.582-.41.976-.56.406-.16.896-.24 1.472-.24.64 0 1.179.086 1.616.256.438.16.779.379 1.024.656.256.278.438.592.544.944.118.352.176.71.176 1.072v5.184a.37.37 0 0 1-.112.272.346.346 0 0 1-.256.096h-.736c-.117 0-.208-.032-.272-.096a.404.404 0 0 1-.096-.272v-.688a3.13 3.13 0 0 1-.56.576 3.244 3.244 0 0 1-.88.464c-.352.118-.784.176-1.296.176zm.336-1.2c.438 0 .838-.09 1.2-.272.363-.192.646-.485.848-.88.214-.394.32-.89.32-1.488v-.448l-1.856.272c-.757.107-1.328.288-1.712.544-.384.246-.576.56-.576.944 0 .299.086.55.256.752a1.7 1.7 0 0 0 .672.432c.278.096.56.144.848.144zm6.54 1.04a.404.404 0 0 1-.272-.096.404.404 0 0 1-.096-.272v-7.584c0-.106.032-.192.096-.256a.37.37 0 0 1 .272-.112h.768a.32.32 0 0 1 .256.112c.064.064.096.15.096.256v3.072h4.368v-3.072c0-.106.032-.192.096-.256a.37.37 0 0 1 .272-.112h.752a.32.32 0 0 1 .256.112.32.32 0 0 1 .112.256v7.584a.37.37 0 0 1-.112.272.346.346 0 0 1-.256.096h-.752a.404.404 0 0 1-.272-.096.404.404 0 0 1-.096-.272V77.39h-4.368v3.232a.404.404 0 0 1-.096.272.346.346 0 0 1-.256.096h-.768zm12.742.16c-.757 0-1.413-.144-1.968-.432a3.135 3.135 0 0 1-1.264-1.264c-.298-.554-.458-1.216-.48-1.984-.01-.16-.016-.373-.016-.64 0-.266.006-.48.016-.64.022-.768.182-1.424.48-1.968a3.01 3.01 0 0 1 1.264-1.264c.555-.298 1.211-.448 1.968-.448.62 0 1.147.086 1.584.256.448.17.816.39 1.104.656.288.267.502.555.64.864.15.31.23.603.24.88a.28.28 0 0 1-.096.256.404.404 0 0 1-.272.096h-.768c-.106 0-.186-.021-.24-.064a.884.884 0 0 1-.16-.256c-.192-.522-.453-.89-.784-1.104-.33-.213-.74-.32-1.232-.32-.64 0-1.162.198-1.568.592-.394.395-.608 1.03-.64 1.904-.01.384-.01.758 0 1.12.032.886.246 1.526.64 1.92.406.384.928.576 1.568.576.491 0 .902-.106 1.232-.32.331-.213.592-.581.784-1.104a.66.66 0 0 1 .16-.24c.054-.053.134-.08.24-.08h.768c.107 0 .198.032.272.096a.28.28 0 0 1 .096.256c-.01.224-.058.454-.144.688a2.655 2.655 0 0 1-.416.72 3.06 3.06 0 0 1-.688.64c-.277.182-.613.33-1.008.448a4.91 4.91 0 0 1-1.312.16zm5.837-.16a.402.402 0 0 1-.272-.096.404.404 0 0 1-.096-.272v-7.584c0-.106.032-.192.096-.256a.369.369 0 0 1 .272-.112h.768c.106 0 .192.038.256.112.074.064.112.15.112.256v2.352h1.664c1.088 0 1.882.256 2.384.768.501.512.752 1.206.752 2.08 0 .939-.278 1.632-.832 2.08-.555.448-1.387.672-2.496.672h-2.608zm1.12-1.2h1.536c.65 0 1.125-.112 1.424-.336.298-.234.448-.64.448-1.216 0-.554-.144-.965-.432-1.232-.288-.277-.768-.416-1.44-.416h-1.536v3.2zm6.32 1.2a.402.402 0 0 1-.272-.096.404.404 0 0 1-.096-.272v-7.584c0-.106.032-.192.096-.256a.369.369 0 0 1 .272-.112h.768c.106 0 .192.038.256.112.074.064.112.15.112.256v7.584a.373.373 0 0 1-.112.272.347.347 0 0 1-.256.096h-.768z" fill="#fff"/><path d="M72.98 13.435 12.498 73.917a4.5 4.5 0 0 0 0 6.364l59.157 59.157a4.5 4.5 0 0 0 6.364 0l60.482-60.482a4.5 4.5 0 0 0 0-6.364L79.344 13.435a4.5 4.5 0 0 0-6.364 0z" stroke="#A7A7A7" stroke-opacity=".3"/><defs><radialGradient id="c" cx="0" cy="0" r="1" gradientUnits="userSpaceOnUse"><stop stop-color="#389D2D" stop-opacity="0"/><stop offset="1" stop-color="#389D2D"/></radialGradient><radialGradient id="d" cx="0" cy="0" r="1" gradientUnits="userSpaceOnUse"><stop stop-color="#389D2D" stop-opacity="0"/><stop offset="1" stop-color="#389D2D"/></radialGradient><radialGradient id="e" cx="0" cy="0" r="1" gradientUnits="userSpaceOnUse"><stop stop-color="#389D2D" stop-opacity="0"/><stop offset="1" stop-color="#389D2D"/></radialGradient><radialGradient id="f" cx="0" cy="0" r="1" gradientUnits="userSpaceOnUse"><stop stop-color="#389D2D" stop-opacity="0"/><stop offset="1" stop-color="#389D2D"/></radialGradient><linearGradient id="a" x1="75.5" y1="303.207" x2="75.5" y2="275" gradientUnits="userSpaceOnUse"><stop stop-color="#4C4C4C"/><stop offset="1" stop-color="#878787"/></linearGradient><linearGradient id="b" x1="3.351" y1="184.396" x2="173.336" y2="184.396" gradientUnits="userSpaceOnUse"><stop stop-color="#737373" stop-opacity=".11"/><stop offset="1" stop-color="#D9D9D9" stop-opacity=".2"/></linearGradient><linearGradient id="g" x1="37.957" y1="38.25" x2="113.457" y2="113.75" gradientUnits="userSpaceOnUse"><stop/><stop offset="1" stop-color="#666"/></linearGradient><linearGradient id="h" x1="37.957" y1="38.25" x2="113.457" y2="113.75" gradientUnits="userSpaceOnUse"><stop/><stop offset="1" stop-color="#666"/></linearGradient></defs></svg>