<svg width="340" height="210" fill="none" xmlns="http://www.w3.org/2000/svg"><rect opacity=".6" width="64.721" height="64.721" rx="4" transform="matrix(.86603 -.5 .86603 .5 109.223 160.526)" fill="#389D2D"/><rect opacity=".4" width="64.721" height="64.721" rx="4" transform="matrix(.86603 -.5 .86603 .5 109.223 170.64)" fill="#389D2D"/><rect width="64.721" height="64.721" rx="4" transform="matrix(.86603 -.5 .86603 .5 109.223 150.413)" fill="#389D2D"/><rect width="76.502" height="76.502" rx="4" transform="matrix(.86603 -.5 .86603 .5 98.863 137.417)" fill="#E7E7E7"/><rect x=".433" y=".75" width="50.029" height="50.029" rx="4.5" transform="matrix(.86603 .5 0 1 143.402 50.21)" fill="url(#a)" stroke="url(#b)"/><rect x=".433" y=".75" width="44.075" height="44.075" rx="4.5" transform="matrix(.86603 .5 0 1 146.035 54.779)" stroke="#A7A7A7" stroke-opacity=".3"/><g clip-path="url(#c)"><path d="M171.994 97.99c.001.18-.039.394-.081.564-.293 1.199-1.596 1.982-3.429.784-1.662-1.086-3.015-2.788-3.015-4.08 0-1.292 1.35-1.56 3.015-.598 1.665.96 3.499 2.032 3.51 3.33z" fill="#F9F9F9"/><path d="M168.485 94.876c-.895-.516-2.936-1.409-3.404-1.68-.828-.477-1.499-.265-1.499.475 0 .356.158.768.411 1.154 0 0 .556.965 1.557 1.234.438.118 1.15-.475 2.405.09.625.28 1.795 1.515 3.852 2.716.089-.168.107-.31.107-.31 0-1.293-1.764-2.718-3.429-3.679z" fill="#389D2D"/><path d="M171.913 98.554s1.206.413 1.957-.293c.874-.823.759-2.311.759-2.311.886-1.403-.276-3.868-.276-3.868-.115-2.086-1.197-3.548-1.197-3.548-.702-2.332-2.255-3.747-2.255-3.747-1.22-2.352-3.384-3.548-3.384-3.548s-2.027-2.028-4.81-2.67c-.46-.107-2.003-.626-3.131-.48-3.555.461-3.824 4.225-3.774 4.89.275 3.721 2.439 5.608 3.82 6.777.322 1.196 1.508 3.741 3.637 4.28 2.623.983 3.728.717 4.373 1.09.645.371 2.44 2.205 4.281 3.428z" fill="#EEE"/><path d="M165.277 88.997c1.286-.058 1.983.419 2.599.838.195.134.38.257.568.363 1.096.605 1.983.584 2.376.295.045-.039.067-.108.061-.194a.594.594 0 0 0-.093-.267.548.548 0 0 0-.195-.191c-.072-.038-.139-.041-.188-.01-.303.223-1.049.232-1.974-.278-.166-.09-.332-.205-.504-.323-.66-.452-1.48-1.012-2.912-.946-.367.017-.871-.19-1.417-.44-1.214-2.724-.483-4.064-.274-4.363.02.013.04.032.061.044.221.128.443.193.644.178.061-.008.106-.05.124-.12a.435.435 0 0 0-.027-.253.658.658 0 0 0-.163-.243c-.068-.063-.142-.097-.206-.096-.174.01-.377-.076-.57-.243-.192-.166-.36-.4-.468-.654a.628.628 0 0 0-.173-.228c-.07-.056-.142-.082-.202-.072-.059.01-.102.054-.119.124a.441.441 0 0 0 .029.251c.131.313.316.597.524.837-.288.508-.834 1.967.205 4.552-.731-.34-1.464-.643-2.037-.547a1.907 1.907 0 0 0-1.037.543c-.348-.27-1.62-1.365-1.842-3.124a.512.512 0 0 0 .319-.305.274.274 0 0 0 .019-.11.48.48 0 0 0-.023-.136.63.63 0 0 0-.258-.34.259.259 0 0 0-.105-.035.148.148 0 0 0-.089.02.149.149 0 0 0-.058.07.236.236 0 0 1-.097.123.233.233 0 0 1-.154.026.495.495 0 0 1-.182-.082.852.852 0 0 1-.173-.167.548.548 0 0 0-.103-.098.319.319 0 0 0-.107-.052c-.071-.017-.13.003-.166.056-.035.054-.044.136-.024.229a.65.65 0 0 0 .131.267c.157.191.325.34.492.436.021.012.04.012.06.022.263 1.691 1.317 2.976 2.062 3.61a1.742 1.742 0 0 0-.183.655.528.528 0 0 0 .063.27.602.602 0 0 0 .188.22l.025.017c.069.04.135.048.186.023.051-.024.083-.08.089-.156.059-.739.699-1.178 1.266-1.274.533-.089 1.312.278 2.067.632.732.346 1.423.67 1.965.646zm7.108 3.144c-.036.054-.044.136-.023.23.02.093.068.189.132.266.065.078.14.131.211.148.07.017.129-.004.165-.058.01-.016 1.017-1.613-.868-4.165a.475.475 0 0 0-.207-.168c-.072-.025-.136-.013-.177.033-.04.047-.056.124-.041.215a.63.63 0 0 0 .117.271c1.46 1.978.723 3.177.691 3.228zm-11.45-11.76a.25.25 0 0 0 .126.037.135.135 0 0 0 .098-.041c.801-.824 1.91.256 1.957.304a.33.33 0 0 0 .207.104c.065 0 .114-.034.139-.097a.376.376 0 0 0-.006-.243.665.665 0 0 0-.149-.252c-.53-.534-1.755-1.312-2.596-.447a.207.207 0 0 0-.051.133.457.457 0 0 0 .03.186c.023.066.058.13.101.185.043.056.093.1.144.13zm7.221 2.964c1.229.594 1.788 1.946 1.813 2.009a.657.657 0 0 0 .169.245c.035.03.072.054.108.069a.213.213 0 0 0 .102.018.131.131 0 0 0 .08-.036.174.174 0 0 0 .047-.085.317.317 0 0 0 .007-.121.527.527 0 0 0-.036-.138c-.03-.075-.74-1.842-2.333-2.622a.235.235 0 0 0-.104-.026.14.14 0 0 0-.085.028c-.047.037-.071.107-.065.194.006.088.04.186.096.273a.531.531 0 0 0 .201.192zm5.054 12.238c-.135-.087-.285-.05-.297.12-.001.01-.089 1.045-1.055.854-.064-.014-.118.003-.152.048-.035.045-.048.115-.038.196a.617.617 0 0 0 .276.427c.03.017.059.029.086.034 1.311.26 1.429-1.13 1.433-1.189a.432.432 0 0 0-.012-.13.642.642 0 0 0-.241-.36z" fill="#389D2D"/><path d="M159.54 84.59c-.011.034-.015.075-.011.12a.537.537 0 0 0 .033.14.68.68 0 0 0 .17.252.4.4 0 0 0 .11.072.21.21 0 0 0 .104.017.135.135 0 0 0 .081-.039.186.186 0 0 0 .046-.089c.053-.19.177-.308.346-.33.169-.023.372.053.566.21.036.03.072.051.108.064.036.013.07.016.1.011a.133.133 0 0 0 .077-.043.18.18 0 0 0 .042-.09.341.341 0 0 0 .001-.124.676.676 0 0 0-.214-.377c-.23-.186-.469-.305-.69-.343-.644-1.644-.519-2.825-.517-2.838a.502.502 0 0 0-.054-.267.619.619 0 0 0-.183-.228c-.072-.052-.145-.072-.203-.055-.058.018-.097.07-.107.148-.008.058-.155 1.388.587 3.282-.189.087-.325.263-.392.507zm6.175 1.99c.11-.052.254-.033.403.055.149.088.292.237.401.418.052.09.123.163.196.204.073.04.143.046.194.015.051-.032.079-.097.078-.182a.576.576 0 0 0-.083-.273 2.515 2.515 0 0 0-.441-.55c.164-.554.099-.879-.053-1.506-.03-.123-.059-.245-.086-.367l-.017-.074c-.201-.886-.334-1.472.048-1.968.039-.05.051-.13.034-.222a.649.649 0 0 0-.124-.27.452.452 0 0 0-.209-.159c-.071-.021-.133-.005-.171.045-.513.665-.325 1.494-.107 2.454l.017.073c.032.142.062.27.09.382.137.564.178.75.011 1.241-.209-.077-.402-.077-.558 0-.051.028-.081.09-.083.172a.552.552 0 0 0 .074.268c.049.09.117.165.189.21.073.046.143.058.197.033zm3.516.126c.164.095.326.147.474.152.067.002.118-.034.143-.099a.387.387 0 0 0-.01-.25.656.656 0 0 0-.157-.254c-.069-.069-.145-.108-.211-.11-.136-.007-.29-.086-.432-.222a1.399 1.399 0 0 1-.332-.511.698.698 0 0 0-.164-.257.42.42 0 0 0-.109-.077.229.229 0 0 0-.105-.024.136.136 0 0 0-.085.032.178.178 0 0 0-.051.083.32.32 0 0 0-.008.122.542.542 0 0 0 .035.14c.099.272.247.527.42.744-.297.66-.128 1.642.009 2.19a.622.622 0 0 0 .138.273.52.52 0 0 0 .106.096c.037.025.074.04.109.047a.161.161 0 0 0 .096-.009.144.144 0 0 0 .066-.063.24.24 0 0 0 .026-.109.418.418 0 0 0-.018-.136c-.092-.371-.273-1.278-.001-1.803.021.013.041.033.061.044zm2.65 7.544a.537.537 0 0 0-.027-.137.676.676 0 0 0-.159-.253.451.451 0 0 0-.107-.078 1.594 1.594 0 0 1-.392-.283 2.423 2.423 0 0 1-.582-.924 1.873 1.873 0 0 1-.102-.5.616.616 0 0 0-.095-.272.556.556 0 0 0-.199-.194.241.241 0 0 0-.104-.028.14.14 0 0 0-.086.027.162.162 0 0 0-.054.077.302.302 0 0 0-.013.115c.022.39.147.8.336 1.186-.445.347-1.026.183-1.351.04-.286-.126-.537-.305-.827-.512-.266-.188-.566-.402-.938-.604h-.003a2.409 2.409 0 0 0-.168-.768.629.629 0 0 0-.172-.225c-.068-.055-.14-.08-.199-.072-.06.009-.103.051-.121.12a.428.428 0 0 0 .024.246c.074.18.088.406.088.513a2.127 2.127 0 0 0-.737.023c-.389.068-.696.122-1.157-.264-.418-.352-.836-.615-1.19-.763a2.847 2.847 0 0 0-.278-.659.552.552 0 0 0-.197-.2c-.073-.04-.143-.045-.193-.013-.05.033-.078.1-.076.185a.593.593 0 0 0 .087.273c.047.079.085.176.115.269-.609-.063-.914.245-.929.26a.212.212 0 0 0-.05.134.472.472 0 0 0 .03.185c.023.066.058.13.102.185.043.055.092.1.143.129a.253.253 0 0 0 .126.038.134.134 0 0 0 .098-.04c.003-.003.306-.296.905-.14.309.08.752.344 1.185.708.121.101.233.177.342.242.051.168.071.345.074.408a.588.588 0 0 0 .086.263.556.556 0 0 0 .19.197l.015.008c.072.038.141.04.19.005.049-.034.074-.102.071-.188a2.788 2.788 0 0 0-.072-.479c.255.04.476.002.684-.034.316-.055.615-.108 1.006.103.327.175.596.367.857.553.261.186.519.357.803.502.05.19.046.404.038.471a.428.428 0 0 0 .011.14.64.64 0 0 0 .264.378c.067.039.132.048.182.026.05-.022.083-.074.091-.145.02-.198.009-.416-.032-.645.504.136.955.07 1.295-.19.274.353.594.63.915.791.073.037.141.037.189.001.048-.035.073-.104.068-.191z" fill="#389D2D"/></g><rect width="76.502" height="76.502" rx="4" transform="matrix(.86603 .5 0 1 98.863 60.783)" fill="url(#d)"/><rect width="76.502" height="76.502" rx="4" transform="matrix(.86603 -.5 0 1 175.625 94.161)" fill="url(#e)"/><rect x=".866" width="80.189" height="80.189" rx="3.5" transform="matrix(.86603 -.5 .86603 .5 100.003 41.028)" stroke="#4C4C4C" stroke-opacity=".4" stroke-dasharray="22 22"/><path d="M75 98.035v-49.95a6 6 0 0 1 6-6h2.105a6 6 0 0 0 6-6V4" stroke="url(#f)" stroke-opacity=".5" stroke-linecap="round"/><circle cx="88.957" cy="3.952" r="2.953" fill="#ACD4A7"/><circle cx="88.939" cy="3.95" r="1.771" fill="#389D2D"/><path d="M266.102 184.035v-49.951a6 6 0 0 0-6-6h-2.106a6 6 0 0 1-6-6V90" stroke="url(#g)" stroke-opacity=".5" stroke-linecap="round"/><circle cx="251.957" cy="89.952" r="2.953" fill="#ACD4A7"/><circle cx="251.939" cy="89.95" r="1.771" fill="#389D2D"/><defs><linearGradient id="a" x1="25.514" y1="0" x2="25.514" y2="51.029" gradientUnits="userSpaceOnUse"><stop/><stop offset="1" stop-color="#666"/></linearGradient><linearGradient id="b" x1="25.514" y1="0" x2="25.514" y2="51.029" gradientUnits="userSpaceOnUse"><stop/><stop offset="1" stop-color="#666"/></linearGradient><linearGradient id="d" x1="38.251" y1="0" x2="38.251" y2="76.502" gradientUnits="userSpaceOnUse"><stop stop-color="#E7E7E7" stop-opacity="0"/><stop offset="1" stop-color="#E7E7E7"/></linearGradient><linearGradient id="e" x1="38.251" y1="0" x2="38.251" y2="76.502" gradientUnits="userSpaceOnUse"><stop stop-color="#E7E7E7" stop-opacity="0"/><stop offset="1" stop-color="#E7E7E7"/></linearGradient><linearGradient id="f" x1="82.053" y1="98.035" x2="82.053" y2="4" gradientUnits="userSpaceOnUse"><stop stop-color="#A7A7A7" stop-opacity="0"/><stop offset="1" stop-color="#414141" stop-opacity=".6"/></linearGradient><linearGradient id="g" x1="259.049" y1="184.035" x2="259.049" y2="90" gradientUnits="userSpaceOnUse"><stop stop-color="#A7A7A7" stop-opacity="0"/><stop offset="1" stop-color="#414141" stop-opacity=".6"/></linearGradient><clipPath id="c"><path fill="#fff" transform="matrix(.86603 .5 0 1 155.48 71.445)" d="M0 0h22.963v22.963H0z"/></clipPath></defs></svg>