<svg width="340" height="210" viewBox="0 0 340 210" fill="none" xmlns="http://www.w3.org/2000/svg">
<rect opacity="0.6" width="64.7206" height="64.7206" rx="4" transform="matrix(0.866025 -0.5 0.866025 0.5 109.223 160.526)" fill="#389D2D"/>
<rect opacity="0.4" width="64.7206" height="64.7206" rx="4" transform="matrix(0.866025 -0.5 0.866025 0.5 109.223 170.64)" fill="#389D2D"/>
<rect width="64.7206" height="64.7206" rx="4" transform="matrix(0.866025 -0.5 0.866025 0.5 109.223 150.413)" fill="#389D2D"/>
<rect width="76.5016" height="76.5016" rx="4" transform="matrix(0.866025 -0.5 0.866025 0.5 98.8633 137.417)" fill="#E7E7E7"/>
<rect x="0.433013" y="0.75" width="50.0286" height="50.0286" rx="4.5" transform="matrix(0.866026 0.5 0 1 143.402 50.2098)" fill="url(#paint0_linear_4975_11259)" stroke="url(#paint1_linear_4975_11259)"/>
<rect x="0.433013" y="0.75" width="44.0752" height="44.0752" rx="4.5" transform="matrix(0.866026 0.5 0 1 146.035 54.7789)" stroke="#A7A7A7" stroke-opacity="0.3"/>
<g clip-path="url(#clip0_4975_11259)">
<path d="M171.994 97.9893C171.995 98.1708 171.955 98.3835 171.913 98.5538C171.62 99.7527 170.317 100.536 168.484 99.3377C166.822 98.2521 165.469 96.5497 165.469 95.258C165.469 93.9663 166.819 93.6984 168.484 94.6597C170.149 95.6209 171.983 96.6916 171.994 97.9893Z" fill="#F9F9F9"/>
<path d="M168.485 94.8761C167.59 94.3597 165.549 93.467 165.081 93.1966C164.253 92.7188 163.582 92.9309 163.582 93.6708C163.582 94.0268 163.74 94.4395 163.993 94.8254C163.993 94.8254 164.549 95.7898 165.55 96.059C165.988 96.1767 166.7 95.5841 167.955 96.1489C168.58 96.4299 169.75 97.6638 171.807 98.8649C171.896 98.6965 171.914 98.5546 171.914 98.5546C171.914 97.2617 170.15 95.8373 168.485 94.8761Z" fill="#389D2D"/>
<path d="M171.913 98.5536C171.913 98.5536 173.119 98.9675 173.87 98.2614C174.744 97.4376 174.629 95.9495 174.629 95.9495C175.515 94.5475 174.353 92.0822 174.353 92.0822C174.238 89.9955 173.156 88.5341 173.156 88.5341C172.454 86.2018 170.901 84.787 170.901 84.787C169.681 82.4353 167.517 81.239 167.517 81.239C167.517 81.239 165.49 79.2106 162.707 78.5682C162.247 78.462 160.704 77.9435 159.576 78.0895C156.021 78.5501 155.752 82.3137 155.802 82.9797C156.077 86.7 158.241 88.5871 159.622 89.7563C159.944 90.9519 161.13 93.497 163.259 94.0353C165.882 95.0189 166.987 94.7529 167.632 95.1251C168.277 95.4973 170.072 97.3311 171.913 98.5536Z" fill="#EEEEEE"/>
<path d="M165.277 88.9967C166.563 88.9386 167.26 89.4158 167.876 89.8355C168.071 89.9688 168.256 90.0916 168.444 90.1984C169.54 90.8025 170.427 90.7817 170.82 90.4925C170.865 90.4543 170.887 90.3852 170.881 90.2994C170.875 90.2137 170.842 90.118 170.788 90.0325C170.734 89.947 170.664 89.8783 170.593 89.8407C170.521 89.8031 170.454 89.7997 170.405 89.831C170.102 90.0542 169.356 90.0629 168.431 89.5532C168.265 89.4633 168.099 89.3481 167.927 89.2301C167.267 88.7782 166.447 88.2182 165.015 88.2839C164.648 88.3008 164.144 88.0948 163.598 87.8434C162.384 85.1201 163.115 83.78 163.324 83.4808C163.344 83.4939 163.364 83.513 163.385 83.5251C163.606 83.6527 163.828 83.7184 164.029 83.7031C164.09 83.6954 164.135 83.6521 164.153 83.5824C164.171 83.5127 164.161 83.422 164.126 83.3296C164.09 83.2371 164.032 83.1501 163.963 83.087C163.895 83.0238 163.821 82.9895 163.757 82.9913C163.583 83.0014 163.38 82.9146 163.187 82.7482C162.995 82.5818 162.827 82.3481 162.719 82.0938C162.678 82.0032 162.616 81.9215 162.546 81.8656C162.476 81.8097 162.404 81.7839 162.344 81.7936C162.285 81.8034 162.242 81.8478 162.225 81.9178C162.208 81.9878 162.219 82.0779 162.254 82.1694C162.385 82.4816 162.57 82.7661 162.778 83.0056C162.49 83.5143 161.944 84.9734 162.983 87.558C162.252 87.2187 161.519 86.915 160.946 87.0107C160.543 87.0832 160.192 87.2674 159.909 87.5542C159.561 87.2847 158.289 86.1885 158.067 84.4299C158.205 84.3859 158.317 84.2871 158.386 84.1254C158.399 84.0941 158.406 84.0563 158.405 84.0141C158.404 83.9719 158.397 83.9261 158.382 83.8793C158.368 83.8326 158.347 83.7857 158.321 83.7416C158.295 83.6974 158.264 83.6567 158.23 83.6218C158.197 83.5869 158.161 83.5585 158.124 83.5382C158.088 83.5179 158.052 83.5062 158.019 83.5036C157.986 83.501 157.956 83.5077 157.93 83.5232C157.905 83.5387 157.885 83.5628 157.872 83.594C157.851 83.6491 157.818 83.691 157.775 83.7167C157.731 83.7425 157.679 83.7516 157.621 83.7433C157.563 83.7318 157.501 83.7036 157.439 83.6605C157.378 83.6174 157.319 83.5605 157.266 83.4936C157.234 83.4549 157.199 83.4218 157.163 83.3962C157.127 83.3706 157.091 83.353 157.056 83.3444C156.985 83.3269 156.926 83.3471 156.89 83.4004C156.855 83.4538 156.846 83.536 156.866 83.629C156.886 83.7219 156.933 83.818 156.997 83.8961C157.154 84.0874 157.322 84.2354 157.489 84.3317C157.51 84.3435 157.529 84.3438 157.549 84.3544C157.812 86.0453 158.866 87.3296 159.611 87.9646C159.513 88.1482 159.452 88.3695 159.428 88.6194C159.422 88.6999 159.444 88.7968 159.491 88.8888C159.538 88.9808 159.606 89.0603 159.679 89.1099L159.704 89.1255C159.773 89.1654 159.839 89.1739 159.89 89.1495C159.941 89.125 159.973 89.0694 159.979 88.9935C160.038 88.2542 160.678 87.8151 161.245 87.7187C161.778 87.6301 162.557 87.9965 163.312 88.3512C164.044 88.6966 164.735 89.0219 165.277 88.9967ZM172.385 92.1407C172.349 92.1946 172.341 92.2773 172.362 92.3704C172.382 92.4635 172.43 92.5595 172.494 92.6373C172.559 92.715 172.634 92.7681 172.705 92.7849C172.775 92.8017 172.834 92.7808 172.87 92.7269C172.88 92.7112 173.887 91.1144 172.002 88.562C171.941 88.4797 171.866 88.4193 171.795 88.394C171.723 88.3688 171.659 88.3808 171.618 88.4274C171.578 88.474 171.562 88.5514 171.577 88.6425C171.591 88.7337 171.633 88.8311 171.694 88.9134C173.154 90.8908 172.417 92.0903 172.385 92.1407ZM160.935 80.3802C160.979 80.4055 161.022 80.4184 161.061 80.4179C161.1 80.4173 161.134 80.4033 161.159 80.377C161.96 79.5529 163.069 80.6334 163.116 80.6809C163.184 80.7461 163.259 80.7833 163.323 80.7846C163.388 80.7859 163.437 80.7512 163.462 80.6878C163.487 80.6245 163.485 80.5374 163.456 80.445C163.427 80.3526 163.373 80.2621 163.307 80.1927C162.777 79.6594 161.552 78.8809 160.711 79.7462C160.681 79.7768 160.664 79.8227 160.66 79.879C160.656 79.9353 160.666 79.9997 160.69 80.0652C160.713 80.1307 160.748 80.1948 160.791 80.2503C160.834 80.3059 160.884 80.3508 160.935 80.3802ZM168.156 83.345C169.385 83.9391 169.944 85.2907 169.969 85.3539C170.007 85.4483 170.067 85.5364 170.138 85.5986C170.173 85.6294 170.21 85.653 170.246 85.668C170.282 85.683 170.317 85.689 170.348 85.6859C170.379 85.6827 170.407 85.6704 170.428 85.6496C170.45 85.6287 170.466 85.5999 170.475 85.5646C170.485 85.5293 170.487 85.4882 170.482 85.4438C170.477 85.3994 170.465 85.3525 170.446 85.3057C170.416 85.2305 169.706 83.4636 168.113 82.6841C168.077 82.6665 168.041 82.6576 168.009 82.658C167.977 82.6583 167.948 82.6678 167.924 82.6861C167.877 82.7229 167.853 82.7928 167.859 82.8804C167.865 82.9681 167.899 83.0662 167.955 83.1533C168.011 83.2405 168.083 83.3094 168.156 83.345ZM173.21 95.5829C173.075 95.4955 172.925 95.5334 172.913 95.7025C172.912 95.7133 172.824 96.7476 171.858 96.5566C171.794 96.543 171.74 96.5603 171.706 96.6052C171.671 96.6502 171.658 96.7198 171.668 96.8014C171.679 96.883 171.712 96.971 171.763 97.0494C171.814 97.1279 171.878 97.1915 171.944 97.2285C171.974 97.2454 172.003 97.2568 172.03 97.2624C173.341 97.5226 173.459 96.1327 173.463 96.0734C173.466 96.0333 173.462 95.9888 173.451 95.9425C173.44 95.8961 173.422 95.8488 173.399 95.8032C173.375 95.7577 173.347 95.7148 173.314 95.6769C173.282 95.6391 173.247 95.6072 173.21 95.5829Z" fill="#389D2D"/>
<path d="M159.54 84.5897C159.529 84.6244 159.525 84.6653 159.529 84.7101C159.533 84.7549 159.544 84.8026 159.562 84.8504C159.58 84.8982 159.604 84.9451 159.633 84.9884C159.663 85.0316 159.696 85.0703 159.732 85.1021C159.768 85.1339 159.805 85.1582 159.842 85.1735C159.878 85.1888 159.914 85.1948 159.946 85.1912C159.977 85.1876 160.005 85.1744 160.027 85.1524C160.049 85.1304 160.064 85.1001 160.073 85.0633C160.126 84.873 160.25 84.7549 160.419 84.7326C160.588 84.7104 160.791 84.7857 160.985 84.9434C161.021 84.9725 161.057 84.9941 161.093 85.0069C161.129 85.0197 161.163 85.0235 161.193 85.0181C161.223 85.0127 161.25 84.9982 161.27 84.9755C161.291 84.9527 161.305 84.9221 161.312 84.8853C161.32 84.8486 161.32 84.8066 161.313 84.7615C161.307 84.7165 161.293 84.6693 161.273 84.6228C161.253 84.5763 161.228 84.5313 161.198 84.4904C161.168 84.4494 161.134 84.4134 161.099 84.3843C160.869 84.1976 160.63 84.079 160.409 84.0411C159.765 82.3974 159.89 81.2158 159.892 81.2033C159.902 81.1251 159.882 81.029 159.838 80.9361C159.793 80.8432 159.728 80.7612 159.655 80.708C159.583 80.6555 159.51 80.6358 159.452 80.6533C159.394 80.6707 159.355 80.7238 159.345 80.8011C159.337 80.8589 159.19 82.1891 159.932 84.0832C159.743 84.1701 159.607 84.3459 159.54 84.5897ZM165.715 86.5795C165.825 86.5275 165.969 86.5474 166.118 86.6352C166.267 86.723 166.41 86.8723 166.519 87.0531C166.571 87.1423 166.642 87.2155 166.715 87.2565C166.788 87.2974 166.858 87.3029 166.909 87.2716C166.96 87.2404 166.988 87.175 166.987 87.0899C166.986 87.0047 166.956 86.9067 166.904 86.8174C166.779 86.6083 166.628 86.4196 166.463 86.2666C166.627 85.713 166.562 85.388 166.41 84.7613C166.38 84.6385 166.351 84.5159 166.324 84.3936L166.307 84.3202C166.106 83.4336 165.973 82.8484 166.355 82.3515C166.394 82.3016 166.406 82.2218 166.389 82.1297C166.372 82.0376 166.327 81.9407 166.265 81.8603C166.202 81.78 166.127 81.7227 166.056 81.7012C165.985 81.6797 165.923 81.6956 165.885 81.7455C165.372 82.4114 165.56 83.2403 165.778 84.2L165.795 84.2733C165.827 84.4154 165.857 84.5426 165.885 84.6551C166.022 85.2193 166.063 85.4058 165.896 85.8964C165.687 85.8189 165.494 85.8186 165.338 85.8957C165.287 85.9241 165.257 85.9861 165.255 86.0685C165.253 86.1508 165.28 86.2469 165.329 86.3363C165.378 86.4256 165.446 86.5011 165.518 86.5466C165.591 86.592 165.661 86.6038 165.715 86.5795ZM169.231 86.7055C169.395 86.8008 169.557 86.8527 169.705 86.8576C169.772 86.8598 169.823 86.8244 169.848 86.7591C169.873 86.6939 169.869 86.6041 169.838 86.5095C169.807 86.4149 169.75 86.3233 169.681 86.2549C169.612 86.1864 169.536 86.1467 169.47 86.1445C169.334 86.138 169.18 86.0589 169.038 85.9229C168.896 85.787 168.778 85.6043 168.706 85.4116C168.689 85.3638 168.666 85.3164 168.638 85.2723C168.61 85.2282 168.578 85.1883 168.542 85.1549C168.507 85.1215 168.47 85.0953 168.433 85.0779C168.396 85.0605 168.36 85.0523 168.328 85.0536C168.295 85.055 168.266 85.0659 168.243 85.0858C168.22 85.1057 168.203 85.1341 168.192 85.1694C168.182 85.2046 168.179 85.246 168.184 85.2911C168.189 85.3362 168.2 85.384 168.219 85.4317C168.318 85.7034 168.466 85.9579 168.639 86.1748C168.342 86.8359 168.511 87.8173 168.648 88.3655C168.659 88.4127 168.676 88.4611 168.7 88.5079C168.724 88.5546 168.753 88.5987 168.786 88.6375C168.819 88.6764 168.855 88.7091 168.892 88.7338C168.929 88.7585 168.966 88.7746 169.001 88.7813C169.036 88.7879 169.069 88.7849 169.097 88.7724C169.124 88.7599 169.147 88.7382 169.163 88.7086C169.179 88.679 169.188 88.6421 169.189 88.6C169.191 88.558 169.185 88.5118 169.171 88.464C169.079 88.0928 168.898 87.1864 169.17 86.6608C169.191 86.6742 169.211 86.6937 169.231 86.7055ZM171.881 94.2497C171.879 94.2066 171.869 94.1603 171.854 94.1134C171.838 94.0665 171.815 94.0199 171.788 93.9765C171.761 93.933 171.729 93.8935 171.695 93.8602C171.66 93.8269 171.624 93.8005 171.588 93.7825C171.455 93.7166 171.322 93.6201 171.196 93.4985C171.07 93.3769 170.954 93.2327 170.854 93.0741C170.754 92.9154 170.673 92.7455 170.614 92.5741C170.555 92.4027 170.521 92.2332 170.512 92.0753C170.506 91.9878 170.471 91.8903 170.417 91.8033C170.362 91.7163 170.29 91.6466 170.218 91.6087C170.181 91.5906 170.146 91.5812 170.114 91.5811C170.081 91.581 170.052 91.59 170.028 91.6078C170.004 91.6256 169.986 91.6518 169.974 91.6848C169.963 91.7179 169.958 91.7571 169.961 91.8004C169.983 92.1898 170.108 92.6009 170.297 92.9861C169.852 93.3331 169.271 93.1689 168.946 93.0257C168.66 92.8997 168.409 92.7211 168.119 92.5141C167.853 92.3256 167.553 92.1119 167.181 91.9101L167.178 91.9091C167.167 91.7203 167.13 91.4326 167.01 91.1421C166.969 91.0527 166.907 90.9724 166.838 90.9172C166.77 90.862 166.698 90.8362 166.639 90.8449C166.579 90.8536 166.536 90.8962 166.518 90.9641C166.5 91.032 166.509 91.1201 166.542 91.2107C166.616 91.3905 166.63 91.6173 166.63 91.7238C166.351 91.6785 166.11 91.7091 165.893 91.7474C165.504 91.815 165.197 91.8689 164.736 91.4827C164.318 91.1312 163.9 90.8675 163.546 90.7201C163.49 90.5281 163.403 90.2864 163.268 90.0612C163.215 89.9724 163.144 89.9001 163.071 89.8602C162.998 89.8203 162.928 89.8161 162.878 89.8485C162.828 89.881 162.8 89.9474 162.802 90.0331C162.805 90.1189 162.836 90.217 162.889 90.3059C162.936 90.3849 162.974 90.4819 163.004 90.5747C162.395 90.5125 162.09 90.8203 162.075 90.8356C162.046 90.8663 162.029 90.9123 162.025 90.9685C162.021 91.0247 162.032 91.089 162.055 91.1543C162.078 91.2197 162.113 91.2835 162.157 91.3388C162.2 91.3941 162.249 91.4388 162.3 91.468C162.344 91.4935 162.387 91.5066 162.426 91.5064C162.465 91.5062 162.499 91.4926 162.524 91.4668C162.527 91.4632 162.83 91.1695 163.429 91.3255C163.738 91.4058 164.181 91.6702 164.614 92.0335C164.735 92.1352 164.847 92.2108 164.956 92.2756C165.007 92.4443 165.027 92.621 165.03 92.6838C165.034 92.7674 165.065 92.8617 165.116 92.9473C165.167 93.0328 165.235 93.1032 165.306 93.144L165.321 93.152C165.393 93.1896 165.462 93.1915 165.511 93.1573C165.56 93.123 165.585 93.0554 165.582 92.9692C165.573 92.8154 165.549 92.6546 165.51 92.4902C165.765 92.5307 165.986 92.4921 166.194 92.4561C166.51 92.4006 166.809 92.348 167.2 92.5588C167.527 92.7342 167.796 92.9262 168.057 93.1115C168.318 93.2977 168.576 93.4693 168.86 93.6141C168.91 93.8045 168.906 94.0179 168.898 94.0855C168.894 94.1277 168.897 94.1753 168.909 94.2252C168.921 94.2751 168.94 94.3262 168.966 94.3751C168.992 94.424 169.024 94.4696 169.059 94.5089C169.095 94.5481 169.134 94.5803 169.173 94.6031C169.24 94.6416 169.305 94.6508 169.355 94.6288C169.405 94.6068 169.438 94.5551 169.446 94.4835C169.466 94.2859 169.455 94.0679 169.414 93.8389C169.918 93.9755 170.369 93.9091 170.709 93.6485C170.983 94.0022 171.303 94.2789 171.624 94.4401C171.697 94.4765 171.765 94.4769 171.813 94.4412C171.861 94.4055 171.886 94.3366 171.881 94.2497Z" fill="#389D2D"/>
</g>
<rect width="76.5016" height="76.5016" rx="4" transform="matrix(0.866025 0.5 0 1 98.8633 60.7835)" fill="url(#paint2_linear_4975_11259)"/>
<rect width="76.5016" height="76.5016" rx="4" transform="matrix(0.866025 -0.5 0 1 175.625 94.161)" fill="url(#paint3_linear_4975_11259)"/>
<rect x="0.866025" width="80.1892" height="80.1892" rx="3.5" transform="matrix(0.866025 -0.5 0.866025 0.5 100.003 41.0279)" stroke="#4C4C4C" stroke-opacity="0.4" stroke-dasharray="22 22"/>
<path d="M75 98.0352V48.0843C75 44.7706 77.6863 42.0843 81 42.0843H83.1053C86.419 42.0843 89.1053 39.398 89.1053 36.0843V4.00006" stroke="url(#paint4_linear_4975_11259)" stroke-opacity="0.5" stroke-linecap="round"/>
<circle cx="88.9565" cy="3.9521" r="2.95261" fill="#ACD4A7"/>
<circle cx="88.9394" cy="3.95003" r="1.7714" fill="#389D2D"/>
<path d="M266.102 184.035V134.084C266.102 130.771 263.415 128.084 260.102 128.084H257.996C254.683 128.084 251.996 125.398 251.996 122.084V90.0001" stroke="url(#paint5_linear_4975_11259)" stroke-opacity="0.5" stroke-linecap="round"/>
<circle cx="251.957" cy="89.9521" r="2.95261" fill="#ACD4A7"/>
<circle cx="251.939" cy="89.95" r="1.7714" fill="#389D2D"/>
<defs>
<linearGradient id="paint0_linear_4975_11259" x1="25.5143" y1="0" x2="25.5143" y2="51.0286" gradientUnits="userSpaceOnUse">
<stop/>
<stop offset="1" stop-color="#666666"/>
</linearGradient>
<linearGradient id="paint1_linear_4975_11259" x1="25.5143" y1="0" x2="25.5143" y2="51.0286" gradientUnits="userSpaceOnUse">
<stop/>
<stop offset="1" stop-color="#666666"/>
</linearGradient>
<linearGradient id="paint2_linear_4975_11259" x1="38.2508" y1="0" x2="38.2508" y2="76.5016" gradientUnits="userSpaceOnUse">
<stop stop-color="#E7E7E7" stop-opacity="0"/>
<stop offset="1" stop-color="#E7E7E7"/>
</linearGradient>
<linearGradient id="paint3_linear_4975_11259" x1="38.2508" y1="0" x2="38.2508" y2="76.5016" gradientUnits="userSpaceOnUse">
<stop stop-color="#E7E7E7" stop-opacity="0"/>
<stop offset="1" stop-color="#E7E7E7"/>
</linearGradient>
<linearGradient id="paint4_linear_4975_11259" x1="82.0526" y1="98.0352" x2="82.0526" y2="4.00005" gradientUnits="userSpaceOnUse">
<stop stop-color="#A7A7A7" stop-opacity="0"/>
<stop offset="1" stop-color="#414141" stop-opacity="0.6"/>
</linearGradient>
<linearGradient id="paint5_linear_4975_11259" x1="259.049" y1="184.035" x2="259.049" y2="90.0001" gradientUnits="userSpaceOnUse">
<stop stop-color="#A7A7A7" stop-opacity="0"/>
<stop offset="1" stop-color="#414141" stop-opacity="0.6"/>
</linearGradient>
<clipPath id="clip0_4975_11259">
<rect width="22.9629" height="22.9629" fill="white" transform="matrix(0.866025 0.5 0 1 155.48 71.4446)"/>
</clipPath>
</defs>
</svg>
