<svg width="118" height="118" viewBox="0 0 118 118" fill="none" xmlns="http://www.w3.org/2000/svg">
<g clip-path="url(#clip0_227_26)">
<rect x="-1.5" y="59.1001" width="85.7013" height="85.7013" rx="5" transform="rotate(-45 -1.5 59.1001)" fill="url(#paint0_linear_227_26)"/>
<path d="M68.4181 70.6781V75.1972H36.7842V70.6781C36.7842 70.6781 36.7842 61.6399 52.6011 61.6399C68.4181 61.6399 68.4181 70.6781 68.4181 70.6781ZM60.5096 49.2123C60.5096 47.6481 60.0458 46.1191 59.1768 44.8186C58.3078 43.518 57.0726 42.5044 55.6276 41.9058C54.1825 41.3072 52.5923 41.1506 51.0583 41.4558C49.5242 41.7609 48.115 42.5141 47.009 43.6201C45.903 44.7262 45.1498 46.1353 44.8446 47.6694C44.5395 49.2035 44.6961 50.7936 45.2946 52.2387C45.8932 53.6838 46.9069 54.9189 48.2074 55.7879C49.508 56.6569 51.037 57.1207 52.6011 57.1207C54.6986 57.1207 56.7101 56.2875 58.1933 54.8044C59.6764 53.3213 60.5096 51.3097 60.5096 49.2123ZM68.2825 61.6399C69.6715 62.7148 70.8082 64.0812 71.6123 65.6427C72.4165 67.2042 72.8688 68.923 72.9372 70.6781V75.1972H81.9754V70.6781C81.9754 70.6781 81.9754 62.4759 68.2825 61.6399ZM66.1585 41.3038C64.6034 41.2966 63.0828 41.7614 61.7975 42.6369C63.1701 44.5547 63.9081 46.8539 63.9081 49.2123C63.9081 51.5706 63.1701 53.8698 61.7975 55.7876C63.0828 56.6631 64.6034 57.128 66.1585 57.1207C68.256 57.1207 70.2675 56.2875 71.7506 54.8044C73.2338 53.3213 74.067 51.3097 74.067 49.2123C74.067 47.1148 73.2338 45.1033 71.7506 43.6201C70.2675 42.137 68.256 41.3038 66.1585 41.3038Z" fill="#EEEEEE"/>
<rect x="6.34749" y="59.1001" width="74.7028" height="74.7028" rx="4.5" transform="rotate(-45 6.34749 59.1001)" stroke="white"/>
</g>
<defs>
<linearGradient id="paint0_linear_227_26" x1="41.3507" y1="59.1001" x2="41.3507" y2="144.801" gradientUnits="userSpaceOnUse">
<stop stop-color="#389D2D"/>
<stop offset="1" stop-color="#3A5037"/>
</linearGradient>
<clipPath id="clip0_227_26">
<rect width="118" height="118" fill="white"/>
</clipPath>
</defs>
</svg>
