<?xml version="1.0" encoding="utf-8"?>
<!-- Generator: Adobe Illustrator 28.0.0, SVG Export Plug-In . SVG Version: 6.00 Build 0)  -->
<svg version="1.1" id="Layer_1" xmlns="http://www.w3.org/2000/svg" xmlns:xlink="http://www.w3.org/1999/xlink" x="0px" y="0px"
	 viewBox="0 0 220 56" width="300" height="76" style="enable-background:new 0 0 220 56;" xml:space="preserve">
<style type="text/css">
	.st0{fill:#3C51A2;}
</style>
<g>
	<polyline class="st0" points="64,16.9 77.1,16.9 77.5,29.5 77.7,29.5 83.1,16.9 96.1,16.9 91.4,39.9 83.5,39.9 87.2,21.8 87,21.8
		78.8,39.9 71.5,39.9 70.8,21.8 70.5,21.8 66.8,39.9 59.4,39.9 64,16.9 	"/>
	<path class="st0" d="M103.9,40.3l0.7-3.7h-1.6c-6,0-8.2-3.4-8.2-6.8c0-5.1,4.1-11,12.1-11h1.4l0.7-3.4h8.8l-0.7,3.4h1.4
		c3.2,0,8.4,0.8,8.4,6.9c0,5.4-3.8,10.9-11.7,10.9h-1.7l-0.7,3.7H103.9 M107.6,24h-0.5c-2.3,0-3.9,2.5-3.9,4.6
		c0,1.3,0.8,2.7,2.4,2.7h0.5L107.6,24z M114.1,31.3h0.5c2.5,0,3.8-2.7,3.8-4.7c0-1.5-0.9-2.6-2.4-2.6h-0.5L114.1,31.3z"/>
	<polyline class="st0" points="153.1,16.9 151.7,23.7 144,23.7 140.7,39.9 131.9,39.9 135.2,23.7 127.4,23.7 128.8,16.9 153.1,16.9
			"/>
	<polyline class="st0" points="163.9,16.9 161.2,30 161.3,30 169.8,16.9 180.1,16.9 175.4,39.9 166.6,39.9 169.3,27 169.1,27
		160.7,39.9 150.4,39.9 155.1,16.9 163.9,16.9 	"/>
	<polyline class="st0" points="186.9,48.5 188.2,42 200.5,45.7 186.9,48.5 	"/>
	<path class="st0" d="M184,43.5H56.8c-2.4,0-3.4,2.6-4.4,5.1c-0.3,0.9-0.9,2.3-1.3,2.8c-0.8-0.8-1.3-4.3-1.5-5.7l-0.1-0.8
		C48.7,40.1,48,35,47.4,30C44.5,8.4,43.1,0.9,39.1,0.8c-5-0.1-6.8,8.8-12.1,35.3l-0.7,3.5c-0.8,3.9-2.6,3.9-3.4,3.9h-2.4l-0.6,3.4h3
		c2,0,5.5-0.9,6.7-6.7l0.7-3.5c3.3-16.3,6.4-31.7,8.6-32.5c1.9,2,3.8,16,5.1,26.2c0.7,5,1.4,10.1,2.1,15l0.1,0.8
		c0.6,3.9,1.3,8.8,5,8.8c2.4,0,3.4-2.6,4.4-5.1c0.4-1,1-2.5,1.4-3h126.4L184,43.5"/>
</g>
</svg>
