<svg xmlns="http://www.w3.org/2000/svg" width="286.695" height="90.864" style="enable-background:new 0 0 286.695 90.864" xml:space="preserve"><path style="fill-rule:evenodd;clip-rule:evenodd;fill:#434343" d="M93.441 23.277V7.574h-1.056v7.222h-9.504V7.574h-1.056v15.703h1.056v-7.459h9.504v7.459h1.056zM102.98 11.9c-3.169 0-5.723 2.59-5.723 5.791a5.713 5.713 0 0 0 5.723 5.723c3.201 0 5.791-2.555 5.791-5.723a5.787 5.787 0 0 0-5.791-5.791zm.034.989c2.589 0 4.735 2.078 4.735 4.803 0 2.691-2.146 4.77-4.735 4.77s-4.735-2.078-4.735-4.77c0-2.725 2.146-4.803 4.735-4.803zm9.402-.819v11.207h5.927c2.76 0 3.952-1.124 3.952-3.1 0-1.362-.716-2.418-2.249-2.759 1.227-.444 1.704-1.432 1.704-2.521 0-1.533-.954-2.828-3.475-2.828h-5.859zm1.022.887h4.838c1.874 0 2.486.919 2.486 2.043 0 1.125-.612 2.043-2.486 2.043h-4.838v-4.086zm0 9.436v-4.565l4.939.034c2.146 0 2.896.887 2.896 2.248 0 1.396-.75 2.283-2.93 2.283h-4.905zM131.084 11.9c-3.168 0-5.724 2.59-5.724 5.791a5.715 5.715 0 0 0 5.724 5.723c3.202 0 5.792-2.555 5.792-5.723a5.787 5.787 0 0 0-5.792-5.791zm.035.989c2.589 0 4.733 2.078 4.733 4.803a4.733 4.733 0 1 1-9.468 0c-.001-2.725 2.146-4.803 4.735-4.803zm14.477-.989c-3.201 0-5.758 2.59-5.758 5.791 0 3.168 2.557 5.723 5.758 5.723a5.762 5.762 0 0 0 4.43-2.044l-.648-.682c-.953 1.124-2.283 1.772-3.781 1.772-2.624 0-4.734-2.078-4.734-4.77 0-2.725 2.11-4.803 4.734-4.803 1.498 0 2.828.646 3.781 1.77l.648-.646a5.714 5.714 0 0 0-4.43-2.111zm17.883 11.377V12.07h-.577l-8.347 9.402V12.07h-.988v11.207h.545l8.313-9.401v9.401h1.054zm13.22-15.703c0 .92-.615 1.191-2.896 1.191-4.157 0-6.678 1.875-6.678 5.757v3.101c0 3.305 2.453 5.826 5.758 5.826 3.338 0 5.758-2.59 5.758-5.758 0-3.134-2.453-5.654-5.654-5.654a5.307 5.307 0 0 0-4.838 3.133v-.885c0-3.236 2.112-4.633 5.586-4.633h.308c2.589 0 3.679-.545 3.679-2.078h-1.023zm-3.817 5.416a4.702 4.702 0 0 1 4.734 4.734c0 2.658-2.042 4.77-4.734 4.77-2.726 0-4.734-2.111-4.734-4.77a4.724 4.724 0 0 1 4.734-4.734zm19.315 10.287V12.07h-.544l-8.347 9.402V12.07h-1.021v11.207h.58l8.312-9.401v9.401h1.02zm10.22-11.377c-2.181 0-4.086 1.328-4.938 3.168l-.035-2.998h-.783v15.328h.987v-6.982a5.28 5.28 0 0 0 4.77 2.998c3.202 0 5.689-2.555 5.689-5.723-.001-3.201-2.488-5.791-5.69-5.791zm-.068.989c2.624 0 4.736 2.078 4.736 4.803 0 2.691-2.112 4.77-4.736 4.77-2.589 0-4.702-2.078-4.702-4.77 0-2.725 2.113-4.803 4.702-4.803zm14.478-.989c-3.167 0-5.723 2.59-5.723 5.791a5.714 5.714 0 0 0 5.723 5.723 5.761 5.761 0 0 0 4.429-2.044l-.647-.682c-.953 1.124-2.282 1.772-3.781 1.772a4.731 4.731 0 0 1-4.734-4.77c0-2.725 2.145-4.803 4.734-4.803 1.499 0 2.828.646 3.781 1.77l.647-.646a5.715 5.715 0 0 0-4.429-2.111zm16.556 11.377h1.157l-2.11-3.235c-.955-1.466-1.5-2.317-2.521-2.623.816-.341 1.361-1.158 2.213-2.487l1.908-2.861h-1.192l-1.532 2.385c-1.228 1.873-1.636 2.555-3.509 2.555h-1.876V12.07H224.9v11.207h1.021v-5.314h2.181c1.875 0 2.316.648 3.509 2.557l1.772 2.757zm14.07 0V12.07h-.545l-8.347 9.402V12.07h-1.021v11.207h.544l8.347-9.401v9.401h1.022zm9.266-12.672c1.701 0 3.065-1.158 3.065-2.69H259c0 1.089-.988 1.907-2.281 1.907-1.296 0-2.249-.818-2.249-1.907h-.819c0 1.532 1.364 2.69 3.068 2.69zm4.974 12.672V12.07h-.547l-8.345 9.402V12.07h-1.023v11.207h.58l8.312-9.401v9.401h1.023zM82.609 33.532h7.733v-.988h-8.755v11.241h1.022V33.532zm15.295-1.124a5.726 5.726 0 0 0-5.756 5.756 5.75 5.75 0 0 0 5.756 5.757c3.167 0 5.757-2.589 5.757-5.757a5.75 5.75 0 0 0-5.757-5.756zm0 .953c2.589 0 4.736 2.078 4.736 4.803 0 2.727-2.146 4.77-4.736 4.77-2.589 0-4.701-2.043-4.701-4.77 0-2.725 2.112-4.803 4.701-4.803zm14.478-.953a5.722 5.722 0 0 0-5.724 5.756c0 3.168 2.556 5.757 5.724 5.757a5.788 5.788 0 0 0 4.428-2.077l-.613-.681c-.987 1.124-2.316 1.771-3.815 1.771-2.589 0-4.735-2.043-4.735-4.77 0-2.725 2.146-4.768 4.735-4.768 1.499 0 2.828.612 3.815 1.736l.613-.647a5.68 5.68 0 0 0-4.428-2.077zm18.464.136h-1.057v5.179c0 3.201-1.771 5.143-4.462 5.143-2.385 0-3.952-1.396-3.952-4.359v-5.962h-1.021v6.03c0 3.371 1.907 5.279 4.87 5.279 1.637 0 3.68-.817 4.565-2.963v1.634c0 2.931-1.432 4.565-4.325 4.599-1.671 0-2.965-.545-4.123-1.43l-.614.647a6.945 6.945 0 0 0 4.737 1.703c3.508 0 5.382-2.215 5.382-5.655v-9.845zm15.738 13.933v-3.679h-1.432l-4.701-10.254h-.545l-4.735 10.254h-1.43v3.679h1.021v-2.691h10.833v2.691h.989zm-6.438-12.23 3.95 8.551h-7.868l3.918-8.551zm19.484 9.538V32.544h-.782l-.035 2.997c-.852-1.873-2.758-3.133-4.974-3.133-3.169 0-5.654 2.554-5.654 5.756 0 3.168 2.485 5.757 5.654 5.757 2.216 0 4.122-1.294 4.974-3.134l.035 2.998h.782zm-5.687-.851c-2.624 0-4.736-2.043-4.736-4.77 0-2.725 2.112-4.803 4.736-4.803 2.554 0 4.734 2.078 4.734 4.803 0 2.727-2.18 4.77-4.734 4.77zm15.907-10.526a5.456 5.456 0 0 0-4.938 3.133l-.068-2.997h-.784v15.363h1.023V40.89a5.27 5.27 0 0 0 4.768 3.03c3.203 0 5.689-2.589 5.689-5.757 0-3.201-2.487-5.755-5.69-5.755zm-.068.988c2.624 0 4.736 2.043 4.736 4.768 0 2.727-2.112 4.77-4.736 4.77-2.589 0-4.734-2.043-4.734-4.77-.001-2.725 2.145-4.768 4.734-4.768zm14.479-.988a5.75 5.75 0 0 0-5.758 5.756c0 3.168 2.589 5.757 5.758 5.757a5.79 5.79 0 0 0 4.427-2.077l-.646-.681c-.955 1.124-2.283 1.771-3.781 1.771-2.589 0-4.736-2.043-4.736-4.77 0-2.725 2.147-4.768 4.736-4.768 1.498 0 2.826.612 3.781 1.736l.646-.647a5.68 5.68 0 0 0-4.427-2.077zm12.093 1.124h4.43v-.988h-9.847v.988h4.394v10.253h1.023V33.532zm7.459-.988v11.241h5.93c2.793 0 3.95-1.158 3.95-3.134 0-1.362-.681-2.385-2.214-2.759 1.192-.41 1.702-1.396 1.702-2.521 0-1.533-.986-2.827-3.474-2.827h-5.894zm1.057.921h4.805c1.873 0 2.485.918 2.485 2.009 0 1.124-.612 2.044-2.485 2.044h-4.805v-4.053zm0 9.4v-4.531h4.905c2.146 0 2.896.921 2.896 2.283 0 1.396-.751 2.248-2.896 2.248h-4.905zm17.613-10.457c-3.373 0-5.725 2.554-5.725 5.756 0 3.441 2.42 5.725 5.962 5.757 1.908 0 3.476-.715 4.701-1.737l-.58-.612a6.5 6.5 0 0 1-4.121 1.431c-2.895-.034-4.906-1.771-4.906-4.668h9.983c.169-.611.067-1.771-.24-2.52-.783-2.01-2.589-3.407-5.074-3.407zm.033.92c2.044 0 3.509 1.123 4.156 2.758.169.478.272 1.057.237 1.5h-9.061c.17-2.351 2.011-4.258 4.668-4.258zm18.942 10.457V32.544h-1.023v5.11h-7.936v-5.11h-.988v11.241h.988v-5.178h7.936v5.178h1.023zm14.238 0V32.544h-.988v5.11h-7.936v-5.11h-.988v11.241h.988v-5.178h7.936v5.178h.988zm5.348-7.391v-3.85h-1.023v11.241h5.521c3.303 0 4.359-1.84 4.359-3.714 0-1.839-1.057-3.678-4.359-3.678h-4.498zm11.413 7.391V32.544h-1.023v11.241h1.023zm-11.379-.953v-5.485h4.565c2.452 0 3.236 1.261 3.236 2.725 0 1.466-.784 2.761-3.236 2.761h-4.565zm20.643-11.752c1.704 0 3.032-1.16 3.032-2.693h-.784c0 1.092-.987 1.908-2.248 1.908-1.293 0-2.281-.816-2.281-1.908h-.784c0 1.533 1.363 2.693 3.065 2.693zm4.974 12.705V32.544h-.577l-8.347 9.401v-9.401h-.988v11.241h.544l8.312-9.402v9.402h1.056zM92.079 53.052h-1.055v5.177c0 3.202-1.772 5.11-4.463 5.11-2.385 0-3.952-1.361-3.952-4.326v-5.961h-1.022v5.996c0 3.371 1.907 5.279 4.872 5.279 1.635 0 3.678-.784 4.565-2.965v1.671c0 2.895-1.432 4.53-4.327 4.563-1.635 0-2.963-.545-4.122-1.43l-.614.647c1.26 1.054 2.828 1.737 4.735 1.737 3.543-.035 5.382-2.249 5.382-5.689v-9.809zm14.138 11.207V53.052h-.988v5.076h-7.938v-5.076H96.27v11.207h1.021v-5.178h7.938v5.178h.988zm14.238 0V53.052h-.544l-8.347 9.367v-9.367h-1.021v11.207h.579l8.313-9.402v9.402h1.02zm4.327-11.207v11.207h5.928c2.794 0 3.951-1.157 3.951-3.134 0-1.363-.682-2.385-2.214-2.76 1.192-.409 1.704-1.396 1.704-2.521 0-1.532-.955-2.792-3.477-2.792h-5.892zm1.056.886h4.804c1.907 0 2.485.919 2.485 2.01 0 1.124-.578 2.077-2.485 2.077h-4.804v-4.087zm0 9.401v-4.53h4.939c2.112.033 2.861.92 2.861 2.281 0 1.396-.749 2.249-2.896 2.249h-4.904zm17.613-10.458c-3.373 0-5.725 2.59-5.725 5.756 0 3.477 2.42 5.726 5.962 5.758 1.908 0 3.477-.716 4.701-1.704l-.579-.646a6.504 6.504 0 0 1-4.122 1.43c-2.895-.033-4.905-1.77-4.905-4.666h9.982c.169-.58.068-1.737-.204-2.521-.819-2.01-2.624-3.407-5.11-3.407zm.033.953c2.044 0 3.509 1.125 4.157 2.761.169.441.271 1.055.236 1.498h-9.027c.137-2.385 1.977-4.259 4.634-4.259zm15.637-.953c-2.216 0-4.121 1.295-4.974 3.135l-.035-2.964h-.784V68.38h1.023v-7.018c.817 1.808 2.622 3.032 4.77 3.032 3.166 0 5.654-2.554 5.654-5.758 0-3.165-2.488-5.755-5.654-5.755zm-.069.987c2.589 0 4.734 2.044 4.734 4.769 0 2.726-2.146 4.77-4.734 4.77s-4.736-2.044-4.736-4.77c0-2.725 2.147-4.769 4.736-4.769zm14.478-.987a5.752 5.752 0 0 0-5.758 5.756 5.73 5.73 0 0 0 5.758 5.758c1.772 0 3.338-.816 4.395-2.077l-.613-.681c-.955 1.122-2.283 1.77-3.781 1.77-2.624 0-4.734-2.044-4.734-4.77 0-2.725 2.11-4.769 4.734-4.769 1.498 0 2.826.614 3.781 1.738l.613-.647c-1.057-1.261-2.623-2.078-4.395-2.078zm17.85 11.378V53.052h-.545l-8.347 9.367v-9.367h-1.022v11.207h.579l8.312-9.402v9.402h1.023zm8.483-10.253h4.427v-.954h-9.877v.954h4.427v10.253h1.023V54.006zm12.501-1.125c-3.372 0-5.722 2.59-5.722 5.756 0 3.477 2.417 5.726 5.962 5.758 1.905 0 3.474-.716 4.701-1.704l-.58-.646a6.505 6.505 0 0 1-4.121 1.43c-2.896-.033-4.906-1.77-4.906-4.666h9.98c.171-.58.068-1.737-.237-2.521-.784-2.01-2.589-3.407-5.077-3.407zm.035.953c2.043 0 3.51 1.125 4.155 2.761.171.441.272 1.055.239 1.498h-9.027c.136-2.385 1.977-4.259 4.633-4.259zm12.741.172h4.427v-.954h-9.877v.954h4.427v10.253h1.023V54.006zM26.639 88.24V74.07h-2.18v5.994h-6.541V74.07h-2.181v14.17h2.181v-6.096h6.541v6.096h2.18zm6.473-3.167h5.518l1.294 3.167h2.419l-5.791-14.17h-1.296l-5.858 14.17h2.419l1.295-3.167zm2.759-7.017 2.011 4.938h-3.986l1.975-4.938zm14.511-4.122c-4.019 0-7.221 3.237-7.221 7.223s3.203 7.255 7.221 7.255c2.078 0 3.985-.92 5.349-2.35L54.3 84.733c-1.021 1.021-2.385 1.601-3.917 1.601-2.827 0-5.042-2.147-5.042-5.178 0-2.998 2.215-5.146 5.042-5.146 1.533 0 2.896.58 3.917 1.601l1.432-1.328c-1.364-1.429-3.272-2.349-5.35-2.349zm13.661 2.213H68.2V74.07H57.707v2.077h4.156V88.24h2.181V76.147zm13.252-2.213c-3.985 0-7.188 3.237-7.188 7.223 0 4.019 3.203 7.255 7.188 7.255a7.239 7.239 0 0 0 7.255-7.255c0-3.986-3.236-7.223-7.255-7.223zm0 2.077c2.827 0 5.075 2.147 5.075 5.146 0 3.03-2.248 5.178-5.075 5.178-2.793 0-5.009-2.147-5.009-5.178 0-2.999 2.216-5.146 5.009-5.146zM97.767 88.24V74.07h-4.666c-3.815 0-6.132 2.145-6.132 5.245 0 2.249 1.294 3.781 3.339 4.498-.716.34-1.362 1.056-2.249 2.417l-1.294 2.01h2.453l1.022-1.602c1.157-1.77 1.669-2.077 3.1-2.109h2.249v3.711h2.178zm-2.179-12.093v6.337h-2.691c-2.146 0-3.884-.955-3.884-3.169 0-2.145 1.737-3.168 3.884-3.168h2.691zm25.378 14.717v-4.666h-1.84V74.07h-2.18v12.128h-5.315V74.07h-2.179v12.128h-5.28V74.07h-2.18v14.17h16.794v2.624h2.18zm5.86-5.791h5.519l1.295 3.167h2.385l-5.792-14.17h-1.26l-5.86 14.17h2.42l1.293-3.167zm2.759-7.017 2.009 4.938h-4.02l2.011-4.938zm19.281 10.184V74.07H144.2c-3.781 0-6.131 2.145-6.131 5.245 0 2.249 1.293 3.781 3.338 4.498-.681.34-1.364 1.056-2.249 2.417l-1.296 2.01h2.453l1.057-1.602c1.159-1.77 1.636-2.077 3.101-2.109h2.213v3.711h2.18zm-2.181-12.093v6.337h-2.689c-2.112 0-3.885-.955-3.885-3.169 0-2.145 1.772-3.168 3.885-3.168h2.689zm23.948 12.093V74.07h-2.18v5.994h-6.54V74.07h-2.181v14.17h2.181v-6.096h6.54v6.096h2.18zm6.474-3.167h5.519l1.293 3.167h2.42l-5.79-14.17h-1.296l-5.858 14.17h2.417l1.295-3.167zm2.793-7.017 1.977 4.938h-3.985l2.008-4.938zm12.093 10.184 8.243-14.17h-2.485l-4.021 6.847-4.054-6.847h-2.485l5.278 9.095-2.997 5.075h2.521zm20.371 0h2.488l-3.373-5.211c-.852-1.329-1.295-1.806-1.908-2.01.512-.271.953-.751 1.772-1.943l3.234-5.006h-2.519l-2.728 4.325c-.816 1.192-1.157 1.601-2.35 1.601h-1.669V74.07h-2.181v14.17h2.181v-6.131h1.806c1.228 0 1.567.408 2.349 1.636l2.898 4.495zm8.007-3.167h5.518l1.261 3.167h2.418l-5.791-14.17h-1.26l-5.859 14.17h2.418l1.295-3.167zm2.757-7.017 2.012 4.938h-4.021l2.009-4.938z"/><path style="fill-rule:evenodd;clip-rule:evenodd;fill:#1dbfea" d="m51.575 15.204 8.21 2.691-4.906 6.745 4.462 3.27 4.805-6.607 4.632 6.404 4.496-3.27-4.871-6.678 7.869-2.556-1.702-5.244-7.87 2.555v-8.28h-5.552v8.279l-7.835-2.555-1.738 5.246z"/><path style="fill-rule:evenodd;clip-rule:evenodd;fill:#434343" d="m12.843 76.83-4.259 1.361 2.556 3.542-2.316 1.704-2.521-3.441-2.419 3.341-2.316-1.704 2.521-3.475L0 76.83l.885-2.76 4.088 1.328v-4.293h2.896v4.293l4.087-1.328.887 2.76z"/><path style="fill:#434343" d="M46.056 64.259V7.574H32.293v31.169L8.823 7.574H.545v56.685h13.762v-31.17l23.471 31.17z"/></svg>