<svg width="626" height="516" viewBox="0 0 626 516" fill="none" xmlns="http://www.w3.org/2000/svg">
<g clip-path="url(#clip0_305_99)">
<path fill-rule="evenodd" clip-rule="evenodd" d="M324.807 120.117C327.817 118.38 332.698 118.38 335.709 120.117L373.1 141.682C374.641 142.571 375.594 144.211 375.602 145.99L376.289 291.451C376.289 294.924 373.848 299.147 370.837 300.883L332.054 322.944C330.512 323.822 328.62 323.816 327.083 322.93L289.695 301.366C286.685 299.63 284.244 295.407 284.244 291.934L284.245 147.037C284.245 145.272 285.176 143.638 286.693 142.738L324.807 120.117ZM334.619 120.746L372.01 142.311C373.551 143.199 374.504 144.84 374.512 146.619L375.198 292.08L375.193 292.342C375.076 295.067 373.17 298.28 370.837 299.626L330.813 322.393C330.039 322.833 329.091 322.83 328.32 322.385L327.969 322.183L289.695 300.109C287.362 298.763 285.457 295.551 285.34 292.825L285.334 292.563V147.666C285.334 145.901 286.265 144.267 287.782 143.366L325.897 120.746L326.127 120.619C328.548 119.357 332.285 119.4 334.619 120.746Z" fill="url(#paint0_linear_305_99)"/>
<path fill-rule="evenodd" clip-rule="evenodd" d="M334.619 120.746L372.01 142.311C373.551 143.199 374.504 144.84 374.512 146.619L375.198 292.08L375.193 292.342C375.076 295.067 373.17 298.28 370.837 299.626L330.813 322.393V176.09C330.813 175.305 330.176 174.668 329.391 174.668C328.605 174.668 327.969 175.305 327.969 176.09V322.183L289.695 300.109C287.362 298.763 285.457 295.551 285.34 292.825L285.334 292.563V147.666C285.334 145.901 286.265 144.267 287.782 143.366L325.897 120.746L326.127 120.619C328.548 119.357 332.285 119.4 334.619 120.746Z" fill="#EEEEEE"/>
<path d="M327.969 322.183L328.32 322.385C329.091 322.83 330.039 322.833 330.813 322.393V176.09C330.813 175.305 330.176 174.668 329.391 174.668C328.605 174.668 327.969 175.305 327.969 176.09V322.183Z" fill="#C7C7C7"/>
<g filter="url(#filter0_d_305_99)">
<path d="M326.484 126.572L294.979 144.776C292.588 146.157 292.588 148.397 294.979 149.778L325.436 167.376C327.827 168.758 331.704 168.758 334.095 167.376L365.599 149.173C367.99 147.791 367.99 145.552 365.599 144.17L335.143 126.572C332.752 125.191 328.875 125.191 326.484 126.572Z" fill="#EEEEEE"/>
</g>
<path d="M326.918 126.823L295.413 145.027C293.261 146.27 293.261 148.286 295.413 149.529L325.87 167.127C328.022 168.37 331.511 168.37 333.663 167.127L365.167 148.924C367.319 147.68 367.319 145.664 365.167 144.421L334.711 126.823C332.559 125.58 329.07 125.58 326.918 126.823Z" stroke="#DDDDDD"/>
<path d="M376.046 212.951H284.416V328.069H376.046V212.951Z" fill="url(#paint1_linear_305_99)"/>
<path d="M330.049 202.068H327.221V260.068H330.049V202.068Z" fill="url(#paint2_linear_305_99)"/>
<path fill-rule="evenodd" clip-rule="evenodd" d="M327.328 46.4444C329.872 44.9873 333.996 44.9873 336.54 46.4444L368.784 64.9147C369.684 65.43 370.243 66.3781 370.257 67.4098L370.826 109.814C370.826 112.728 368.764 116.272 366.22 117.729L332.812 136.603C331.905 137.116 330.793 137.112 329.889 136.595L297.662 118.134C295.119 116.677 293.057 113.133 293.057 110.219L293.058 68.3122C293.058 67.2799 293.605 66.3237 294.499 65.7967L327.328 46.4444ZM335.619 46.9721L367.863 65.4429C368.762 65.9576 369.322 66.9056 369.336 67.9373L369.905 110.341L369.9 110.561C369.802 112.849 368.192 115.544 366.22 116.674L332.812 135.548C331.905 136.06 330.793 136.057 329.889 135.539L297.662 117.079C295.691 115.949 294.081 113.254 293.982 110.967L293.978 110.747V68.8398C293.978 67.8075 294.526 66.8512 295.419 66.3248L328.249 46.9721L328.444 46.8659C330.489 45.8072 333.647 45.8428 335.619 46.9721Z" fill="url(#paint3_linear_305_99)"/>
<path d="M369.345 67.9373C369.331 66.9056 368.771 65.9576 367.872 65.4429L335.627 46.9721C333.656 45.8428 330.498 45.8072 328.452 46.8659L328.258 46.9721L295.428 66.3249C294.534 66.8512 293.986 67.8075 293.986 68.8398V110.746L293.991 110.967C294.09 113.254 295.7 115.949 297.671 117.079L329.898 135.539C330.802 136.057 331.914 136.06 332.821 135.548L366.229 116.674C368.2 115.544 369.81 112.849 369.909 110.561L369.914 110.341L369.345 67.9373Z" fill="url(#paint4_linear_305_99)"/>
<path d="M369.345 67.9373C369.331 66.9056 368.771 65.9576 367.872 65.4429L335.627 46.9721C333.656 45.8428 330.498 45.8072 328.452 46.8659L328.258 46.9721L295.428 66.3249C294.534 66.8512 293.986 67.8075 293.986 68.8398V110.746L293.991 110.967C294.09 113.254 295.7 115.949 297.671 117.079L329.898 135.539C330.802 136.057 331.914 136.06 332.821 135.548L366.229 116.674C368.2 115.544 369.81 112.849 369.909 110.561L369.914 110.341L369.345 67.9373Z" fill="#F9F9F9"/>
<path d="M329.845 51.3785L301.006 67.9282C299.74 68.655 299.74 69.8333 301.006 70.5601L328.959 86.6016C330.226 87.3284 332.279 87.3284 333.545 86.6016L362.384 70.052C363.651 69.3252 363.651 68.1468 362.384 67.4201L334.431 51.3785C333.164 50.6518 331.111 50.6518 329.845 51.3785Z" stroke="#DDDDDD"/>
<path d="M331.452 96.0332C332.7 96.0332 333.897 96.5262 334.779 97.4035C335.662 98.2802 336.158 99.4699 336.158 100.71C336.158 101.775 335.793 102.757 335.193 103.552C334.181 103.926 333.275 104.523 332.523 105.271L331.452 105.388C330.204 105.388 329.007 104.895 328.125 104.018C327.242 103.14 326.746 101.951 326.746 100.71C326.746 99.4699 327.242 98.2802 328.125 97.4035C329.007 96.5262 330.204 96.0332 331.452 96.0332ZM322.041 114.742V112.404C322.041 109.924 325.935 107.89 330.864 107.726C330.487 108.638 330.276 109.621 330.276 110.65C330.276 112.158 330.723 113.573 331.452 114.742H322.041Z" fill="#389D2D"/>
<path d="M339.105 105.387C339.573 105.387 340.022 105.572 340.353 105.901C340.684 106.23 340.869 106.676 340.869 107.141V107.726H341.458C341.926 107.726 342.374 107.91 342.705 108.239C343.036 108.568 343.222 109.014 343.222 109.48V114.157C343.222 114.622 343.036 115.068 342.705 115.397C342.374 115.726 341.926 115.911 341.458 115.911H334.399C333.931 115.911 333.482 115.726 333.152 115.397C332.821 115.068 332.635 114.622 332.635 114.157V109.48C332.635 109.014 332.821 108.568 333.152 108.239C333.482 107.91 333.931 107.726 334.399 107.726H334.988V107.141C334.988 106.676 335.173 106.23 335.504 105.901C335.835 105.572 336.284 105.387 336.752 105.387H339.105ZM336.752 106.556C336.596 106.556 336.446 106.618 336.336 106.727C336.226 106.837 336.164 106.986 336.164 107.141V107.726H339.693V107.141C339.693 106.986 339.631 106.837 339.521 106.727C339.41 106.618 339.261 106.556 339.105 106.556H336.752Z" fill="#389D2D"/>
<path d="M339.105 105.387C339.573 105.387 340.022 105.572 340.353 105.901C340.684 106.23 340.869 106.676 340.869 107.141V107.726H341.458C341.926 107.726 342.374 107.91 342.705 108.239C343.036 108.568 343.222 109.014 343.222 109.48V114.157C343.222 114.622 343.036 115.068 342.705 115.397C342.374 115.726 341.926 115.911 341.458 115.911H334.399C333.931 115.911 333.482 115.726 333.152 115.397C332.821 115.068 332.635 114.622 332.635 114.157V109.48C332.635 109.014 332.821 108.568 333.152 108.239C333.482 107.91 333.931 107.726 334.399 107.726H334.988V107.141C334.988 106.676 335.173 106.23 335.504 105.901C335.835 105.572 336.284 105.387 336.752 105.387H339.105ZM336.752 106.556C336.596 106.556 336.446 106.618 336.336 106.727C336.226 106.837 336.164 106.986 336.164 107.141V107.726H339.693V107.141C339.693 106.986 339.631 106.837 339.521 106.727C339.41 106.618 339.261 106.556 339.105 106.556H336.752Z" fill="#389D2D"/>
<path d="M369.979 73.8926V101.743" stroke="url(#paint5_radial_305_99)"/>
<path d="M369.963 109.699V99.4688" stroke="url(#paint6_radial_305_99)"/>
<path d="M369.874 100.986C372.19 100.986 374.067 99.1196 374.067 96.818C374.067 94.5163 372.19 92.6504 369.874 92.6504C367.559 92.6504 365.682 94.5163 365.682 96.818C365.682 99.1196 367.559 100.986 369.874 100.986Z" fill="#ACD4A7"/>
<path d="M369.877 99.3175C371.266 99.3175 372.393 98.1979 372.393 96.8169C372.393 95.4359 371.266 94.3164 369.877 94.3164C368.488 94.3164 367.361 95.4359 367.361 96.8169C367.361 98.1979 368.488 99.3175 369.877 99.3175Z" fill="#389D2D"/>
<path d="M331.804 141.519C334.12 141.519 335.997 139.653 335.997 137.351C335.997 135.049 334.12 133.184 331.804 133.184C329.489 133.184 327.611 135.049 327.611 137.351C327.611 139.653 329.489 141.519 331.804 141.519Z" fill="#ACD4A7"/>
<path d="M331.799 139.851C333.188 139.851 334.315 138.731 334.315 137.35C334.315 135.969 333.188 134.85 331.799 134.85C330.41 134.85 329.283 135.969 329.283 137.35C329.283 138.731 330.41 139.851 331.799 139.851Z" fill="#389D2D"/>
<path d="M293.361 72.7559V100.607" stroke="url(#paint7_radial_305_99)"/>
<path d="M293.338 108.563V98.332" stroke="url(#paint8_radial_305_99)"/>
<path d="M293.249 100.986C295.565 100.986 297.442 99.1196 297.442 96.818C297.442 94.5163 295.565 92.6504 293.249 92.6504C290.934 92.6504 289.057 94.5163 289.057 96.818C289.057 99.1196 290.934 100.986 293.249 100.986Z" fill="#ACD4A7"/>
<path d="M293.244 99.3175C294.634 99.3175 295.76 98.1979 295.76 96.8169C295.76 95.4359 294.634 94.3164 293.244 94.3164C291.855 94.3164 290.729 95.4359 290.729 96.8169C290.729 98.1979 291.855 99.3175 293.244 99.3175Z" fill="#389D2D"/>
<path d="M329.822 2.27489L298.406 33.5023C297.371 34.5301 297.371 36.1965 298.406 37.2243L329.822 68.4516C330.856 69.4794 332.533 69.4794 333.567 68.4516L364.984 37.2243C366.018 36.1965 366.018 34.5301 364.984 33.5023L333.567 2.27489C332.533 1.24707 330.856 1.24707 329.822 2.27489Z" fill="url(#paint9_linear_305_99)" stroke="url(#paint10_linear_305_99)"/>
<mask id="mask0_305_99" style="mask-type:luminance" maskUnits="userSpaceOnUse" x="320" y="23" width="23" height="24">
<path d="M342.604 23.9824H320.244V46.2073H342.604V23.9824Z" fill="white"/>
</mask>
<g mask="url(#mask0_305_99)">
<path d="M326.752 24.0124C326.634 24.0601 321.874 27.8844 321.844 27.9538C321.831 27.9929 321.817 28.2273 321.817 28.4747V28.9262L321.582 29.0912C321.167 29.3819 321.206 28.6093 321.206 36.2795C321.206 42.6865 321.21 43.0771 321.28 43.1596C321.376 43.2682 326.682 46.1635 326.84 46.1895C326.901 46.1982 330.159 45.3995 334.198 44.3881C340.806 42.7256 341.456 42.5519 341.548 42.4521L341.644 42.3392V36.3532V30.3673L341.548 30.2588C341.465 30.1677 341.05 30.0157 339.373 29.4688C337.474 28.8523 337.286 28.796 337.146 28.8394C337.063 28.8654 336.443 29.1085 335.77 29.3819L334.548 29.8811L334.526 28.9349C334.508 28.2316 334.491 27.9712 334.447 27.9191C334.412 27.88 334.22 27.7932 334.019 27.7281L333.652 27.6109V27.1638C333.652 26.7254 333.596 26.4649 333.482 26.3955C333.377 26.3304 326.949 23.982 326.888 23.9863C326.848 23.9863 326.787 23.9994 326.752 24.0124ZM328.892 27.65C329.53 27.8323 330.102 28.0016 330.172 28.0276L330.29 28.071V29.4384C330.29 30.6712 330.281 30.8014 330.215 30.8274C330.15 30.8535 328.045 30.4541 327.726 30.3586L327.582 30.3109V28.848C327.582 28.0407 327.595 27.3678 327.613 27.3548C327.661 27.3027 327.7 27.3157 328.892 27.65ZM326.119 29.0998V30.5496L325.333 30.8925C324.901 31.0792 324.508 31.2268 324.46 31.2225C324.377 31.2094 324.372 31.1703 324.363 29.9506C324.355 29.2561 324.363 28.67 324.385 28.644C324.442 28.5572 325.988 27.6283 326.054 27.6369C326.11 27.65 326.119 27.8453 326.119 29.0998ZM332.561 28.7005C332.958 28.809 333.307 28.9218 333.338 28.9435C333.377 28.9739 333.39 29.2821 333.39 30.211C333.39 31.2659 333.382 31.4438 333.325 31.4655C333.246 31.4959 331.294 31.1096 331.22 31.0488C331.146 30.988 331.137 28.453 331.211 28.3793C331.246 28.3445 331.338 28.3532 331.552 28.4139C331.709 28.4617 332.163 28.5876 332.561 28.7005ZM323.324 29.4601C323.337 29.5165 323.342 30.0591 323.337 30.6668L323.324 31.7738L322.748 32.0299C322.263 32.2469 322.158 32.2773 322.101 32.2295C322.045 32.1818 322.036 32.0211 322.036 31.14C322.036 30.2024 322.045 30.0938 322.114 30.0374C322.28 29.8985 323.154 29.3733 323.224 29.369C323.267 29.3646 323.311 29.4036 323.324 29.4601ZM338.408 30.3673C338.661 30.4367 338.963 30.5279 339.081 30.5627L339.286 30.6321V31.6261C339.286 32.5247 339.277 32.6246 339.212 32.6506C339.172 32.6679 338.854 32.6246 338.509 32.5551C338.046 32.4639 337.871 32.4118 337.84 32.3554C337.784 32.2512 337.788 30.4238 337.845 30.3152C337.871 30.2718 337.902 30.2327 337.915 30.2327C337.928 30.2327 338.15 30.2935 338.408 30.3673ZM340.4 30.9403L340.88 31.0792L340.893 32.0255C340.902 32.8025 340.893 32.9718 340.841 32.9935C340.784 33.0152 339.753 32.8155 339.675 32.7678C339.627 32.7417 339.622 30.8274 339.666 30.7797C339.705 30.745 339.797 30.7623 340.4 30.9403ZM329.006 31.7303C329.669 31.8388 330.228 31.9387 330.25 31.9517C330.272 31.9647 330.29 32.5768 330.29 33.3408C330.29 34.5214 330.281 34.7081 330.224 34.7298C330.124 34.7689 327.7 34.5692 327.639 34.5214C327.595 34.4867 327.582 34.1351 327.582 33.0326C327.582 32.2425 327.595 31.5784 327.613 31.5654C327.661 31.5176 327.748 31.5263 329.006 31.7303ZM326.141 33.1628V34.617L326.045 34.6387C325.988 34.6517 325.612 34.7211 325.202 34.7906C324.674 34.8774 324.446 34.9034 324.407 34.8687C324.363 34.834 324.35 34.5302 324.35 33.5708C324.35 32.3858 324.355 32.3163 324.433 32.2642C324.573 32.1774 325.892 31.7173 326.023 31.713L326.141 31.7086V33.1628ZM332.277 32.2556C332.831 32.3424 333.307 32.4335 333.338 32.4596C333.417 32.5203 333.417 34.8904 333.334 34.9555C333.294 34.9903 332.993 34.9816 332.264 34.9208C331.705 34.8774 331.233 34.8253 331.207 34.8123C331.159 34.7819 331.146 32.1774 331.194 32.1297C331.233 32.0906 331.159 32.0819 332.277 32.2556ZM323.294 32.7157C323.372 32.7938 323.368 35.0206 323.294 35.0858C323.193 35.1595 322.158 35.3158 322.093 35.2594C322.049 35.2247 322.036 34.9816 322.036 34.1872C322.036 33.6229 322.053 33.1411 322.071 33.1107C322.097 33.0716 323.093 32.6853 323.219 32.6679C323.232 32.6636 323.263 32.6853 323.294 32.7157ZM338.587 33.2756C338.91 33.3277 339.203 33.3885 339.233 33.4145C339.273 33.4449 339.286 33.7011 339.286 34.4216C339.286 35.1422 339.273 35.3983 339.233 35.4287C339.146 35.4938 337.888 35.3809 337.84 35.3072C337.797 35.2377 337.788 33.3625 337.827 33.2539C337.862 33.1628 337.888 33.1671 338.587 33.2756ZM340.312 33.5534C340.531 33.5925 340.749 33.6316 340.806 33.6403L340.902 33.662V34.6256V35.585L340.334 35.5546C340.02 35.5372 339.736 35.5155 339.701 35.5025C339.644 35.4807 339.635 35.3201 339.635 34.4824V33.4883H339.779C339.854 33.4883 340.098 33.5188 340.312 33.5534ZM330.237 35.8454C330.277 35.8714 330.29 36.2014 330.29 37.2431C330.29 38.4282 330.281 38.6061 330.224 38.6278C330.119 38.6669 327.739 38.7624 327.656 38.7277C327.586 38.7016 327.582 38.5757 327.582 37.2475C327.582 36.0364 327.591 35.789 327.643 35.7586C327.722 35.7152 330.159 35.7976 330.237 35.8454ZM326.071 35.7716C326.132 35.7933 326.141 35.9626 326.141 37.2257C326.141 38.5106 326.132 38.6582 326.071 38.6843C325.971 38.7233 324.473 38.5714 324.407 38.515C324.324 38.4499 324.324 35.9843 324.407 35.9322C324.433 35.9148 324.805 35.8671 325.224 35.828C325.643 35.789 325.992 35.7542 325.997 35.7499C326.001 35.7499 326.032 35.7585 326.071 35.7716ZM333.338 35.9713C333.377 36.006 333.39 36.3098 333.39 37.2214C333.39 38.133 333.377 38.4368 333.338 38.4716C333.277 38.515 331.329 38.6192 331.224 38.5801C331.172 38.5627 331.163 38.3457 331.163 37.2475C331.163 36.5226 331.176 35.9192 331.198 35.9018C331.242 35.8497 333.272 35.9192 333.338 35.9713ZM335.784 36.0234C336.81 36.0668 337.303 36.1015 337.343 36.1363C337.434 36.2143 337.439 43.216 337.351 43.3072C337.268 43.3854 334.216 44.1493 334.12 44.1102C334.05 44.0842 334.045 43.8411 334.045 40.0733C334.045 35.9235 334.045 35.9626 334.22 35.9626C334.255 35.9626 334.958 35.993 335.784 36.0234ZM323.32 36.0754C323.359 36.1797 323.35 38.3197 323.307 38.3891C323.276 38.4368 323.176 38.4368 322.708 38.3934C322.398 38.3631 322.119 38.3197 322.093 38.2979C322.027 38.2459 322.01 36.2404 322.075 36.1406C322.114 36.0841 322.551 36.0234 323.045 36.0103C323.237 36.006 323.298 36.0234 323.32 36.0754ZM339.233 36.1883C339.273 36.2231 339.286 36.4792 339.286 37.1997C339.286 37.9203 339.273 38.1764 339.233 38.2068C339.203 38.2328 338.888 38.2632 338.535 38.2806C337.928 38.3066 337.893 38.3066 337.849 38.2242C337.775 38.0896 337.784 36.2447 337.858 36.1709C337.906 36.1275 338.063 36.1145 338.548 36.1275C338.893 36.1363 339.203 36.1666 339.233 36.1883ZM340.871 36.2621C340.889 36.2795 340.897 36.7136 340.893 37.2257L340.88 38.1547L340.325 38.1938C340.024 38.2154 339.744 38.2198 339.705 38.2068C339.644 38.1808 339.635 38.0548 339.635 37.2084C339.635 36.6745 339.648 36.2231 339.67 36.2014C339.71 36.1623 340.823 36.2143 340.871 36.2621ZM340.832 38.8101C340.893 38.8318 340.902 38.9621 340.902 39.7868C340.902 40.7374 340.902 40.7374 340.806 40.7591C340.526 40.82 339.731 40.9371 339.688 40.9198C339.648 40.9068 339.635 40.642 339.635 39.9084C339.635 39.3614 339.64 38.91 339.648 38.91C339.653 38.9056 339.902 38.8796 340.203 38.8492C340.504 38.8189 340.753 38.7928 340.758 38.7884C340.762 38.7884 340.793 38.7972 340.832 38.8101ZM339.277 39.9865L339.286 40.9979L339.19 41.0196C339.133 41.0326 338.827 41.0891 338.504 41.1412C338.006 41.228 337.915 41.2367 337.862 41.1846C337.775 41.0934 337.771 39.1661 337.862 39.0923C337.932 39.0359 338.578 38.9664 338.98 38.9751L339.264 38.9795L339.277 39.9865ZM322.765 39.2225C323.023 39.2703 323.263 39.3311 323.294 39.3571C323.333 39.3918 323.346 39.8867 323.337 41.6664C323.324 43.7934 323.32 43.9279 323.246 43.941C323.167 43.9584 322.123 43.4157 322.071 43.3246C322.027 43.2638 322.027 39.2008 322.066 39.1618C322.114 39.114 322.267 39.127 322.765 39.2225ZM333.338 39.4873C333.417 39.5654 333.412 41.9225 333.338 41.9876C333.264 42.044 331.32 42.3609 331.233 42.3306C331.172 42.3045 331.163 42.1482 331.163 40.9806V39.6523L331.264 39.6306C331.338 39.6132 332.683 39.483 333.22 39.4396C333.255 39.4396 333.307 39.4569 333.338 39.4873ZM325.399 39.7087L326.119 39.8476L326.132 42.6561C326.141 45.0392 326.132 45.4646 326.08 45.4819C326.014 45.508 324.442 44.6746 324.385 44.5877C324.346 44.5226 324.337 39.6349 324.381 39.5958C324.433 39.5437 324.669 39.5698 325.399 39.7087ZM330.29 41.1238C330.29 42.1439 330.277 42.4738 330.237 42.5085C330.163 42.5649 327.731 42.9686 327.648 42.9339C327.591 42.9122 327.582 42.6908 327.582 41.4624C327.582 40.3511 327.595 39.9995 327.639 39.9648C327.713 39.904 330.115 39.7 330.215 39.7478C330.285 39.7825 330.29 39.891 330.29 41.1238Z" fill="#EEEEEE"/>
<path d="M334.576 36.4917C334.493 36.5741 334.502 42.7467 334.58 42.8162C334.659 42.877 336.742 43.3458 336.882 43.3328L336.991 43.3197L337 39.999C337.009 38.1716 336.995 36.6523 336.978 36.6219C336.952 36.5828 336.62 36.5481 335.829 36.5047C335.218 36.47 334.698 36.4396 334.677 36.4396C334.65 36.4396 334.607 36.4613 334.576 36.4917Z" fill="#EEEEEE"/>
</g>
<path d="M329.859 6.40062L302.593 33.5023C301.559 34.5301 301.559 36.1965 302.593 37.2243L329.859 64.3259C330.893 65.3537 332.57 65.3537 333.604 64.3259L360.87 37.2243C361.904 36.1965 361.904 34.5301 360.87 33.5023L333.604 6.40062C332.57 5.3728 330.893 5.37281 329.859 6.40062Z" stroke="#A7A7A7" stroke-opacity="0.3"/>
<g opacity="0.05" filter="url(#filter1_f_305_99)">
<path d="M562.427 481.326C540.093 489.447 511.561 495.21 480.437 497.885C449.313 500.561 416.996 500.029 387.57 496.357C358.145 492.685 332.933 486.039 315.123 477.257C297.312 468.476 287.702 457.954 287.508 447.022C287.491 446.899 287.496 446.776 287.522 446.652L302.19 353.903C301.94 345.416 294.394 337.257 280.503 330.454C266.611 323.651 246.995 318.508 224.128 315.673C201.26 312.839 176.164 312.44 152.002 314.526C127.841 316.613 105.695 321.092 88.356 327.398C71.017 333.705 59.26 341.557 54.568 349.965C49.8756 358.373 52.458 366.961 61.989 374.646C71.52 382.331 87.573 388.77 108.126 393.151C128.678 397.531 152.81 399.658 177.48 399.262L215.837 397.797C218.185 397.708 220.539 397.779 222.766 398.006C224.993 398.232 227.049 398.61 228.817 399.117C230.584 399.624 232.028 400.251 233.067 400.961C234.106 401.671 234.719 402.452 234.872 403.257C235.024 404.063 234.712 404.878 233.955 405.656C233.197 406.434 232.008 407.16 230.456 407.792C228.904 408.425 227.019 408.951 224.908 409.341C222.798 409.731 220.503 409.977 218.156 410.066L179.252 411.555C178.895 411.571 178.537 411.58 178.179 411.581C146.404 412.136 115.284 409.437 88.757 403.824C62.229 398.211 41.4842 389.937 29.1464 380.048C16.8085 370.159 13.4316 359.1 19.4426 348.268C25.4536 337.436 40.5826 327.319 62.916 319.196C85.25 311.073 113.785 305.308 144.913 302.632C176.041 299.956 208.363 300.487 237.793 304.16C267.222 307.832 292.436 314.481 310.246 323.264C328.057 332.048 337.663 342.572 337.851 353.506C337.868 353.628 337.863 353.752 337.837 353.875L323.169 446.624C323.419 455.111 330.965 463.27 344.856 470.073C358.748 476.876 378.364 482.019 401.231 484.854C424.099 487.688 449.195 488.087 473.356 486.001C497.518 483.914 519.664 479.436 537.003 473.129C554.342 466.822 566.099 458.97 570.791 450.562C575.483 442.154 572.901 433.566 563.37 425.881C553.839 418.196 537.786 411.757 517.233 407.377C496.681 402.996 472.549 400.87 447.879 401.265L409.521 402.731C407.174 402.819 404.82 402.748 402.593 402.522C400.366 402.295 398.31 401.917 396.542 401.41C394.775 400.903 393.33 400.277 392.291 399.566C391.253 398.856 390.639 398.076 390.487 397.27C390.335 396.464 390.647 395.649 391.404 394.871C392.162 394.093 393.351 393.367 394.903 392.735C396.455 392.103 398.34 391.577 400.451 391.187C402.561 390.797 404.855 390.55 407.203 390.462L446.107 388.972C446.464 388.956 446.822 388.948 447.18 388.946C478.951 388.393 510.064 391.094 536.586 396.707C563.108 402.32 583.847 410.593 596.183 420.481C608.518 430.369 611.895 441.427 605.886 452.257C599.878 463.087 584.754 473.203 562.427 481.326Z" fill="#3D3D3D"/>
</g>
<path d="M562.427 431.326C540.093 439.447 511.561 445.21 480.437 447.885C449.313 450.561 416.996 450.029 387.57 446.357C358.145 442.685 332.933 436.039 315.123 427.257C297.312 418.476 287.702 407.954 287.508 397.022C287.491 396.899 287.496 396.776 287.522 396.652L302.19 303.903C301.94 295.416 294.394 287.257 280.503 280.454C266.611 273.651 246.995 268.508 224.128 265.673C201.26 262.839 176.164 262.44 152.002 264.526C127.841 266.613 105.695 271.092 88.356 277.398C71.017 283.705 59.26 291.557 54.568 299.965C49.8756 308.373 52.458 316.961 61.989 324.646C71.52 332.331 87.573 338.77 108.126 343.151C128.678 347.531 152.81 349.658 177.48 349.262L215.837 347.797C218.185 347.708 220.539 347.779 222.766 348.006C224.993 348.232 227.049 348.61 228.817 349.117C230.584 349.624 232.028 350.251 233.067 350.961C234.106 351.671 234.719 352.452 234.872 353.257C235.024 354.063 234.712 354.878 233.955 355.656C233.197 356.434 232.008 357.16 230.456 357.792C228.904 358.425 227.019 358.951 224.908 359.341C222.798 359.731 220.503 359.977 218.156 360.066L179.252 361.555C178.895 361.571 178.537 361.58 178.179 361.581C146.404 362.136 115.284 359.437 88.757 353.824C62.229 348.211 41.4842 339.937 29.1464 330.048C16.8085 320.159 13.4316 309.1 19.4426 298.268C25.4536 287.436 40.5826 277.319 62.916 269.196C85.25 261.073 113.785 255.308 144.913 252.632C176.041 249.956 208.363 250.487 237.793 254.16C267.222 257.832 292.436 264.481 310.246 273.264C328.057 282.048 337.663 292.572 337.851 303.506C337.868 303.628 337.863 303.752 337.837 303.875L323.169 396.624C323.419 405.111 330.965 413.27 344.856 420.073C358.748 426.876 378.364 432.019 401.231 434.854C424.099 437.688 449.195 438.087 473.356 436.001C497.518 433.914 519.664 429.436 537.003 423.129C554.342 416.822 566.099 408.97 570.791 400.562C575.483 392.154 572.901 383.566 563.37 375.881C553.839 368.196 537.786 361.757 517.233 357.377C496.681 352.996 472.549 350.87 447.879 351.265L409.521 352.731C407.174 352.819 404.82 352.748 402.593 352.522C400.366 352.295 398.31 351.917 396.542 351.41C394.775 350.903 393.33 350.277 392.291 349.566C391.253 348.856 390.639 348.076 390.487 347.27C390.335 346.464 390.647 345.649 391.404 344.871C392.162 344.093 393.351 343.367 394.903 342.735C396.455 342.103 398.34 341.577 400.451 341.187C402.561 340.797 404.855 340.55 407.203 340.462L446.107 338.972C446.464 338.956 446.822 338.948 447.18 338.946C478.951 338.393 510.064 341.094 536.586 346.707C563.108 352.32 583.847 360.593 596.183 370.481C608.518 380.369 611.895 391.427 605.886 402.257C599.878 413.087 584.754 423.203 562.427 431.326Z" fill="#EAEAEA"/>
<path fill-rule="evenodd" clip-rule="evenodd" d="M162.75 160.045C165.931 158.209 171.088 158.209 174.269 160.045L213.919 182.928C215.458 183.817 216.41 185.456 216.419 187.234L217.144 331.55C217.144 335.222 214.565 339.687 211.384 341.522L170.267 364.927C168.725 365.806 166.832 365.8 165.294 364.913L125.652 342.033C122.471 340.197 119.893 335.733 119.893 332.061L119.894 188.344C119.894 186.58 120.824 184.946 122.341 184.045L162.75 160.045ZM173.117 160.71L212.767 183.593C214.306 184.482 215.258 186.121 215.267 187.899L215.992 332.215L215.986 332.492C215.863 335.374 213.85 338.77 211.384 340.193L169.095 364.265C168.279 364.73 167.276 364.727 166.462 364.257L166.091 364.042L125.652 340.704C123.187 339.281 121.174 335.884 121.05 333.003L121.044 332.726V189.009C121.044 187.245 121.974 185.611 123.491 184.71L163.902 160.71L164.145 160.576C166.702 159.242 170.652 159.287 173.117 160.71Z" fill="url(#paint11_linear_305_99)"/>
<path fill-rule="evenodd" clip-rule="evenodd" d="M173.117 160.71L212.767 183.593C214.306 184.482 215.258 186.121 215.267 187.899L215.992 332.215L215.986 332.492C215.863 335.374 213.85 338.77 211.384 340.193L169.095 364.265V219.225C169.095 218.395 168.423 217.722 167.593 217.722C166.763 217.722 166.091 218.395 166.091 219.225V364.042L125.652 340.704C123.187 339.281 121.174 335.884 121.05 333.003L121.044 332.726V189.009C121.044 187.245 121.974 185.611 123.491 184.71L163.902 160.71L164.145 160.576C166.702 159.242 170.652 159.287 173.117 160.71Z" fill="#EEEEEE"/>
<path d="M166.091 364.042L166.462 364.257C167.276 364.727 168.279 364.73 169.095 364.265V219.225C169.095 218.395 168.423 217.722 167.593 217.722C166.763 217.722 166.091 218.395 166.091 219.225V364.042Z" fill="#C7C7C7"/>
<g filter="url(#filter2_d_305_99)">
<path d="M164.75 166.729L130.972 186.259C128.581 187.641 128.581 189.882 130.972 191.265L163.643 210.155C166.033 211.537 169.909 211.537 172.3 210.155L206.078 190.625C208.469 189.242 208.469 187.001 206.078 185.619L173.407 166.729C171.016 165.347 167.14 165.347 164.75 166.729Z" fill="#EEEEEE"/>
</g>
<path d="M165.182 166.979L131.404 186.509C129.253 187.753 129.253 189.77 131.404 191.014L164.075 209.904C166.227 211.148 169.715 211.148 171.867 209.904L205.645 190.374C207.796 189.13 207.796 187.113 205.645 185.869L172.974 166.979C170.822 165.735 167.334 165.735 165.182 166.979Z" stroke="#DDDDDD"/>
<path d="M217.158 291.068H119.158V374.068H217.158V291.068Z" fill="url(#paint12_linear_305_99)"/>
<path fill-rule="evenodd" clip-rule="evenodd" d="M166.128 87.7211C168.65 86.2779 172.74 86.2779 175.262 87.7211L207.237 106.015C208.129 106.525 208.684 107.464 208.697 108.486L209.262 150.485C209.262 153.371 207.217 156.881 204.695 158.324L171.566 177.019C170.666 177.526 169.564 177.523 168.667 177.01L136.71 158.726C134.187 157.283 132.143 153.773 132.143 150.886L132.144 109.38C132.144 108.358 132.687 107.41 133.573 106.889L166.128 87.7211ZM174.349 88.2437L206.324 106.538C207.215 107.048 207.77 107.987 207.784 109.009L208.348 151.007L208.344 151.225C208.246 153.491 206.649 156.161 204.695 157.279L171.566 175.973C170.666 176.481 169.564 176.478 168.667 175.964L136.71 157.681C134.755 156.562 133.158 153.892 133.06 151.627L133.056 151.409V109.902C133.056 108.88 133.599 107.933 134.485 107.412L167.041 88.2437L167.234 88.1386C169.262 87.09 172.394 87.1252 174.349 88.2437Z" fill="url(#paint13_linear_305_99)"/>
<path d="M207.777 109.008C207.763 107.986 207.208 107.047 206.317 106.537L174.342 88.243C172.387 87.1246 169.255 87.0893 167.227 88.1379L167.034 88.243L134.478 107.411C133.592 107.932 133.049 108.879 133.049 109.902V151.408L133.053 151.627C133.151 153.892 134.748 156.561 136.703 157.68L168.66 175.964C169.556 176.477 170.659 176.48 171.558 175.972L204.687 157.279C206.642 156.16 208.239 153.49 208.337 151.225L208.341 151.007L207.777 109.008Z" fill="url(#paint14_linear_305_99)"/>
<path d="M207.777 109.008C207.763 107.986 207.208 107.047 206.317 106.537L174.342 88.243C172.387 87.1246 169.255 87.0893 167.227 88.1379L167.034 88.243L134.478 107.411C133.592 107.932 133.049 108.879 133.049 109.902V151.408L133.053 151.627C133.151 153.892 134.748 156.561 136.703 157.68L168.66 175.964C169.556 176.477 170.659 176.48 171.558 175.972L204.687 157.279C206.642 156.16 208.239 153.49 208.337 151.225L208.341 151.007L207.777 109.008Z" fill="#F9F9F9"/>
<path d="M176.032 147.283C178.948 147.283 181.281 149.599 181.281 152.494C181.281 153.513 180.989 154.475 180.476 155.274L184.069 158.864L182.448 160.474L178.808 156.918C178.003 157.416 177.046 157.705 176.032 157.705C173.115 157.705 170.782 155.39 170.782 152.494C170.782 149.599 173.115 147.283 176.032 147.283ZM176.032 149.599C175.258 149.599 174.516 149.904 173.969 150.447C173.422 150.99 173.115 151.726 173.115 152.494C173.115 153.262 173.422 153.999 173.969 154.541C174.516 155.084 175.258 155.39 176.032 155.39C176.805 155.39 177.547 155.084 178.094 154.541C178.641 153.999 178.948 153.262 178.948 152.494C178.948 151.726 178.641 150.99 178.094 150.447C177.547 149.904 176.805 149.599 176.032 149.599ZM169.616 138.018C170.853 138.018 172.04 138.506 172.915 139.375C173.79 140.243 174.282 141.421 174.282 142.65C174.282 143.704 173.92 144.677 173.325 145.464C172.322 145.835 171.424 146.426 170.677 147.167L169.616 147.283C168.378 147.283 167.191 146.795 166.316 145.926C165.441 145.057 164.949 143.879 164.949 142.65C164.949 141.421 165.441 140.243 166.316 139.375C167.191 138.506 168.378 138.018 169.616 138.018ZM160.283 156.548V154.232C160.283 151.776 164.144 149.761 169.032 149.599C168.659 150.502 168.449 151.475 168.449 152.494C168.449 153.988 168.892 155.39 169.616 156.548H160.283Z" fill="#389D2D"/>
<path d="M168.623 92.6078L140.026 108.999C138.77 109.719 138.77 110.886 140.026 111.606L167.745 127.494C169.001 128.214 171.037 128.214 172.293 127.494L200.891 111.103C202.147 110.383 202.147 109.216 200.891 108.496L173.171 92.6078C171.915 91.888 169.879 91.888 168.623 92.6078Z" stroke="#DDDDDD"/>
<path d="M208.424 114.908V142.493" stroke="url(#paint15_radial_305_99)"/>
<path d="M208.4 150.373V140.24" stroke="url(#paint16_radial_305_99)"/>
<path d="M208.316 141.74C210.612 141.74 212.474 139.892 212.474 137.612C212.474 135.332 210.612 133.484 208.316 133.484C206.02 133.484 204.158 135.332 204.158 137.612C204.158 139.892 206.02 141.74 208.316 141.74Z" fill="#ACD4A7"/>
<path d="M208.317 140.088C209.695 140.088 210.812 138.979 210.812 137.611C210.812 136.244 209.695 135.135 208.317 135.135C206.939 135.135 205.822 136.244 205.822 137.611C205.822 138.979 206.939 140.088 208.317 140.088Z" fill="#389D2D"/>
<path d="M170.55 181.886C172.847 181.886 174.708 180.038 174.708 177.759C174.708 175.479 172.847 173.631 170.55 173.631C168.254 173.631 166.393 175.479 166.393 177.759C166.393 180.038 168.254 181.886 170.55 181.886Z" fill="#ACD4A7"/>
<path d="M170.551 180.235C171.929 180.235 173.046 179.126 173.046 177.758C173.046 176.39 171.929 175.281 170.551 175.281C169.174 175.281 168.057 176.39 168.057 177.758C168.057 179.126 169.174 180.235 170.551 180.235Z" fill="#389D2D"/>
<path d="M132.432 113.779V141.364" stroke="url(#paint17_radial_305_99)"/>
<path d="M132.416 149.245V139.111" stroke="url(#paint18_radial_305_99)"/>
<path d="M132.324 141.74C134.62 141.74 136.482 139.892 136.482 137.612C136.482 135.332 134.62 133.484 132.324 133.484C130.028 133.484 128.166 135.332 128.166 137.612C128.166 139.892 130.028 141.74 132.324 141.74Z" fill="#ACD4A7"/>
<path d="M132.333 140.088C133.71 140.088 134.827 138.979 134.827 137.611C134.827 136.244 133.71 135.135 132.333 135.135C130.955 135.135 129.838 136.244 129.838 137.611C129.838 138.979 130.955 140.088 132.333 140.088Z" fill="#389D2D"/>
<path d="M168.005 43.9777L136.851 74.9067C135.825 75.9247 135.825 77.5752 136.851 78.5932L168.005 109.522C169.03 110.54 170.693 110.54 171.718 109.522L202.872 78.5933C203.898 77.5753 203.898 75.9247 202.872 74.9067L171.718 43.9777C170.693 42.9597 169.03 42.9597 168.005 43.9777Z" fill="url(#paint19_linear_305_99)" stroke="url(#paint20_linear_305_99)"/>
<path d="M168.127 65.3256C168.079 65.3344 167.783 65.3912 167.474 65.4524C164.297 66.0772 161.394 68.2225 159.84 71.0975C159.196 72.286 158.759 73.6231 158.565 74.995C158.481 75.6198 158.495 77.2933 158.592 77.9225C158.79 79.2158 159.104 80.2121 159.651 81.3088C160.277 82.5584 160.952 83.4716 161.958 84.4329C162.881 85.3155 163.701 85.8791 164.906 86.4646C165.639 86.8186 166.234 87.037 167.002 87.2293C168.017 87.4827 168.202 87.5001 169.963 87.4783C171.485 87.4608 171.595 87.4565 172.081 87.3516C175.567 86.587 178.395 84.3935 179.931 81.2651C180.654 79.797 180.999 78.4163 181.065 76.7865C181.21 72.9196 179.322 69.2799 176.026 67.0821C175.055 66.4355 173.718 65.8456 172.571 65.5616C171.573 65.3082 171.401 65.295 169.742 65.2994C168.904 65.3038 168.176 65.3125 168.127 65.3256ZM170.832 65.7276L171.066 65.7538L170.92 66.0247C170.369 67.0559 170.294 67.1826 170.122 67.3268C169.905 67.5103 169.773 67.5496 169.142 67.6108C168.335 67.6851 168.096 67.7594 167.845 68.0084C167.664 68.1832 167.527 68.4541 167.381 68.9216C167.205 69.4721 167.073 69.5639 166.799 69.3236C166.561 69.1183 166.428 68.9042 166.38 68.6332C166.327 68.3492 166.247 68.2138 165.947 67.9036C165.639 67.5802 165.365 67.4011 165.144 67.3661C165.038 67.3486 164.915 67.318 164.875 67.2962C164.8 67.2613 164.663 67.0428 164.663 66.9642C164.663 66.9117 165.44 66.5534 166.018 66.3393C166.592 66.1296 167.483 65.8937 168.087 65.7975C168.917 65.6665 170.06 65.6359 170.832 65.7276ZM175.774 67.5977C176.057 67.7899 176.233 68.0084 177.023 69.1619C177.327 69.6032 177.464 69.6601 177.786 69.4721L177.972 69.3673L178.227 69.6906C179.203 70.914 179.882 72.2598 180.266 73.7235C180.376 74.1299 180.553 75.0911 180.526 75.1174C180.518 75.1261 180.398 75.1611 180.257 75.2004C179.829 75.3096 179.688 75.2616 179.238 74.8596C178.792 74.462 178.329 74.1955 178.108 74.2173C177.985 74.2304 177.967 74.2479 177.958 74.3615C177.949 74.4794 177.998 74.5363 178.439 74.9076C179.419 75.7291 179.489 75.8209 179.489 76.2097C179.489 76.4806 179.375 76.817 179.251 76.8957C179.203 76.9263 179.022 76.97 178.85 76.9875C178.479 77.0224 178.294 77.0967 178.047 77.2977C177.861 77.4463 177.817 77.5555 177.883 77.7215C177.897 77.7609 178.073 77.9094 178.276 78.0536C178.664 78.3332 178.938 78.6041 179.004 78.7789C179.066 78.9318 179.057 79.2639 178.995 79.3775C178.929 79.5086 178.819 79.5785 178.448 79.7402C178.02 79.9236 177.791 80.1159 177.649 80.4087C177.469 80.7932 177.451 80.8981 177.416 82.0079C177.394 82.7944 177.367 83.1046 177.314 83.2444C177.115 83.7687 176.229 84.5334 174.896 85.3286C174.212 85.7393 174.093 85.7524 174.071 85.429C174.062 85.298 174.106 85.0358 174.199 84.7081C174.459 83.7469 174.468 83.6813 174.442 83.3799C174.428 83.2182 174.362 82.9167 174.3 82.7026C173.996 81.6845 173.89 81.1427 173.886 80.6315C173.881 80.2514 173.811 79.7795 173.736 79.6309C173.621 79.4168 173.51 79.3993 172.54 79.4299C171.741 79.4562 171.626 79.4518 171.317 79.3732C170.726 79.2202 170.391 78.9581 170.13 78.4337C169.769 77.6909 169.694 76.817 169.941 76.0874C170.25 75.1829 171.066 74.1255 171.847 73.6231C172.35 73.2997 172.765 73.1555 173.171 73.1555C173.365 73.1555 173.594 73.1861 173.709 73.2255C173.899 73.291 174.517 73.6449 174.79 73.8415C175.293 74.2042 176.083 74.3527 176.648 74.1867C176.921 74.108 177.649 73.5357 177.672 73.3827C177.716 73.09 177.041 72.8191 176.158 72.7798C175.858 72.7667 175.58 72.7317 175.518 72.6968C175.456 72.6662 175.28 72.5351 175.121 72.3996C174.764 72.0981 174.521 71.9627 174.15 71.8709C173.687 71.753 173.334 71.8534 172.928 72.2161C172.575 72.5307 171.984 72.7667 171.534 72.7667C171.242 72.7667 171.106 72.6356 171.106 72.3516C171.106 72.1855 171.128 72.1244 171.229 72.0239C171.384 71.8709 171.578 71.8185 172.121 71.7836C172.35 71.7661 172.575 71.7442 172.619 71.7311C172.769 71.6918 172.703 71.4908 172.394 71.0626C172.112 70.665 172.081 70.6388 171.715 70.4509C171.075 70.1189 170.995 70.0096 171.238 69.7387C171.392 69.5596 171.719 69.446 172.063 69.446C172.451 69.446 172.641 69.5246 172.95 69.8173C173.1 69.9615 173.268 70.0926 173.325 70.1101C173.484 70.1538 173.775 70.1494 173.921 70.097C174.159 70.0139 174.159 69.9134 173.912 69.2493C173.828 69.0309 173.753 68.7643 173.736 68.6551C173.696 68.3973 173.793 68.1439 173.987 67.9997C174.15 67.8817 175.253 67.4928 175.456 67.4841C175.54 67.4841 175.664 67.5278 175.774 67.5977ZM163.251 67.9342C163.251 68.0259 163.476 68.1832 163.891 68.3885C164.425 68.6507 164.743 69.0178 164.699 69.3192C164.685 69.4154 164.659 69.4241 164.169 69.4765C163.622 69.5333 163.357 69.612 163.309 69.7343C163.265 69.8479 163.41 69.9353 163.944 70.1232C164.853 70.4421 165.193 70.6607 165.193 70.9359C165.193 71.0932 165.069 71.2155 164.805 71.3291C164.557 71.434 164.346 71.4165 164.196 71.2767C164.138 71.2243 164.081 71.185 164.072 71.198C164.063 71.2068 164.024 71.3903 163.988 71.6088C163.838 72.4215 163.79 72.4957 163.304 72.6531C162.889 72.7929 162.475 73.0594 162.135 73.4133C161.813 73.7498 161.729 73.9464 161.667 74.4969C161.605 75.0387 161.623 75.0999 161.976 75.4582C162.192 75.6854 162.236 75.7553 162.236 75.8864C162.236 76.1005 162.161 76.2403 161.994 76.3321C161.76 76.4544 161.654 76.3976 161.464 76.035C160.93 75.0256 160.542 74.7416 160.18 75.0999C159.911 75.3664 160.026 75.7204 160.507 76.0917C161.222 76.6423 161.385 76.8695 161.451 77.3938C161.473 77.5729 161.513 77.7565 161.535 77.8002C161.619 77.9531 161.853 78.0143 162.351 78.0055L162.819 78.0011L163.062 78.1672C163.375 78.3813 163.834 78.875 164.257 79.4518C164.443 79.7052 164.69 80.0242 164.809 80.164C165.052 80.4436 165.621 80.8325 165.987 80.9723C166.119 81.0204 166.371 81.1122 166.547 81.1777C166.927 81.3132 167.205 81.5534 167.245 81.7806C167.28 81.9598 167.24 82.0472 166.98 82.3356C166.874 82.4535 166.697 82.7375 166.587 82.9691C166.336 83.4891 166.212 83.6507 165.947 83.8124C165.652 83.9959 165.533 84.1313 165.343 84.5071C165.246 84.6906 165.047 85.0009 164.897 85.1888C164.743 85.3766 164.619 85.547 164.619 85.5601C164.619 85.5776 164.588 85.6257 164.557 85.6694C164.5 85.7437 164.474 85.7393 164.147 85.5427C163.882 85.381 163.282 84.979 163.172 84.8917C163.163 84.8829 163.119 84.5989 163.075 84.2581C162.934 83.2094 162.806 82.8642 162.435 82.5104C162.029 82.1258 161.782 81.7282 161.619 81.217C161.53 80.933 161.526 80.8587 161.557 80.0198C161.583 79.1547 161.583 79.111 161.491 78.9056C161.372 78.6347 161.301 78.5604 161.067 78.4468C160.869 78.3507 160.701 78.1585 160.18 77.42C159.532 76.5068 159.315 76.035 159.152 75.196C159.055 74.7154 159.068 74.5887 159.302 73.6755C159.642 72.3385 160.471 70.7174 161.358 69.6557C161.839 69.0745 163.092 67.8773 163.22 67.873C163.238 67.873 163.251 67.9036 163.251 67.9342Z" fill="#EEEEEE"/>
<path d="M168.053 48.064L141.015 74.9067C139.989 75.9247 139.989 77.5752 141.015 78.5932L168.053 105.436C169.078 106.454 170.741 106.454 171.766 105.436L198.804 78.5933C199.83 77.5753 199.83 75.9247 198.804 74.9067L171.766 48.064C170.741 47.046 169.078 47.046 168.053 48.064Z" stroke="#A7A7A7" stroke-opacity="0.3"/>
<path d="M169.158 279.068H166.158V337.068H169.158V279.068Z" fill="url(#paint21_linear_305_99)"/>
<path fill-rule="evenodd" clip-rule="evenodd" d="M458.674 232.92C462.171 230.902 467.841 230.902 471.338 232.92L515.176 258.221C516.716 259.109 517.668 260.749 517.677 262.526L518.475 421.32C518.475 425.357 515.64 430.266 512.143 432.284L466.691 458.156C465.148 459.034 463.256 459.029 461.718 458.141L417.889 432.845C414.392 430.827 411.557 425.919 411.557 421.882L411.558 263.749C411.558 261.985 412.488 260.351 414.005 259.45L458.674 232.92ZM470.071 233.651L513.909 258.952C515.449 259.84 516.401 261.48 516.41 263.257L517.208 422.051L517.202 422.356C517.066 425.524 514.853 429.258 512.143 430.822L465.65 457.287C464.752 457.798 463.65 457.795 462.755 457.278L462.347 457.042L417.889 431.384C415.179 429.82 412.965 426.085 412.829 422.918L412.823 422.613V264.48C412.823 262.716 413.753 261.082 415.27 260.181L459.94 233.651L460.207 233.504C463.019 232.037 467.361 232.087 470.071 233.651Z" fill="url(#paint22_linear_305_99)"/>
<path fill-rule="evenodd" clip-rule="evenodd" d="M470.071 233.651L513.909 258.952C515.449 259.84 516.401 261.48 516.41 263.257L517.208 422.051L517.202 422.356C517.066 425.524 514.853 429.258 512.143 430.822L465.65 457.287V297.982C465.65 297.07 464.911 296.331 463.998 296.331C463.086 296.331 462.347 297.07 462.347 297.982V457.042L417.889 431.384C415.179 429.82 412.965 426.085 412.829 422.918L412.823 422.613V264.48C412.823 262.716 413.753 261.082 415.27 260.181L459.94 233.651L460.207 233.504C463.019 232.037 467.361 232.087 470.071 233.651Z" fill="#EEEEEE"/>
<path d="M462.347 457.042L462.755 457.278C463.65 457.795 464.752 457.798 465.65 457.287V297.982C465.65 297.07 464.911 296.331 463.998 296.331C463.086 296.331 462.347 297.07 462.347 297.982V457.042Z" fill="#C7C7C7"/>
<g filter="url(#filter3_d_305_99)">
<path d="M461.327 240.018L423.33 261.987C420.94 263.37 420.94 265.611 423.33 266.993L460.11 288.258C462.5 289.64 466.376 289.64 468.767 288.258L506.763 266.289C509.154 264.907 509.154 262.666 506.763 261.284L469.984 240.018C467.593 238.636 463.717 238.636 461.327 240.018Z" fill="#EEEEEE"/>
</g>
<path d="M461.759 240.269L423.763 262.238C421.612 263.482 421.612 265.499 423.763 266.743L460.542 288.009C462.694 289.253 466.182 289.253 468.334 288.009L506.33 266.039C508.481 264.795 508.481 262.778 506.33 261.534L469.551 240.269C467.399 239.025 463.911 239.025 461.759 240.269Z" stroke="#DDDDDD"/>
<path d="M517.158 360.068H412.158V459.068H517.158V360.068Z" fill="url(#paint23_linear_305_99)"/>
<path d="M465.635 356.068H462.346V414.068H465.635V356.068Z" fill="url(#paint24_linear_305_99)"/>
<path fill-rule="evenodd" clip-rule="evenodd" d="M458.62 143.878C461.693 142.111 466.676 142.111 469.749 143.878L508.669 166.254C509.779 166.892 510.469 168.066 510.486 169.342L511.173 220.72C511.173 224.254 508.681 228.551 505.608 230.318L465.282 253.184C464.163 253.819 462.791 253.814 461.677 253.173L422.777 230.81C419.704 229.042 417.213 224.745 417.213 221.212L417.214 170.437C417.214 169.159 417.89 167.975 418.992 167.324L458.62 143.878ZM468.636 144.518L507.556 166.895C508.665 167.532 509.356 168.705 509.373 169.982L510.06 221.36L510.054 221.627C509.935 224.4 507.99 227.669 505.608 229.038L465.282 251.904C464.163 252.539 462.791 252.535 461.677 251.894L422.777 229.53C420.396 228.16 418.45 224.891 418.331 222.118L418.326 221.851V171.077C418.326 169.799 419.002 168.616 420.104 167.963L459.732 144.518L459.967 144.389C462.439 143.105 466.254 143.148 468.636 144.518Z" fill="url(#paint25_linear_305_99)"/>
<path d="M468.636 144.518L507.556 166.895C508.665 167.532 509.356 168.705 509.373 169.982L510.06 221.36L510.054 221.627C509.935 224.4 507.99 227.669 505.608 229.038L465.282 251.904C464.163 252.539 462.791 252.535 461.677 251.894L422.777 229.53C420.396 228.16 418.45 224.891 418.331 222.118L418.326 221.851V171.077C418.326 169.799 419.002 168.616 420.104 167.963L459.732 144.518L459.967 144.389C462.439 143.105 466.254 143.148 468.636 144.518Z" fill="#F9F9F9"/>
<path d="M461.591 149.9L426.877 169.894C425.315 170.794 425.315 172.253 426.877 173.153L460.521 192.53C462.083 193.43 464.616 193.43 466.178 192.53L500.892 172.536C502.454 171.637 502.454 170.178 500.892 169.278L467.248 149.9C465.686 149.001 463.153 149.001 461.591 149.9Z" stroke="#DDDDDD"/>
<path d="M462.601 228.653C462.122 228.653 461.709 228.494 461.364 228.175C461.017 227.856 460.809 227.467 460.737 227.006L460.498 225.253C460.267 225.165 460.049 225.059 459.846 224.935C459.642 224.81 459.442 224.678 459.246 224.536L457.595 225.226C457.151 225.421 456.708 225.439 456.264 225.28C455.82 225.12 455.474 224.837 455.225 224.429L453.974 222.251C453.725 221.844 453.655 221.41 453.761 220.95C453.867 220.489 454.107 220.108 454.48 219.808L455.891 218.745C455.873 218.621 455.865 218.501 455.865 218.386V217.668C455.865 217.554 455.873 217.434 455.891 217.311L454.48 216.248C454.107 215.947 453.867 215.566 453.761 215.106C453.655 214.646 453.725 214.211 453.974 213.804L455.225 211.626C455.474 211.219 455.82 210.935 456.264 210.776C456.708 210.616 457.151 210.634 457.595 210.829L459.246 211.519C459.441 211.378 459.646 211.245 459.858 211.121C460.072 210.997 460.284 210.891 460.498 210.802L460.737 209.049C460.808 208.588 461.017 208.199 461.364 207.88C461.71 207.562 462.123 207.402 462.601 207.402H465.104C465.583 207.402 465.996 207.562 466.343 207.88C466.689 208.199 466.898 208.588 466.968 209.049L467.207 210.802C467.438 210.891 467.656 210.997 467.861 211.121C468.065 211.245 468.265 211.378 468.459 211.519L470.111 210.829C470.554 210.634 470.997 210.616 471.442 210.776C471.885 210.935 472.231 211.219 472.48 211.626L473.731 213.804C473.98 214.211 474.051 214.646 473.945 215.106C473.838 215.566 473.599 215.947 473.226 216.248L471.815 217.311C471.832 217.434 471.841 217.554 471.841 217.67V218.386C471.841 218.501 471.823 218.621 471.788 218.745L473.199 219.808C473.572 220.108 473.811 220.489 473.918 220.95C474.025 221.41 473.953 221.844 473.705 222.251L472.426 224.429C472.178 224.837 471.832 225.12 471.389 225.28C470.944 225.439 470.501 225.421 470.057 225.226L468.459 224.536C468.264 224.678 468.06 224.81 467.847 224.935C467.634 225.059 467.421 225.165 467.207 225.253L466.968 227.006C466.897 227.467 466.689 227.856 466.343 228.175C465.997 228.494 465.584 228.653 465.104 228.653H462.601ZM463.906 221.747C464.936 221.747 465.814 221.383 466.542 220.658C467.27 219.932 467.634 219.055 467.634 218.027C467.634 217.001 467.27 216.124 466.542 215.398C465.814 214.672 464.936 214.309 463.906 214.309C462.859 214.309 461.975 214.672 461.256 215.398C460.536 216.124 460.177 217.001 460.178 218.027C460.178 219.055 460.538 219.932 461.257 220.658C461.975 221.383 462.859 221.747 463.906 221.747Z" fill="#389D2D"/>
<path d="M462.734 90.3719L424.882 128.134C423.606 129.406 423.606 131.469 424.882 132.741L462.734 170.503C464.009 171.775 466.077 171.775 467.352 170.503L505.204 132.741C506.48 131.469 506.48 129.406 505.204 128.134L467.352 90.3719C466.077 89.0996 464.009 89.0996 462.734 90.3719Z" fill="url(#paint26_linear_305_99)" stroke="url(#paint27_linear_305_99)"/>
<path d="M462.781 95.3748L429.944 128.134C428.669 129.406 428.669 131.469 429.944 132.741L462.781 165.5C464.057 166.773 466.125 166.773 467.4 165.5L500.237 132.741C501.513 131.469 501.513 129.406 500.237 128.134L467.4 95.3748C466.125 94.1024 464.057 94.1024 462.781 95.3748Z" stroke="#A7A7A7" stroke-opacity="0.3"/>
<path d="M474.165 137.519C474.167 137.734 474.112 138.014 474.054 138.246C473.65 139.872 471.858 141.696 469.337 141.53C467.051 141.38 465.189 140.285 465.189 138.75C465.189 137.215 467.047 135.971 469.337 135.971C471.627 135.971 474.15 135.984 474.165 137.519Z" fill="#F9F9F9"/>
<path d="M469.316 136.227C468.086 136.227 465.278 136.566 464.633 136.566C463.495 136.566 462.572 137.279 462.572 138.158C462.572 138.581 462.789 138.963 463.138 139.248C463.138 139.248 463.902 140.013 465.279 139.646C465.882 139.485 466.862 138.292 468.587 138.103C469.447 138.008 471.057 138.671 473.887 138.687C474.008 138.426 474.033 138.245 474.033 138.245C474.033 136.709 471.607 136.227 469.316 136.227Z" fill="#A9A9A9"/>
<path d="M474.038 138.242C474.038 138.242 475.697 137.907 476.729 136.553C477.932 134.974 477.774 133.284 477.774 133.284C478.993 131.01 477.394 128.878 477.394 128.878C477.235 126.477 475.748 125.482 475.748 125.482C474.782 123.192 472.645 122.577 472.645 122.577C470.968 120.619 467.991 120.682 467.991 120.682C467.991 120.682 465.202 119.662 461.375 120.808C460.741 120.998 458.62 121.44 457.068 122.387C452.178 125.374 451.808 130.031 451.876 130.789C452.255 135.021 455.232 135.779 457.131 136.221C457.574 137.421 459.205 139.632 462.133 138.811C465.743 138.179 467.263 137.105 468.149 137.105C469.036 137.105 471.505 138.053 474.038 138.242Z" fill="#EEEEEE"/>
<path d="M464.915 131.438C466.684 130.487 467.643 130.575 468.489 130.652C468.758 130.676 469.013 130.695 469.271 130.694C470.778 130.66 471.999 130.026 472.539 129.413C472.601 129.336 472.631 129.239 472.623 129.141C472.615 129.044 472.568 128.953 472.495 128.888C472.421 128.823 472.325 128.79 472.227 128.794C472.129 128.798 472.036 128.84 471.968 128.912C471.552 129.385 470.525 129.907 469.252 129.936C469.025 129.942 468.796 129.92 468.559 129.898C467.651 129.814 466.524 129.71 464.554 130.771C464.049 131.043 463.356 131.144 462.605 131.22C460.935 128.816 461.94 126.722 462.227 126.223C462.255 126.225 462.283 126.234 462.311 126.234C462.615 126.234 462.921 126.16 463.197 126.004C463.282 125.952 463.343 125.871 463.367 125.775C463.393 125.68 463.379 125.579 463.331 125.493C463.282 125.408 463.202 125.344 463.107 125.316C463.013 125.289 462.911 125.299 462.824 125.344C462.585 125.475 462.305 125.512 462.04 125.446C461.775 125.381 461.545 125.218 461.395 124.99C461.339 124.911 461.254 124.856 461.158 124.837C461.062 124.819 460.962 124.838 460.88 124.89C460.798 124.943 460.739 125.025 460.716 125.12C460.693 125.214 460.707 125.314 460.756 125.399C460.936 125.68 461.19 125.891 461.477 126.033C461.08 126.835 460.329 128.944 461.759 131.302C460.753 131.401 459.746 131.543 458.957 132.05C458.402 132.412 457.919 132.872 457.53 133.407C457.052 133.326 455.302 132.896 454.996 130.958C455.187 130.811 455.34 130.617 455.435 130.378C455.453 130.331 455.462 130.282 455.462 130.232C455.461 130.182 455.45 130.133 455.43 130.087C455.41 130.042 455.382 130 455.346 129.966C455.31 129.931 455.268 129.904 455.221 129.886C455.175 129.867 455.126 129.858 455.075 129.859C455.025 129.86 454.976 129.87 454.93 129.89C454.885 129.91 454.843 129.939 454.808 129.974C454.774 130.01 454.747 130.052 454.728 130.099C454.7 130.178 454.654 130.251 454.594 130.311C454.535 130.372 454.463 130.418 454.383 130.448C454.303 130.475 454.218 130.484 454.133 130.474C454.049 130.465 453.967 130.438 453.895 130.395C453.851 130.371 453.803 130.355 453.753 130.35C453.704 130.344 453.654 130.348 453.606 130.362C453.509 130.389 453.427 130.454 453.378 130.542C453.329 130.63 453.317 130.734 453.345 130.83C453.372 130.927 453.437 131.009 453.525 131.058C453.741 131.177 453.972 131.238 454.202 131.238C454.23 131.238 454.256 131.225 454.284 131.224C454.646 133.053 456.095 133.856 457.12 134.1C456.986 134.385 456.901 134.69 456.869 135.003C456.86 135.103 456.891 135.203 456.956 135.28C457.021 135.357 457.113 135.405 457.214 135.414L457.248 135.416C457.343 135.416 457.434 135.38 457.505 135.316C457.574 135.252 457.618 135.164 457.627 135.07C457.709 134.15 458.587 133.19 459.368 132.686C460.101 132.215 461.173 132.116 462.211 132.019C463.218 131.928 464.169 131.84 464.915 131.438ZM474.691 130.298C474.643 130.386 474.632 130.49 474.66 130.587C474.688 130.683 474.754 130.764 474.842 130.813C474.931 130.861 475.035 130.872 475.132 130.844C475.228 130.816 475.31 130.75 475.358 130.662C475.373 130.636 476.758 128.047 474.164 126.308C474.081 126.252 473.979 126.231 473.879 126.25C473.781 126.27 473.693 126.327 473.638 126.411C473.581 126.494 473.561 126.596 473.579 126.695C473.599 126.794 473.657 126.881 473.741 126.937C475.75 128.285 474.735 130.216 474.691 130.298ZM458.942 124.178C459.002 124.178 459.061 124.163 459.115 124.136C459.169 124.108 459.215 124.069 459.25 124.02C460.352 122.491 461.877 123.014 461.942 123.038C462.036 123.069 462.138 123.062 462.226 123.02C462.315 122.977 462.384 122.901 462.418 122.809C462.452 122.717 462.448 122.615 462.409 122.525C462.369 122.435 462.295 122.364 462.205 122.327C461.475 122.057 459.79 121.972 458.633 123.578C458.593 123.635 458.569 123.701 458.563 123.771C458.558 123.84 458.572 123.91 458.604 123.972C458.636 124.034 458.684 124.086 458.743 124.122C458.804 124.158 458.872 124.177 458.942 124.178ZM468.874 122.746C470.565 122.609 471.334 123.832 471.369 123.89C471.42 123.976 471.504 124.039 471.601 124.065C471.65 124.077 471.7 124.08 471.749 124.073C471.799 124.066 471.846 124.05 471.889 124.024C471.933 123.999 471.97 123.966 472 123.926C472.031 123.886 472.052 123.841 472.065 123.793C472.077 123.744 472.081 123.694 472.074 123.645C472.067 123.596 472.05 123.548 472.025 123.505C471.984 123.436 471.007 121.824 468.815 121.991C468.765 121.994 468.717 122.008 468.673 122.031C468.628 122.053 468.588 122.084 468.556 122.122C468.49 122.199 468.458 122.298 468.466 122.398C468.474 122.498 468.522 122.591 468.598 122.657C468.675 122.722 468.774 122.754 468.874 122.746ZM475.827 133.822C475.64 133.812 475.435 133.959 475.418 134.169C475.416 134.182 475.295 135.472 473.966 135.908C473.879 135.935 473.805 135.992 473.757 136.07C473.709 136.147 473.691 136.239 473.706 136.328C473.72 136.418 473.767 136.5 473.836 136.558C473.906 136.617 473.995 136.648 474.085 136.647C474.126 136.647 474.166 136.64 474.204 136.628C476.006 136.038 476.169 134.305 476.175 134.231C476.179 134.182 476.173 134.132 476.158 134.084C476.143 134.037 476.119 133.993 476.086 133.955C476.054 133.917 476.014 133.885 475.97 133.863C475.925 133.84 475.877 133.826 475.827 133.822Z" fill="#4C4C4C"/>
<path d="M457.004 130.135C456.989 130.183 456.984 130.235 456.989 130.285C456.995 130.336 457.01 130.385 457.035 130.429C457.059 130.474 457.093 130.513 457.133 130.544C457.173 130.576 457.219 130.599 457.268 130.612C457.318 130.625 457.369 130.628 457.419 130.621C457.47 130.614 457.519 130.597 457.562 130.571C457.606 130.545 457.644 130.51 457.674 130.469C457.704 130.428 457.726 130.381 457.737 130.332C457.811 130.069 457.98 129.844 458.213 129.701C458.446 129.559 458.724 129.509 458.992 129.563C459.042 129.573 459.092 129.574 459.141 129.565C459.19 129.555 459.237 129.537 459.278 129.509C459.32 129.482 459.356 129.447 459.384 129.406C459.412 129.365 459.432 129.319 459.442 129.27C459.452 129.221 459.453 129.171 459.444 129.122C459.435 129.073 459.416 129.026 459.388 128.985C459.361 128.943 459.326 128.907 459.285 128.879C459.243 128.851 459.197 128.831 459.148 128.821C458.832 128.757 458.504 128.779 458.2 128.886C457.314 127.375 457.486 125.884 457.489 125.868C457.502 125.769 457.475 125.668 457.414 125.588C457.353 125.508 457.263 125.456 457.163 125.442C457.063 125.43 456.963 125.457 456.883 125.517C456.803 125.578 456.75 125.667 456.736 125.766C456.726 125.84 456.523 127.522 457.544 129.264C457.284 129.497 457.096 129.799 457.004 130.135ZM465.499 128.262C465.65 128.125 465.848 128.05 466.053 128.052C466.258 128.054 466.455 128.133 466.604 128.274C466.677 128.344 466.774 128.382 466.875 128.381C466.975 128.379 467.071 128.338 467.141 128.265C467.211 128.193 467.25 128.096 467.248 127.996C467.247 127.895 467.206 127.8 467.134 127.729C466.962 127.566 466.755 127.446 466.528 127.377C466.753 126.607 466.664 126.265 466.455 125.624C466.414 125.499 466.374 125.373 466.335 125.247L466.313 125.171C466.036 124.255 465.854 123.651 466.379 122.798C466.432 122.713 466.449 122.61 466.425 122.512C466.401 122.414 466.34 122.33 466.254 122.277C466.168 122.224 466.065 122.208 465.967 122.231C465.869 122.254 465.785 122.316 465.732 122.401C465.027 123.544 465.286 124.4 465.586 125.391L465.609 125.467C465.653 125.613 465.695 125.744 465.732 125.859C465.92 126.435 465.977 126.629 465.748 127.326C465.46 127.377 465.194 127.51 464.98 127.708C464.909 127.777 464.868 127.872 464.866 127.971C464.864 128.07 464.9 128.166 464.968 128.238C465.036 128.31 465.129 128.353 465.228 128.358C465.327 128.363 465.425 128.328 465.499 128.262ZM470.335 126C470.561 126 470.784 125.951 470.988 125.855C471.079 125.812 471.149 125.735 471.183 125.64C471.218 125.546 471.213 125.441 471.17 125.35C471.127 125.259 471.049 125.189 470.954 125.155C470.86 125.121 470.755 125.126 470.664 125.169C470.477 125.254 470.265 125.266 470.07 125.202C469.875 125.138 469.711 125.002 469.612 124.822C469.59 124.777 469.559 124.736 469.519 124.703C469.481 124.67 469.436 124.645 469.387 124.629C469.339 124.614 469.288 124.608 469.237 124.613C469.186 124.618 469.137 124.632 469.093 124.656C469.048 124.68 469.008 124.713 468.976 124.753C468.944 124.792 468.921 124.838 468.906 124.887C468.892 124.936 468.889 124.987 468.894 125.037C468.901 125.088 468.918 125.136 468.943 125.18C469.08 125.435 469.283 125.636 469.52 125.775C469.112 126.764 469.344 127.815 469.533 128.372C469.548 128.421 469.572 128.467 469.604 128.506C469.637 128.545 469.677 128.578 469.723 128.601C469.768 128.625 469.818 128.639 469.868 128.643C469.919 128.647 469.971 128.64 470.019 128.624C470.067 128.608 470.112 128.582 470.15 128.548C470.188 128.514 470.219 128.473 470.241 128.427C470.263 128.381 470.276 128.331 470.277 128.28C470.279 128.229 470.271 128.178 470.253 128.13C470.125 127.753 469.877 126.799 470.252 125.988C470.28 125.99 470.307 126 470.335 126ZM473.98 133.147C473.977 133.097 473.965 133.049 473.942 133.004C473.92 132.959 473.89 132.919 473.852 132.886C473.815 132.853 473.771 132.828 473.724 132.812C473.676 132.796 473.626 132.79 473.576 132.793C473.394 132.806 473.211 132.782 473.039 132.724C472.865 132.666 472.705 132.574 472.568 132.454C472.43 132.334 472.318 132.189 472.237 132.025C472.157 131.862 472.109 131.684 472.097 131.502C472.089 131.403 472.041 131.31 471.966 131.245C471.89 131.179 471.792 131.145 471.692 131.15C471.642 131.153 471.594 131.166 471.549 131.188C471.504 131.211 471.464 131.241 471.432 131.279C471.398 131.316 471.374 131.36 471.358 131.407C471.342 131.454 471.335 131.504 471.339 131.554C471.37 132.001 471.541 132.404 471.8 132.733C471.19 133.45 470.39 133.654 469.944 133.706C469.549 133.753 469.204 133.713 468.805 133.666C468.44 133.624 468.026 133.576 467.515 133.591L467.511 133.592C467.496 133.375 467.444 133.059 467.28 132.796C467.223 132.718 467.139 132.665 467.044 132.646C466.949 132.628 466.851 132.646 466.769 132.698C466.687 132.749 466.628 132.829 466.603 132.922C466.579 133.015 466.59 133.114 466.636 133.199C466.737 133.362 466.757 133.622 466.757 133.748C466.374 133.886 466.042 134.087 465.743 134.282C465.208 134.629 464.787 134.904 464.152 134.761C463.578 134.63 463.002 134.603 462.514 134.672C462.439 134.481 462.318 134.254 462.133 134.079C462.06 134.01 461.962 133.973 461.861 133.975C461.76 133.978 461.665 134.021 461.595 134.094C461.527 134.167 461.489 134.265 461.492 134.365C461.495 134.466 461.537 134.561 461.611 134.63C461.676 134.691 461.728 134.781 461.77 134.87C460.931 135.214 460.511 135.79 460.492 135.818C460.452 135.874 460.428 135.941 460.423 136.01C460.418 136.079 460.432 136.149 460.464 136.21C460.496 136.272 460.545 136.324 460.603 136.36C460.663 136.396 460.731 136.415 460.801 136.415C460.861 136.415 460.92 136.401 460.974 136.374C461.028 136.347 461.074 136.308 461.109 136.26C461.114 136.254 461.53 135.697 462.353 135.471C462.779 135.355 463.389 135.364 463.984 135.499C464.15 135.537 464.305 135.55 464.454 135.552C464.525 135.718 464.552 135.914 464.556 135.987C464.562 136.084 464.604 136.174 464.674 136.241C464.745 136.307 464.838 136.345 464.935 136.345L464.956 136.344C465.056 136.339 465.15 136.294 465.218 136.22C465.285 136.145 465.32 136.047 465.315 135.947C465.303 135.771 465.269 135.596 465.216 135.427C465.567 135.301 465.872 135.103 466.158 134.917C466.592 134.635 467.004 134.367 467.541 134.349C467.991 134.334 468.362 134.377 468.72 134.418C469.08 134.46 469.434 134.487 469.824 134.465C469.893 134.656 469.888 134.913 469.877 134.998C469.871 135.052 469.876 135.106 469.892 135.157C469.908 135.209 469.934 135.256 469.971 135.296C470.006 135.336 470.05 135.369 470.099 135.391C470.148 135.413 470.202 135.425 470.255 135.425C470.347 135.425 470.436 135.391 470.506 135.331C470.575 135.27 470.62 135.187 470.631 135.095C470.659 134.847 470.644 134.595 470.586 134.352C471.28 134.168 471.901 133.779 472.368 133.237C472.745 133.469 473.184 133.579 473.626 133.55C473.727 133.543 473.82 133.497 473.887 133.421C473.953 133.346 473.986 133.247 473.98 133.147Z" fill="#4C4C4C"/>
<path d="M510.158 177.162V210.934" stroke="url(#paint28_radial_305_99)"/>
<path d="M510.127 220.582V208.176" stroke="url(#paint29_radial_305_99)"/>
<path d="M510.021 210.013C512.819 210.013 515.087 207.751 515.087 204.96C515.087 202.169 512.819 199.906 510.021 199.906C507.223 199.906 504.955 202.169 504.955 204.96C504.955 207.751 507.223 210.013 510.021 210.013Z" fill="#ACD4A7"/>
<path d="M510.01 207.992C511.689 207.992 513.05 206.635 513.05 204.96C513.05 203.285 511.689 201.928 510.01 201.928C508.332 201.928 506.971 203.285 506.971 204.96C506.971 206.635 508.332 207.992 510.01 207.992Z" fill="#389D2D"/>
<path d="M464.021 259.166C466.819 259.166 469.087 256.903 469.087 254.112C469.087 251.321 466.819 249.059 464.021 249.059C461.223 249.059 458.955 251.321 458.955 254.112C458.955 256.903 461.223 259.166 464.021 259.166Z" fill="#ACD4A7"/>
<path d="M464.01 257.144C465.689 257.144 467.05 255.787 467.05 254.112C467.05 252.438 465.689 251.08 464.01 251.08C462.332 251.08 460.971 252.438 460.971 254.112C460.971 255.787 462.332 257.144 464.01 257.144Z" fill="#389D2D"/>
<path d="M417.58 175.779V209.552" stroke="url(#paint30_radial_305_99)"/>
<path d="M417.549 219.209V206.803" stroke="url(#paint31_radial_305_99)"/>
<path d="M417.435 210.013C420.233 210.013 422.501 207.751 422.501 204.96C422.501 202.169 420.233 199.906 417.435 199.906C414.637 199.906 412.369 202.169 412.369 204.96C412.369 207.751 414.637 210.013 417.435 210.013Z" fill="#ACD4A7"/>
<path d="M417.463 207.992C419.142 207.992 420.503 206.635 420.503 204.96C420.503 203.285 419.142 201.928 417.463 201.928C415.785 201.928 414.424 203.285 414.424 204.96C414.424 206.635 415.785 207.992 417.463 207.992Z" fill="#389D2D"/>
<path fill-rule="evenodd" clip-rule="evenodd" d="M517.233 443.075L506.846 431.326C496.373 433.407 485.103 434.987 473.356 436.001C449.195 438.087 424.099 437.688 401.231 434.854C395.053 434.088 389.113 433.154 383.459 432.064L373.452 444.315C378.035 445.073 382.746 445.755 387.57 446.357C416.996 450.029 449.313 450.561 480.437 447.885C493.223 446.786 505.572 445.166 517.233 443.075ZM61.989 324.646C71.52 332.331 87.573 338.77 108.126 343.151C128.678 347.531 152.81 349.658 177.48 349.262L215.837 347.797C218.185 347.708 220.539 347.779 222.766 348.006C224.993 348.232 227.049 348.61 228.817 349.117C230.584 349.624 232.028 350.251 233.067 350.961C234.106 351.671 234.72 352.452 234.872 353.257C235.024 354.063 234.712 354.878 233.955 355.656C233.197 356.434 232.008 357.16 230.456 357.792C228.904 358.425 227.019 358.951 224.908 359.341C222.798 359.731 220.503 359.977 218.156 360.066L179.252 361.555C178.895 361.571 178.537 361.58 178.179 361.581C146.404 362.136 115.284 359.437 88.757 353.824C62.229 348.211 41.4842 339.937 29.1464 330.048L61.989 324.646Z" fill="#EAEAEA"/>
<path d="M537.003 423.129C528.094 426.37 517.915 429.128 506.846 431.326L517.233 443.075C533.958 440.077 549.268 436.111 562.427 431.326C571.849 427.898 579.989 424.115 586.702 420.073L563.37 409.112C557.223 414.258 548.297 419.021 537.003 423.129Z" fill="#EAEAEA"/>
</g>
<defs>
<filter id="filter0_d_305_99" x="284.186" y="120.536" width="92.2067" height="60.876" filterUnits="userSpaceOnUse" color-interpolation-filters="sRGB">
<feFlood flood-opacity="0" result="BackgroundImageFix"/>
<feColorMatrix in="SourceAlpha" type="matrix" values="0 0 0 0 0 0 0 0 0 0 0 0 0 0 0 0 0 0 127 0" result="hardAlpha"/>
<feOffset dy="4"/>
<feGaussianBlur stdDeviation="4.5"/>
<feComposite in2="hardAlpha" operator="out"/>
<feColorMatrix type="matrix" values="0 0 0 0 0.144197 0 0 0 0 0.170861 0 0 0 0 0.141234 0 0 0 0.6 0"/>
<feBlend mode="normal" in2="BackgroundImageFix" result="effect1_dropShadow_305_99"/>
<feBlend mode="normal" in="SourceGraphic" in2="effect1_dropShadow_305_99" result="shape"/>
</filter>
<filter id="filter1_f_305_99" x="4.54187" y="288.953" width="616.244" height="222.612" filterUnits="userSpaceOnUse" color-interpolation-filters="sRGB">
<feFlood flood-opacity="0" result="BackgroundImageFix"/>
<feBlend mode="normal" in="SourceGraphic" in2="BackgroundImageFix" result="shape"/>
<feGaussianBlur stdDeviation="6" result="effect1_foregroundBlur_305_99"/>
</filter>
<filter id="filter2_d_305_99" x="120.179" y="160.692" width="96.6923" height="63.4993" filterUnits="userSpaceOnUse" color-interpolation-filters="sRGB">
<feFlood flood-opacity="0" result="BackgroundImageFix"/>
<feColorMatrix in="SourceAlpha" type="matrix" values="0 0 0 0 0 0 0 0 0 0 0 0 0 0 0 0 0 0 127 0" result="hardAlpha"/>
<feOffset dy="4"/>
<feGaussianBlur stdDeviation="4.5"/>
<feComposite in2="hardAlpha" operator="out"/>
<feColorMatrix type="matrix" values="0 0 0 0 0.144197 0 0 0 0 0.170861 0 0 0 0 0.141234 0 0 0 0.6 0"/>
<feBlend mode="normal" in2="BackgroundImageFix" result="effect1_dropShadow_305_99"/>
<feBlend mode="normal" in="SourceGraphic" in2="effect1_dropShadow_305_99" result="shape"/>
</filter>
<filter id="filter3_d_305_99" x="412.538" y="233.981" width="105.018" height="68.3135" filterUnits="userSpaceOnUse" color-interpolation-filters="sRGB">
<feFlood flood-opacity="0" result="BackgroundImageFix"/>
<feColorMatrix in="SourceAlpha" type="matrix" values="0 0 0 0 0 0 0 0 0 0 0 0 0 0 0 0 0 0 127 0" result="hardAlpha"/>
<feOffset dy="4"/>
<feGaussianBlur stdDeviation="4.5"/>
<feComposite in2="hardAlpha" operator="out"/>
<feColorMatrix type="matrix" values="0 0 0 0 0.144197 0 0 0 0 0.170861 0 0 0 0 0.141234 0 0 0 0.6 0"/>
<feBlend mode="normal" in2="BackgroundImageFix" result="effect1_dropShadow_305_99"/>
<feBlend mode="normal" in="SourceGraphic" in2="effect1_dropShadow_305_99" result="shape"/>
</filter>
<linearGradient id="paint0_linear_305_99" x1="278.095" y1="173.889" x2="398.949" y2="173.889" gradientUnits="userSpaceOnUse">
<stop stop-color="#737373" stop-opacity="0.11"/>
<stop offset="1" stop-color="#D9D9D9" stop-opacity="0.2"/>
</linearGradient>
<linearGradient id="paint1_linear_305_99" x1="330.231" y1="212.951" x2="330.231" y2="328.069" gradientUnits="userSpaceOnUse">
<stop stop-color="#EEEEEE"/>
<stop offset="1" stop-color="#F9F9F9"/>
</linearGradient>
<linearGradient id="paint2_linear_305_99" x1="328.635" y1="202.068" x2="328.635" y2="260.068" gradientUnits="userSpaceOnUse">
<stop stop-color="#C7C7C7"/>
<stop offset="1" stop-color="#F1F1F1"/>
</linearGradient>
<linearGradient id="paint3_linear_305_99" x1="287.861" y1="91.5688" x2="389.972" y2="91.5688" gradientUnits="userSpaceOnUse">
<stop stop-color="#737373" stop-opacity="0.11"/>
<stop offset="1" stop-color="#D9D9D9" stop-opacity="0.2"/>
</linearGradient>
<linearGradient id="paint4_linear_305_99" x1="287.869" y1="91.5688" x2="389.98" y2="91.5688" gradientUnits="userSpaceOnUse">
<stop stop-color="#737373" stop-opacity="0.11"/>
<stop offset="1" stop-color="#D9D9D9" stop-opacity="0.2"/>
</linearGradient>
<radialGradient id="paint5_radial_305_99" cx="0" cy="0" r="1" gradientUnits="userSpaceOnUse" gradientTransform="translate(nan nan) rotate(nan) scale(nan nan)">
<stop stop-color="#389D2D" stop-opacity="0"/>
<stop offset="1" stop-color="#389D2D"/>
</radialGradient>
<radialGradient id="paint6_radial_305_99" cx="0" cy="0" r="1" gradientUnits="userSpaceOnUse" gradientTransform="translate(nan nan) rotate(nan) scale(nan nan)">
<stop stop-color="#389D2D" stop-opacity="0"/>
<stop offset="1" stop-color="#389D2D"/>
</radialGradient>
<radialGradient id="paint7_radial_305_99" cx="0" cy="0" r="1" gradientUnits="userSpaceOnUse" gradientTransform="translate(nan nan) rotate(nan) scale(nan nan)">
<stop stop-color="#389D2D" stop-opacity="0"/>
<stop offset="1" stop-color="#389D2D"/>
</radialGradient>
<radialGradient id="paint8_radial_305_99" cx="0" cy="0" r="1" gradientUnits="userSpaceOnUse" gradientTransform="translate(nan nan) rotate(nan) scale(nan nan)">
<stop stop-color="#389D2D" stop-opacity="0"/>
<stop offset="1" stop-color="#389D2D"/>
</radialGradient>
<linearGradient id="paint9_linear_305_99" x1="314.028" y1="17.9742" x2="349.39" y2="53.5509" gradientUnits="userSpaceOnUse">
<stop/>
<stop offset="1" stop-color="#666666"/>
</linearGradient>
<linearGradient id="paint10_linear_305_99" x1="314.028" y1="17.9742" x2="349.39" y2="53.5509" gradientUnits="userSpaceOnUse">
<stop/>
<stop offset="1" stop-color="#666666"/>
</linearGradient>
<linearGradient id="paint11_linear_305_99" x1="113.395" y1="216.899" x2="241.086" y2="216.899" gradientUnits="userSpaceOnUse">
<stop stop-color="#737373" stop-opacity="0.11"/>
<stop offset="1" stop-color="#D9D9D9" stop-opacity="0.2"/>
</linearGradient>
<linearGradient id="paint12_linear_305_99" x1="168.158" y1="291.068" x2="168.158" y2="374.068" gradientUnits="userSpaceOnUse">
<stop stop-color="#EEEEEE"/>
<stop offset="1" stop-color="#F9F9F9"/>
</linearGradient>
<linearGradient id="paint13_linear_305_99" x1="126.99" y1="132.414" x2="228.247" y2="132.414" gradientUnits="userSpaceOnUse">
<stop stop-color="#737373" stop-opacity="0.11"/>
<stop offset="1" stop-color="#D9D9D9" stop-opacity="0.2"/>
</linearGradient>
<linearGradient id="paint14_linear_305_99" x1="126.983" y1="132.414" x2="228.24" y2="132.414" gradientUnits="userSpaceOnUse">
<stop stop-color="#737373" stop-opacity="0.11"/>
<stop offset="1" stop-color="#D9D9D9" stop-opacity="0.2"/>
</linearGradient>
<radialGradient id="paint15_radial_305_99" cx="0" cy="0" r="1" gradientUnits="userSpaceOnUse" gradientTransform="translate(nan nan) rotate(nan) scale(nan nan)">
<stop stop-color="#389D2D" stop-opacity="0"/>
<stop offset="1" stop-color="#389D2D"/>
</radialGradient>
<radialGradient id="paint16_radial_305_99" cx="0" cy="0" r="1" gradientUnits="userSpaceOnUse" gradientTransform="translate(nan nan) rotate(nan) scale(nan nan)">
<stop stop-color="#389D2D" stop-opacity="0"/>
<stop offset="1" stop-color="#389D2D"/>
</radialGradient>
<radialGradient id="paint17_radial_305_99" cx="0" cy="0" r="1" gradientUnits="userSpaceOnUse" gradientTransform="translate(nan nan) rotate(nan) scale(nan nan)">
<stop stop-color="#389D2D" stop-opacity="0"/>
<stop offset="1" stop-color="#389D2D"/>
</radialGradient>
<radialGradient id="paint18_radial_305_99" cx="0" cy="0" r="1" gradientUnits="userSpaceOnUse" gradientTransform="translate(nan nan) rotate(nan) scale(nan nan)">
<stop stop-color="#389D2D" stop-opacity="0"/>
<stop offset="1" stop-color="#389D2D"/>
</radialGradient>
<linearGradient id="paint19_linear_305_99" x1="152.342" y1="59.5271" x2="187.367" y2="94.8061" gradientUnits="userSpaceOnUse">
<stop/>
<stop offset="1" stop-color="#666666"/>
</linearGradient>
<linearGradient id="paint20_linear_305_99" x1="152.342" y1="59.5271" x2="187.367" y2="94.8061" gradientUnits="userSpaceOnUse">
<stop/>
<stop offset="1" stop-color="#666666"/>
</linearGradient>
<linearGradient id="paint21_linear_305_99" x1="167.658" y1="279.068" x2="167.658" y2="337.068" gradientUnits="userSpaceOnUse">
<stop stop-color="#C7C7C7"/>
<stop offset="1" stop-color="#F1F1F1"/>
</linearGradient>
<linearGradient id="paint22_linear_305_99" x1="404.414" y1="295.425" x2="544.797" y2="295.425" gradientUnits="userSpaceOnUse">
<stop stop-color="#737373" stop-opacity="0.11"/>
<stop offset="1" stop-color="#D9D9D9" stop-opacity="0.2"/>
</linearGradient>
<linearGradient id="paint23_linear_305_99" x1="464.658" y1="360.068" x2="464.658" y2="459.068" gradientUnits="userSpaceOnUse">
<stop stop-color="#EEEEEE"/>
<stop offset="1" stop-color="#F9F9F9"/>
</linearGradient>
<linearGradient id="paint24_linear_305_99" x1="463.99" y1="356.068" x2="463.99" y2="414.068" gradientUnits="userSpaceOnUse">
<stop stop-color="#C7C7C7"/>
<stop offset="1" stop-color="#F1F1F1"/>
</linearGradient>
<linearGradient id="paint25_linear_305_99" x1="410.936" y1="198.596" x2="534.304" y2="198.596" gradientUnits="userSpaceOnUse">
<stop stop-color="#737373" stop-opacity="0.11"/>
<stop offset="1" stop-color="#D9D9D9" stop-opacity="0.2"/>
</linearGradient>
<linearGradient id="paint26_linear_305_99" x1="443.701" y1="109.359" x2="486.583" y2="152.343" gradientUnits="userSpaceOnUse">
<stop/>
<stop offset="1" stop-color="#666666"/>
</linearGradient>
<linearGradient id="paint27_linear_305_99" x1="443.701" y1="109.359" x2="486.583" y2="152.343" gradientUnits="userSpaceOnUse">
<stop/>
<stop offset="1" stop-color="#666666"/>
</linearGradient>
<radialGradient id="paint28_radial_305_99" cx="0" cy="0" r="1" gradientUnits="userSpaceOnUse" gradientTransform="translate(nan nan) rotate(nan) scale(nan nan)">
<stop stop-color="#389D2D" stop-opacity="0"/>
<stop offset="1" stop-color="#389D2D"/>
</radialGradient>
<radialGradient id="paint29_radial_305_99" cx="0" cy="0" r="1" gradientUnits="userSpaceOnUse" gradientTransform="translate(nan nan) rotate(nan) scale(nan nan)">
<stop stop-color="#389D2D" stop-opacity="0"/>
<stop offset="1" stop-color="#389D2D"/>
</radialGradient>
<radialGradient id="paint30_radial_305_99" cx="0" cy="0" r="1" gradientUnits="userSpaceOnUse" gradientTransform="translate(nan nan) rotate(nan) scale(nan nan)">
<stop stop-color="#389D2D" stop-opacity="0"/>
<stop offset="1" stop-color="#389D2D"/>
</radialGradient>
<radialGradient id="paint31_radial_305_99" cx="0" cy="0" r="1" gradientUnits="userSpaceOnUse" gradientTransform="translate(nan nan) rotate(nan) scale(nan nan)">
<stop stop-color="#389D2D" stop-opacity="0"/>
<stop offset="1" stop-color="#389D2D"/>
</radialGradient>
<clipPath id="clip0_305_99">
<rect width="626" height="516" fill="white"/>
</clipPath>
</defs>
</svg>
