<svg width="626" height="516" fill="none" xmlns="http://www.w3.org/2000/svg"><g clip-path="url(#a)"><path fill-rule="evenodd" clip-rule="evenodd" d="M324.807 120.117c3.01-1.737 7.891-1.737 10.902 0l37.391 21.565a5 5 0 0 1 2.502 4.308l.687 145.461c0 3.473-2.441 7.696-5.452 9.432l-38.783 22.061a5 5 0 0 1-4.971-.014l-37.388-21.564c-3.01-1.736-5.451-5.959-5.451-9.432l.001-144.897a5 5 0 0 1 2.448-4.299l38.114-22.621zm9.812.629 37.391 21.565a4.998 4.998 0 0 1 2.502 4.308l.686 145.461-.005.262c-.117 2.725-2.023 5.938-4.356 7.284l-40.024 22.767a2.507 2.507 0 0 1-2.493-.008l-.351-.202-38.274-22.074c-2.333-1.346-4.238-4.558-4.355-7.284l-.006-.262V147.666c0-1.765.931-3.399 2.448-4.3l38.115-22.62.23-.127c2.421-1.262 6.158-1.219 8.492.127z" fill="url(#b)"/><path fill-rule="evenodd" clip-rule="evenodd" d="m334.619 120.746 37.391 21.565a4.998 4.998 0 0 1 2.502 4.308l.686 145.461-.005.262c-.117 2.725-2.023 5.938-4.356 7.284l-40.024 22.767V176.09a1.422 1.422 0 0 0-2.844 0v146.093l-38.274-22.074c-2.333-1.346-4.238-4.558-4.355-7.284l-.006-.262V147.666c0-1.765.931-3.399 2.448-4.3l38.115-22.62.23-.127c2.421-1.262 6.158-1.219 8.492.127z" fill="#EEE"/><path d="m327.969 322.183.351.202a2.507 2.507 0 0 0 2.493.008V176.09a1.422 1.422 0 0 0-2.844 0v146.093z" fill="#C7C7C7"/><g filter="url(#c)"><path d="m326.484 126.572-31.505 18.204c-2.391 1.381-2.391 3.621 0 5.002l30.457 17.598c2.391 1.382 6.268 1.382 8.659 0l31.504-18.203c2.391-1.382 2.391-3.621 0-5.003l-30.456-17.598c-2.391-1.381-6.268-1.381-8.659 0z" fill="#EEE"/></g><path d="m326.918 126.823-31.505 18.204c-2.152 1.243-2.152 3.259 0 4.502l30.457 17.598c2.152 1.243 5.641 1.243 7.793 0l31.504-18.203c2.152-1.244 2.152-3.26 0-4.503l-30.456-17.598c-2.152-1.243-5.641-1.243-7.793 0z" stroke="#DDD"/><path d="M376.046 212.951h-91.63v115.118h91.63V212.951z" fill="url(#d)"/><path d="M330.049 202.068h-2.828v58h2.828v-58z" fill="url(#e)"/><path fill-rule="evenodd" clip-rule="evenodd" d="M327.328 46.444c2.544-1.457 6.668-1.457 9.212 0l32.244 18.47a2.921 2.921 0 0 1 1.473 2.496l.569 42.404c0 2.914-2.062 6.458-4.606 7.915l-33.408 18.874a2.958 2.958 0 0 1-2.923-.008l-32.227-18.461c-2.543-1.457-4.605-5.001-4.605-7.915l.001-41.907a2.92 2.92 0 0 1 1.441-2.515l32.829-19.353zm8.291.528 32.244 18.47a2.921 2.921 0 0 1 1.473 2.495l.569 42.404-.005.22c-.098 2.288-1.708 4.983-3.68 6.113l-33.408 18.874a2.958 2.958 0 0 1-2.923-.009l-32.227-18.46c-1.971-1.13-3.581-3.825-3.68-6.112l-.004-.22V68.84c0-1.032.548-1.989 1.441-2.515l32.83-19.353.195-.106c2.045-1.059 5.203-1.023 7.175.106z" fill="url(#f)"/><path d="M369.345 67.937a2.921 2.921 0 0 0-1.473-2.494l-32.245-18.47c-1.971-1.13-5.129-1.166-7.175-.107l-.194.106-32.83 19.353a2.92 2.92 0 0 0-1.442 2.515v41.906l.005.221c.099 2.287 1.709 4.982 3.68 6.112l32.227 18.46a2.958 2.958 0 0 0 2.923.009l33.408-18.874c1.971-1.13 3.581-3.825 3.68-6.113l.005-.22-.569-42.404z" fill="url(#g)"/><path d="M369.345 67.937a2.921 2.921 0 0 0-1.473-2.494l-32.245-18.47c-1.971-1.13-5.129-1.166-7.175-.107l-.194.106-32.83 19.353a2.92 2.92 0 0 0-1.442 2.515v41.906l.005.221c.099 2.287 1.709 4.982 3.68 6.112l32.227 18.46a2.958 2.958 0 0 0 2.923.009l33.408-18.874c1.971-1.13 3.581-3.825 3.68-6.113l.005-.22-.569-42.404z" fill="#F9F9F9"/><path d="m329.845 51.379-28.839 16.55c-1.266.726-1.266 1.904 0 2.631l27.953 16.042c1.267.726 3.32.726 4.586 0l28.839-16.55c1.267-.727 1.267-1.905 0-2.632L334.431 51.38c-1.267-.727-3.32-.727-4.586 0z" stroke="#DDD"/><path d="M331.452 96.033c1.248 0 2.445.493 3.327 1.37a4.66 4.66 0 0 1 1.379 3.307 4.706 4.706 0 0 1-.965 2.842 7.47 7.47 0 0 0-2.67 1.719l-1.071.117a4.72 4.72 0 0 1-3.327-1.37 4.664 4.664 0 0 1-1.379-3.308c0-1.24.496-2.43 1.379-3.306a4.718 4.718 0 0 1 3.327-1.37zm-9.411 18.709v-2.338c0-2.48 3.894-4.514 8.823-4.678a7.624 7.624 0 0 0-.588 2.924c0 1.508.447 2.923 1.176 4.092h-9.411zM339.105 105.387c.468 0 .917.185 1.248.514.331.329.516.775.516 1.24v.585h.589c.468 0 .916.184 1.247.513.331.329.517.775.517 1.241v4.677c0 .465-.186.911-.517 1.24a1.768 1.768 0 0 1-1.247.514h-7.059c-.468 0-.917-.185-1.247-.514a1.748 1.748 0 0 1-.517-1.24v-4.677c0-.466.186-.912.517-1.241.33-.329.779-.513 1.247-.513h.589v-.585c0-.465.185-.911.516-1.24a1.77 1.77 0 0 1 1.248-.514h2.353zm-2.353 1.169a.586.586 0 0 0-.588.585v.585h3.529v-.585a.586.586 0 0 0-.588-.585h-2.353z" fill="#389D2D"/><path d="M339.105 105.387c.468 0 .917.185 1.248.514.331.329.516.775.516 1.24v.585h.589c.468 0 .916.184 1.247.513.331.329.517.775.517 1.241v4.677c0 .465-.186.911-.517 1.24a1.768 1.768 0 0 1-1.247.514h-7.059c-.468 0-.917-.185-1.247-.514a1.748 1.748 0 0 1-.517-1.24v-4.677c0-.466.186-.912.517-1.241.33-.329.779-.513 1.247-.513h.589v-.585c0-.465.185-.911.516-1.24a1.77 1.77 0 0 1 1.248-.514h2.353zm-2.353 1.169a.586.586 0 0 0-.588.585v.585h3.529v-.585a.586.586 0 0 0-.588-.585h-2.353z" fill="#389D2D"/><path d="M369.979 73.893v27.85" stroke="url(#h)"/><path d="M369.963 109.699v-10.23" stroke="url(#i)"/><path d="M369.874 100.986c2.316 0 4.193-1.866 4.193-4.168s-1.877-4.168-4.193-4.168c-2.315 0-4.192 1.866-4.192 4.168s1.877 4.168 4.192 4.168z" fill="#ACD4A7"/><path d="M369.877 99.317a2.509 2.509 0 0 0 2.516-2.5c0-1.381-1.127-2.5-2.516-2.5a2.509 2.509 0 0 0-2.516 2.5c0 1.38 1.127 2.5 2.516 2.5z" fill="#389D2D"/><path d="M331.804 141.519c2.316 0 4.193-1.866 4.193-4.168s-1.877-4.167-4.193-4.167c-2.315 0-4.193 1.865-4.193 4.167 0 2.302 1.878 4.168 4.193 4.168z" fill="#ACD4A7"/><path d="M331.799 139.851a2.51 2.51 0 0 0 2.516-2.501c0-1.381-1.127-2.5-2.516-2.5a2.508 2.508 0 0 0-2.516 2.5 2.51 2.51 0 0 0 2.516 2.501z" fill="#389D2D"/><path d="M293.361 72.756v27.851" stroke="url(#j)"/><path d="M293.338 108.563V98.332" stroke="url(#k)"/><path d="M293.249 100.986c2.316 0 4.193-1.866 4.193-4.168s-1.877-4.168-4.193-4.168c-2.315 0-4.192 1.866-4.192 4.168s1.877 4.168 4.192 4.168z" fill="#ACD4A7"/><path d="M293.244 99.317c1.39 0 2.516-1.12 2.516-2.5 0-1.381-1.126-2.5-2.516-2.5a2.508 2.508 0 0 0-2.515 2.5c0 1.38 1.126 2.5 2.515 2.5z" fill="#389D2D"/><path d="m329.822 2.275-31.416 31.227a2.619 2.619 0 0 0 0 3.722l31.416 31.228a2.66 2.66 0 0 0 3.745 0l31.417-31.228a2.62 2.62 0 0 0 0-3.722L333.567 2.275a2.66 2.66 0 0 0-3.745 0z" fill="url(#l)" stroke="url(#m)"/><mask id="n" style="mask-type:luminance" maskUnits="userSpaceOnUse" x="320" y="23" width="23" height="24"><path d="M342.604 23.982h-22.36v22.225h22.36V23.982z" fill="#fff"/></mask><g mask="url(#n)" fill="#EEE"><path d="M326.752 24.012c-.118.048-4.878 3.872-4.908 3.942-.013.039-.027.273-.027.52v.452l-.235.165c-.415.29-.376-.482-.376 7.188 0 6.407.004 6.798.074 6.88.096.11 5.402 3.005 5.56 3.03.061.01 3.319-.79 7.358-1.8 6.608-1.663 7.258-1.837 7.35-1.937l.096-.113V30.367l-.096-.108c-.083-.091-.498-.243-2.175-.79-1.899-.617-2.087-.673-2.227-.63-.083.026-.703.27-1.376.543l-1.222.5-.022-.947c-.018-.703-.035-.964-.079-1.016-.035-.039-.227-.126-.428-.19l-.367-.118v-.447c0-.439-.056-.7-.17-.769-.105-.065-6.533-2.413-6.594-2.409a.469.469 0 0 0-.136.026zm2.14 3.638c.638.182 1.21.352 1.28.378l.118.043v1.367c0 1.233-.009 1.363-.075 1.39-.065.026-2.17-.374-2.489-.47l-.144-.047v-1.463c0-.807.013-1.48.031-1.493.048-.052.087-.04 1.279.295zm-2.773 1.45v1.45l-.786.342c-.432.187-.825.335-.873.33-.083-.013-.088-.052-.097-1.271-.008-.695 0-1.281.022-1.307.057-.087 1.603-1.016 1.669-1.007.056.013.065.208.065 1.463zm6.442-.4c.397.109.746.222.777.244.039.03.052.338.052 1.267 0 1.055-.008 1.233-.065 1.255-.079.03-2.031-.356-2.105-.417-.074-.061-.083-2.596-.009-2.67.035-.035.127-.026.341.035.157.048.611.174 1.009.287zm-9.237.76c.013.056.018.6.013 1.207l-.013 1.107-.576.256c-.485.217-.59.247-.647.2-.056-.048-.065-.209-.065-1.09 0-.938.009-1.046.078-1.103.166-.139 1.04-.664 1.11-.668.043-.004.087.035.1.091zm15.084.907c.253.07.555.16.673.196l.205.07v.993c0 .899-.009.999-.074 1.025-.04.017-.358-.026-.703-.096-.463-.091-.638-.143-.669-.2-.056-.104-.052-1.931.005-2.04.026-.043.057-.082.07-.082.013 0 .235.06.493.134zm1.992.573.48.14.013.946c.009.776 0 .946-.052.967-.057.022-1.088-.178-1.166-.225-.048-.026-.053-1.94-.009-1.988.039-.035.131-.018.734.16zm-11.394.79c.663.109 1.222.209 1.244.222.022.013.04.625.04 1.389 0 1.18-.009 1.367-.066 1.389-.1.039-2.524-.16-2.585-.209-.044-.034-.057-.386-.057-1.488 0-.79.013-1.455.031-1.468.048-.047.135-.039 1.393.165zm-2.865 1.433v1.454l-.096.022c-.057.013-.433.082-.843.152-.528.086-.756.112-.795.078-.044-.035-.057-.339-.057-1.298 0-1.185.005-1.255.083-1.307.14-.087 1.459-.547 1.59-.551l.118-.004v1.454zm6.136-.907c.554.086 1.03.178 1.061.204.079.06.079 2.43-.004 2.495-.04.035-.341.027-1.07-.034-.559-.044-1.031-.096-1.057-.109-.048-.03-.061-2.635-.013-2.682.039-.04-.035-.048 1.083.126zm-8.983.46c.078.078.074 2.305 0 2.37-.101.074-1.136.23-1.201.173-.044-.034-.057-.277-.057-1.072 0-.564.017-1.046.035-1.076.026-.04 1.022-.426 1.148-.443.013-.004.044.017.075.048zm15.293.56c.323.052.616.112.646.138.04.03.053.287.053 1.008 0 .72-.013.976-.053 1.007-.087.065-1.345-.048-1.393-.122-.043-.07-.052-1.945-.013-2.053.035-.091.061-.087.76.022zm1.725.277c.219.04.437.079.494.087l.096.022v1.923l-.568-.03a6.487 6.487 0 0 1-.633-.053c-.057-.021-.066-.182-.066-1.02v-.994h.144c.075 0 .319.03.533.065zm-10.075 2.292c.04.026.053.356.053 1.398 0 1.185-.009 1.363-.066 1.385-.105.039-2.485.134-2.568.1-.07-.026-.074-.152-.074-1.48 0-1.212.009-1.459.061-1.49.079-.043 2.516.04 2.594.087zm-4.166-.073c.061.021.07.19.07 1.454 0 1.285-.009 1.432-.07 1.458-.1.04-1.598-.113-1.664-.169-.083-.065-.083-2.53 0-2.583.026-.017.398-.065.817-.104.419-.039.768-.074.773-.078.004 0 .035.008.074.022zm7.267.2c.039.034.052.338.052 1.25 0 .911-.013 1.215-.052 1.25-.061.043-2.009.147-2.114.108-.052-.017-.061-.234-.061-1.332 0-.725.013-1.329.035-1.346.044-.052 2.074.017 2.14.07zm2.446.051c1.026.044 1.519.078 1.559.113.091.078.096 7.08.008 7.171-.083.078-3.135.842-3.231.803-.07-.026-.075-.269-.075-4.037 0-4.15 0-4.11.175-4.11.035 0 .738.03 1.564.06zm-12.464.052c.039.105.03 2.245-.013 2.314-.031.048-.131.048-.599.004-.31-.03-.589-.073-.615-.095-.066-.052-.083-2.058-.018-2.157.039-.057.476-.118.97-.13.192-.005.253.012.275.064zm15.913.113c.04.035.053.291.053 1.012 0 .72-.013.976-.053 1.007-.03.026-.345.056-.698.074-.607.026-.642.026-.686-.057-.074-.134-.065-1.98.009-2.053.048-.044.205-.056.69-.044.345.01.655.04.685.061zm1.638.074c.018.017.026.452.022.964l-.013.929-.555.039c-.301.021-.581.026-.62.013-.061-.026-.07-.152-.07-.999 0-.533.013-.985.035-1.007.04-.039 1.153.013 1.201.061zm-.039 2.548c.061.022.07.152.07.977 0 .95 0 .95-.096.972-.28.061-1.075.178-1.118.16-.04-.012-.053-.277-.053-1.01 0-.548.005-.999.013-.999.005-.004.254-.03.555-.06.301-.031.55-.057.555-.062.004 0 .035.01.074.022zm-1.555 1.176.009 1.012-.096.022c-.057.013-.363.07-.686.121-.498.087-.589.096-.642.044-.087-.092-.091-2.019 0-2.093.07-.056.716-.126 1.118-.117l.284.005.013 1.007zm-16.512-.764c.258.048.498.11.529.135.039.035.052.53.043 2.31-.013 2.126-.017 2.26-.091 2.274-.079.017-1.123-.525-1.175-.616-.044-.061-.044-4.124-.005-4.163.048-.048.201-.035.699.06zm10.573.265c.079.078.074 2.435 0 2.5-.074.057-2.018.374-2.105.344-.061-.027-.07-.183-.07-1.35v-1.329l.101-.021a65.234 65.234 0 0 1 1.956-.191c.035 0 .087.017.118.047zm-7.939.222.72.139.013 2.808c.009 2.383 0 2.809-.052 2.826-.066.026-1.638-.807-1.695-.894-.039-.065-.048-4.953-.004-4.992.052-.052.288-.026 1.018.113zm4.891 1.415c0 1.02-.013 1.35-.053 1.384-.074.057-2.506.46-2.589.426-.057-.022-.066-.243-.066-1.472 0-1.11.013-1.463.057-1.497.074-.061 2.476-.265 2.576-.217.07.035.075.143.075 1.376z"/><path d="M334.576 36.492c-.083.082-.074 6.255.004 6.324.079.061 2.162.53 2.302.517l.109-.013.009-3.321c.009-1.827-.005-3.347-.022-3.377-.026-.04-.358-.074-1.149-.117-.611-.035-1.131-.065-1.152-.065-.027 0-.07.021-.101.052z"/></g><path d="m329.859 6.4-27.266 27.102a2.62 2.62 0 0 0 0 3.722l27.266 27.102a2.66 2.66 0 0 0 3.745 0l27.266-27.102a2.62 2.62 0 0 0 0-3.722L333.604 6.401a2.66 2.66 0 0 0-3.745 0z" stroke="#A7A7A7" stroke-opacity=".3"/><g opacity=".05" filter="url(#o)"><path d="M562.427 481.326c-22.334 8.121-50.866 13.884-81.99 16.559-31.124 2.676-63.441 2.144-92.867-1.528-29.425-3.672-54.637-10.318-72.447-19.1-17.811-8.781-27.421-19.303-27.615-30.235a1.072 1.072 0 0 1 .014-.37l14.668-92.749c-.25-8.487-7.796-16.646-21.687-23.449-13.892-6.803-33.508-11.946-56.375-14.781-22.868-2.834-47.964-3.233-72.126-1.147-24.161 2.087-46.307 6.566-63.646 12.872-17.339 6.307-29.096 14.159-33.788 22.567-4.692 8.408-2.11 16.996 7.421 24.681 9.531 7.685 25.584 14.124 46.137 18.505 20.552 4.38 44.684 6.507 69.354 6.111l38.357-1.465a50.187 50.187 0 0 1 6.929.209c2.227.226 4.283.604 6.051 1.111 1.767.507 3.211 1.134 4.25 1.844 1.039.71 1.652 1.491 1.805 2.296.152.806-.16 1.621-.917 2.399-.758.778-1.947 1.504-3.499 2.136-1.552.633-3.437 1.159-5.548 1.549-2.11.39-4.405.636-6.752.725l-38.904 1.489a25.57 25.57 0 0 1-1.073.026c-31.775.555-62.895-2.144-89.422-7.757-26.528-5.613-47.273-13.887-59.61-23.776-12.338-9.889-15.715-20.948-9.704-31.78 6.01-10.832 21.14-20.949 43.473-29.072 22.334-8.123 50.869-13.888 81.997-16.564s63.45-2.145 92.88 1.528c29.429 3.672 54.643 10.321 72.453 19.104 17.811 8.784 27.417 19.308 27.605 30.242.017.122.012.246-.014.369l-14.668 92.749c.25 8.487 7.796 16.646 21.687 23.449 13.892 6.803 33.508 11.946 56.375 14.781 22.868 2.834 47.964 3.233 72.125 1.147 24.162-2.087 46.308-6.565 63.647-12.872 17.339-6.307 29.096-14.159 33.788-22.567 4.692-8.408 2.11-16.996-7.421-24.681-9.531-7.685-25.584-14.124-46.137-18.504-20.552-4.381-44.684-6.507-69.354-6.112l-38.358 1.466a50.493 50.493 0 0 1-6.928-.209c-2.227-.227-4.283-.605-6.051-1.112-1.767-.507-3.212-1.133-4.251-1.844-1.038-.71-1.652-1.49-1.804-2.296-.152-.806.16-1.621.917-2.399.758-.778 1.947-1.504 3.499-2.136 1.552-.632 3.437-1.158 5.548-1.548 2.11-.39 4.404-.637 6.752-.725l38.904-1.49c.357-.016.715-.024 1.073-.026 31.771-.553 62.884 2.148 89.406 7.761 26.522 5.613 47.261 13.886 59.597 23.774 12.335 9.888 15.712 20.946 9.703 31.776-6.008 10.83-21.132 20.946-43.459 29.069z" fill="#3D3D3D"/></g><path d="M562.427 431.326c-22.334 8.121-50.866 13.884-81.99 16.559-31.124 2.676-63.441 2.144-92.867-1.528-29.425-3.672-54.637-10.318-72.447-19.1-17.811-8.781-27.421-19.303-27.615-30.235a1.072 1.072 0 0 1 .014-.37l14.668-92.749c-.25-8.487-7.796-16.646-21.687-23.449-13.892-6.803-33.508-11.946-56.375-14.781-22.868-2.834-47.964-3.233-72.126-1.147-24.161 2.087-46.307 6.566-63.646 12.872-17.339 6.307-29.096 14.159-33.788 22.567-4.692 8.408-2.11 16.996 7.421 24.681 9.531 7.685 25.584 14.124 46.137 18.505 20.552 4.38 44.684 6.507 69.354 6.111l38.357-1.465a50.187 50.187 0 0 1 6.929.209c2.227.226 4.283.604 6.051 1.111 1.767.507 3.211 1.134 4.25 1.844 1.039.71 1.652 1.491 1.805 2.296.152.806-.16 1.621-.917 2.399-.758.778-1.947 1.504-3.499 2.136-1.552.633-3.437 1.159-5.548 1.549-2.11.39-4.405.636-6.752.725l-38.904 1.489a25.57 25.57 0 0 1-1.073.026c-31.775.555-62.895-2.144-89.422-7.757-26.528-5.613-47.273-13.887-59.61-23.776-12.338-9.889-15.715-20.948-9.704-31.78 6.01-10.832 21.14-20.949 43.473-29.072 22.334-8.123 50.869-13.888 81.997-16.564s63.45-2.145 92.88 1.528c29.429 3.672 54.643 10.321 72.453 19.104 17.811 8.784 27.417 19.308 27.605 30.242.017.122.012.246-.014.369l-14.668 92.749c.25 8.487 7.796 16.646 21.687 23.449 13.892 6.803 33.508 11.946 56.375 14.781 22.868 2.834 47.964 3.233 72.125 1.147 24.162-2.087 46.308-6.565 63.647-12.872 17.339-6.307 29.096-14.159 33.788-22.567 4.692-8.408 2.11-16.996-7.421-24.681-9.531-7.685-25.584-14.124-46.137-18.504-20.552-4.381-44.684-6.507-69.354-6.112l-38.358 1.466a50.493 50.493 0 0 1-6.928-.209c-2.227-.227-4.283-.605-6.051-1.112-1.767-.507-3.212-1.133-4.251-1.844-1.038-.71-1.652-1.49-1.804-2.296-.152-.806.16-1.621.917-2.399.758-.778 1.947-1.504 3.499-2.136 1.552-.632 3.437-1.158 5.548-1.548 2.11-.39 4.404-.637 6.752-.725l38.904-1.49c.357-.016.715-.024 1.073-.026 31.771-.553 62.884 2.148 89.406 7.761 26.522 5.613 47.261 13.886 59.597 23.774 12.335 9.888 15.712 20.946 9.703 31.776-6.008 10.83-21.132 20.946-43.459 29.069z" fill="#EAEAEA"/><path fill-rule="evenodd" clip-rule="evenodd" d="M162.75 160.045c3.181-1.836 8.338-1.836 11.519 0l39.65 22.883a5.002 5.002 0 0 1 2.5 4.306l.725 144.316c0 3.672-2.579 8.137-5.76 9.972l-41.117 23.405a5 5 0 0 1-4.973-.014l-39.642-22.88c-3.181-1.836-5.759-6.3-5.759-9.972l.001-143.717a5 5 0 0 1 2.447-4.299l40.409-24zm10.367.665 39.65 22.883a5.002 5.002 0 0 1 2.5 4.306l.725 144.316-.006.277c-.123 2.882-2.136 6.278-4.602 7.701l-42.289 24.072a2.647 2.647 0 0 1-2.633-.008l-.371-.215-40.439-23.338c-2.465-1.423-4.478-4.82-4.602-7.701l-.006-.277V189.009a5 5 0 0 1 2.447-4.299l40.411-24 .243-.134c2.557-1.334 6.507-1.289 8.972.134z" fill="url(#p)"/><path fill-rule="evenodd" clip-rule="evenodd" d="m173.117 160.71 39.65 22.883a5.002 5.002 0 0 1 2.5 4.306l.725 144.316-.006.277c-.123 2.882-2.136 6.278-4.602 7.701l-42.289 24.072v-145.04a1.502 1.502 0 1 0-3.004 0v144.817l-40.439-23.338c-2.465-1.423-4.478-4.82-4.602-7.701l-.006-.277V189.009a5 5 0 0 1 2.447-4.299l40.411-24 .243-.134c2.557-1.334 6.507-1.289 8.972.134z" fill="#EEE"/><path d="m166.091 364.042.371.215c.814.47 1.817.473 2.633.008v-145.04a1.502 1.502 0 1 0-3.004 0v144.817z" fill="#C7C7C7"/><g filter="url(#q)"><path d="m164.75 166.729-33.778 19.53c-2.391 1.382-2.391 3.623 0 5.006l32.671 18.89c2.39 1.382 6.266 1.382 8.657 0l33.778-19.53c2.391-1.383 2.391-3.624 0-5.006l-32.671-18.89c-2.391-1.382-6.267-1.382-8.657 0z" fill="#EEE"/></g><path d="m165.182 166.979-33.778 19.53c-2.151 1.244-2.151 3.261 0 4.505l32.671 18.89c2.152 1.244 5.64 1.244 7.792 0l33.778-19.53c2.151-1.244 2.151-3.261 0-4.505l-32.671-18.89c-2.152-1.244-5.64-1.244-7.792 0z" stroke="#DDD"/><path d="M217.158 291.068h-98v83h98v-83z" fill="url(#r)"/><path fill-rule="evenodd" clip-rule="evenodd" d="M166.128 87.721c2.522-1.443 6.612-1.443 9.134 0l31.975 18.294a2.89 2.89 0 0 1 1.46 2.471l.565 41.999c0 2.886-2.045 6.396-4.567 7.839l-33.129 18.695c-.9.507-2.002.504-2.899-.009l-31.957-18.284c-2.523-1.443-4.567-4.953-4.567-7.84l.001-41.506c0-1.022.543-1.97 1.429-2.491l32.555-19.168zm8.221.523 31.975 18.294a2.894 2.894 0 0 1 1.46 2.471l.564 41.998-.004.218c-.098 2.266-1.695 4.936-3.649 6.054l-33.129 18.694c-.9.508-2.002.505-2.899-.009l-31.957-18.283c-1.955-1.119-3.552-3.789-3.65-6.054l-.004-.218v-41.507a2.89 2.89 0 0 1 1.429-2.49l32.556-19.168.193-.105c2.028-1.049 5.16-1.014 7.115.105z" fill="url(#s)"/><path d="M207.777 109.008a2.894 2.894 0 0 0-1.46-2.471l-31.975-18.294c-1.955-1.118-5.087-1.154-7.115-.105l-.193.105-32.556 19.168a2.89 2.89 0 0 0-1.429 2.491v41.506l.004.219c.098 2.265 1.695 4.934 3.65 6.053l31.957 18.284a2.933 2.933 0 0 0 2.898.008l33.129-18.693c1.955-1.119 3.552-3.789 3.65-6.054l.004-.218-.564-41.999z" fill="url(#t)"/><path d="M207.777 109.008a2.894 2.894 0 0 0-1.46-2.471l-31.975-18.294c-1.955-1.118-5.087-1.154-7.115-.105l-.193.105-32.556 19.168a2.89 2.89 0 0 0-1.429 2.491v41.506l.004.219c.098 2.265 1.695 4.934 3.65 6.053l31.957 18.284a2.933 2.933 0 0 0 2.898.008l33.129-18.693c1.955-1.119 3.552-3.789 3.65-6.054l.004-.218-.564-41.999z" fill="#F9F9F9"/><path d="M176.032 147.283c2.916 0 5.249 2.316 5.249 5.211a5.143 5.143 0 0 1-.805 2.78l3.593 3.59-1.621 1.61-3.64-3.556a5.275 5.275 0 0 1-2.776.787c-2.917 0-5.25-2.315-5.25-5.211 0-2.895 2.333-5.211 5.25-5.211zm0 2.316c-.774 0-1.516.305-2.063.848a2.883 2.883 0 0 0 0 4.094 2.93 2.93 0 0 0 4.125 0 2.882 2.882 0 0 0 0-4.094 2.928 2.928 0 0 0-2.062-.848zm-6.416-11.581c1.237 0 2.424.488 3.299 1.357a4.613 4.613 0 0 1 1.367 3.275 4.656 4.656 0 0 1-.957 2.814 7.432 7.432 0 0 0-2.648 1.703l-1.061.116a4.683 4.683 0 0 1-3.3-1.357 4.617 4.617 0 0 1-1.367-3.276c0-1.229.492-2.407 1.367-3.275a4.683 4.683 0 0 1 3.3-1.357zm-9.333 18.53v-2.316c0-2.456 3.861-4.471 8.749-4.633a7.553 7.553 0 0 0-.583 2.895c0 1.494.443 2.896 1.167 4.054h-9.333z" fill="#389D2D"/><path d="m168.623 92.608-28.597 16.391c-1.256.72-1.256 1.887 0 2.607l27.719 15.888c1.256.72 3.292.72 4.548 0l28.598-16.391c1.256-.72 1.256-1.887 0-2.607l-27.72-15.888c-1.256-.72-3.292-.72-4.548 0z" stroke="#DDD"/><path d="M208.424 114.908v27.585" stroke="url(#u)"/><path d="M208.4 150.373V140.24" stroke="url(#v)"/><path d="M208.316 141.74c2.296 0 4.158-1.848 4.158-4.128 0-2.28-1.862-4.128-4.158-4.128-2.296 0-4.158 1.848-4.158 4.128 0 2.28 1.862 4.128 4.158 4.128z" fill="#ACD4A7"/><path d="M208.317 140.088a2.486 2.486 0 0 0 2.495-2.477 2.486 2.486 0 0 0-2.495-2.476 2.486 2.486 0 0 0-2.495 2.476 2.486 2.486 0 0 0 2.495 2.477z" fill="#389D2D"/><path d="M170.55 181.886c2.297 0 4.158-1.848 4.158-4.127 0-2.28-1.861-4.128-4.158-4.128-2.296 0-4.157 1.848-4.157 4.128 0 2.279 1.861 4.127 4.157 4.127z" fill="#ACD4A7"/><path d="M170.551 180.235a2.486 2.486 0 0 0 2.495-2.477 2.486 2.486 0 0 0-2.495-2.477 2.486 2.486 0 0 0-2.494 2.477 2.486 2.486 0 0 0 2.494 2.477z" fill="#389D2D"/><path d="M132.432 113.779v27.585" stroke="url(#w)"/><path d="M132.416 149.245v-10.134" stroke="url(#x)"/><path d="M132.324 141.74c2.296 0 4.158-1.848 4.158-4.128 0-2.28-1.862-4.128-4.158-4.128-2.296 0-4.158 1.848-4.158 4.128 0 2.28 1.862 4.128 4.158 4.128z" fill="#ACD4A7"/><path d="M132.333 140.088a2.486 2.486 0 0 0 2.494-2.477 2.486 2.486 0 0 0-2.494-2.476 2.486 2.486 0 0 0-2.495 2.476 2.486 2.486 0 0 0 2.495 2.477z" fill="#389D2D"/><path d="m168.005 43.978-31.154 30.929a2.592 2.592 0 0 0 0 3.686l31.154 30.929a2.639 2.639 0 0 0 3.713 0l31.154-30.929a2.593 2.593 0 0 0 0-3.686l-31.154-30.93a2.639 2.639 0 0 0-3.713 0z" fill="url(#y)" stroke="url(#z)"/><path d="M168.127 65.326a79.54 79.54 0 0 0-.653.126c-3.177.625-6.08 2.77-7.634 5.645a11.655 11.655 0 0 0-1.275 3.898c-.084.625-.07 2.298.027 2.927.198 1.294.512 2.29 1.059 3.387a10.63 10.63 0 0 0 2.307 3.124c.923.882 1.743 1.446 2.948 2.032.733.354 1.328.572 2.096.764 1.015.254 1.2.271 2.961.25 1.522-.018 1.632-.022 2.118-.127 3.486-.765 6.314-2.959 7.85-6.087.723-1.468 1.068-2.849 1.134-4.478.145-3.867-1.743-7.507-5.039-9.705a11.868 11.868 0 0 0-3.455-1.52c-.998-.254-1.17-.267-2.829-.263-.838.005-1.566.013-1.615.027zm2.705.402.234.026-.146.27c-.551 1.032-.626 1.159-.798 1.303-.217.183-.349.223-.98.284-.807.074-1.046.148-1.297.397-.181.175-.318.446-.464.914-.176.55-.308.642-.582.402-.238-.206-.371-.42-.419-.69-.053-.285-.133-.42-.433-.73-.308-.324-.582-.503-.803-.538a1.209 1.209 0 0 1-.269-.07c-.075-.035-.212-.253-.212-.332 0-.052.777-.41 1.355-.625a13.01 13.01 0 0 1 2.069-.541c.83-.132 1.973-.162 2.745-.07zm4.942 1.87c.283.192.459.41 1.249 1.564.304.441.441.498.763.31l.186-.105.255.324a10.81 10.81 0 0 1 2.039 4.032c.11.407.287 1.368.26 1.394a2.303 2.303 0 0 1-.269.083c-.428.11-.569.062-1.019-.34-.446-.398-.909-.665-1.13-.643-.123.013-.141.03-.15.145-.009.117.04.174.481.546.98.821 1.05.913 1.05 1.302 0 .27-.114.607-.238.686-.048.03-.229.074-.401.091-.371.035-.556.11-.803.31-.186.15-.23.258-.164.425.014.039.19.187.393.332.388.28.662.55.728.725.062.153.053.485-.009.599-.066.13-.176.2-.547.362-.428.184-.657.376-.799.669-.18.384-.198.49-.233 1.599-.022.786-.049 1.097-.102 1.236-.199.525-1.085 1.29-2.418 2.085-.684.41-.803.423-.825.1-.009-.131.035-.393.128-.72.26-.962.269-1.028.243-1.33a4.394 4.394 0 0 0-.142-.676c-.304-1.019-.41-1.56-.414-2.072-.005-.38-.075-.852-.15-1-.115-.214-.226-.232-1.196-.201-.799.026-.914.022-1.223-.057-.591-.153-.926-.415-1.187-.94-.361-.742-.436-1.616-.189-2.346.309-.904 1.125-1.962 1.906-2.464.503-.323.918-.468 1.324-.468.194 0 .423.031.538.07.19.066.808.42 1.081.617.503.362 1.293.51 1.858.345.273-.079 1.001-.651 1.024-.804.044-.293-.631-.564-1.514-.603-.3-.013-.578-.048-.64-.083a3.034 3.034 0 0 1-.397-.297c-.357-.302-.6-.437-.971-.53-.463-.117-.816-.017-1.222.346-.353.315-.944.55-1.394.55-.292 0-.428-.13-.428-.414 0-.166.022-.228.123-.328.155-.153.349-.206.892-.24.229-.018.454-.04.498-.053.15-.04.084-.24-.225-.668-.282-.398-.313-.424-.679-.612-.64-.332-.72-.441-.477-.712.154-.18.481-.293.825-.293.388 0 .578.079.887.371.15.145.318.276.375.293.159.044.45.04.596-.013.238-.083.238-.184-.009-.848a3.773 3.773 0 0 1-.176-.594.682.682 0 0 1 .251-.655c.163-.118 1.266-.507 1.469-.516a.67.67 0 0 1 .318.114zm-12.523.336c0 .092.225.25.64.454.534.263.852.63.808.931-.014.096-.04.105-.53.157-.547.057-.812.136-.86.258-.044.114.101.201.635.39.909.318 1.249.537 1.249.812 0 .157-.124.28-.388.393-.248.105-.459.088-.609-.052-.058-.053-.115-.092-.124-.079a3.235 3.235 0 0 0-.084.41c-.15.813-.198.888-.684 1.045a2.98 2.98 0 0 0-1.169.76c-.322.337-.406.533-.468 1.084-.062.542-.044.603.309.961.216.227.26.297.26.428 0 .215-.075.354-.242.446-.234.122-.34.066-.53-.297-.534-1.01-.922-1.293-1.284-.935-.269.266-.154.62.327.992.715.55.878.778.944 1.302.022.179.062.362.084.406.084.153.318.214.816.206l.468-.005.243.166c.313.214.772.708 1.195 1.285.186.253.433.572.552.712.243.28.812.668 1.178.808.132.048.384.14.56.206.38.135.658.375.698.603.035.179-.005.266-.265.555a3.255 3.255 0 0 0-.393.633c-.251.52-.375.682-.64.843-.295.184-.414.32-.604.695a5.277 5.277 0 0 1-.446.682 3.322 3.322 0 0 0-.278.371.359.359 0 0 1-.062.11c-.057.074-.083.07-.41-.127a18.716 18.716 0 0 1-.975-.651 7.425 7.425 0 0 1-.097-.634c-.141-1.049-.269-1.394-.64-1.748a2.906 2.906 0 0 1-.816-1.293c-.089-.284-.093-.358-.062-1.197.026-.865.026-.909-.066-1.114-.119-.271-.19-.346-.424-.46-.198-.095-.366-.287-.887-1.026-.648-.913-.865-1.385-1.028-2.224-.097-.48-.084-.607.15-1.52.34-1.338 1.169-2.959 2.056-4.02.481-.582 1.734-1.779 1.862-1.783.018 0 .031.03.031.061z" fill="#EEE"/><path d="m168.053 48.064-27.038 26.843a2.592 2.592 0 0 0 0 3.686l27.038 26.843a2.639 2.639 0 0 0 3.713 0l27.038-26.843a2.593 2.593 0 0 0 0-3.686l-27.038-26.843a2.639 2.639 0 0 0-3.713 0z" stroke="#A7A7A7" stroke-opacity=".3"/><path d="M169.158 279.068h-3v58h3v-58z" fill="url(#A)"/><path fill-rule="evenodd" clip-rule="evenodd" d="M458.674 232.92c3.497-2.018 9.167-2.018 12.664 0l43.838 25.301a5 5 0 0 1 2.501 4.305l.798 158.794c0 4.037-2.835 8.946-6.332 10.964l-45.452 25.872a5 5 0 0 1-4.973-.015l-43.829-25.296c-3.497-2.018-6.332-6.926-6.332-10.963l.001-158.133a5 5 0 0 1 2.447-4.299l44.669-26.53zm11.397.731 43.838 25.301a5 5 0 0 1 2.501 4.305l.798 158.794-.006.305c-.136 3.168-2.349 6.902-5.059 8.466l-46.493 26.465a2.91 2.91 0 0 1-2.895-.009l-.408-.236-44.458-25.658c-2.71-1.564-4.924-5.299-5.06-8.466l-.006-.305V264.48a5 5 0 0 1 2.447-4.299l44.67-26.53.267-.147c2.812-1.467 7.154-1.417 9.864.147z" fill="url(#B)"/><path fill-rule="evenodd" clip-rule="evenodd" d="m470.071 233.651 43.838 25.301a5 5 0 0 1 2.501 4.305l.798 158.794-.006.305c-.136 3.168-2.349 6.902-5.059 8.466l-46.493 26.465V297.982a1.651 1.651 0 1 0-3.303 0v159.06l-44.458-25.658c-2.71-1.564-4.924-5.299-5.06-8.466l-.006-.305V264.48a5 5 0 0 1 2.447-4.299l44.67-26.53.267-.147c2.812-1.467 7.154-1.417 9.864.147z" fill="#EEE"/><path d="m462.347 457.042.408.236a2.91 2.91 0 0 0 2.895.009V297.982a1.651 1.651 0 1 0-3.303 0v159.06z" fill="#C7C7C7"/><g filter="url(#C)"><path d="m461.327 240.018-37.997 21.969c-2.39 1.383-2.39 3.624 0 5.006l36.78 21.265c2.39 1.382 6.266 1.382 8.657 0l37.996-21.969c2.391-1.382 2.391-3.623 0-5.005l-36.779-21.266c-2.391-1.382-6.267-1.382-8.657 0z" fill="#EEE"/></g><path d="m461.759 240.269-37.996 21.969c-2.151 1.244-2.151 3.261 0 4.505l36.779 21.266c2.152 1.244 5.64 1.244 7.792 0l37.996-21.97c2.151-1.244 2.151-3.261 0-4.505l-36.779-21.265c-2.152-1.244-5.64-1.244-7.792 0z" stroke="#DDD"/><path d="M517.158 360.068h-105v99h105v-99z" fill="url(#D)"/><path d="M465.635 356.068h-3.289v58h3.289v-58z" fill="url(#E)"/><path fill-rule="evenodd" clip-rule="evenodd" d="M458.62 143.878c3.073-1.767 8.056-1.767 11.129 0l38.92 22.376a3.618 3.618 0 0 1 1.817 3.088l.687 51.378c0 3.534-2.492 7.831-5.565 9.598l-40.326 22.866a3.634 3.634 0 0 1-3.605-.011l-38.9-22.363c-3.073-1.768-5.564-6.065-5.564-9.598l.001-50.775c0-1.278.676-2.462 1.778-3.113l39.628-23.446zm10.016.64 38.92 22.377a3.616 3.616 0 0 1 1.817 3.087l.687 51.378-.006.267c-.119 2.773-2.064 6.042-4.446 7.411l-40.326 22.866a3.634 3.634 0 0 1-3.605-.01l-38.9-22.364c-2.381-1.37-4.327-4.639-4.446-7.412l-.005-.267v-50.774a3.62 3.62 0 0 1 1.778-3.114l39.628-23.445.235-.129c2.472-1.284 6.287-1.241 8.669.129z" fill="url(#F)"/><path d="m468.636 144.518 38.92 22.377a3.616 3.616 0 0 1 1.817 3.087l.687 51.378-.006.267c-.119 2.773-2.064 6.042-4.446 7.411l-40.326 22.866a3.634 3.634 0 0 1-3.605-.01l-38.9-22.364c-2.381-1.37-4.327-4.639-4.446-7.412l-.005-.267v-50.774a3.62 3.62 0 0 1 1.778-3.114l39.628-23.445.235-.129c2.472-1.284 6.287-1.241 8.669.129z" fill="#F9F9F9"/><path d="m461.591 149.9-34.714 19.994c-1.562.9-1.562 2.359 0 3.259l33.644 19.377c1.562.9 4.095.9 5.657 0l34.714-19.994c1.562-.899 1.562-2.358 0-3.258L467.248 149.9c-1.562-.899-4.095-.899-5.657 0z" stroke="#DDD"/><path d="M462.601 228.653a1.76 1.76 0 0 1-1.237-.478 1.953 1.953 0 0 1-.627-1.169l-.239-1.753a3.938 3.938 0 0 1-.652-.318 9.315 9.315 0 0 1-.6-.399l-1.651.69a1.738 1.738 0 0 1-1.331.054 1.965 1.965 0 0 1-1.039-.851l-1.251-2.178a1.681 1.681 0 0 1-.213-1.301c.106-.461.346-.842.719-1.142l1.411-1.063a2.498 2.498 0 0 1-.026-.359v-.718c0-.114.008-.234.026-.357l-1.411-1.063a2.012 2.012 0 0 1-.719-1.142 1.684 1.684 0 0 1 .213-1.302l1.251-2.178a1.963 1.963 0 0 1 1.039-.85c.444-.16.887-.142 1.331.053l1.651.69c.195-.141.4-.274.612-.398.214-.124.426-.23.64-.319l.239-1.753c.071-.461.28-.85.627-1.169a1.768 1.768 0 0 1 1.237-.478h2.503c.479 0 .892.16 1.239.478.346.319.555.708.625 1.169l.239 1.753c.231.089.449.195.654.319.204.124.404.257.598.398l1.652-.69a1.733 1.733 0 0 1 1.331-.053c.443.159.789.443 1.038.85l1.251 2.178c.249.407.32.842.214 1.302-.107.46-.346.841-.719 1.142l-1.411 1.063c.017.123.026.243.026.359v.716c0 .115-.018.235-.053.359l1.411 1.063c.373.3.612.681.719 1.142.107.46.035.894-.213 1.301l-1.279 2.178a1.96 1.96 0 0 1-1.037.851 1.74 1.74 0 0 1-1.332-.054l-1.598-.69a7.395 7.395 0 0 1-.612.399c-.213.124-.426.23-.64.318l-.239 1.753a1.95 1.95 0 0 1-.625 1.169 1.765 1.765 0 0 1-1.239.478h-2.503zm1.305-6.906a3.6 3.6 0 0 0 2.636-1.089 3.58 3.58 0 0 0 1.092-2.631 3.578 3.578 0 0 0-1.092-2.629 3.596 3.596 0 0 0-2.636-1.089c-1.047 0-1.931.363-2.65 1.089-.72.726-1.079 1.603-1.078 2.629 0 1.028.36 1.905 1.079 2.631.718.725 1.602 1.089 2.649 1.089z" fill="#389D2D"/><path d="m462.734 90.372-37.852 37.762a3.25 3.25 0 0 0 0 4.607l37.852 37.762a3.271 3.271 0 0 0 4.618 0l37.852-37.762a3.25 3.25 0 0 0 0-4.607l-37.852-37.762a3.27 3.27 0 0 0-4.618 0z" fill="url(#G)" stroke="url(#H)"/><path d="m462.781 95.375-32.837 32.759a3.253 3.253 0 0 0 0 4.607l32.837 32.759a3.27 3.27 0 0 0 4.619 0l32.837-32.759a3.25 3.25 0 0 0 0-4.607L467.4 95.374a3.272 3.272 0 0 0-4.619 0z" stroke="#A7A7A7" stroke-opacity=".3"/><path d="M474.165 137.519c.002.215-.053.495-.111.727-.404 1.626-2.196 3.45-4.717 3.284-2.286-.15-4.148-1.245-4.148-2.78 0-1.535 1.858-2.779 4.148-2.779 2.29 0 4.813.013 4.828 1.548z" fill="#F9F9F9"/><path d="M469.316 136.227c-1.23 0-4.038.339-4.683.339-1.138 0-2.061.713-2.061 1.592 0 .423.217.805.566 1.09 0 0 .764.765 2.141.398.603-.161 1.583-1.354 3.308-1.543.86-.095 2.47.568 5.3.584.121-.261.146-.442.146-.442 0-1.536-2.426-2.018-4.717-2.018z" fill="#A9A9A9"/><path d="M474.038 138.242s1.659-.335 2.691-1.689c1.203-1.579 1.045-3.269 1.045-3.269 1.219-2.274-.38-4.406-.38-4.406-.159-2.401-1.646-3.396-1.646-3.396-.966-2.29-3.103-2.905-3.103-2.905-1.677-1.958-4.654-1.895-4.654-1.895s-2.789-1.02-6.616.126c-.634.19-2.755.632-4.307 1.579-4.89 2.987-5.26 7.644-5.192 8.402.379 4.232 3.356 4.99 5.255 5.432.443 1.2 2.074 3.411 5.002 2.59 3.61-.632 5.13-1.706 6.016-1.706.887 0 3.356.948 5.889 1.137z" fill="#EEE"/><path d="M464.915 131.438c1.769-.951 2.728-.863 3.574-.786.269.024.524.043.782.042 1.507-.034 2.728-.668 3.268-1.281a.383.383 0 0 0 .084-.272.383.383 0 0 0-.396-.347.377.377 0 0 0-.259.118c-.416.473-1.443.995-2.716 1.024-.227.006-.456-.016-.693-.038-.908-.084-2.035-.188-4.005.873-.505.272-1.198.373-1.949.449-1.67-2.404-.665-4.498-.378-4.997.028.002.056.011.084.011.304 0 .61-.074.886-.23a.375.375 0 0 0 .17-.229.375.375 0 0 0-.26-.459.386.386 0 0 0-.283.028 1.086 1.086 0 0 1-1.429-.354.381.381 0 0 0-.515-.1.38.38 0 0 0-.124.509c.18.281.434.492.721.634a5.398 5.398 0 0 0 .282 5.269c-1.006.099-2.013.241-2.802.748a5.436 5.436 0 0 0-1.427 1.357c-.478-.081-2.228-.511-2.534-2.449a1.36 1.36 0 0 0 .439-.58.382.382 0 0 0-.627-.404.399.399 0 0 0-.08.125.57.57 0 0 1-.134.212.57.57 0 0 1-.211.137.588.588 0 0 1-.488-.053.375.375 0 0 0-.289-.033.377.377 0 0 0-.261.468.377.377 0 0 0 .18.228c.216.119.447.18.677.18.028 0 .054-.013.082-.014.362 1.829 1.811 2.632 2.836 2.876-.134.285-.219.59-.251.903a.377.377 0 0 0 .345.411l.034.002a.384.384 0 0 0 .379-.346c.082-.92.96-1.88 1.741-2.384.733-.471 1.805-.57 2.843-.667 1.007-.091 1.958-.179 2.704-.581zm9.776-1.14a.382.382 0 0 0 .151.515.38.38 0 0 0 .516-.151c.015-.026 1.4-2.615-1.194-4.354a.378.378 0 0 0-.526.103.38.38 0 0 0-.059.284c.02.099.078.186.162.242 2.009 1.348.994 3.279.95 3.361zm-15.749-6.12a.387.387 0 0 0 .308-.158c1.102-1.529 2.627-1.006 2.692-.982a.382.382 0 0 0 .476-.229.382.382 0 0 0-.213-.482c-.73-.27-2.415-.355-3.572 1.251a.38.38 0 0 0 .309.6zm9.932-1.432c1.691-.137 2.46 1.086 2.495 1.144a.387.387 0 0 0 .232.175.39.39 0 0 0 .288-.041.375.375 0 0 0 .136-.519c-.041-.069-1.018-1.681-3.21-1.514a.351.351 0 0 0-.142.04.377.377 0 0 0-.075.626.38.38 0 0 0 .276.089zm6.953 11.076c-.187-.01-.392.137-.409.347-.002.013-.123 1.303-1.452 1.739a.375.375 0 0 0-.26.42.378.378 0 0 0 .379.319.395.395 0 0 0 .119-.019c1.802-.59 1.965-2.323 1.971-2.397a.388.388 0 0 0-.089-.276.38.38 0 0 0-.259-.133z" fill="#4C4C4C"/><path d="M457.004 130.135c-.015.048-.02.1-.015.15a.38.38 0 0 0 .748.047 1.083 1.083 0 0 1 1.255-.769.375.375 0 0 0 .286-.054.372.372 0 0 0 .164-.239.388.388 0 0 0 .002-.148.358.358 0 0 0-.056-.137.372.372 0 0 0-.24-.164 1.788 1.788 0 0 0-.948.065c-.886-1.511-.714-3.002-.711-3.018a.38.38 0 0 0-.326-.426.38.38 0 0 0-.427.324c-.01.074-.213 1.756.808 3.498-.26.233-.448.535-.54.871zm8.495-1.873a.813.813 0 0 1 1.105.012.379.379 0 0 0 .644-.278.379.379 0 0 0-.114-.267 1.524 1.524 0 0 0-.606-.352c.225-.77.136-1.112-.073-1.753a23.62 23.62 0 0 1-.12-.377l-.022-.076c-.277-.916-.459-1.52.066-2.373a.373.373 0 0 0 .046-.286.382.382 0 0 0-.458-.281.38.38 0 0 0-.235.17c-.705 1.143-.446 1.999-.146 2.99l.023.076c.044.146.086.277.123.392.188.576.245.77.016 1.467a1.521 1.521 0 0 0-.768.382.378.378 0 0 0 .248.65.38.38 0 0 0 .271-.096zm4.836-2.262c.226 0 .449-.049.653-.145a.378.378 0 1 0-.324-.686.819.819 0 0 1-1.052-.347.382.382 0 0 0-.519-.166.377.377 0 0 0-.187.231.4.4 0 0 0-.012.15.398.398 0 0 0 .049.143c.137.255.34.456.577.595-.408.989-.176 2.04.013 2.597a.379.379 0 0 0 .335.271.386.386 0 0 0 .373-.216.384.384 0 0 0 .012-.297c-.128-.377-.376-1.331-.001-2.142.028.002.055.012.083.012zm3.645 7.147a.37.37 0 0 0-.256-.335.392.392 0 0 0-.148-.019 1.376 1.376 0 0 1-1.008-.339 1.373 1.373 0 0 1-.471-.952.388.388 0 0 0-.405-.352.375.375 0 0 0-.334.257.366.366 0 0 0-.019.147c.031.447.202.85.461 1.179-.61.717-1.41.921-1.856.973-.395.047-.74.007-1.139-.04-.365-.042-.779-.09-1.29-.075l-.004.001c-.015-.217-.067-.533-.231-.796a.38.38 0 0 0-.644.403c.101.163.121.423.121.549a4.9 4.9 0 0 0-1.014.534c-.535.347-.956.622-1.591.479a4.627 4.627 0 0 0-1.638-.089 1.652 1.652 0 0 0-.381-.593.385.385 0 0 0-.272-.104.384.384 0 0 0-.266.119.383.383 0 0 0-.103.271.376.376 0 0 0 .119.265.803.803 0 0 1 .159.24c-.839.344-1.259.92-1.278.948a.379.379 0 0 0 .617.442c.005-.006.421-.563 1.244-.789.426-.116 1.036-.107 1.631.028.166.038.321.051.47.053.071.166.098.362.102.435a.383.383 0 0 0 .379.358l.021-.001c.1-.005.194-.05.262-.124a.381.381 0 0 0 .097-.273 2.254 2.254 0 0 0-.099-.52c.351-.126.656-.324.942-.51.434-.282.846-.55 1.383-.568.45-.015.821.028 1.179.069.36.042.714.069 1.104.047.069.191.064.448.053.533a.387.387 0 0 0 .094.298.376.376 0 0 0 .284.129.374.374 0 0 0 .376-.33 2.16 2.16 0 0 0-.045-.743 3.554 3.554 0 0 0 1.782-1.115c.377.232.816.342 1.258.313a.382.382 0 0 0 .354-.403z" fill="#4C4C4C"/><path d="M510.158 177.162v33.772" stroke="url(#I)"/><path d="M510.127 220.582v-12.406" stroke="url(#J)"/><path d="M510.021 210.013a5.06 5.06 0 0 0 5.066-5.053 5.06 5.06 0 0 0-5.066-5.054 5.06 5.06 0 0 0-5.066 5.054 5.06 5.06 0 0 0 5.066 5.053z" fill="#ACD4A7"/><path d="M510.01 207.992a3.036 3.036 0 0 0 3.04-3.032 3.036 3.036 0 0 0-3.04-3.032 3.035 3.035 0 0 0-3.039 3.032 3.035 3.035 0 0 0 3.039 3.032z" fill="#389D2D"/><path d="M464.021 259.166a5.06 5.06 0 0 0 5.066-5.054 5.06 5.06 0 0 0-5.066-5.053 5.06 5.06 0 0 0-5.066 5.053 5.06 5.06 0 0 0 5.066 5.054z" fill="#ACD4A7"/><path d="M464.01 257.144a3.036 3.036 0 0 0 3.04-3.032 3.036 3.036 0 0 0-3.04-3.032 3.036 3.036 0 0 0-3.039 3.032 3.035 3.035 0 0 0 3.039 3.032z" fill="#389D2D"/><path d="M417.58 175.779v33.773" stroke="url(#K)"/><path d="M417.549 219.209v-12.406" stroke="url(#L)"/><path d="M417.435 210.013a5.06 5.06 0 0 0 5.066-5.053 5.06 5.06 0 0 0-5.066-5.054 5.06 5.06 0 0 0-5.066 5.054 5.06 5.06 0 0 0 5.066 5.053z" fill="#ACD4A7"/><path d="M417.463 207.992a3.036 3.036 0 0 0 3.04-3.032 3.036 3.036 0 0 0-3.04-3.032 3.035 3.035 0 0 0-3.039 3.032 3.035 3.035 0 0 0 3.039 3.032z" fill="#389D2D"/><path fill-rule="evenodd" clip-rule="evenodd" d="m517.233 443.075-10.387-11.749c-10.473 2.081-21.743 3.661-33.49 4.675-24.161 2.086-49.257 1.687-72.125-1.147a268.759 268.759 0 0 1-17.772-2.79l-10.007 12.251c4.583.758 9.294 1.44 14.118 2.042 29.426 3.672 61.743 4.204 92.867 1.528 12.786-1.099 25.135-2.719 36.796-4.81zM61.989 324.646c9.531 7.685 25.584 14.124 46.137 18.505 20.552 4.38 44.684 6.507 69.354 6.111l38.357-1.465a50.187 50.187 0 0 1 6.929.209c2.227.226 4.283.604 6.051 1.111 1.767.507 3.211 1.134 4.25 1.844 1.039.71 1.653 1.491 1.805 2.296.152.806-.16 1.621-.917 2.399-.758.778-1.947 1.504-3.499 2.136-1.552.633-3.437 1.159-5.548 1.549-2.11.39-4.405.636-6.752.725l-38.904 1.489a25.57 25.57 0 0 1-1.073.026c-31.775.555-62.895-2.144-89.422-7.757-26.528-5.613-47.273-13.887-59.61-23.776l32.842-5.402z" fill="#EAEAEA"/><path d="M537.003 423.129c-8.909 3.241-19.088 5.999-30.157 8.197l10.387 11.749c16.725-2.998 32.035-6.964 45.194-11.749 9.422-3.428 17.562-7.211 24.275-11.253l-23.332-10.961c-6.147 5.146-15.073 9.909-26.367 14.017z" fill="#EAEAEA"/></g><defs><linearGradient id="b" x1="278.095" y1="173.889" x2="398.949" y2="173.889" gradientUnits="userSpaceOnUse"><stop stop-color="#737373" stop-opacity=".11"/><stop offset="1" stop-color="#D9D9D9" stop-opacity=".2"/></linearGradient><linearGradient id="t" x1="126.983" y1="132.414" x2="228.24" y2="132.414" gradientUnits="userSpaceOnUse"><stop stop-color="#737373" stop-opacity=".11"/><stop offset="1" stop-color="#D9D9D9" stop-opacity=".2"/></linearGradient><linearGradient id="e" x1="328.635" y1="202.068" x2="328.635" y2="260.068" gradientUnits="userSpaceOnUse"><stop stop-color="#C7C7C7"/><stop offset="1" stop-color="#F1F1F1"/></linearGradient><linearGradient id="f" x1="287.861" y1="91.569" x2="389.972" y2="91.569" gradientUnits="userSpaceOnUse"><stop stop-color="#737373" stop-opacity=".11"/><stop offset="1" stop-color="#D9D9D9" stop-opacity=".2"/></linearGradient><linearGradient id="g" x1="287.869" y1="91.569" x2="389.98" y2="91.569" gradientUnits="userSpaceOnUse"><stop stop-color="#737373" stop-opacity=".11"/><stop offset="1" stop-color="#D9D9D9" stop-opacity=".2"/></linearGradient><linearGradient id="l" x1="314.028" y1="17.974" x2="349.39" y2="53.551" gradientUnits="userSpaceOnUse"><stop/><stop offset="1" stop-color="#666"/></linearGradient><linearGradient id="m" x1="314.028" y1="17.974" x2="349.39" y2="53.551" gradientUnits="userSpaceOnUse"><stop/><stop offset="1" stop-color="#666"/></linearGradient><linearGradient id="p" x1="113.395" y1="216.899" x2="241.086" y2="216.899" gradientUnits="userSpaceOnUse"><stop stop-color="#737373" stop-opacity=".11"/><stop offset="1" stop-color="#D9D9D9" stop-opacity=".2"/></linearGradient><linearGradient id="r" x1="168.158" y1="291.068" x2="168.158" y2="374.068" gradientUnits="userSpaceOnUse"><stop stop-color="#EEE"/><stop offset="1" stop-color="#F9F9F9"/></linearGradient><linearGradient id="s" x1="126.99" y1="132.414" x2="228.247" y2="132.414" gradientUnits="userSpaceOnUse"><stop stop-color="#737373" stop-opacity=".11"/><stop offset="1" stop-color="#D9D9D9" stop-opacity=".2"/></linearGradient><linearGradient id="d" x1="330.231" y1="212.951" x2="330.231" y2="328.069" gradientUnits="userSpaceOnUse"><stop stop-color="#EEE"/><stop offset="1" stop-color="#F9F9F9"/></linearGradient><linearGradient id="y" x1="152.342" y1="59.527" x2="187.367" y2="94.806" gradientUnits="userSpaceOnUse"><stop/><stop offset="1" stop-color="#666"/></linearGradient><linearGradient id="z" x1="152.342" y1="59.527" x2="187.367" y2="94.806" gradientUnits="userSpaceOnUse"><stop/><stop offset="1" stop-color="#666"/></linearGradient><linearGradient id="A" x1="167.658" y1="279.068" x2="167.658" y2="337.068" gradientUnits="userSpaceOnUse"><stop stop-color="#C7C7C7"/><stop offset="1" stop-color="#F1F1F1"/></linearGradient><linearGradient id="B" x1="404.414" y1="295.425" x2="544.797" y2="295.425" gradientUnits="userSpaceOnUse"><stop stop-color="#737373" stop-opacity=".11"/><stop offset="1" stop-color="#D9D9D9" stop-opacity=".2"/></linearGradient><linearGradient id="D" x1="464.658" y1="360.068" x2="464.658" y2="459.068" gradientUnits="userSpaceOnUse"><stop stop-color="#EEE"/><stop offset="1" stop-color="#F9F9F9"/></linearGradient><linearGradient id="E" x1="463.99" y1="356.068" x2="463.99" y2="414.068" gradientUnits="userSpaceOnUse"><stop stop-color="#C7C7C7"/><stop offset="1" stop-color="#F1F1F1"/></linearGradient><linearGradient id="F" x1="410.936" y1="198.596" x2="534.304" y2="198.596" gradientUnits="userSpaceOnUse"><stop stop-color="#737373" stop-opacity=".11"/><stop offset="1" stop-color="#D9D9D9" stop-opacity=".2"/></linearGradient><linearGradient id="G" x1="443.701" y1="109.359" x2="486.583" y2="152.343" gradientUnits="userSpaceOnUse"><stop/><stop offset="1" stop-color="#666"/></linearGradient><linearGradient id="H" x1="443.701" y1="109.359" x2="486.583" y2="152.343" gradientUnits="userSpaceOnUse"><stop/><stop offset="1" stop-color="#666"/></linearGradient><radialGradient id="i" cx="0" cy="0" r="1" gradientUnits="userSpaceOnUse"><stop stop-color="#389D2D" stop-opacity="0"/><stop offset="1" stop-color="#389D2D"/></radialGradient><radialGradient id="j" cx="0" cy="0" r="1" gradientUnits="userSpaceOnUse"><stop stop-color="#389D2D" stop-opacity="0"/><stop offset="1" stop-color="#389D2D"/></radialGradient><radialGradient id="k" cx="0" cy="0" r="1" gradientUnits="userSpaceOnUse"><stop stop-color="#389D2D" stop-opacity="0"/><stop offset="1" stop-color="#389D2D"/></radialGradient><radialGradient id="u" cx="0" cy="0" r="1" gradientUnits="userSpaceOnUse"><stop stop-color="#389D2D" stop-opacity="0"/><stop offset="1" stop-color="#389D2D"/></radialGradient><radialGradient id="L" cx="0" cy="0" r="1" gradientUnits="userSpaceOnUse"><stop stop-color="#389D2D" stop-opacity="0"/><stop offset="1" stop-color="#389D2D"/></radialGradient><radialGradient id="w" cx="0" cy="0" r="1" gradientUnits="userSpaceOnUse"><stop stop-color="#389D2D" stop-opacity="0"/><stop offset="1" stop-color="#389D2D"/></radialGradient><radialGradient id="x" cx="0" cy="0" r="1" gradientUnits="userSpaceOnUse"><stop stop-color="#389D2D" stop-opacity="0"/><stop offset="1" stop-color="#389D2D"/></radialGradient><radialGradient id="h" cx="0" cy="0" r="1" gradientUnits="userSpaceOnUse"><stop stop-color="#389D2D" stop-opacity="0"/><stop offset="1" stop-color="#389D2D"/></radialGradient><radialGradient id="I" cx="0" cy="0" r="1" gradientUnits="userSpaceOnUse"><stop stop-color="#389D2D" stop-opacity="0"/><stop offset="1" stop-color="#389D2D"/></radialGradient><radialGradient id="J" cx="0" cy="0" r="1" gradientUnits="userSpaceOnUse"><stop stop-color="#389D2D" stop-opacity="0"/><stop offset="1" stop-color="#389D2D"/></radialGradient><radialGradient id="K" cx="0" cy="0" r="1" gradientUnits="userSpaceOnUse"><stop stop-color="#389D2D" stop-opacity="0"/><stop offset="1" stop-color="#389D2D"/></radialGradient><radialGradient id="v" cx="0" cy="0" r="1" gradientUnits="userSpaceOnUse"><stop stop-color="#389D2D" stop-opacity="0"/><stop offset="1" stop-color="#389D2D"/></radialGradient><filter id="c" x="284.186" y="120.536" width="92.207" height="60.876" filterUnits="userSpaceOnUse" color-interpolation-filters="sRGB"><feFlood flood-opacity="0" result="BackgroundImageFix"/><feColorMatrix in="SourceAlpha" values="0 0 0 0 0 0 0 0 0 0 0 0 0 0 0 0 0 0 127 0" result="hardAlpha"/><feOffset dy="4"/><feGaussianBlur stdDeviation="4.5"/><feComposite in2="hardAlpha" operator="out"/><feColorMatrix values="0 0 0 0 0.144197 0 0 0 0 0.170861 0 0 0 0 0.141234 0 0 0 0.6 0"/><feBlend in2="BackgroundImageFix" result="effect1_dropShadow_305_99"/><feBlend in="SourceGraphic" in2="effect1_dropShadow_305_99" result="shape"/></filter><filter id="q" x="120.179" y="160.692" width="96.692" height="63.499" filterUnits="userSpaceOnUse" color-interpolation-filters="sRGB"><feFlood flood-opacity="0" result="BackgroundImageFix"/><feColorMatrix in="SourceAlpha" values="0 0 0 0 0 0 0 0 0 0 0 0 0 0 0 0 0 0 127 0" result="hardAlpha"/><feOffset dy="4"/><feGaussianBlur stdDeviation="4.5"/><feComposite in2="hardAlpha" operator="out"/><feColorMatrix values="0 0 0 0 0.144197 0 0 0 0 0.170861 0 0 0 0 0.141234 0 0 0 0.6 0"/><feBlend in2="BackgroundImageFix" result="effect1_dropShadow_305_99"/><feBlend in="SourceGraphic" in2="effect1_dropShadow_305_99" result="shape"/></filter><filter id="o" x="4.542" y="288.953" width="616.244" height="222.612" filterUnits="userSpaceOnUse" color-interpolation-filters="sRGB"><feFlood flood-opacity="0" result="BackgroundImageFix"/><feBlend in="SourceGraphic" in2="BackgroundImageFix" result="shape"/><feGaussianBlur stdDeviation="6" result="effect1_foregroundBlur_305_99"/></filter><filter id="C" x="412.538" y="233.981" width="105.018" height="68.314" filterUnits="userSpaceOnUse" color-interpolation-filters="sRGB"><feFlood flood-opacity="0" result="BackgroundImageFix"/><feColorMatrix in="SourceAlpha" values="0 0 0 0 0 0 0 0 0 0 0 0 0 0 0 0 0 0 127 0" result="hardAlpha"/><feOffset dy="4"/><feGaussianBlur stdDeviation="4.5"/><feComposite in2="hardAlpha" operator="out"/><feColorMatrix values="0 0 0 0 0.144197 0 0 0 0 0.170861 0 0 0 0 0.141234 0 0 0 0.6 0"/><feBlend in2="BackgroundImageFix" result="effect1_dropShadow_305_99"/><feBlend in="SourceGraphic" in2="effect1_dropShadow_305_99" result="shape"/></filter><clipPath id="a"><path fill="#fff" d="M0 0h626v516H0z"/></clipPath></defs></svg>