<svg width="594" height="393" viewBox="0 0 594 393" fill="none" xmlns="http://www.w3.org/2000/svg">
<g clip-path="url(#clip0_311_133)">
<path d="M392.876 132.518C392.848 130.462 391.743 128.573 389.966 127.547L326.265 90.7424C322.37 88.4922 316.131 88.4213 312.09 90.5309L311.707 90.7424L246.848 129.305C245.082 130.354 244 132.259 244 134.316V217.82L244.009 218.259C244.205 222.816 247.385 228.187 251.279 230.438L314.945 267.221C316.732 268.254 318.929 268.26 320.72 267.239L386.721 229.63C390.615 227.379 393.795 222.008 393.991 217.45L394 217.012L392.876 132.518Z" fill="#F9F9F9"/>
<path fill-rule="evenodd" clip-rule="evenodd" d="M309.597 90.4148C314.613 87.5284 322.748 87.5284 327.765 90.4148L391.303 126.969C393.115 128.011 394.241 129.929 394.269 132.014L395.39 215.944C395.39 221.716 391.323 228.736 386.305 231.623L320.473 268.978C318.646 270.014 316.407 270.007 314.587 268.959L251.084 232.427C246.067 229.539 242 222.52 242 216.748L242.002 133.802C242.002 131.715 243.106 129.78 244.904 128.716L309.597 90.4148ZM325.949 91.46L389.487 128.014C391.297 129.057 392.423 130.973 392.453 133.059L393.573 216.989L393.564 217.425C393.37 221.955 390.194 227.296 386.305 229.532L320.473 266.887C318.646 267.924 316.407 267.917 314.587 266.87L251.084 230.335C247.196 228.098 244.02 222.759 243.826 218.229L243.817 217.792V134.848C243.817 132.759 244.921 130.826 246.719 129.76L311.414 91.46L311.796 91.2498C315.831 89.1527 322.06 89.223 325.949 91.46Z" fill="black" fill-opacity="0.2"/>
<path d="M142.123 160.999H10.8767C5.42193 160.999 1 162.698 1 164.793V215.206C1 217.301 5.42193 218.999 10.8767 218.999H142.123C147.578 218.999 152 217.301 152 215.206V164.793C152 162.698 147.578 160.999 142.123 160.999Z" fill="#EEEEEE"/>
<path d="M100.067 263.984H7.93328C4.10414 263.984 1 265.682 1 267.777V318.19C1 320.285 4.10414 321.984 7.93328 321.984H100.067C103.896 321.984 107 320.285 107 318.19V267.777C107 265.682 103.896 263.984 100.067 263.984Z" stroke="#A7A7A7" stroke-dasharray="12 12"/>
<path d="M159.067 54.9847H66.9333C63.1041 54.9847 60 56.6832 60 58.7784V109.191C60 111.286 63.1041 112.985 66.9333 112.985H159.067C162.896 112.985 166 111.286 166 109.191V58.7784C166 56.6832 162.896 54.9847 159.067 54.9847Z" stroke="#A7A7A7" stroke-dasharray="12 12"/>
<path d="M583.375 91.7838H512.759C509.824 91.7838 507.445 89.4087 507.445 86.4789V15.9847C507.445 13.0549 509.824 10.6798 512.759 10.6798H583.375C586.31 10.6798 588.689 13.0549 588.689 15.9847V86.4789C588.689 89.4087 586.31 91.7838 583.375 91.7838Z" fill="#EEEEEE"/>
<path d="M587.584 180.961H468.314C465.379 180.961 463 178.586 463 175.656V140.29C463 137.36 465.379 134.985 468.314 134.985H587.584C590.519 134.985 592.898 137.36 592.898 140.29V175.656C592.898 178.586 590.519 180.961 587.584 180.961Z" stroke="#A7A7A7" stroke-dasharray="12 12"/>
<path d="M587.584 242.985H468.314C465.379 242.985 463 240.61 463 237.68V202.314C463 199.385 465.379 197.01 468.314 197.01H587.584C590.519 197.01 592.898 199.385 592.898 202.314V237.68C592.898 240.61 590.519 242.985 587.584 242.985Z" stroke="#A7A7A7" stroke-dasharray="12 12"/>
<path d="M587.584 304.985H468.314C465.379 304.985 463 302.61 463 299.68V264.314C463 261.385 465.379 259.009 468.314 259.009H587.584C590.519 259.009 592.898 261.385 592.898 264.314V299.68C592.898 302.61 590.519 304.985 587.584 304.985Z" stroke="#A7A7A7" stroke-dasharray="12 12"/>
<path d="M473.621 43.8737H435.429C434.124 43.8737 433.067 44.9293 433.067 46.2314V189.795H402.266" stroke="#A7A7A7"/>
<path d="M200.914 189.796H233.012" stroke="#A7A7A7"/>
<path d="M314.687 100.488L258.204 133.043C255.662 134.508 255.662 136.883 258.204 138.348L312.946 169.899C315.488 171.364 319.609 171.364 322.15 169.899L378.633 137.345C381.175 135.88 381.175 133.505 378.633 132.04L323.891 100.488C321.349 99.0236 317.228 99.0236 314.687 100.488Z" stroke="#DDDDDD"/>
<path fill-rule="evenodd" clip-rule="evenodd" d="M309.834 90.6821C314.834 87.8052 322.942 87.8052 327.942 90.6821L391.27 127.116C393.076 128.154 394.199 130.065 394.226 132.143L395.344 215.797C395.344 221.549 391.29 228.546 386.289 231.424L320.674 268.654C318.854 269.687 316.622 269.68 314.808 268.637L251.515 232.224C246.515 229.346 242.461 222.35 242.461 216.597L242.463 133.926C242.463 131.845 243.563 129.918 245.355 128.857L309.834 90.6821ZM326.132 91.7238L389.46 128.158C391.264 129.196 392.387 131.106 392.416 133.185L393.533 216.838L393.524 217.273C393.33 221.788 390.165 227.11 386.289 229.339L320.674 266.57C318.854 267.604 316.622 267.597 314.808 266.554L251.515 230.14C247.64 227.911 244.474 222.588 244.281 218.073L244.272 217.638V134.968C244.272 132.886 245.372 130.96 247.164 129.898L311.645 91.7238L312.026 91.5144C316.048 89.4241 322.256 89.4943 326.132 91.7238Z" fill="url(#paint0_linear_311_133)"/>
<path d="M322.167 190.986C323.625 190.986 325.024 191.566 326.056 192.598C327.087 193.629 327.667 195.028 327.667 196.486V198.32H329.5C330.959 198.32 332.358 198.9 333.389 199.93C334.421 200.963 335 202.36 335 203.82V218.486C335 219.944 334.421 221.344 333.389 222.374C332.358 223.407 330.959 223.986 329.5 223.986H307.5C306.041 223.986 304.642 223.407 303.611 222.374C302.579 221.344 302 219.944 302 218.486V203.82C302 202.36 302.579 200.963 303.611 199.93C304.642 198.9 306.041 198.32 307.5 198.32H309.333V196.486C309.333 195.028 309.913 193.629 310.944 192.598C311.976 191.566 313.375 190.986 314.833 190.986H322.167ZM314.833 194.654C314.347 194.654 313.881 194.847 313.537 195.19C313.193 195.535 313 196 313 196.486V198.32H324V196.486C324 196 323.807 195.535 323.463 195.19C323.119 194.847 322.653 194.654 322.167 194.654H314.833Z" fill="#389D2D"/>
<path d="M316.347 3.75157L254.758 65.2351C252.682 67.3068 252.682 70.6656 254.758 72.7373L316.347 134.221C318.422 136.293 321.787 136.293 323.862 134.221L385.452 72.7373C387.527 70.6656 387.527 67.3068 385.452 65.2351L323.862 3.75156C321.787 1.67988 318.422 1.67988 316.347 3.75157Z" fill="url(#paint1_linear_311_133)" stroke="url(#paint2_linear_311_133)"/>
<mask id="mask0_311_133" style="mask-type:luminance" maskUnits="userSpaceOnUse" x="301" y="49" width="38" height="39">
<path d="M339 49.9862H301V87.9862H339V49.9862Z" fill="white"/>
</mask>
<g mask="url(#mask0_311_133)">
<path d="M312.06 50.0386C311.86 50.1202 303.77 56.6589 303.718 56.7776C303.696 56.8444 303.674 57.2452 303.674 57.6682V58.4401L303.273 58.7222C302.568 59.2194 302.635 57.8983 302.635 71.0128C302.635 81.9675 302.642 82.6354 302.761 82.7764C302.924 82.962 311.942 87.9124 312.209 87.9569C312.313 87.9718 317.849 86.6061 324.715 84.8768C335.944 82.0343 337.05 81.7374 337.206 81.5667L337.369 81.3737V71.1389V60.9042L337.206 60.7186C337.065 60.5628 336.359 60.303 333.509 59.3679C330.281 58.3139 329.962 58.2175 329.724 58.2917C329.583 58.3362 328.529 58.7518 327.386 59.2194L325.308 60.0729L325.271 58.455C325.242 57.2526 325.212 56.8073 325.138 56.7182C325.078 56.6514 324.752 56.503 324.41 56.3917L323.787 56.1913V55.4268C323.787 54.6772 323.69 54.2319 323.497 54.1132C323.319 54.0018 312.394 49.9866 312.29 49.994C312.224 49.994 312.12 50.0163 312.06 50.0386ZM315.697 56.2581C316.781 56.5698 317.753 56.8593 317.872 56.9038L318.072 56.978V59.3159C318.072 61.4237 318.057 61.6464 317.946 61.6909C317.835 61.7354 314.257 61.0526 313.715 60.8893L313.47 60.8077V58.3065C313.47 56.9261 313.493 55.7757 313.522 55.7534C313.604 55.6643 313.671 55.6866 315.697 56.2581ZM310.984 58.737V61.2159L309.648 61.8022C308.913 62.1214 308.245 62.3737 308.164 62.3663C308.023 62.344 308.015 62.2772 308.001 60.1917C307.986 59.0042 308.001 58.0022 308.038 57.9577C308.134 57.8093 310.761 56.221 310.873 56.2358C310.969 56.2581 310.984 56.5921 310.984 58.737ZM321.931 58.0542C322.607 58.2397 323.201 58.4327 323.252 58.4698C323.319 58.5218 323.342 59.0487 323.342 60.637C323.342 62.4405 323.327 62.7448 323.23 62.7819C323.097 62.8339 319.779 62.1733 319.653 62.0694C319.527 61.9655 319.512 57.6311 319.638 57.505C319.697 57.4456 319.853 57.4604 320.217 57.5643C320.484 57.646 321.256 57.8612 321.931 58.0542ZM306.234 59.353C306.256 59.4495 306.264 60.3772 306.256 61.4163L306.234 63.3089L305.254 63.7468C304.431 64.1179 304.252 64.1698 304.156 64.0882C304.06 64.0065 304.045 63.7319 304.045 62.2253C304.045 60.6222 304.06 60.4366 304.178 60.3401C304.46 60.1026 305.945 59.2046 306.063 59.1972C306.138 59.1897 306.212 59.2565 306.234 59.353ZM331.869 60.9042C332.3 61.0229 332.812 61.1788 333.012 61.2382L333.361 61.3569V63.0565C333.361 64.5929 333.346 64.7636 333.235 64.8081C333.168 64.8378 332.626 64.7636 332.04 64.6448C331.253 64.4889 330.956 64.3999 330.904 64.3034C330.808 64.1253 330.815 61.0007 330.912 60.8151C330.956 60.7409 331.008 60.6741 331.031 60.6741C331.053 60.6741 331.431 60.778 331.869 60.9042ZM335.254 61.8839L336.07 62.1214L336.092 63.7393C336.107 65.0679 336.092 65.3573 336.003 65.3944C335.907 65.4315 334.155 65.0901 334.022 65.0085C333.94 64.9639 333.933 61.6909 334.007 61.6093C334.074 61.5499 334.229 61.5796 335.254 61.8839ZM315.89 63.2346C317.018 63.4202 317.968 63.5909 318.005 63.6132C318.042 63.6354 318.072 64.6819 318.072 65.9882C318.072 68.0069 318.057 68.3261 317.961 68.3632C317.79 68.43 313.671 68.0886 313.567 68.0069C313.493 67.9475 313.47 67.3464 313.47 65.4612C313.47 64.1104 313.493 62.9749 313.522 62.9526C313.604 62.871 313.752 62.8858 315.89 63.2346ZM311.021 65.6839V68.1702L310.858 68.2073C310.761 68.2296 310.123 68.3483 309.426 68.4671C308.527 68.6155 308.142 68.66 308.075 68.6007C308.001 68.5413 307.978 68.0218 307.978 66.3815C307.978 64.3554 307.986 64.2366 308.119 64.1475C308.357 63.9991 310.598 63.2124 310.821 63.205L311.021 63.1975V65.6839ZM321.449 64.1327C322.392 64.2811 323.201 64.437 323.252 64.4815C323.386 64.5854 323.386 68.6378 323.245 68.7491C323.178 68.8085 322.666 68.7936 321.427 68.6897C320.477 68.6155 319.675 68.5264 319.631 68.5042C319.549 68.4522 319.527 63.9991 319.608 63.9175C319.675 63.8507 319.549 63.8358 321.449 64.1327ZM306.182 64.9194C306.316 65.053 306.308 68.8604 306.182 68.9718C306.011 69.0979 304.252 69.3651 304.141 69.2686C304.067 69.2093 304.045 68.7936 304.045 67.4354C304.045 66.4706 304.074 65.6468 304.104 65.5948C304.149 65.528 305.841 64.8675 306.056 64.8378C306.078 64.8304 306.13 64.8675 306.182 64.9194ZM332.174 65.8768C332.723 65.9659 333.22 66.0698 333.272 66.1143C333.339 66.1663 333.361 66.6042 333.361 67.8362C333.361 69.0682 333.339 69.5061 333.272 69.5581C333.124 69.6694 330.986 69.4764 330.904 69.3503C330.83 69.2315 330.815 66.0253 330.882 65.8397C330.942 65.6839 330.986 65.6913 332.174 65.8768ZM335.105 66.3518C335.476 66.4186 335.847 66.4854 335.944 66.5003L336.107 66.5374V68.185V69.8253L335.142 69.7733C334.608 69.7436 334.126 69.7065 334.066 69.6843C333.97 69.6471 333.955 69.3725 333.955 67.9401V66.2405H334.2C334.326 66.2405 334.742 66.2925 335.105 66.3518ZM317.983 70.2706C318.05 70.3151 318.072 70.8792 318.072 72.6604C318.072 74.6866 318.057 74.9909 317.961 75.028C317.783 75.0948 313.738 75.2581 313.597 75.1987C313.478 75.1542 313.47 74.9389 313.47 72.6679C313.47 70.5971 313.485 70.1741 313.574 70.1222C313.708 70.0479 317.849 70.1889 317.983 70.2706ZM310.902 70.1444C311.006 70.1815 311.021 70.471 311.021 72.6307C311.021 74.8276 311.006 75.08 310.902 75.1245C310.732 75.1913 308.186 74.9315 308.075 74.835C307.934 74.7237 307.934 70.5081 308.075 70.419C308.119 70.3893 308.75 70.3077 309.463 70.2409C310.175 70.1741 310.769 70.1147 310.776 70.1073C310.784 70.1073 310.836 70.1221 310.902 70.1444ZM323.252 70.4858C323.319 70.5452 323.342 71.0647 323.342 72.6233C323.342 74.1819 323.319 74.7014 323.252 74.7608C323.149 74.835 319.838 75.0132 319.66 74.9464C319.571 74.9167 319.556 74.5456 319.556 72.6679C319.556 71.4284 319.579 70.3968 319.616 70.3671C319.69 70.278 323.141 70.3968 323.252 70.4858ZM327.409 70.5749C329.153 70.6491 329.992 70.7085 330.058 70.7679C330.214 70.9014 330.222 82.8729 330.073 83.0288C329.932 83.1624 324.744 84.4686 324.581 84.4018C324.462 84.3573 324.455 83.9417 324.455 77.4995C324.455 70.4042 324.455 70.471 324.752 70.471C324.811 70.471 326.006 70.5229 327.409 70.5749ZM306.227 70.6639C306.293 70.8421 306.279 74.5011 306.204 74.6198C306.152 74.7014 305.982 74.7014 305.188 74.6272C304.661 74.5753 304.186 74.5011 304.141 74.4639C304.03 74.3749 304 70.946 304.111 70.7753C304.178 70.6788 304.92 70.5749 305.759 70.5526C306.086 70.5452 306.19 70.5749 306.227 70.6639ZM333.272 70.8569C333.339 70.9163 333.361 71.3542 333.361 72.5862C333.361 73.8182 333.339 74.2561 333.272 74.3081C333.22 74.3526 332.686 74.4046 332.084 74.4343C331.053 74.4788 330.993 74.4788 330.919 74.3378C330.793 74.1077 330.808 70.9534 330.934 70.8272C331.016 70.753 331.283 70.7307 332.107 70.753C332.693 70.7679 333.22 70.8198 333.272 70.8569ZM336.055 70.9831C336.085 71.0128 336.1 71.755 336.092 72.6307L336.07 74.219L335.127 74.2858C334.615 74.3229 334.14 74.3304 334.074 74.3081C333.97 74.2636 333.955 74.0483 333.955 72.6011C333.955 71.6882 333.977 70.9163 334.014 70.8792C334.081 70.8124 335.974 70.9014 336.055 70.9831ZM335.988 75.3397C336.092 75.3768 336.107 75.5995 336.107 77.0096C336.107 78.635 336.107 78.635 335.944 78.6721C335.469 78.7761 334.118 78.9764 334.044 78.9468C333.977 78.9245 333.955 78.4718 333.955 77.2175C333.955 76.2823 333.962 75.5104 333.977 75.5104C333.984 75.503 334.408 75.4585 334.92 75.4065C335.432 75.3546 335.855 75.31 335.862 75.3026C335.87 75.3026 335.922 75.3175 335.988 75.3397ZM333.346 77.3511L333.361 79.0804L333.198 79.1175C333.101 79.1397 332.582 79.2362 332.033 79.3253C331.186 79.4737 331.031 79.4886 330.942 79.3995C330.793 79.2436 330.786 75.9483 330.942 75.8221C331.06 75.7257 332.159 75.6069 332.842 75.6218L333.324 75.6292L333.346 77.3511ZM305.284 76.0448C305.722 76.1264 306.13 76.2304 306.182 76.2749C306.249 76.3343 306.271 77.1804 306.256 80.2233C306.234 83.86 306.227 84.0901 306.101 84.1124C305.967 84.1421 304.193 83.2143 304.104 83.0585C304.03 82.9546 304.03 76.0077 304.097 75.9409C304.178 75.8593 304.438 75.8815 305.284 76.0448ZM323.252 76.4975C323.386 76.6311 323.379 80.6612 323.252 80.7725C323.126 80.869 319.824 81.4108 319.675 81.3589C319.571 81.3143 319.556 81.0471 319.556 79.0507V76.7796L319.727 76.7425C319.853 76.7128 322.139 76.4901 323.052 76.4159C323.111 76.4159 323.201 76.4456 323.252 76.4975ZM309.76 76.8761L310.984 77.1136L311.006 81.9155C311.021 85.9901 311.006 86.7175 310.917 86.7471C310.806 86.7917 308.134 85.3667 308.038 85.2182C307.971 85.1069 307.956 76.7499 308.03 76.6831C308.119 76.594 308.52 76.6386 309.76 76.8761ZM318.072 79.2956C318.072 81.0397 318.05 81.6038 317.983 81.6632C317.857 81.7596 313.723 82.4499 313.582 82.3905C313.485 82.3534 313.47 81.9749 313.47 79.8745C313.47 77.9745 313.493 77.3733 313.567 77.3139C313.693 77.21 317.775 76.8612 317.946 76.9429C318.065 77.0022 318.072 77.1878 318.072 79.2956Z" fill="#EEEEEE"/>
<path d="M325.361 71.3769C325.22 71.5179 325.235 82.0718 325.369 82.1906C325.502 82.2945 329.042 83.096 329.28 83.0738L329.465 83.0515L329.48 77.3738C329.495 74.2492 329.473 71.6515 329.443 71.5995C329.399 71.5328 328.835 71.4734 327.491 71.3992C326.452 71.3398 325.569 71.2878 325.532 71.2878C325.487 71.2878 325.413 71.3249 325.361 71.3769Z" fill="#EEEEEE"/>
</g>
<path d="M316.602 11.7175L263.172 65.0554C261.096 67.1271 261.096 70.4859 263.172 72.5576L316.602 125.896C318.677 127.967 322.041 127.967 324.117 125.896L377.547 72.5576C379.622 70.486 379.622 67.1271 377.547 65.0554L324.117 11.7175C322.041 9.64579 318.677 9.64578 316.602 11.7175Z" stroke="#A7A7A7" stroke-opacity="0.3"/>
<path d="M393.469 198.362C398.021 198.362 401.712 194.678 401.712 190.134C401.712 185.589 398.021 181.905 393.469 181.905C388.917 181.905 385.227 185.589 385.227 190.134C385.227 194.678 388.917 198.362 393.469 198.362Z" fill="#ACD4A7"/>
<path d="M393.469 195.072C396.2 195.072 398.414 192.862 398.414 190.135C398.414 187.409 396.2 185.198 393.469 185.198C390.738 185.198 388.523 187.409 388.523 190.135C388.523 192.862 390.738 195.072 393.469 195.072Z" fill="#389D2D"/>
<path d="M318.621 278.391C323.174 278.391 326.864 274.707 326.864 270.163C326.864 265.618 323.174 261.935 318.621 261.935C314.069 261.935 310.379 265.618 310.379 270.163C310.379 274.707 314.069 278.391 318.621 278.391Z" fill="#ACD4A7"/>
<path d="M318.621 275.1C321.353 275.1 323.567 272.889 323.567 270.163C323.567 267.436 321.353 265.226 318.621 265.226C315.89 265.226 313.676 267.436 313.676 270.163C313.676 272.889 315.89 275.1 318.621 275.1Z" fill="#389D2D"/>
<path d="M242.84 198.361C247.392 198.361 251.083 194.677 251.083 190.133C251.083 185.588 247.392 181.904 242.84 181.904C238.288 181.904 234.598 185.588 234.598 190.133C234.598 194.677 238.288 198.361 242.84 198.361Z" fill="#ACD4A7"/>
<path d="M242.84 195.07C245.571 195.07 247.785 192.86 247.785 190.133C247.785 187.407 245.571 185.196 242.84 185.196C240.109 185.196 237.895 187.407 237.895 190.133C237.895 192.86 240.109 195.07 242.84 195.07Z" fill="#389D2D"/>
<path d="M485.559 43.8734L479.655 47.2765V40.4703L485.559 43.8734ZM447.115 43.8734C447.115 45.6096 445.705 47.017 443.966 47.017C442.226 47.017 440.816 45.6096 440.816 43.8734C440.816 42.1372 442.226 40.7298 443.966 40.7298C445.705 40.7298 447.115 42.1372 447.115 43.8734ZM480.245 43.8734V44.4628H443.966V43.8734V43.2839H480.245V43.8734Z" fill="url(#paint7_linear_311_133)"/>
<path d="M157.75 189.76L163.654 193.163V186.356L157.75 189.76ZM196.194 189.76C196.194 191.496 197.604 192.904 199.343 192.904C201.083 192.904 202.492 191.496 202.492 189.76C202.492 188.023 201.083 186.616 199.343 186.616C197.604 186.616 196.194 188.023 196.194 189.76ZM163.064 189.76V190.349H199.343V189.76V189.17H163.064V189.76Z" fill="url(#paint8_linear_311_133)"/>
<path d="M44.4034 252.725L47.8068 246.821H41L44.4034 252.725ZM44.4034 234.281C46.1398 234.281 47.5474 232.871 47.5474 231.132C47.5474 229.392 46.1398 227.983 44.4034 227.983C42.6669 227.983 41.2594 229.392 41.2594 231.132C41.2594 232.871 42.6669 234.281 44.4034 234.281ZM44.4034 247.411H44.9928V231.132H44.4034H43.8139V247.411H44.4034Z" fill="url(#paint9_linear_311_133)"/>
<path d="M143.742 289.387L137.838 292.791V285.984L143.742 289.387ZM125.298 289.387C125.298 291.124 123.888 292.531 122.149 292.531C120.409 292.531 119.001 291.124 119.001 289.387C119.001 287.651 120.409 286.243 122.149 286.243C123.888 286.243 125.298 287.651 125.298 289.387ZM138.428 289.387V289.977H122.149V289.387V288.798H138.428V289.387Z" fill="url(#paint10_linear_311_133)"/>
<path d="M113.403 124.985L116.807 130.889H110L113.403 124.985ZM113.403 143.429C115.14 143.429 116.547 144.839 116.547 146.578C116.547 148.318 115.14 149.726 113.403 149.726C111.667 149.726 110.259 148.318 110.259 146.578C110.259 144.839 111.667 143.429 113.403 143.429ZM113.403 130.299H113.993V146.578H113.403H112.814V130.299H113.403Z" fill="url(#paint11_linear_311_133)"/>
<path d="M551.403 125.726L554.807 119.822H548L551.403 125.726ZM551.403 107.282C553.14 107.282 554.547 105.872 554.547 104.133C554.547 102.393 553.14 100.985 551.403 100.985C549.667 100.985 548.259 102.393 548.259 104.133C548.259 105.872 549.667 107.282 551.403 107.282ZM551.403 120.412H551.993V104.133H551.403H550.814V120.412H551.403Z" fill="url(#paint12_linear_311_133)"/>
<path d="M226 384.442L231.904 387.845V381.04L226 384.442ZM283.554 384.442C283.554 386.178 284.964 387.586 286.704 387.586C288.443 387.586 289.852 386.178 289.852 384.442C289.852 382.707 288.443 381.299 286.704 381.299C284.964 381.299 283.554 382.707 283.554 384.442ZM231.314 384.442V385.031H286.704V384.442V383.852H231.314V384.442Z" fill="url(#paint13_linear_311_133)"/>
<path d="M319 271.985V384.485H288.5" stroke="#A7A7A7"/>
<path d="M200.86 268.984H159.14C157.406 268.984 156 270.389 156 272.123V313.844C156 315.578 157.406 316.984 159.14 316.984H200.86C202.594 316.984 204 315.578 204 313.844V272.123C204 270.389 202.594 268.984 200.86 268.984Z" stroke="#A7A7A7" stroke-dasharray="12 12"/>
</g>
<defs>
<linearGradient id="paint0_linear_311_133" x1="232.247" y1="179.774" x2="432.982" y2="179.774" gradientUnits="userSpaceOnUse">
<stop stop-color="#737373" stop-opacity="0.11"/>
<stop offset="1" stop-color="#D9D9D9" stop-opacity="0.2"/>
</linearGradient>
<linearGradient id="paint1_linear_311_133" x1="285.379" y1="34.666" x2="355.199" y2="104.606" gradientUnits="userSpaceOnUse">
<stop/>
<stop offset="1" stop-color="#666666"/>
</linearGradient>
<linearGradient id="paint2_linear_311_133" x1="285.379" y1="34.666" x2="355.199" y2="104.606" gradientUnits="userSpaceOnUse">
<stop/>
<stop offset="1" stop-color="#666666"/>
</linearGradient>
<radialGradient id="paint3_radial_311_133" cx="0" cy="0" r="1" gradientUnits="userSpaceOnUse" gradientTransform="translate(nan nan) rotate(nan) scale(nan nan)">
<stop stop-color="#389D2D" stop-opacity="0"/>
<stop offset="1" stop-color="#389D2D"/>
</radialGradient>
<radialGradient id="paint4_radial_311_133" cx="0" cy="0" r="1" gradientUnits="userSpaceOnUse" gradientTransform="translate(nan nan) rotate(nan) scale(nan nan)">
<stop stop-color="#389D2D" stop-opacity="0"/>
<stop offset="1" stop-color="#389D2D"/>
</radialGradient>
<radialGradient id="paint5_radial_311_133" cx="0" cy="0" r="1" gradientUnits="userSpaceOnUse" gradientTransform="translate(nan nan) rotate(nan) scale(nan nan)">
<stop stop-color="#389D2D" stop-opacity="0"/>
<stop offset="1" stop-color="#389D2D"/>
</radialGradient>
<radialGradient id="paint6_radial_311_133" cx="0" cy="0" r="1" gradientUnits="userSpaceOnUse" gradientTransform="translate(nan nan) rotate(nan) scale(nan nan)">
<stop stop-color="#389D2D" stop-opacity="0"/>
<stop offset="1" stop-color="#389D2D"/>
</radialGradient>
<linearGradient id="paint7_linear_311_133" x1="485.559" y1="44.4628" x2="443.966" y2="44.4628" gradientUnits="userSpaceOnUse">
<stop stop-color="#4C4C4C"/>
<stop offset="1" stop-color="#878787"/>
</linearGradient>
<linearGradient id="paint8_linear_311_133" x1="157.75" y1="190.349" x2="199.343" y2="190.349" gradientUnits="userSpaceOnUse">
<stop stop-color="#4C4C4C"/>
<stop offset="1" stop-color="#878787"/>
</linearGradient>
<linearGradient id="paint9_linear_311_133" x1="44.9928" y1="272.725" x2="44.9928" y2="231.132" gradientUnits="userSpaceOnUse">
<stop stop-color="#4C4C4C"/>
<stop offset="1" stop-color="#878787"/>
</linearGradient>
<linearGradient id="paint10_linear_311_133" x1="163.742" y1="289.977" x2="122.149" y2="289.977" gradientUnits="userSpaceOnUse">
<stop stop-color="#4C4C4C"/>
<stop offset="1" stop-color="#878787"/>
</linearGradient>
<linearGradient id="paint11_linear_311_133" x1="113.993" y1="104.985" x2="113.993" y2="146.578" gradientUnits="userSpaceOnUse">
<stop stop-color="#4C4C4C"/>
<stop offset="1" stop-color="#878787"/>
</linearGradient>
<linearGradient id="paint12_linear_311_133" x1="551.993" y1="145.726" x2="551.993" y2="104.133" gradientUnits="userSpaceOnUse">
<stop stop-color="#4C4C4C"/>
<stop offset="1" stop-color="#878787"/>
</linearGradient>
<linearGradient id="paint13_linear_311_133" x1="226" y1="385.031" x2="286.704" y2="385.031" gradientUnits="userSpaceOnUse">
<stop stop-color="#4C4C4C"/>
<stop offset="1" stop-color="#878787"/>
</linearGradient>
<clipPath id="clip0_311_133">
<rect width="594" height="393" fill="white"/>
</clipPath>
</defs>
</svg>
