<svg width="594" height="393" fill="none" xmlns="http://www.w3.org/2000/svg"><g clip-path="url(#a)"><path d="M392.876 132.518a5.83 5.83 0 0 0-2.91-4.971l-63.701-36.805c-3.895-2.25-10.134-2.32-14.175-.211l-.383.211-64.859 38.563a5.827 5.827 0 0 0-2.848 5.011v83.504l.009.439c.196 4.557 3.376 9.928 7.27 12.179l63.666 36.783a5.797 5.797 0 0 0 5.775.018l66.001-37.609c3.894-2.251 7.074-7.622 7.27-12.18l.009-.438-1.124-84.494z" fill="#F9F9F9"/><path fill-rule="evenodd" clip-rule="evenodd" d="M309.597 90.415c5.016-2.887 13.151-2.887 18.168 0l63.538 36.554a5.912 5.912 0 0 1 2.966 5.045l1.121 83.93c0 5.772-4.067 12.792-9.085 15.679l-65.832 37.355a5.932 5.932 0 0 1-5.886-.019l-63.503-36.532c-5.017-2.888-9.084-9.907-9.084-15.679l.002-82.946a5.913 5.913 0 0 1 2.902-5.086l64.693-38.301zm16.352 1.045 63.538 36.554a5.92 5.92 0 0 1 2.966 5.045l1.12 83.93-.009.436c-.194 4.53-3.37 9.871-7.259 12.107l-65.832 37.355a5.932 5.932 0 0 1-5.886-.017l-63.503-36.535c-3.888-2.237-7.064-7.576-7.258-12.106l-.009-.437v-82.944a5.916 5.916 0 0 1 2.902-5.088l64.695-38.3.382-.21c4.035-2.097 10.264-2.027 14.153.21z" fill="#000" fill-opacity=".2"/><path d="M142.123 160.999H10.877c-5.455 0-9.877 1.699-9.877 3.794v50.413c0 2.095 4.422 3.793 9.877 3.793h131.246c5.455 0 9.877-1.698 9.877-3.793v-50.413c0-2.095-4.422-3.794-9.877-3.794z" fill="#EEE"/><path d="M100.067 263.984H7.933c-3.829 0-6.933 1.698-6.933 3.793v50.413c0 2.095 3.104 3.794 6.933 3.794h92.134c3.829 0 6.933-1.699 6.933-3.794v-50.413c0-2.095-3.104-3.793-6.933-3.793zM159.067 54.985H66.933c-3.829 0-6.933 1.698-6.933 3.793v50.413c0 2.095 3.104 3.794 6.933 3.794h92.134c3.829 0 6.933-1.699 6.933-3.794V58.778c0-2.095-3.104-3.793-6.933-3.793z" stroke="#A7A7A7" stroke-dasharray="12 12"/><path d="M583.375 91.784h-70.616a5.31 5.31 0 0 1-5.314-5.305V15.985a5.31 5.31 0 0 1 5.314-5.305h70.616a5.31 5.31 0 0 1 5.314 5.305v70.494a5.31 5.31 0 0 1-5.314 5.305z" fill="#EEE"/><path d="M587.584 180.961h-119.27a5.31 5.31 0 0 1-5.314-5.305V140.29a5.31 5.31 0 0 1 5.314-5.305h119.27a5.31 5.31 0 0 1 5.314 5.305v35.366a5.31 5.31 0 0 1-5.314 5.305zM587.584 242.985h-119.27A5.31 5.31 0 0 1 463 237.68v-35.366a5.31 5.31 0 0 1 5.314-5.304h119.27a5.31 5.31 0 0 1 5.314 5.304v35.366a5.31 5.31 0 0 1-5.314 5.305zM587.584 304.985h-119.27A5.31 5.31 0 0 1 463 299.68v-35.366a5.31 5.31 0 0 1 5.314-5.305h119.27a5.31 5.31 0 0 1 5.314 5.305v35.366a5.31 5.31 0 0 1-5.314 5.305z" stroke="#A7A7A7" stroke-dasharray="12 12"/><path d="M473.621 43.874h-38.192a2.36 2.36 0 0 0-2.362 2.357v143.564h-30.801M200.914 189.796h32.098" stroke="#A7A7A7"/><path d="m314.687 100.488-56.483 32.555c-2.542 1.465-2.542 3.84 0 5.305l54.742 31.551c2.542 1.465 6.663 1.465 9.204 0l56.483-32.554c2.542-1.465 2.542-3.84 0-5.305l-54.742-31.552c-2.542-1.464-6.663-1.464-9.204 0z" stroke="#DDD"/><path fill-rule="evenodd" clip-rule="evenodd" d="M309.834 90.682c5-2.877 13.108-2.877 18.108 0l63.328 36.434a5.888 5.888 0 0 1 2.956 5.027l1.118 83.654c0 5.752-4.054 12.749-9.055 15.627l-65.615 37.23a5.914 5.914 0 0 1-5.866-.017l-63.293-36.413c-5-2.878-9.054-9.874-9.054-15.627l.002-82.671c0-2.081 1.1-4.008 2.892-5.069l64.479-38.175zm16.298 1.042 63.328 36.434a5.895 5.895 0 0 1 2.956 5.027l1.117 83.653-.009.435c-.194 4.515-3.359 9.837-7.235 12.066l-65.615 37.231a5.912 5.912 0 0 1-5.866-.016l-63.293-36.414c-3.875-2.229-7.041-7.552-7.234-12.067l-.009-.435v-82.67c0-2.082 1.1-4.008 2.892-5.07l64.481-38.174.381-.21c4.022-2.09 10.23-2.02 14.106.21z" fill="url(#b)"/><path d="M322.167 190.986a5.5 5.5 0 0 1 5.5 5.5v1.834h1.833a5.5 5.5 0 0 1 5.5 5.5v14.666a5.494 5.494 0 0 1-1.611 3.888 5.493 5.493 0 0 1-3.889 1.612h-22a5.493 5.493 0 0 1-3.889-1.612 5.494 5.494 0 0 1-1.611-3.888V203.82a5.5 5.5 0 0 1 5.5-5.5h1.833v-1.834a5.5 5.5 0 0 1 5.5-5.5h7.334zm-7.334 3.668a1.836 1.836 0 0 0-1.833 1.832v1.834h11v-1.834a1.834 1.834 0 0 0-1.833-1.832h-7.334z" fill="#389D2D"/><path d="m316.347 3.752-61.589 61.483a5.297 5.297 0 0 0 0 7.502l61.589 61.484a5.32 5.32 0 0 0 7.515 0l61.59-61.484a5.299 5.299 0 0 0 0-7.502l-61.59-61.483a5.32 5.32 0 0 0-7.515 0z" fill="url(#c)" stroke="url(#d)"/><mask id="e" style="mask-type:luminance" maskUnits="userSpaceOnUse" x="301" y="49" width="38" height="39"><path d="M339 49.986h-38v38h38v-38z" fill="#fff"/></mask><g mask="url(#e)" fill="#EEE"><path d="M312.06 50.039c-.2.081-8.29 6.62-8.342 6.739-.022.066-.044.467-.044.89v.772l-.401.282c-.705.497-.638-.824-.638 12.29 0 10.956.007 11.623.126 11.764.163.186 9.181 5.136 9.448 5.18.104.016 5.64-1.35 12.506-3.08 11.229-2.842 12.335-3.139 12.491-3.31l.163-.192v-20.47l-.163-.185c-.141-.156-.847-.416-3.697-1.351-3.228-1.054-3.547-1.15-3.785-1.076-.141.044-1.195.46-2.338.927l-2.078.854-.037-1.618c-.029-1.202-.059-1.648-.133-1.737-.06-.067-.386-.215-.728-.326l-.623-.2v-.765c0-.75-.097-1.195-.29-1.314-.178-.111-11.103-4.126-11.207-4.119a.799.799 0 0 0-.23.045zm3.637 6.22a82.66 82.66 0 0 1 2.175.645l.2.074v2.338c0 2.108-.015 2.33-.126 2.375-.111.044-3.689-.638-4.231-.802l-.245-.081v-2.502c0-1.38.023-2.53.052-2.553.082-.089.149-.066 2.175.505zm-4.713 2.478v2.479l-1.336.586c-.735.32-1.403.572-1.484.564-.141-.022-.149-.089-.163-2.174-.015-1.188 0-2.19.037-2.234.096-.149 2.723-1.737 2.835-1.722.096.022.111.356.111 2.501zm10.947-.683c.676.186 1.27.379 1.321.416.067.052.09.579.09 2.167 0 1.803-.015 2.108-.112 2.145-.133.052-3.451-.609-3.577-.713-.126-.104-.141-4.438-.015-4.564.059-.06.215-.045.579.06.267.081 1.039.296 1.714.49zm-15.697 1.299c.022.096.03 1.024.022 2.063l-.022 1.893-.98.438c-.823.37-1.002.423-1.098.341-.096-.081-.111-.356-.111-1.863 0-1.603.015-1.788.133-1.885.282-.237 1.767-1.135 1.885-1.143.075-.007.149.06.171.156zm25.635 1.551c.431.119.943.275 1.143.334l.349.119v1.7c0 1.536-.015 1.707-.126 1.751-.067.03-.609-.044-1.195-.163-.787-.156-1.084-.245-1.136-.342-.096-.178-.089-3.302.008-3.488.044-.074.096-.14.119-.14.022 0 .4.103.838.23zm3.385.98.816.237.022 1.618c.015 1.329 0 1.618-.089 1.655-.096.037-1.848-.304-1.981-.386-.082-.044-.089-3.317-.015-3.399.067-.06.222-.03 1.247.275zm-19.364 1.35c1.128.186 2.078.357 2.115.38.037.021.067 1.068.067 2.374 0 2.019-.015 2.338-.111 2.375-.171.067-4.29-.274-4.394-.356-.074-.06-.097-.66-.097-2.546 0-1.35.023-2.486.052-2.508.082-.082.23-.067 2.368.282zm-4.869 2.45v2.486l-.163.037c-.097.023-.735.141-1.432.26-.899.148-1.284.193-1.351.134-.074-.06-.097-.58-.097-2.22 0-2.026.008-2.144.141-2.234.238-.148 2.479-.935 2.702-.942l.2-.008v2.487zm10.428-1.551c.943.148 1.752.304 1.803.349.134.103.134 4.156-.007 4.267-.067.06-.579.045-1.818-.06-.95-.073-1.752-.163-1.796-.185-.082-.052-.104-4.505-.023-4.587.067-.066-.059-.081 1.841.216zm-15.267.786c.134.134.126 3.941 0 4.053-.171.126-1.93.393-2.041.297-.074-.06-.096-.475-.096-1.834 0-.964.029-1.788.059-1.84.045-.067 1.737-.727 1.952-.757.022-.008.074.03.126.081zm25.992.958c.549.089 1.046.193 1.098.237.067.052.089.49.089 1.722s-.022 1.67-.089 1.722c-.148.111-2.286-.082-2.368-.208-.074-.118-.089-3.325-.022-3.51.06-.156.104-.149 1.292.037zm2.931.475c.371.067.742.133.839.148l.163.037v3.288l-.965-.052c-.534-.03-1.016-.066-1.076-.089-.096-.037-.111-.311-.111-1.744v-1.7h.245c.126 0 .542.053.905.112zm-17.122 3.919c.067.044.089.608.089 2.39 0 2.026-.015 2.33-.111 2.367-.178.067-4.223.23-4.364.17-.119-.044-.127-.26-.127-2.53 0-2.07.015-2.494.104-2.546.134-.074 4.275.067 4.409.149zm-7.081-.127c.104.037.119.327.119 2.487 0 2.197-.015 2.449-.119 2.493-.17.067-2.716-.192-2.827-.289-.141-.111-.141-4.327 0-4.416.044-.03.675-.111 1.388-.178a39.67 39.67 0 0 0 1.313-.134c.008 0 .06.015.126.037zm12.35.342c.067.06.09.579.09 2.137 0 1.559-.023 2.078-.09 2.138-.103.074-3.414.252-3.592.185-.089-.03-.104-.4-.104-2.278 0-1.24.023-2.271.06-2.3.074-.09 3.525.029 3.636.118zm4.157.089c1.744.074 2.583.133 2.649.193.156.133.164 12.105.015 12.26-.141.134-5.329 1.44-5.492 1.374-.119-.045-.126-.46-.126-6.903 0-7.095 0-7.028.297-7.028.059 0 1.254.052 2.657.104zm-21.182.089c.066.178.052 3.837-.023 3.956-.052.081-.222.081-1.016.007-.527-.052-1.002-.126-1.047-.163-.111-.09-.141-3.518-.03-3.689.067-.096.809-.2 1.648-.222.327-.008.431.022.468.11zm27.045.193c.067.06.089.497.089 1.73 0 1.231-.022 1.67-.089 1.721-.052.045-.586.097-1.188.126-1.031.045-1.091.045-1.165-.096-.126-.23-.111-3.385.015-3.51.082-.075.349-.097 1.173-.075.586.015 1.113.067 1.165.104zm2.783.126c.03.03.045.772.037 1.648l-.022 1.588-.943.067c-.512.037-.987.044-1.053.022-.104-.044-.119-.26-.119-1.707 0-.913.022-1.685.059-1.722.067-.067 1.96.022 2.041.104zm-.067 4.357c.104.037.119.26.119 1.67 0 1.625 0 1.625-.163 1.662-.475.104-1.826.304-1.9.275-.067-.023-.089-.475-.089-1.73 0-.935.007-1.707.022-1.707.007-.007.431-.052.943-.104.512-.051.935-.096.942-.103.008 0 .06.014.126.037zm-2.642 2.011.015 1.73-.163.037c-.097.022-.616.118-1.165.207-.847.149-1.002.164-1.091.075-.149-.156-.156-3.452 0-3.578.118-.096 1.217-.215 1.9-.2l.482.007.022 1.722zm-28.062-1.306c.438.081.846.185.898.23.067.06.089.905.074 3.948-.022 3.637-.029 3.867-.155 3.89-.134.03-1.908-.899-1.997-1.055-.074-.103-.074-7.05-.007-7.117.081-.082.341-.06 1.187.104zm17.968.453c.134.133.127 4.163 0 4.274-.126.097-3.428.639-3.577.587-.104-.045-.119-.312-.119-2.308V76.78l.171-.037c.126-.03 2.412-.253 3.325-.327.059 0 .149.03.2.082zm-13.492.378 1.224.238.022 4.801c.015 4.075 0 4.802-.089 4.832-.111.045-2.783-1.38-2.879-1.529-.067-.111-.082-8.468-.008-8.535.089-.089.49-.044 1.73.193zm8.312 2.42c0 1.744-.022 2.308-.089 2.367-.126.097-4.26.787-4.401.728-.097-.038-.112-.416-.112-2.517 0-1.9.023-2.5.097-2.56.126-.104 4.208-.453 4.379-.371.119.06.126.245.126 2.353z"/><path d="M325.361 71.377c-.141.14-.126 10.695.008 10.814.133.103 3.673.905 3.911.883l.185-.022.015-5.678c.015-3.125-.007-5.722-.037-5.774-.044-.067-.608-.127-1.952-.2-1.039-.06-1.922-.112-1.959-.112-.045 0-.119.037-.171.089z"/></g><path d="m316.602 11.717-53.43 53.338a5.297 5.297 0 0 0 0 7.503l53.43 53.338a5.322 5.322 0 0 0 7.515 0l53.43-53.338a5.299 5.299 0 0 0 0-7.503l-53.43-53.338a5.32 5.32 0 0 0-7.515 0z" stroke="#A7A7A7" stroke-opacity=".3"/><path d="M393.469 198.362c4.552 0 8.243-3.684 8.243-8.228 0-4.545-3.691-8.229-8.243-8.229-4.552 0-8.242 3.684-8.242 8.229 0 4.544 3.69 8.228 8.242 8.228z" fill="#ACD4A7"/><path d="M393.469 195.072a4.94 4.94 0 0 0 4.945-4.937 4.941 4.941 0 0 0-4.945-4.937 4.942 4.942 0 0 0-4.946 4.937 4.942 4.942 0 0 0 4.946 4.937z" fill="#389D2D"/><path d="M318.621 278.391c4.553 0 8.243-3.684 8.243-8.228 0-4.545-3.69-8.228-8.243-8.228-4.552 0-8.242 3.683-8.242 8.228 0 4.544 3.69 8.228 8.242 8.228z" fill="#ACD4A7"/><path d="M318.621 275.1a4.942 4.942 0 0 0 4.946-4.937 4.941 4.941 0 0 0-4.946-4.937 4.94 4.94 0 0 0-4.945 4.937 4.941 4.941 0 0 0 4.945 4.937z" fill="#389D2D"/><path d="M242.84 198.361c4.552 0 8.243-3.684 8.243-8.228 0-4.545-3.691-8.229-8.243-8.229-4.552 0-8.242 3.684-8.242 8.229 0 4.544 3.69 8.228 8.242 8.228z" fill="#ACD4A7"/><path d="M242.84 195.07a4.94 4.94 0 0 0 4.945-4.937 4.941 4.941 0 0 0-4.945-4.937 4.941 4.941 0 0 0-4.945 4.937 4.94 4.94 0 0 0 4.945 4.937z" fill="#389D2D"/><path d="m485.559 43.873-5.904 3.404V40.47l5.904 3.403zm-38.444 0a3.146 3.146 0 0 1-3.149 3.144 3.147 3.147 0 0 1-3.15-3.144 3.147 3.147 0 0 1 3.15-3.143 3.146 3.146 0 0 1 3.149 3.143zm33.13 0v.59h-36.279v-1.18h36.279v.59z" fill="url(#f)"/><path d="m157.75 189.76 5.904 3.403v-6.807l-5.904 3.404zm38.444 0a3.147 3.147 0 0 0 3.149 3.144 3.146 3.146 0 0 0 3.149-3.144 3.146 3.146 0 0 0-3.149-3.144 3.146 3.146 0 0 0-3.149 3.144zm-33.13 0v.589h36.279V189.17h-36.279v.59z" fill="url(#g)"/><path d="m44.403 252.725 3.404-5.904H41l3.403 5.904zm0-18.444a3.147 3.147 0 0 0 3.144-3.149 3.146 3.146 0 0 0-3.144-3.149 3.146 3.146 0 0 0-3.144 3.149 3.147 3.147 0 0 0 3.144 3.149zm0 13.13h.59v-16.279h-1.18v16.279h.59z" fill="url(#h)"/><path d="m143.742 289.387-5.904 3.404v-6.807l5.904 3.403zm-18.444 0a3.146 3.146 0 0 1-3.149 3.144 3.145 3.145 0 1 1 0-6.288 3.147 3.147 0 0 1 3.149 3.144zm13.13 0v.59h-16.279V288.798h16.279v.589z" fill="url(#i)"/><path d="m113.403 124.985 3.404 5.904H110l3.403-5.904zm0 18.444a3.146 3.146 0 0 1 3.144 3.149 3.145 3.145 0 1 1-6.288 0 3.147 3.147 0 0 1 3.144-3.149zm0-13.13h.59v16.279H112.814v-16.279h.589z" fill="url(#j)"/><path d="m551.403 125.726 3.404-5.904H548l3.403 5.904zm0-18.444a3.146 3.146 0 0 0 3.144-3.149 3.145 3.145 0 1 0-6.288 0 3.147 3.147 0 0 0 3.144 3.149zm0 13.13h.59v-16.279H550.814v16.279h.589z" fill="url(#k)"/><path d="m226 384.442 5.904 3.403v-6.805L226 384.442zm57.554 0a3.147 3.147 0 0 0 3.15 3.144 3.146 3.146 0 0 0 3.148-3.144 3.146 3.146 0 0 0-3.148-3.143 3.147 3.147 0 0 0-3.15 3.143zm-52.24 0v.589h55.39V383.852h-55.39v.59z" fill="url(#l)"/><path d="M319 271.985v112.5h-30.5" stroke="#A7A7A7"/><path d="M200.86 268.984h-41.72a3.14 3.14 0 0 0-3.14 3.139v41.721a3.14 3.14 0 0 0 3.14 3.14h41.72a3.14 3.14 0 0 0 3.14-3.14v-41.721a3.14 3.14 0 0 0-3.14-3.139z" stroke="#A7A7A7" stroke-dasharray="12 12"/></g><defs><linearGradient id="h" x1="44.993" y1="272.725" x2="44.993" y2="231.132" gradientUnits="userSpaceOnUse"><stop stop-color="#4C4C4C"/><stop offset="1" stop-color="#878787"/></linearGradient><linearGradient id="b" x1="232.247" y1="179.774" x2="432.982" y2="179.774" gradientUnits="userSpaceOnUse"><stop stop-color="#737373" stop-opacity=".11"/><stop offset="1" stop-color="#D9D9D9" stop-opacity=".2"/></linearGradient><linearGradient id="d" x1="285.379" y1="34.666" x2="355.199" y2="104.606" gradientUnits="userSpaceOnUse"><stop/><stop offset="1" stop-color="#666"/></linearGradient><linearGradient id="f" x1="485.559" y1="44.463" x2="443.966" y2="44.463" gradientUnits="userSpaceOnUse"><stop stop-color="#4C4C4C"/><stop offset="1" stop-color="#878787"/></linearGradient><linearGradient id="g" x1="157.75" y1="190.349" x2="199.343" y2="190.349" gradientUnits="userSpaceOnUse"><stop stop-color="#4C4C4C"/><stop offset="1" stop-color="#878787"/></linearGradient><linearGradient id="c" x1="285.379" y1="34.666" x2="355.199" y2="104.606" gradientUnits="userSpaceOnUse"><stop/><stop offset="1" stop-color="#666"/></linearGradient><linearGradient id="i" x1="163.742" y1="289.977" x2="122.149" y2="289.977" gradientUnits="userSpaceOnUse"><stop stop-color="#4C4C4C"/><stop offset="1" stop-color="#878787"/></linearGradient><linearGradient id="j" x1="113.993" y1="104.985" x2="113.993" y2="146.578" gradientUnits="userSpaceOnUse"><stop stop-color="#4C4C4C"/><stop offset="1" stop-color="#878787"/></linearGradient><linearGradient id="k" x1="551.993" y1="145.726" x2="551.993" y2="104.133" gradientUnits="userSpaceOnUse"><stop stop-color="#4C4C4C"/><stop offset="1" stop-color="#878787"/></linearGradient><linearGradient id="l" x1="226" y1="385.031" x2="286.704" y2="385.031" gradientUnits="userSpaceOnUse"><stop stop-color="#4C4C4C"/><stop offset="1" stop-color="#878787"/></linearGradient><clipPath id="a"><path fill="#fff" d="M0 0h594v393H0z"/></clipPath></defs></svg>