<svg width="564" height="339" fill="none" xmlns="http://www.w3.org/2000/svg"><g clip-path="url(#a)"><path fill-rule="evenodd" clip-rule="evenodd" d="M270.045 79.412c4.323-2.49 11.332-2.49 15.655 0l54.799 31.581a4.998 4.998 0 0 1 2.503 4.266l.967 72.502c0 4.983-3.504 11.042-7.827 13.533l-56.777 32.272a5.002 5.002 0 0 1-4.968-.015l-54.769-31.564c-4.323-2.491-7.827-8.55-7.827-13.533l.001-71.652a5.005 5.005 0 0 1 2.45-4.301l55.793-33.089zm14.09.903 54.799 31.581a5 5 0 0 1 2.503 4.265l.967 72.502-.008.376c-.168 3.911-2.904 8.52-6.254 10.451l-56.777 32.271a5 5 0 0 1-4.968-.015l-54.769-31.563c-3.35-1.931-6.086-6.54-6.254-10.45l-.008-.377v-71.652c0-1.765.931-3.4 2.45-4.3l55.795-33.09.33-.18c3.476-1.811 8.843-1.75 12.194.18z" fill="url(#b)"/><path d="M341.437 116.161a5 5 0 0 0-2.503-4.265l-54.799-31.581c-3.351-1.931-8.718-1.992-12.194-.182l-.33.182-55.795 33.089a4.998 4.998 0 0 0-2.45 4.3v71.652l.008.377c.168 3.91 2.904 8.519 6.254 10.45l54.769 31.563a5 5 0 0 0 4.968.015l56.777-32.271c3.35-1.931 6.086-6.54 6.254-10.451l.008-.376-.967-72.502z" fill="url(#c)"/><path d="M341.437 116.161a5 5 0 0 0-2.503-4.265l-54.799-31.581c-3.351-1.931-8.718-1.992-12.194-.182l-.33.182-55.795 33.089a4.998 4.998 0 0 0-2.45 4.3v71.652l.008.377c.168 3.91 2.904 8.519 6.254 10.45l54.769 31.563a5 5 0 0 0 4.968.015l56.777-32.271c3.35-1.931 6.086-6.54 6.254-10.451l.008-.376-.967-72.502z" fill="#F9F9F9"/><path d="m274.323 87.846-49.011 28.297c-2.152 1.243-2.152 3.257 0 4.5l47.506 27.428c2.153 1.242 5.642 1.242 7.795 0l49.011-28.297c2.152-1.242 2.152-3.257 0-4.5l-47.507-27.428c-2.152-1.242-5.641-1.242-7.794 0z" stroke="#DDD"/><path d="M277.058 164.197a7.998 7.998 0 0 1 7.997 7.997c0 1.82-.619 3.499-1.639 4.858a12.71 12.71 0 0 0-4.538 2.939l-1.82.2a7.998 7.998 0 0 1 0-15.994zm-15.994 31.988v-3.998c0-4.239 6.618-7.717 14.995-7.997-.64 1.559-1 3.239-1 4.998 0 2.579.76 4.998 1.999 6.997h-15.994zM290.054 180.191a2.996 2.996 0 0 1 2.999 2.999v1h1a2.999 2.999 0 0 1 2.999 2.999v7.997c0 .795-.316 1.558-.879 2.12a2.996 2.996 0 0 1-2.12.879h-11.996a2.996 2.996 0 0 1-2.998-2.999v-7.997a2.997 2.997 0 0 1 2.998-2.999h1v-1a2.999 2.999 0 0 1 2.999-2.999h3.998zm-3.998 2a1.002 1.002 0 0 0-1 .999v1h5.998v-1a1 1 0 0 0-1-.999h-3.998z" fill="#389D2D"/><path d="M274.281 3.889 220.889 57.28a4.5 4.5 0 0 0 0 6.364l53.392 53.392a4.499 4.499 0 0 0 6.364 0l53.393-53.392a4.5 4.5 0 0 0 0-6.364L280.645 3.889a4.5 4.5 0 0 0-6.364 0z" fill="url(#d)" stroke="url(#e)"/><mask id="f" style="mask-type:luminance" maskUnits="userSpaceOnUse" x="258" y="41" width="38" height="39"><path d="M296 41.003h-38v38h38v-38z" fill="#fff"/></mask><g mask="url(#f)" fill="#EEE"><path d="M269.058 41.055c-.2.082-8.29 6.62-8.342 6.74-.022.066-.044.467-.044.89v.772l-.401.282c-.705.497-.638-.824-.638 12.29 0 10.955.007 11.623.126 11.764.163.186 9.181 5.136 9.448 5.18.104.015 5.64-1.35 12.506-3.08 11.229-2.842 12.335-3.139 12.491-3.31l.163-.193V51.921l-.163-.186c-.141-.156-.847-.415-3.697-1.35-3.228-1.054-3.547-1.15-3.785-1.077-.141.045-1.195.46-2.338.928l-2.078.854-.037-1.618c-.029-1.203-.059-1.648-.133-1.737-.06-.067-.386-.215-.728-.327l-.623-.2v-.765c0-.75-.097-1.194-.29-1.313-.178-.112-11.103-4.127-11.207-4.12a.799.799 0 0 0-.23.045zm3.637 6.22a82.66 82.66 0 0 1 2.175.645l.2.075v2.338c0 2.107-.015 2.33-.126 2.375-.111.044-3.689-.639-4.231-.802l-.245-.082v-2.5c0-1.381.023-2.532.052-2.554.082-.09.149-.067 2.175.505zm-4.713 2.479v2.479l-1.336.586c-.735.319-1.403.571-1.484.564-.141-.022-.149-.09-.163-2.175-.015-1.187 0-2.19.037-2.234.096-.148 2.723-1.736 2.835-1.722.096.023.111.357.111 2.502zm10.947-.683c.676.185 1.27.378 1.321.415.067.052.09.58.09 2.168 0 1.803-.015 2.107-.112 2.144-.133.052-3.451-.608-3.577-.712-.126-.104-.141-4.438-.015-4.564.059-.06.215-.045.579.059.267.082 1.039.297 1.714.49zm-15.697 1.299c.022.096.03 1.024.022 2.063l-.022 1.892-.98.438c-.823.372-1.002.423-1.098.342-.096-.082-.111-.356-.111-1.863 0-1.603.015-1.789.133-1.885.282-.238 1.767-1.136 1.885-1.143.075-.008.149.06.171.156zm25.635 1.55c.431.12.943.275 1.143.335l.349.118v1.7c0 1.536-.015 1.707-.126 1.752-.067.03-.609-.045-1.195-.164-.787-.156-1.084-.245-1.136-.341-.096-.178-.089-3.303.008-3.488.044-.075.096-.141.119-.141.022 0 .4.104.838.23zm3.385.98.816.238.022 1.618c.015 1.328 0 1.618-.089 1.655-.096.037-1.848-.304-1.981-.386-.082-.044-.089-3.317-.015-3.4.067-.059.222-.029 1.247.276zm-19.364 1.351c1.128.186 2.078.357 2.115.379.037.022.067 1.069.067 2.375 0 2.018-.015 2.338-.111 2.375-.171.067-4.29-.275-4.394-.357-.074-.059-.097-.66-.097-2.545 0-1.351.023-2.486.052-2.509.082-.081.23-.067 2.368.282zm-4.869 2.45v2.486l-.163.037c-.097.022-.735.14-1.432.26-.899.148-1.284.193-1.351.133-.074-.06-.097-.579-.097-2.219 0-2.026.008-2.145.141-2.234.238-.148 2.479-.935 2.702-.942l.2-.008V56.7zm10.428-1.552c.943.149 1.752.305 1.803.35.134.103.134 4.155-.007 4.267-.067.06-.579.044-1.818-.06-.95-.074-1.752-.163-1.796-.185-.082-.052-.104-4.505-.023-4.587.067-.067-.059-.082 1.841.215zm-15.267.787c.134.134.126 3.941 0 4.052-.171.127-1.93.394-2.041.297-.074-.06-.096-.475-.096-1.833 0-.965.029-1.789.059-1.84.045-.067 1.737-.728 1.952-.758.022-.007.074.03.126.082zm25.992.957c.549.09 1.046.193 1.098.238.067.052.089.49.089 1.722s-.022 1.67-.089 1.722c-.148.111-2.286-.082-2.368-.208-.074-.119-.089-3.325-.022-3.51.06-.157.104-.15 1.292.036zm2.931.475c.371.067.742.134.839.149l.163.037v3.288l-.965-.052c-.534-.03-1.016-.067-1.076-.09-.096-.036-.111-.31-.111-1.743v-1.7h.245c.126 0 .542.052.905.111zm-17.122 3.92c.067.044.089.608.089 2.389 0 2.026-.015 2.33-.111 2.368-.178.066-4.223.23-4.364.17-.119-.044-.127-.26-.127-2.53 0-2.071.015-2.494.104-2.546.134-.075 4.275.066 4.409.148zm-7.081-.127c.104.037.119.327.119 2.486 0 2.197-.015 2.45-.119 2.494-.17.067-2.716-.193-2.827-.29-.141-.11-.141-4.326 0-4.415.044-.03.675-.112 1.388-.178a39.67 39.67 0 0 0 1.313-.134c.008 0 .06.015.126.037zm12.35.341c.067.06.09.58.09 2.138 0 1.558-.023 2.078-.09 2.137-.103.075-3.414.253-3.592.186-.089-.03-.104-.4-.104-2.278 0-1.24.023-2.272.06-2.301.074-.09 3.525.03 3.636.118zm4.157.09c1.744.074 2.583.133 2.649.193.156.133.164 12.105.015 12.26-.141.134-5.329 1.44-5.492 1.373-.119-.044-.126-.46-.126-6.902 0-7.095 0-7.028.297-7.028.059 0 1.254.051 2.657.104zm-21.182.089c.066.178.052 3.837-.023 3.955-.052.082-.222.082-1.016.008-.527-.052-1.002-.126-1.047-.163-.111-.09-.141-3.518-.03-3.69.067-.096.809-.2 1.648-.222.327-.007.431.023.468.111zm27.045.193c.067.059.089.497.089 1.729 0 1.232-.022 1.67-.089 1.722-.052.044-.586.096-1.188.126-1.031.044-1.091.044-1.165-.097-.126-.23-.111-3.384.015-3.51.082-.074.349-.097 1.173-.074.586.014 1.113.066 1.165.103zm2.783.126c.03.03.045.772.037 1.647l-.022 1.589-.943.066c-.512.037-.987.045-1.053.023-.104-.045-.119-.26-.119-1.707 0-.913.022-1.685.059-1.722.067-.067 1.96.022 2.041.104zm-.067 4.356c.104.037.119.26.119 1.67 0 1.626 0 1.626-.163 1.663-.475.104-1.826.304-1.9.274-.067-.022-.089-.475-.089-1.729 0-.935.007-1.707.022-1.707.007-.007.431-.052.943-.104s.935-.096.942-.104c.008 0 .06.015.126.037zm-2.642 2.012.015 1.729-.163.037c-.097.022-.616.119-1.165.208-.847.148-1.002.163-1.091.074-.149-.156-.156-3.451 0-3.577.118-.097 1.217-.215 1.9-.2l.482.007.022 1.722zm-28.062-1.307c.438.082.846.186.898.23.067.06.089.906.074 3.949-.022 3.637-.029 3.867-.155 3.889-.134.03-1.908-.898-1.997-1.054-.074-.104-.074-7.05-.007-7.118.081-.081.341-.059 1.187.104zm17.968.453c.134.134.127 4.164 0 4.275-.126.097-3.428.638-3.577.587-.104-.045-.119-.312-.119-2.309v-2.27l.171-.038c.126-.03 2.412-.252 3.325-.326.059 0 .149.03.2.081zm-13.492.379 1.224.237.022 4.802c.015 4.075 0 4.802-.089 4.832-.111.044-2.783-1.38-2.879-1.53-.067-.11-.082-8.468-.008-8.534.089-.09.49-.045 1.73.193zm8.312 2.42c0 1.743-.022 2.307-.089 2.367-.126.096-4.26.786-4.401.727-.097-.037-.112-.415-.112-2.516 0-1.9.023-2.501.097-2.56.126-.104 4.208-.453 4.379-.371.119.059.126.244.126 2.352z"/><path d="M282.359 62.394c-.141.14-.126 10.694.008 10.813.133.104 3.674.906 3.911.883l.186-.022.014-5.678c.015-3.124-.007-5.722-.037-5.774-.044-.067-.608-.126-1.952-.2-1.039-.06-1.922-.112-1.959-.112-.045 0-.119.038-.171.09z"/></g><path d="M274.352 10.943 228.014 57.28a4.5 4.5 0 0 0 0 6.364l46.338 46.338a4.499 4.499 0 0 0 6.364 0l46.339-46.338a4.5 4.5 0 0 0 0-6.364l-46.339-46.338a4.5 4.5 0 0 0-6.364 0z" stroke="#A7A7A7" stroke-opacity=".3"/><path d="M342.529 126.341v47.619" stroke="url(#g)"/><path d="M342.498 187.566v-17.492" stroke="url(#h)"/><path d="M342.352 172.663a7.126 7.126 0 1 0-.002-14.252 7.126 7.126 0 0 0 .002 14.252z" fill="#ACD4A7"/><path d="M342.352 169.812a4.275 4.275 0 1 0 0-8.55 4.275 4.275 0 0 0 0 8.55z" fill="#389D2D"/><path d="M277.643 241.968a7.126 7.126 0 1 0 0-14.252 7.126 7.126 0 0 0 0 14.252z" fill="#ACD4A7"/><path d="M277.645 239.117a4.275 4.275 0 1 0 0-8.55 4.275 4.275 0 0 0 0 8.55z" fill="#389D2D"/><path d="M212.301 124.397v47.62" stroke="url(#i)"/><path d="M212.275 185.622v-17.493" stroke="url(#j)"/><path d="M212.126 172.663a7.126 7.126 0 1 0-.002-14.252 7.126 7.126 0 0 0 .002 14.252z" fill="#ACD4A7"/><path d="M212.127 169.812a4.275 4.275 0 1 0 0-8.55 4.275 4.275 0 0 0 0 8.55z" fill="#389D2D"/><path d="M207 293.504h140a4.5 4.5 0 0 1 4.5 4.5v36a4.5 4.5 0 0 1-4.5 4.5H207a4.5 4.5 0 0 1-4.5-4.5v-36a4.5 4.5 0 0 1 4.5-4.5z" fill="#F9F9F9"/><path d="M207 293.504h140a4.5 4.5 0 0 1 4.5 4.5v36a4.5 4.5 0 0 1-4.5 4.5H207a4.5 4.5 0 0 1-4.5-4.5v-36a4.5 4.5 0 0 1 4.5-4.5z" stroke="#389D2D"/><path d="M254.214 313.004c-.088 0-.156-.024-.204-.072a.303.303 0 0 1-.072-.204v-7.836c0-.088.024-.156.072-.204a.254.254 0 0 1 .204-.084h3.048c.592 0 1.104.096 1.536.288.44.192.78.48 1.02.864.24.376.36.848.36 1.416s-.12 1.04-.36 1.416c-.24.376-.58.66-1.02.852-.432.192-.944.288-1.536.288h-2.124v3c0 .08-.028.148-.084.204-.048.048-.116.072-.204.072h-.636zm.912-4.284h2.076c.592 0 1.036-.132 1.332-.396.296-.264.444-.648.444-1.152 0-.496-.144-.88-.432-1.152-.288-.272-.736-.408-1.344-.408h-2.076v3.108zm8.096 4.404c-.4 0-.764-.08-1.092-.24a2.112 2.112 0 0 1-.792-.648c-.2-.272-.3-.58-.3-.924 0-.552.224-.992.672-1.32.448-.328 1.032-.544 1.752-.648l1.788-.252v-.348c0-.384-.112-.684-.336-.9-.216-.216-.572-.324-1.068-.324-.36 0-.652.072-.876.216a1.17 1.17 0 0 0-.456.552c-.048.12-.132.18-.252.18h-.54c-.088 0-.156-.024-.204-.072a.322.322 0 0 1-.06-.192c0-.12.044-.268.132-.444.096-.176.24-.348.432-.516.192-.168.436-.308.732-.42.304-.12.672-.18 1.104-.18.48 0 .884.064 1.212.192.328.12.584.284.768.492.192.208.328.444.408.708.088.264.132.532.132.804v3.888c0 .08-.028.148-.084.204a.26.26 0 0 1-.192.072h-.552c-.088 0-.156-.024-.204-.072a.303.303 0 0 1-.072-.204v-.516a2.345 2.345 0 0 1-.42.432 2.434 2.434 0 0 1-.66.348 3.102 3.102 0 0 1-.972.132zm.252-.9c.328 0 .628-.068.9-.204.272-.144.484-.364.636-.66.16-.296.24-.668.24-1.116v-.336l-1.392.204c-.568.08-.996.216-1.284.408-.288.184-.432.42-.432.708 0 .224.064.412.192.564.136.144.304.252.504.324.208.072.42.108.636.108zm7.269.9c-.616 0-1.132-.116-1.548-.348a2.375 2.375 0 0 1-.936-1.008c-.208-.44-.32-.948-.336-1.524a21.61 21.61 0 0 1 0-1.44c0-.728.06-1.332.18-1.812s.3-.872.54-1.176c.248-.312.56-.568.936-.768.376-.2.82-.372 1.332-.516a48.466 48.466 0 0 1 1.752-.48.264.264 0 0 1 .204.036c.072.04.112.096.12.168l.096.492a.23.23 0 0 1-.036.192.226.226 0 0 1-.156.108l-1.572.396a5.559 5.559 0 0 0-1.128.396 2.016 2.016 0 0 0-.732.564c-.184.232-.312.54-.384.924-.064.384-.084.876-.06 1.476l-.264-.108a1.52 1.52 0 0 1 .372-.804c.216-.248.484-.448.804-.6.32-.152.66-.228 1.02-.228.552 0 1.016.116 1.392.348.384.232.676.548.876.948.208.4.324.86.348 1.38.016.272.016.508 0 .708-.024.52-.144.984-.36 1.392a2.37 2.37 0 0 1-.936.948c-.408.224-.916.336-1.524.336zm0-.888c.504 0 .904-.156 1.2-.468.296-.312.452-.768.468-1.368.008-.08.012-.172.012-.276 0-.104-.004-.212-.012-.324-.016-.608-.172-1.068-.468-1.38a1.422 1.422 0 0 0-1.092-.468c-.504 0-.92.156-1.248.468-.328.312-.504.772-.528 1.38-.008.112-.012.22-.012.324 0 .104.004.196.012.276.024.6.184 1.056.48 1.368.296.312.692.468 1.188.468zm6.888.888c-.608 0-1.116-.116-1.524-.348a2.35 2.35 0 0 1-.936-.96 3.367 3.367 0 0 1-.36-1.416 9.083 9.083 0 0 1-.012-.516 8.7 8.7 0 0 1 .012-.516c.024-.536.144-1.008.36-1.416.224-.408.54-.728.948-.96.408-.232.912-.348 1.512-.348s1.104.116 1.512.348c.408.232.72.552.936.96.224.408.348.88.372 1.416.008.128.012.3.012.516 0 .208-.004.38-.012.516-.024.528-.144 1-.36 1.416a2.35 2.35 0 0 1-.936.96c-.408.232-.916.348-1.524.348zm0-.924c.496 0 .892-.156 1.188-.468.296-.32.456-.784.48-1.392.008-.12.012-.272.012-.456s-.004-.336-.012-.456c-.024-.608-.184-1.068-.48-1.38-.296-.32-.692-.48-1.188-.48s-.896.16-1.2.48c-.296.312-.452.772-.468 1.38-.008.12-.012.272-.012.456s.004.336.012.456c.016.608.172 1.072.468 1.392.304.312.704.468 1.2.468zm8.271.804c-.088 0-.156-.024-.204-.072a.303.303 0 0 1-.072-.204v-2.256c-.216.2-.48.348-.792.444a3.76 3.76 0 0 1-1.044.132c-.704 0-1.252-.156-1.644-.468-.384-.312-.576-.816-.576-1.512v-2.028a.26.26 0 0 1 .072-.192.278.278 0 0 1 .204-.084h.588a.24.24 0 0 1 .192.084.24.24 0 0 1 .084.192v1.956c0 .36.104.624.312.792.216.168.544.252.984.252.488 0 .88-.06 1.176-.18.296-.128.444-.352.444-.672v-2.148a.26.26 0 0 1 .072-.192.254.254 0 0 1 .204-.084h.6a.24.24 0 0 1 .192.084.24.24 0 0 1 .084.192v5.688c0 .08-.028.148-.084.204a.26.26 0 0 1-.192.072h-.6zm5.146.12c-.824 0-1.48-.252-1.968-.756-.488-.512-.756-1.208-.804-2.088a5.34 5.34 0 0 1-.012-.396c0-.168.004-.304.012-.408.032-.568.164-1.064.396-1.488.232-.432.548-.764.948-.996.408-.232.884-.348 1.428-.348.608 0 1.116.128 1.524.384.416.256.732.62.948 1.092.216.472.324 1.024.324 1.656v.204a.254.254 0 0 1-.084.204.26.26 0 0 1-.192.072h-4.152v.108c.016.328.088.636.216.924.128.28.312.508.552.684.24.176.528.264.864.264.288 0 .528-.044.72-.132a1.96 1.96 0 0 0 .468-.288c.12-.112.2-.196.24-.252.072-.104.128-.164.168-.18a.388.388 0 0 1 .192-.036h.576a.26.26 0 0 1 .192.072c.056.04.08.1.072.18-.008.12-.072.268-.192.444-.12.168-.292.336-.516.504a3.006 3.006 0 0 1-.816.42c-.32.104-.688.156-1.104.156zm-1.632-3.696h3.288v-.036c0-.36-.068-.68-.204-.96a1.545 1.545 0 0 0-1.452-.912c-.344 0-.64.084-.888.252-.24.16-.424.38-.552.66-.128.28-.192.6-.192.96v.036zm8.347 3.696c-.824 0-1.48-.252-1.968-.756-.488-.512-.756-1.208-.804-2.088a5.34 5.34 0 0 1-.012-.396c0-.168.004-.304.012-.408.032-.568.164-1.064.396-1.488.232-.432.548-.764.948-.996.408-.232.884-.348 1.428-.348.608 0 1.116.128 1.524.384.416.256.732.62.948 1.092.216.472.324 1.024.324 1.656v.204a.254.254 0 0 1-.084.204.26.26 0 0 1-.192.072h-4.152v.108c.016.328.088.636.216.924.128.28.312.508.552.684.24.176.528.264.864.264.288 0 .528-.044.72-.132a1.96 1.96 0 0 0 .468-.288c.12-.112.2-.196.24-.252.072-.104.128-.164.168-.18a.388.388 0 0 1 .192-.036h.576a.26.26 0 0 1 .192.072c.056.04.08.1.072.18-.008.12-.072.268-.192.444-.12.168-.292.336-.516.504a3.006 3.006 0 0 1-.816.42c-.32.104-.688.156-1.104.156zm-1.632-3.696h3.288v-.036c0-.36-.068-.68-.204-.96a1.545 1.545 0 0 0-1.452-.912c-.344 0-.64.084-.888.252-.24.16-.424.38-.552.66-.128.28-.192.6-.192.96v.036zm-45.014 19.856a.278.278 0 0 1-.204-.084.26.26 0 0 1-.072-.192v-7.968a.26.26 0 0 1 .072-.192.278.278 0 0 1 .204-.084h.552a.24.24 0 0 1 .192.084.24.24 0 0 1 .084.192v.528c.192-.264.448-.484.768-.66.32-.176.72-.264 1.2-.264.448 0 .828.076 1.14.228.32.152.58.36.78.624.208.264.364.564.468.9.104.336.16.696.168 1.08a6.555 6.555 0 0 1 0 .816 4.01 4.01 0 0 1-.168 1.08c-.104.336-.26.636-.468.9-.2.256-.46.464-.78.624-.312.152-.692.228-1.14.228-.464 0-.856-.084-1.176-.252a2.547 2.547 0 0 1-.768-.648v2.784a.26.26 0 0 1-.072.192.254.254 0 0 1-.204.084h-.576zm2.544-3.132c.416 0 .74-.088.972-.264.24-.184.412-.42.516-.708.104-.296.164-.612.18-.948.008-.232.008-.464 0-.696a3.188 3.188 0 0 0-.18-.936 1.45 1.45 0 0 0-.516-.708c-.232-.184-.556-.276-.972-.276-.392 0-.712.092-.96.276-.24.184-.42.42-.54.708-.112.28-.176.568-.192.864a8.066 8.066 0 0 0 0 .924c.008.28.072.556.192.828.128.272.316.496.564.672.248.176.56.264.936.264zm6.057.972c-.4 0-.764-.08-1.092-.24a2.112 2.112 0 0 1-.792-.648c-.2-.272-.3-.58-.3-.924 0-.552.224-.992.672-1.32.448-.328 1.032-.544 1.752-.648l1.788-.252v-.348c0-.384-.112-.684-.336-.9-.216-.216-.572-.324-1.068-.324-.36 0-.652.072-.876.216a1.17 1.17 0 0 0-.456.552c-.048.12-.132.18-.252.18h-.54c-.088 0-.156-.024-.204-.072a.322.322 0 0 1-.06-.192c0-.12.044-.268.132-.444.096-.176.24-.348.432-.516.192-.168.436-.308.732-.42.304-.12.672-.18 1.104-.18.48 0 .884.064 1.212.192.328.12.584.284.768.492.192.208.328.444.408.708.088.264.132.532.132.804v3.888c0 .08-.028.148-.084.204a.26.26 0 0 1-.192.072h-.552c-.088 0-.156-.024-.204-.072a.303.303 0 0 1-.072-.204v-.516a2.345 2.345 0 0 1-.42.432 2.434 2.434 0 0 1-.66.348 3.102 3.102 0 0 1-.972.132zm.252-.9c.328 0 .628-.068.9-.204.272-.144.484-.364.636-.66.16-.296.24-.668.24-1.116v-.336l-1.392.204c-.568.08-.996.216-1.284.408-.288.184-.432.42-.432.708 0 .224.064.412.192.564.136.144.304.252.504.324.208.072.42.108.636.108zm6.801.9c-.472 0-.872-.056-1.2-.168-.32-.12-.58-.268-.78-.444a1.88 1.88 0 0 1-.42-.564 1.57 1.57 0 0 1-.144-.552c0-.072.024-.128.072-.168a.23.23 0 0 1 .168-.072h.564c.072 0 .132.02.18.06.048.032.084.092.108.18a.98.98 0 0 0 .552.636c.272.12.604.18.996.18.256 0 .492-.032.708-.096.216-.072.384-.184.504-.336a.846.846 0 0 0 .192-.564c0-.328-.096-.576-.288-.744-.184-.168-.472-.252-.864-.252h-.66a.26.26 0 0 1-.192-.072.26.26 0 0 1-.072-.192v-.324c0-.072.024-.132.072-.18a.24.24 0 0 1 .192-.084h.588c.328 0 .58-.064.756-.192.176-.128.264-.332.264-.612 0-.168-.04-.328-.12-.48a.889.889 0 0 0-.408-.372c-.184-.104-.44-.156-.768-.156-.464 0-.792.08-.984.24-.184.152-.316.38-.396.684a.354.354 0 0 1-.12.18c-.04.032-.1.048-.18.048h-.54a.272.272 0 0 1-.18-.06.207.207 0 0 1-.072-.168c.008-.24.06-.468.156-.684.104-.216.256-.412.456-.588.208-.176.464-.312.768-.408a3.457 3.457 0 0 1 1.092-.156c.6 0 1.072.092 1.416.276.352.184.6.412.744.684.152.264.228.528.228.792 0 .312-.052.572-.156.78-.096.208-.288.384-.576.528.36.136.608.34.744.612.136.272.208.588.216.948.008.416-.104.76-.336 1.032-.224.272-.532.48-.924.624a4.131 4.131 0 0 1-1.356.204zm4.245-.12a.303.303 0 0 1-.204-.072.303.303 0 0 1-.072-.204v-5.688a.26.26 0 0 1 .072-.192.278.278 0 0 1 .204-.084h2.496c.752 0 1.316.152 1.692.456.384.304.576.712.576 1.224 0 .36-.068.632-.204.816-.136.184-.328.34-.576.468.304.128.532.336.684.624.16.28.24.572.24.876 0 .576-.204 1.016-.612 1.32-.408.304-.976.456-1.704.456h-2.592zm.828-.876h1.668c.384 0 .692-.072.924-.216.24-.152.36-.38.36-.684 0-.32-.108-.552-.324-.696-.216-.152-.536-.228-.96-.228h-1.668v1.824zm0-2.712h1.596c.384 0 .688-.084.912-.252a.824.824 0 0 0 .348-.708c0-.312-.116-.524-.348-.636-.224-.12-.528-.18-.912-.18h-1.596v1.776zm5.886 3.588a.287.287 0 0 1-.192-.072.272.272 0 0 1-.072-.18v-5.712a.26.26 0 0 1 .072-.192.278.278 0 0 1 .204-.084h.576a.24.24 0 0 1 .192.084.26.26 0 0 1 .072.192v5.088l-.312-.324 3.636-4.86a.619.619 0 0 1 .132-.12.272.272 0 0 1 .18-.06h.552a.23.23 0 0 1 .168.072.216.216 0 0 1 .084.168v5.724c0 .08-.028.148-.084.204a.26.26 0 0 1-.192.072h-.564c-.088 0-.156-.024-.204-.072a.303.303 0 0 1-.072-.204v-4.788l.336-.012-3.66 4.896a.849.849 0 0 1-.12.12.29.29 0 0 1-.192.06h-.54zm8.957 0a.303.303 0 0 1-.204-.072.303.303 0 0 1-.072-.204v-5.004h-2.088a.303.303 0 0 1-.204-.072.303.303 0 0 1-.072-.204v-.408a.26.26 0 0 1 .072-.192.278.278 0 0 1 .204-.084h5.28a.24.24 0 0 1 .192.084.24.24 0 0 1 .084.192v.408c0 .08-.028.148-.084.204a.26.26 0 0 1-.192.072h-2.088v5.004c0 .08-.024.148-.072.204-.048.048-.116.072-.204.072h-.552zm4.496 0a.287.287 0 0 1-.192-.072.272.272 0 0 1-.072-.18v-5.712a.26.26 0 0 1 .072-.192.278.278 0 0 1 .204-.084h.576a.24.24 0 0 1 .192.084.26.26 0 0 1 .072.192v5.088l-.312-.324 3.636-4.86a.619.619 0 0 1 .132-.12.272.272 0 0 1 .18-.06h.552a.23.23 0 0 1 .168.072.216.216 0 0 1 .084.168v5.724c0 .08-.028.148-.084.204a.26.26 0 0 1-.192.072h-.564c-.088 0-.156-.024-.204-.072a.303.303 0 0 1-.072-.204v-4.788l.336-.012-3.66 4.896a.849.849 0 0 1-.12.12.29.29 0 0 1-.192.06h-.54zm9.533.12c-.824 0-1.48-.252-1.968-.756-.488-.512-.756-1.208-.804-2.088a5.34 5.34 0 0 1-.012-.396c0-.168.004-.304.012-.408.032-.568.164-1.064.396-1.488.232-.432.548-.764.948-.996.408-.232.884-.348 1.428-.348.608 0 1.116.128 1.524.384.416.256.732.62.948 1.092.216.472.324 1.024.324 1.656v.204a.254.254 0 0 1-.084.204.26.26 0 0 1-.192.072h-4.152v.108c.016.328.088.636.216.924.128.28.312.508.552.684.24.176.528.264.864.264.288 0 .528-.044.72-.132a1.96 1.96 0 0 0 .468-.288c.12-.112.2-.196.24-.252.072-.104.128-.164.168-.18a.388.388 0 0 1 .192-.036h.576a.26.26 0 0 1 .192.072c.056.04.08.1.072.18-.008.12-.072.268-.192.444-.12.168-.292.336-.516.504a3.006 3.006 0 0 1-.816.42c-.32.104-.688.156-1.104.156zm-1.632-3.696h3.288v-.036c0-.36-.068-.68-.204-.96a1.545 1.545 0 0 0-1.452-.912c-.344 0-.64.084-.888.252-.24.16-.424.38-.552.66-.128.28-.192.6-.192.96v.036z" fill="#4C4C4C"/><path d="m277 281.004 2.887-5h-5.774l2.887 5zm0-23.333a2.667 2.667 0 1 0 0-5.334 2.667 2.667 0 0 0 0 5.334zm0 18.833h.5v-21.5h-1v21.5h.5z" fill="url(#k)"/></g><g clip-path="url(#l)"><path fill-rule="evenodd" clip-rule="evenodd" d="M477.045 79.412c4.323-2.49 11.332-2.49 15.655 0l54.799 31.581a4.998 4.998 0 0 1 2.503 4.266l.967 72.502c0 4.983-3.504 11.042-7.827 13.533l-56.777 32.272a5.002 5.002 0 0 1-4.968-.015l-54.769-31.564c-4.323-2.491-7.827-8.55-7.827-13.533l.001-71.652c0-1.765.931-3.4 2.45-4.301l55.793-33.089zm14.09.903 54.799 31.581a5 5 0 0 1 2.503 4.265l.967 72.502-.008.376c-.168 3.911-2.904 8.52-6.254 10.451l-56.777 32.271a5 5 0 0 1-4.968-.015l-54.769-31.563c-3.35-1.931-6.086-6.54-6.254-10.45l-.008-.377v-71.652c0-1.765.931-3.4 2.45-4.3l55.795-33.09.33-.18c3.476-1.811 8.843-1.75 12.194.18z" fill="url(#m)"/><path d="M548.437 116.161a5 5 0 0 0-2.503-4.265l-54.799-31.581c-3.351-1.931-8.718-1.992-12.194-.182l-.33.182-55.795 33.089a4.998 4.998 0 0 0-2.45 4.3v71.652l.008.377c.168 3.91 2.904 8.519 6.254 10.45l54.769 31.563a5 5 0 0 0 4.968.015l56.777-32.271c3.35-1.931 6.086-6.54 6.254-10.451l.008-.376-.967-72.502z" fill="url(#n)"/><path d="M548.437 116.161a5 5 0 0 0-2.503-4.265l-54.799-31.581c-3.351-1.931-8.718-1.992-12.194-.182l-.33.182-55.795 33.089a4.998 4.998 0 0 0-2.45 4.3v71.652l.008.377c.168 3.91 2.904 8.519 6.254 10.45l54.769 31.563a5 5 0 0 0 4.968.015l56.777-32.271c3.35-1.931 6.086-6.54 6.254-10.451l.008-.376-.967-72.502z" fill="#F9F9F9"/><path d="M494.033 182.233a8.96 8.96 0 0 1 8.996 8.997 8.913 8.913 0 0 1-1.379 4.798l6.158 6.198-2.779 2.779-6.238-6.138a8.99 8.99 0 0 1-4.758 1.359 8.96 8.96 0 0 1-8.997-8.996 8.96 8.96 0 0 1 8.997-8.997zm0 3.999a4.994 4.994 0 0 0-3.534 1.464 4.994 4.994 0 0 0 0 7.068 4.998 4.998 0 1 0 3.534-8.532zm-10.996-19.993a7.998 7.998 0 0 1 7.997 7.997 8.08 8.08 0 0 1-1.639 4.858c-1.72.64-3.259 1.66-4.539 2.939l-1.819.2a7.997 7.997 0 1 1 0-15.994zm-15.994 31.988v-3.998c0-4.239 6.617-7.717 14.994-7.997a13.13 13.13 0 0 0-.999 4.998c0 2.579.759 4.998 1.999 6.997h-15.994z" fill="#389D2D"/><path d="m481.323 87.846-49.011 28.297c-2.152 1.243-2.152 3.257 0 4.5l47.506 27.428c2.153 1.242 5.642 1.242 7.795 0l49.011-28.297c2.152-1.242 2.152-3.257 0-4.5l-47.507-27.428c-2.152-1.242-5.641-1.242-7.794 0z" stroke="#DDD"/><path d="m480.281 3.892-53.392 53.393a4.5 4.5 0 0 0 0 6.364l53.392 53.392a4.499 4.499 0 0 0 6.364 0l53.393-53.392a4.5 4.5 0 0 0 0-6.364L486.645 3.892a4.5 4.5 0 0 0-6.364 0z" fill="url(#o)" stroke="url(#p)"/><path d="M480.482 40.75c-.083.014-.589.112-1.119.218-5.445 1.079-10.421 4.782-13.083 9.745a20.225 20.225 0 0 0-2.185 6.728c-.144 1.079-.121 3.968.045 5.054.341 2.233.878 3.953 1.815 5.846 1.074 2.157 2.231 3.733 3.955 5.393 1.581 1.523 2.987 2.497 5.052 3.507a17.3 17.3 0 0 0 3.592 1.32c1.739.438 2.057.468 5.074.43 2.609-.03 2.798-.038 3.63-.219 5.975-1.32 10.822-5.106 13.454-10.507 1.24-2.534 1.83-4.918 1.943-7.731.25-6.675-2.987-12.959-8.636-16.753-1.664-1.116-3.955-2.134-5.921-2.624-1.709-.438-2.004-.46-4.848-.453-1.437.008-2.684.023-2.768.045zm4.636.693.401.045-.25.468c-.945 1.78-1.073 1.999-1.368 2.248-.371.317-.598.385-1.679.49-1.384.128-1.792.257-2.224.686-.31.302-.544.77-.794 1.577-.302.95-.529 1.109-.998.694-.408-.355-.635-.724-.718-1.192-.091-.49-.227-.724-.741-1.26-.53-.558-.999-.867-1.377-.927-.181-.03-.393-.083-.461-.121-.129-.06-.363-.438-.363-.573 0-.09 1.331-.71 2.322-1.079.983-.362 2.51-.77 3.546-.935 1.422-.226 3.381-.28 4.704-.12zm8.47 3.229c.484.331.786.709 2.14 2.7.522.762.756.86 1.308.535l.318-.18.439.558c1.671 2.111 2.835 4.435 3.493 6.961.189.702.492 2.361.447 2.407-.016.015-.22.075-.462.143-.733.188-.975.105-1.747-.588-.763-.687-1.557-1.147-1.936-1.11-.211.023-.242.054-.257.25-.015.203.068.301.825.943 1.678 1.418 1.799 1.576 1.799 2.247 0 .468-.196 1.049-.408 1.184-.083.053-.393.129-.688.159-.635.06-.953.188-1.376.535-.318.257-.394.446-.28.732.022.068.325.324.673.573.665.483 1.134.95 1.248 1.252.105.264.09.838-.016 1.034-.113.226-.302.347-.937.626-.734.317-1.127.648-1.369 1.154-.31.664-.34.845-.401 2.76-.038 1.358-.083 1.894-.174 2.135-.34.905-1.86 2.225-4.144 3.598-1.172.71-1.376.732-1.414.174-.015-.227.06-.68.219-1.245.446-1.66.461-1.773.416-2.293-.023-.28-.136-.8-.242-1.17-.522-1.757-.703-2.692-.711-3.574-.007-.657-.128-1.471-.257-1.728-.196-.37-.386-.4-2.049-.347-1.369.046-1.566.038-2.095-.098-1.013-.264-1.588-.716-2.034-1.621-.62-1.283-.749-2.791-.325-4.05.529-1.562 1.928-3.388 3.266-4.255.863-.558 1.573-.807 2.269-.807.333 0 .726.053.923.12.325.114 1.384.725 1.853 1.064.862.626 2.215.883 3.183.596.469-.136 1.717-1.124 1.755-1.388.075-.505-1.082-.973-2.594-1.04-.514-.023-.991-.084-1.097-.144-.106-.053-.408-.28-.68-.513-.613-.52-1.029-.754-1.664-.913-.794-.203-1.399-.03-2.095.596-.605.543-1.618.95-2.389.95-.5 0-.734-.226-.734-.716 0-.287.038-.392.212-.566.264-.264.597-.354 1.527-.414.394-.03.779-.068.855-.091.257-.068.144-.415-.386-1.154-.484-.686-.537-.732-1.164-1.056-1.097-.573-1.233-.762-.817-1.23.265-.309.824-.505 1.414-.505.666 0 .991.136 1.52.641.257.25.545.475.643.506.272.075.771.068 1.021-.023.408-.143.408-.317-.015-1.463a6.677 6.677 0 0 1-.303-1.026c-.068-.445.098-.883.431-1.132.28-.203 2.171-.875 2.518-.89.144 0 .356.076.545.197zm-21.462.58c0 .159.386.43 1.097.785.915.452 1.459 1.086 1.384 1.606-.023.166-.069.181-.908.272-.938.098-1.391.234-1.475.445-.075.196.174.347 1.089.671 1.558.55 2.141.928 2.141 1.403 0 .272-.212.483-.666.679-.423.181-.786.15-1.044-.09-.098-.091-.196-.159-.211-.136-.015.015-.083.332-.144.709-.257 1.403-.34 1.53-1.172 1.803-.711.24-1.422.7-2.004 1.312-.552.58-.696.92-.802 1.87-.106.936-.075 1.041.53 1.66.37.392.446.513.446.74 0 .369-.129.61-.416.768-.401.212-.582.114-.908-.512-.915-1.743-1.58-2.233-2.2-1.615-.462.46-.265 1.072.559 1.713 1.225.95 1.505 1.342 1.619 2.247.037.31.106.626.143.702.144.264.545.37 1.399.354l.802-.007.416.286c.537.37 1.323 1.222 2.049 2.218.318.438.741.988.946 1.23.416.482 1.391 1.154 2.019 1.395.227.083.658.241.96.354.651.234 1.127.65 1.195 1.041.06.31-.008.46-.454.958-.181.204-.484.694-.673 1.094-.431.898-.643 1.177-1.096 1.456-.507.317-.711.55-1.036 1.199a9.194 9.194 0 0 1-.764 1.177c-.265.324-.477.618-.477.64 0 .031-.053.114-.105.19-.099.128-.144.12-.704-.22-.453-.278-1.482-.972-1.671-1.123-.015-.015-.091-.506-.166-1.094-.242-1.81-.462-2.406-1.097-3.017a5.025 5.025 0 0 1-1.399-2.233c-.151-.49-.159-.618-.106-2.066.046-1.494.046-1.57-.113-1.924-.204-.467-.325-.596-.726-.792-.341-.166-.628-.498-1.52-1.772-1.112-1.577-1.482-2.391-1.762-3.84-.167-.83-.144-1.048.257-2.624.582-2.309 2.004-5.107 3.524-6.94.824-1.003 2.972-3.07 3.191-3.077.03 0 .053.053.053.105z" fill="#EEE"/><path d="m480.352 10.947-46.338 46.338a4.5 4.5 0 0 0 0 6.364l46.338 46.338a4.5 4.5 0 0 0 6.364 0l46.338-46.338a4.499 4.499 0 0 0 0-6.364l-46.338-46.338a4.5 4.5 0 0 0-6.364 0z" stroke="#A7A7A7" stroke-opacity=".3"/><path d="M549.529 126.341v47.619" stroke="url(#q)"/><path d="M549.498 187.566v-17.492" stroke="url(#r)"/><path d="M549.352 172.663a7.126 7.126 0 1 0-.002-14.252 7.126 7.126 0 0 0 .002 14.252z" fill="#ACD4A7"/><path d="M549.352 169.812a4.275 4.275 0 1 0 0-8.55 4.275 4.275 0 0 0 0 8.55z" fill="#389D2D"/><path d="M484.643 241.968a7.126 7.126 0 1 0 0-14.252 7.126 7.126 0 0 0 0 14.252z" fill="#ACD4A7"/><path d="M484.645 239.117a4.275 4.275 0 1 0 0-8.55 4.275 4.275 0 0 0 0 8.55z" fill="#389D2D"/><path d="M419.301 124.397v47.62" stroke="url(#s)"/><path d="M419.275 185.622v-17.493" stroke="url(#t)"/><path d="M419.126 172.663a7.126 7.126 0 1 0-.002-14.252 7.126 7.126 0 0 0 .002 14.252z" fill="#ACD4A7"/><path d="M419.127 169.812a4.275 4.275 0 1 0 0-8.55 4.275 4.275 0 0 0 0 8.55z" fill="#389D2D"/><path d="M409 293.504h150a4.5 4.5 0 0 1 4.5 4.5v36a4.5 4.5 0 0 1-4.5 4.5H409a4.5 4.5 0 0 1-4.5-4.5v-36a4.5 4.5 0 0 1 4.5-4.5z" fill="#F9F9F9"/><path d="M409 293.504h150a4.5 4.5 0 0 1 4.5 4.5v36a4.5 4.5 0 0 1-4.5 4.5H409a4.5 4.5 0 0 1-4.5-4.5v-36a4.5 4.5 0 0 1 4.5-4.5z" stroke="#389D2D"/><path d="M427.617 313.004a.254.254 0 0 1-.204-.084.303.303 0 0 1-.072-.204v-7.824c0-.088.024-.156.072-.204a.278.278 0 0 1 .204-.084h.624a.24.24 0 0 1 .192.084.254.254 0 0 1 .084.204v6.204l4.476-6.324c.024-.032.056-.068.096-.108a.31.31 0 0 1 .204-.06h.588a.24.24 0 0 1 .192.084.254.254 0 0 1 .084.204v7.836c0 .08-.028.148-.084.204a.26.26 0 0 1-.192.072h-.612a.303.303 0 0 1-.204-.072.278.278 0 0 1-.084-.204v-6.156l-4.464 6.264a.839.839 0 0 1-.096.108.31.31 0 0 1-.204.06h-.6zm10.994.12c-.568 0-1.06-.108-1.476-.324a2.351 2.351 0 0 1-.948-.948c-.224-.416-.344-.912-.36-1.488a7.57 7.57 0 0 1-.012-.48c0-.2.004-.36.012-.48.016-.576.136-1.068.36-1.476.224-.416.54-.732.948-.948.416-.224.908-.336 1.476-.336.464 0 .86.064 1.188.192.336.128.612.292.828.492.216.2.376.416.48.648.112.232.172.452.18.66a.21.21 0 0 1-.072.192.303.303 0 0 1-.204.072h-.576c-.08 0-.14-.016-.18-.048a.664.664 0 0 1-.12-.192c-.144-.392-.34-.668-.588-.828-.248-.16-.556-.24-.924-.24-.48 0-.872.148-1.176.444-.296.296-.456.772-.48 1.428a14.7 14.7 0 0 0 0 .84c.024.664.184 1.144.48 1.44.304.288.696.432 1.176.432.368 0 .676-.08.924-.24.248-.16.444-.436.588-.828a.495.495 0 0 1 .12-.18c.04-.04.1-.06.18-.06h.576c.08 0 .148.024.204.072a.21.21 0 0 1 .072.192 1.75 1.75 0 0 1-.108.516 1.992 1.992 0 0 1-.312.54 2.296 2.296 0 0 1-.516.48c-.208.136-.46.248-.756.336-.288.08-.616.12-.984.12zm6.621 0c-.568 0-1.06-.108-1.476-.324a2.351 2.351 0 0 1-.948-.948c-.224-.416-.344-.912-.36-1.488a7.57 7.57 0 0 1-.012-.48c0-.2.004-.36.012-.48.016-.576.136-1.068.36-1.476.224-.416.54-.732.948-.948.416-.224.908-.336 1.476-.336.464 0 .86.064 1.188.192.336.128.612.292.828.492.216.2.376.416.48.648.112.232.172.452.18.66a.21.21 0 0 1-.072.192.303.303 0 0 1-.204.072h-.576c-.08 0-.14-.016-.18-.048a.664.664 0 0 1-.12-.192c-.144-.392-.34-.668-.588-.828-.248-.16-.556-.24-.924-.24-.48 0-.872.148-1.176.444-.296.296-.456.772-.48 1.428a14.7 14.7 0 0 0 0 .84c.024.664.184 1.144.48 1.44.304.288.696.432 1.176.432.368 0 .676-.08.924-.24.248-.16.444-.436.588-.828a.495.495 0 0 1 .12-.18c.04-.04.1-.06.18-.06h.576c.08 0 .148.024.204.072a.21.21 0 0 1 .072.192 1.75 1.75 0 0 1-.108.516 1.992 1.992 0 0 1-.312.54 2.296 2.296 0 0 1-.516.48c-.208.136-.46.248-.756.336-.288.08-.616.12-.984.12zm3.801-.12a.278.278 0 0 1-.204-.084.278.278 0 0 1-.084-.204v-.444c0-.168.084-.256.252-.264.248-.008.456-.124.624-.348.168-.232.296-.596.384-1.092.088-.504.132-1.168.132-1.992v-1.536a.26.26 0 0 1 .072-.192.278.278 0 0 1 .204-.084h3.816a.24.24 0 0 1 .192.084.24.24 0 0 1 .084.192v5.688c0 .08-.028.148-.084.204a.26.26 0 0 1-.192.072h-.576a.26.26 0 0 1-.192-.072.303.303 0 0 1-.072-.204v-5.004h-2.16v.984c0 .768-.044 1.428-.132 1.98-.088.544-.224.988-.408 1.332-.176.336-.404.584-.684.744-.272.16-.596.24-.972.24zm9.745.12c-.824 0-1.48-.252-1.968-.756-.488-.512-.756-1.208-.804-2.088a5.34 5.34 0 0 1-.012-.396c0-.168.004-.304.012-.408.032-.568.164-1.064.396-1.488.232-.432.548-.764.948-.996.408-.232.884-.348 1.428-.348.608 0 1.116.128 1.524.384.416.256.732.62.948 1.092.216.472.324 1.024.324 1.656v.204a.254.254 0 0 1-.084.204.26.26 0 0 1-.192.072h-4.152v.108c.016.328.088.636.216.924.128.28.312.508.552.684.24.176.528.264.864.264.288 0 .528-.044.72-.132a1.96 1.96 0 0 0 .468-.288c.12-.112.2-.196.24-.252.072-.104.128-.164.168-.18a.388.388 0 0 1 .192-.036h.576a.26.26 0 0 1 .192.072c.056.04.08.1.072.18-.008.12-.072.268-.192.444-.12.168-.292.336-.516.504a3.006 3.006 0 0 1-.816.42c-.32.104-.688.156-1.104.156zm-1.632-3.696h3.288v-.036c0-.36-.068-.68-.204-.96a1.545 1.545 0 0 0-1.452-.912c-.344 0-.64.084-.888.252-.24.16-.424.38-.552.66-.128.28-.192.6-.192.96v.036zm5.503 4.896a.278.278 0 0 1-.204-.084.26.26 0 0 1-.072-.192v-1.728a.26.26 0 0 1 .072-.192.278.278 0 0 1 .204-.084h.06c.216-.008.4-.128.552-.36.152-.24.268-.612.348-1.116.08-.512.12-1.176.12-1.992v-1.536a.26.26 0 0 1 .072-.192.278.278 0 0 1 .204-.084h3.828a.24.24 0 0 1 .192.084.24.24 0 0 1 .084.192v4.98h.564c.088 0 .156.028.204.084a.26.26 0 0 1 .072.192v1.752a.26.26 0 0 1-.072.192.254.254 0 0 1-.204.084h-.564a.278.278 0 0 1-.204-.084.26.26 0 0 1-.072-.192v-1.044h-4.344v1.044a.24.24 0 0 1-.084.192.24.24 0 0 1-.192.084h-.564zm1.488-2.28 2.856-.024v-4.296h-2.172v.984c0 .848-.06 1.544-.18 2.088-.12.536-.288.952-.504 1.248zm8.623 1.08c-.608 0-1.116-.116-1.524-.348a2.35 2.35 0 0 1-.936-.96 3.367 3.367 0 0 1-.36-1.416 9.083 9.083 0 0 1-.012-.516 8.7 8.7 0 0 1 .012-.516c.024-.536.144-1.008.36-1.416.224-.408.54-.728.948-.96.408-.232.912-.348 1.512-.348s1.104.116 1.512.348c.408.232.72.552.936.96.224.408.348.88.372 1.416.008.128.012.3.012.516 0 .208-.004.38-.012.516-.024.528-.144 1-.36 1.416a2.35 2.35 0 0 1-.936.96c-.408.232-.916.348-1.524.348zm0-.924c.496 0 .892-.156 1.188-.468.296-.32.456-.784.48-1.392.008-.12.012-.272.012-.456s-.004-.336-.012-.456c-.024-.608-.184-1.068-.48-1.38-.296-.32-.692-.48-1.188-.48s-.896.16-1.2.48c-.296.312-.452.772-.468 1.38-.008.12-.012.272-.012.456s.004.336.012.456c.016.608.172 1.072.468 1.392.304.312.704.468 1.2.468zm4.611.804a.303.303 0 0 1-.204-.072.303.303 0 0 1-.072-.204v-5.688a.26.26 0 0 1 .072-.192.278.278 0 0 1 .204-.084h2.496c.752 0 1.316.152 1.692.456.384.304.576.712.576 1.224 0 .36-.068.632-.204.816-.136.184-.328.34-.576.468.304.128.532.336.684.624.16.28.24.572.24.876 0 .576-.204 1.016-.612 1.32-.408.304-.976.456-1.704.456h-2.592zm.828-.876h1.668c.384 0 .692-.072.924-.216.24-.152.36-.38.36-.684 0-.32-.108-.552-.324-.696-.216-.152-.536-.228-.96-.228h-1.668v1.824zm0-2.712h1.596c.384 0 .688-.084.912-.252a.824.824 0 0 0 .348-.708c0-.312-.116-.524-.348-.636-.224-.12-.528-.18-.912-.18h-1.596v1.776zm7.363 3.708c-.4 0-.764-.08-1.092-.24a2.112 2.112 0 0 1-.792-.648c-.2-.272-.3-.58-.3-.924 0-.552.224-.992.672-1.32.448-.328 1.032-.544 1.752-.648l1.788-.252v-.348c0-.384-.112-.684-.336-.9-.216-.216-.572-.324-1.068-.324-.36 0-.652.072-.876.216a1.17 1.17 0 0 0-.456.552c-.048.12-.132.18-.252.18h-.54c-.088 0-.156-.024-.204-.072a.322.322 0 0 1-.06-.192c0-.12.044-.268.132-.444.096-.176.24-.348.432-.516.192-.168.436-.308.732-.42.304-.12.672-.18 1.104-.18.48 0 .884.064 1.212.192.328.12.584.284.768.492.192.208.328.444.408.708.088.264.132.532.132.804v3.888c0 .08-.028.148-.084.204a.26.26 0 0 1-.192.072h-.552c-.088 0-.156-.024-.204-.072a.303.303 0 0 1-.072-.204v-.516a2.345 2.345 0 0 1-.42.432 2.434 2.434 0 0 1-.66.348 3.102 3.102 0 0 1-.972.132zm.252-.9c.328 0 .628-.068.9-.204.272-.144.484-.364.636-.66.16-.296.24-.668.24-1.116v-.336l-1.392.204c-.568.08-.996.216-1.284.408-.288.184-.432.42-.432.708 0 .224.064.412.192.564.136.144.304.252.504.324.208.072.42.108.636.108zm6.537.78a.303.303 0 0 1-.204-.072.303.303 0 0 1-.072-.204v-5.004h-2.088a.303.303 0 0 1-.204-.072.303.303 0 0 1-.072-.204v-.408a.26.26 0 0 1 .072-.192.278.278 0 0 1 .204-.084h5.28a.24.24 0 0 1 .192.084.24.24 0 0 1 .084.192v.408c0 .08-.028.148-.084.204a.26.26 0 0 1-.192.072h-2.088v5.004c0 .08-.024.148-.072.204-.048.048-.116.072-.204.072h-.552zm6.716.12c-.824 0-1.48-.252-1.968-.756-.488-.512-.756-1.208-.804-2.088a5.34 5.34 0 0 1-.012-.396c0-.168.004-.304.012-.408.032-.568.164-1.064.396-1.488.232-.432.548-.764.948-.996.408-.232.884-.348 1.428-.348.608 0 1.116.128 1.524.384.416.256.732.62.948 1.092.216.472.324 1.024.324 1.656v.204a.254.254 0 0 1-.084.204.26.26 0 0 1-.192.072h-4.152v.108c.016.328.088.636.216.924.128.28.312.508.552.684.24.176.528.264.864.264.288 0 .528-.044.72-.132a1.96 1.96 0 0 0 .468-.288c.12-.112.2-.196.24-.252.072-.104.128-.164.168-.18a.388.388 0 0 1 .192-.036h.576a.26.26 0 0 1 .192.072c.056.04.08.1.072.18-.008.12-.072.268-.192.444-.12.168-.292.336-.516.504a3.006 3.006 0 0 1-.816.42c-.32.104-.688.156-1.104.156zm-1.632-3.696h3.288v-.036c0-.36-.068-.68-.204-.96a1.545 1.545 0 0 0-1.452-.912c-.344 0-.64.084-.888.252-.24.16-.424.38-.552.66-.128.28-.192.6-.192.96v.036zm5.516 3.576a.278.278 0 0 1-.204-.084.278.278 0 0 1-.084-.204v-.444c0-.168.084-.256.252-.264.248-.008.456-.124.624-.348.168-.232.296-.596.384-1.092.088-.504.132-1.168.132-1.992v-1.536a.26.26 0 0 1 .072-.192.278.278 0 0 1 .204-.084h3.816a.24.24 0 0 1 .192.084.24.24 0 0 1 .084.192v5.688c0 .08-.028.148-.084.204a.26.26 0 0 1-.192.072h-.576a.26.26 0 0 1-.192-.072.303.303 0 0 1-.072-.204v-5.004h-2.16v.984c0 .768-.044 1.428-.132 1.98-.088.544-.224.988-.408 1.332-.176.336-.404.584-.684.744-.272.16-.596.24-.972.24zm7.537 0a.303.303 0 0 1-.204-.072.303.303 0 0 1-.072-.204v-5.688a.26.26 0 0 1 .072-.192.278.278 0 0 1 .204-.084h.576a.24.24 0 0 1 .192.084.24.24 0 0 1 .084.192v1.764h1.344c.816 0 1.412.192 1.788.576.376.384.564.904.564 1.56 0 .704-.208 1.224-.624 1.56-.416.336-1.04.504-1.872.504h-2.052zm.84-.9h1.26c.48 0 .832-.084 1.056-.252.224-.176.336-.48.336-.912 0-.416-.108-.724-.324-.924-.216-.208-.572-.312-1.068-.312h-1.26v2.4zm7.416 1.02c-.568 0-1.06-.108-1.476-.324a2.351 2.351 0 0 1-.948-.948c-.224-.416-.344-.912-.36-1.488a7.57 7.57 0 0 1-.012-.48c0-.2.004-.36.012-.48.016-.576.136-1.068.36-1.476.224-.416.54-.732.948-.948.416-.224.908-.336 1.476-.336.464 0 .86.064 1.188.192.336.128.612.292.828.492.216.2.376.416.48.648.112.232.172.452.18.66a.21.21 0 0 1-.072.192.303.303 0 0 1-.204.072h-.576c-.08 0-.14-.016-.18-.048a.664.664 0 0 1-.12-.192c-.144-.392-.34-.668-.588-.828-.248-.16-.556-.24-.924-.24-.48 0-.872.148-1.176.444-.296.296-.456.772-.48 1.428a14.7 14.7 0 0 0 0 .84c.024.664.184 1.144.48 1.44.304.288.696.432 1.176.432.368 0 .676-.08.924-.24.248-.16.444-.436.588-.828a.495.495 0 0 1 .12-.18c.04-.04.1-.06.18-.06h.576c.08 0 .148.024.204.072a.21.21 0 0 1 .072.192 1.75 1.75 0 0 1-.108.516 1.992 1.992 0 0 1-.312.54 2.296 2.296 0 0 1-.516.48c-.208.136-.46.248-.756.336-.288.08-.616.12-.984.12zm4.377-.12a.303.303 0 0 1-.204-.072.303.303 0 0 1-.072-.204v-5.688a.26.26 0 0 1 .072-.192.278.278 0 0 1 .204-.084h.564a.24.24 0 0 1 .192.084.24.24 0 0 1 .084.192v2.304h1.092l1.62-2.4c.04-.056.084-.1.132-.132a.341.341 0 0 1 .192-.048h.624c.072 0 .132.016.18.048.048.032.072.08.072.144 0 .016-.008.04-.024.072a.303.303 0 0 1-.036.072l-1.8 2.652 2.04 2.904c.04.048.06.1.06.156a.162.162 0 0 1-.072.144.262.262 0 0 1-.168.048h-.732a.318.318 0 0 1-.18-.048.517.517 0 0 1-.132-.132l-1.764-2.508h-1.104v2.412c0 .08-.028.148-.084.204a.26.26 0 0 1-.192.072h-.564zm8.421.12c-.608 0-1.116-.116-1.524-.348a2.35 2.35 0 0 1-.936-.96 3.367 3.367 0 0 1-.36-1.416 9.083 9.083 0 0 1-.012-.516 8.7 8.7 0 0 1 .012-.516c.024-.536.144-1.008.36-1.416.224-.408.54-.728.948-.96.408-.232.912-.348 1.512-.348s1.104.116 1.512.348c.408.232.72.552.936.96.224.408.348.88.372 1.416.008.128.012.3.012.516 0 .208-.004.38-.012.516-.024.528-.144 1-.36 1.416a2.35 2.35 0 0 1-.936.96c-.408.232-.916.348-1.524.348zm0-.924c.496 0 .892-.156 1.188-.468.296-.32.456-.784.48-1.392.008-.12.012-.272.012-.456s-.004-.336-.012-.456c-.024-.608-.184-1.068-.48-1.38-.296-.32-.692-.48-1.188-.48s-.896.16-1.2.48c-.296.312-.452.772-.468 1.38-.008.12-.012.272-.012.456s.004.336.012.456c.016.608.172 1.072.468 1.392.304.312.704.468 1.2.468zm6.818.924c-.824 0-1.48-.252-1.968-.756-.488-.512-.756-1.208-.804-2.088a5.34 5.34 0 0 1-.012-.396c0-.168.004-.304.012-.408.032-.568.164-1.064.396-1.488.232-.432.548-.764.948-.996.408-.232.884-.348 1.428-.348.608 0 1.116.128 1.524.384.416.256.732.62.948 1.092.216.472.324 1.024.324 1.656v.204a.254.254 0 0 1-.084.204.26.26 0 0 1-.192.072h-4.152v.108c.016.328.088.636.216.924.128.28.312.508.552.684.24.176.528.264.864.264.288 0 .528-.044.72-.132a1.96 1.96 0 0 0 .468-.288c.12-.112.2-.196.24-.252.072-.104.128-.164.168-.18a.388.388 0 0 1 .192-.036h.576a.26.26 0 0 1 .192.072c.056.04.08.1.072.18-.008.12-.072.268-.192.444-.12.168-.292.336-.516.504a3.006 3.006 0 0 1-.816.42c-.32.104-.688.156-1.104.156zm-1.632-3.696h3.288v-.036c0-.36-.068-.68-.204-.96a1.545 1.545 0 0 0-1.452-.912c-.344 0-.64.084-.888.252-.24.16-.424.38-.552.66-.128.28-.192.6-.192.96v.036zm-78.611 19.856a.278.278 0 0 1-.204-.084.26.26 0 0 1-.072-.192v-7.968a.26.26 0 0 1 .072-.192.278.278 0 0 1 .204-.084h.552a.24.24 0 0 1 .192.084.24.24 0 0 1 .084.192v.528c.192-.264.448-.484.768-.66.32-.176.72-.264 1.2-.264.448 0 .828.076 1.14.228.32.152.58.36.78.624.208.264.364.564.468.9.104.336.16.696.168 1.08a6.555 6.555 0 0 1 0 .816 4.01 4.01 0 0 1-.168 1.08c-.104.336-.26.636-.468.9-.2.256-.46.464-.78.624-.312.152-.692.228-1.14.228-.464 0-.856-.084-1.176-.252a2.547 2.547 0 0 1-.768-.648v2.784a.26.26 0 0 1-.072.192.254.254 0 0 1-.204.084h-.576zm2.544-3.132c.416 0 .74-.088.972-.264.24-.184.412-.42.516-.708.104-.296.164-.612.18-.948.008-.232.008-.464 0-.696a3.188 3.188 0 0 0-.18-.936 1.45 1.45 0 0 0-.516-.708c-.232-.184-.556-.276-.972-.276-.392 0-.712.092-.96.276-.24.184-.42.42-.54.708-.112.28-.176.568-.192.864a8.066 8.066 0 0 0 0 .924c.008.28.072.556.192.828.128.272.316.496.564.672.248.176.56.264.936.264zm6.057.972c-.4 0-.764-.08-1.092-.24a2.112 2.112 0 0 1-.792-.648c-.2-.272-.3-.58-.3-.924 0-.552.224-.992.672-1.32.448-.328 1.032-.544 1.752-.648l1.788-.252v-.348c0-.384-.112-.684-.336-.9-.216-.216-.572-.324-1.068-.324-.36 0-.652.072-.876.216a1.17 1.17 0 0 0-.456.552c-.048.12-.132.18-.252.18h-.54c-.088 0-.156-.024-.204-.072a.322.322 0 0 1-.06-.192c0-.12.044-.268.132-.444.096-.176.24-.348.432-.516.192-.168.436-.308.732-.42.304-.12.672-.18 1.104-.18.48 0 .884.064 1.212.192.328.12.584.284.768.492.192.208.328.444.408.708.088.264.132.532.132.804v3.888c0 .08-.028.148-.084.204a.26.26 0 0 1-.192.072h-.552c-.088 0-.156-.024-.204-.072a.303.303 0 0 1-.072-.204v-.516a2.345 2.345 0 0 1-.42.432 2.434 2.434 0 0 1-.66.348 3.102 3.102 0 0 1-.972.132zm.252-.9c.328 0 .628-.068.9-.204.272-.144.484-.364.636-.66.16-.296.24-.668.24-1.116v-.336l-1.392.204c-.568.08-.996.216-1.284.408-.288.184-.432.42-.432.708 0 .224.064.412.192.564.136.144.304.252.504.324.208.072.42.108.636.108zm6.801.9c-.472 0-.872-.056-1.2-.168-.32-.12-.58-.268-.78-.444a1.88 1.88 0 0 1-.42-.564 1.57 1.57 0 0 1-.144-.552c0-.072.024-.128.072-.168a.23.23 0 0 1 .168-.072h.564c.072 0 .132.02.18.06.048.032.084.092.108.18a.98.98 0 0 0 .552.636c.272.12.604.18.996.18.256 0 .492-.032.708-.096.216-.072.384-.184.504-.336a.846.846 0 0 0 .192-.564c0-.328-.096-.576-.288-.744-.184-.168-.472-.252-.864-.252h-.66a.26.26 0 0 1-.192-.072.26.26 0 0 1-.072-.192v-.324c0-.072.024-.132.072-.18a.24.24 0 0 1 .192-.084h.588c.328 0 .58-.064.756-.192.176-.128.264-.332.264-.612 0-.168-.04-.328-.12-.48a.889.889 0 0 0-.408-.372c-.184-.104-.44-.156-.768-.156-.464 0-.792.08-.984.24-.184.152-.316.38-.396.684a.354.354 0 0 1-.12.18c-.04.032-.1.048-.18.048h-.54a.272.272 0 0 1-.18-.06.207.207 0 0 1-.072-.168c.008-.24.06-.468.156-.684.104-.216.256-.412.456-.588.208-.176.464-.312.768-.408a3.457 3.457 0 0 1 1.092-.156c.6 0 1.072.092 1.416.276.352.184.6.412.744.684.152.264.228.528.228.792 0 .312-.052.572-.156.78-.096.208-.288.384-.576.528.36.136.608.34.744.612.136.272.208.588.216.948.008.416-.104.76-.336 1.032-.224.272-.532.48-.924.624a4.131 4.131 0 0 1-1.356.204zm4.245-.12a.303.303 0 0 1-.204-.072.303.303 0 0 1-.072-.204v-5.688a.26.26 0 0 1 .072-.192.278.278 0 0 1 .204-.084h2.496c.752 0 1.316.152 1.692.456.384.304.576.712.576 1.224 0 .36-.068.632-.204.816-.136.184-.328.34-.576.468.304.128.532.336.684.624.16.28.24.572.24.876 0 .576-.204 1.016-.612 1.32-.408.304-.976.456-1.704.456h-2.592zm.828-.876h1.668c.384 0 .692-.072.924-.216.24-.152.36-.38.36-.684 0-.32-.108-.552-.324-.696-.216-.152-.536-.228-.96-.228h-1.668v1.824zm0-2.712h1.596c.384 0 .688-.084.912-.252a.824.824 0 0 0 .348-.708c0-.312-.116-.524-.348-.636-.224-.12-.528-.18-.912-.18h-1.596v1.776zm5.886 3.588a.287.287 0 0 1-.192-.072.272.272 0 0 1-.072-.18v-5.712a.26.26 0 0 1 .072-.192.278.278 0 0 1 .204-.084h.576a.24.24 0 0 1 .192.084.26.26 0 0 1 .072.192v5.088l-.312-.324 3.636-4.86a.619.619 0 0 1 .132-.12.272.272 0 0 1 .18-.06h.552a.23.23 0 0 1 .168.072.216.216 0 0 1 .084.168v5.724c0 .08-.028.148-.084.204a.26.26 0 0 1-.192.072h-.564c-.088 0-.156-.024-.204-.072a.303.303 0 0 1-.072-.204v-4.788l.336-.012-3.66 4.896a.849.849 0 0 1-.12.12.29.29 0 0 1-.192.06h-.54zm8.957 0a.303.303 0 0 1-.204-.072.303.303 0 0 1-.072-.204v-5.004h-2.088a.303.303 0 0 1-.204-.072.303.303 0 0 1-.072-.204v-.408a.26.26 0 0 1 .072-.192.278.278 0 0 1 .204-.084h5.28a.24.24 0 0 1 .192.084.24.24 0 0 1 .084.192v.408c0 .08-.028.148-.084.204a.26.26 0 0 1-.192.072h-2.088v5.004c0 .08-.024.148-.072.204-.048.048-.116.072-.204.072h-.552zm4.496 0a.287.287 0 0 1-.192-.072.272.272 0 0 1-.072-.18v-5.712a.26.26 0 0 1 .072-.192.278.278 0 0 1 .204-.084h.576a.24.24 0 0 1 .192.084.26.26 0 0 1 .072.192v5.088l-.312-.324 3.636-4.86a.619.619 0 0 1 .132-.12.272.272 0 0 1 .18-.06h.552a.23.23 0 0 1 .168.072.216.216 0 0 1 .084.168v5.724c0 .08-.028.148-.084.204a.26.26 0 0 1-.192.072h-.564c-.088 0-.156-.024-.204-.072a.303.303 0 0 1-.072-.204v-4.788l.336-.012-3.66 4.896a.849.849 0 0 1-.12.12.29.29 0 0 1-.192.06h-.54zm9.533.12c-.824 0-1.48-.252-1.968-.756-.488-.512-.756-1.208-.804-2.088a5.34 5.34 0 0 1-.012-.396c0-.168.004-.304.012-.408.032-.568.164-1.064.396-1.488.232-.432.548-.764.948-.996.408-.232.884-.348 1.428-.348.608 0 1.116.128 1.524.384.416.256.732.62.948 1.092.216.472.324 1.024.324 1.656v.204a.254.254 0 0 1-.084.204.26.26 0 0 1-.192.072h-4.152v.108c.016.328.088.636.216.924.128.28.312.508.552.684.24.176.528.264.864.264.288 0 .528-.044.72-.132a1.96 1.96 0 0 0 .468-.288c.12-.112.2-.196.24-.252.072-.104.128-.164.168-.18a.388.388 0 0 1 .192-.036h.576a.26.26 0 0 1 .192.072c.056.04.08.1.072.18-.008.12-.072.268-.192.444-.12.168-.292.336-.516.504a3.006 3.006 0 0 1-.816.42c-.32.104-.688.156-1.104.156zm-1.632-3.696h3.288v-.036c0-.36-.068-.68-.204-.96a1.545 1.545 0 0 0-1.452-.912c-.344 0-.64.084-.888.252-.24.16-.424.38-.552.66-.128.28-.192.6-.192.96v.036z" fill="#4C4C4C"/><path d="m484 281.004 2.887-5h-5.774l2.887 5zm0-23.333a2.667 2.667 0 1 0 0-5.334 2.667 2.667 0 0 0 0 5.334zm0 18.833h.5v-21.5h-1v21.5h.5z" fill="url(#u)"/></g><g clip-path="url(#v)"><path fill-rule="evenodd" clip-rule="evenodd" d="M68.045 79.412c4.323-2.49 11.332-2.49 15.655 0l54.799 31.581a4.998 4.998 0 0 1 2.503 4.266l.967 72.502c0 4.983-3.504 11.042-7.827 13.533l-56.777 32.272a5 5 0 0 1-4.968-.015l-54.769-31.564c-4.323-2.491-7.827-8.55-7.827-13.533l.001-71.652c0-1.765.931-3.4 2.45-4.301l55.793-33.089zm14.09.903 54.799 31.581a5 5 0 0 1 2.503 4.265l.967 72.502-.008.376c-.168 3.911-2.904 8.52-6.254 10.451l-56.777 32.271a4.998 4.998 0 0 1-4.968-.015l-54.769-31.563c-3.35-1.931-6.086-6.54-6.254-10.45l-.008-.377v-71.652c0-1.765.931-3.4 2.45-4.3l55.795-33.09.33-.18c3.476-1.811 8.843-1.75 12.194.18z" fill="url(#w)"/><path d="M139.437 116.161a5 5 0 0 0-2.503-4.265l-54.8-31.581c-3.35-1.931-8.717-1.992-12.193-.182l-.33.182-55.795 33.089a4.999 4.999 0 0 0-2.45 4.3v71.652l.008.377c.168 3.91 2.904 8.519 6.254 10.45l54.77 31.563a4.998 4.998 0 0 0 4.967.015l56.777-32.271c3.35-1.931 6.086-6.54 6.254-10.451l.008-.376-.967-72.502z" fill="url(#x)"/><path d="M139.437 116.161a5 5 0 0 0-2.503-4.265l-54.8-31.581c-3.35-1.931-8.717-1.992-12.193-.182l-.33.182-55.795 33.089a4.999 4.999 0 0 0-2.45 4.3v71.652l.008.377c.168 3.91 2.904 8.519 6.254 10.45l54.77 31.563a4.998 4.998 0 0 0 4.967.015l56.777-32.271c3.35-1.931 6.086-6.54 6.254-10.451l.008-.376-.967-72.502z" fill="#F9F9F9"/><path d="m23.312 116.143 49.01-28.297c2.153-1.242 5.643-1.242 7.795 0l47.506 27.428c2.153 1.243 2.153 3.257 0 4.5l-49.01 28.296c-2.153 1.243-5.642 1.243-7.795 0l-47.506-27.427c-2.085-1.204-2.15-3.133-.195-4.382l.195-.118z" fill="#F9F9F9" stroke="#DDD"/><path d="M71.512 3.893 18.12 57.286a4.5 4.5 0 0 0 0 6.364l53.392 53.392a4.5 4.5 0 0 0 6.364 0l53.392-53.392a4.499 4.499 0 0 0 0-6.364L77.876 3.893a4.5 4.5 0 0 0-6.364 0z" fill="url(#y)" stroke="url(#z)"/><path d="M71.583 10.948 25.245 57.286a4.5 4.5 0 0 0 0 6.364l46.338 46.338a4.5 4.5 0 0 0 6.364 0l46.338-46.338a4.5 4.5 0 0 0 0-6.364L77.947 10.948a4.5 4.5 0 0 0-6.364 0z" stroke="#A7A7A7" stroke-opacity=".3"/><path d="M87.514 70.444c.003.303-.075.698-.156 1.024-.568 2.293-3.088 4.866-6.636 4.632-3.215-.212-5.833-1.755-5.833-3.92 0-2.164 2.612-3.92 5.834-3.92 3.221 0 6.77.02 6.791 2.184z" fill="#F9F9F9"/><path d="M80.72 68.624c-1.73 0-5.68.479-6.586.479-1.601 0-2.9 1.005-2.9 2.245 0 .596.306 1.135.796 1.537 0 0 1.075 1.078 3.012.56.847-.226 2.226-1.908 4.653-2.176 1.21-.133 3.474.802 7.455.825.17-.368.206-.624.206-.624 0-2.166-3.414-2.846-6.636-2.846z" fill="#A9A9A9"/><path d="M87.356 71.468s2.334-.473 3.785-2.382c1.692-2.227 1.47-4.609 1.47-4.609 1.714-3.207-.534-6.213-.534-6.213-.224-3.385-2.317-4.788-2.317-4.788-1.358-3.229-4.364-4.096-4.364-4.096-2.36-2.761-6.546-2.673-6.546-2.673s-3.923-1.437-9.308.179c-.89.267-3.875.89-6.057 2.226-6.88 4.212-7.4 10.779-7.304 11.846.534 5.968 4.72 7.037 7.393 7.66.623 1.692 2.916 4.81 7.036 3.652 5.077-.89 7.215-2.405 8.462-2.405 1.247 0 4.721 1.336 8.284 1.603z" fill="#EEE"/><path d="M74.516 61.873c2.489-1.341 3.838-1.216 5.028-1.108.379.034.737.06 1.1.059 2.12-.048 3.837-.942 4.597-1.807a.535.535 0 0 0-.803-.706c-.586.667-2.03 1.403-3.82 1.444-.32.01-.642-.023-.975-.054-1.278-.118-2.864-.264-5.634 1.232-.711.383-1.686.526-2.742.633-2.348-3.39-.935-6.342-.531-7.045.04.002.078.015.119.015.427 0 .857-.105 1.246-.325a.534.534 0 0 0-.526-.93 1.524 1.524 0 0 1-2.01-.5.534.534 0 0 0-.898.577c.253.396.61.695 1.013.894-.557 1.131-1.614 4.105.397 7.43-1.415.139-2.832.339-3.941 1.054a7.695 7.695 0 0 0-2.008 1.914c-.672-.115-3.134-.721-3.563-3.453.267-.208.483-.481.616-.819a.534.534 0 1 0-.994-.393.823.823 0 0 1-.485.492.834.834 0 0 1-.687-.074.536.536 0 0 0-.727.207.534.534 0 0 0 .207.727c.304.169.629.254.952.254.04 0 .077-.018.116-.02.509 2.579 2.547 3.712 3.99 4.055a3.954 3.954 0 0 0-.355 1.274.534.534 0 0 0 .486.58l.048.002a.535.535 0 0 0 .532-.488c.115-1.296 1.352-2.65 2.45-3.361 1.031-.664 2.54-.804 4-.94 1.416-.13 2.754-.253 3.802-.82zm13.752-1.607a.535.535 0 0 0 .939.513c.02-.037 1.969-3.687-1.68-6.14a.534.534 0 1 0-.596.887c2.826 1.9 1.4 4.624 1.337 4.74zm-22.154-8.63a.534.534 0 0 0 .434-.223c1.55-2.155 3.696-1.418 3.787-1.384a.535.535 0 0 0 .369-1.002c-1.026-.38-3.396-.5-5.024 1.763a.535.535 0 0 0 .434.846zm13.972-2.018c2.378-.194 3.46 1.53 3.51 1.612a.535.535 0 0 0 .922-.542c-.058-.098-1.433-2.37-4.515-2.136a.536.536 0 0 0-.306.94.535.535 0 0 0 .39.126zm9.78 15.617c-.263-.015-.552.193-.576.488-.002.02-.172 1.838-2.041 2.452a.534.534 0 1 0 .334 1.016c2.535-.832 2.764-3.275 2.773-3.379a.536.536 0 0 0-.49-.577z" fill="#4C4C4C"/><path d="M63.411 60.042a.535.535 0 1 0 1.032.278 1.52 1.52 0 0 1 1.766-1.084.534.534 0 1 0 .219-1.047 2.512 2.512 0 0 0-1.334.092c-1.247-2.13-1.004-4.232-1-4.255a.534.534 0 0 0-1.06-.144c-.014.104-.3 2.475 1.136 4.932a2.565 2.565 0 0 0-.759 1.228zm11.949-2.64a1.143 1.143 0 0 1 1.555.016.534.534 0 0 0 .907-.392.534.534 0 0 0-.162-.376c-.241-.23-.533-.4-.852-.497.317-1.086.192-1.568-.102-2.47a22.033 22.033 0 0 1-.168-.533l-.032-.107c-.39-1.291-.647-2.143.093-3.346a.534.534 0 1 0-.91-.56c-.993 1.612-.628 2.819-.206 4.216l.032.107c.063.206.12.39.174.552.264.814.344 1.086.022 2.07-.404.072-.78.259-1.08.538a.534.534 0 0 0 .729.782zm6.803-3.19c.318 0 .631-.07.918-.205a.534.534 0 1 0-.455-.967 1.143 1.143 0 0 1-1.48-.489.536.536 0 0 0-.992.09.535.535 0 0 0 .051.415c.192.359.479.642.812.839-.573 1.395-.248 2.876.019 3.662a.536.536 0 0 0 1.046-.13.535.535 0 0 0-.034-.211c-.18-.533-.528-1.877-.002-3.02.04.001.078.015.117.015zm5.127 10.077a.53.53 0 0 0-.567-.499 1.952 1.952 0 0 1-2.081-1.82.545.545 0 0 0-.57-.497.534.534 0 0 0-.497.57c.044.63.284 1.199.65 1.662-.86 1.01-1.985 1.298-2.612 1.372-.555.066-1.04.01-1.601-.056-.514-.06-1.096-.127-1.815-.105h-.006c-.021-.305-.094-.75-.326-1.121a.536.536 0 0 0-.905.567c.143.23.17.597.17.775-.539.193-1.005.478-1.426.752-.752.49-1.345.877-2.238.676-.808-.185-1.617-.222-2.303-.126-.107-.268-.276-.59-.537-.836a.534.534 0 1 0-.734.777c.092.087.164.213.223.339-1.179.485-1.77 1.296-1.798 1.336a.534.534 0 0 0 .87.623c.005-.008.591-.794 1.749-1.111.599-.165 1.457-.151 2.294.039.234.053.45.072.661.075.1.233.138.51.144.612a.535.535 0 0 0 .533.505l.029-.001a.534.534 0 0 0 .505-.56 3.205 3.205 0 0 0-.139-.733c.493-.178.922-.457 1.325-.719.611-.398 1.19-.776 1.945-.8.633-.023 1.154.038 1.658.097a8.722 8.722 0 0 0 1.554.065c.097.27.09.632.075.752a.537.537 0 0 0 .531.602.535.535 0 0 0 .53-.465 3.1 3.1 0 0 0-.064-1.048 4.992 4.992 0 0 0 2.507-1.573c.53.328 1.148.483 1.77.442a.534.534 0 0 0 .496-.568z" fill="#4C4C4C"/><path d="M74.037 167.26a7.996 7.996 0 0 1 7.997 7.997 8.08 8.08 0 0 1-1.64 4.858 12.698 12.698 0 0 0-4.538 2.939l-1.819.2a7.997 7.997 0 0 1 0-15.994zm-15.994 31.988v-3.999c0-4.238 6.617-7.717 14.994-7.997-.64 1.56-1 3.239-1 4.998 0 2.579.76 4.998 2 6.998H58.043zM84.8 203.246c-.473 0-.88-.15-1.22-.449a1.82 1.82 0 0 1-.618-1.1l-.236-1.649a4.172 4.172 0 0 1-.643-.3 9.24 9.24 0 0 1-.591-.375l-1.627.65a1.79 1.79 0 0 1-1.313.05 1.92 1.92 0 0 1-1.024-.8l-1.234-2.049a1.524 1.524 0 0 1-.21-1.225c.105-.433.342-.791.71-1.074l1.39-1a2.279 2.279 0 0 1-.026-.338v-.675c0-.108.009-.22.026-.337l-1.39-.999a1.888 1.888 0 0 1-.71-1.075 1.52 1.52 0 0 1 .21-1.224l1.234-2.05a1.918 1.918 0 0 1 1.024-.799c.437-.15.875-.134 1.313.05l1.627.649c.192-.133.394-.258.604-.374.21-.117.42-.217.63-.3l.236-1.65a1.81 1.81 0 0 1 .617-1.099c.342-.3.749-.45 1.22-.45h2.468c.473 0 .88.15 1.221.45.342.3.547.666.617 1.099l.236 1.65c.227.083.442.183.644.3.201.116.398.241.59.374l1.627-.649c.438-.184.875-.2 1.313-.05.437.15.779.416 1.024.799l1.233 2.05c.245.383.315.791.21 1.224a1.888 1.888 0 0 1-.708 1.075l-1.392.999c.018.117.026.23.026.338v.674c0 .109-.017.221-.052.338l1.391 1c.368.283.604.641.71 1.074.104.433.034.841-.21 1.225l-1.26 2.049a1.92 1.92 0 0 1-1.025.8 1.79 1.79 0 0 1-1.312-.05l-1.575-.65a7.365 7.365 0 0 1-.604.375c-.21.116-.42.216-.63.3l-.236 1.649c-.07.433-.276.8-.617 1.1a1.79 1.79 0 0 1-1.22.449H84.8zm1.286-6.497c1.015 0 1.881-.342 2.599-1.025.717-.683 1.076-1.508 1.076-2.474 0-.966-.359-1.791-1.076-2.474-.718-.683-1.584-1.025-2.6-1.025-1.032 0-1.902.342-2.612 1.025-.709.683-1.063 1.508-1.062 2.474 0 .966.355 1.791 1.063 2.474.709.683 1.58 1.025 2.612 1.025z" fill="#389D2D"/><path d="M140.529 126.341v47.619" stroke="url(#A)"/><path d="M140.498 187.566v-17.492" stroke="url(#B)"/><path d="M140.352 172.663a7.126 7.126 0 1 0-.002-14.252 7.126 7.126 0 0 0 .002 14.252z" fill="#ACD4A7"/><path d="M140.352 169.812a4.275 4.275 0 1 0 0-8.55 4.275 4.275 0 0 0 0 8.55z" fill="#389D2D"/><path d="M75.643 241.968a7.126 7.126 0 1 0 0-14.252 7.126 7.126 0 0 0 0 14.252z" fill="#ACD4A7"/><path d="M75.645 239.117a4.275 4.275 0 1 0 0-8.55 4.275 4.275 0 0 0 0 8.55z" fill="#389D2D"/><path d="M10.3 124.397v47.62" stroke="url(#C)"/><path d="M10.273 185.622v-17.493" stroke="url(#D)"/><path d="M10.126 172.663a7.126 7.126 0 1 0-.001-14.252 7.126 7.126 0 0 0 0 14.252z" fill="#ACD4A7"/><path d="M10.127 169.812a4.275 4.275 0 1 0 0-8.55 4.275 4.275 0 0 0 0 8.55z" fill="#389D2D"/><path d="M5 293.504h140a4.5 4.5 0 0 1 4.5 4.5v36a4.5 4.5 0 0 1-4.5 4.5H5a4.5 4.5 0 0 1-4.5-4.5v-36a4.5 4.5 0 0 1 4.5-4.5z" fill="#F9F9F9"/><path d="M5 293.504h140a4.5 4.5 0 0 1 4.5 4.5v36a4.5 4.5 0 0 1-4.5 4.5H5a4.5 4.5 0 0 1-4.5-4.5v-36a4.5 4.5 0 0 1 4.5-4.5z" stroke="#389D2D"/><path d="M59.871 313.004a.303.303 0 0 1-.204-.072.303.303 0 0 1-.072-.204v-7.044H56.62v1.932c0 .96-.052 1.78-.156 2.46-.104.672-.264 1.22-.48 1.644-.216.416-.496.728-.84.936-.336.2-.744.312-1.224.336a.241.241 0 0 1-.204-.072.292.292 0 0 1-.084-.216v-.528c0-.16.084-.252.252-.276.248-.04.468-.148.66-.324.2-.176.368-.436.504-.78.136-.352.24-.8.312-1.344.072-.552.108-1.212.108-1.98v-2.592a.26.26 0 0 1 .072-.192.278.278 0 0 1 .204-.084h4.74c.088 0 .156.028.204.084a.254.254 0 0 1 .084.204v7.836c0 .08-.028.148-.084.204-.048.048-.116.072-.204.072h-.612zm3.097 0a.287.287 0 0 1-.192-.072.272.272 0 0 1-.072-.18v-5.712a.26.26 0 0 1 .072-.192.278.278 0 0 1 .204-.084h.576a.24.24 0 0 1 .192.084.26.26 0 0 1 .072.192v5.088l-.312-.324 3.636-4.86a.619.619 0 0 1 .132-.12.272.272 0 0 1 .18-.06h.552a.23.23 0 0 1 .168.072.216.216 0 0 1 .084.168v5.724c0 .08-.028.148-.084.204a.26.26 0 0 1-.192.072h-.564c-.088 0-.156-.024-.204-.072a.303.303 0 0 1-.072-.204v-4.788l.336-.012-3.66 4.896a.849.849 0 0 1-.12.12.29.29 0 0 1-.192.06h-.54zm10.985 0c-.088 0-.156-.024-.204-.072a.303.303 0 0 1-.072-.204v-2.256c-.216.2-.48.348-.792.444a3.76 3.76 0 0 1-1.044.132c-.704 0-1.252-.156-1.644-.468-.384-.312-.576-.816-.576-1.512v-2.028a.26.26 0 0 1 .072-.192.278.278 0 0 1 .204-.084h.588a.24.24 0 0 1 .192.084.24.24 0 0 1 .084.192v1.956c0 .36.104.624.312.792.216.168.544.252.984.252.488 0 .88-.06 1.176-.18.296-.128.444-.352.444-.672v-2.148a.26.26 0 0 1 .072-.192.254.254 0 0 1 .204-.084h.6a.24.24 0 0 1 .192.084.24.24 0 0 1 .084.192v5.688c0 .08-.028.148-.084.204a.26.26 0 0 1-.192.072h-.6zm2.938 0a.303.303 0 0 1-.205-.072.303.303 0 0 1-.072-.204v-5.688a.26.26 0 0 1 .072-.192.278.278 0 0 1 .204-.084h.576a.24.24 0 0 1 .193.084.26.26 0 0 1 .072.192v2.304h3.276v-2.304a.26.26 0 0 1 .072-.192.278.278 0 0 1 .204-.084h.564a.24.24 0 0 1 .192.084.24.24 0 0 1 .084.192v5.688c0 .08-.029.148-.085.204a.26.26 0 0 1-.191.072h-.564a.303.303 0 0 1-.204-.072.303.303 0 0 1-.072-.204v-2.424H77.73v2.424c0 .08-.024.148-.072.204a.26.26 0 0 1-.193.072h-.575zm9.592.12c-.608 0-1.116-.116-1.524-.348a2.35 2.35 0 0 1-.936-.96 3.367 3.367 0 0 1-.36-1.416 9.083 9.083 0 0 1-.012-.516 8.7 8.7 0 0 1 .012-.516c.024-.536.144-1.008.36-1.416.224-.408.54-.728.948-.96.408-.232.912-.348 1.512-.348s1.104.116 1.512.348c.408.232.72.552.936.96.224.408.348.88.372 1.416.008.128.012.3.012.516 0 .208-.004.38-.012.516-.024.528-.144 1-.36 1.416a2.35 2.35 0 0 1-.936.96c-.408.232-.916.348-1.524.348zm0-.924c.496 0 .892-.156 1.188-.468.296-.32.456-.784.48-1.392.008-.12.012-.272.012-.456s-.004-.336-.012-.456c-.024-.608-.184-1.068-.48-1.38-.296-.32-.692-.48-1.188-.48s-.896.16-1.2.48c-.296.312-.452.772-.468 1.38-.008.12-.012.272-.012.456s.004.336.012.456c.016.608.172 1.072.468 1.392.304.312.704.468 1.2.468zm6.819.924c-.824 0-1.48-.252-1.968-.756-.488-.512-.756-1.208-.804-2.088a5.34 5.34 0 0 1-.012-.396c0-.168.004-.304.012-.408.032-.568.164-1.064.396-1.488.232-.432.548-.764.948-.996.408-.232.884-.348 1.428-.348.608 0 1.116.128 1.524.384.416.256.732.62.948 1.092.216.472.324 1.024.324 1.656v.204a.254.254 0 0 1-.084.204.26.26 0 0 1-.192.072H91.67v.108c.016.328.088.636.216.924.128.28.312.508.552.684.24.176.528.264.864.264.288 0 .528-.044.72-.132a1.96 1.96 0 0 0 .468-.288c.12-.112.2-.196.24-.252.072-.104.128-.164.168-.18a.388.388 0 0 1 .192-.036h.576a.26.26 0 0 1 .192.072c.056.04.08.1.072.18-.008.12-.072.268-.192.444-.12.168-.292.336-.516.504a3.006 3.006 0 0 1-.816.42c-.32.104-.688.156-1.104.156zm-1.632-3.696h3.288v-.036c0-.36-.068-.68-.204-.96a1.545 1.545 0 0 0-1.452-.912c-.344 0-.64.084-.888.252-.24.16-.424.38-.552.66-.128.28-.192.6-.192.96v.036zm-42.553 19.856a.278.278 0 0 1-.204-.084.26.26 0 0 1-.072-.192v-7.968a.26.26 0 0 1 .072-.192.278.278 0 0 1 .204-.084h.552a.24.24 0 0 1 .192.084.24.24 0 0 1 .084.192v.528c.192-.264.448-.484.768-.66.32-.176.72-.264 1.2-.264.448 0 .828.076 1.14.228.32.152.58.36.78.624.208.264.364.564.468.9.104.336.16.696.168 1.08a6.555 6.555 0 0 1 0 .816 4.01 4.01 0 0 1-.168 1.08c-.104.336-.26.636-.468.9-.2.256-.46.464-.78.624-.312.152-.692.228-1.14.228-.464 0-.856-.084-1.176-.252a2.547 2.547 0 0 1-.768-.648v2.784a.26.26 0 0 1-.072.192.254.254 0 0 1-.204.084h-.576zm2.544-3.132c.416 0 .74-.088.972-.264.24-.184.412-.42.516-.708.104-.296.164-.612.18-.948.008-.232.008-.464 0-.696a3.188 3.188 0 0 0-.18-.936 1.45 1.45 0 0 0-.516-.708c-.232-.184-.556-.276-.972-.276-.392 0-.712.092-.96.276-.24.184-.42.42-.54.708-.112.28-.176.568-.192.864a8.066 8.066 0 0 0 0 .924c.008.28.072.556.192.828.128.272.316.496.564.672.248.176.56.264.936.264zm6.057.972c-.4 0-.764-.08-1.092-.24a2.112 2.112 0 0 1-.792-.648c-.2-.272-.3-.58-.3-.924 0-.552.224-.992.672-1.32.448-.328 1.032-.544 1.752-.648l1.788-.252v-.348c0-.384-.112-.684-.336-.9-.216-.216-.572-.324-1.068-.324-.36 0-.652.072-.876.216a1.17 1.17 0 0 0-.456.552c-.048.12-.132.18-.252.18h-.54c-.088 0-.156-.024-.204-.072a.322.322 0 0 1-.06-.192c0-.12.044-.268.132-.444.096-.176.24-.348.432-.516.192-.168.436-.308.732-.42.304-.12.672-.18 1.104-.18.48 0 .884.064 1.212.192.328.12.584.284.768.492.192.208.328.444.408.708.088.264.132.532.132.804v3.888c0 .08-.028.148-.084.204a.26.26 0 0 1-.192.072h-.552c-.088 0-.156-.024-.204-.072a.303.303 0 0 1-.072-.204v-.516a2.345 2.345 0 0 1-.42.432 2.434 2.434 0 0 1-.66.348 3.102 3.102 0 0 1-.972.132zm.252-.9c.328 0 .628-.068.9-.204.272-.144.484-.364.636-.66.16-.296.24-.668.24-1.116v-.336l-1.392.204c-.568.08-.996.216-1.284.408-.288.184-.432.42-.432.708 0 .224.064.412.192.564.136.144.304.252.504.324.208.072.42.108.636.108zm6.8.9c-.471 0-.871-.056-1.2-.168-.32-.12-.58-.268-.78-.444a1.88 1.88 0 0 1-.42-.564 1.57 1.57 0 0 1-.143-.552c0-.072.024-.128.072-.168a.23.23 0 0 1 .168-.072h.564c.072 0 .132.02.18.06.048.032.084.092.108.18a.98.98 0 0 0 .552.636c.272.12.604.18.996.18.256 0 .492-.032.708-.096.216-.072.384-.184.504-.336a.846.846 0 0 0 .192-.564c0-.328-.096-.576-.288-.744-.184-.168-.472-.252-.864-.252h-.66a.26.26 0 0 1-.192-.072.26.26 0 0 1-.072-.192v-.324c0-.072.024-.132.072-.18a.24.24 0 0 1 .192-.084h.588c.328 0 .58-.064.756-.192.176-.128.264-.332.264-.612 0-.168-.04-.328-.12-.48a.889.889 0 0 0-.408-.372c-.184-.104-.44-.156-.768-.156-.464 0-.792.08-.984.24-.184.152-.316.38-.396.684a.354.354 0 0 1-.12.18c-.04.032-.1.048-.18.048h-.54a.272.272 0 0 1-.18-.06.207.207 0 0 1-.072-.168c.008-.24.06-.468.156-.684.104-.216.256-.412.456-.588.208-.176.464-.312.768-.408a3.457 3.457 0 0 1 1.092-.156c.6 0 1.072.092 1.416.276.352.184.6.412.744.684.152.264.228.528.228.792 0 .312-.052.572-.156.78-.096.208-.288.384-.576.528.36.136.608.34.744.612.136.272.208.588.216.948.008.416-.104.76-.336 1.032-.224.272-.532.48-.924.624a4.131 4.131 0 0 1-1.356.204zm4.246-.12a.303.303 0 0 1-.205-.072.303.303 0 0 1-.072-.204v-5.688a.26.26 0 0 1 .072-.192.278.278 0 0 1 .204-.084h2.496c.752 0 1.317.152 1.693.456.384.304.576.712.576 1.224 0 .36-.069.632-.204.816-.136.184-.328.34-.576.468.303.128.531.336.683.624.16.28.24.572.24.876 0 .576-.204 1.016-.612 1.32-.408.304-.976.456-1.704.456h-2.591zm.828-.876h1.668c.383 0 .692-.072.924-.216.24-.152.36-.38.36-.684 0-.32-.109-.552-.325-.696-.216-.152-.535-.228-.96-.228h-1.667v1.824zm0-2.712h1.596c.383 0 .688-.084.912-.252a.824.824 0 0 0 .347-.708c0-.312-.115-.524-.347-.636-.225-.12-.529-.18-.913-.18h-1.595v1.776zm5.886 3.588a.287.287 0 0 1-.192-.072.272.272 0 0 1-.072-.18v-5.712a.26.26 0 0 1 .072-.192.278.278 0 0 1 .204-.084h.576a.24.24 0 0 1 .192.084.26.26 0 0 1 .072.192v5.088l-.312-.324 3.636-4.86a.619.619 0 0 1 .132-.12.272.272 0 0 1 .18-.06h.552a.23.23 0 0 1 .168.072.216.216 0 0 1 .084.168v5.724c0 .08-.028.148-.084.204a.26.26 0 0 1-.192.072h-.564c-.088 0-.156-.024-.204-.072a.303.303 0 0 1-.072-.204v-4.788l.336-.012-3.66 4.896a.849.849 0 0 1-.12.12.29.29 0 0 1-.192.06h-.54zm8.956 0a.303.303 0 0 1-.204-.072.303.303 0 0 1-.072-.204v-5.004h-2.087a.303.303 0 0 1-.204-.072.303.303 0 0 1-.073-.204v-.408a.26.26 0 0 1 .072-.192.278.278 0 0 1 .205-.084h5.28a.24.24 0 0 1 .192.084.24.24 0 0 1 .084.192v.408c0 .08-.029.148-.085.204a.26.26 0 0 1-.191.072h-2.088v5.004c0 .08-.025.148-.073.204-.047.048-.115.072-.203.072h-.553zm4.497 0a.287.287 0 0 1-.192-.072.272.272 0 0 1-.072-.18v-5.712a.26.26 0 0 1 .072-.192.278.278 0 0 1 .204-.084h.576a.24.24 0 0 1 .192.084.26.26 0 0 1 .072.192v5.088l-.312-.324 3.636-4.86a.619.619 0 0 1 .132-.12.272.272 0 0 1 .18-.06h.552a.23.23 0 0 1 .168.072.216.216 0 0 1 .084.168v5.724c0 .08-.028.148-.084.204a.26.26 0 0 1-.192.072h-.564c-.088 0-.156-.024-.204-.072a.303.303 0 0 1-.072-.204v-4.788l.336-.012-3.66 4.896a.849.849 0 0 1-.12.12.29.29 0 0 1-.192.06h-.54zm9.533.12c-.824 0-1.48-.252-1.968-.756-.488-.512-.756-1.208-.804-2.088a5.34 5.34 0 0 1-.012-.396c0-.168.004-.304.012-.408.032-.568.164-1.064.396-1.488.232-.432.548-.764.948-.996.408-.232.884-.348 1.428-.348.608 0 1.116.128 1.524.384.416.256.732.62.948 1.092.216.472.324 1.024.324 1.656v.204a.254.254 0 0 1-.084.204.26.26 0 0 1-.192.072h-4.152v.108c.016.328.088.636.216.924.128.28.312.508.552.684.24.176.528.264.864.264.288 0 .528-.044.72-.132a1.96 1.96 0 0 0 .468-.288c.12-.112.2-.196.24-.252.072-.104.128-.164.168-.18a.388.388 0 0 1 .192-.036h.576a.26.26 0 0 1 .192.072c.056.04.08.1.072.18-.008.12-.072.268-.192.444-.12.168-.292.336-.516.504a3.004 3.004 0 0 1-.816.42c-.32.104-.688.156-1.104.156zm-1.632-3.696h3.288v-.036c0-.36-.068-.68-.204-.96a1.545 1.545 0 0 0-1.452-.912c-.344 0-.64.084-.888.252-.24.16-.424.38-.552.66-.128.28-.192.6-.192.96v.036z" fill="#4C4C4C"/><path d="m75 281.004 2.887-5h-5.774l2.887 5zm0-23.333a2.667 2.667 0 1 0 0-5.334 2.667 2.667 0 0 0 0 5.334zm0 18.833h.5v-21.5h-1v21.5h.5z" fill="url(#E)"/></g><defs><linearGradient id="p" x1="453.439" y1="30.735" x2="513.902" y2="91.198" gradientUnits="userSpaceOnUse"><stop/><stop offset="1" stop-color="#666"/></linearGradient><linearGradient id="b" x1="202.971" y1="156.566" x2="376.507" y2="156.566" gradientUnits="userSpaceOnUse"><stop stop-color="#737373" stop-opacity=".11"/><stop offset="1" stop-color="#D9D9D9" stop-opacity=".2"/></linearGradient><linearGradient id="e" x1="247.439" y1="30.731" x2="307.902" y2="91.195" gradientUnits="userSpaceOnUse"><stop/><stop offset="1" stop-color="#666"/></linearGradient><linearGradient id="k" x1="277.5" y1="281.004" x2="277.5" y2="255.004" gradientUnits="userSpaceOnUse"><stop stop-color="#4C4C4C"/><stop offset="1" stop-color="#878787"/></linearGradient><linearGradient id="m" x1="409.971" y1="156.566" x2="583.507" y2="156.566" gradientUnits="userSpaceOnUse"><stop stop-color="#737373" stop-opacity=".11"/><stop offset="1" stop-color="#D9D9D9" stop-opacity=".2"/></linearGradient><linearGradient id="n" x1="409.971" y1="156.566" x2="583.507" y2="156.566" gradientUnits="userSpaceOnUse"><stop stop-color="#737373" stop-opacity=".11"/><stop offset="1" stop-color="#D9D9D9" stop-opacity=".2"/></linearGradient><linearGradient id="o" x1="453.439" y1="30.735" x2="513.902" y2="91.198" gradientUnits="userSpaceOnUse"><stop/><stop offset="1" stop-color="#666"/></linearGradient><linearGradient id="d" x1="247.439" y1="30.731" x2="307.902" y2="91.195" gradientUnits="userSpaceOnUse"><stop/><stop offset="1" stop-color="#666"/></linearGradient><linearGradient id="c" x1="202.971" y1="156.566" x2="376.507" y2="156.566" gradientUnits="userSpaceOnUse"><stop stop-color="#737373" stop-opacity=".11"/><stop offset="1" stop-color="#D9D9D9" stop-opacity=".2"/></linearGradient><linearGradient id="u" x1="484.5" y1="281.004" x2="484.5" y2="255.004" gradientUnits="userSpaceOnUse"><stop stop-color="#4C4C4C"/><stop offset="1" stop-color="#878787"/></linearGradient><linearGradient id="w" x1=".971" y1="156.566" x2="174.507" y2="156.566" gradientUnits="userSpaceOnUse"><stop stop-color="#737373" stop-opacity=".11"/><stop offset="1" stop-color="#D9D9D9" stop-opacity=".2"/></linearGradient><linearGradient id="x" x1=".971" y1="156.566" x2="174.507" y2="156.566" gradientUnits="userSpaceOnUse"><stop stop-color="#737373" stop-opacity=".11"/><stop offset="1" stop-color="#D9D9D9" stop-opacity=".2"/></linearGradient><linearGradient id="y" x1="44.669" y1="30.736" x2="105.133" y2="91.2" gradientUnits="userSpaceOnUse"><stop/><stop offset="1" stop-color="#666"/></linearGradient><linearGradient id="z" x1="44.669" y1="30.736" x2="105.133" y2="91.2" gradientUnits="userSpaceOnUse"><stop/><stop offset="1" stop-color="#666"/></linearGradient><linearGradient id="E" x1="75.5" y1="281.004" x2="75.5" y2="255.004" gradientUnits="userSpaceOnUse"><stop stop-color="#4C4C4C"/><stop offset="1" stop-color="#878787"/></linearGradient><radialGradient id="s" cx="0" cy="0" r="1" gradientUnits="userSpaceOnUse"><stop stop-color="#389D2D" stop-opacity="0"/><stop offset="1" stop-color="#389D2D"/></radialGradient><radialGradient id="t" cx="0" cy="0" r="1" gradientUnits="userSpaceOnUse"><stop stop-color="#389D2D" stop-opacity="0"/><stop offset="1" stop-color="#389D2D"/></radialGradient><radialGradient id="g" cx="0" cy="0" r="1" gradientUnits="userSpaceOnUse"><stop stop-color="#389D2D" stop-opacity="0"/><stop offset="1" stop-color="#389D2D"/></radialGradient><radialGradient id="h" cx="0" cy="0" r="1" gradientUnits="userSpaceOnUse"><stop stop-color="#389D2D" stop-opacity="0"/><stop offset="1" stop-color="#389D2D"/></radialGradient><radialGradient id="i" cx="0" cy="0" r="1" gradientUnits="userSpaceOnUse"><stop stop-color="#389D2D" stop-opacity="0"/><stop offset="1" stop-color="#389D2D"/></radialGradient><radialGradient id="j" cx="0" cy="0" r="1" gradientUnits="userSpaceOnUse"><stop stop-color="#389D2D" stop-opacity="0"/><stop offset="1" stop-color="#389D2D"/></radialGradient><radialGradient id="q" cx="0" cy="0" r="1" gradientUnits="userSpaceOnUse"><stop stop-color="#389D2D" stop-opacity="0"/><stop offset="1" stop-color="#389D2D"/></radialGradient><radialGradient id="A" cx="0" cy="0" r="1" gradientUnits="userSpaceOnUse"><stop stop-color="#389D2D" stop-opacity="0"/><stop offset="1" stop-color="#389D2D"/></radialGradient><radialGradient id="B" cx="0" cy="0" r="1" gradientUnits="userSpaceOnUse"><stop stop-color="#389D2D" stop-opacity="0"/><stop offset="1" stop-color="#389D2D"/></radialGradient><radialGradient id="C" cx="0" cy="0" r="1" gradientUnits="userSpaceOnUse"><stop stop-color="#389D2D" stop-opacity="0"/><stop offset="1" stop-color="#389D2D"/></radialGradient><radialGradient id="D" cx="0" cy="0" r="1" gradientUnits="userSpaceOnUse"><stop stop-color="#389D2D" stop-opacity="0"/><stop offset="1" stop-color="#389D2D"/></radialGradient><radialGradient id="r" cx="0" cy="0" r="1" gradientUnits="userSpaceOnUse"><stop stop-color="#389D2D" stop-opacity="0"/><stop offset="1" stop-color="#389D2D"/></radialGradient><clipPath id="a"><path fill="#fff" transform="translate(202)" d="M0 0h150v339H0z"/></clipPath><clipPath id="l"><path fill="#fff" transform="translate(404)" d="M0 0h160v339H0z"/></clipPath><clipPath id="v"><path fill="#fff" d="M0 0h150v339H0z"/></clipPath></defs></svg>