<svg width="543" height="376" fill="none" xmlns="http://www.w3.org/2000/svg"><path d="m434.394 78.95-19.161-15.584-66.421-27.987 40.732 33.188 44.85 10.384zM348.812 35.38l3.005 32.824 65.767 21.51-2.351-26.347-66.421-27.987zm68.772 54.333-8.545-5.361-74.938-27.34 17.716 11.192 65.767 21.51zm-83.483-32.701-2.381 3.991 60.95 48.517 16.369-25.168-74.938-27.34zm58.569 52.508 13.459 6.212-50.667-43.795-23.742-10.934 60.95 48.517zm-37.208-37.583-27.443 4.358 45.684 44.573 32.426-5.136-50.667-43.795zm18.241 48.931-22.79-12.531 12.675 23.431 54.269 11.252-.204-.415-73.648-57.52-15.986-8.79 45.684 44.573zm44.154 22.152-79.326-44.972-38.369-2.316 63.426 36.036 54.269 11.252zM300.162 95.731l60.765 62.455 41.768 5.707-64.164-65.846-38.369-2.316zm102.533 68.162-52.624-32.184-45.061-7.758 55.917 34.235 41.768 5.707zm-97.685-39.942 39.25 44.001 33.978-4.708-28.167-31.535-45.061-7.758zm73.228 39.293-72.186-33.468-16.253 12.858 54.461 25.318 33.978-4.708zm-88.439-20.61 63.26 51.459L373.842 185l-67.79-55.224-16.253 12.858zM373.842 185l-62.649-32.038-31.183 3.811 73.049 37.32L373.842 185zm-93.832-28.227 36.856 35.899 30.064-4.964-35.737-34.746-31.183 3.811zm66.92 30.935-47.416-23.498 13.174 26.379 4.178 2.083 30.064-4.964z" fill="#389D2D"/><path d="m331.65 37.683-19.57 15.07-42.404 58.147 41.66-32.024 20.314-41.193zM269.676 110.9l32.748 4.526 35.928-58.981-26.272-3.691-42.404 58.146zm68.676-54.455-7.177 7.082-43.702 66.564 14.951-14.665 35.928-58.981zm-50.879 73.646 3.358 3.217 61.22-48.18-20.876-21.6-43.702 66.563zm64.578-44.962 9.121-11.66-54.274 39.265-16.067 20.574 61.22-48.18zm-45.153 27.605-1.967 27.636 53.904-34.251 2.337-32.65-54.274 39.265zm51.937-6.615-17.409 19.288 25.763-6.995 23.3-50.142-.452.103-72.893 58.467-12.213 13.53 53.904-34.251zm31.654-37.849-61.922 66.826-10.965 36.731 49.587-53.415 23.3-50.142zm-72.887 103.557 74.793-44.839 15.048-39.262-78.876 47.37-10.965 36.731zm89.841-84.101-43.376 43.798-17.798 41.995 46.126-46.531 15.048-39.262zm-61.174 85.793 51.886-28.134 3.107-34.058-37.195 20.197-17.798 41.995zm54.993-62.192-49.066 62.5 8.876 18.698 37.083-47.14 3.107-34.058zm-40.19 81.198 64.616-49.755-4.169-22.241-69.323 53.298 8.876 18.698zm60.447-71.996-45.507 53.565-3.349 31.143 53.025-62.467-4.169-22.241zm-48.856 84.708 43.43-27.644 1.968-30.319-42.049 26.82-3.349 31.143zm45.398-57.963-33.708 40.712 28.757-6.81 2.983-3.583 1.968-30.319z" fill="#389D2D"/><path d="M540.053 376c-1.667-4.987 1.668-11.635 0-16.622-3.334-13.297-3.334-29.919-16.671-33.243-25.009-13.297-76.693-81.447-166.723-49.865m0 0c-90.03 31.581-150.051 28.256-166.723 49.865-6.669 11.635-16.673 19.946-16.673 33.243 0 4.987-1.667 11.635 0 16.622m183.396-99.73c8.336 24.933 20.006 49.865 25.008 74.798m-25.008-74.798c-10.004 24.933-10.004 53.189-25.009 74.798m113.372-63.162c-30.011 29.918-61.688 56.513-88.363 88.094-21.675-36.568-70.024-51.527-88.363-88.094m-16.673 4.985c-8.336 18.284-20.006 38.231-20.006 58.177 15.004 9.973 31.677 21.607 50.016 24.932m180.061-83.109c10.003 18.284 16.673 38.231 20.007 58.177-16.673 6.648-31.678 21.607-50.018 24.932m-41.68-132.974c-21.674 6.649-45.015-6.648-66.689 0m166.723-132.973c-5.002-1.662-11.67 0-16.673 0m-250.083 0c5.001 0 11.67 1.663 16.672 0m233.411 83.108c-5.002-4.986-11.67-9.973-16.672-16.622m-216.739 16.622c3.334-6.648 13.337-9.973 16.672-16.622m175.058-58.175c5.003-36.568-26.675-78.122-63.354-74.798-36.679 3.325-85.028 14.96-83.361 51.528 1.667 36.567 1.667 84.77 38.346 89.757 1.667 4.986 0 11.635 0 16.621 0 4.987 3.334 9.973 8.336 8.311 15.005-4.986 33.345 4.987 50.017 0 5.001-1.662 6.668-3.324 8.336-8.311 1.668-4.986 1.668-11.635 0-16.621 25.008-13.298 45.016-38.231 41.68-66.487z" stroke="#484848" stroke-width="4" stroke-linecap="round" stroke-linejoin="round"/><path d="M540.046 376v-16.622a40.282 40.282 0 0 0-16.672-33.243c-22.258-16.937-71.191-49.865-166.723-49.865m0 0c-95.533 0-144.466 32.928-166.722 49.865a40.282 40.282 0 0 0-16.673 33.243V376m183.395-99.73 25.008 74.797m-25.008-74.797-25.008 74.797m113.738-63.528L356.651 376l-88.73-88.461m-16.873 5.369-19.439 58.159L281.626 376m180.627-83.092 19.44 58.159L431.676 376m-41.681-132.974h-66.688m166.722-132.974h-16.673m-250.084 0h16.673m233.411 83.109-16.671-16.622m-216.74 16.622 16.672-16.622m5.76-132.378 16.195 12.064m153.104 62.139c.157-36.933-26.748-68.452-63.342-74.203-36.594-5.751-71.92 15.987-83.167 51.178-11.247 35.189 4.954 73.296 38.14 89.71v16.423c0 4.59 3.732 8.311 8.336 8.311h50.016c4.605 0 8.336-3.721 8.336-8.311v-16.423c25.465-12.538 41.612-38.37 41.681-66.685z" stroke="#484848" stroke-width="4" stroke-linecap="round" stroke-linejoin="round"/><path fill-rule="evenodd" clip-rule="evenodd" d="M99.772 89.43c7.325 0 14.084-2.357 19.524-6.335a16.98 16.98 0 0 0 7.85 1.91c9.398 0 17.016-7.596 17.016-16.965 0-4.405-1.683-8.418-4.445-11.433 3.609-2.837 5.925-7.234 5.925-12.17 0-3.57-1.211-6.857-3.246-9.477.189-1.238.286-2.507.286-3.8 0-13.443-10.598-24.34-23.674-24.34-1.466 0-2.9.137-4.292.399-4.569-3.92-10.579-6.3-17.163-6.3-6.758 0-12.912 2.507-17.523 6.613a15.574 15.574 0 0 0-4.672-.712c-8.58 0-15.537 6.934-15.537 15.49 0 3.794 1.369 7.27 3.64 9.963-2.286 3.19-3.64 7.145-3.64 11.426 0 3.395.85 6.585 2.344 9.351a19.81 19.81 0 0 0-5.303 13.515c0 10.998 8.943 19.915 19.976 19.915 2.399 0 4.7-.423 6.831-1.196 4.75 2.638 10.245 4.145 16.103 4.145zM166.429 96.69c0 6.516-5.299 11.8-11.838 11.8-6.537 0-11.837-5.284-11.837-11.8 0-6.519 5.3-11.802 11.837-11.802 6.539 0 11.838 5.283 11.838 11.801zM184.565 116.43c0 3.67-2.755 6.644-6.152 6.644-3.397 0-6.151-2.974-6.151-6.644s2.754-6.643 6.151-6.643 6.152 2.973 6.152 6.643z" fill="#389D2D"/><path clip-rule="evenodd" d="M97.02 92.116c7.251-1.032 14.206-2.213 19.533-6.343 2.366 1.032 5.179 2.803 7.842 1.918 9.025-2.803 19.383-7.967 17.016-16.965-1.184-4.278-1.332-8.703-4.439-11.506 2.811-3.54 6.066-7.229 5.918-12.097-.147-3.54-.887-7.228-3.255-9.44.148-1.329.592-2.509.296-3.836-2.812-13.13-10.654-24.193-23.675-24.34-1.479 0-2.811.294-4.291.442-3.995-4.573-10.506-6.344-17.164-6.344-6.806 0-13.761 1.623-17.46 6.639-1.48-.59-3.107-1.033-4.735-.738-8.434 1.328-15.388 6.933-15.537 15.49 0 3.835 1.037 7.523 3.7 10.03-2.812 2.656-2.663 7.23-3.7 11.36-.74 3.245.445 6.933 2.368 9.293-3.403 3.54-4.735 8.409-5.327 13.572-1.331 10.916 9.026 18.587 19.976 19.914 2.368.296 4.734-.59 6.807-1.18 5.03 2.214 10.21 4.278 16.127 4.131z" stroke="#484848" stroke-width="2" stroke-linecap="round" stroke-linejoin="round"/><path clip-rule="evenodd" d="M97.02 92.116c7.325 0 14.085-2.357 19.524-6.334a16.98 16.98 0 0 0 7.85 1.909c9.398 0 17.016-7.596 17.016-16.965 0-4.405-1.683-8.417-4.444-11.433 3.608-2.836 5.924-7.233 5.924-12.17 0-3.57-1.211-6.857-3.246-9.476.189-1.239.286-2.508.286-3.8 0-13.443-10.598-24.34-23.674-24.34-1.465 0-2.9.136-4.292.398-4.569-3.92-10.579-6.3-17.163-6.3-6.758 0-12.912 2.508-17.523 6.614a15.575 15.575 0 0 0-4.672-.713c-8.58 0-15.537 6.935-15.537 15.49 0 3.794 1.37 7.27 3.64 9.963-2.286 3.191-3.64 7.145-3.64 11.427 0 3.395.851 6.584 2.344 9.35a19.81 19.81 0 0 0-5.303 13.515c0 10.999 8.943 19.914 19.976 19.914 2.399 0 4.7-.421 6.831-1.194 4.75 2.638 10.245 4.145 16.103 4.145zM169.796 93.33c0 6.518-5.299 11.801-11.836 11.801-6.539 0-11.838-5.283-11.838-11.8 0-6.518 5.299-11.802 11.838-11.802 6.537 0 11.836 5.284 11.836 11.801zM189.276 113.965c0 3.386-2.753 6.132-6.151 6.132-3.397 0-6.152-2.746-6.152-6.132 0-3.388 2.755-6.133 6.152-6.133 3.398 0 6.151 2.745 6.151 6.133z" stroke="#484848" stroke-width="2" stroke-linecap="round" stroke-linejoin="round"/><path d="M89.175 54.504c0 1.327.222 2.876 0 4.425m21.973 4.204c2.886-2.212 5.105-5.089 7.547-7.523.888-.885 2.663-1.328 3.107 0 .444.443 1.332.885 1.553 1.549m-7.768 1.77c.666 1.107 1.776 1.992 2.886 2.877M102.27 57.38c2.886-3.319 3.107-8.187 0-11.285-2.885-3.319-7.324-1.991-11.319 0a5.239 5.239 0 0 1-1.997 1.77c-.445-.885-1.332-1.106-1.777-1.77-1.775-3.983-7.324-1.991-11.319 0-3.995 1.77-3.551 8.63 0 11.285 5.105 3.32 7.547 10.4 13.096 13.056 5.104-3.762 9.321-8.409 13.316-13.056zm1.776-21.021c-6.88-.221-15.093 4.647-14.87 11.728-3.108-2.213-2.887-7.745-3.774-14.383 1.332-3.983 3.33-8.63 7.324-9.515 1.776-1.107 4.44-.664 6.215-1.107 2.885-1.106 5.993.664 8.878 0 3.773-1.106 7.324 2.877 6.658 6.639-.443 3.54-2.885 5.974-6.658 6.638-1.11 0-2.442-.221-3.773 0zm3.329 36.51c2.886.886 5.104-2.655 5.549-5.531.665-3.098-2.441-5.31-5.549-5.532-3.107-.443-5.105 2.434-5.549 5.532-.222 2.876 2.442 5.09 5.549 5.532z" stroke="#F9F9F9" stroke-width="2" stroke-linecap="round" stroke-linejoin="round"/><path d="M89.233 54.39v4.426m21.973 4.205 7.547-7.524c.888-.885 2.219-.885 3.107 0l1.554 1.55m-7.769 1.77 2.886 2.876m-16.203-4.426c3.107-3.098 3.107-8.187 0-11.285-3.107-3.098-8.212-3.098-11.32 0l-1.996 1.77-1.776-1.77c-3.108-3.098-8.212-3.098-11.32 0-3.107 3.098-3.107 8.188 0 11.285l13.096 13.055 13.316-13.055zm1.776-21.02c-6.88 0-12.873 5.089-14.87 11.727-2.22-3.098-5.328-7.745-3.773-14.383.887-3.983 3.772-7.302 7.323-9.294A15.71 15.71 0 0 1 99 22.97h8.877c3.774 0 6.658 2.877 6.658 6.639 0 3.762-2.884 6.638-6.658 6.638h-3.773zm3.329 36.51c3.065 0 5.549-2.477 5.549-5.532s-2.484-5.532-5.549-5.532c-3.064 0-5.549 2.477-5.549 5.532s2.485 5.532 5.549 5.532z" stroke="#F9F9F9" stroke-width="2" stroke-linecap="round" stroke-linejoin="round"/><path fill-rule="evenodd" clip-rule="evenodd" d="M84.002 138.702a14.915 14.915 0 0 0-5.364-.991c-8.241 0-14.923 6.662-14.923 14.879 0 1.292.166 2.545.476 3.741-3.836 4.488-6.16 10.367-6.16 16.803 0 8.064 3.648 15.253 9.344 19.927a14.826 14.826 0 0 0-.817 4.87c0 8.216 6.68 14.878 14.923 14.878 1.123 0 2.217-.124 3.268-.359 3.63 3.71 8.782 6.026 14.497 6.026 6.398 0 12.09-2.903 15.73-7.412a12.764 12.764 0 0 0 8.432 3.162c7.064 0 12.79-5.71 12.79-12.753 0-1.22-.171-2.399-.492-3.516 4.731-5.489 7.598-12.689 7.598-20.572 0-6.145-1.743-11.876-4.752-16.704.32-1.466.489-2.988.489-4.55 0-11.738-9.544-21.254-21.319-21.254-2.542 0-4.982.445-7.242 1.259a24.696 24.696 0 0 0-11.234-2.675c-5.78 0-11.086 1.964-15.244 5.241zM176.667 194.935c4.378 4.486 4.28 11.665-.219 16.034-4.5 4.369-11.697 4.275-16.074-.211-4.377-4.486-4.28-11.665.219-16.034 4.5-4.37 11.696-4.275 16.074.211zM191.533 215.195a5.83 5.83 0 0 1-.112 8.258 5.865 5.865 0 0 1-8.279-.109 5.829 5.829 0 0 1 .113-8.258 5.864 5.864 0 0 1 8.278.109z" fill="#389D2D"/><path clip-rule="evenodd" d="M82.996 141.206c-1.28-1.276-3.553-.851-5.401-.992-8.243-.284-13.075 6.801-14.923 14.877-.284 1.276 0 2.551.426 3.684-4.405 3.968-5.4 10.486-6.11 16.862-.853 8.077 2.7 16.72 9.38 19.979-.427 1.559-.853 3.117-.853 4.817-.285 8.219 6.68 15.87 14.923 14.878 1.136-.142 2.131-.425 3.268-.425 4.69 2.409 8.812 6.801 14.497 6.093 6.395-.85 11.939-3.117 15.776-7.368 2.416 1.7 5.116 3.117 8.385 3.117 7.106 0 14.496-5.951 12.791-12.752-.284-1.134 0-2.409-.426-3.543 4.548-5.526 10.091-13.035 7.532-20.545-1.989-5.809-.853-12.61-4.69-16.72.711-1.275 0-3.117.427-4.534 3.41-11.194-9.665-23.096-21.319-21.254-2.558.425-4.832 1.275-7.249 1.275-2.557-2.833-7.389-3.825-11.227-2.692-5.543 1.558-11.938 1.134-15.207 5.243z" stroke="#484848" stroke-width="2" stroke-linecap="round" stroke-linejoin="round"/><path clip-rule="evenodd" d="M82.952 141.203a14.933 14.933 0 0 0-5.363-.99c-8.242 0-14.923 6.662-14.923 14.878 0 1.293.165 2.547.476 3.742-3.836 4.488-6.161 10.367-6.161 16.804 0 8.063 3.648 15.252 9.346 19.925a14.807 14.807 0 0 0-.819 4.87c0 8.218 6.682 14.879 14.924 14.879 1.123 0 2.216-.124 3.269-.359 3.628 3.71 8.781 6.026 14.496 6.026 6.397 0 12.09-2.902 15.729-7.413a12.766 12.766 0 0 0 8.432 3.162c7.064 0 12.791-5.709 12.791-12.752 0-1.219-.171-2.398-.493-3.516 4.731-5.488 7.6-12.688 7.6-20.571 0-6.147-1.744-11.877-4.754-16.705a21.24 21.24 0 0 0 .489-4.549c0-11.738-9.544-21.254-21.318-21.254-2.543 0-4.982.443-7.243 1.258a24.708 24.708 0 0 0-11.233-2.676c-5.78 0-11.087 1.965-15.245 5.241zM180.607 224.577c1.903 2.529 6.155.97 8.005-1.569 1.849-2.539.5-5.641-1.721-7.953-2.22-2.31-6.701-1.328-8.003 1.57-1.303 2.897-.758 5.9 1.719 7.952zM159.017 212.032c5.24 3.44 12.289 1.985 15.743-3.249 3.455-5.234 2.007-12.267-3.232-15.707-5.24-3.439-12.289-1.984-15.744 3.25-3.454 5.234-2.007 12.267 3.233 15.706z" stroke="#484848" stroke-width="2" stroke-linecap="round" stroke-linejoin="round"/><path d="M92.348 163.199c0-1.488.426-2.763 0-4.251-.64-2.338 1.918-3.826 4.264-4.251 2.132-.213 4.263.213 6.396 0 2.345-.213 4.689 1.913 4.263 4.251-.213 1.488-.426 2.975 0 4.251m8.527 0c1.279 11.264 1.706 22.741 0 34.006M83.82 163.199c1.706 11.264-1.278 22.741 0 34.006m12.792-19.129c0-1.7 1.492-3.188 3.197-3.188 1.706 0 3.412 1.488 3.199 3.188 0 1.701-1.493 3.613-3.199 3.188m14.924-25.505c0-1.275-.214-2.762.213-4.037-.213-.426.213-.851.426-.851 1.492-.85 2.984-1.275 3.838-2.125.639-.637 1.492-.425 2.131-.213.64.213 1.066.638 1.493 1.275.426.851.852 1.488 1.279 2.126.426.638.426 1.275.213 1.913-.213.637-.64 1.275-1.066 1.488-1.279.85-2.984 1.275-4.05 2.125-.213.212-.64.212-.854 0-1.279-.638-2.345-1.063-3.623-1.701zm0 0c-2.772.638-4.904 2.976-7.462 4.251m-25.582 3.189c11.725 2.975 24.729-4.039 36.241 0 0 0 4.69.212 6.396 6.376 1.705 6.801 0 14.239 0 21.254 0 0 0 7.014-6.396 6.376-11.938-1.063-24.303-1.913-36.241 0 0 0-6.61 0-6.396-6.376.426-7.015-2.132-14.453 0-21.254 0 0 0-6.376 6.396-6.376zm7.461 17.003c-2.131 5.526 4.903 9.139 10.66 10.627 5.756 1.487 10.232-4.677 10.658-10.627.428-5.951-4.902-11.265-10.659-10.627-5.756.637-11.298 4.888-10.659 10.627zm10.66 4.888c.213-.213.426.213.639.425 0 .213-.426.425-.64.637-.213 0-.426-.424-.426-.637-.213-.212.213-.638.426-.425z" stroke="#F9F9F9" stroke-width="2" stroke-linecap="round" stroke-linejoin="round"/><path d="M92.346 163.198v-4.251a4.256 4.256 0 0 1 4.264-4.25h6.396a4.256 4.256 0 0 1 4.263 4.25v4.251m8.528 0v34.006m-31.978-34.006v34.006m12.791-19.129a3.193 3.193 0 0 1 3.198-3.187 3.193 3.193 0 0 1 3.198 3.187 3.193 3.193 0 0 1-3.198 3.188m14.838-25.611-7.377 4.251m-25.582 3.295h36.242s6.395 0 6.395 6.376v21.254s0 6.376-6.395 6.376H81.687s-6.395 0-6.395-6.376v-21.254s0-6.376 6.395-6.376zm7.462 17.003c0 5.869 4.772 10.627 10.659 10.627 5.887 0 10.66-4.758 10.66-10.627 0-5.87-4.773-10.627-10.66-10.627-5.887 0-10.66 4.757-10.66 10.627zm10.659 4.782c.294 0 .533.238.533.531a.532.532 0 0 1-1.066 0c0-.293.238-.531.533-.531zm15.115-33.262-.192 4.038 3.561 1.764c.311.17.689.17 1.001 0l3.859-2.126a2.485 2.485 0 0 0 .917-3.422l-1.237-2.125a2.517 2.517 0 0 0-3.518-1.19l-3.858 2.125a1.02 1.02 0 0 0-.533.936z" stroke="#F9F9F9" stroke-width="2" stroke-linecap="round" stroke-linejoin="round"/><path fill-rule="evenodd" clip-rule="evenodd" d="M15.166 248.974h-.136c-8.044 0-14.565 6.528-14.565 14.582 0 4.268 1.832 8.108 4.752 10.775a23.144 23.144 0 0 0-.39 8.245 18.673 18.673 0 0 0-2.975 10.143c0 10.355 8.384 18.749 18.726 18.749.48 0 .957-.018 1.429-.054 5.052 5.168 12.177 8.387 20.072 8.387 7.826 0 14.893-3.163 19.938-8.25a13.126 13.126 0 0 0 5.723 1.306c7.278 0 13.178-5.907 13.178-13.193a13.17 13.17 0 0 0-4.56-9.982c4.487-3.949 7.335-9.833 7.335-16.405 0-5.66-2.112-10.809-5.563-14.651.01-.207.014-.416.014-.626 0-7.287-5.9-13.193-13.178-13.193-.803 0-1.59.072-2.355.21-5.716-5.295-13.43-8.542-21.92-8.542-10.438 0-19.705 4.909-25.525 12.499zM92.75 316.618c3.454 5.061 10.367 6.37 15.439 2.925 5.072-3.444 6.382-10.339 2.927-15.399-3.455-5.061-10.368-6.37-15.44-2.926-5.071 3.445-6.382 10.34-2.926 15.4zM126.422 322.364c2.209 3.236 6.63 4.073 9.873 1.871a7.077 7.077 0 0 0 1.872-9.848c-2.209-3.237-6.63-4.074-9.874-1.871a7.077 7.077 0 0 0-1.871 9.848z" fill="#389D2D"/><path clip-rule="evenodd" d="M18.367 248.91h-.136c-8.057 0-14.588 6.511-14.588 14.543 0 4.258 1.835 8.089 4.76 10.748a22.977 22.977 0 0 0-.39 8.222 18.575 18.575 0 0 0-2.981 10.118c0 10.328 8.397 18.699 18.756 18.699.482 0 .959-.018 1.431-.053 5.06 5.153 12.196 8.364 20.104 8.364 7.838 0 14.918-3.155 19.97-8.229a13.177 13.177 0 0 0 5.733 1.303c7.29 0 13.199-5.891 13.199-13.158 0-3.978-1.77-7.543-4.569-9.956 4.496-3.938 7.347-9.807 7.347-16.361 0-5.646-2.114-10.781-5.571-14.614.01-.206.014-.414.014-.623 0-7.268-5.91-13.159-13.199-13.159-.805 0-1.593.072-2.359.21-5.725-5.282-13.452-8.521-21.955-8.521-10.454 0-19.736 4.897-25.566 12.467zM126.641 315.794c1.368 3.437 3.165 7.543 6.846 6.705 3.679-.838 7.358-3.017 6.845-6.705-.514-3.687-3.252-7.793-6.845-6.703-3.594 1.088-5.478 3.268-6.846 6.703zM95.614 312.435c3.453 5.059 10.365 6.365 15.439 2.918 5.074-3.446 6.387-10.341 2.935-15.4-3.454-5.057-10.366-6.364-15.44-2.918-5.074 3.447-6.387 10.342-2.934 15.4z" stroke="#484848" stroke-width="2" stroke-linecap="round" stroke-linejoin="round"/><path d="M50.64 284.229c8.962 2.077 15.214 4.571 15.63 8.519.626 4.986-10.836 10.803-23.965 9.141-13.13-1.661-24.175-4.155-23.967-9.141 0-3.948 6.67-6.442 15.63-8.519m16.673 5.194c4.584 2.078 8.127 1.87 8.336 3.325.209 2.077-7.502 5.194-16.672 3.947-9.17-1.038-16.464-1.661-16.673-3.947-.208-1.455 3.543-1.455 8.336-3.325m11.463 3.117c.416-3.74-.417-7.895.833-11.427 1.042.208 2.293-.208 3.335 0 .417-2.078.625-4.156 0-6.233-1.042-3.948-3.543-6.026-7.294-7.272-3.752-1.247-7.294 3.324-7.294 7.272 0 2.077.833 4.362 0 6.233 1.041.208 2.292-.416 3.334 0 1.042 3.739 1.459 7.687.834 11.427m-2.501-32.62c.208 3.117 2.5 6.441 5.627 5.61 3.126-.831 5.418-2.493 5.835-5.61.208-3.324-2.918-4.778-5.836-5.817-2.917-1.039-5.001 2.7-5.626 5.817z" stroke="#F9F9F9" stroke-width="2" stroke-linecap="round" stroke-linejoin="round"/><path d="M50.638 284.23c9.128 1.289 15.63 4.633 15.63 8.54 0 5.049-10.733 9.121-23.966 9.121-13.234 0-23.967-4.072-23.967-9.121 0-3.907 6.503-7.251 15.63-8.54m16.673 5.194c4.98.686 8.335 1.953 8.335 3.408 0 2.077-7.46 3.927-16.671 3.927-9.212 0-16.672-1.767-16.672-3.927 0-1.455 3.355-2.722 8.336-3.408m11.462 3.117.875-11.427h3.293v-6.233c0-4.017-3.266-7.273-7.294-7.273-4.029 0-7.294 3.256-7.294 7.273v6.233H38.3l.876 11.427m-2.605-32.724c0 3.156 2.566 5.714 5.73 5.714 3.166 0 5.732-2.558 5.732-5.714 0-3.155-2.566-5.713-5.731-5.713-3.166 0-5.731 2.558-5.731 5.713z" stroke="#F9F9F9" stroke-width="2" stroke-linecap="round" stroke-linejoin="round"/></svg>