<svg width="525" height="408" viewBox="0 0 525 408" fill="none" xmlns="http://www.w3.org/2000/svg">
<g clip-path="url(#clip0_310_40)">
<g clip-path="url(#clip1_310_40)">
<path d="M337.876 133.518C337.848 131.462 336.743 129.573 334.966 128.547L271.265 91.7424C267.37 89.4922 261.131 89.4213 257.09 91.5309L256.707 91.7424L191.848 130.305C190.082 131.354 189 133.259 189 135.316V218.82L189.009 219.259C189.205 223.816 192.385 229.187 196.279 231.438L259.945 268.221C261.732 269.254 263.929 269.26 265.72 268.239L331.721 230.63C335.615 228.379 338.795 223.008 338.991 218.45L339 218.012L337.876 133.518Z" fill="#F9F9F9"/>
<path fill-rule="evenodd" clip-rule="evenodd" d="M254.834 91.6958C259.834 88.8189 267.942 88.8189 272.942 91.6958L336.27 128.129C338.076 129.168 339.199 131.079 339.226 133.157L340.344 216.81C340.344 222.563 336.29 229.56 331.289 232.437L265.674 269.668C263.854 270.701 261.622 270.694 259.808 269.65L196.515 233.238C191.515 230.36 187.461 223.364 187.461 217.611L187.463 134.939C187.463 132.859 188.563 130.931 190.355 129.87L254.834 91.6958ZM271.132 92.7375L334.46 129.171C336.264 130.21 337.387 132.12 337.416 134.199L338.533 217.851L338.524 218.286C338.33 222.801 335.165 228.124 331.289 230.353L265.674 267.584C263.854 268.618 261.622 268.611 259.808 267.567L196.515 231.153C192.64 228.924 189.474 223.602 189.281 219.087L189.272 218.652V135.982C189.272 133.9 190.372 131.973 192.164 130.911L256.645 92.7375L257.026 92.528C261.048 90.4378 267.256 90.5079 271.132 92.7375Z" fill="black" fill-opacity="0.2"/>
<path d="M260.089 101.488L203.606 134.042C201.064 135.507 201.064 137.882 203.606 139.347L258.348 170.898C260.89 172.363 265.011 172.363 267.553 170.898L324.036 138.344C326.577 136.879 326.577 134.504 324.036 133.039L269.293 101.488C266.752 100.023 262.631 100.023 260.089 101.488Z" stroke="#DDDDDD"/>
<path fill-rule="evenodd" clip-rule="evenodd" d="M255.237 91.6811C260.237 88.8042 268.345 88.8042 273.345 91.6811L336.673 128.115C338.478 129.153 339.601 131.064 339.628 133.142L340.747 216.796C340.747 222.548 336.693 229.545 331.691 232.423L266.076 269.653C264.257 270.686 262.025 270.679 260.211 269.636L196.917 233.223C191.917 230.345 187.863 223.349 187.863 217.596L187.866 134.925C187.866 132.844 188.965 130.917 190.758 129.856L255.237 91.6811ZM271.534 92.7229L334.862 129.157C336.667 130.195 337.79 132.105 337.818 134.184L338.935 217.837L338.927 218.272C338.732 222.787 335.567 228.109 331.691 230.338L266.076 267.569C264.257 268.603 262.025 268.596 260.211 267.553L196.917 231.139C193.043 228.91 189.877 223.587 189.683 219.072L189.675 218.637V135.967C189.675 133.885 190.774 131.959 192.567 130.897L257.047 92.7229L257.429 92.5134C261.451 90.4231 267.659 90.4933 271.534 92.7229Z" fill="url(#paint0_linear_310_40)"/>
<path d="M260.223 188.999C268.124 188.999 274.446 195.321 274.446 203.222C274.446 206.003 273.655 208.627 272.265 210.807L282 220.606L277.607 224.999L267.745 215.296C265.564 216.655 262.973 217.444 260.223 217.444C252.321 217.444 246 211.124 246 203.222C246 195.321 252.321 188.999 260.223 188.999ZM260.223 195.321C258.127 195.321 256.117 196.153 254.636 197.635C253.154 199.117 252.321 201.126 252.321 203.222C252.321 205.317 253.154 207.328 254.636 208.809C256.117 210.29 258.127 211.124 260.223 211.124C262.318 211.124 264.328 210.29 265.81 208.809C267.292 207.328 268.124 205.317 268.124 203.222C268.124 201.126 267.292 199.117 265.81 197.635C264.328 196.153 262.318 195.321 260.223 195.321Z" fill="#389D2D"/>
<path d="M261.749 4.75047L200.16 66.234C198.085 68.3057 198.085 71.6645 200.16 73.7362L261.749 135.22C263.825 137.291 267.189 137.291 269.265 135.22L330.854 73.7362C332.929 71.6645 332.929 68.3057 330.854 66.234L269.265 4.75047C267.189 2.67878 263.825 2.67878 261.749 4.75047Z" fill="url(#paint1_linear_310_40)" stroke="url(#paint2_linear_310_40)"/>
<path d="M262.482 51.046C262.399 51.0611 261.893 51.1592 261.363 51.2648C255.918 52.3434 250.942 56.0469 248.28 61.01C247.176 63.0617 246.428 65.3698 246.095 67.7382C245.951 68.8168 245.974 71.7057 246.14 72.7919C246.481 75.0245 247.018 76.7443 247.955 78.6375C249.029 80.7947 250.186 82.3712 251.91 84.0306C253.491 85.5542 254.897 86.5273 256.962 87.538C258.217 88.149 259.238 88.5261 260.554 88.858C262.293 89.2955 262.611 89.3256 265.628 89.2879C268.237 89.2577 268.426 89.2502 269.258 89.0692C275.233 87.7492 280.08 83.9627 282.712 78.5621C283.952 76.0277 284.542 73.6442 284.655 70.8307C284.905 64.1554 281.668 57.8722 276.019 54.0782C274.355 52.9619 272.064 51.9436 270.098 51.4533C268.389 51.0159 268.094 50.9932 265.25 51.0008C263.813 51.0083 262.566 51.0234 262.482 51.046ZM267.118 51.74L267.519 51.7852L267.269 52.2529C266.324 54.033 266.196 54.2517 265.901 54.5006C265.53 54.8174 265.303 54.8853 264.222 54.9909C262.838 55.1191 262.43 55.2474 261.998 55.6773C261.688 55.979 261.454 56.4467 261.204 57.2537C260.902 58.2041 260.675 58.3625 260.206 57.9477C259.798 57.5932 259.571 57.2236 259.488 56.7559C259.397 56.2656 259.261 56.0318 258.747 55.4963C258.217 54.9381 257.748 54.6288 257.37 54.5685C257.189 54.5383 256.977 54.4855 256.909 54.4478C256.78 54.3875 256.546 54.0103 256.546 53.8746C256.546 53.7841 257.877 53.1655 258.868 52.7959C259.851 52.4339 261.378 52.0266 262.414 51.8606C263.836 51.6344 265.795 51.5816 267.118 51.74ZM275.588 54.9683C276.072 55.3001 276.374 55.6773 277.728 57.6686C278.25 58.4304 278.484 58.5285 279.036 58.2041L279.354 58.0231L279.793 58.5813C281.464 60.6932 282.628 63.0164 283.286 65.5432C283.475 66.2447 283.778 67.9041 283.733 67.9494C283.717 67.9645 283.513 68.0248 283.271 68.0927C282.538 68.2813 282.296 68.1983 281.524 67.5044C280.761 66.818 279.967 66.3579 279.588 66.3956C279.377 66.4182 279.346 66.4484 279.331 66.6445C279.316 66.8481 279.399 66.9462 280.156 67.5873C281.834 69.0054 281.955 69.1638 281.955 69.8351C281.955 70.3027 281.759 70.8835 281.547 71.0193C281.464 71.0721 281.154 71.1475 280.859 71.1777C280.224 71.238 279.906 71.3663 279.483 71.7132C279.165 71.9697 279.089 72.1583 279.203 72.4449C279.225 72.5128 279.528 72.7692 279.876 73.0181C280.541 73.5009 281.01 73.9685 281.124 74.2702C281.229 74.5342 281.214 75.1075 281.108 75.3036C280.995 75.5299 280.806 75.6506 280.171 75.9297C279.437 76.2464 279.044 76.5783 278.802 77.0837C278.492 77.7475 278.462 77.9285 278.401 79.8444C278.363 81.2021 278.318 81.7376 278.227 81.979C277.887 82.8841 276.367 84.2041 274.083 85.5769C272.911 86.2859 272.707 86.3085 272.669 85.7503C272.654 85.5241 272.729 85.0715 272.888 84.5058C273.334 82.8464 273.349 82.7332 273.304 82.2128C273.281 81.9337 273.168 81.4133 273.062 81.0437C272.54 79.2862 272.359 78.3509 272.351 77.4684C272.344 76.8122 272.223 75.9975 272.094 75.7411C271.898 75.3715 271.708 75.3413 270.045 75.3941C268.676 75.4394 268.479 75.4318 267.95 75.2961C266.937 75.0321 266.362 74.5795 265.916 73.6744C265.296 72.3921 265.167 70.8835 265.591 69.6239C266.12 68.0625 267.519 66.2372 268.857 65.3698C269.72 64.8116 270.43 64.5627 271.126 64.5627C271.459 64.5627 271.852 64.6155 272.049 64.6834C272.374 64.7965 273.433 65.4075 273.902 65.7469C274.764 66.373 276.117 66.6294 277.085 66.3428C277.554 66.207 278.802 65.2189 278.84 64.9549C278.915 64.4495 277.758 63.9819 276.246 63.914C275.732 63.8914 275.255 63.831 275.149 63.7707C275.043 63.7179 274.741 63.4916 274.469 63.2578C273.856 62.7373 273.44 62.5035 272.805 62.3451C272.011 62.1415 271.406 62.3149 270.71 62.941C270.105 63.4841 269.092 63.8914 268.321 63.8914C267.821 63.8914 267.587 63.6651 267.587 63.1748C267.587 62.8882 267.625 62.7826 267.799 62.6091C268.063 62.3451 268.396 62.2546 269.326 62.1943C269.72 62.1641 270.105 62.1264 270.181 62.1037C270.438 62.0359 270.325 61.6889 269.795 60.9497C269.311 60.2633 269.258 60.218 268.631 59.8937C267.534 59.3205 267.398 59.1319 267.814 58.6642C268.079 58.355 268.638 58.1589 269.228 58.1589C269.894 58.1589 270.219 58.2946 270.748 58.8C271.005 59.0489 271.293 59.2752 271.391 59.3054C271.663 59.3808 272.162 59.3733 272.412 59.2827C272.82 59.1394 272.82 58.9659 272.397 57.8194C272.253 57.4423 272.124 56.9822 272.094 56.7936C272.026 56.3486 272.192 55.9111 272.525 55.6622C272.805 55.4585 274.696 54.7872 275.043 54.7722C275.187 54.7722 275.399 54.8476 275.588 54.9683ZM254.126 55.5491C254.126 55.7075 254.512 55.979 255.223 56.3335C256.138 56.7861 256.682 57.4197 256.607 57.9401C256.584 58.1061 256.538 58.1211 255.699 58.2117C254.761 58.3097 254.308 58.4455 254.224 58.6567C254.149 58.8528 254.398 59.0037 255.313 59.328C256.871 59.8786 257.454 60.2558 257.454 60.731C257.454 61.0025 257.242 61.2137 256.788 61.4098C256.365 61.5908 256.002 61.5607 255.744 61.3193C255.646 61.2288 255.548 61.1609 255.533 61.1835C255.518 61.1986 255.45 61.5154 255.389 61.8925C255.132 63.2955 255.049 63.4237 254.217 63.6953C253.506 63.9366 252.795 64.3967 252.213 65.0077C251.661 65.5885 251.517 65.9279 251.411 66.8783C251.305 67.8136 251.336 67.9192 251.941 68.5377C252.311 68.93 252.387 69.0506 252.387 69.2769C252.387 69.6465 252.258 69.8879 251.971 70.0463C251.57 70.2575 251.389 70.1594 251.063 69.5334C250.148 67.791 249.483 67.3007 248.863 67.9192C248.401 68.3793 248.598 68.9903 249.422 69.6314C250.647 70.5818 250.927 70.974 251.041 71.8792C251.078 72.1884 251.147 72.5052 251.184 72.5807C251.328 72.8447 251.729 72.9503 252.583 72.9352L253.385 72.9276L253.801 73.2143C254.338 73.5838 255.124 74.4362 255.85 75.4318C256.168 75.8693 256.591 76.4199 256.796 76.6613C257.212 77.144 258.187 77.8153 258.815 78.0567C259.042 78.1397 259.473 78.2981 259.775 78.4112C260.426 78.6451 260.902 79.0599 260.97 79.4521C261.03 79.7614 260.962 79.9122 260.516 80.4101C260.335 80.6137 260.032 81.104 259.843 81.5038C259.412 82.4014 259.2 82.6804 258.747 82.9595C258.24 83.2763 258.036 83.5101 257.711 84.1588C257.544 84.4756 257.204 85.0112 256.947 85.3355C256.682 85.6598 256.47 85.954 256.47 85.9766C256.47 86.0068 256.417 86.0898 256.365 86.1652C256.266 86.2934 256.221 86.2859 255.661 85.9465C255.208 85.6674 254.179 84.9734 253.99 84.8226C253.975 84.8075 253.899 84.3172 253.824 83.7289C253.582 81.9186 253.362 81.3227 252.727 80.7118C252.031 80.048 251.608 79.3616 251.328 78.4791C251.177 77.9888 251.169 77.8606 251.222 76.4124C251.268 74.9189 251.268 74.8435 251.109 74.489C250.905 74.0213 250.784 73.8931 250.383 73.697C250.042 73.531 249.755 73.1992 248.863 71.9244C247.751 70.348 247.381 69.5334 247.101 68.0852C246.934 67.2555 246.957 67.0367 247.358 65.4603C247.94 63.1522 249.362 60.3538 250.882 58.5209C251.706 57.5177 253.854 55.451 254.073 55.4435C254.103 55.4435 254.126 55.4963 254.126 55.5491Z" fill="#EEEEEE"/>
<path d="M262.004 12.7164L208.574 66.0543C206.499 68.126 206.499 71.4849 208.574 73.5565L262.004 126.894C264.079 128.966 267.444 128.966 269.519 126.894L322.949 73.5565C325.024 71.4849 325.024 68.126 322.949 66.0543L269.519 12.7164C267.444 10.6447 264.079 10.6447 262.004 12.7164Z" stroke="#A7A7A7" stroke-opacity="0.3"/>
<path d="M338.871 199.361C343.424 199.361 347.114 195.677 347.114 191.133C347.114 186.588 343.424 182.904 338.871 182.904C334.319 182.904 330.629 186.588 330.629 191.133C330.629 195.677 334.319 199.361 338.871 199.361Z" fill="#ACD4A7"/>
<path d="M338.871 196.071C341.603 196.071 343.817 193.861 343.817 191.134C343.817 188.408 341.603 186.197 338.871 186.197C336.14 186.197 333.926 188.408 333.926 191.134C333.926 193.861 336.14 196.071 338.871 196.071Z" fill="#389D2D"/>
<path d="M264.024 279.39C268.576 279.39 272.266 275.706 272.266 271.162C272.266 266.618 268.576 262.934 264.024 262.934C259.472 262.934 255.781 266.618 255.781 271.162C255.781 275.706 259.472 279.39 264.024 279.39Z" fill="#ACD4A7"/>
<path d="M264.024 276.099C266.755 276.099 268.969 273.888 268.969 271.162C268.969 268.435 266.755 266.225 264.024 266.225C261.292 266.225 259.078 268.435 259.078 271.162C259.078 273.888 261.292 276.099 264.024 276.099Z" fill="#389D2D"/>
<path d="M188.242 199.36C192.795 199.36 196.485 195.676 196.485 191.132C196.485 186.587 192.795 182.903 188.242 182.903C183.69 182.903 180 186.587 180 191.132C180 195.676 183.69 199.36 188.242 199.36Z" fill="#ACD4A7"/>
<path d="M188.242 196.069C190.974 196.069 193.188 193.859 193.188 191.132C193.188 188.406 190.974 186.195 188.242 186.195C185.511 186.195 183.297 188.406 183.297 191.132C183.297 193.859 185.511 196.069 188.242 196.069Z" fill="#389D2D"/>
<path d="M347 191.499H413M413 191.499V156.999C413 154.79 414.791 152.999 417 152.999H426.5M413 191.499V225.499C413 227.708 414.791 229.499 417 229.499H426.5" stroke="url(#paint7_linear_310_40)"/>
<circle cx="412.5" cy="174.979" r="5" fill="#ACD4A7"/>
<circle cx="412.501" cy="174.979" r="3" fill="#389D2D"/>
<circle cx="412.5" cy="207.999" r="5" fill="#ACD4A7"/>
<circle cx="412.501" cy="207.999" r="3" fill="#389D2D"/>
<rect x="433" y="123.499" width="56" height="56" rx="4.5" fill="url(#paint8_linear_310_40)" stroke="url(#paint9_linear_310_40)"/>
<path d="M471.5 155.999L466 152.999L460.5 155.999L466 158.999L471.5 155.999Z" fill="#389D2D"/>
<path fill-rule="evenodd" clip-rule="evenodd" d="M456.32 155.999L460.5 158.279V160.999H453.5C452.39 160.999 451.5 160.109 451.5 158.999V142.999C451.5 142.469 451.711 141.96 452.086 141.585C452.461 141.21 452.97 140.999 453.5 140.999H454.5V147.999L457 146.499L459.5 147.999V140.999H465.5C466.03 140.999 466.539 141.21 466.914 141.585C467.289 141.96 467.5 142.469 467.5 142.999V151.539L466 150.719L456.32 155.999Z" fill="#EEEEEE"/>
<path d="M462.5 158.089V160.089L466 161.999L469.5 160.089V158.089L466 159.999L462.5 158.089Z" fill="#389D2D"/>
<rect x="436" y="127.499" width="50" height="49" rx="4.5" stroke="#A7A7A7" stroke-opacity="0.3"/>
<rect x="433" y="199.499" width="56" height="56" rx="4.5" fill="url(#paint10_linear_310_40)" stroke="url(#paint11_linear_310_40)"/>
<g clip-path="url(#clip2_310_40)">
<path fill-rule="evenodd" clip-rule="evenodd" d="M463.472 218.045L464.948 217.237C463.571 216.424 461.965 215.957 460.25 215.957C455.141 215.957 451 220.099 451 225.207C451 228.15 452.375 230.772 454.514 232.465C454.598 232.764 454.686 233.062 454.777 233.359C455.012 234.126 455.664 234.713 456.503 234.801C457.229 234.876 458.431 234.957 460.25 234.957C462.069 234.957 463.27 234.876 463.997 234.801C464.835 234.713 465.488 234.126 465.723 233.359C465.814 233.062 465.902 232.764 465.986 232.465C467.603 231.187 468.748 229.406 469.237 227.405C468.215 227.492 467.152 227.018 466.587 225.985L465.592 224.164C465.523 224.038 465.419 223.934 465.293 223.866L463.472 222.87C461.565 221.827 461.565 219.088 463.472 218.045ZM456.372 236.044C456.236 236.029 456.103 236.007 455.973 235.977C456.001 236.127 456.027 236.27 456.052 236.403C456.225 237.324 456.905 238.145 457.938 238.301C458.5 238.386 459.265 238.457 460.25 238.457C461.02 238.459 461.791 238.412 462.556 238.315C463.743 238.159 464.52 237.178 464.637 236.095L464.653 235.945C464.48 235.992 464.304 236.025 464.127 236.044C463.35 236.125 462.106 236.207 460.25 236.207C458.394 236.207 457.148 236.125 456.372 236.044Z" fill="#EEEEEE"/>
<path d="M467.903 215.649C468.377 214.783 469.623 214.783 470.097 215.649L471.093 217.47C471.299 217.848 471.609 218.158 471.987 218.365L473.808 219.361C474.675 219.835 474.675 221.08 473.808 221.554L471.987 222.55C471.609 222.756 471.299 223.066 471.093 223.444L470.097 225.265C469.623 226.132 468.377 226.132 467.903 225.265L466.907 223.444C466.701 223.066 466.391 222.756 466.013 222.55L464.192 221.554C463.326 221.08 463.326 219.835 464.192 219.361L466.013 218.365C466.391 218.158 466.701 217.848 466.907 217.47L467.903 215.649Z" fill="#389D2D"/>
</g>
<rect x="436" y="203.499" width="50" height="49" rx="4.5" stroke="#A7A7A7" stroke-opacity="0.3"/>
<path d="M179.5 191.499H113.5M113.5 191.499V156.999C113.5 154.79 111.709 152.999 109.5 152.999H100M113.5 191.499V225.499C113.5 227.708 111.709 229.499 109.5 229.499H100" stroke="url(#paint12_linear_310_40)"/>
<circle cx="5" cy="5" r="5" transform="matrix(-1 0 0 1 119 169.979)" fill="#ACD4A7"/>
<circle cx="3" cy="3" r="3" transform="matrix(-1 0 0 1 116.999 171.979)" fill="#389D2D"/>
<circle cx="5" cy="5" r="5" transform="matrix(-1 0 0 1 119 202.999)" fill="#ACD4A7"/>
<circle cx="3" cy="3" r="3" transform="matrix(-1 0 0 1 116.999 204.999)" fill="#389D2D"/>
<rect x="-0.5" y="0.5" width="56" height="56" rx="4.5" transform="matrix(-1 0 0 1 93 122.999)" fill="url(#paint13_linear_310_40)" stroke="url(#paint14_linear_310_40)"/>
<path d="M60.5 140.999C59.4391 140.999 58.4217 141.42 57.6716 142.171C56.9214 142.921 56.5 143.938 56.5 144.999V156.999C56.5 158.06 56.9214 159.077 57.6716 159.827C58.4217 160.578 59.4391 160.999 60.5 160.999H73.5C74.0523 160.999 74.5 160.551 74.5 159.999V141.999C74.5 141.447 74.0523 140.999 73.5 140.999H60.5ZM64.5 144.999C64.5 144.447 64.9477 143.999 65.5 143.999H70.5C71.0523 143.999 71.5 144.447 71.5 144.999V144.999C71.5 145.551 71.0523 145.999 70.5 145.999H65.5C64.9477 145.999 64.5 145.551 64.5 144.999V144.999ZM58.5 156.999C58.5 156.469 58.7107 155.96 59.0858 155.585C59.4609 155.21 59.9696 154.999 60.5 154.999H71.5C72.0523 154.999 72.5 155.447 72.5 155.999V157.999C72.5 158.551 72.0523 158.999 71.5 158.999H60.5C59.9696 158.999 59.4609 158.788 59.0858 158.413C58.7107 158.038 58.5 157.529 58.5 156.999Z" fill="#EEEEEE"/>
<path d="M64.5 144.999C64.5 144.447 64.9477 143.999 65.5 143.999H70.5C71.0523 143.999 71.5 144.447 71.5 144.999V144.999C71.5 145.551 71.0523 145.999 70.5 145.999H65.5C64.9477 145.999 64.5 145.551 64.5 144.999V144.999Z" fill="#389D2D"/>
<rect x="-0.5" y="0.5" width="50" height="49" rx="4.5" transform="matrix(-1 0 0 1 90 126.999)" stroke="#A7A7A7" stroke-opacity="0.3"/>
<rect x="-0.5" y="0.5" width="56" height="56" rx="4.5" transform="matrix(-1 0 0 1 93 198.999)" fill="url(#paint15_linear_310_40)" stroke="url(#paint16_linear_310_40)"/>
<mask id="mask0_310_40" style="mask-type:luminance" maskUnits="userSpaceOnUse" x="54" y="215" width="23" height="24">
<path d="M77 215.999H54V238.999H77V215.999Z" fill="white"/>
</mask>
<g mask="url(#mask0_310_40)">
<path d="M60.6934 216.031C60.5721 216.081 55.6756 220.038 55.6441 220.11C55.6307 220.15 55.6172 220.393 55.6172 220.649V221.116L55.3746 221.287C54.9479 221.588 54.9883 220.788 54.9883 228.726C54.9883 235.357 54.9928 235.761 55.0647 235.846C55.1635 235.958 60.6215 238.955 60.7832 238.982C60.8461 238.991 64.1973 238.164 68.3525 237.117C75.1492 235.397 75.8186 235.217 75.9129 235.114L76.0117 234.997V228.802V222.608L75.9129 222.495C75.8275 222.401 75.4008 222.244 73.6758 221.678C71.7217 221.04 71.5285 220.982 71.3848 221.026C71.2994 221.053 70.6616 221.305 69.9697 221.588L68.7119 222.105L68.6895 221.125C68.6715 220.398 68.6535 220.128 68.6086 220.074C68.5727 220.034 68.375 219.944 68.1684 219.876L67.791 219.755V219.292C67.791 218.839 67.7326 218.569 67.6158 218.497C67.508 218.43 60.8955 216 60.8326 216.004C60.7922 216.004 60.7293 216.018 60.6934 216.031ZM62.8946 219.796C63.5504 219.984 64.1389 220.159 64.2108 220.186L64.3321 220.231V221.646C64.3321 222.922 64.3231 223.057 64.2557 223.084C64.1883 223.111 62.0231 222.698 61.6951 222.599L61.5469 222.549V221.035C61.5469 220.2 61.5604 219.504 61.5783 219.49C61.6278 219.436 61.6682 219.45 62.8946 219.796ZM60.042 221.296V222.796L59.2334 223.151C58.7887 223.344 58.3844 223.497 58.335 223.493C58.2496 223.479 58.2451 223.439 58.2362 222.176C58.2272 221.458 58.2362 220.851 58.2586 220.824C58.317 220.734 59.9072 219.773 59.9746 219.782C60.033 219.796 60.042 219.998 60.042 221.296ZM66.668 220.883C67.0768 220.995 67.4362 221.112 67.4676 221.134C67.508 221.166 67.5215 221.485 67.5215 222.446C67.5215 223.538 67.5125 223.722 67.4542 223.744C67.3733 223.776 65.3653 223.376 65.2889 223.313C65.2125 223.25 65.2035 220.627 65.2799 220.55C65.3158 220.514 65.4102 220.523 65.6303 220.586C65.792 220.636 66.2592 220.766 66.668 220.883ZM57.167 221.669C57.1805 221.727 57.185 222.289 57.1805 222.918L57.167 224.063L56.5741 224.328C56.0754 224.553 55.9676 224.584 55.9092 224.535C55.8508 224.485 55.8418 224.319 55.8418 223.407C55.8418 222.437 55.8508 222.325 55.9227 222.266C56.0934 222.123 56.9918 221.579 57.0637 221.575C57.1086 221.57 57.1535 221.61 57.167 221.669ZM72.683 222.608C72.9436 222.68 73.2535 222.774 73.3748 222.81L73.586 222.882V223.91C73.586 224.84 73.577 224.944 73.5096 224.971C73.4691 224.989 73.1412 224.944 72.7863 224.872C72.3102 224.777 72.1305 224.724 72.0991 224.665C72.0407 224.557 72.0451 222.666 72.1035 222.554C72.1305 222.509 72.1619 222.468 72.1754 222.468C72.1889 222.468 72.418 222.531 72.683 222.608ZM74.7315 223.201L75.2256 223.344L75.2391 224.324C75.2481 225.128 75.2391 225.303 75.1852 225.325C75.1268 225.348 74.0666 225.141 73.9858 225.092C73.9363 225.065 73.9319 223.084 73.9768 223.034C74.0172 222.999 74.1116 223.016 74.7315 223.201ZM63.0113 224.018C63.6941 224.131 64.2691 224.234 64.2917 224.247C64.3141 224.261 64.3321 224.894 64.3321 225.685C64.3321 226.907 64.3231 227.1 64.2647 227.122C64.1613 227.163 61.6682 226.956 61.6053 226.907C61.5604 226.871 61.5469 226.507 61.5469 225.366C61.5469 224.548 61.5604 223.861 61.5783 223.848C61.6278 223.798 61.7176 223.807 63.0113 224.018ZM60.0645 225.501V227.006L59.9657 227.028C59.9072 227.041 59.5209 227.113 59.0987 227.185C58.5551 227.275 58.3215 227.302 58.2811 227.266C58.2362 227.23 58.2227 226.916 58.2227 225.923C58.2227 224.697 58.2272 224.625 58.308 224.571C58.4518 224.481 59.8084 224.005 59.9432 224L60.0645 223.996V225.501ZM66.376 224.562C66.9465 224.652 67.4362 224.746 67.4676 224.773C67.5485 224.836 67.5485 227.289 67.4631 227.356C67.4227 227.392 67.1127 227.383 66.3625 227.32C65.7875 227.275 65.3024 227.221 65.2754 227.208C65.226 227.176 65.2125 224.481 65.2619 224.432C65.3024 224.391 65.226 224.382 66.376 224.562ZM57.1356 225.038C57.2164 225.119 57.2119 227.423 57.1356 227.491C57.0322 227.567 55.9676 227.729 55.9002 227.67C55.8553 227.634 55.8418 227.383 55.8418 226.561C55.8418 225.977 55.8598 225.478 55.8778 225.447C55.9047 225.406 56.9289 225.007 57.0592 224.989C57.0727 224.984 57.1041 225.007 57.1356 225.038ZM72.8672 225.617C73.1996 225.671 73.5006 225.734 73.532 225.761C73.5725 225.793 73.586 226.058 73.586 226.803C73.586 227.549 73.5725 227.814 73.532 227.846C73.4422 227.913 72.1484 227.796 72.0991 227.72C72.0541 227.648 72.0451 225.707 72.0856 225.595C72.1215 225.501 72.1485 225.505 72.8672 225.617ZM74.6416 225.905C74.8662 225.945 75.0908 225.986 75.1492 225.995L75.2481 226.017V227.014V228.007L74.6641 227.976C74.3407 227.958 74.0487 227.935 74.0127 227.922C73.9543 227.899 73.9454 227.733 73.9454 226.866V225.838H74.0936C74.17 225.838 74.4215 225.869 74.6416 225.905ZM64.2782 228.277C64.3186 228.304 64.3321 228.645 64.3321 229.723C64.3321 230.95 64.3231 231.134 64.2647 231.156C64.1569 231.197 61.7086 231.296 61.6233 231.26C61.5514 231.233 61.5469 231.102 61.5469 229.728C61.5469 228.474 61.5559 228.218 61.6098 228.187C61.6907 228.142 64.1973 228.227 64.2782 228.277ZM59.9926 228.2C60.0555 228.223 60.0645 228.398 60.0645 229.705C60.0645 231.035 60.0555 231.188 59.9926 231.215C59.8893 231.255 58.3484 231.098 58.2811 231.039C58.1957 230.972 58.1957 228.421 58.2811 228.367C58.308 228.349 58.6899 228.299 59.1211 228.259C59.5524 228.218 59.9117 228.182 59.9162 228.178C59.9207 228.178 59.9522 228.187 59.9926 228.2ZM67.4676 228.407C67.508 228.443 67.5215 228.757 67.5215 229.701C67.5215 230.644 67.508 230.959 67.4676 230.995C67.4047 231.039 65.4012 231.147 65.2934 231.107C65.2395 231.089 65.2305 230.864 65.2305 229.728C65.2305 228.978 65.244 228.353 65.2664 228.335C65.3113 228.281 67.4002 228.353 67.4676 228.407ZM69.9832 228.461C71.0389 228.506 71.5465 228.542 71.5869 228.578C71.6812 228.659 71.6858 235.905 71.5959 235.999C71.5106 236.08 68.3705 236.87 68.2717 236.83C68.1998 236.803 68.1954 236.551 68.1954 232.652C68.1954 228.358 68.1954 228.398 68.375 228.398C68.411 228.398 69.1342 228.43 69.9832 228.461ZM57.1625 228.515C57.2029 228.623 57.194 230.837 57.1491 230.909C57.1176 230.959 57.0143 230.959 56.5336 230.914C56.2147 230.882 55.9272 230.837 55.9002 230.815C55.8329 230.761 55.8149 228.686 55.8822 228.582C55.9227 228.524 56.3719 228.461 56.8795 228.448C57.0772 228.443 57.14 228.461 57.1625 228.515ZM73.532 228.632C73.5725 228.668 73.586 228.933 73.586 229.678C73.586 230.424 73.5725 230.689 73.532 230.721C73.5006 230.748 73.1772 230.779 72.8133 230.797C72.1889 230.824 72.1529 230.824 72.108 230.739C72.0316 230.599 72.0407 228.69 72.117 228.614C72.1664 228.569 72.3282 228.555 72.8268 228.569C73.1816 228.578 73.5006 228.609 73.532 228.632ZM75.2166 228.708C75.2346 228.726 75.2436 229.175 75.2391 229.705L75.2256 230.667L74.6551 230.707C74.3451 230.73 74.0576 230.734 74.0172 230.721C73.9543 230.694 73.9454 230.563 73.9454 229.687C73.9454 229.135 73.9588 228.668 73.9812 228.645C74.0217 228.605 75.1672 228.659 75.2166 228.708ZM75.1762 231.345C75.2391 231.367 75.2481 231.502 75.2481 232.356C75.2481 233.339 75.2481 233.339 75.1492 233.362C74.8617 233.425 74.0441 233.546 73.9992 233.528C73.9588 233.515 73.9454 233.241 73.9454 232.482C73.9454 231.915 73.9498 231.448 73.9588 231.448C73.9633 231.444 74.2194 231.417 74.5293 231.385C74.8393 231.354 75.0954 231.327 75.0998 231.323C75.1043 231.323 75.1358 231.332 75.1762 231.345ZM73.577 232.562L73.586 233.609L73.4871 233.632C73.4287 233.645 73.1143 233.703 72.7819 233.757C72.2697 233.847 72.1754 233.856 72.1215 233.802C72.0316 233.708 72.0272 231.713 72.1215 231.637C72.1934 231.579 72.8582 231.507 73.2715 231.516L73.5635 231.52L73.577 232.562ZM56.592 231.772C56.8571 231.821 57.1041 231.884 57.1356 231.911C57.176 231.947 57.1895 232.459 57.1805 234.301C57.167 236.502 57.1625 236.641 57.0862 236.655C57.0053 236.673 55.9316 236.111 55.8778 236.017C55.8329 235.954 55.8329 231.749 55.8733 231.709C55.9227 231.659 56.0799 231.673 56.592 231.772ZM67.4676 232.046C67.5485 232.127 67.544 234.566 67.4676 234.633C67.3912 234.692 65.3922 235.02 65.3024 234.988C65.2395 234.961 65.2305 234.799 65.2305 233.591V232.216L65.3338 232.194C65.4102 232.176 66.7937 232.041 67.3463 231.996C67.3822 231.996 67.4362 232.014 67.4676 232.046ZM59.3008 232.275L60.042 232.419L60.0555 235.325C60.0645 237.791 60.0555 238.232 60.0016 238.249C59.9342 238.276 58.317 237.414 58.2586 237.324C58.2182 237.257 58.2092 232.199 58.2542 232.158C58.308 232.104 58.5506 232.131 59.3008 232.275ZM64.3321 233.739C64.3321 234.795 64.3186 235.136 64.2782 235.172C64.2018 235.231 61.6996 235.649 61.6143 235.613C61.5559 235.59 61.5469 235.361 61.5469 234.09C61.5469 232.94 61.5604 232.576 61.6053 232.54C61.6816 232.477 64.1524 232.266 64.2557 232.315C64.3275 232.351 64.3321 232.464 64.3321 233.739Z" fill="#EEEEEE"/>
<path d="M68.7467 228.947C68.6614 229.032 68.6703 235.42 68.7512 235.492C68.8321 235.555 70.9749 236.04 71.1186 236.026L71.2309 236.013L71.2399 232.576C71.2489 230.685 71.2354 229.113 71.2174 229.081C71.1905 229.041 70.849 229.005 70.036 228.96C69.4071 228.924 68.8725 228.893 68.85 228.893C68.8231 228.893 68.7782 228.915 68.7467 228.947Z" fill="#389D2D"/>
</g>
<rect x="-0.5" y="0.5" width="50" height="49" rx="4.5" transform="matrix(-1 0 0 1 90 202.999)" stroke="#A7A7A7" stroke-opacity="0.3"/>
<path d="M265 279.986V392.486H234.5" stroke="#A7A7A7"/>
<path d="M172 392.443L177.904 395.847V389.041L172 392.443ZM229.554 392.443C229.554 394.18 230.964 395.587 232.704 395.587C234.443 395.587 235.852 394.18 235.852 392.443C235.852 390.708 234.443 389.3 232.704 389.3C230.964 389.3 229.554 390.708 229.554 392.443ZM177.314 392.443V393.033H232.704V392.443V391.854H177.314V392.443Z" fill="url(#paint17_linear_310_40)"/>
</g>
</g>
<defs>
<linearGradient id="paint0_linear_310_40" x1="177.65" y1="180.773" x2="378.384" y2="180.773" gradientUnits="userSpaceOnUse">
<stop stop-color="#737373" stop-opacity="0.11"/>
<stop offset="1" stop-color="#D9D9D9" stop-opacity="0.2"/>
</linearGradient>
<linearGradient id="paint1_linear_310_40" x1="230.782" y1="35.6649" x2="300.601" y2="105.605" gradientUnits="userSpaceOnUse">
<stop/>
<stop offset="1" stop-color="#666666"/>
</linearGradient>
<linearGradient id="paint2_linear_310_40" x1="230.782" y1="35.6649" x2="300.601" y2="105.605" gradientUnits="userSpaceOnUse">
<stop/>
<stop offset="1" stop-color="#666666"/>
</linearGradient>
<radialGradient id="paint3_radial_310_40" cx="0" cy="0" r="1" gradientUnits="userSpaceOnUse" gradientTransform="translate(nan nan) rotate(nan) scale(nan nan)">
<stop stop-color="#389D2D" stop-opacity="0"/>
<stop offset="1" stop-color="#389D2D"/>
</radialGradient>
<radialGradient id="paint4_radial_310_40" cx="0" cy="0" r="1" gradientUnits="userSpaceOnUse" gradientTransform="translate(nan nan) rotate(nan) scale(nan nan)">
<stop stop-color="#389D2D" stop-opacity="0"/>
<stop offset="1" stop-color="#389D2D"/>
</radialGradient>
<radialGradient id="paint5_radial_310_40" cx="0" cy="0" r="1" gradientUnits="userSpaceOnUse" gradientTransform="translate(nan nan) rotate(nan) scale(nan nan)">
<stop stop-color="#389D2D" stop-opacity="0"/>
<stop offset="1" stop-color="#389D2D"/>
</radialGradient>
<radialGradient id="paint6_radial_310_40" cx="0" cy="0" r="1" gradientUnits="userSpaceOnUse" gradientTransform="translate(nan nan) rotate(nan) scale(nan nan)">
<stop stop-color="#389D2D" stop-opacity="0"/>
<stop offset="1" stop-color="#389D2D"/>
</radialGradient>
<linearGradient id="paint7_linear_310_40" x1="437.5" y1="186.499" x2="380.5" y2="193.499" gradientUnits="userSpaceOnUse">
<stop stop-color="#A7A7A7" stop-opacity="0"/>
<stop offset="1" stop-color="#A7A7A7"/>
</linearGradient>
<linearGradient id="paint8_linear_310_40" x1="461" y1="122.999" x2="461" y2="179.999" gradientUnits="userSpaceOnUse">
<stop/>
<stop offset="1" stop-color="#666666"/>
</linearGradient>
<linearGradient id="paint9_linear_310_40" x1="461" y1="122.999" x2="461" y2="179.999" gradientUnits="userSpaceOnUse">
<stop/>
<stop offset="1" stop-color="#666666"/>
</linearGradient>
<linearGradient id="paint10_linear_310_40" x1="461" y1="198.999" x2="461" y2="255.999" gradientUnits="userSpaceOnUse">
<stop/>
<stop offset="1" stop-color="#666666"/>
</linearGradient>
<linearGradient id="paint11_linear_310_40" x1="461" y1="198.999" x2="461" y2="255.999" gradientUnits="userSpaceOnUse">
<stop/>
<stop offset="1" stop-color="#666666"/>
</linearGradient>
<linearGradient id="paint12_linear_310_40" x1="89" y1="186.499" x2="146" y2="193.499" gradientUnits="userSpaceOnUse">
<stop stop-color="#A7A7A7" stop-opacity="0"/>
<stop offset="1" stop-color="#A7A7A7"/>
</linearGradient>
<linearGradient id="paint13_linear_310_40" x1="28.5" y1="0" x2="28.5" y2="57" gradientUnits="userSpaceOnUse">
<stop/>
<stop offset="1" stop-color="#666666"/>
</linearGradient>
<linearGradient id="paint14_linear_310_40" x1="28.5" y1="0" x2="28.5" y2="57" gradientUnits="userSpaceOnUse">
<stop/>
<stop offset="1" stop-color="#666666"/>
</linearGradient>
<linearGradient id="paint15_linear_310_40" x1="28.5" y1="0" x2="28.5" y2="57" gradientUnits="userSpaceOnUse">
<stop/>
<stop offset="1" stop-color="#666666"/>
</linearGradient>
<linearGradient id="paint16_linear_310_40" x1="28.5" y1="0" x2="28.5" y2="57" gradientUnits="userSpaceOnUse">
<stop/>
<stop offset="1" stop-color="#666666"/>
</linearGradient>
<linearGradient id="paint17_linear_310_40" x1="172" y1="393.033" x2="232.704" y2="393.033" gradientUnits="userSpaceOnUse">
<stop stop-color="#4C4C4C"/>
<stop offset="1" stop-color="#878787"/>
</linearGradient>
<clipPath id="clip0_310_40">
<rect width="525" height="408" fill="white"/>
</clipPath>
<clipPath id="clip1_310_40">
<rect width="581" height="435" fill="white"/>
</clipPath>
<clipPath id="clip2_310_40">
<rect width="24" height="24" fill="white" transform="translate(451 214.999)"/>
</clipPath>
</defs>
</svg>
