<svg width="111" height="184" viewBox="0 0 111 184" fill="none" xmlns="http://www.w3.org/2000/svg">
<path fill-rule="evenodd" clip-rule="evenodd" d="M49.7487 60.0247C53.0457 58.1246 58.3911 58.1246 61.6881 60.0247L103.481 84.1098C104.647 84.7817 105.372 86.018 105.39 87.3633L106.127 142.658C106.127 146.458 103.455 151.079 100.158 152.979L56.8565 177.591C55.681 178.259 54.2396 178.255 53.0681 177.58L11.2978 153.507C8.00088 151.607 5.32815 146.986 5.32812 143.186L5.32941 88.5401C5.32944 87.194 6.03947 85.9471 7.19757 85.2599L49.7487 60.0247ZM60.4942 60.7127L102.287 84.7985C103.453 85.4697 104.178 86.7059 104.196 88.0513L104.934 143.346L104.928 143.632C104.8 146.615 102.713 150.13 100.158 151.603L56.8565 176.215C55.681 176.883 54.2396 176.879 53.0681 176.203L11.2978 152.131C8.74272 150.659 6.65593 147.144 6.52788 144.162L6.52208 143.874V89.228C6.52208 87.8819 7.23212 86.635 8.39022 85.9486L50.9427 60.7127L51.1945 60.5743C53.8458 59.1938 57.939 59.2402 60.4942 60.7127Z" fill="url(#paint0_linear_4810_7651)"/>
<path d="M104.198 88.053C104.179 86.7076 103.454 85.4714 102.289 84.8002L60.4955 60.7145C57.9404 59.2419 53.8472 59.1955 51.1959 60.576L50.9441 60.7145L8.39157 85.9503C7.23347 86.6367 6.52344 87.8837 6.52344 89.2298V143.876L6.52923 144.163C6.65728 147.145 8.74407 150.66 11.2991 152.133L53.0694 176.205C54.241 176.881 55.6824 176.884 56.8579 176.216L100.159 151.605C102.714 150.132 104.801 146.617 104.929 143.634L104.935 143.347L104.198 88.053Z" fill="url(#paint1_linear_4810_7651)"/>
<path d="M104.198 88.053C104.179 86.7076 103.454 85.4714 102.289 84.8002L60.4955 60.7145C57.9404 59.2419 53.8472 59.1955 51.1959 60.576L50.9441 60.7145L8.39157 85.9503C7.23347 86.6367 6.52344 87.8837 6.52344 89.2298V143.876L6.52923 144.163C6.65728 147.145 8.74407 150.66 11.2991 152.133L53.0694 176.205C54.241 176.881 55.6824 176.884 56.8579 176.216L100.159 151.605C102.714 150.132 104.801 146.617 104.929 143.634L104.935 143.347L104.198 88.053Z" fill="#F9F9F9"/>
<path d="M53.015 66.4573L15.6362 88.0379C13.9947 88.9856 13.9947 90.5222 15.6362 91.4699L51.8673 112.388C53.5088 113.336 56.1702 113.336 57.8117 112.388L95.1904 90.8073C96.8319 89.8596 96.8319 88.323 95.1904 87.3753L58.9593 66.4573C57.3178 65.5096 54.6565 65.5096 53.015 66.4573Z" stroke="#DDDDDD"/>
<path d="M55.0963 124.687C56.7139 124.687 58.2652 125.329 59.409 126.473C60.5528 127.617 61.1953 129.168 61.1953 130.786C61.1953 132.174 60.7227 133.454 59.945 134.491C58.6338 134.979 57.4597 135.757 56.4839 136.732L55.0963 136.884C53.4788 136.884 51.9275 136.242 50.7837 135.098C49.64 133.954 48.9973 132.403 48.9973 130.786C48.9973 129.168 49.64 127.617 50.7837 126.473C51.9275 125.329 53.4788 124.687 55.0963 124.687ZM42.8984 149.082V146.033C42.8984 142.8 47.9453 140.148 54.334 139.934C53.8461 141.123 53.5716 142.405 53.5716 143.746C53.5716 145.713 54.151 147.558 55.0963 149.082H42.8984Z" fill="#389D2D"/>
<path d="M65.0189 136.886C65.6255 136.886 66.2072 137.127 66.6362 137.556C67.0651 137.985 67.306 138.567 67.306 139.173V139.936H68.0684C68.675 139.936 69.2567 140.177 69.6856 140.605C70.1146 141.035 70.3555 141.616 70.3555 142.223V148.322C70.3555 148.928 70.1146 149.51 69.6856 149.939C69.2567 150.368 68.675 150.609 68.0684 150.609H58.92C58.3133 150.609 57.7316 150.368 57.3027 149.939C56.8737 149.51 56.6328 148.928 56.6328 148.322V142.223C56.6328 141.616 56.8737 141.035 57.3027 140.605C57.7316 140.177 58.3133 139.936 58.92 139.936H59.6823V139.173C59.6823 138.567 59.9232 137.985 60.3521 137.556C60.7811 137.127 61.3628 136.886 61.9694 136.886H65.0189ZM61.9694 138.411C61.7672 138.411 61.5733 138.491 61.4303 138.634C61.2874 138.777 61.207 138.971 61.207 139.173V139.936H65.7813V139.173C65.7813 138.971 65.701 138.777 65.558 138.634C65.415 138.491 65.2211 138.411 65.0189 138.411H61.9694Z" fill="#389D2D"/>
<path d="M65.0189 136.886C65.6255 136.886 66.2072 137.127 66.6362 137.556C67.0651 137.985 67.306 138.567 67.306 139.173V139.936H68.0684C68.675 139.936 69.2567 140.177 69.6856 140.605C70.1146 141.035 70.3555 141.616 70.3555 142.223V148.322C70.3555 148.928 70.1146 149.51 69.6856 149.939C69.2567 150.368 68.675 150.609 68.0684 150.609H58.92C58.3133 150.609 57.7316 150.368 57.3027 149.939C56.8737 149.51 56.6328 148.928 56.6328 148.322V142.223C56.6328 141.616 56.8737 141.035 57.3027 140.605C57.7316 140.177 58.3133 139.936 58.92 139.936H59.6823V139.173C59.6823 138.567 59.9232 137.985 60.3521 137.556C60.7811 137.127 61.3628 136.886 61.9694 136.886H65.0189ZM61.9694 138.411C61.7672 138.411 61.5733 138.491 61.4303 138.634C61.2874 138.777 61.207 138.971 61.207 139.173V139.936H65.7813V139.173C65.7813 138.971 65.701 138.777 65.558 138.634C65.415 138.491 65.2211 138.411 65.0189 138.411H61.9694Z" fill="#389D2D"/>
<path d="M104.895 131.144C107.897 131.144 110.33 128.711 110.33 125.71C110.33 122.708 107.897 120.275 104.895 120.275C101.894 120.275 99.4609 122.708 99.4609 125.71C99.4609 128.711 101.894 131.144 104.895 131.144Z" fill="#ACD4A7"/>
<path d="M104.901 128.97C106.702 128.97 108.162 127.51 108.162 125.709C108.162 123.908 106.702 122.448 104.901 122.448C103.1 122.448 101.641 123.908 101.641 125.709C101.641 127.51 103.1 128.97 104.901 128.97Z" fill="#389D2D"/>
<path d="M55.5438 184C58.5452 184 60.9783 181.567 60.9783 178.565C60.9783 175.564 58.5452 173.131 55.5438 173.131C52.5425 173.131 50.1094 175.564 50.1094 178.565C50.1094 181.567 52.5425 184 55.5438 184Z" fill="#ACD4A7"/>
<path d="M55.5497 181.826C57.3506 181.826 58.8104 180.366 58.8104 178.565C58.8104 176.765 57.3506 175.305 55.5497 175.305C53.7489 175.305 52.2891 176.765 52.2891 178.565C52.2891 180.366 53.7489 181.826 55.5497 181.826Z" fill="#389D2D"/>
<path d="M5.58291 131.144C8.58428 131.144 11.0174 128.711 11.0174 125.71C11.0174 122.708 8.58428 120.275 5.58291 120.275C2.58153 120.275 0.148438 122.708 0.148438 125.71C0.148438 128.711 2.58153 131.144 5.58291 131.144Z" fill="#ACD4A7"/>
<path d="M5.58099 128.97C7.38182 128.97 8.84167 127.51 8.84167 125.709C8.84167 123.908 7.38182 122.448 5.58099 122.448C3.78017 122.448 2.32031 123.908 2.32031 125.709C2.32031 127.51 3.78017 128.97 5.58099 128.97Z" fill="#389D2D"/>
<path d="M52.9829 2.42729L12.2627 43.1475C10.9224 44.4877 10.9224 46.6607 12.2627 48.001L52.9829 88.7211C54.3231 90.0614 56.4961 90.0614 57.8364 88.7211L98.5566 48.001C99.8968 46.6607 99.8968 44.4877 98.5566 43.1475L57.8364 2.42729C56.4961 1.08703 54.3231 1.08702 52.9829 2.42729Z" fill="url(#paint6_linear_4810_7651)" stroke="url(#paint7_linear_4810_7651)"/>
<mask id="mask0_4810_7651" style="mask-type:luminance" maskUnits="userSpaceOnUse" x="40" y="30" width="30" height="30">
<path d="M69.5514 30.7334H40.5703V59.7144H69.5514V30.7334Z" fill="white"/>
</mask>
<g mask="url(#mask0_4810_7651)">
<path d="M49.0024 30.7733C48.8495 30.8355 42.6798 35.8223 42.6401 35.9128C42.6232 35.9638 42.6062 36.2695 42.6062 36.5921V37.1808L42.3005 37.3959C41.7628 37.7751 41.8138 36.7675 41.8138 46.7694C41.8138 55.1241 41.8194 55.6335 41.91 55.7411C42.0345 55.8826 48.9119 59.6581 49.1156 59.692C49.1949 59.7034 53.4175 58.6618 58.6533 57.3429C67.2174 55.1751 68.0609 54.9487 68.1797 54.8185L68.3042 54.6713V46.8656V39.06L68.1797 38.9185C68.0721 38.7997 67.5344 38.6015 65.3608 37.8884C62.8986 37.0845 62.6552 37.011 62.4741 37.0676C62.3665 37.1015 61.5628 37.4185 60.6911 37.7751L59.1062 38.426L59.0779 37.1921C59.0552 36.2751 59.0326 35.9355 58.976 35.8675C58.9307 35.8166 58.6816 35.7034 58.4212 35.6185L57.9458 35.4657V34.8826C57.9458 34.311 57.8722 33.9713 57.725 33.8808C57.5892 33.7958 49.2571 30.7336 49.1779 30.7393C49.1269 30.7393 49.0477 30.7563 49.0024 30.7733ZM51.776 35.5166C52.6024 35.7544 53.3439 35.9751 53.4345 36.0091L53.5873 36.0657V37.8487C53.5873 39.4562 53.576 39.6261 53.4911 39.66C53.4062 39.6939 50.6779 39.1732 50.2647 39.0487L50.0779 38.9864V37.0789C50.0779 36.0261 50.0949 35.1487 50.1175 35.1317C50.1798 35.0638 50.2307 35.0808 51.776 35.5166ZM48.1817 37.4072V39.2977L47.1628 39.7449C46.6025 39.9883 46.093 40.1808 46.0308 40.1751C45.9232 40.1581 45.9175 40.1072 45.9062 38.5166C45.8949 37.611 45.9062 36.8468 45.9345 36.8129C46.0081 36.6997 48.0118 35.4883 48.0967 35.4996C48.1703 35.5166 48.1817 35.7714 48.1817 37.4072ZM56.5307 36.8864C57.0458 37.0279 57.4986 37.1751 57.5382 37.2034C57.5892 37.2431 57.6062 37.6449 57.6062 38.8562C57.6062 40.2317 57.5948 40.4638 57.5213 40.4921C57.4194 40.5317 54.8892 40.0279 54.793 39.9487C54.6967 39.8694 54.6854 36.5638 54.7817 36.4676C54.8269 36.4223 54.9458 36.4336 55.2232 36.5128C55.4269 36.5751 56.0156 36.7393 56.5307 36.8864ZM44.5591 37.877C44.576 37.9506 44.5817 38.6581 44.576 39.4506L44.5591 40.894L43.8119 41.228C43.1835 41.511 43.0477 41.5506 42.9741 41.4883C42.9006 41.426 42.8892 41.2166 42.8892 40.0676C42.8892 38.845 42.9006 38.7034 42.9911 38.6298C43.2062 38.4487 44.3383 37.7638 44.4289 37.7582C44.4855 37.7524 44.5421 37.8034 44.5591 37.877ZM64.1099 39.06C64.4382 39.1506 64.8288 39.2695 64.9816 39.3148L65.2476 39.4053V40.7015C65.2476 41.8732 65.2363 42.0034 65.1514 42.0374C65.1004 42.06 64.6872 42.0034 64.2401 41.9128C63.6401 41.7939 63.4137 41.7261 63.3741 41.6525C63.3005 41.5166 63.3061 39.1336 63.3797 38.9921C63.4137 38.9355 63.4533 38.8845 63.4703 38.8845C63.4873 38.8845 63.7759 38.9638 64.1099 39.06ZM66.691 39.8072L67.3137 39.9883L67.3307 41.2222C67.342 42.2355 67.3307 42.4562 67.2627 42.4845C67.1891 42.5128 65.8533 42.2524 65.7514 42.1902C65.6891 42.1562 65.6835 39.66 65.7401 39.5978C65.791 39.5525 65.9099 39.5751 66.691 39.8072ZM51.9231 40.8373C52.7835 40.9789 53.508 41.1091 53.5364 41.1261C53.5647 41.143 53.5873 41.9411 53.5873 42.9374C53.5873 44.477 53.576 44.7204 53.5024 44.7487C53.3722 44.7996 50.2307 44.5393 50.1515 44.477C50.0949 44.4317 50.0779 43.9732 50.0779 42.5355C50.0779 41.5053 50.0949 40.6393 50.1175 40.6223C50.1798 40.56 50.293 40.5713 51.9231 40.8373ZM48.21 42.7053V44.6015L48.0854 44.6298C48.0118 44.6468 47.525 44.7373 46.993 44.8279C46.3081 44.9411 46.0138 44.9751 45.9628 44.9298C45.9062 44.8845 45.8892 44.4883 45.8892 43.2373C45.8892 41.6921 45.8949 41.6015 45.9967 41.5336C46.1779 41.4204 47.8873 40.8204 48.0571 40.8148L48.21 40.809V42.7053ZM56.1628 41.5223C56.8816 41.6354 57.4986 41.7543 57.5382 41.7883C57.6401 41.8675 57.6401 44.9581 57.5326 45.043C57.4816 45.0883 57.0911 45.0769 56.1458 44.9977C55.4212 44.9411 54.81 44.8732 54.7759 44.8562C54.7137 44.8166 54.6967 41.4204 54.759 41.3581C54.81 41.3072 54.7137 41.2958 56.1628 41.5223ZM44.5194 42.1223C44.6213 42.2241 44.6156 45.1279 44.5194 45.2129C44.3892 45.309 43.0477 45.5128 42.9628 45.4392C42.9062 45.394 42.8892 45.0769 42.8892 44.0411C42.8892 43.3053 42.9119 42.677 42.9345 42.6374C42.9685 42.5864 44.259 42.0827 44.4232 42.06C44.4402 42.0544 44.4798 42.0827 44.5194 42.1223ZM64.342 42.8524C64.7608 42.9204 65.1401 42.9996 65.1797 43.0336C65.2306 43.0732 65.2476 43.4072 65.2476 44.3468C65.2476 45.2864 65.2306 45.6203 65.1797 45.66C65.0665 45.7449 63.4363 45.5977 63.3741 45.5015C63.3174 45.4109 63.3061 42.9657 63.3571 42.8241C63.4024 42.7053 63.4363 42.7109 64.342 42.8524ZM66.5778 43.2147C66.8608 43.2656 67.1438 43.3166 67.2174 43.3279L67.342 43.3562V44.6128V45.8638L66.6062 45.8241C66.1986 45.8015 65.8307 45.7732 65.7854 45.7562C65.7118 45.7279 65.7005 45.5185 65.7005 44.426V43.1298H65.8873C65.9835 43.1298 66.3005 43.1695 66.5778 43.2147ZM53.5194 46.2034C53.5703 46.2373 53.5873 46.6675 53.5873 48.026C53.5873 49.5713 53.576 49.8034 53.5024 49.8317C53.3666 49.8826 50.2817 50.0072 50.1741 49.9619C50.0835 49.9279 50.0779 49.7637 50.0779 48.0317C50.0779 46.4524 50.0892 46.1298 50.1571 46.0902C50.259 46.0336 53.4175 46.1411 53.5194 46.2034ZM48.1194 46.1071C48.1986 46.1354 48.21 46.3562 48.21 48.0033C48.21 49.6788 48.1986 49.8713 48.1194 49.9053C47.9892 49.9562 46.0477 49.7581 45.9628 49.6845C45.8553 49.5996 45.8553 46.3845 45.9628 46.3166C45.9967 46.2939 46.4779 46.2317 47.0213 46.1807C47.5647 46.1298 48.0175 46.0845 48.0231 46.0789C48.0289 46.0789 48.0684 46.0901 48.1194 46.1071ZM57.5382 46.3675C57.5892 46.4128 57.6062 46.809 57.6062 47.9977C57.6062 49.1864 57.5892 49.5826 57.5382 49.6279C57.459 49.6845 54.9345 49.8204 54.7986 49.7694C54.7307 49.7468 54.7194 49.4638 54.7194 48.0317C54.7194 47.0864 54.7364 46.2996 54.7647 46.277C54.8212 46.209 57.4533 46.2996 57.5382 46.3675ZM60.7081 46.4355C62.0382 46.4921 62.6779 46.5374 62.7288 46.5827C62.8476 46.6845 62.8533 55.8147 62.7401 55.9336C62.6326 56.0354 58.676 57.0316 58.5514 56.9807C58.4609 56.9467 58.4552 56.6298 58.4552 51.7166C58.4552 46.3053 58.4552 46.3562 58.6816 46.3562C58.7269 46.3562 59.6382 46.3958 60.7081 46.4355ZM44.5533 46.5033C44.6043 46.6393 44.593 49.4298 44.5364 49.5203C44.4968 49.5826 44.3666 49.5826 43.7609 49.526C43.359 49.4864 42.9968 49.4298 42.9628 49.4015C42.8779 49.3336 42.8553 46.7185 42.9402 46.5883C42.9911 46.5147 43.5572 46.4355 44.1968 46.4185C44.4458 46.4128 44.525 46.4355 44.5533 46.5033ZM65.1797 46.6505C65.2306 46.6958 65.2476 47.0298 65.2476 47.9694C65.2476 48.909 65.2306 49.243 65.1797 49.2826C65.1401 49.3166 64.7325 49.3562 64.274 49.3789C63.4873 49.4128 63.442 49.4128 63.3854 49.3053C63.2891 49.1298 63.3005 46.7241 63.3967 46.6279C63.459 46.5713 63.6628 46.5543 64.291 46.5713C64.7382 46.5827 65.1401 46.6222 65.1797 46.6505ZM67.3024 46.7468C67.325 46.7694 67.3363 47.3355 67.3307 48.0033L67.3137 49.2147L66.5948 49.2656C66.2042 49.2939 65.842 49.2996 65.791 49.2826C65.7118 49.2487 65.7005 49.0845 65.7005 47.9808C65.7005 47.2845 65.7174 46.6958 65.7457 46.6676C65.7967 46.6166 67.2401 46.6845 67.3024 46.7468ZM67.2514 50.0694C67.3307 50.0977 67.342 50.2675 67.342 51.343C67.342 52.5826 67.342 52.5826 67.2174 52.6109C66.8552 52.6902 65.825 52.843 65.7684 52.8204C65.7174 52.8034 65.7005 52.4581 65.7005 51.5015C65.7005 50.7883 65.7061 50.1996 65.7174 50.1996C65.7231 50.1939 66.0458 50.16 66.4363 50.1203C66.8269 50.0808 67.1495 50.0467 67.1552 50.0411C67.1608 50.0411 67.2005 50.0525 67.2514 50.0694ZM65.2363 51.6034L65.2476 52.9223L65.1231 52.9506C65.0495 52.9675 64.6533 53.0411 64.2344 53.109C63.5892 53.2222 63.4703 53.2336 63.4024 53.1656C63.2891 53.0467 63.2835 50.5335 63.4024 50.4373C63.4929 50.3638 64.3307 50.2732 64.8514 50.2845L65.2193 50.2902L65.2363 51.6034ZM43.8345 50.6071C44.1685 50.6694 44.4798 50.7487 44.5194 50.7826C44.5703 50.8279 44.5874 51.4732 44.576 53.7939C44.5591 56.5675 44.5533 56.743 44.4572 56.76C44.3553 56.7826 43.0024 56.075 42.9345 55.9562C42.8779 55.877 42.8779 50.5788 42.9289 50.5279C42.9911 50.4657 43.1892 50.4826 43.8345 50.6071ZM57.5382 50.9524C57.6401 51.0543 57.6345 54.1279 57.5382 54.2128C57.442 54.2864 54.9231 54.6996 54.81 54.66C54.7307 54.626 54.7194 54.4222 54.7194 52.8996V51.1675L54.8495 51.1392C54.9458 51.1166 56.6892 50.9468 57.3854 50.8902C57.4307 50.8902 57.4986 50.9128 57.5382 50.9524ZM47.2477 51.2411L48.1817 51.4223L48.1986 55.0845C48.21 58.192 48.1986 58.7468 48.1307 58.7693C48.0458 58.8034 46.0081 57.7166 45.9345 57.6033C45.8836 57.5184 45.8722 51.1449 45.9289 51.0939C45.9968 51.026 46.3024 51.06 47.2477 51.2411ZM53.5873 53.0864C53.5873 54.4165 53.5703 54.8468 53.5194 54.8921C53.4231 54.9656 50.2703 55.492 50.1628 55.4467C50.0892 55.4184 50.0779 55.1298 50.0779 53.5279C50.0779 52.0788 50.0949 51.6203 50.1515 51.575C50.2477 51.4958 53.3609 51.2298 53.4911 51.2921C53.5816 51.3373 53.5873 51.4789 53.5873 53.0864Z" fill="#EEEEEE"/>
<path d="M59.1383 47.0465C59.0308 47.154 59.0421 55.203 59.144 55.2936C59.2459 55.3729 61.9459 55.9841 62.127 55.9672L62.2685 55.9502L62.2798 51.6201C62.2912 49.2371 62.2742 47.2559 62.2515 47.2162C62.2176 47.1654 61.7874 47.1201 60.7629 47.0635C59.9704 47.0182 59.2968 46.9785 59.2685 46.9785C59.2346 46.9785 59.178 47.0068 59.1383 47.0465Z" fill="#EEEEEE"/>
</g>
<path d="M53.0405 7.80716L17.7002 43.1475C16.3599 44.4877 16.3599 46.6607 17.7002 48.001L53.0405 83.3413C54.3808 84.6815 56.5538 84.6815 57.894 83.3413L93.2343 48.001C94.5746 46.6607 94.5746 44.4877 93.2343 43.1475L57.894 7.80716C56.5538 6.4669 54.3808 6.46689 53.0405 7.80716Z" stroke="#A7A7A7" stroke-opacity="0.3"/>
<defs>
<linearGradient id="paint0_linear_4810_7651" x1="-1.4062" y1="118.866" x2="130.943" y2="118.866" gradientUnits="userSpaceOnUse">
<stop stop-color="#737373" stop-opacity="0.11"/>
<stop offset="1" stop-color="#D9D9D9" stop-opacity="0.2"/>
</linearGradient>
<linearGradient id="paint1_linear_4810_7651" x1="-1.40484" y1="118.868" x2="130.944" y2="118.868" gradientUnits="userSpaceOnUse">
<stop stop-color="#737373" stop-opacity="0.11"/>
<stop offset="1" stop-color="#D9D9D9" stop-opacity="0.2"/>
</linearGradient>
<radialGradient id="paint2_radial_4810_7651" cx="0" cy="0" r="1" gradientUnits="userSpaceOnUse" gradientTransform="translate(nan nan) rotate(nan) scale(nan nan)">
<stop stop-color="#389D2D" stop-opacity="0"/>
<stop offset="1" stop-color="#389D2D"/>
</radialGradient>
<radialGradient id="paint3_radial_4810_7651" cx="0" cy="0" r="1" gradientUnits="userSpaceOnUse" gradientTransform="translate(nan nan) rotate(nan) scale(nan nan)">
<stop stop-color="#389D2D" stop-opacity="0"/>
<stop offset="1" stop-color="#389D2D"/>
</radialGradient>
<radialGradient id="paint4_radial_4810_7651" cx="0" cy="0" r="1" gradientUnits="userSpaceOnUse" gradientTransform="translate(nan nan) rotate(nan) scale(nan nan)">
<stop stop-color="#389D2D" stop-opacity="0"/>
<stop offset="1" stop-color="#389D2D"/>
</radialGradient>
<radialGradient id="paint5_radial_4810_7651" cx="0" cy="0" r="1" gradientUnits="userSpaceOnUse" gradientTransform="translate(nan nan) rotate(nan) scale(nan nan)">
<stop stop-color="#389D2D" stop-opacity="0"/>
<stop offset="1" stop-color="#389D2D"/>
</radialGradient>
<linearGradient id="paint6_linear_4810_7651" x1="32.5111" y1="22.8991" x2="78.624" y2="69.012" gradientUnits="userSpaceOnUse">
<stop/>
<stop offset="1" stop-color="#666666"/>
</linearGradient>
<linearGradient id="paint7_linear_4810_7651" x1="32.5111" y1="22.8991" x2="78.624" y2="69.012" gradientUnits="userSpaceOnUse">
<stop/>
<stop offset="1" stop-color="#666666"/>
</linearGradient>
</defs>
</svg>
