<svg width="111" height="184" fill="none" xmlns="http://www.w3.org/2000/svg"><path fill-rule="evenodd" clip-rule="evenodd" d="M49.75 60.022c3.296-1.9 8.642-1.9 11.939 0l41.793 24.085a3.81 3.81 0 0 1 1.909 3.254l.738 55.295c0 3.8-2.672 8.421-5.969 10.321L56.857 177.59a3.814 3.814 0 0 1-3.788-.011l-41.771-24.073c-3.297-1.9-5.97-6.521-5.97-10.321l.001-54.647c0-1.346.71-2.593 1.869-3.28l42.551-25.236zm10.745.688 41.794 24.086a3.813 3.813 0 0 1 1.909 3.253l.737 55.295-.006.287c-.128 2.982-2.215 6.498-4.769 7.97l-43.303 24.613a3.812 3.812 0 0 1-3.788-.012L11.298 152.13c-2.555-1.473-4.642-4.988-4.77-7.97l-.006-.288V89.226c0-1.347.71-2.594 1.868-3.28L50.943 60.71l.252-.139c2.652-1.38 6.745-1.334 9.3.139z" fill="url(#a)"/><path d="M104.199 88.052a3.811 3.811 0 0 0-1.909-3.253L60.496 60.712c-2.555-1.472-6.648-1.519-9.3-.138l-.251.139L8.392 85.948a3.812 3.812 0 0 0-1.869 3.28v54.646l.006.288c.128 2.982 2.215 6.497 4.77 7.97l41.771 24.072a3.814 3.814 0 0 0 3.789.011l43.302-24.612c2.555-1.473 4.641-4.988 4.77-7.971l.006-.286-.738-55.296z" fill="url(#b)"/><path d="M104.199 88.052a3.811 3.811 0 0 0-1.909-3.253L60.496 60.712c-2.555-1.472-6.648-1.519-9.3-.138l-.251.139L8.392 85.948a3.812 3.812 0 0 0-1.869 3.28v54.646l.006.288c.128 2.982 2.215 6.497 4.77 7.97l41.771 24.072a3.814 3.814 0 0 0 3.789.011l43.302-24.612c2.555-1.473 4.641-4.988 4.77-7.971l.006-.286-.738-55.296z" fill="#F9F9F9"/><path d="M62.71 138.441a6.833 6.833 0 0 1 6.86 6.862 6.796 6.796 0 0 1-1.051 3.659l4.696 4.727-2.12 2.12-4.757-4.681a6.863 6.863 0 0 1-3.629 1.036 6.832 6.832 0 0 1-6.861-6.861 6.833 6.833 0 0 1 6.861-6.862zm0 3.05a3.81 3.81 0 0 0-2.695 6.507 3.812 3.812 0 1 0 2.694-6.507zm-8.387-15.248a6.099 6.099 0 0 1 6.1 6.099 6.159 6.159 0 0 1-1.251 3.705 9.687 9.687 0 0 0-3.461 2.242l-1.388.152a6.098 6.098 0 1 1 0-12.198zm-12.198 24.396v-3.049c0-3.233 5.047-5.885 11.436-6.099a10.006 10.006 0 0 0-.763 3.812c0 1.967.58 3.812 1.525 5.336H42.125z" fill="#389D2D"/><path d="m53.016 66.456-37.38 21.58c-1.641.949-1.641 2.485 0 3.433l36.232 20.918c1.641.948 4.303.948 5.944 0l37.38-21.58c1.641-.948 1.641-2.485 0-3.433L58.96 66.456c-1.642-.948-4.303-.948-5.944 0z" stroke="#DDD"/><path d="M104.896 131.143a5.435 5.435 0 1 0-.002-10.87 5.435 5.435 0 0 0 .002 10.87z" fill="#ACD4A7"/><path d="M104.901 128.969a3.261 3.261 0 1 0 0-6.522 3.261 3.261 0 0 0 0 6.522z" fill="#389D2D"/><path d="M55.544 184a5.435 5.435 0 1 0 0-10.87 5.435 5.435 0 0 0 0 10.87z" fill="#ACD4A7"/><path d="M55.55 181.826a3.26 3.26 0 1 0 0-6.522 3.26 3.26 0 0 0 0 6.522z" fill="#389D2D"/><path d="M5.583 131.143a5.435 5.435 0 1 0-.001-10.87 5.435 5.435 0 0 0 .001 10.87z" fill="#ACD4A7"/><path d="M5.581 128.969a3.26 3.26 0 1 0 0-6.522 3.26 3.26 0 0 0 0 6.522z" fill="#389D2D"/><path d="m52.218 2.427-40.72 40.72a3.432 3.432 0 0 0 0 4.854l40.72 40.72a3.432 3.432 0 0 0 4.853 0l40.721-40.72a3.432 3.432 0 0 0 0-4.854l-40.72-40.72a3.432 3.432 0 0 0-4.854 0z" fill="url(#c)" stroke="url(#d)"/><path d="M52.375 30.537c-.063.012-.45.087-.853.167-4.153.823-7.948 3.647-9.978 7.432a15.421 15.421 0 0 0-1.667 5.132c-.11.822-.092 3.026.035 3.854.26 1.703.669 3.015 1.384 4.459.819 1.645 1.701 2.847 3.016 4.113 1.206 1.162 2.279 1.904 3.853 2.675a13.2 13.2 0 0 0 2.74 1.006c1.326.334 1.569.357 3.87.328 1.99-.023 2.134-.029 2.768-.167 4.556-1.006 8.253-3.894 10.26-8.013.947-1.933 1.396-3.75 1.483-5.897.19-5.09-2.278-9.883-6.587-12.776-1.269-.852-3.016-1.628-4.516-2.002-1.303-.334-1.528-.351-3.697-.345-1.095.006-2.047.017-2.11.034zm3.536.53.306.034-.19.357c-.722 1.357-.82 1.524-1.045 1.714-.282.242-.455.293-1.28.374-1.056.098-1.367.196-1.696.523-.236.23-.415.587-.605 1.203-.231.724-.404.845-.762.529-.311-.27-.484-.552-.548-.909-.069-.374-.173-.552-.565-.96-.404-.426-.761-.662-1.05-.708a1.568 1.568 0 0 1-.351-.092c-.098-.046-.277-.334-.277-.438 0-.069 1.015-.54 1.77-.822.75-.276 1.915-.587 2.706-.713 1.084-.173 2.578-.213 3.587-.092zm6.46 2.462c.369.253.6.54 1.632 2.06.398.58.577.655.998.407l.242-.138.334.426a14.281 14.281 0 0 1 2.665 5.31c.144.535.375 1.8.34 1.835a3.047 3.047 0 0 1-.352.11c-.56.143-.744.08-1.332-.45-.582-.523-1.188-.874-1.476-.845-.162.017-.185.04-.197.19-.011.155.052.23.63.719 1.28 1.081 1.372 1.202 1.372 1.714 0 .357-.15.8-.312.903-.063.04-.3.098-.525.121-.484.046-.726.144-1.05.409-.241.195-.3.339-.213.558.018.051.248.247.514.437.507.368.865.724.951.955.081.201.07.638-.011.788-.087.172-.23.264-.715.477-.56.242-.86.495-1.044.88-.237.507-.26.645-.306 2.106-.029 1.035-.063 1.444-.133 1.628-.26.69-1.418 1.697-3.16 2.744-.894.54-1.05.558-1.079.132-.011-.172.046-.518.168-.949.34-1.265.351-1.352.317-1.749a5.732 5.732 0 0 0-.185-.891c-.398-1.34-.536-2.054-.542-2.727-.006-.5-.098-1.122-.196-1.318-.15-.281-.294-.305-1.563-.264-1.044.034-1.194.029-1.598-.075-.773-.201-1.21-.546-1.551-1.237-.473-.978-.571-2.128-.248-3.089.404-1.19 1.47-2.583 2.491-3.244.658-.426 1.2-.616 1.73-.616.255 0 .554.04.704.092.248.086 1.056.552 1.413.811.658.478 1.69.673 2.428.455.358-.104 1.31-.858 1.339-1.059.057-.385-.825-.742-1.979-.794-.392-.017-.755-.063-.836-.109a3.974 3.974 0 0 1-.519-.391c-.467-.397-.784-.575-1.269-.696-.605-.156-1.067-.023-1.597.454-.462.414-1.235.725-1.823.725-.38 0-.56-.173-.56-.547 0-.218.03-.299.162-.43.202-.202.456-.271 1.165-.317.3-.023.594-.052.652-.07.196-.051.11-.316-.294-.88-.37-.523-.41-.558-.889-.805-.836-.437-.94-.58-.623-.938.202-.235.63-.385 1.08-.385.507 0 .755.103 1.158.489.196.19.416.362.49.385.208.058.589.052.78-.017.31-.11.31-.242-.012-1.116a5.134 5.134 0 0 1-.231-.782.901.901 0 0 1 .329-.863c.213-.155 1.655-.667 1.92-.679.11 0 .271.058.416.15zm-16.369.443c0 .12.294.328.837.598.697.345 1.113.828 1.055 1.225-.017.127-.052.138-.692.207-.715.075-1.061.179-1.125.34-.057.15.133.264.83.512 1.189.42 1.633.707 1.633 1.07 0 .207-.161.368-.508.517-.322.138-.6.115-.795-.069-.076-.069-.15-.12-.162-.103a4.17 4.17 0 0 0-.11.54c-.196 1.07-.26 1.168-.894 1.376a3.892 3.892 0 0 0-1.528 1c-.421.443-.53.702-.611 1.427-.081.713-.058.794.403 1.266.283.299.34.39.34.563 0 .282-.097.466-.316.587-.306.161-.445.087-.693-.391-.697-1.329-1.205-1.703-1.678-1.231-.352.35-.202.817.427 1.306.934.725 1.148 1.024 1.234 1.714.029.236.08.477.11.535.11.202.415.282 1.067.27l.611-.005.317.218c.41.282 1.01.932 1.563 1.692.242.333.566.753.721.937.317.368 1.061.88 1.54 1.065l.733.27c.496.178.859.495.91.794.047.236-.005.35-.345.73-.139.156-.37.53-.513.834-.33.685-.49.898-.837 1.11-.386.242-.542.42-.79.915a6.96 6.96 0 0 1-.582.898c-.202.247-.364.471-.364.489 0 .023-.04.086-.08.144-.075.097-.11.092-.537-.167a24.674 24.674 0 0 1-1.275-.857c-.011-.012-.069-.386-.126-.834-.185-1.381-.352-1.836-.837-2.301a3.833 3.833 0 0 1-1.067-1.703c-.115-.374-.12-.472-.08-1.577.034-1.139.034-1.196-.087-1.467-.156-.356-.248-.454-.554-.603-.26-.127-.478-.38-1.159-1.352-.848-1.203-1.13-1.824-1.344-2.928-.127-.633-.11-.8.196-2.002.444-1.76 1.529-3.895 2.688-5.293.629-.765 2.267-2.341 2.434-2.347.023 0 .04.04.04.08z" fill="#EEE"/><path d="m52.276 7.807-35.341 35.34a3.432 3.432 0 0 0 0 4.854l35.34 35.34a3.432 3.432 0 0 0 4.854 0l35.34-35.34a3.432 3.432 0 0 0 0-4.854L57.13 7.807a3.432 3.432 0 0 0-4.853 0z" stroke="#A7A7A7" stroke-opacity=".3"/><defs><linearGradient id="a" x1="-1.406" y1="118.864" x2="130.945" y2="118.864" gradientUnits="userSpaceOnUse"><stop stop-color="#737373" stop-opacity=".11"/><stop offset="1" stop-color="#D9D9D9" stop-opacity=".2"/></linearGradient><linearGradient id="b" x1="-1.405" y1="118.867" x2="130.946" y2="118.867" gradientUnits="userSpaceOnUse"><stop stop-color="#737373" stop-opacity=".11"/><stop offset="1" stop-color="#D9D9D9" stop-opacity=".2"/></linearGradient><linearGradient id="c" x1="31.746" y1="22.899" x2="77.859" y2="69.012" gradientUnits="userSpaceOnUse"><stop/><stop offset="1" stop-color="#666"/></linearGradient><linearGradient id="d" x1="31.746" y1="22.899" x2="77.859" y2="69.012" gradientUnits="userSpaceOnUse"><stop/><stop offset="1" stop-color="#666"/></linearGradient></defs></svg>