<svg width="525" height="408" fill="none" xmlns="http://www.w3.org/2000/svg"><g clip-path="url(#a)"><g clip-path="url(#b)"><path d="M337.876 133.518a5.83 5.83 0 0 0-2.91-4.971l-63.701-36.805c-3.895-2.25-10.134-2.32-14.175-.211l-.383.211-64.859 38.563a5.827 5.827 0 0 0-2.848 5.011v83.504l.009.439c.196 4.557 3.376 9.928 7.27 12.179l63.666 36.783a5.797 5.797 0 0 0 5.775.018l66.001-37.609c3.894-2.251 7.074-7.622 7.27-12.18l.009-.438-1.124-84.494z" fill="#F9F9F9"/><path fill-rule="evenodd" clip-rule="evenodd" d="M254.834 91.696c5-2.877 13.108-2.877 18.108 0l63.328 36.433a5.89 5.89 0 0 1 2.956 5.028l1.118 83.653c0 5.753-4.054 12.75-9.055 15.627l-65.615 37.231a5.912 5.912 0 0 1-5.866-.018l-63.293-36.412c-5-2.878-9.054-9.874-9.054-15.627l.002-82.672c0-2.08 1.1-4.008 2.892-5.069l64.479-38.174zm16.298 1.041 63.328 36.434a5.898 5.898 0 0 1 2.956 5.028l1.117 83.652-.009.435c-.194 4.515-3.359 9.838-7.235 12.067l-65.615 37.231a5.91 5.91 0 0 1-5.866-.017l-63.293-36.414c-3.875-2.229-7.041-7.551-7.234-12.066l-.009-.435v-82.67c0-2.082 1.1-4.009 2.892-5.071l64.481-38.174.381-.209c4.022-2.09 10.23-2.02 14.106.21z" fill="#000" fill-opacity=".2"/><path d="m260.089 101.488-56.483 32.554c-2.542 1.465-2.542 3.84 0 5.305l54.742 31.551c2.542 1.465 6.663 1.465 9.205 0l56.483-32.554c2.541-1.465 2.541-3.84 0-5.305l-54.743-31.551c-2.541-1.465-6.662-1.465-9.204 0z" stroke="#DDD"/><path fill-rule="evenodd" clip-rule="evenodd" d="M255.237 91.681c5-2.877 13.108-2.877 18.108 0l63.328 36.434a5.889 5.889 0 0 1 2.955 5.027l1.119 83.654c0 5.752-4.054 12.749-9.056 15.627l-65.615 37.23a5.912 5.912 0 0 1-5.865-.017l-63.294-36.413c-5-2.878-9.054-9.874-9.054-15.627l.003-82.671a5.89 5.89 0 0 1 2.892-5.069l64.479-38.175zm16.297 1.042 63.328 36.434a5.89 5.89 0 0 1 2.956 5.027l1.117 83.653-.008.435c-.195 4.515-3.36 9.837-7.236 12.066l-65.615 37.231a5.91 5.91 0 0 1-5.865-.016l-63.294-36.414c-3.874-2.229-7.04-7.552-7.234-12.067l-.008-.435v-82.67a5.892 5.892 0 0 1 2.892-5.07l64.48-38.174.382-.21c4.022-2.09 10.23-2.02 14.105.21z" fill="url(#c)"/><path d="M260.223 188.999a14.165 14.165 0 0 1 14.223 14.223c0 2.781-.791 5.405-2.181 7.585l9.735 9.799-4.393 4.393-9.862-9.703a14.213 14.213 0 0 1-7.522 2.148A14.163 14.163 0 0 1 246 203.222a14.164 14.164 0 0 1 14.223-14.223zm0 6.322a7.9 7.9 0 1 0-.003 15.803 7.9 7.9 0 0 0 .003-15.803z" fill="#389D2D"/><path d="M261.749 4.75 200.16 66.234a5.299 5.299 0 0 0 0 7.502l61.589 61.484a5.323 5.323 0 0 0 7.516 0l61.589-61.484a5.299 5.299 0 0 0 0-7.502L269.265 4.75a5.322 5.322 0 0 0-7.516 0z" fill="url(#d)" stroke="url(#e)"/><path d="M262.482 51.046c-.083.015-.589.113-1.119.219-5.445 1.078-10.421 4.782-13.083 9.745a20.225 20.225 0 0 0-2.185 6.728c-.144 1.079-.121 3.968.045 5.054.341 2.233.878 3.952 1.815 5.846 1.074 2.157 2.231 3.733 3.955 5.393 1.581 1.523 2.987 2.496 5.052 3.507a17.3 17.3 0 0 0 3.592 1.32c1.739.438 2.057.468 5.074.43 2.609-.03 2.798-.038 3.63-.219 5.975-1.32 10.822-5.106 13.454-10.507 1.24-2.534 1.83-4.918 1.943-7.731.25-6.676-2.987-12.959-8.636-16.753-1.664-1.116-3.955-2.134-5.921-2.625-1.709-.437-2.004-.46-4.848-.452-1.437.007-2.684.022-2.768.045zm4.636.694.401.045-.25.468c-.945 1.78-1.073 1.999-1.368 2.248-.371.316-.598.384-1.679.49-1.384.128-1.792.256-2.224.686-.31.302-.544.77-.794 1.577-.302.95-.529 1.108-.998.694-.408-.355-.635-.724-.718-1.192-.091-.49-.227-.724-.741-1.26-.53-.558-.999-.867-1.377-.928-.181-.03-.393-.082-.461-.12-.129-.06-.363-.438-.363-.573 0-.09 1.331-.71 2.322-1.08.983-.361 2.51-.768 3.546-.934 1.422-.227 3.381-.28 4.704-.121zm8.47 3.228c.484.332.786.71 2.14 2.7.522.762.756.86 1.308.536l.318-.18.439.557c1.671 2.112 2.835 4.435 3.493 6.962.189.702.492 2.361.447 2.406-.016.016-.22.076-.462.144-.733.188-.975.105-1.747-.589-.763-.686-1.557-1.146-1.936-1.108-.211.022-.242.052-.257.248-.015.204.068.302.825.943 1.678 1.418 1.799 1.577 1.799 2.248 0 .468-.196 1.049-.408 1.184-.083.053-.393.128-.688.159-.635.06-.953.188-1.376.535-.318.257-.394.445-.28.732.022.068.325.324.673.573.665.483 1.134.95 1.248 1.252.105.264.09.838-.016 1.034-.113.226-.302.347-.937.626-.734.316-1.127.648-1.369 1.154-.31.663-.34.844-.401 2.76-.038 1.358-.083 1.894-.174 2.135-.34.905-1.86 2.225-4.144 3.598-1.172.709-1.376.731-1.414.173-.015-.226.06-.678.219-1.244.446-1.66.461-1.773.416-2.293-.023-.28-.136-.8-.242-1.17-.522-1.757-.703-2.692-.711-3.575-.007-.656-.128-1.47-.257-1.727-.196-.37-.386-.4-2.049-.347-1.369.045-1.566.038-2.095-.098-1.013-.264-1.588-.717-2.034-1.622-.62-1.282-.749-2.79-.325-4.05.529-1.561 1.928-3.387 3.266-4.254.863-.558 1.573-.807 2.269-.807.333 0 .726.052.923.12.325.113 1.384.724 1.853 1.064.862.626 2.215.882 3.183.596.469-.136 1.717-1.124 1.755-1.388.075-.505-1.082-.973-2.594-1.041-.514-.023-.991-.083-1.097-.143-.106-.053-.408-.28-.68-.513-.613-.52-1.029-.755-1.664-.913-.794-.203-1.399-.03-2.095.596-.605.543-1.618.95-2.389.95-.5 0-.734-.226-.734-.716 0-.287.038-.392.212-.566.264-.264.597-.354 1.527-.415.394-.03.779-.068.855-.09.257-.068.144-.415-.386-1.154-.484-.687-.537-.732-1.164-1.056-1.097-.573-1.233-.762-.817-1.23.265-.309.824-.505 1.414-.505.666 0 .991.136 1.52.641.257.249.545.475.643.505.272.076.771.068 1.021-.022.408-.144.408-.317-.015-1.464a6.677 6.677 0 0 1-.303-1.025c-.068-.445.098-.883.431-1.132.28-.203 2.171-.875 2.518-.89.144 0 .356.076.545.196zm-21.462.581c0 .159.386.43 1.097.785.915.452 1.459 1.086 1.384 1.606-.023.166-.069.181-.908.272-.938.098-1.391.233-1.475.445-.075.196.174.347 1.089.671 1.558.55 2.141.928 2.141 1.403 0 .271-.212.483-.666.679-.423.18-.786.15-1.044-.09-.098-.091-.196-.16-.211-.136-.015.015-.083.331-.144.709-.257 1.402-.34 1.53-1.172 1.802-.711.242-1.422.702-2.004 1.313-.552.58-.696.92-.802 1.87-.106.936-.075 1.041.53 1.66.37.392.446.513.446.739 0 .37-.129.61-.416.77-.401.21-.582.112-.908-.514-.915-1.742-1.58-2.232-2.2-1.614-.462.46-.265 1.071.559 1.712 1.225.95 1.505 1.343 1.619 2.248.037.31.106.626.143.702.144.264.545.37 1.399.354l.802-.007.416.286c.537.37 1.323 1.222 2.049 2.218.318.437.741.988.946 1.23.416.482 1.391 1.153 2.019 1.395.227.083.658.241.96.354.651.234 1.127.649 1.195 1.041.06.31-.008.46-.454.958-.181.204-.484.694-.673 1.094-.431.897-.643 1.176-1.096 1.456-.507.316-.711.55-1.036 1.199a9.194 9.194 0 0 1-.764 1.176c-.265.325-.477.619-.477.642 0 .03-.053.113-.105.188-.099.128-.144.12-.704-.219-.453-.279-1.482-.973-1.671-1.123-.015-.015-.091-.506-.166-1.094-.242-1.81-.462-2.406-1.097-3.017a5.025 5.025 0 0 1-1.399-2.233c-.151-.49-.159-.618-.106-2.067.046-1.493.046-1.569-.113-1.923-.204-.468-.325-.596-.726-.792-.341-.166-.628-.498-1.52-1.773-1.112-1.576-1.482-2.39-1.762-3.839-.167-.83-.144-1.048.257-2.625.582-2.308 2.004-5.106 3.524-6.94.824-1.002 2.972-3.069 3.191-3.077.03 0 .053.053.053.106z" fill="#EEE"/><path d="m262.004 12.716-53.43 53.338a5.299 5.299 0 0 0 0 7.502l53.43 53.338a5.32 5.32 0 0 0 7.515 0l53.43-53.338a5.299 5.299 0 0 0 0-7.502l-53.43-53.338a5.32 5.32 0 0 0-7.515 0z" stroke="#A7A7A7" stroke-opacity=".3"/><path d="M338.871 199.361c4.553 0 8.243-3.684 8.243-8.228 0-4.545-3.69-8.229-8.243-8.229-4.552 0-8.242 3.684-8.242 8.229 0 4.544 3.69 8.228 8.242 8.228z" fill="#ACD4A7"/><path d="M338.871 196.071a4.941 4.941 0 0 0 4.946-4.937 4.942 4.942 0 0 0-4.946-4.937 4.941 4.941 0 0 0-4.945 4.937 4.94 4.94 0 0 0 4.945 4.937z" fill="#389D2D"/><path d="M264.024 279.39c4.552 0 8.242-3.684 8.242-8.228s-3.69-8.228-8.242-8.228c-4.552 0-8.243 3.684-8.243 8.228s3.691 8.228 8.243 8.228z" fill="#ACD4A7"/><path d="M264.024 276.099a4.941 4.941 0 0 0 4.945-4.937 4.94 4.94 0 0 0-4.945-4.937 4.941 4.941 0 0 0-4.946 4.937 4.942 4.942 0 0 0 4.946 4.937z" fill="#389D2D"/><path d="M188.242 199.36c4.553 0 8.243-3.684 8.243-8.228 0-4.545-3.69-8.229-8.243-8.229-4.552 0-8.242 3.684-8.242 8.229 0 4.544 3.69 8.228 8.242 8.228z" fill="#ACD4A7"/><path d="M188.242 196.069a4.941 4.941 0 0 0 4.946-4.937 4.942 4.942 0 0 0-4.946-4.937 4.941 4.941 0 0 0-4.945 4.937 4.94 4.94 0 0 0 4.945 4.937z" fill="#389D2D"/><path d="M347 191.499h66m0 0v-34.5a4 4 0 0 1 4-4h9.5m-13.5 38.5v34a4 4 0 0 0 4 4h9.5" stroke="url(#f)"/><circle cx="412.5" cy="174.979" r="5" fill="#ACD4A7"/><circle cx="412.501" cy="174.979" r="3" fill="#389D2D"/><circle cx="412.5" cy="207.999" r="5" fill="#ACD4A7"/><circle cx="412.501" cy="207.999" r="3" fill="#389D2D"/><rect x="433" y="123.499" width="56" height="56" rx="4.5" fill="url(#g)" stroke="url(#h)"/><path d="m471.5 155.999-5.5-3-5.5 3 5.5 3 5.5-3z" fill="#389D2D"/><path fill-rule="evenodd" clip-rule="evenodd" d="m456.32 155.999 4.18 2.28v2.72h-7c-1.11 0-2-.89-2-2v-16a2 2 0 0 1 2-2h1v7l2.5-1.5 2.5 1.5v-7h6a2 2 0 0 1 2 2v8.54l-1.5-.82-9.68 5.28z" fill="#EEE"/><path d="M462.5 158.089v2l3.5 1.91 3.5-1.91v-2l-3.5 1.91-3.5-1.91z" fill="#389D2D"/><rect x="436" y="127.499" width="50" height="49" rx="4.5" stroke="#A7A7A7" stroke-opacity=".3"/><rect x="433" y="199.499" width="56" height="56" rx="4.5" fill="url(#i)" stroke="url(#j)"/><g clip-path="url(#k)"><path fill-rule="evenodd" clip-rule="evenodd" d="m463.472 218.045 1.476-.808a9.25 9.25 0 0 0-10.434 15.228c.084.299.172.597.263.894a2.026 2.026 0 0 0 1.726 1.442c.726.075 1.928.156 3.747.156s3.02-.081 3.747-.156a2.028 2.028 0 0 0 1.726-1.442c.091-.297.179-.595.263-.894a9.25 9.25 0 0 0 3.251-5.06 2.728 2.728 0 0 1-2.65-1.42l-.995-1.821a.746.746 0 0 0-.299-.298l-1.821-.996c-1.907-1.043-1.907-3.782 0-4.825zm-7.1 17.999a3.46 3.46 0 0 1-.399-.067l.079.426c.173.921.853 1.742 1.886 1.898.562.085 1.327.156 2.312.156a17.97 17.97 0 0 0 2.306-.142c1.187-.156 1.964-1.137 2.081-2.22l.016-.15c-.173.047-.349.08-.526.099-.777.081-2.021.163-3.877.163-1.856 0-3.102-.082-3.878-.163z" fill="#EEE"/><path d="M467.903 215.649a1.251 1.251 0 0 1 2.194 0l.996 1.821c.206.378.516.688.894.895l1.821.996a1.25 1.25 0 0 1 0 2.193l-1.821.996a2.236 2.236 0 0 0-.894.894l-.996 1.821a1.25 1.25 0 0 1-2.194 0l-.996-1.821a2.236 2.236 0 0 0-.894-.894l-1.821-.996a1.25 1.25 0 0 1 0-2.193l1.821-.996c.378-.207.688-.517.894-.895l.996-1.821z" fill="#389D2D"/></g><rect x="436" y="203.499" width="50" height="49" rx="4.5" stroke="#A7A7A7" stroke-opacity=".3"/><path d="M179.5 191.499h-66m0 0v-34.5a4 4 0 0 0-4-4H100m13.5 38.5v34a4 4 0 0 1-4 4H100" stroke="url(#l)"/><circle cx="5" cy="5" r="5" transform="matrix(-1 0 0 1 119 169.979)" fill="#ACD4A7"/><circle cx="3" cy="3" r="3" transform="matrix(-1 0 0 1 116.999 171.979)" fill="#389D2D"/><circle cx="5" cy="5" r="5" transform="matrix(-1 0 0 1 119 202.999)" fill="#ACD4A7"/><circle cx="3" cy="3" r="3" transform="matrix(-1 0 0 1 116.999 204.999)" fill="#389D2D"/><rect x="-.5" y=".5" width="56" height="56" rx="4.5" transform="matrix(-1 0 0 1 93 122.999)" fill="url(#m)" stroke="url(#n)"/><path d="M60.5 140.999a3.997 3.997 0 0 0-4 4v12a3.998 3.998 0 0 0 4 4h13a1 1 0 0 0 1-1v-18a1 1 0 0 0-1-1h-13zm4 4a1 1 0 0 1 1-1h5a1 1 0 0 1 0 2h-5a1 1 0 0 1-1-1zm-6 12a2 2 0 0 1 2-2h11a1 1 0 0 1 1 1v2a1 1 0 0 1-1 1h-11a2 2 0 0 1-2-2z" fill="#EEE"/><path d="M64.5 144.999a1 1 0 0 1 1-1h5a1 1 0 0 1 0 2h-5a1 1 0 0 1-1-1z" fill="#389D2D"/><rect x="-.5" y=".5" width="50" height="49" rx="4.5" transform="matrix(-1 0 0 1 90 126.999)" stroke="#A7A7A7" stroke-opacity=".3"/><rect x="-.5" y=".5" width="56" height="56" rx="4.5" transform="matrix(-1 0 0 1 93 198.999)" fill="url(#o)" stroke="url(#p)"/><mask id="q" style="mask-type:luminance" maskUnits="userSpaceOnUse" x="54" y="215" width="23" height="24"><path d="M77 215.999H54v23h23v-23z" fill="#fff"/></mask><g mask="url(#q)"><path d="M60.693 216.031c-.12.05-5.017 4.007-5.049 4.079-.013.04-.027.283-.027.539v.467l-.242.171c-.427.301-.387-.499-.387 7.439 0 6.631.005 7.035.077 7.12.099.112 5.556 3.109 5.718 3.136.063.009 3.414-.818 7.57-1.865 6.796-1.72 7.466-1.9 7.56-2.003l.099-.117v-12.389l-.1-.113c-.085-.094-.511-.251-2.236-.817-1.954-.638-2.148-.696-2.291-.652a49.18 49.18 0 0 0-1.415.562l-1.258.517-.023-.98c-.017-.727-.035-.997-.08-1.051-.036-.04-.234-.13-.44-.198l-.378-.121v-.463c0-.453-.058-.723-.175-.795-.108-.067-6.72-2.497-6.783-2.493a.495.495 0 0 0-.14.027zm2.202 3.765c.655.188 1.244.363 1.316.39l.121.045v1.415c0 1.276-.009 1.411-.076 1.438-.068.027-2.233-.386-2.56-.485l-.15-.05v-1.514c0-.835.014-1.531.032-1.545.05-.054.09-.04 1.317.306zm-2.853 1.5v1.5l-.809.355c-.444.193-.849.346-.898.342-.085-.014-.09-.054-.099-1.317-.009-.718 0-1.325.023-1.352.058-.09 1.648-1.051 1.716-1.042.058.014.067.216.067 1.514zm6.626-.413c.409.112.768.229.8.251.04.032.053.351.053 1.312 0 1.092-.008 1.276-.067 1.298-.08.032-2.089-.368-2.165-.431-.076-.063-.085-2.686-.01-2.763.037-.036.131-.027.351.036.162.05.63.18 1.038.297zm-9.501.786c.014.058.018.62.014 1.249l-.014 1.145-.593.265c-.499.225-.606.256-.665.207-.058-.05-.067-.216-.067-1.128 0-.97.009-1.082.08-1.141.171-.143 1.07-.687 1.142-.691.045-.005.09.035.103.094zm15.516.939c.26.072.57.166.692.202l.211.072v1.028c0 .93-.009 1.034-.076 1.061-.04.018-.369-.027-.724-.099-.476-.095-.656-.148-.687-.207-.058-.108-.054-1.999.004-2.111.028-.045.059-.086.072-.086.014 0 .243.063.508.14zm2.048.593.495.143.013.98c.01.804 0 .979-.054 1.001-.058.023-1.118-.184-1.2-.233-.049-.027-.053-2.008-.008-2.058.04-.035.135-.018.754.167zm-11.72.817c.683.113 1.258.216 1.28.229.023.014.041.647.041 1.438 0 1.222-.009 1.415-.067 1.437-.104.041-2.597-.166-2.66-.215-.045-.036-.058-.4-.058-1.541 0-.818.013-1.505.031-1.518.05-.05.14-.041 1.433.17zm-2.947 1.483v1.505l-.098.022c-.059.013-.445.085-.867.157-.544.09-.777.117-.818.081-.045-.036-.058-.35-.058-1.343 0-1.226.004-1.298.085-1.352.144-.09 1.5-.566 1.635-.571l.122-.004v1.505zm6.312-.939c.57.09 1.06.184 1.092.211.08.063.08 2.516-.005 2.583-.04.036-.35.027-1.1-.036-.576-.045-1.06-.099-1.088-.112-.049-.032-.063-2.727-.013-2.776.04-.041-.036-.05 1.114.13zm-9.24.476c.08.081.076 2.385 0 2.453-.104.076-1.168.238-1.236.179-.045-.036-.058-.287-.058-1.109 0-.584.018-1.083.036-1.114.027-.041 1.05-.44 1.181-.458.014-.005.045.018.077.049zm15.731.579c.333.054.634.117.665.144.04.032.054.297.054 1.042 0 .746-.013 1.011-.054 1.043-.09.067-1.384-.05-1.433-.126-.045-.072-.054-2.013-.013-2.125.035-.094.063-.09.781.022zm1.775.288c.224.04.449.081.507.09l.1.022v1.99l-.585-.031a6.773 6.773 0 0 1-.651-.054c-.059-.023-.068-.189-.068-1.056v-1.028h.149c.076 0 .328.031.548.067zm-10.364 2.372c.04.027.054.368.054 1.446 0 1.227-.009 1.411-.067 1.433-.108.041-2.556.14-2.642.104-.072-.027-.076-.158-.076-1.532 0-1.254.009-1.51.063-1.541.08-.045 2.587.04 2.668.09zm-4.285-.077c.063.023.072.198.072 1.505 0 1.33-.01 1.483-.072 1.51-.104.04-1.645-.117-1.712-.176-.085-.067-.085-2.618 0-2.672.027-.018.409-.068.84-.108.431-.041.79-.077.795-.081.005 0 .036.009.077.022zm7.475.207c.04.036.053.35.053 1.294 0 .943-.013 1.258-.053 1.294-.063.044-2.067.152-2.175.112-.053-.018-.063-.243-.063-1.379 0-.75.014-1.375.036-1.393.045-.054 2.134.018 2.202.072zm2.515.054c1.056.045 1.563.081 1.604.117.094.081.099 7.327.009 7.421-.085.081-3.225.871-3.324.831-.072-.027-.077-.279-.077-4.178 0-4.294 0-4.254.18-4.254.036 0 .76.032 1.608.063zm-12.82.054c.04.108.031 2.322-.014 2.394-.031.05-.135.05-.615.005-.32-.032-.607-.077-.634-.099-.067-.054-.085-2.129-.018-2.233.04-.058.49-.121.998-.134.197-.005.26.013.282.067zm16.369.117c.04.036.054.301.054 1.046 0 .746-.013 1.011-.054 1.043-.031.027-.355.058-.719.076-.624.027-.66.027-.705-.058-.076-.14-.067-2.049.009-2.125.05-.045.211-.059.71-.045.355.009.674.04.705.063zm1.685.076c.018.018.027.467.022.997l-.013.962-.57.04c-.31.023-.598.027-.639.014-.063-.027-.072-.158-.072-1.034 0-.552.014-1.019.036-1.042.04-.04 1.186.014 1.236.063zm-.04 2.637c.062.022.071.157.071 1.011 0 .983 0 .983-.099 1.006-.287.063-1.105.184-1.15.166-.04-.013-.054-.287-.054-1.046 0-.567.005-1.034.014-1.034.004-.004.26-.031.57-.063.31-.031.566-.058.57-.062.005 0 .037.009.077.022zm-1.6 1.217.009 1.047-.099.023c-.058.013-.373.071-.705.125-.512.09-.607.099-.66.045-.09-.094-.095-2.089 0-2.165.071-.058.736-.13 1.15-.121l.291.004.014 1.042zm-16.985-.79c.265.049.512.112.544.139.04.036.053.548.044 2.39-.013 2.201-.017 2.34-.094 2.354-.08.018-1.154-.544-1.208-.638-.045-.063-.045-4.268-.005-4.308.05-.05.207-.036.719.063zm10.876.274c.08.081.076 2.52 0 2.587-.077.059-2.076.387-2.166.355-.063-.027-.072-.189-.072-1.397v-1.375l.104-.022c.076-.018 1.46-.153 2.012-.198.036 0 .09.018.122.05zm-8.167.229.741.144.014 2.906c.009 2.466 0 2.907-.054 2.924-.068.027-1.685-.835-1.743-.925-.04-.067-.05-5.125-.005-5.166.054-.054.297-.027 1.047.117zm5.031 1.464c0 1.056-.013 1.397-.054 1.433-.076.059-2.578.477-2.664.441-.058-.023-.067-.252-.067-1.523 0-1.15.013-1.514.058-1.55.077-.063 2.547-.274 2.65-.225.073.036.077.149.077 1.424z" fill="#EEE"/><path d="M68.747 228.947c-.086.085-.077 6.473.004 6.545.081.063 2.224.548 2.368.534l.112-.013.009-3.437c.009-1.891-.005-3.463-.023-3.495-.026-.04-.368-.076-1.181-.121-.629-.036-1.163-.067-1.186-.067-.027 0-.072.022-.103.054z" fill="#389D2D"/></g><rect x="-.5" y=".5" width="50" height="49" rx="4.5" transform="matrix(-1 0 0 1 90 202.999)" stroke="#A7A7A7" stroke-opacity=".3"/><path d="M265 279.986v112.5h-30.5" stroke="#A7A7A7"/><path d="m172 392.443 5.904 3.404v-6.806L172 392.443zm57.554 0a3.146 3.146 0 0 0 3.15 3.144 3.145 3.145 0 0 0 3.148-3.144 3.146 3.146 0 0 0-3.148-3.143 3.147 3.147 0 0 0-3.15 3.143zm-52.24 0v.59h55.39V391.854h-55.39v.589z" fill="url(#r)"/></g></g><defs><linearGradient id="l" x1="89" y1="186.499" x2="146" y2="193.499" gradientUnits="userSpaceOnUse"><stop stop-color="#A7A7A7" stop-opacity="0"/><stop offset="1" stop-color="#A7A7A7"/></linearGradient><linearGradient id="c" x1="177.65" y1="180.773" x2="378.384" y2="180.773" gradientUnits="userSpaceOnUse"><stop stop-color="#737373" stop-opacity=".11"/><stop offset="1" stop-color="#D9D9D9" stop-opacity=".2"/></linearGradient><linearGradient id="e" x1="230.782" y1="35.665" x2="300.601" y2="105.605" gradientUnits="userSpaceOnUse"><stop/><stop offset="1" stop-color="#666"/></linearGradient><linearGradient id="f" x1="437.5" y1="186.499" x2="380.5" y2="193.499" gradientUnits="userSpaceOnUse"><stop stop-color="#A7A7A7" stop-opacity="0"/><stop offset="1" stop-color="#A7A7A7"/></linearGradient><linearGradient id="g" x1="461" y1="122.999" x2="461" y2="179.999" gradientUnits="userSpaceOnUse"><stop/><stop offset="1" stop-color="#666"/></linearGradient><linearGradient id="h" x1="461" y1="122.999" x2="461" y2="179.999" gradientUnits="userSpaceOnUse"><stop/><stop offset="1" stop-color="#666"/></linearGradient><linearGradient id="i" x1="461" y1="198.999" x2="461" y2="255.999" gradientUnits="userSpaceOnUse"><stop/><stop offset="1" stop-color="#666"/></linearGradient><linearGradient id="j" x1="461" y1="198.999" x2="461" y2="255.999" gradientUnits="userSpaceOnUse"><stop/><stop offset="1" stop-color="#666"/></linearGradient><linearGradient id="d" x1="230.782" y1="35.665" x2="300.601" y2="105.605" gradientUnits="userSpaceOnUse"><stop/><stop offset="1" stop-color="#666"/></linearGradient><linearGradient id="m" x1="28.5" y1="0" x2="28.5" y2="57" gradientUnits="userSpaceOnUse"><stop/><stop offset="1" stop-color="#666"/></linearGradient><linearGradient id="n" x1="28.5" y1="0" x2="28.5" y2="57" gradientUnits="userSpaceOnUse"><stop/><stop offset="1" stop-color="#666"/></linearGradient><linearGradient id="o" x1="28.5" y1="0" x2="28.5" y2="57" gradientUnits="userSpaceOnUse"><stop/><stop offset="1" stop-color="#666"/></linearGradient><linearGradient id="p" x1="28.5" y1="0" x2="28.5" y2="57" gradientUnits="userSpaceOnUse"><stop/><stop offset="1" stop-color="#666"/></linearGradient><linearGradient id="r" x1="172" y1="393.033" x2="232.704" y2="393.033" gradientUnits="userSpaceOnUse"><stop stop-color="#4C4C4C"/><stop offset="1" stop-color="#878787"/></linearGradient><clipPath id="a"><path fill="#fff" d="M0 0h525v408H0z"/></clipPath><clipPath id="b"><path fill="#fff" d="M0 0h581v435H0z"/></clipPath><clipPath id="k"><path fill="#fff" transform="translate(451 214.999)" d="M0 0h24v24H0z"/></clipPath></defs></svg>