<svg width="200" height="351" fill="none" xmlns="http://www.w3.org/2000/svg"><g clip-path="url(#a)"><path fill-rule="evenodd" clip-rule="evenodd" d="M91.306 99.324c5.404-3.116 14.165-3.116 19.569 0l68.499 39.499a6.25 6.25 0 0 1 3.128 5.336l1.209 90.681c0 6.232-4.38 13.81-9.784 16.926l-70.971 40.364a6.25 6.25 0 0 1-6.21-.019l-68.46-39.478c-5.404-3.116-9.785-10.694-9.785-16.927l.002-89.617a6.257 6.257 0 0 1 3.062-5.38l69.742-41.385zm17.612 1.129 68.499 39.5a6.253 6.253 0 0 1 3.129 5.334l1.209 90.681-.01.47c-.21 4.892-3.63 10.656-7.818 13.072l-70.971 40.362a6.242 6.242 0 0 1-6.21-.019l-68.46-39.477c-4.189-2.415-7.609-8.179-7.819-13.07l-.01-.471v-89.618a6.251 6.251 0 0 1 3.063-5.378l69.743-41.386.413-.227c4.346-2.264 11.054-2.188 15.242.227z" fill="url(#b)"/><path d="M112.541 227.926a11.202 11.202 0 0 1 11.246 11.253c0 2.2-.625 4.276-1.725 6.001l7.698 7.752-3.474 3.475-7.797-7.677a11.23 11.23 0 0 1-5.948 1.7c-6.248 0-11.246-5-11.246-11.251a11.202 11.202 0 0 1 11.246-11.253zm0 5.001a6.244 6.244 0 0 0-4.418 1.831 6.255 6.255 0 0 0 0 8.841 6.248 6.248 0 0 0 10.666-4.42 6.255 6.255 0 0 0-1.83-4.421 6.244 6.244 0 0 0-4.418-1.831zm-13.745-25.006a10.003 10.003 0 0 1 9.996 10.002c0 2.277-.774 4.377-2.049 6.077-2.149.8-4.073 2.076-5.673 3.675l-2.274.251a9.989 9.989 0 0 1-7.068-2.93 10.006 10.006 0 0 1 0-14.144 9.994 9.994 0 0 1 7.068-2.931zM78.804 247.93v-5.001c0-5.301 8.272-9.651 18.743-10.002-.8 1.95-1.25 4.051-1.25 6.252 0 3.225.95 6.251 2.5 8.751H78.803z" fill="#389D2D"/><path d="M96.654 109.873 35.39 145.264c-2.69 1.555-2.69 4.074 0 5.629l59.383 34.305c2.69 1.554 7.052 1.554 9.743 0l61.263-35.392c2.691-1.554 2.691-4.074 0-5.628l-59.382-34.305c-2.691-1.554-7.053-1.554-9.743 0z" stroke="#DDD"/><path d="m95.352 4.868-66.74 66.78a5.63 5.63 0 0 0 0 7.96l66.74 66.78a5.623 5.623 0 0 0 7.955 0l66.74-66.78a5.63 5.63 0 0 0 0-7.96l-66.74-66.78a5.623 5.623 0 0 0-7.955 0z" fill="url(#c)" stroke="url(#d)"/><path d="M95.603 50.967c-.104.018-.737.141-1.399.273-6.806 1.35-13.026 5.981-16.353 12.189-1.38 2.566-2.316 5.453-2.732 8.415-.18 1.35-.151 4.962.056 6.32.426 2.793 1.097 4.944 2.27 7.312 1.342 2.698 2.788 4.67 4.943 6.746 1.976 1.905 3.734 3.122 6.314 4.387 1.57.764 2.846 1.235 4.49 1.65 2.175.548 2.572.585 6.344.538 3.261-.038 3.497-.047 4.537-.273 7.468-1.651 13.527-6.387 16.817-13.142 1.55-3.17 2.287-6.151 2.429-9.67.312-8.349-3.734-16.208-10.795-20.953-2.08-1.396-4.944-2.67-7.402-3.283-2.136-.547-2.505-.575-6.06-.566-1.795.01-3.355.028-3.459.057zm5.795.867.501.057-.312.585c-1.182 2.227-1.343 2.5-1.711 2.811-.463.397-.747.482-2.099.614-1.73.16-2.24.32-2.779.858-.387.377-.68.962-.992 1.972-.379 1.188-.662 1.387-1.248.868-.51-.444-.794-.906-.898-1.49-.114-.614-.284-.907-.927-1.576-.661-.699-1.247-1.085-1.72-1.16-.227-.038-.492-.105-.577-.152-.16-.075-.453-.547-.453-.717 0-.113 1.663-.886 2.902-1.349 1.229-.453 3.138-.962 4.433-1.17 1.777-.282 4.225-.349 5.88-.15zm10.587 4.038c.605.415.983.887 2.675 3.378.652.953.945 1.075 1.635.67l.397-.227.549.698c2.089 2.642 3.545 5.547 4.367 8.708.236.877.614 2.953.558 3.01-.019.018-.274.094-.577.178-.917.236-1.219.133-2.184-.735-.954-.859-1.947-1.434-2.42-1.387-.264.028-.302.066-.321.311-.019.255.085.377 1.03 1.18 2.099 1.773 2.25 1.971 2.25 2.81 0 .586-.246 1.312-.51 1.482-.104.066-.492.16-.86.198-.794.075-1.191.236-1.721.67-.397.32-.491.556-.35.915.029.085.407.406.842.717.832.604 1.418 1.189 1.559 1.566.133.33.114 1.047-.018 1.292-.142.284-.379.434-1.173.784-.917.396-1.408.81-1.711 1.443-.387.83-.425 1.056-.501 3.453-.047 1.698-.104 2.368-.217 2.67-.425 1.132-2.325 2.783-5.18 4.5-1.465.886-1.721.915-1.768.216-.019-.282.076-.849.274-1.556.558-2.076.577-2.217.52-2.868-.028-.35-.17-1-.302-1.462-.653-2.198-.879-3.368-.889-4.472-.009-.82-.161-1.84-.321-2.16-.246-.463-.482-.5-2.562-.434-1.711.056-1.957.047-2.618-.123-1.267-.33-1.986-.896-2.543-2.028-.775-1.604-.936-3.491-.407-5.066.662-1.953 2.411-4.236 4.084-5.321 1.077-.698 1.966-1.01 2.836-1.01.416 0 .907.066 1.153.151.406.142 1.73.906 2.316 1.33 1.078.784 2.77 1.104 3.98.746.586-.17 2.145-1.406 2.193-1.736.094-.632-1.352-1.217-3.243-1.302-.642-.028-1.238-.104-1.37-.18-.133-.065-.511-.348-.851-.64-.766-.652-1.286-.944-2.08-1.142-.992-.255-1.749-.038-2.618.745-.756.68-2.023 1.189-2.987 1.189-.624 0-.917-.283-.917-.897 0-.358.047-.49.264-.707.331-.33.747-.443 1.91-.519.491-.038.974-.085 1.068-.113.322-.085.18-.519-.482-1.444-.605-.858-.671-.915-1.456-1.32-1.37-.717-1.541-.953-1.021-1.538.331-.387 1.031-.632 1.768-.632.832 0 1.238.17 1.9.802.321.311.681.594.804.632.34.094.964.085 1.276-.028.51-.18.51-.397-.019-1.83-.18-.472-.34-1.048-.378-1.284-.085-.556.123-1.104.539-1.415.349-.255 2.712-1.094 3.147-1.113.18 0 .445.094.681.245zm-26.827.727c0 .198.482.537 1.37.98 1.144.567 1.825 1.36 1.73 2.01-.028.208-.085.227-1.134.34-1.172.122-1.74.292-1.843.556-.095.246.217.434 1.36.84 1.948.689 2.676 1.16 2.676 1.755 0 .34-.265.604-.832.849-.53.226-.983.189-1.304-.113-.123-.114-.246-.198-.265-.17-.019.019-.104.415-.18.887-.321 1.754-.425 1.915-1.465 2.254-.889.302-1.777.878-2.505 1.642-.69.726-.87 1.15-1.002 2.34-.132 1.17-.094 1.301.662 2.075.463.49.558.642.558.925 0 .462-.161.764-.52.962-.501.264-.728.141-1.135-.642-1.143-2.179-1.975-2.792-2.75-2.019-.577.576-.331 1.34.699 2.142 1.531 1.189 1.881 1.68 2.023 2.811.047.387.132.783.18.878.18.33.68.462 1.748.443l1.002-.01.52.36c.671.461 1.654 1.528 2.562 2.773.397.547.926 1.236 1.181 1.538.52.603 1.74 1.443 2.525 1.745.283.104.822.302 1.2.443.813.293 1.409.812 1.494 1.302.075.387-.01.576-.568 1.198-.227.255-.605.868-.84 1.368-.54 1.123-.804 1.472-1.372 1.82-.633.397-.888.69-1.295 1.501a11.403 11.403 0 0 1-.954 1.472c-.331.405-.596.773-.596.802 0 .037-.066.141-.132.235-.123.16-.18.151-.88-.273-.566-.35-1.852-1.217-2.088-1.406-.02-.019-.114-.632-.208-1.368-.303-2.264-.577-3.01-1.371-3.773-.87-.83-1.4-1.69-1.749-2.793-.189-.613-.198-.773-.132-2.585.056-1.868.056-1.962-.142-2.405-.255-.585-.406-.746-.907-.991-.426-.208-.785-.623-1.9-2.217-1.39-1.972-1.853-2.99-2.203-4.802-.208-1.038-.18-1.311.321-3.283.728-2.887 2.505-6.387 4.405-8.68 1.03-1.254 3.715-3.839 3.99-3.848.037 0 .066.066.066.132z" fill="#EEE"/><path d="M95.44 13.691 37.518 71.648a5.63 5.63 0 0 0 0 7.96l57.922 57.957a5.622 5.622 0 0 0 7.955 0l57.923-57.957a5.63 5.63 0 0 0 0-7.96l-57.923-57.957a5.622 5.622 0 0 0-7.955 0z" stroke="#A7A7A7" stroke-opacity=".3"/><path d="M181.911 158.019v59.559" stroke="url(#e)"/><path d="M181.873 234.596v-21.878" stroke="url(#f)"/><path d="M181.69 215.956c4.919 0 8.907-3.99 8.907-8.913 0-4.922-3.988-8.912-8.907-8.912-4.919 0-8.907 3.99-8.907 8.912 0 4.923 3.988 8.913 8.907 8.913z" fill="#ACD4A7"/><path d="M181.69 212.391a5.345 5.345 0 0 0 5.344-5.348 5.345 5.345 0 1 0-10.688 0 5.345 5.345 0 0 0 5.344 5.348z" fill="#389D2D"/><path d="M100.804 302.638c4.919 0 8.907-3.99 8.907-8.912 0-4.922-3.988-8.913-8.907-8.913-4.92 0-8.907 3.991-8.907 8.913 0 4.922 3.988 8.912 8.907 8.912z" fill="#ACD4A7"/><path d="M100.806 299.073a5.346 5.346 0 0 0 5.344-5.347 5.346 5.346 0 0 0-5.344-5.348 5.346 5.346 0 0 0-5.345 5.348 5.346 5.346 0 0 0 5.345 5.347z" fill="#389D2D"/><path d="M19.126 155.588v59.56" stroke="url(#g)"/><path d="M19.094 232.164v-21.879" stroke="url(#h)"/><path d="M18.907 215.956c4.92 0 8.907-3.99 8.907-8.913 0-4.922-3.988-8.912-8.907-8.912-4.92 0-8.907 3.99-8.907 8.912 0 4.923 3.988 8.913 8.907 8.913z" fill="#ACD4A7"/><path d="M18.909 212.391a5.346 5.346 0 0 0 5.344-5.348 5.346 5.346 0 0 0-5.344-5.347 5.346 5.346 0 0 0-5.344 5.347 5.346 5.346 0 0 0 5.344 5.348z" fill="#389D2D"/><path d="m100 351.462 3.609-6.253h-7.217l3.608 6.253zm0-29.183a3.335 3.335 0 0 0 3.333-3.336 3.335 3.335 0 0 0-3.333-3.336 3.335 3.335 0 0 0-3.333 3.336 3.335 3.335 0 0 0 3.333 3.336zm0 23.555h.625v-26.891h-1.25v26.891H100z" fill="url(#i)"/></g><defs><radialGradient id="e" cx="0" cy="0" r="1" gradientUnits="userSpaceOnUse"><stop stop-color="#389D2D" stop-opacity="0"/><stop offset="1" stop-color="#389D2D"/></radialGradient><radialGradient id="f" cx="0" cy="0" r="1" gradientUnits="userSpaceOnUse"><stop stop-color="#389D2D" stop-opacity="0"/><stop offset="1" stop-color="#389D2D"/></radialGradient><radialGradient id="g" cx="0" cy="0" r="1" gradientUnits="userSpaceOnUse"><stop stop-color="#389D2D" stop-opacity="0"/><stop offset="1" stop-color="#389D2D"/></radialGradient><radialGradient id="h" cx="0" cy="0" r="1" gradientUnits="userSpaceOnUse"><stop stop-color="#389D2D" stop-opacity="0"/><stop offset="1" stop-color="#389D2D"/></radialGradient><linearGradient id="b" x1="7.463" y1="195.823" x2="224.384" y2="195.823" gradientUnits="userSpaceOnUse"><stop stop-color="#737373" stop-opacity=".11"/><stop offset="1" stop-color="#D9D9D9" stop-opacity=".2"/></linearGradient><linearGradient id="c" x1="61.798" y1="38.441" x2="137.422" y2="114.021" gradientUnits="userSpaceOnUse"><stop/><stop offset="1" stop-color="#666"/></linearGradient><linearGradient id="d" x1="61.798" y1="38.441" x2="137.422" y2="114.021" gradientUnits="userSpaceOnUse"><stop/><stop offset="1" stop-color="#666"/></linearGradient><linearGradient id="i" x1="100.625" y1="351.462" x2="100.625" y2="318.943" gradientUnits="userSpaceOnUse"><stop stop-color="#4C4C4C"/><stop offset="1" stop-color="#878787"/></linearGradient><clipPath id="a"><path fill="#fff" d="M0 0h200v351H0z"/></clipPath></defs></svg>