<svg width="581" height="435" fill="none" xmlns="http://www.w3.org/2000/svg"><path d="M337.876 133.518a5.83 5.83 0 0 0-2.91-4.971l-63.701-36.805c-3.895-2.25-10.134-2.32-14.175-.211l-.383.211-64.859 38.563a5.827 5.827 0 0 0-2.848 5.011v83.504l.009.439c.196 4.557 3.376 9.928 7.27 12.179l63.666 36.783a5.797 5.797 0 0 0 5.775.018l66.001-37.609c3.894-2.251 7.074-7.622 7.27-12.18l.009-.438-1.124-84.494z" fill="#F9F9F9"/><path d="M76.52 22.085H5.904A5.31 5.31 0 0 0 .59 27.39v70.494a5.31 5.31 0 0 0 5.314 5.305H76.52a5.31 5.31 0 0 0 5.314-5.305V27.39a5.31 5.31 0 0 0-5.314-5.305zM87.969 128.435H17.353a5.31 5.31 0 0 0-5.314 5.304v70.495a5.31 5.31 0 0 0 5.314 5.305H87.97a5.31 5.31 0 0 0 5.314-5.305v-70.495a5.31 5.31 0 0 0-5.314-5.304zM528.375 92.798h-70.616a5.31 5.31 0 0 1-5.314-5.305V16.999a5.31 5.31 0 0 1 5.314-5.305h70.616a5.31 5.31 0 0 1 5.314 5.305v70.494a5.31 5.31 0 0 1-5.314 5.305z" stroke="#A7A7A7" stroke-dasharray="12 12"/><path d="M429.845 435H243.264a5.9 5.9 0 0 1-5.905-5.894V393.74a5.9 5.9 0 0 1 5.905-5.894h186.581a5.9 5.9 0 0 1 5.905 5.894v35.366a5.9 5.9 0 0 1-5.905 5.894z" fill="#EEE"/><path d="M575.096 295.305h-119.27a5.31 5.31 0 0 1-5.314-5.305v-35.366a5.31 5.31 0 0 1 5.314-5.305h119.27a5.31 5.31 0 0 1 5.314 5.305V290a5.31 5.31 0 0 1-5.314 5.305zM517.535 196.723h-70.616a5.31 5.31 0 0 1-5.314-5.305v-70.494a5.31 5.31 0 0 1 5.314-5.305h70.616a5.31 5.31 0 0 1 5.314 5.305v70.494a5.31 5.31 0 0 1-5.314 5.305z" stroke="#A7A7A7" stroke-dasharray="12 12"/><path d="M145.912 190.809V47.245a2.36 2.36 0 0 0-2.362-2.357h-41.607m43.969 145.921V384.1a2.36 2.36 0 0 1-2.362 2.358H98.082m47.83-195.649h32.098M378.067 190.809V47.245a2.36 2.36 0 0 1 2.361-2.357h38.193m-40.554 145.921h-30.802m30.802 0v82.098m0 0v35.955a2.36 2.36 0 0 1-2.362 2.358H332.42a2.358 2.358 0 0 0-2.361 2.357v37.724m48.008-78.394h19.303" stroke="#A7A7A7"/><path d="m259.687 101.502-56.483 32.555c-2.542 1.464-2.542 3.84 0 5.304l54.742 31.552c2.542 1.465 6.663 1.464 9.204 0l56.483-32.555c2.542-1.465 2.542-3.84 0-5.305l-54.742-31.551c-2.542-1.465-6.663-1.465-9.204 0z" stroke="#DDD"/><path fill-rule="evenodd" clip-rule="evenodd" d="M254.834 91.696c5-2.877 13.108-2.877 18.108 0l63.328 36.433a5.89 5.89 0 0 1 2.956 5.028l1.118 83.653c0 5.753-4.054 12.75-9.055 15.627l-65.615 37.231a5.912 5.912 0 0 1-5.866-.018l-63.293-36.412c-5-2.878-9.054-9.874-9.054-15.627l.002-82.672c0-2.08 1.1-4.008 2.892-5.069l64.479-38.174zm16.298 1.041 63.328 36.434a5.898 5.898 0 0 1 2.956 5.028l1.117 83.652-.009.435c-.194 4.515-3.359 9.838-7.235 12.067l-65.615 37.231a5.91 5.91 0 0 1-5.866-.017l-63.293-36.414c-3.875-2.229-7.041-7.551-7.234-12.066l-.009-.435v-82.67c0-2.082 1.1-4.009 2.892-5.071l64.481-38.174.381-.209c4.022-2.09 10.23-2.02 14.106.21z" fill="url(#a)"/><path fill-rule="evenodd" clip-rule="evenodd" d="M254.834 91.696c5-2.877 13.108-2.877 18.108 0l63.328 36.433a5.89 5.89 0 0 1 2.956 5.028l1.118 83.653c0 5.753-4.054 12.75-9.055 15.627l-65.615 37.231a5.912 5.912 0 0 1-5.866-.018l-63.293-36.412c-5-2.878-9.054-9.874-9.054-15.627l.002-82.672c0-2.08 1.1-4.008 2.892-5.069l64.479-38.174zm16.298 1.041 63.328 36.434a5.898 5.898 0 0 1 2.956 5.028l1.117 83.652-.009.435c-.194 4.515-3.359 9.838-7.235 12.067l-65.615 37.231a5.91 5.91 0 0 1-5.866-.017l-63.293-36.414c-3.875-2.229-7.041-7.551-7.234-12.066l-.009-.435v-82.67c0-2.082 1.1-4.009 2.892-5.071l64.481-38.174.381-.209c4.022-2.09 10.23-2.02 14.106.21z" fill="#000" fill-opacity=".2"/><path d="M261.306 229.721c-.78 0-1.452-.26-2.014-.778a3.192 3.192 0 0 1-1.019-1.904l-.389-2.854a6.483 6.483 0 0 1-1.061-.519 14.745 14.745 0 0 1-.976-.649l-2.686 1.124c-.723.317-1.444.347-2.167.087a3.2 3.2 0 0 1-1.69-1.385l-2.035-3.546a2.74 2.74 0 0 1-.348-2.119c.174-.75.564-1.37 1.171-1.859l2.295-1.731a4.25 4.25 0 0 1-.042-.585v-1.168c0-.186.014-.381.042-.582l-2.295-1.731a3.284 3.284 0 0 1-1.171-1.859 2.739 2.739 0 0 1 .348-2.119l2.035-3.548a3.207 3.207 0 0 1 1.69-1.384c.723-.259 1.444-.231 2.167.088l2.686 1.123c.317-.23.65-.447.996-.648a8.622 8.622 0 0 1 1.041-.519l.389-2.855a3.176 3.176 0 0 1 1.019-1.903 2.874 2.874 0 0 1 2.014-.778h4.073c.779 0 1.451.259 2.016.778a3.167 3.167 0 0 1 1.016 1.903l.39 2.855c.375.144.73.317 1.063.519.333.201.658.418.974.648l2.687-1.123c.721-.319 1.443-.347 2.165-.088.722.26 1.285.722 1.69 1.384l2.036 3.548c.405.662.521 1.369.347 2.119a3.278 3.278 0 0 1-1.17 1.859l-2.296 1.731c.029.201.043.396.043.584v1.166c0 .188-.029.384-.086.585l2.295 1.731a3.278 3.278 0 0 1 1.171 1.859 2.748 2.748 0 0 1-.346 2.119l-2.081 3.546a3.19 3.19 0 0 1-1.689 1.385c-.723.26-1.444.23-2.167-.087l-2.599-1.124c-.318.231-.651.446-.997.649a8.685 8.685 0 0 1-1.04.519l-.39 2.854a3.183 3.183 0 0 1-1.016 1.904 2.88 2.88 0 0 1-2.016.778h-4.073zm2.123-11.245c1.676 0 3.105-.592 4.289-1.773 1.185-1.183 1.776-2.61 1.776-4.283 0-1.672-.591-3.099-1.776-4.282-1.184-1.182-2.613-1.773-4.289-1.773-1.704 0-3.141.591-4.311 1.773-1.172 1.183-1.756 2.61-1.755 4.282.001 1.673.587 3.1 1.756 4.283 1.169 1.181 2.606 1.773 4.31 1.773z" fill="#389D2D"/><path d="m261.519 4.586-61.59 61.483a5.299 5.299 0 0 0 0 7.502l61.59 61.484a5.32 5.32 0 0 0 7.515 0l61.59-61.484a5.299 5.299 0 0 0 0-7.502l-61.59-61.483a5.32 5.32 0 0 0-7.515 0z" fill="url(#b)" stroke="url(#c)"/><path d="m261.602 12.731-53.43 53.338a5.297 5.297 0 0 0 0 7.502l53.43 53.338a5.32 5.32 0 0 0 7.515 0l53.43-53.338a5.299 5.299 0 0 0 0-7.502l-53.43-53.338a5.32 5.32 0 0 0-7.515 0z" stroke="#A7A7A7" stroke-opacity=".3"/><path d="M280.104 81.34c.004.35-.086.807-.181 1.183-.656 2.648-3.572 5.618-7.674 5.348-3.72-.244-6.749-2.026-6.749-4.526s3.022-4.526 6.749-4.526c3.726 0 7.832.022 7.855 2.522z" fill="#F9F9F9"/><path d="M272.246 79.238c-2.001 0-6.57.553-7.619.553-1.851 0-3.354 1.16-3.354 2.592 0 .689.354 1.31.92 1.775 0 0 1.244 1.245 3.484.648.981-.262 2.576-2.204 5.384-2.513 1.398-.154 4.018.926 8.623.952.197-.425.238-.72.238-.72 0-2.502-3.949-3.287-7.676-3.287z" fill="#A9A9A9"/><path d="M279.922 82.522s2.701-.547 4.38-2.751c1.957-2.571 1.699-5.322 1.699-5.322 1.984-3.703-.617-7.175-.617-7.175-.259-3.909-2.68-5.528-2.68-5.528-1.571-3.729-5.048-4.731-5.048-4.731-2.729-3.188-7.572-3.086-7.572-3.086s-4.538-1.66-10.766.206c-1.031.309-4.483 1.029-7.007 2.571-7.957 4.863-8.56 12.447-8.449 13.68.618 6.89 5.461 8.124 8.551 8.844.722 1.954 3.374 5.554 8.139 4.218 5.874-1.029 8.347-2.777 9.788-2.777 1.443 0 5.462 1.542 9.582 1.85z" fill="#EEE"/><path d="M265.064 71.443c2.879-1.549 4.439-1.404 5.816-1.28.438.04.853.07 1.272.068 2.453-.056 4.439-1.087 5.319-2.086a.623.623 0 0 0-.072-.854.624.624 0 0 0-.859.038c-.677.77-2.348 1.62-4.418 1.668-.37.01-.742-.026-1.127-.062-1.479-.137-3.313-.305-6.518 1.422-.822.443-1.949.607-3.172.73-2.716-3.913-1.081-7.322-.614-8.134.046.002.091.017.137.017.495 0 .992-.12 1.442-.375a.615.615 0 0 0 .217-.831.62.62 0 0 0-.825-.243 1.766 1.766 0 0 1-2.324-.576.618.618 0 0 0-1.04.665c.292.458.706.802 1.172 1.033-.644 1.306-1.867 4.74.46 8.58-1.637.16-3.276.39-4.56 1.216a8.881 8.881 0 0 0-2.321 2.21c-.779-.133-3.626-.832-4.123-3.987.309-.24.559-.556.713-.946a.62.62 0 0 0-.007-.472.62.62 0 0 0-1.143.018.938.938 0 0 1-.561.57.959.959 0 0 1-.795-.087.608.608 0 0 0-.47-.054.62.62 0 0 0-.131 1.133c.351.195.728.293 1.101.293.046 0 .089-.02.135-.023.588 2.978 2.946 4.286 4.613 4.683a4.569 4.569 0 0 0-.408 1.47.619.619 0 0 0 .561.67l.055.002a.62.62 0 0 0 .617-.563c.133-1.497 1.563-3.06 2.834-3.881 1.192-.767 2.937-.928 4.625-1.085 1.638-.15 3.186-.293 4.399-.947zm15.908-1.856a.616.616 0 0 0 .246.838.62.62 0 0 0 .839-.246c.024-.042 2.277-4.257-1.942-7.09a.62.62 0 0 0-.952.632.62.62 0 0 0 .262.393c3.269 2.194 1.618 5.34 1.547 5.473zm-25.627-9.966a.625.625 0 0 0 .502-.256c1.793-2.49 4.275-1.638 4.38-1.599a.62.62 0 0 0 .76-.835.623.623 0 0 0-.332-.322c-1.187-.44-3.929-.578-5.811 2.036a.606.606 0 0 0-.114.314.609.609 0 0 0 .293.572c.098.059.209.09.322.09zm16.162-2.33c2.752-.223 4.002 1.768 4.059 1.862a.624.624 0 0 0 .847.22.605.605 0 0 0 .285-.378.601.601 0 0 0-.065-.468c-.067-.113-1.656-2.738-5.223-2.466a.615.615 0 0 0-.421.214.614.614 0 0 0 .068.87.62.62 0 0 0 .45.146zm11.313 18.034c-.305-.017-.639.223-.666.564-.002.022-.2 2.121-2.362 2.831a.618.618 0 0 0-.424.686.621.621 0 0 0 .812.487c2.932-.96 3.196-3.782 3.206-3.902a.627.627 0 0 0-.144-.45.629.629 0 0 0-.422-.216z" fill="#4C4C4C"/><path d="M252.22 69.328c-.025.08-.033.162-.025.245a.617.617 0 0 0 1.218.076 1.756 1.756 0 0 1 2.042-1.252.622.622 0 0 0 .637-.256.62.62 0 0 0 .007-.686.608.608 0 0 0-.39-.266 2.913 2.913 0 0 0-1.544.106c-1.441-2.46-1.161-4.887-1.156-4.913a.618.618 0 0 0-1.226-.167c-.016.12-.346 2.859 1.315 5.695-.423.379-.728.871-.878 1.418zm13.821-3.049a1.325 1.325 0 0 1 1.799.019.62.62 0 0 0 .862-.886 2.474 2.474 0 0 0-.986-.574c.366-1.254.222-1.81-.118-2.854-.067-.204-.132-.409-.195-.614l-.037-.124c-.45-1.49-.747-2.474.108-3.863a.616.616 0 0 0-.67-.924.624.624 0 0 0-.384.277c-1.146 1.861-.725 3.255-.237 4.868l.038.123c.072.24.139.452.201.639.306.939.398 1.254.024 2.39a2.47 2.47 0 0 0-1.248.621.616.616 0 0 0 .403 1.058.617.617 0 0 0 .44-.156zm7.87-3.684c.367.001.73-.08 1.062-.236a.616.616 0 0 0-.055-1.139.619.619 0 0 0-.472.022 1.324 1.324 0 0 1-1.711-.563.619.619 0 1 0-1.089.582c.222.415.554.742.939.969-.664 1.61-.287 3.321.021 4.228a.622.622 0 0 0 .546.441.614.614 0 0 0 .458-.154.6.6 0 0 0 .206-.437.594.594 0 0 0-.039-.243c-.207-.615-.611-2.168-.002-3.488.046.002.09.018.136.018zm5.93 11.638a.603.603 0 0 0-.417-.546.613.613 0 0 0-.239-.03 2.25 2.25 0 0 1-1.642-.552 2.255 2.255 0 0 1-.765-1.55.628.628 0 0 0-.893-.512.619.619 0 0 0-.341.595c.051.729.328 1.385.751 1.92-.993 1.167-2.296 1.5-3.021 1.584-.642.077-1.203.012-1.852-.065-.594-.068-1.268-.145-2.1-.12h-.006c-.025-.353-.109-.867-.377-1.296a.618.618 0 0 0-1.1.205.615.615 0 0 0 .053.45c.165.266.197.69.197.896-.623.223-1.163.551-1.65.868-.87.566-1.556 1.013-2.589.78-.934-.213-1.871-.256-2.664-.145-.123-.31-.319-.68-.62-.965a.622.622 0 0 0-.875.025.618.618 0 0 0 .024.873c.107.1.192.245.259.39-1.364.56-2.048 1.497-2.08 1.543a.615.615 0 0 0 .503.973.623.623 0 0 0 .502-.253c.007-.01.685-.917 2.024-1.284.694-.19 1.686-.174 2.654.046.27.061.522.082.765.086.116.27.16.589.165.707a.621.621 0 0 0 .618.583l.033-.001a.618.618 0 0 0 .585-.646 3.698 3.698 0 0 0-.161-.847c.57-.206 1.066-.528 1.532-.83.707-.46 1.377-.896 2.25-.925.733-.025 1.336.045 1.918.113.586.068 1.162.112 1.798.075.112.312.103.73.086.869a.597.597 0 0 0 .025.258.619.619 0 0 0 1.202-.1c.045-.405.02-.814-.074-1.21a5.771 5.771 0 0 0 2.9-1.816 3.463 3.463 0 0 0 2.047.51.613.613 0 0 0 .575-.655z" fill="#4C4C4C"/><path d="M338.469 199.376c4.552 0 8.243-3.684 8.243-8.229 0-4.544-3.691-8.228-8.243-8.228-4.552 0-8.242 3.684-8.242 8.228 0 4.545 3.69 8.229 8.242 8.229z" fill="#ACD4A7"/><path d="M338.469 196.086a4.941 4.941 0 0 0 4.945-4.937 4.94 4.94 0 0 0-4.945-4.937 4.942 4.942 0 0 0-4.946 4.937 4.942 4.942 0 0 0 4.946 4.937z" fill="#389D2D"/><path d="M263.621 279.405c4.553 0 8.243-3.684 8.243-8.228 0-4.545-3.69-8.229-8.243-8.229-4.552 0-8.242 3.684-8.242 8.229 0 4.544 3.69 8.228 8.242 8.228z" fill="#ACD4A7"/><path d="M263.621 276.113a4.941 4.941 0 0 0 4.946-4.937 4.942 4.942 0 0 0-4.946-4.937 4.941 4.941 0 0 0-4.945 4.937 4.94 4.94 0 0 0 4.945 4.937z" fill="#389D2D"/><path d="M187.84 199.375c4.552 0 8.243-3.684 8.243-8.229 0-4.544-3.691-8.228-8.243-8.228-4.552 0-8.242 3.684-8.242 8.228 0 4.545 3.69 8.229 8.242 8.229z" fill="#ACD4A7"/><path d="M187.84 196.084a4.94 4.94 0 0 0 4.945-4.937 4.94 4.94 0 0 0-4.945-4.937 4.94 4.94 0 0 0-4.945 4.937 4.94 4.94 0 0 0 4.945 4.937z" fill="#389D2D"/><path d="m430.559 44.887-5.904 3.404v-6.807l5.904 3.403zm-38.444 0a3.146 3.146 0 0 1-3.149 3.144 3.147 3.147 0 0 1-3.15-3.144 3.147 3.147 0 0 1 3.15-3.143 3.146 3.146 0 0 1 3.149 3.143zm33.13 0v.59h-36.279V44.298h36.279v.59z" fill="url(#d)"/><path d="m93.883 44.887 5.904 3.404v-6.807l-5.904 3.403zm38.444 0a3.146 3.146 0 0 0 3.149 3.144 3.146 3.146 0 0 0 3.149-3.144 3.146 3.146 0 0 0-3.149-3.143 3.146 3.146 0 0 0-3.149 3.143zm-33.13 0v.59h36.279V44.298h-36.28v.59z" fill="url(#e)"/><path d="m101.75 190.774 5.904 3.404v-6.807l-5.904 3.403zm38.444 0a3.146 3.146 0 0 0 3.149 3.144 3.146 3.146 0 0 0 3.149-3.144 3.146 3.146 0 0 0-3.149-3.144 3.147 3.147 0 0 0-3.149 3.144zm-33.13 0v.59h36.279V190.185h-36.279v.589z" fill="url(#f)"/><path d="m423.032 190.774-5.905 3.404v-6.807l5.905 3.403zm-38.444 0a3.146 3.146 0 0 1-3.15 3.144 3.146 3.146 0 0 1-3.149-3.144 3.147 3.147 0 0 1 3.149-3.144c1.74 0 3.15 1.408 3.15 3.144zm33.13 0v.59h-36.28V190.185h36.28v.589z" fill="url(#g)"/><path d="m50.574 386.456 5.905 3.403v-6.805l-5.905 3.402zm57.555 0a3.147 3.147 0 0 0 3.149 3.144 3.147 3.147 0 0 0 3.149-3.144 3.147 3.147 0 0 0-3.149-3.143 3.147 3.147 0 0 0-3.149 3.143zm-52.24 0v.589h55.389V385.866h-55.39v.59z" fill="url(#h)"/><path d="m329.472 382.195 3.409-5.895h-6.819l3.41 5.895zm0-30.108a3.147 3.147 0 0 0 3.149-3.143 3.146 3.146 0 0 0-3.149-3.144 3.146 3.146 0 0 0-3.15 3.144 3.147 3.147 0 0 0 3.15 3.143zm0 24.803h.59v-27.946h-1.181v27.946h.591z" fill="url(#i)"/><path d="m438.11 272.317-5.905 3.404v-6.807l5.905 3.403zm-38.182 0a3.146 3.146 0 0 1-3.15 3.144 3.146 3.146 0 0 1-3.149-3.144 3.147 3.147 0 0 1 3.149-3.144c1.74 0 3.15 1.408 3.15 3.144zm32.868 0v.59h-36.018V271.728h36.018v.589z" fill="url(#j)"/><defs><linearGradient id="a" x1="177.247" y1="180.788" x2="377.982" y2="180.788" gradientUnits="userSpaceOnUse"><stop stop-color="#737373" stop-opacity=".11"/><stop offset="1" stop-color="#D9D9D9" stop-opacity=".2"/></linearGradient><linearGradient id="b" x1="230.551" y1="35.5" x2="300.371" y2="105.44" gradientUnits="userSpaceOnUse"><stop/><stop offset="1" stop-color="#666"/></linearGradient><linearGradient id="c" x1="230.551" y1="35.5" x2="300.371" y2="105.44" gradientUnits="userSpaceOnUse"><stop/><stop offset="1" stop-color="#666"/></linearGradient><linearGradient id="d" x1="430.559" y1="45.477" x2="388.966" y2="45.477" gradientUnits="userSpaceOnUse"><stop stop-color="#4C4C4C"/><stop offset="1" stop-color="#878787"/></linearGradient><linearGradient id="e" x1="93.883" y1="45.477" x2="135.476" y2="45.477" gradientUnits="userSpaceOnUse"><stop stop-color="#4C4C4C"/><stop offset="1" stop-color="#878787"/></linearGradient><linearGradient id="f" x1="101.75" y1="191.364" x2="143.343" y2="191.364" gradientUnits="userSpaceOnUse"><stop stop-color="#4C4C4C"/><stop offset="1" stop-color="#878787"/></linearGradient><linearGradient id="g" x1="423.032" y1="191.364" x2="381.439" y2="191.364" gradientUnits="userSpaceOnUse"><stop stop-color="#4C4C4C"/><stop offset="1" stop-color="#878787"/></linearGradient><linearGradient id="h" x1="50.574" y1="387.045" x2="111.278" y2="387.045" gradientUnits="userSpaceOnUse"><stop stop-color="#4C4C4C"/><stop offset="1" stop-color="#878787"/></linearGradient><linearGradient id="i" x1="330.062" y1="382.195" x2="330.062" y2="348.944" gradientUnits="userSpaceOnUse"><stop stop-color="#4C4C4C"/><stop offset="1" stop-color="#878787"/></linearGradient><linearGradient id="j" x1="438.11" y1="272.907" x2="396.778" y2="272.907" gradientUnits="userSpaceOnUse"><stop stop-color="#4C4C4C"/><stop offset="1" stop-color="#878787"/></linearGradient></defs></svg>