<svg width="329" height="186" fill="none" xmlns="http://www.w3.org/2000/svg"><g clip-path="url(#a)"><path d="M44.067 12.134H4.323c-1.652 0-2.991 1.305-2.991 2.914V53.78c0 1.61 1.34 2.914 2.99 2.914h39.745c1.652 0 2.99-1.305 2.99-2.914V15.048c0-1.61-1.338-2.914-2.99-2.914zM50.512 70.565H10.768c-1.652 0-2.99 1.305-2.99 2.915v38.731c0 1.61 1.338 2.915 2.99 2.915h39.744c1.652 0 2.991-1.305 2.991-2.915v-38.73c0-1.61-1.339-2.916-2.99-2.916zM298.383 50.985h-39.744c-1.652 0-2.991-1.305-2.991-2.914V9.339c0-1.61 1.339-2.914 2.991-2.914h39.744c1.652 0 2.991 1.305 2.991 2.914v38.732c0 1.61-1.339 2.914-2.991 2.914zM324.678 162.248h-67.129c-1.651 0-2.99-1.305-2.99-2.915v-19.43c0-1.61 1.339-2.915 2.99-2.915h67.129c1.651 0 2.99 1.305 2.99 2.915v19.43c0 1.61-1.339 2.915-2.99 2.915zM292.282 108.085h-39.744c-1.652 0-2.991-1.305-2.991-2.915V66.439c0-1.61 1.339-2.915 2.991-2.915h39.744c1.652 0 2.991 1.305 2.991 2.915v38.731c0 1.61-1.339 2.915-2.991 2.915z" stroke="#A7A7A7" stroke-dasharray="12 12"/><path d="M58.375 24.663h23.418c.734 0 1.329.58 1.329 1.296v78.877h18.065M213.785 104.836V25.959c0-.716.595-1.296 1.329-1.296h21.496m-22.825 80.173h-17.336m17.336 0v45.106h10.864" stroke="#A7A7A7"/><path d="m147.157 55.768-31.79 17.886c-1.43.805-1.43 2.11 0 2.915l30.811 17.335c1.43.805 3.75.805 5.18 0l31.79-17.886c1.431-.805 1.431-2.11 0-2.915l-30.81-17.335c-1.431-.805-3.75-.805-5.181 0z" stroke="#DDD"/><path fill-rule="evenodd" clip-rule="evenodd" d="M144.427 50.38c2.814-1.58 7.378-1.58 10.192 0l35.642 20.017a3.227 3.227 0 0 1 1.664 2.763l.629 45.961c0 3.161-2.282 7.005-5.096 8.586l-36.93 20.455a3.397 3.397 0 0 1-3.301-.009l-35.623-20.006c-2.815-1.582-5.096-5.426-5.096-8.586l.001-45.422c0-1.143.619-2.202 1.628-2.785l36.29-20.974zm9.173.572 35.642 20.018a3.226 3.226 0 0 1 1.664 2.762l.628 45.961-.004.239c-.11 2.48-1.891 5.405-4.072 6.63l-36.93 20.455a3.397 3.397 0 0 1-3.301-.009l-35.623-20.007c-2.181-1.224-3.963-4.149-4.072-6.629l-.005-.239V74.712c0-1.144.619-2.203 1.628-2.786l36.291-20.974.215-.115c2.263-1.148 5.757-1.11 7.939.115z" fill="url(#b)"/><path d="M148.069 126.215c-.438 0-.817-.143-1.133-.428a1.74 1.74 0 0 1-.574-1.046l-.219-1.568a3.686 3.686 0 0 1-.597-.285 8.3 8.3 0 0 1-.549-.357l-1.512.618a1.625 1.625 0 0 1-1.219.048 1.791 1.791 0 0 1-.951-.761l-1.146-1.948a1.479 1.479 0 0 1-.196-1.165c.098-.412.317-.752.659-1.021l1.292-.951a2.25 2.25 0 0 1-.024-.321v-.642c0-.103.008-.209.024-.32l-1.292-.951a1.798 1.798 0 0 1-.659-1.021 1.478 1.478 0 0 1 .196-1.165l1.146-1.949a1.79 1.79 0 0 1 .951-.76 1.62 1.62 0 0 1 1.219.048l1.512.617a6.51 6.51 0 0 1 .561-.356 4.91 4.91 0 0 1 .585-.285l.219-1.569c.066-.412.256-.76.574-1.045a1.638 1.638 0 0 1 1.133-.428h2.293c.438 0 .816.143 1.134.428.317.285.508.633.572 1.045l.22 1.569c.211.079.41.174.598.285.187.11.37.23.548.356l1.512-.617a1.62 1.62 0 0 1 1.219-.048c.406.142.723.396.951.76l1.146 1.949c.228.364.293.753.196 1.165a1.803 1.803 0 0 1-.659 1.021l-1.292.951c.016.111.024.217.024.321v.641c0 .103-.016.21-.049.321l1.292.951c.342.269.561.609.659 1.021.098.412.032.8-.195 1.165l-1.171 1.948a1.785 1.785 0 0 1-.95.761 1.628 1.628 0 0 1-1.22-.048l-1.463-.618a6.677 6.677 0 0 1-.561.357 4.91 4.91 0 0 1-.585.285l-.22 1.568a1.738 1.738 0 0 1-.572 1.046 1.64 1.64 0 0 1-1.134.428h-2.293zm1.195-6.179c.943 0 1.748-.325 2.414-.974.667-.65 1-1.434 1-2.353 0-.918-.333-1.703-1-2.352-.666-.65-1.471-.975-2.414-.975-.959 0-1.768.325-2.426.975a3.174 3.174 0 0 0-.988 2.352c.001.919.33 1.703.988 2.353.658.649 1.467.974 2.426.974z" fill="#389D2D"/><path d="M148.189 2.52 113.525 36.3a2.862 2.862 0 0 0 0 4.122l34.664 33.78a3.047 3.047 0 0 0 4.23 0l34.664-33.78a2.862 2.862 0 0 0 0-4.122L152.419 2.52a3.047 3.047 0 0 0-4.23 0z" fill="url(#c)" stroke="url(#d)"/><path d="M148.237 6.995 118.166 36.3a2.862 2.862 0 0 0 0 4.122l30.071 29.306a3.047 3.047 0 0 0 4.23 0l30.071-29.306a2.862 2.862 0 0 0 0-4.122L152.467 6.995a3.047 3.047 0 0 0-4.23 0z" stroke="#A7A7A7" stroke-opacity=".3"/><path d="M158.649 44.691c.002.192-.048.443-.101.65-.37 1.454-2.011 3.087-4.32 2.938-2.094-.134-3.798-1.114-3.798-2.487s1.7-2.486 3.798-2.486c2.097 0 4.408.012 4.421 1.385z" fill="#F9F9F9"/><path d="M154.227 43.536c-1.127 0-3.698.304-4.289.304-1.042 0-1.887.637-1.887 1.424 0 .378.199.72.518.975 0 0 .699.684 1.96.356.553-.144 1.45-1.211 3.03-1.38.787-.085 2.262.508 4.853.522.111-.233.135-.395.135-.395 0-1.375-2.223-1.806-4.32-1.806z" fill="#A9A9A9"/><path d="M158.547 45.34s1.52-.3 2.466-1.512c1.101-1.412.956-2.924.956-2.924 1.117-2.034-.348-3.942-.348-3.942-.145-2.147-1.508-3.037-1.508-3.037-.884-2.048-2.841-2.599-2.841-2.599-1.536-1.752-4.262-1.695-4.262-1.695s-2.554-.913-6.059.113c-.58.17-2.523.565-3.944 1.412-4.478 2.672-4.817 6.839-4.755 7.516.348 3.786 3.073 4.464 4.813 4.86.406 1.073 1.899 3.051 4.58 2.317 3.306-.565 4.698-1.526 5.51-1.526.812 0 3.074.847 5.392 1.017z" fill="#EEE"/><path d="M150.183 39.253c1.62-.85 2.498-.771 3.273-.703.247.022.48.039.716.037 1.381-.03 2.499-.597 2.994-1.146a.337.337 0 0 0-.041-.47.355.355 0 0 0-.483.022c-.381.423-1.321.89-2.486.916-.209.006-.418-.014-.635-.034-.832-.075-1.864-.167-3.668.782-.463.243-1.098.333-1.785.401-1.529-2.15-.609-4.023-.346-4.47.026.002.051.01.077.01.278 0 .558-.066.812-.206a.34.34 0 0 0 .155-.204.332.332 0 0 0-.033-.253.357.357 0 0 0-.465-.133c-.218.117-.475.15-.718.091a.993.993 0 0 1-.59-.408.357.357 0 0 0-.472-.09.331.331 0 0 0-.113.455c.165.252.397.441.66.568-.363.718-1.051 2.604.258 4.714-.921.088-1.843.215-2.566.669-.508.324-.95.735-1.307 1.214-.438-.073-2.04-.458-2.32-2.191.174-.131.315-.305.402-.52a.341.341 0 0 0-.004-.259.366.366 0 0 0-.077-.109.36.36 0 0 0-.381-.067.351.351 0 0 0-.186.186.522.522 0 0 1-.315.313.556.556 0 0 1-.448-.048.355.355 0 0 0-.473.132.332.332 0 0 0 .135.46c.197.108.409.162.619.162.026 0 .05-.011.076-.013.331 1.637 1.658 2.355 2.597 2.573a2.462 2.462 0 0 0-.23.809.335.335 0 0 0 .08.247.35.35 0 0 0 .236.12l.031.001a.353.353 0 0 0 .235-.089.339.339 0 0 0 .112-.22c.075-.822.88-1.682 1.595-2.133.671-.42 1.653-.51 2.603-.596.922-.082 1.793-.16 2.476-.52zm8.953-1.02a.337.337 0 0 0 .139.46.356.356 0 0 0 .265.029.346.346 0 0 0 .207-.163c.013-.023 1.282-2.339-1.093-3.895a.356.356 0 0 0-.483.092.333.333 0 0 0 .095.47c1.839 1.206.91 2.934.87 3.007zm-14.423-5.475a.357.357 0 0 0 .283-.14c1.008-1.369 2.406-.9 2.465-.879a.355.355 0 0 0 .26-.017.347.347 0 0 0 .176-.188.33.33 0 0 0-.009-.254.344.344 0 0 0-.187-.177c-.668-.242-2.211-.317-3.27 1.119a.33.33 0 0 0 .101.487c.055.032.117.05.181.05zm9.096-1.28c1.549-.123 2.253.971 2.285 1.023a.348.348 0 0 0 .348.164.344.344 0 0 0 .23-.132.327.327 0 0 0 .022-.377c-.037-.061-.932-1.503-2.939-1.354a.353.353 0 0 0-.237.117.335.335 0 0 0 .038.479.355.355 0 0 0 .253.08zm6.367 9.908c-.171-.01-.359.123-.374.31-.002.012-.113 1.166-1.33 1.556a.348.348 0 0 0-.191.145.326.326 0 0 0-.047.231c.013.08.056.153.119.206.064.052.145.08.228.079a.354.354 0 0 0 .109-.017c1.651-.528 1.8-2.078 1.805-2.144a.327.327 0 0 0-.081-.247.35.35 0 0 0-.238-.119z" fill="#4C4C4C"/><path d="M142.954 38.09c-.014.044-.018.09-.014.135a.343.343 0 0 0 .256.292.358.358 0 0 0 .372-.127.352.352 0 0 0 .058-.123.965.965 0 0 1 .436-.564 1.01 1.01 0 0 1 .713-.124.356.356 0 0 0 .359-.14.324.324 0 0 0 .054-.255.325.325 0 0 0-.145-.217.36.36 0 0 0-.125-.052 1.678 1.678 0 0 0-.869.059c-.811-1.353-.653-2.686-.651-2.7a.333.333 0 0 0-.068-.25.35.35 0 0 0-.487-.064.344.344 0 0 0-.135.222c-.009.066-.194 1.571.74 3.13a1.622 1.622 0 0 0-.494.778zm7.779-1.675a.756.756 0 0 1 1.012.01.356.356 0 0 0 .492-.007.333.333 0 0 0-.006-.48 1.405 1.405 0 0 0-.555-.315c.206-.688.125-.994-.067-1.567a13.405 13.405 0 0 1-.109-.338l-.021-.068c-.253-.82-.421-1.36.06-2.122a.331.331 0 0 0-.114-.467.353.353 0 0 0-.478.111c-.646 1.023-.409 1.788-.134 2.675l.021.067c.041.132.079.248.113.351.172.516.224.69.014 1.313a1.4 1.4 0 0 0-.702.342.335.335 0 0 0-.012.474.352.352 0 0 0 .486.022zm4.429-2.024c.207 0 .411-.043.598-.13a.34.34 0 0 0 .179-.191.33.33 0 0 0-.012-.26.356.356 0 0 0-.464-.162.76.76 0 0 1-.963-.31.343.343 0 0 0-.343-.187.341.341 0 0 0-.132.039.335.335 0 0 0-.171.206.328.328 0 0 0 .034.263c.125.227.311.407.528.532-.374.884-.162 1.824.012 2.323a.329.329 0 0 0 .065.12.355.355 0 0 0 .584-.071.316.316 0 0 0 .032-.132.322.322 0 0 0-.022-.133c-.117-.338-.344-1.191-.001-1.917.026.001.05.01.076.01zm3.338 6.394a.337.337 0 0 0-.234-.3.358.358 0 0 0-.135-.016 1.3 1.3 0 0 1-.924-.303 1.235 1.235 0 0 1-.431-.852.343.343 0 0 0-.12-.23.353.353 0 0 0-.489.03.316.316 0 0 0-.068.115.31.31 0 0 0-.017.13c.028.4.184.762.422 1.055-.559.642-1.292.824-1.7.871-.361.042-.677.006-1.043-.036-.334-.037-.713-.08-1.181-.066h-.004c-.014-.194-.061-.476-.212-.712a.355.355 0 0 0-.467-.088.338.338 0 0 0-.152.2.33.33 0 0 0 .03.248c.093.146.111.379.111.492a4.5 4.5 0 0 0-.929.477c-.49.311-.876.556-1.457.429a4.35 4.35 0 0 0-1.5-.08 1.477 1.477 0 0 0-.349-.53.354.354 0 0 0-.492.013.338.338 0 0 0-.095.243c.003.09.042.175.109.237.06.055.107.135.145.215-.767.308-1.152.822-1.17.847a.328.328 0 0 0-.025.352.34.34 0 0 0 .308.183.36.36 0 0 0 .283-.14c.004-.005.385-.503 1.139-.705.39-.104.948-.095 1.493.026.152.033.294.045.431.047.065.148.09.324.093.389a.338.338 0 0 0 .108.227c.065.06.15.093.239.093l.019-.001a.352.352 0 0 0 .24-.111.33.33 0 0 0 .089-.244 1.995 1.995 0 0 0-.09-.465c.321-.113.6-.29.862-.456.398-.253.775-.493 1.267-.508.412-.014.751.024 1.079.062.33.037.654.061 1.011.04.064.172.059.402.049.478a.342.342 0 0 0 .346.382c.085 0 .166-.03.23-.084a.338.338 0 0 0 .115-.21 1.91 1.91 0 0 0-.042-.666 3.253 3.253 0 0 0 1.632-.998 1.99 1.99 0 0 0 1.152.28.354.354 0 0 0 .239-.114.332.332 0 0 0 .085-.246z" fill="#4C4C4C"/><path d="M191.621 80.154v30.212" stroke="url(#e)"/><path d="M191.59 118.999V107.9" stroke="url(#f)"/><path d="M191.498 109.542c2.563 0 4.639-2.024 4.639-4.521s-2.076-4.521-4.639-4.521c-2.562 0-4.639 2.024-4.639 4.521s2.077 4.521 4.639 4.521z" fill="#ACD4A7"/><path d="M191.498 107.735c1.538 0 2.784-1.215 2.784-2.713s-1.246-2.712-2.784-2.712c-1.537 0-2.783 1.214-2.783 2.712 0 1.498 1.246 2.713 2.783 2.713z" fill="#389D2D"/><path d="M149.373 153.512c2.563 0 4.639-2.024 4.639-4.52 0-2.497-2.076-4.521-4.639-4.521-2.562 0-4.639 2.024-4.639 4.521 0 2.496 2.077 4.52 4.639 4.52z" fill="#ACD4A7"/><path d="M149.373 151.703c1.538 0 2.784-1.214 2.784-2.712 0-1.498-1.246-2.713-2.784-2.713-1.537 0-2.783 1.215-2.783 2.713s1.246 2.712 2.783 2.712z" fill="#389D2D"/><path d="M106.844 78.92v30.213" stroke="url(#g)"/><path d="M106.809 117.763v-11.098" stroke="url(#h)"/><path d="M106.721 109.542c2.562 0 4.639-2.024 4.639-4.521s-2.077-4.521-4.639-4.521c-2.562 0-4.639 2.024-4.639 4.521s2.077 4.521 4.639 4.521z" fill="#ACD4A7"/><path d="M106.721 107.734c1.537 0 2.783-1.215 2.783-2.713s-1.246-2.712-2.783-2.712-2.783 1.214-2.783 2.712c0 1.498 1.246 2.713 2.783 2.713z" fill="#389D2D"/><path d="m243.327 24.663-3.323 1.87v-3.74l3.323 1.87zm-21.637 0c0 .954-.794 1.727-1.773 1.727-.979 0-1.772-.773-1.772-1.727 0-.954.793-1.727 1.772-1.727s1.773.773 1.773 1.727zm18.646 0v.323h-20.419v-.647h20.419v.324z" fill="url(#i)"/><path d="m53.84 24.663 3.323 1.87v-3.74l-3.323 1.87zm21.637 0c0 .954.794 1.727 1.773 1.727.978 0 1.772-.773 1.772-1.727 0-.954-.794-1.727-1.772-1.727-.98 0-1.773.773-1.773 1.727zm-18.646 0v.323H77.25v-.647H56.83v.324z" fill="url(#j)"/><path d="m58.266 104.816 3.323 1.87v-3.74l-3.323 1.87zm21.637 0c0 .954.793 1.728 1.772 1.728.98 0 1.772-.774 1.772-1.728s-.793-1.727-1.772-1.727-1.772.773-1.772 1.727zm-18.647 0v.324h20.42v-.648h-20.42v.324z" fill="url(#k)"/><path d="m239.092 104.816-3.323 1.87v-3.74l3.323 1.87zm-21.637 0c0 .954-.793 1.728-1.772 1.728s-1.773-.774-1.773-1.728.794-1.727 1.773-1.727c.979 0 1.772.773 1.772 1.727zm18.647 0v.324h-20.419v-.648h20.419v.324z" fill="url(#l)"/><path d="m149 186 2-3.887h-4l2 3.887zm0-19.854c1.02 0 1.848-.928 1.848-2.073S150.02 162 149 162s-1.848.928-1.848 2.073.828 2.073 1.848 2.073zm0 16.356h.346v-18.429h-.692v18.429H149z" fill="url(#m)"/><path d="m247.578 149.618-3.323 1.87v-3.74l3.323 1.87zm-21.49 0c0 .954-.793 1.727-1.772 1.727s-1.773-.773-1.773-1.727c0-.954.794-1.727 1.773-1.727.979 0 1.772.773 1.772 1.727zm18.499 0v.324h-20.271v-.648h20.271v.324z" fill="url(#n)"/></g><defs><linearGradient id="i" x1="243.327" y1="24.986" x2="219.917" y2="24.986" gradientUnits="userSpaceOnUse"><stop stop-color="#4C4C4C"/><stop offset="1" stop-color="#878787"/></linearGradient><linearGradient id="b" x1="100.759" y1="99.329" x2="213.737" y2="99.329" gradientUnits="userSpaceOnUse"><stop stop-color="#737373" stop-opacity=".11"/><stop offset="1" stop-color="#D9D9D9" stop-opacity=".2"/></linearGradient><linearGradient id="d" x1="130.76" y1="19.505" x2="169.107" y2="58.855" gradientUnits="userSpaceOnUse"><stop/><stop offset="1" stop-color="#666"/></linearGradient><linearGradient id="n" x1="247.578" y1="149.942" x2="224.316" y2="149.942" gradientUnits="userSpaceOnUse"><stop stop-color="#4C4C4C"/><stop offset="1" stop-color="#878787"/></linearGradient><linearGradient id="m" x1="149.346" y1="186" x2="149.346" y2="164.073" gradientUnits="userSpaceOnUse"><stop stop-color="#4C4C4C"/><stop offset="1" stop-color="#878787"/></linearGradient><linearGradient id="l" x1="239.092" y1="105.14" x2="215.683" y2="105.14" gradientUnits="userSpaceOnUse"><stop stop-color="#4C4C4C"/><stop offset="1" stop-color="#878787"/></linearGradient><linearGradient id="k" x1="58.266" y1="105.14" x2="81.675" y2="105.14" gradientUnits="userSpaceOnUse"><stop stop-color="#4C4C4C"/><stop offset="1" stop-color="#878787"/></linearGradient><linearGradient id="c" x1="130.76" y1="19.505" x2="169.107" y2="58.855" gradientUnits="userSpaceOnUse"><stop/><stop offset="1" stop-color="#666"/></linearGradient><linearGradient id="j" x1="53.84" y1="24.986" x2="77.25" y2="24.986" gradientUnits="userSpaceOnUse"><stop stop-color="#4C4C4C"/><stop offset="1" stop-color="#878787"/></linearGradient><radialGradient id="h" cx="0" cy="0" r="1" gradientUnits="userSpaceOnUse"><stop stop-color="#389D2D" stop-opacity="0"/><stop offset="1" stop-color="#389D2D"/></radialGradient><radialGradient id="g" cx="0" cy="0" r="1" gradientUnits="userSpaceOnUse"><stop stop-color="#389D2D" stop-opacity="0"/><stop offset="1" stop-color="#389D2D"/></radialGradient><radialGradient id="f" cx="0" cy="0" r="1" gradientUnits="userSpaceOnUse"><stop stop-color="#389D2D" stop-opacity="0"/><stop offset="1" stop-color="#389D2D"/></radialGradient><radialGradient id="e" cx="0" cy="0" r="1" gradientUnits="userSpaceOnUse"><stop stop-color="#389D2D" stop-opacity="0"/><stop offset="1" stop-color="#389D2D"/></radialGradient><clipPath id="a"><path fill="#fff" transform="translate(0 .459)" d="M0 0h329v185.541H0z"/></clipPath></defs></svg>