<svg width="329" height="186" viewBox="0 0 329 186" fill="none" xmlns="http://www.w3.org/2000/svg">
<g clip-path="url(#clip0_4350_4065)">
<path d="M44.0671 12.1338H4.32289C2.67108 12.1338 1.33203 13.4387 1.33203 15.0484V53.7798C1.33203 55.3895 2.67108 56.6944 4.32289 56.6944H44.0671C45.7189 56.6944 47.0579 55.3895 47.0579 53.7798V15.0484C47.0579 13.4387 45.7189 12.1338 44.0671 12.1338Z" stroke="#A7A7A7" stroke-dasharray="12 12"/>
<path d="M50.5124 70.5654H10.7682C9.11639 70.5654 7.77734 71.8704 7.77734 73.4801V112.211C7.77734 113.821 9.11639 115.126 10.7682 115.126H50.5124C52.1642 115.126 53.5032 113.821 53.5032 112.211V73.4801C53.5032 71.8704 52.1642 70.5654 50.5124 70.5654Z" stroke="#A7A7A7" stroke-dasharray="12 12"/>
<path d="M298.383 50.9854H258.639C256.987 50.9854 255.648 49.6804 255.648 48.0707V9.33938C255.648 7.72967 256.987 6.42474 258.639 6.42474H298.383C300.035 6.42474 301.374 7.72967 301.374 9.33938V48.0707C301.374 49.6804 300.035 50.9854 298.383 50.9854Z" stroke="#A7A7A7" stroke-dasharray="12 12"/>
<path d="M324.678 162.248H257.549C255.898 162.248 254.559 160.943 254.559 159.333V139.903C254.559 138.293 255.898 136.988 257.549 136.988H324.678C326.329 136.988 327.668 138.293 327.668 139.903V159.333C327.668 160.943 326.329 162.248 324.678 162.248Z" stroke="#A7A7A7" stroke-dasharray="12 12"/>
<path d="M292.282 108.085H252.538C250.886 108.085 249.547 106.78 249.547 105.17V66.439C249.547 64.8293 250.886 63.5244 252.538 63.5244H292.282C293.934 63.5244 295.273 64.8293 295.273 66.439V105.17C295.273 106.78 293.934 108.085 292.282 108.085Z" stroke="#A7A7A7" stroke-dasharray="12 12"/>
<path d="M58.375 24.6631H81.7925C82.5269 24.6631 83.1217 25.2431 83.1217 25.9585V104.836H101.187" stroke="#A7A7A7"/>
<path d="M213.785 104.836V25.9585C213.785 25.2431 214.38 24.6631 215.114 24.6631H236.61M213.785 104.836H196.449M213.785 104.836V149.942H224.649" stroke="#A7A7A7"/>
<path d="M147.157 55.768L115.367 73.6542C113.937 74.4591 113.937 75.764 115.367 76.5689L146.178 93.9039C147.608 94.7087 149.928 94.7087 151.358 93.9039L183.148 76.0177C184.579 75.2128 184.579 73.9079 183.148 73.103L152.338 55.768C150.907 54.9632 148.588 54.9632 147.157 55.768Z" stroke="#DDDDDD"/>
<path fill-rule="evenodd" clip-rule="evenodd" d="M144.427 50.3798C147.241 48.7992 151.805 48.7992 154.619 50.3798L190.261 70.3973C191.277 70.9679 191.909 72.0178 191.925 73.1597L192.554 119.121C192.554 122.282 190.272 126.126 187.458 127.707L150.528 148.162C149.504 148.73 148.248 148.726 147.227 148.153L111.604 128.147C108.789 126.565 106.508 122.721 106.508 119.561L106.509 74.139C106.509 72.9958 107.128 71.9368 108.137 71.3539L144.427 50.3798ZM153.6 50.9522L189.242 70.9698C190.258 71.5404 190.89 72.5897 190.906 73.7322L191.534 119.693L191.53 119.932C191.42 122.412 189.639 125.337 187.458 126.562L150.528 147.017C149.504 147.585 148.248 147.581 147.227 147.008L111.604 127.001C109.423 125.777 107.641 122.852 107.532 120.372L107.527 120.133V74.7116C107.527 73.5677 108.146 72.5094 109.155 71.9258L145.446 50.9522L145.661 50.8371C147.924 49.6887 151.418 49.7272 153.6 50.9522Z" fill="url(#paint0_linear_4350_4065)"/>
<path d="M148.069 126.215C147.631 126.215 147.252 126.072 146.936 125.787C146.619 125.502 146.428 125.153 146.362 124.741L146.143 123.173C145.932 123.094 145.732 122.999 145.546 122.888C145.36 122.777 145.176 122.658 144.997 122.531L143.485 123.149C143.079 123.323 142.672 123.34 142.266 123.197C141.86 123.054 141.543 122.801 141.315 122.436L140.169 120.488C139.941 120.123 139.876 119.735 139.973 119.323C140.071 118.911 140.29 118.571 140.632 118.302L141.924 117.351C141.908 117.24 141.9 117.133 141.9 117.03V116.388C141.9 116.285 141.908 116.179 141.924 116.068L140.632 115.117C140.29 114.848 140.071 114.507 139.973 114.096C139.876 113.684 139.941 113.295 140.169 112.931L141.315 110.982C141.543 110.618 141.86 110.364 142.266 110.222C142.672 110.079 143.079 110.095 143.485 110.27L144.997 110.887C145.175 110.761 145.363 110.641 145.558 110.531C145.753 110.42 145.948 110.325 146.143 110.246L146.362 108.677C146.428 108.265 146.618 107.917 146.936 107.632C147.253 107.347 147.631 107.204 148.069 107.204H150.362C150.8 107.204 151.178 107.347 151.496 107.632C151.813 107.917 152.004 108.265 152.068 108.677L152.288 110.246C152.499 110.325 152.698 110.42 152.886 110.531C153.073 110.641 153.256 110.761 153.434 110.887L154.946 110.27C155.352 110.095 155.758 110.079 156.165 110.222C156.571 110.364 156.888 110.618 157.116 110.982L158.262 112.931C158.49 113.295 158.555 113.684 158.458 114.096C158.36 114.507 158.14 114.848 157.799 115.117L156.507 116.068C156.523 116.179 156.531 116.285 156.531 116.389V117.03C156.531 117.133 156.515 117.24 156.482 117.351L157.774 118.302C158.116 118.571 158.335 118.911 158.433 119.323C158.531 119.735 158.465 120.123 158.238 120.488L157.067 122.436C156.84 122.801 156.523 123.054 156.117 123.197C155.71 123.34 155.304 123.323 154.897 123.149L153.434 122.531C153.255 122.658 153.068 122.777 152.873 122.888C152.678 122.999 152.483 123.094 152.288 123.173L152.068 124.741C152.003 125.153 151.812 125.502 151.496 125.787C151.179 126.072 150.801 126.215 150.362 126.215H148.069ZM149.264 120.036C150.207 120.036 151.012 119.711 151.678 119.062C152.345 118.412 152.678 117.628 152.678 116.709C152.678 115.791 152.345 115.006 151.678 114.357C151.012 113.707 150.207 113.382 149.264 113.382C148.305 113.382 147.496 113.707 146.838 114.357C146.178 115.006 145.849 115.791 145.85 116.709C145.851 117.628 146.18 118.412 146.838 119.062C147.496 119.711 148.305 120.036 149.264 120.036Z" fill="#389D2D"/>
<path d="M148.189 2.51964L113.525 36.3002C112.357 37.4385 112.357 39.2839 113.525 40.4222L148.189 74.2028C149.357 75.341 151.251 75.341 152.419 74.2028L187.083 40.4222C188.251 39.2839 188.251 37.4385 187.083 36.3002L152.419 2.51964C151.251 1.38141 149.357 1.38141 148.189 2.51964Z" fill="url(#paint1_linear_4350_4065)" stroke="url(#paint2_linear_4350_4065)"/>
<path d="M148.237 6.99515L118.166 36.3004C116.998 37.4386 116.998 39.2841 118.166 40.4223L148.237 69.7275C149.405 70.8657 151.299 70.8657 152.467 69.7275L182.538 40.4223C183.706 39.2841 183.706 37.4386 182.538 36.3004L152.467 6.99516C151.299 5.85692 149.405 5.85692 148.237 6.99515Z" stroke="#A7A7A7" stroke-opacity="0.3"/>
<path d="M158.649 44.691C158.651 44.8829 158.601 45.1339 158.548 45.3407C158.178 46.7953 156.537 48.4275 154.228 48.279C152.134 48.1447 150.43 47.1655 150.43 45.7923C150.43 44.4191 152.13 43.3057 154.228 43.3057C156.325 43.3057 158.636 43.3178 158.649 44.691Z" fill="#F9F9F9"/>
<path d="M154.227 43.5361C153.1 43.5361 150.529 43.84 149.938 43.84C148.896 43.84 148.051 44.4774 148.051 45.264C148.051 45.6424 148.25 45.9842 148.569 46.2392C148.569 46.2392 149.268 46.9234 150.529 46.5951C151.082 46.4514 151.979 45.384 153.559 45.2145C154.346 45.1297 155.821 45.7231 158.412 45.7373C158.523 45.5041 158.547 45.342 158.547 45.342C158.547 43.9674 156.324 43.5361 154.227 43.5361Z" fill="#A9A9A9"/>
<path d="M158.547 45.34C158.547 45.34 160.067 45.0396 161.013 43.8285C162.114 42.416 161.969 40.9044 161.969 40.9044C163.086 38.8701 161.621 36.9625 161.621 36.9625C161.476 34.8149 160.113 33.9252 160.113 33.9252C159.229 31.8766 157.272 31.326 157.272 31.326C155.736 29.5743 153.01 29.6306 153.01 29.6306C153.01 29.6306 150.456 28.7185 146.951 29.7439C146.371 29.9134 144.428 30.3088 143.007 31.1564C138.529 33.8282 138.19 37.9946 138.252 38.6721C138.6 42.4581 141.325 43.1361 143.065 43.5315C143.471 44.605 144.964 46.583 147.645 45.8487C150.951 45.2838 152.343 44.3229 153.155 44.3229C153.967 44.3229 156.229 45.1705 158.547 45.34Z" fill="#EEEEEE"/>
<path d="M150.183 39.2533C151.803 38.4022 152.681 38.4816 153.456 38.5501C153.703 38.5718 153.936 38.5887 154.172 38.5873C155.553 38.5568 156.671 37.99 157.166 37.4414C157.222 37.3732 157.249 37.2862 157.242 37.1988C157.235 37.1113 157.192 37.0301 157.125 36.9722C157.057 36.9142 156.969 36.884 156.879 36.8879C156.79 36.8919 156.704 36.9295 156.642 36.9931C156.261 37.4162 155.321 37.8835 154.156 37.9093C153.947 37.9153 153.738 37.895 153.521 37.8753C152.689 37.8001 151.657 37.7078 149.853 38.6565C149.39 38.9 148.755 38.9902 148.068 39.058C146.539 36.9077 147.459 35.0347 147.722 34.5885C147.748 34.5898 147.773 34.598 147.799 34.598C148.077 34.598 148.357 34.5315 148.611 34.3918C148.688 34.346 148.743 34.2728 148.766 34.1876C148.789 34.1024 148.777 34.0119 148.733 33.9353C148.688 33.8586 148.615 33.8019 148.528 33.777C148.442 33.7521 148.348 33.761 148.268 33.8018C148.05 33.9193 147.793 33.9519 147.55 33.8932C147.308 33.8345 147.097 33.6887 146.96 33.4852C146.908 33.4141 146.831 33.3651 146.743 33.3484C146.654 33.3319 146.563 33.3488 146.488 33.3959C146.413 33.4429 146.359 33.5164 146.338 33.601C146.317 33.6858 146.33 33.7751 146.375 33.8507C146.54 34.1022 146.772 34.2914 147.035 34.4182C146.672 35.1357 145.984 37.0222 147.293 39.1319C146.372 39.2201 145.45 39.3469 144.727 39.8005C144.219 40.1249 143.777 40.5364 143.42 41.015C142.982 40.9418 141.38 40.5573 141.1 38.824C141.274 38.6925 141.415 38.5189 141.502 38.3046C141.518 38.2632 141.527 38.2189 141.526 38.1744C141.526 38.1299 141.516 38.086 141.498 38.0451C141.479 38.0042 141.453 37.9672 141.421 37.9362C141.387 37.9052 141.349 37.8809 141.306 37.8645C141.264 37.8481 141.218 37.84 141.173 37.8407C141.127 37.8414 141.082 37.8509 141.04 37.8686C140.998 37.8863 140.96 37.9119 140.928 37.9439C140.896 37.9758 140.872 38.0136 140.854 38.0551C140.828 38.1264 140.786 38.1913 140.732 38.2452C140.677 38.2992 140.612 38.341 140.539 38.3676C140.465 38.3914 140.387 38.3994 140.31 38.3912C140.232 38.3831 140.158 38.3588 140.091 38.3202C140.051 38.2985 140.007 38.2848 139.962 38.2797C139.916 38.2746 139.871 38.2783 139.827 38.2904C139.738 38.3151 139.663 38.3731 139.618 38.4517C139.573 38.5303 139.562 38.6231 139.587 38.7096C139.613 38.796 139.673 38.8692 139.753 38.9129C139.95 39.02 140.162 39.0743 140.372 39.0743C140.398 39.0743 140.422 39.0627 140.448 39.0614C140.779 40.6977 142.106 41.4165 143.045 41.6342C142.923 41.8891 142.844 42.1624 142.815 42.4425C142.807 42.5321 142.836 42.6211 142.895 42.69C142.954 42.759 143.039 42.8021 143.131 42.8101L143.162 42.8114C143.249 42.8114 143.333 42.7796 143.397 42.7224C143.461 42.6652 143.501 42.5866 143.509 42.5022C143.584 41.6796 144.389 40.8204 145.104 40.3695C145.775 39.9483 146.757 39.8595 147.707 39.7734C148.629 39.6913 149.5 39.6127 150.183 39.2533ZM159.136 38.2334C159.092 38.3123 159.082 38.4052 159.108 38.4915C159.134 38.5779 159.193 38.6507 159.275 38.6938C159.356 38.737 159.451 38.7471 159.54 38.7217C159.628 38.6964 159.703 38.6379 159.747 38.5589C159.76 38.5358 161.029 36.22 158.654 34.6637C158.577 34.6136 158.484 34.5951 158.393 34.6124C158.302 34.6297 158.222 34.6813 158.171 34.756C158.119 34.8306 158.101 34.9221 158.118 35.0104C158.136 35.0986 158.189 35.1764 158.266 35.2266C160.105 36.4323 159.176 38.1601 159.136 38.2334ZM144.713 32.7582C144.768 32.7582 144.823 32.7454 144.872 32.7209C144.921 32.6964 144.964 32.6608 144.996 32.6171C146.004 31.2494 147.402 31.7173 147.461 31.739C147.546 31.7666 147.64 31.7606 147.721 31.7223C147.802 31.6841 147.865 31.6166 147.897 31.5341C147.928 31.4515 147.925 31.3604 147.888 31.28C147.852 31.1995 147.784 31.136 147.701 31.1029C147.033 30.8615 145.49 30.7856 144.431 32.2218C144.393 32.2725 144.371 32.3321 144.367 32.3943C144.362 32.4564 144.375 32.5186 144.404 32.574C144.433 32.6294 144.477 32.6759 144.532 32.7084C144.587 32.7409 144.649 32.7581 144.713 32.7582ZM153.809 31.4779C155.358 31.3552 156.062 32.449 156.094 32.5005C156.141 32.5781 156.217 32.6344 156.306 32.6571C156.351 32.6683 156.397 32.6709 156.442 32.6647C156.488 32.6586 156.531 32.6438 156.57 32.6212C156.61 32.5987 156.645 32.5687 156.672 32.5332C156.7 32.4976 156.72 32.4571 156.731 32.4139C156.742 32.3708 156.746 32.3259 156.739 32.2818C156.733 32.2376 156.718 32.1952 156.694 32.1567C156.657 32.095 155.762 30.6527 153.755 30.8018C153.71 30.8053 153.665 30.8175 153.625 30.8376C153.584 30.8579 153.547 30.8857 153.518 30.9195C153.458 30.9879 153.428 31.0766 153.435 31.1663C153.442 31.256 153.486 31.3392 153.556 31.3976C153.627 31.4561 153.718 31.485 153.809 31.4779ZM160.176 41.386C160.005 41.3765 159.817 41.5087 159.802 41.6959C159.8 41.7081 159.689 42.8616 158.472 43.2515C158.393 43.2759 158.325 43.3273 158.281 43.3965C158.237 43.4657 158.22 43.5478 158.234 43.6281C158.247 43.7083 158.29 43.7813 158.353 43.8335C158.417 43.8858 158.498 43.9139 158.581 43.9127C158.619 43.9127 158.655 43.9069 158.69 43.8957C160.341 43.3681 160.49 41.818 160.495 41.7522C160.499 41.7077 160.494 41.663 160.48 41.6205C160.466 41.578 160.444 41.5386 160.414 41.5046C160.384 41.4706 160.348 41.4426 160.307 41.4222C160.266 41.4019 160.222 41.3896 160.176 41.386Z" fill="#4C4C4C"/>
<path d="M142.954 38.0904C142.94 38.134 142.936 38.1797 142.94 38.225C142.946 38.2702 142.96 38.314 142.982 38.3539C143.005 38.3937 143.035 38.4287 143.072 38.4567C143.109 38.4848 143.151 38.5053 143.196 38.5172C143.241 38.5291 143.289 38.5319 143.335 38.5256C143.381 38.5194 143.426 38.5041 143.465 38.4807C143.505 38.4574 143.541 38.4264 143.568 38.3896C143.595 38.3528 143.615 38.311 143.626 38.2667C143.693 38.0318 143.848 37.8303 144.062 37.7027C144.275 37.5751 144.53 37.531 144.775 37.5791C144.82 37.5883 144.866 37.5887 144.911 37.5804C144.956 37.5722 144.999 37.5554 145.037 37.531C145.075 37.5067 145.108 37.4752 145.134 37.4384C145.16 37.4017 145.178 37.3603 145.187 37.3167C145.196 37.2731 145.197 37.2282 145.188 37.1844C145.18 37.1406 145.163 37.0989 145.138 37.0616C145.112 37.0243 145.081 36.9922 145.043 36.9671C145.005 36.942 144.962 36.9244 144.918 36.9153C144.628 36.8579 144.328 36.878 144.049 36.9735C143.238 35.6213 143.396 34.2882 143.398 34.2739C143.41 34.1848 143.386 34.0946 143.33 34.0232C143.274 33.9517 143.191 33.9048 143.099 33.8928C143.008 33.8814 142.916 33.9054 142.843 33.9596C142.77 34.0137 142.722 34.0938 142.708 34.1824C142.699 34.2482 142.514 35.753 143.448 37.3113C143.21 37.5196 143.039 37.79 142.954 38.0904ZM150.733 36.4155C150.872 36.2924 151.054 36.2251 151.241 36.227C151.429 36.2289 151.609 36.2998 151.745 36.4257C151.812 36.4882 151.901 36.5226 151.993 36.5212C152.085 36.5198 152.174 36.4827 152.237 36.4181C152.302 36.3537 152.337 36.267 152.336 36.1771C152.334 36.0871 152.296 36.0014 152.231 35.9387C152.073 35.7929 151.884 35.685 151.676 35.6234C151.882 34.9345 151.801 34.6286 151.609 34.0556C151.571 33.9435 151.535 33.8309 151.5 33.7179L151.479 33.6501C151.226 32.8309 151.058 32.2904 151.539 31.5275C151.588 31.4509 151.603 31.3587 151.582 31.2712C151.56 31.1837 151.504 31.1081 151.425 31.061C151.347 31.0139 151.252 30.9991 151.163 31.02C151.073 31.0408 150.995 31.0956 150.947 31.1722C150.301 32.1948 150.538 32.9604 150.813 33.8467L150.834 33.9145C150.875 34.0456 150.913 34.1625 150.947 34.2651C151.119 34.7812 151.171 34.9541 150.961 35.578C150.698 35.6237 150.454 35.7424 150.259 35.9197C150.194 35.9817 150.156 36.0659 150.154 36.1545C150.152 36.243 150.185 36.3289 150.247 36.3937C150.309 36.4584 150.395 36.497 150.485 36.501C150.576 36.5051 150.665 36.4744 150.733 36.4155ZM155.162 34.3912C155.369 34.3919 155.573 34.3476 155.76 34.2617C155.844 34.2234 155.908 34.1544 155.939 34.0697C155.971 33.9851 155.966 33.8918 155.927 33.8105C155.887 33.729 155.816 33.6662 155.729 33.6358C155.643 33.6053 155.547 33.6097 155.463 33.648C155.293 33.7245 155.098 33.7351 154.92 33.6776C154.741 33.6201 154.591 33.4988 154.5 33.3382C154.48 33.2974 154.451 33.2611 154.415 33.2315C154.38 33.2018 154.339 33.1794 154.294 33.1655C154.25 33.1517 154.203 33.1467 154.157 33.1508C154.11 33.1549 154.065 33.1681 154.025 33.1896C153.983 33.2111 153.947 33.2404 153.918 33.2758C153.888 33.3111 153.867 33.3519 153.854 33.3956C153.841 33.4393 153.838 33.4851 153.843 33.5303C153.849 33.5753 153.864 33.6189 153.888 33.6582C154.013 33.886 154.199 34.0658 154.416 34.1905C154.042 35.0755 154.254 36.0153 154.428 36.5138C154.441 36.5575 154.463 36.5982 154.493 36.6334C154.523 36.6686 154.56 36.6976 154.601 36.7186C154.643 36.7397 154.688 36.7523 154.735 36.7559C154.782 36.7594 154.829 36.7537 154.873 36.7391C154.917 36.7246 154.958 36.7014 154.993 36.6711C155.028 36.6408 155.056 36.6039 155.077 36.5626C155.097 36.5215 155.108 36.4767 155.109 36.4312C155.111 36.3856 155.104 36.3401 155.087 36.2975C154.97 35.9598 154.743 35.1067 155.086 34.3811C155.112 34.3824 155.136 34.3912 155.162 34.3912ZM158.5 40.7853C158.497 40.7407 158.486 40.6972 158.466 40.6571C158.446 40.617 158.418 40.5812 158.383 40.5517C158.349 40.5223 158.309 40.4997 158.266 40.4855C158.222 40.4712 158.176 40.4655 158.131 40.4686C157.964 40.4799 157.796 40.4589 157.638 40.4069C157.479 40.3548 157.333 40.2728 157.207 40.1655C157.081 40.0582 156.978 39.9277 156.904 39.7816C156.831 39.6354 156.787 39.4764 156.776 39.3137C156.768 39.2247 156.725 39.142 156.656 39.0833C156.587 39.0245 156.497 38.994 156.405 38.9984C156.359 39.0014 156.315 39.0132 156.274 39.033C156.233 39.0528 156.197 39.0802 156.167 39.1138C156.136 39.1474 156.113 39.1864 156.099 39.2286C156.084 39.2709 156.078 39.3154 156.082 39.3599C156.11 39.7599 156.266 40.1207 156.504 40.4144C155.945 41.0558 155.212 41.2383 154.804 41.2851C154.443 41.3271 154.127 41.2912 153.761 41.2491C153.427 41.2118 153.048 41.1691 152.58 41.1827L152.576 41.1834C152.562 40.9894 152.515 40.7066 152.364 40.4713C152.312 40.4016 152.235 40.3537 152.148 40.3374C152.062 40.321 151.971 40.3374 151.897 40.3831C151.822 40.4288 151.767 40.5005 151.745 40.5837C151.722 40.667 151.733 40.7555 151.775 40.8314C151.868 40.9772 151.886 41.2098 151.886 41.323C151.535 41.4458 151.231 41.6261 150.957 41.8004C150.467 42.111 150.081 42.3565 149.5 42.229C148.974 42.1117 148.447 42.088 148 42.149C147.931 41.9788 147.821 41.7754 147.651 41.6187C147.584 41.5569 147.494 41.5237 147.402 41.5262C147.31 41.5287 147.223 41.5669 147.159 41.6323C147.096 41.6976 147.062 41.7849 147.064 41.8748C147.067 41.9647 147.106 42.0499 147.173 42.1117C147.233 42.1666 147.28 42.2466 147.318 42.3267C146.551 42.6345 146.166 43.1492 146.148 43.1743C146.111 43.225 146.089 43.2845 146.085 43.3465C146.08 43.4084 146.093 43.4704 146.123 43.5256C146.152 43.5808 146.196 43.6271 146.25 43.6593C146.305 43.6916 146.367 43.7087 146.431 43.7087C146.486 43.7089 146.541 43.6964 146.59 43.6723C146.639 43.6481 146.682 43.613 146.714 43.5697C146.718 43.5642 147.099 43.0658 147.853 42.8644C148.243 42.76 148.801 42.7688 149.346 42.8895C149.498 42.9234 149.64 42.9349 149.777 42.937C149.842 43.0848 149.867 43.2605 149.87 43.3256C149.875 43.412 149.914 43.4934 149.978 43.5529C150.043 43.6124 150.128 43.6456 150.217 43.6456L150.236 43.6449C150.328 43.6402 150.414 43.6003 150.476 43.5338C150.538 43.4674 150.57 43.3798 150.565 43.2903C150.554 43.1323 150.523 42.9762 150.475 42.8251C150.796 42.7118 151.075 42.5349 151.337 42.3687C151.735 42.1158 152.112 41.8764 152.604 41.8608C153.016 41.8466 153.355 41.8852 153.683 41.9225C154.013 41.9598 154.337 41.9842 154.694 41.9639C154.758 42.1354 154.753 42.3646 154.743 42.4413C154.738 42.489 154.742 42.5375 154.757 42.5834C154.772 42.6293 154.795 42.6717 154.829 42.7077C154.861 42.7437 154.901 42.7727 154.946 42.7925C154.991 42.8124 155.04 42.8228 155.089 42.8231C155.174 42.823 155.255 42.793 155.319 42.7387C155.382 42.6844 155.423 42.6096 155.434 42.5281C155.459 42.3056 155.445 42.0807 155.392 41.8628C156.028 41.6987 156.597 41.3509 157.024 40.8653C157.369 41.0733 157.772 41.1711 158.176 41.1454C158.268 41.1393 158.354 41.0979 158.415 41.0305C158.476 40.963 158.506 40.8748 158.5 40.7853Z" fill="#4C4C4C"/>
<path d="M191.621 80.1543V110.366" stroke="url(#paint3_radial_4350_4065)"/>
<path d="M191.59 118.999V107.9" stroke="url(#paint4_radial_4350_4065)"/>
<path d="M191.498 109.542C194.061 109.542 196.137 107.518 196.137 105.021C196.137 102.524 194.061 100.5 191.498 100.5C188.936 100.5 186.859 102.524 186.859 105.021C186.859 107.518 188.936 109.542 191.498 109.542Z" fill="#ACD4A7"/>
<path d="M191.498 107.735C193.036 107.735 194.282 106.52 194.282 105.022C194.282 103.524 193.036 102.31 191.498 102.31C189.961 102.31 188.715 103.524 188.715 105.022C188.715 106.52 189.961 107.735 191.498 107.735Z" fill="#389D2D"/>
<path d="M149.373 153.512C151.936 153.512 154.012 151.488 154.012 148.992C154.012 146.495 151.936 144.471 149.373 144.471C146.811 144.471 144.734 146.495 144.734 148.992C144.734 151.488 146.811 153.512 149.373 153.512Z" fill="#ACD4A7"/>
<path d="M149.373 151.703C150.911 151.703 152.157 150.489 152.157 148.991C152.157 147.493 150.911 146.278 149.373 146.278C147.836 146.278 146.59 147.493 146.59 148.991C146.59 150.489 147.836 151.703 149.373 151.703Z" fill="#389D2D"/>
<path d="M106.844 78.9209V109.133" stroke="url(#paint5_radial_4350_4065)"/>
<path d="M106.809 117.763V106.665" stroke="url(#paint6_radial_4350_4065)"/>
<path d="M106.721 109.542C109.283 109.542 111.36 107.518 111.36 105.021C111.36 102.524 109.283 100.5 106.721 100.5C104.159 100.5 102.082 102.524 102.082 105.021C102.082 107.518 104.159 109.542 106.721 109.542Z" fill="#ACD4A7"/>
<path d="M106.721 107.734C108.258 107.734 109.504 106.519 109.504 105.021C109.504 103.523 108.258 102.309 106.721 102.309C105.184 102.309 103.938 103.523 103.938 105.021C103.938 106.519 105.184 107.734 106.721 107.734Z" fill="#389D2D"/>
<path d="M243.327 24.6627L240.004 26.5324V22.793L243.327 24.6627ZM221.69 24.6627C221.69 25.6166 220.896 26.3899 219.917 26.3899C218.938 26.3899 218.145 25.6166 218.145 24.6627C218.145 23.7088 218.938 22.9355 219.917 22.9355C220.896 22.9355 221.69 23.7088 221.69 24.6627ZM240.336 24.6627V24.9865H219.917V24.6627V24.3388H240.336V24.6627Z" fill="url(#paint7_linear_4350_4065)"/>
<path d="M53.8398 24.6627L57.163 26.5324V22.793L53.8398 24.6627ZM75.477 24.6627C75.477 25.6166 76.2706 26.3899 77.2496 26.3899C78.2279 26.3899 79.0215 25.6166 79.0215 24.6627C79.0215 23.7088 78.2279 22.9355 77.2496 22.9355C76.2706 22.9355 75.477 23.7088 75.477 24.6627ZM56.8307 24.6627V24.9865H77.2496V24.6627V24.3388H56.8307V24.6627Z" fill="url(#paint8_linear_4350_4065)"/>
<path d="M58.2656 104.816L61.5888 106.686V102.946L58.2656 104.816ZM79.9027 104.816C79.9027 105.77 80.6963 106.544 81.6753 106.544C82.6543 106.544 83.4472 105.77 83.4472 104.816C83.4472 103.862 82.6543 103.089 81.6753 103.089C80.6963 103.089 79.9027 103.862 79.9027 104.816ZM61.2565 104.816V105.14H81.6753V104.816V104.492H61.2565V104.816Z" fill="url(#paint9_linear_4350_4065)"/>
<path d="M239.092 104.816L235.769 106.686V102.946L239.092 104.816ZM217.455 104.816C217.455 105.77 216.662 106.544 215.683 106.544C214.704 106.544 213.91 105.77 213.91 104.816C213.91 103.862 214.704 103.089 215.683 103.089C216.662 103.089 217.455 103.862 217.455 104.816ZM236.102 104.816V105.14H215.683V104.816V104.492H236.102V104.816Z" fill="url(#paint10_linear_4350_4065)"/>
<path d="M149 186L151 182.113H147L149 186ZM149 166.146C150.02 166.146 150.848 165.218 150.848 164.073C150.848 162.928 150.02 162 149 162C147.98 162 147.152 162.928 147.152 164.073C147.152 165.218 147.98 166.146 149 166.146ZM149 182.502H149.346V164.073H149H148.654V182.502H149Z" fill="url(#paint11_linear_4350_4065)"/>
<path d="M247.578 149.618L244.255 151.488V147.748L247.578 149.618ZM226.088 149.618C226.088 150.572 225.295 151.345 224.316 151.345C223.337 151.345 222.543 150.572 222.543 149.618C222.543 148.664 223.337 147.891 224.316 147.891C225.295 147.891 226.088 148.664 226.088 149.618ZM244.587 149.618V149.942H224.316V149.618V149.294H244.587V149.618Z" fill="url(#paint12_linear_4350_4065)"/>
</g>
<defs>
<linearGradient id="paint0_linear_4350_4065" x1="100.759" y1="99.3292" x2="213.737" y2="99.3292" gradientUnits="userSpaceOnUse">
<stop stop-color="#737373" stop-opacity="0.11"/>
<stop offset="1" stop-color="#D9D9D9" stop-opacity="0.2"/>
</linearGradient>
<linearGradient id="paint1_linear_4350_4065" x1="130.76" y1="19.5048" x2="169.107" y2="58.8554" gradientUnits="userSpaceOnUse">
<stop/>
<stop offset="1" stop-color="#666666"/>
</linearGradient>
<linearGradient id="paint2_linear_4350_4065" x1="130.76" y1="19.5048" x2="169.107" y2="58.8554" gradientUnits="userSpaceOnUse">
<stop/>
<stop offset="1" stop-color="#666666"/>
</linearGradient>
<radialGradient id="paint3_radial_4350_4065" cx="0" cy="0" r="1" gradientUnits="userSpaceOnUse" gradientTransform="translate(nan nan) rotate(nan) scale(nan nan)">
<stop stop-color="#389D2D" stop-opacity="0"/>
<stop offset="1" stop-color="#389D2D"/>
</radialGradient>
<radialGradient id="paint4_radial_4350_4065" cx="0" cy="0" r="1" gradientUnits="userSpaceOnUse" gradientTransform="translate(nan nan) rotate(nan) scale(nan nan)">
<stop stop-color="#389D2D" stop-opacity="0"/>
<stop offset="1" stop-color="#389D2D"/>
</radialGradient>
<radialGradient id="paint5_radial_4350_4065" cx="0" cy="0" r="1" gradientUnits="userSpaceOnUse" gradientTransform="translate(nan nan) rotate(nan) scale(nan nan)">
<stop stop-color="#389D2D" stop-opacity="0"/>
<stop offset="1" stop-color="#389D2D"/>
</radialGradient>
<radialGradient id="paint6_radial_4350_4065" cx="0" cy="0" r="1" gradientUnits="userSpaceOnUse" gradientTransform="translate(nan nan) rotate(nan) scale(nan nan)">
<stop stop-color="#389D2D" stop-opacity="0"/>
<stop offset="1" stop-color="#389D2D"/>
</radialGradient>
<linearGradient id="paint7_linear_4350_4065" x1="243.327" y1="24.9865" x2="219.917" y2="24.9865" gradientUnits="userSpaceOnUse">
<stop stop-color="#4C4C4C"/>
<stop offset="1" stop-color="#878787"/>
</linearGradient>
<linearGradient id="paint8_linear_4350_4065" x1="53.8398" y1="24.9865" x2="77.2496" y2="24.9865" gradientUnits="userSpaceOnUse">
<stop stop-color="#4C4C4C"/>
<stop offset="1" stop-color="#878787"/>
</linearGradient>
<linearGradient id="paint9_linear_4350_4065" x1="58.2656" y1="105.14" x2="81.6753" y2="105.14" gradientUnits="userSpaceOnUse">
<stop stop-color="#4C4C4C"/>
<stop offset="1" stop-color="#878787"/>
</linearGradient>
<linearGradient id="paint10_linear_4350_4065" x1="239.092" y1="105.14" x2="215.683" y2="105.14" gradientUnits="userSpaceOnUse">
<stop stop-color="#4C4C4C"/>
<stop offset="1" stop-color="#878787"/>
</linearGradient>
<linearGradient id="paint11_linear_4350_4065" x1="149.346" y1="186" x2="149.346" y2="164.073" gradientUnits="userSpaceOnUse">
<stop stop-color="#4C4C4C"/>
<stop offset="1" stop-color="#878787"/>
</linearGradient>
<linearGradient id="paint12_linear_4350_4065" x1="247.578" y1="149.942" x2="224.316" y2="149.942" gradientUnits="userSpaceOnUse">
<stop stop-color="#4C4C4C"/>
<stop offset="1" stop-color="#878787"/>
</linearGradient>
<clipPath id="clip0_4350_4065">
<rect width="329" height="185.541" fill="white" transform="translate(0 0.458984)"/>
</clipPath>
</defs>
</svg>
