<svg width="112" height="185" viewBox="0 0 112 185" fill="none" xmlns="http://www.w3.org/2000/svg">
<path fill-rule="evenodd" clip-rule="evenodd" d="M50.6746 60.4917C53.9852 58.5939 59.3527 58.5939 62.6633 60.4917L104.629 84.548C105.8 85.2191 106.528 86.4539 106.546 87.7976L107.286 143.026C107.286 146.821 104.603 151.437 101.292 153.334L57.8117 177.917C56.6314 178.585 55.184 178.58 54.0076 177.906L12.0646 153.862C8.75412 151.965 6.07034 147.349 6.07031 143.553L6.07161 88.973C6.07164 87.6285 6.7846 86.383 7.94749 85.6967L50.6746 60.4917ZM61.4644 61.179L103.43 85.2358C104.601 85.9062 105.329 87.141 105.347 88.4847L106.088 143.713L106.082 143.999C105.953 146.978 103.858 150.489 101.292 151.96L57.8117 176.542C56.6314 177.21 55.184 177.206 54.0076 176.531L12.0646 152.488C9.49902 151.017 7.40361 147.506 7.27503 144.528L7.26921 144.241V89.6601C7.26921 88.3156 7.98218 87.0701 9.14506 86.3846L51.8735 61.179L52.1263 61.0407C54.7886 59.6618 58.8987 59.7082 61.4644 61.179Z" fill="url(#paint0_linear_4810_7602)"/>
<path d="M105.344 88.4856C105.325 87.1419 104.597 85.9071 103.427 85.2368L61.4608 61.1799C58.8951 59.7091 54.785 59.6627 52.1228 61.0416L51.8699 61.1799L9.14148 86.3855C7.9786 87.0711 7.26562 88.3165 7.26562 89.661V144.242L7.27145 144.529C7.40003 147.507 9.49544 151.018 12.0611 152.489L54.004 176.532C55.1804 177.207 56.6278 177.211 57.8081 176.543L101.289 151.961C103.854 150.49 105.949 146.979 106.078 144L106.084 143.714L105.344 88.4856Z" fill="url(#paint1_linear_4810_7602)"/>
<path d="M105.344 88.4856C105.325 87.1419 104.597 85.9071 103.427 85.2368L61.4608 61.1799C58.8951 59.7091 54.785 59.6627 52.1228 61.0416L51.8699 61.1799L9.14148 86.3855C7.9786 87.0711 7.26562 88.3165 7.26562 89.661V144.242L7.27145 144.529C7.40003 147.507 9.49544 151.018 12.0611 152.489L54.004 176.532C55.1804 177.207 56.6278 177.211 57.8081 176.543L101.289 151.961C103.854 150.49 105.949 146.979 106.078 144L106.084 143.714L105.344 88.4856Z" fill="#F9F9F9"/>
<path d="M16.4159 88.4709L53.949 66.916C55.5972 65.9694 58.2696 65.9694 59.9178 66.916L96.2985 87.8089C97.9473 88.7558 97.9473 90.2899 96.2985 91.2368L58.7656 112.791C57.1173 113.738 54.445 113.738 52.7967 112.791L16.4159 91.8987C14.8191 90.9816 14.7692 89.5122 16.2663 88.5608L16.4159 88.4709Z" fill="#F9F9F9" stroke="#DDDDDD"/>
<path d="M55.264 127.409C56.8882 127.409 58.446 128.051 59.5945 129.193C60.743 130.336 61.3881 131.885 61.3881 133.501C61.3881 134.886 60.9136 136.165 60.1327 137.201C58.816 137.689 57.6371 138.465 56.6573 139.44L55.264 139.593C53.6397 139.593 52.0821 138.95 50.9335 137.808C49.785 136.666 49.1398 135.117 49.1398 133.501C49.1398 131.885 49.785 130.336 50.9335 129.193C52.0821 128.051 53.6397 127.409 55.264 127.409ZM43.0156 151.776V148.73C43.0156 145.501 48.0834 142.851 54.4984 142.638C54.0086 143.826 53.7329 145.105 53.7329 146.445C53.7329 148.41 54.3147 150.252 55.264 151.776H43.0156Z" fill="#389D2D"/>
<path d="M63.5073 154.822C63.1454 154.822 62.8339 154.707 62.5728 154.48C62.3118 154.251 62.1542 153.971 62.1 153.642L61.9191 152.386C61.7449 152.322 61.5809 152.245 61.427 152.157C61.2731 152.068 61.1222 151.973 60.9743 151.871L59.7279 152.366C59.3928 152.506 59.0577 152.519 58.7227 152.405C58.3877 152.29 58.1264 152.087 57.9387 151.795L56.9939 150.234C56.8063 149.942 56.7526 149.631 56.8331 149.301C56.9135 148.971 57.0944 148.699 57.3758 148.483L58.4413 147.721C58.4279 147.632 58.4212 147.547 58.4212 147.464V146.95C58.4212 146.867 58.4279 146.782 58.4413 146.693L57.3758 145.932C57.0944 145.716 56.9135 145.443 56.8331 145.113C56.7526 144.783 56.8063 144.473 56.9939 144.181L57.9387 142.619C58.1264 142.327 58.3877 142.125 58.7227 142.011C59.0577 141.896 59.3928 141.908 59.7279 142.049L60.9743 142.543C61.1217 142.442 61.2758 142.346 61.4367 142.258C61.5975 142.169 61.7583 142.093 61.9191 142.03L62.1 140.773C62.1536 140.443 62.3112 140.164 62.5728 139.936C62.8344 139.707 63.146 139.593 63.5073 139.593H65.3969C65.7588 139.593 66.0705 139.707 66.3321 139.936C66.5937 140.164 66.7511 140.443 66.8042 140.773L66.985 142.03C67.1593 142.093 67.3236 142.169 67.478 142.258C67.6324 142.346 67.783 142.442 67.9299 142.543L69.1763 142.049C69.5114 141.908 69.8464 141.896 70.1815 142.011C70.5165 142.125 70.7779 142.327 70.9655 142.619L71.9103 144.181C72.0979 144.473 72.1515 144.783 72.0711 145.113C71.9907 145.443 71.8098 145.716 71.5284 145.932L70.4629 146.693C70.4763 146.782 70.483 146.868 70.483 146.95V147.464C70.483 147.547 70.4696 147.632 70.4428 147.721L71.5082 148.483C71.7897 148.699 71.9706 148.971 72.051 149.301C72.1315 149.631 72.0779 149.942 71.8902 150.234L70.9253 151.795C70.7376 152.087 70.4763 152.29 70.1413 152.405C69.8062 152.519 69.4712 152.506 69.1361 152.366L67.9299 151.871C67.7825 151.973 67.6284 152.068 67.4675 152.157C67.3067 152.245 67.1459 152.322 66.985 152.386L66.8042 153.642C66.7506 153.971 66.5932 154.251 66.3321 154.48C66.071 154.707 65.7593 154.822 65.3969 154.822H63.5073ZM64.4923 149.873C65.2696 149.873 65.933 149.612 66.4825 149.092C67.032 148.571 67.3067 147.943 67.3067 147.207C67.3067 146.471 67.032 145.843 66.4825 145.323C65.933 144.802 65.2696 144.542 64.4923 144.542C63.7016 144.542 63.0347 144.802 62.4916 145.323C61.9486 145.843 61.6774 146.471 61.6779 147.207C61.6784 147.943 61.9499 148.571 62.4924 149.092C63.035 149.612 63.7016 149.873 64.4923 149.873Z" fill="#389D2D"/>
<path d="M106.051 131.526C109.064 131.526 111.508 129.096 111.508 126.098C111.508 123.1 109.064 120.67 106.051 120.67C103.037 120.67 100.594 123.1 100.594 126.098C100.594 129.096 103.037 131.526 106.051 131.526Z" fill="#ACD4A7"/>
<path d="M106.048 129.353C107.856 129.353 109.322 127.895 109.322 126.097C109.322 124.298 107.856 122.84 106.048 122.84C104.239 122.84 102.773 124.298 102.773 126.097C102.773 127.895 104.239 129.353 106.048 129.353Z" fill="#389D2D"/>
<path d="M56.4882 184.318C59.502 184.318 61.9451 181.888 61.9451 178.89C61.9451 175.892 59.502 173.462 56.4882 173.462C53.4744 173.462 51.0312 175.892 51.0312 178.89C51.0312 181.888 53.4744 184.318 56.4882 184.318Z" fill="#ACD4A7"/>
<path d="M56.4929 182.146C58.3012 182.146 59.7671 180.688 59.7671 178.89C59.7671 177.091 58.3012 175.633 56.4929 175.633C54.6846 175.633 53.2188 177.091 53.2188 178.89C53.2188 180.688 54.6846 182.146 56.4929 182.146Z" fill="#389D2D"/>
<path d="M6.31631 131.526C9.3301 131.526 11.7733 129.096 11.7733 126.098C11.7733 123.1 9.3301 120.67 6.31631 120.67C3.30253 120.67 0.859375 123.1 0.859375 126.098C0.859375 129.096 3.30253 131.526 6.31631 131.526Z" fill="#ACD4A7"/>
<path d="M6.32104 129.353C8.1293 129.353 9.5952 127.895 9.5952 126.097C9.5952 124.298 8.1293 122.84 6.32104 122.84C4.51277 122.84 3.04688 124.298 3.04688 126.097C3.04688 127.895 4.51277 129.353 6.32104 129.353Z" fill="#389D2D"/>
<path d="M53.3253 2.96535L12.4368 43.6367C11.091 44.9754 11.091 47.1457 12.4368 48.4844L53.3253 89.1557C54.6711 90.4944 56.8531 90.4944 58.1989 89.1557L99.0874 48.4844C100.433 47.1457 100.433 44.9753 99.0874 43.6367L58.1989 2.96535C56.8531 1.62669 54.6711 1.62669 53.3253 2.96535Z" fill="url(#paint6_linear_4810_7602)" stroke="url(#paint7_linear_4810_7602)"/>
<path d="M53.3841 8.33877L17.8977 43.6367C16.5519 44.9753 16.5519 47.1457 17.8977 48.4844L53.3841 83.7823C54.7299 85.121 56.9119 85.121 58.2577 83.7823L93.7441 48.4844C95.0899 47.1457 95.0899 44.9753 93.7441 43.6367L58.2577 8.33877C56.9119 7.00011 54.7299 7.00011 53.3841 8.33877Z" stroke="#A7A7A7" stroke-opacity="0.3"/>
<path d="M65.5827 53.6605C65.5851 53.8909 65.5253 54.1922 65.4631 54.4405C65.0285 56.187 63.0984 58.1467 60.3817 57.9684C57.9195 57.8072 55.9141 56.6315 55.9141 54.9827C55.9141 53.334 57.9145 51.9971 60.3817 51.9971C62.8487 51.9971 65.5671 52.0118 65.5827 53.6605Z" fill="#F9F9F9"/>
<path d="M60.3817 52.2744C59.0565 52.2744 56.032 52.6392 55.3379 52.6392C54.1117 52.6392 53.1172 53.4045 53.1172 54.349C53.1172 54.8033 53.3513 55.2137 53.7262 55.5198C53.7262 55.5198 54.5496 56.3413 56.0328 55.9472C56.6819 55.7746 57.7379 54.4931 59.5967 54.2895C60.5225 54.1878 62.257 54.9002 65.3052 54.9173C65.4362 54.6372 65.4632 54.4426 65.4632 54.4426C65.4632 52.7922 62.8488 52.2744 60.3817 52.2744Z" fill="#A9A9A9"/>
<path d="M65.4589 54.4403C65.4589 54.4403 67.2465 54.0796 68.3581 52.6254C69.6539 50.9295 69.4836 49.1146 69.4836 49.1146C70.7965 46.672 69.0744 44.3818 69.0744 44.3818C68.9033 41.8032 67.3006 40.735 67.3006 40.735C66.2603 38.2753 63.9585 37.6142 63.9585 37.6142C62.1511 35.5111 58.9449 35.5787 58.9449 35.5787C58.9449 35.5787 55.9409 34.4836 51.8171 35.7146C51.1352 35.9182 48.8499 36.3929 47.1784 37.4106C41.9103 40.6185 41.5117 45.621 41.5853 46.4343C41.9937 50.9799 45.2 51.7942 47.2464 52.2688C47.7235 53.5577 49.4802 55.9327 52.6348 55.0509C56.5229 54.3727 58.16 53.219 59.1152 53.219C60.0704 53.219 62.7307 54.2367 65.4589 54.4403Z" fill="#EEEEEE"/>
<path d="M55.628 47.1319C57.5335 46.1101 58.5665 46.2054 59.4783 46.2876C59.7681 46.3137 60.0423 46.334 60.3198 46.3324C61.9438 46.2958 63.2592 45.6151 63.8411 44.9564C63.9079 44.8746 63.9402 44.7702 63.9313 44.6652C63.9224 44.5602 63.873 44.4627 63.7934 44.3931C63.7138 44.3235 63.6102 44.2873 63.5044 44.292C63.3986 44.2966 63.2986 44.3419 63.2256 44.4182C62.777 44.9263 61.6712 45.4873 60.3009 45.5182C60.0554 45.5256 59.8091 45.5011 59.5537 45.4775C58.5755 45.3872 57.3608 45.2764 55.2391 46.4154C54.6948 46.7077 53.9483 46.816 53.1395 46.8975C51.3412 44.3157 52.4233 42.0669 52.7327 41.5311C52.7631 41.5327 52.7925 41.5425 52.8236 41.5425C53.151 41.5425 53.4801 41.4627 53.778 41.295C53.8688 41.2401 53.9345 41.1521 53.9612 41.0498C53.9881 40.9476 53.9737 40.8389 53.9214 40.7469C53.8691 40.6549 53.7829 40.5867 53.681 40.5568C53.579 40.5269 53.4694 40.5376 53.3753 40.5866C53.1178 40.7276 52.8163 40.7668 52.531 40.6963C52.2458 40.6259 51.9977 40.4509 51.8364 40.2065C51.7755 40.1211 51.6839 40.0623 51.5807 40.0423C51.4774 40.0223 51.3704 40.0427 51.2817 40.0992C51.1931 40.1557 51.1299 40.2439 51.1049 40.3456C51.08 40.4472 51.0955 40.5546 51.148 40.6453C51.342 40.9473 51.6154 41.1745 51.924 41.3268C51.4976 42.1881 50.688 44.4533 52.2285 46.9862C51.1447 47.092 50.0594 47.2443 49.2098 47.789C48.6128 48.1784 48.0919 48.6726 47.6726 49.2472C47.1577 49.1593 45.2726 48.6976 44.9435 46.6165C45.1481 46.4586 45.3135 46.2501 45.4158 45.9929C45.4356 45.9432 45.4453 45.8901 45.4445 45.8366C45.4437 45.7831 45.4322 45.7304 45.4108 45.6813C45.3894 45.6322 45.3586 45.5878 45.32 45.5506C45.2814 45.5135 45.2358 45.4841 45.1858 45.4645C45.1358 45.4448 45.0824 45.4352 45.0287 45.436C44.9749 45.4368 44.9219 45.4482 44.8726 45.4694C44.8232 45.4907 44.7785 45.5214 44.7412 45.5598C44.7038 45.5982 44.6743 45.6436 44.6546 45.6933C44.6237 45.7789 44.5745 45.8569 44.5103 45.9217C44.4462 45.9865 44.3685 46.0366 44.283 46.0686C44.1962 46.0971 44.1044 46.1068 44.0136 46.097C43.9228 46.0871 43.8351 46.058 43.7566 46.0116C43.7096 45.9857 43.658 45.9691 43.6046 45.963C43.5512 45.9569 43.4971 45.9613 43.4454 45.9759C43.341 46.0055 43.2527 46.0752 43.2001 46.1695C43.1473 46.2639 43.1343 46.3753 43.1641 46.4791C43.1939 46.5829 43.2639 46.6708 43.3588 46.7232C43.5913 46.8518 43.8401 46.917 44.0873 46.917C44.1176 46.917 44.1463 46.9032 44.1765 46.9015C44.5662 48.8662 46.1271 49.7293 47.2314 49.9906C47.0869 50.2967 46.9953 50.6248 46.9604 50.9611C46.9508 51.0686 46.9846 51.1755 47.0543 51.2583C47.124 51.341 47.2239 51.3929 47.332 51.4024L47.3688 51.404C47.4711 51.404 47.5698 51.3659 47.6452 51.2972C47.7206 51.2284 47.7675 51.1341 47.7765 51.0328C47.8649 50.0452 48.8119 49.0135 49.6534 48.4721C50.4425 47.9665 51.5974 47.8599 52.7156 47.7564C53.8001 47.6579 54.8249 47.5635 55.628 47.1319ZM66.1593 45.9074C66.1072 46.0022 66.0951 46.1137 66.1256 46.2174C66.1561 46.3211 66.2269 46.4084 66.3221 46.4602C66.4175 46.512 66.5295 46.5241 66.6338 46.4937C66.738 46.4634 66.8258 46.393 66.878 46.2982C66.8935 46.2706 68.3857 43.49 65.592 41.6215C65.502 41.5612 65.3915 41.5391 65.2849 41.5599C65.1784 41.5806 65.0845 41.6426 65.0239 41.7322C64.9634 41.8218 64.9411 41.9317 64.962 42.0377C64.9828 42.1437 65.0451 42.237 65.1353 42.2973C67.2995 43.7449 66.2067 45.8195 66.1593 45.9074ZM49.1934 39.3336C49.2583 39.3337 49.3223 39.3183 49.3801 39.2889C49.4379 39.2594 49.4878 39.2167 49.5257 39.1642C50.7126 37.522 52.3562 38.0839 52.4258 38.1099C52.5266 38.143 52.6364 38.1358 52.732 38.0899C52.8276 38.044 52.9015 37.9629 52.9382 37.8638C52.9748 37.7647 52.9714 37.6553 52.9284 37.5587C52.8855 37.4621 52.8066 37.3859 52.7082 37.3462C51.9224 37.0563 50.1077 36.9652 48.861 38.6896C48.8173 38.7504 48.7913 38.8221 48.7857 38.8966C48.7801 38.9712 48.7954 39.0459 48.8298 39.1124C48.8641 39.1789 48.9162 39.2348 48.9803 39.2738C49.0445 39.3129 49.1182 39.3335 49.1934 39.3336ZM59.8933 37.7965C61.7146 37.6491 62.5429 38.9623 62.5806 39.0242C62.6357 39.1174 62.7257 39.185 62.8308 39.2122C62.8829 39.2256 62.9371 39.2288 62.9903 39.2214C63.0436 39.214 63.0949 39.1962 63.1413 39.1691C63.1877 39.1421 63.2283 39.1061 63.2607 39.0634C63.2931 39.0207 63.3168 38.9721 63.3303 38.9203C63.3438 38.8685 63.347 38.8146 63.3395 38.7616C63.3321 38.7086 63.3143 38.6575 63.287 38.6114C63.2428 38.5373 62.1901 36.8056 59.8295 36.9847C59.7759 36.9889 59.7237 37.0035 59.6757 37.0277C59.6279 37.052 59.5852 37.0854 59.5503 37.126C59.4798 37.2081 59.4449 37.3147 59.4533 37.4223C59.4618 37.5299 59.5129 37.6299 59.5955 37.7C59.678 37.7702 59.7851 37.8048 59.8933 37.7965ZM67.3829 49.6926C67.1816 49.6812 66.9598 49.8399 66.9418 50.0646C66.9402 50.0794 66.81 51.4643 65.3784 51.9325C65.2848 51.9617 65.2049 52.0235 65.1533 52.1065C65.1017 52.1895 65.082 52.2883 65.0975 52.3846C65.1132 52.481 65.1631 52.5685 65.2383 52.6313C65.3134 52.694 65.4088 52.7277 65.5069 52.7263C65.5503 52.7263 65.5934 52.7194 65.6346 52.7059C67.5762 52.0725 67.7513 50.2112 67.7579 50.1322C67.7623 50.0789 67.7562 50.0251 67.7398 49.9742C67.7233 49.9231 67.697 49.8759 67.6622 49.8351C67.6273 49.7942 67.5847 49.7606 67.5368 49.7361C67.4889 49.7117 67.4366 49.6969 67.3829 49.6926Z" fill="#4C4C4C"/>
<path d="M47.126 45.7366C47.1099 45.7888 47.1045 45.8437 47.1102 45.8981C47.1159 45.9524 47.1325 46.0051 47.1591 46.0529C47.1857 46.1007 47.2216 46.1427 47.2649 46.1764C47.3082 46.2101 47.3578 46.2348 47.4108 46.249C47.4638 46.2632 47.5192 46.2666 47.5736 46.2591C47.628 46.2516 47.6803 46.2333 47.7274 46.2052C47.7746 46.1771 47.8156 46.14 47.8479 46.0958C47.8803 46.0517 47.9034 46.0015 47.9158 45.9483C47.9946 45.6662 48.1779 45.4242 48.4288 45.271C48.6797 45.1179 48.9795 45.0649 49.2681 45.1227C49.3207 45.1336 49.375 45.1342 49.4278 45.1243C49.4806 45.1144 49.531 45.0942 49.576 45.065C49.621 45.0357 49.6597 44.998 49.6901 44.9538C49.7204 44.9096 49.7416 44.8599 49.7526 44.8076C49.7637 44.7553 49.7642 44.7013 49.7542 44.6487C49.7443 44.5962 49.7241 44.5461 49.6947 44.5014C49.6653 44.4566 49.6272 44.418 49.5829 44.3879C49.5384 44.3577 49.4885 44.3365 49.4359 44.3256C49.0953 44.2567 48.7422 44.2809 48.4144 44.3956C47.4599 42.7721 47.6457 41.1714 47.6482 41.1543C47.6626 41.0473 47.6337 40.939 47.5678 40.8532C47.502 40.7674 47.4046 40.7111 47.2971 40.6968C47.1898 40.6831 47.0815 40.7118 46.9954 40.7768C46.9094 40.8419 46.8525 40.938 46.837 41.0444C46.8264 41.1233 46.6078 42.9301 47.7071 44.8011C47.4274 45.0511 47.2257 45.3759 47.126 45.7366ZM56.2764 43.7255C56.4399 43.5778 56.6534 43.497 56.8743 43.4993C57.0952 43.5015 57.307 43.5868 57.4674 43.7377C57.5453 43.8129 57.6501 43.8542 57.7586 43.8524C57.8672 43.8508 57.9706 43.8063 58.0461 43.7288C58.1217 43.6513 58.1634 43.5472 58.1619 43.4393C58.1603 43.3313 58.1158 43.2284 58.038 43.1532C57.8531 42.9781 57.6297 42.8485 57.3856 42.7746C57.6279 41.9473 57.5321 41.5802 57.307 40.8922C57.2624 40.7576 57.2196 40.6223 57.1785 40.4867L57.1539 40.4052C56.8559 39.4217 56.6586 38.7728 57.2251 37.8568C57.282 37.7648 57.2998 37.6541 57.2746 37.5491C57.2495 37.444 57.1834 37.3532 57.0909 37.2966C56.9984 37.2401 56.8871 37.2224 56.7815 37.2474C56.6759 37.2725 56.5846 37.3382 56.5277 37.4302C55.7681 38.658 56.0472 39.5772 56.3706 40.6414L56.3951 40.7228C56.4431 40.8802 56.4876 41.0205 56.5285 41.1438C56.7307 41.7634 56.7921 41.9709 56.5449 42.72C56.2355 42.775 55.9484 42.9175 55.7182 43.1304C55.6416 43.2047 55.5975 43.3058 55.5949 43.4122C55.5924 43.5185 55.6319 43.6216 55.7048 43.6993C55.7778 43.7771 55.8784 43.8234 55.9853 43.8283C56.0921 43.8332 56.1966 43.7963 56.2764 43.7255ZM61.4864 41.2952C61.7295 41.2959 61.9697 41.2428 62.1896 41.1396C62.2878 41.0936 62.3636 41.0108 62.4004 40.9091C62.4372 40.8075 62.4319 40.6955 62.3856 40.5978C62.3394 40.5001 62.256 40.4247 62.1538 40.3881C62.0516 40.3515 61.9391 40.3568 61.8408 40.4028C61.6397 40.4947 61.411 40.5073 61.2009 40.4383C60.9907 40.3693 60.8146 40.2236 60.708 40.0307C60.6837 39.9818 60.6497 39.9383 60.6081 39.9026C60.5665 39.8671 60.5182 39.8401 60.466 39.8235C60.4137 39.8069 60.3586 39.8009 60.304 39.8058C60.2493 39.8108 60.1962 39.8266 60.1478 39.8524C60.0995 39.8781 60.0569 39.9133 60.0225 39.9558C59.988 39.9983 59.9625 40.0473 59.9475 40.0998C59.9325 40.1523 59.9283 40.2072 59.935 40.2614C59.9418 40.3155 59.9594 40.3678 59.9869 40.415C60.1342 40.6886 60.3535 40.9043 60.6089 41.0542C60.1694 42.1167 60.4191 43.2452 60.6229 43.8436C60.6385 43.8961 60.6645 43.9449 60.6995 43.9872C60.7345 44.0295 60.7778 44.0643 60.8267 44.0895C60.8754 44.1148 60.9289 44.13 60.9838 44.1342C61.0387 44.1384 61.0939 44.1316 61.1461 44.1141C61.1982 44.0967 61.2463 44.0689 61.2874 44.0324C61.3286 43.9961 61.3619 43.9518 61.3854 43.9023C61.4089 43.8528 61.4222 43.799 61.4244 43.7444C61.4265 43.6897 61.4176 43.635 61.398 43.5839C61.2605 43.1784 60.9937 42.1541 61.3964 41.2829C61.4275 41.2846 61.4562 41.2952 61.4864 41.2952ZM65.4129 48.9722C65.4099 48.9187 65.3961 48.8664 65.3725 48.8183C65.3489 48.7701 65.3159 48.7272 65.2755 48.6917C65.2351 48.6564 65.188 48.6293 65.137 48.6122C65.0859 48.5951 65.032 48.5882 64.9784 48.5919C64.7821 48.6054 64.585 48.5802 64.3986 48.5178C64.2122 48.4554 64.0399 48.3569 63.8919 48.2281C63.7438 48.0992 63.6227 47.9426 63.5357 47.767C63.4486 47.5915 63.3973 47.4007 63.3846 47.2054C63.3752 47.0984 63.3245 46.9992 63.2432 46.9287C63.1618 46.8581 63.0562 46.8216 62.9483 46.8268C62.8947 46.8304 62.8423 46.8445 62.7941 46.8683C62.7459 46.892 62.703 46.925 62.6677 46.9653C62.6323 47.0056 62.6053 47.0525 62.5881 47.1032C62.571 47.1538 62.5641 47.2074 62.5677 47.2608C62.6013 47.7412 62.7854 48.1743 63.0654 48.5268C62.4073 49.2971 61.5454 49.5161 61.0649 49.5722C60.64 49.6227 60.2685 49.5795 59.8387 49.5291C59.445 49.4843 58.9997 49.4331 58.4488 49.4493L58.4447 49.4501C58.4284 49.2173 58.3727 48.8777 58.1951 48.5952C58.134 48.5116 58.0433 48.4541 57.9412 48.4344C57.8392 48.4148 57.7335 48.4343 57.6454 48.4893C57.5573 48.5442 57.4935 48.6303 57.4669 48.7302C57.4402 48.8301 57.4527 48.9364 57.5018 49.0276C57.6115 49.2026 57.6319 49.4819 57.6319 49.6179C57.2194 49.7652 56.8625 49.9818 56.54 50.1911C55.9638 50.5639 55.5095 50.8587 54.826 50.7056C54.2071 50.5648 53.5875 50.5362 53.062 50.6095C52.9801 50.4052 52.8508 50.1609 52.6511 49.9728C52.5722 49.8986 52.4669 49.8587 52.3584 49.8618C52.2499 49.8648 52.1469 49.9106 52.0724 49.9891C51.9978 50.0676 51.9576 50.1723 51.9607 50.2803C51.9638 50.3883 52.0099 50.4906 52.0887 50.5648C52.1592 50.6307 52.2148 50.7268 52.2598 50.8229C51.357 51.1925 50.9043 51.8105 50.883 51.8406C50.8396 51.9014 50.8139 51.9729 50.8086 52.0473C50.8033 52.1217 50.8187 52.1961 50.8531 52.2623C50.8876 52.3286 50.9396 52.3841 51.0037 52.4229C51.0677 52.4617 51.1412 52.4822 51.2162 52.4822C51.2809 52.4825 51.3448 52.4675 51.4026 52.4384C51.4603 52.4095 51.5103 52.3672 51.5485 52.3153C51.5526 52.3087 52.002 51.7103 52.8885 51.4685C53.3469 51.3431 54.0042 51.3537 54.6451 51.4986C54.8243 51.5394 54.9905 51.5531 55.1518 51.5556C55.2279 51.7331 55.2574 51.944 55.2614 52.0222C55.2673 52.126 55.3129 52.2236 55.3889 52.2951C55.4647 52.3665 55.5654 52.4064 55.6699 52.4065L55.692 52.4056C55.8 52.4 55.9013 52.352 55.9739 52.2722C56.0465 52.1924 56.0843 52.0873 56.0792 51.9798C56.0657 51.7901 56.0299 51.6027 55.9727 51.4213C56.3501 51.2853 56.6783 51.0728 56.987 50.8734C57.4551 50.5697 57.898 50.2823 58.4767 50.2635C58.9612 50.2464 59.3607 50.2928 59.7462 50.3376C60.1342 50.3823 60.5157 50.4117 60.9364 50.3872C61.0108 50.5933 61.0052 50.8684 60.9937 50.9604C60.9867 51.0178 60.9921 51.0759 61.0093 51.1311C61.0266 51.1861 61.0554 51.237 61.0938 51.2804C61.1322 51.3236 61.1794 51.3584 61.2322 51.3822C61.2851 51.4061 61.3424 51.4185 61.4005 51.4189C61.4997 51.4187 61.5955 51.3827 61.67 51.3175C61.7446 51.2524 61.7927 51.1625 61.8057 51.0646C61.8354 50.7977 61.819 50.5275 61.7573 50.266C62.5042 50.0688 63.1734 49.6513 63.6769 49.0683C64.0825 49.318 64.5563 49.4355 65.0323 49.4045C65.1404 49.3972 65.2411 49.3476 65.3125 49.2665C65.3838 49.1856 65.4199 49.0797 65.4129 48.9722Z" fill="#4C4C4C"/>
<defs>
<linearGradient id="paint0_linear_4810_7602" x1="-0.69185" y1="119.263" x2="132.204" y2="119.263" gradientUnits="userSpaceOnUse">
<stop stop-color="#737373" stop-opacity="0.11"/>
<stop offset="1" stop-color="#D9D9D9" stop-opacity="0.2"/>
</linearGradient>
<linearGradient id="paint1_linear_4810_7602" x1="-0.695432" y1="119.264" x2="132.201" y2="119.264" gradientUnits="userSpaceOnUse">
<stop stop-color="#737373" stop-opacity="0.11"/>
<stop offset="1" stop-color="#D9D9D9" stop-opacity="0.2"/>
</linearGradient>
<radialGradient id="paint2_radial_4810_7602" cx="0" cy="0" r="1" gradientUnits="userSpaceOnUse" gradientTransform="translate(nan nan) rotate(nan) scale(nan nan)">
<stop stop-color="#389D2D" stop-opacity="0"/>
<stop offset="1" stop-color="#389D2D"/>
</radialGradient>
<radialGradient id="paint3_radial_4810_7602" cx="0" cy="0" r="1" gradientUnits="userSpaceOnUse" gradientTransform="translate(nan nan) rotate(nan) scale(nan nan)">
<stop stop-color="#389D2D" stop-opacity="0"/>
<stop offset="1" stop-color="#389D2D"/>
</radialGradient>
<radialGradient id="paint4_radial_4810_7602" cx="0" cy="0" r="1" gradientUnits="userSpaceOnUse" gradientTransform="translate(nan nan) rotate(nan) scale(nan nan)">
<stop stop-color="#389D2D" stop-opacity="0"/>
<stop offset="1" stop-color="#389D2D"/>
</radialGradient>
<radialGradient id="paint5_radial_4810_7602" cx="0" cy="0" r="1" gradientUnits="userSpaceOnUse" gradientTransform="translate(nan nan) rotate(nan) scale(nan nan)">
<stop stop-color="#389D2D" stop-opacity="0"/>
<stop offset="1" stop-color="#389D2D"/>
</radialGradient>
<linearGradient id="paint6_linear_4810_7602" x1="32.7689" y1="23.4126" x2="78.8259" y2="69.7155" gradientUnits="userSpaceOnUse">
<stop/>
<stop offset="1" stop-color="#666666"/>
</linearGradient>
<linearGradient id="paint7_linear_4810_7602" x1="32.7689" y1="23.4126" x2="78.8259" y2="69.7155" gradientUnits="userSpaceOnUse">
<stop/>
<stop offset="1" stop-color="#666666"/>
</linearGradient>
</defs>
</svg>
