<svg width="581" height="435" viewBox="0 0 581 435" fill="none" xmlns="http://www.w3.org/2000/svg">
<path d="M337.876 133.518C337.848 131.462 336.743 129.573 334.966 128.547L271.265 91.7424C267.37 89.4922 261.131 89.4213 257.09 91.5309L256.707 91.7424L191.848 130.305C190.082 131.354 189 133.259 189 135.316V218.82L189.009 219.259C189.205 223.816 192.385 229.187 196.279 231.438L259.945 268.221C261.732 269.254 263.929 269.26 265.72 268.239L331.721 230.63C335.615 228.379 338.795 223.008 338.991 218.45L339 218.012L337.876 133.518Z" fill="#F9F9F9"/>
<path d="M76.5197 22.085H5.90387C2.96901 22.085 0.589844 24.46 0.589844 27.3898V97.8841C0.589844 100.814 2.96901 103.189 5.90387 103.189H76.5197C79.4545 103.189 81.8337 100.814 81.8337 97.8841V27.3898C81.8337 24.46 79.4545 22.085 76.5197 22.085Z" stroke="#A7A7A7" stroke-dasharray="12 12"/>
<path d="M87.9689 128.435H17.3531C14.4182 128.435 12.0391 130.81 12.0391 133.739V204.234C12.0391 207.164 14.4182 209.539 17.3531 209.539H87.9689C90.9038 209.539 93.2829 207.164 93.2829 204.234V133.739C93.2829 130.81 90.9038 128.435 87.9689 128.435Z" stroke="#A7A7A7" stroke-dasharray="12 12"/>
<path d="M528.375 92.7979H457.759C454.824 92.7979 452.445 90.4228 452.445 87.493V16.9987C452.445 14.0689 454.824 11.6938 457.759 11.6938H528.375C531.31 11.6938 533.689 14.0689 533.689 16.9987V87.493C533.689 90.4228 531.31 92.7979 528.375 92.7979Z" stroke="#A7A7A7" stroke-dasharray="12 12"/>
<path d="M429.845 435H243.264C240.003 435 237.359 432.361 237.359 429.106V393.74C237.359 390.485 240.003 387.846 243.264 387.846H429.845C433.106 387.846 435.75 390.485 435.75 393.74V429.106C435.75 432.361 433.106 435 429.845 435Z" fill="#EEEEEE"/>
<path d="M575.096 295.305H455.826C452.891 295.305 450.512 292.93 450.512 290V254.634C450.512 251.704 452.891 249.329 455.826 249.329H575.096C578.031 249.329 580.41 251.704 580.41 254.634V290C580.41 292.93 578.031 295.305 575.096 295.305Z" stroke="#A7A7A7" stroke-dasharray="12 12"/>
<path d="M517.535 196.723H446.919C443.985 196.723 441.605 194.348 441.605 191.418V120.924C441.605 117.994 443.985 115.619 446.919 115.619H517.535C520.47 115.619 522.849 117.994 522.849 120.924V191.418C522.849 194.348 520.47 196.723 517.535 196.723Z" stroke="#A7A7A7" stroke-dasharray="12 12"/>
<path d="M145.912 190.809V47.2454C145.912 45.9434 144.855 44.8877 143.55 44.8877H101.943M145.912 190.809V384.1C145.912 385.402 144.855 386.458 143.55 386.458H98.082M145.912 190.809H178.01" stroke="#A7A7A7"/>
<path d="M378.067 190.809V47.2454C378.067 45.9434 379.124 44.8877 380.428 44.8877H418.621M378.067 190.809H347.265M378.067 190.809V272.907M378.067 272.907V308.862C378.067 310.164 377.01 311.22 375.705 311.22H332.42C331.115 311.22 330.059 312.275 330.059 313.577V351.301M378.067 272.907H397.37" stroke="#A7A7A7"/>
<path d="M259.687 101.502L203.204 134.057C200.662 135.521 200.662 137.897 203.204 139.361L257.946 170.913C260.488 172.378 264.609 172.377 267.15 170.913L323.633 138.358C326.175 136.893 326.175 134.518 323.633 133.053L268.891 101.502C266.349 100.037 262.228 100.037 259.687 101.502Z" stroke="#DDDDDD"/>
<path fill-rule="evenodd" clip-rule="evenodd" d="M254.834 91.6958C259.834 88.8189 267.942 88.8189 272.942 91.6958L336.27 128.129C338.076 129.168 339.199 131.079 339.226 133.157L340.344 216.81C340.344 222.563 336.29 229.56 331.289 232.437L265.674 269.668C263.854 270.701 261.622 270.694 259.808 269.65L196.515 233.238C191.515 230.36 187.461 223.364 187.461 217.611L187.463 134.939C187.463 132.859 188.563 130.931 190.355 129.87L254.834 91.6958ZM271.132 92.7375L334.46 129.171C336.264 130.21 337.387 132.12 337.416 134.199L338.533 217.851L338.524 218.286C338.33 222.801 335.165 228.124 331.289 230.353L265.674 267.584C263.854 268.618 261.622 268.611 259.808 267.567L196.515 231.153C192.64 228.924 189.474 223.602 189.281 219.087L189.272 218.652V135.982C189.272 133.9 190.372 131.973 192.164 130.911L256.645 92.7375L257.026 92.528C261.048 90.4378 267.256 90.5079 271.132 92.7375Z" fill="url(#paint0_linear_249_5)"/>
<path fill-rule="evenodd" clip-rule="evenodd" d="M254.834 91.6958C259.834 88.8189 267.942 88.8189 272.942 91.6958L336.27 128.129C338.076 129.168 339.199 131.079 339.226 133.157L340.344 216.81C340.344 222.563 336.29 229.56 331.289 232.437L265.674 269.668C263.854 270.701 261.622 270.694 259.808 269.65L196.515 233.238C191.515 230.36 187.461 223.364 187.461 217.611L187.463 134.939C187.463 132.859 188.563 130.931 190.355 129.87L254.834 91.6958ZM271.132 92.7375L334.46 129.171C336.264 130.21 337.387 132.12 337.416 134.199L338.533 217.851L338.524 218.286C338.33 222.801 335.165 228.124 331.289 230.353L265.674 267.584C263.854 268.618 261.622 268.611 259.808 267.567L196.515 231.153C192.64 228.924 189.474 223.602 189.281 219.087L189.272 218.652V135.982C189.272 133.9 190.372 131.973 192.164 130.911L256.645 92.7375L257.026 92.528C261.048 90.4378 267.256 90.5079 271.132 92.7375Z" fill="black" fill-opacity="0.2"/>
<path d="M261.306 229.721C260.526 229.721 259.854 229.461 259.292 228.943C258.729 228.423 258.39 227.789 258.273 227.039L257.884 224.185C257.508 224.041 257.154 223.868 256.823 223.666C256.491 223.463 256.165 223.248 255.847 223.017L253.161 224.141C252.438 224.458 251.717 224.488 250.994 224.228C250.273 223.968 249.709 223.507 249.304 222.843L247.269 219.297C246.863 218.634 246.749 217.927 246.921 217.178C247.095 216.428 247.485 215.808 248.092 215.319L250.387 213.588C250.359 213.387 250.345 213.191 250.345 213.003V211.835C250.345 211.649 250.359 211.454 250.387 211.253L248.092 209.522C247.485 209.032 247.095 208.412 246.921 207.663C246.749 206.913 246.863 206.206 247.269 205.544L249.304 201.996C249.709 201.334 250.273 200.872 250.994 200.612C251.717 200.353 252.438 200.381 253.161 200.7L255.847 201.823C256.164 201.593 256.497 201.376 256.843 201.175C257.19 200.973 257.536 200.8 257.884 200.656L258.273 197.801C258.389 197.051 258.728 196.417 259.292 195.898C259.856 195.379 260.528 195.12 261.306 195.12H265.379C266.158 195.12 266.83 195.379 267.395 195.898C267.958 196.417 268.297 197.051 268.411 197.801L268.801 200.656C269.176 200.8 269.531 200.973 269.864 201.175C270.197 201.376 270.522 201.593 270.838 201.823L273.525 200.7C274.246 200.381 274.968 200.353 275.69 200.612C276.412 200.872 276.975 201.334 277.38 201.996L279.416 205.544C279.821 206.206 279.937 206.913 279.763 207.663C279.59 208.412 279.2 209.032 278.593 209.522L276.297 211.253C276.326 211.454 276.34 211.649 276.34 211.837V213.003C276.34 213.191 276.311 213.387 276.254 213.588L278.549 215.319C279.156 215.808 279.546 216.428 279.72 217.178C279.893 217.927 279.777 218.634 279.374 219.297L277.293 222.843C276.889 223.507 276.326 223.968 275.604 224.228C274.881 224.488 274.16 224.458 273.437 224.141L270.838 223.017C270.52 223.248 270.187 223.463 269.841 223.666C269.494 223.868 269.148 224.041 268.801 224.185L268.411 227.039C268.296 227.789 267.957 228.423 267.395 228.943C266.831 229.461 266.159 229.721 265.379 229.721H261.306ZM263.429 218.476C265.105 218.476 266.534 217.884 267.718 216.703C268.903 215.52 269.494 214.093 269.494 212.42C269.494 210.748 268.903 209.321 267.718 208.138C266.534 206.956 265.105 206.365 263.429 206.365C261.725 206.365 260.288 206.956 259.118 208.138C257.946 209.321 257.362 210.748 257.363 212.42C257.364 214.093 257.95 215.52 259.119 216.703C260.288 217.884 261.725 218.476 263.429 218.476Z" fill="#389D2D"/>
<path d="M261.519 4.58568L199.929 66.0692C197.854 68.1409 197.854 71.4997 199.929 73.5714L261.519 135.055C263.594 137.127 266.959 137.127 269.034 135.055L330.624 73.5714C332.699 71.4997 332.699 68.1409 330.624 66.0692L269.034 4.58568C266.959 2.514 263.594 2.514 261.519 4.58568Z" fill="url(#paint1_linear_249_5)" stroke="url(#paint2_linear_249_5)"/>
<path d="M261.602 12.7313L208.172 66.0692C206.096 68.1409 206.096 71.4997 208.172 73.5714L261.602 126.909C263.677 128.981 267.041 128.981 269.117 126.909L322.547 73.5714C324.622 71.4997 324.622 68.1409 322.547 66.0692L269.117 12.7313C267.041 10.6596 263.677 10.6596 261.602 12.7313Z" stroke="#A7A7A7" stroke-opacity="0.3"/>
<path d="M280.104 81.3408C280.108 81.6901 280.018 82.1468 279.923 82.5232C279.267 85.1707 276.351 88.1415 272.249 87.8712C268.529 87.6269 265.5 85.8446 265.5 83.3452C265.5 80.8459 268.522 78.8193 272.249 78.8193C275.975 78.8193 280.081 78.8415 280.104 81.3408Z" fill="#F9F9F9"/>
<path d="M272.246 79.2383C270.245 79.2383 265.676 79.7913 264.627 79.7913C262.776 79.7913 261.273 80.9514 261.273 82.3831C261.273 83.0718 261.627 83.6939 262.193 84.158C262.193 84.158 263.437 85.4034 265.677 84.8059C266.658 84.5443 268.253 82.6016 271.061 82.2931C272.459 82.1388 275.079 83.2187 279.684 83.2447C279.881 82.8201 279.922 82.5251 279.922 82.5251C279.922 80.0233 275.973 79.2383 272.246 79.2383Z" fill="#A9A9A9"/>
<path d="M279.922 82.5218C279.922 82.5218 282.623 81.975 284.302 79.7707C286.259 77.1998 286.001 74.4486 286.001 74.4486C287.985 70.7459 285.384 67.2741 285.384 67.2741C285.125 63.3652 282.704 61.7458 282.704 61.7458C281.133 58.0172 277.656 57.015 277.656 57.015C274.927 53.8269 270.084 53.9293 270.084 53.9293C270.084 53.9293 265.546 52.2693 259.318 54.1355C258.287 54.444 254.835 55.1636 252.311 56.7064C244.354 61.5693 243.751 69.1526 243.862 70.3855C244.48 77.2763 249.323 78.5105 252.413 79.2301C253.135 81.1839 255.787 84.7842 260.552 83.4476C266.426 82.4194 268.899 80.6705 270.34 80.6705C271.783 80.6705 275.802 82.2133 279.922 82.5218Z" fill="#EEEEEE"/>
<path d="M265.064 71.4431C267.943 69.8941 269.503 70.0385 270.88 70.1632C271.318 70.2027 271.733 70.2334 272.152 70.231C274.605 70.1754 276.591 69.1437 277.471 68.1452C277.571 68.0211 277.619 67.8629 277.606 67.7037C277.593 67.5445 277.518 67.3966 277.399 67.2912C277.278 67.1857 277.121 67.1308 276.962 67.1379C276.802 67.1451 276.651 67.2136 276.54 67.3293C275.863 68.0995 274.192 68.9499 272.122 68.9968C271.752 69.0079 271.38 68.9709 270.995 68.935C269.516 68.7981 267.682 68.6302 264.477 70.3569C263.655 70.8 262.528 70.9642 261.305 71.0875C258.589 67.1738 260.224 63.7648 260.691 62.9527C260.737 62.9552 260.782 62.97 260.828 62.97C261.323 62.97 261.82 62.8491 262.27 62.5948C262.407 62.5114 262.506 62.3781 262.546 62.2231C262.588 62.0681 262.565 61.9034 262.487 61.7639C262.408 61.6243 262.277 61.5211 262.124 61.4757C261.97 61.4304 261.804 61.4467 261.662 61.521C261.273 61.7347 260.818 61.7941 260.387 61.6873C259.956 61.5804 259.581 61.3151 259.338 60.9446C259.246 60.8152 259.108 60.726 258.952 60.6957C258.795 60.6656 258.633 60.6963 258.5 60.782C258.366 60.8676 258.27 61.0014 258.233 61.1555C258.195 61.3097 258.219 61.4724 258.298 61.6098C258.59 62.0677 259.004 62.4121 259.47 62.6429C258.826 63.9487 257.603 67.3824 259.93 71.2222C258.293 71.3826 256.654 71.6134 255.37 72.4391C254.468 73.0295 253.682 73.7785 253.049 74.6496C252.27 74.5164 249.423 73.8165 248.926 70.6617C249.235 70.4223 249.485 70.1064 249.639 69.7164C249.669 69.641 249.684 69.5604 249.683 69.4794C249.682 69.3983 249.664 69.3184 249.632 69.244C249.599 69.1696 249.553 69.1023 249.495 69.0459C249.436 68.9895 249.368 68.9452 249.292 68.9154C249.217 68.8855 249.136 68.8708 249.055 68.8721C248.973 68.8734 248.893 68.8906 248.819 68.9228C248.744 68.9551 248.677 69.0015 248.62 69.0598C248.564 69.118 248.52 69.1867 248.489 69.2622C248.443 69.392 248.369 69.5101 248.272 69.6083C248.175 69.7066 248.058 69.7827 247.928 69.8311C247.797 69.8744 247.659 69.889 247.522 69.874C247.384 69.8592 247.252 69.8151 247.133 69.7447C247.063 69.7053 246.985 69.6803 246.903 69.671C246.823 69.6617 246.741 69.6684 246.663 69.6906C246.505 69.7355 246.372 69.8411 246.293 69.9841C246.214 70.1272 246.193 70.296 246.238 70.4534C246.283 70.6108 246.389 70.7439 246.532 70.8235C246.883 71.0185 247.26 71.1172 247.633 71.1172C247.679 71.1172 247.722 71.0963 247.768 71.0938C248.356 74.0719 250.714 75.3802 252.381 75.7765C252.164 76.2405 252.025 76.7378 251.973 77.2477C251.959 77.4107 252.009 77.5728 252.114 77.6982C252.22 77.8237 252.371 77.9022 252.534 77.9167L252.589 77.9192C252.744 77.9192 252.893 77.8613 253.007 77.7572C253.121 77.653 253.191 77.51 253.206 77.3564C253.339 75.8592 254.769 74.2953 256.04 73.4746C257.232 72.7081 258.977 72.5465 260.665 72.3897C262.303 72.2403 263.851 72.0972 265.064 71.4431ZM280.972 69.5867C280.893 69.7304 280.875 69.8995 280.921 70.0566C280.967 70.2138 281.074 70.3463 281.218 70.4248C281.362 70.5034 281.531 70.5217 281.689 70.4756C281.846 70.4295 281.978 70.3229 282.057 70.1792C282.081 70.1373 284.334 65.9222 280.115 63.0897C279.979 62.9984 279.812 62.9647 279.651 62.9962C279.49 63.0277 279.348 63.1217 279.257 63.2575C279.165 63.3935 279.132 63.5599 279.163 63.7206C279.195 63.8813 279.289 64.0227 279.425 64.1141C282.694 66.3085 281.043 69.4534 280.972 69.5867ZM255.345 59.6214C255.443 59.6214 255.54 59.5982 255.628 59.5535C255.715 59.509 255.791 59.4443 255.847 59.3647C257.64 56.8753 260.122 57.7269 260.227 57.7664C260.38 57.8166 260.546 57.8058 260.69 57.7361C260.834 57.6665 260.946 57.5436 261.002 57.3934C261.057 57.2432 261.051 57.0773 260.987 56.9309C260.922 56.7845 260.802 56.669 260.655 56.6086C259.468 56.1693 256.726 56.0311 254.844 58.6452C254.777 58.7374 254.738 58.846 254.73 58.959C254.721 59.0721 254.744 59.1853 254.796 59.2862C254.848 59.387 254.926 59.4716 255.023 59.5308C255.121 59.59 255.232 59.6213 255.345 59.6214ZM271.507 57.2912C274.259 57.0678 275.509 59.0587 275.566 59.1525C275.65 59.2937 275.786 59.3962 275.944 59.4374C276.023 59.4578 276.104 59.4625 276.185 59.4513C276.266 59.4401 276.343 59.4133 276.413 59.3721C276.483 59.3311 276.545 59.2766 276.593 59.2119C276.643 59.1472 276.678 59.0734 276.698 58.9949C276.718 58.9164 276.724 58.8347 276.713 58.7543C276.702 58.674 276.675 58.5967 276.633 58.5266C276.566 58.4144 274.977 55.7892 271.41 56.0607C271.33 56.0669 271.251 56.0892 271.179 56.1259C271.107 56.1627 271.042 56.2134 270.989 56.2749C270.882 56.3994 270.829 56.5609 270.842 56.724C270.855 56.8873 270.933 57.0387 271.057 57.145C271.182 57.2515 271.344 57.304 271.507 57.2912ZM282.82 75.3247C282.515 75.3075 282.181 75.5481 282.154 75.8888C282.152 75.911 281.954 78.0105 279.792 78.7202C279.651 78.7645 279.53 78.8581 279.452 78.984C279.374 79.1099 279.345 79.2595 279.368 79.4056C279.392 79.5516 279.468 79.6844 279.581 79.7795C279.694 79.8746 279.838 79.9257 279.986 79.9236C280.052 79.9236 280.117 79.9131 280.18 79.8927C283.112 78.9324 283.376 76.111 283.386 75.9912C283.393 75.9104 283.383 75.8289 283.359 75.7516C283.334 75.6743 283.295 75.6026 283.242 75.5407C283.189 75.4788 283.125 75.4279 283.053 75.3907C282.98 75.3537 282.902 75.3313 282.82 75.3247Z" fill="#4C4C4C"/>
<path d="M252.22 69.328C252.195 69.4072 252.187 69.4905 252.195 69.5729C252.205 69.6551 252.23 69.735 252.27 69.8075C252.31 69.88 252.364 69.9436 252.429 69.9947C252.495 70.0458 252.57 70.0832 252.65 70.1048C252.73 70.1263 252.814 70.1315 252.896 70.1201C252.978 70.1088 253.058 70.081 253.128 70.0384C253.199 69.9958 253.262 69.9395 253.31 69.8725C253.359 69.8056 253.394 69.7295 253.413 69.6489C253.532 69.2212 253.809 68.8545 254.188 68.6223C254.567 68.3901 255.019 68.3097 255.455 68.3974C255.535 68.414 255.617 68.4149 255.697 68.3998C255.776 68.3848 255.853 68.3543 255.92 68.3098C255.988 68.2655 256.046 68.2082 256.092 68.1413C256.138 68.0744 256.17 67.9991 256.187 67.9197C256.203 67.8404 256.205 67.7586 256.189 67.6789C256.175 67.5992 256.144 67.5233 256.099 67.4555C256.055 67.3876 255.998 67.3291 255.931 67.2835C255.863 67.2378 255.788 67.2057 255.709 67.1891C255.194 67.0846 254.661 67.1213 254.165 67.2952C252.724 64.8341 253.004 62.4076 253.009 62.3817C253.03 62.2195 252.987 62.0553 252.887 61.9252C252.788 61.7951 252.641 61.7099 252.478 61.688C252.316 61.6673 252.153 61.7109 252.023 61.8095C251.893 61.908 251.807 62.0537 251.783 62.2151C251.767 62.3348 251.437 65.0736 253.098 67.9098C252.675 68.289 252.37 68.7811 252.22 69.328ZM266.041 66.2795C266.288 66.0555 266.611 65.933 266.944 65.9364C267.278 65.9398 267.598 66.0689 267.84 66.298C267.958 66.4119 268.116 66.4745 268.28 66.4719C268.443 66.4693 268.6 66.4018 268.714 66.2843C268.828 66.167 268.891 66.0092 268.889 65.8455C268.886 65.6818 268.819 65.5258 268.702 65.4117C268.422 65.1464 268.086 64.9498 267.716 64.8378C268.082 63.5839 267.938 63.0272 267.598 61.9843C267.531 61.7802 267.466 61.5752 267.403 61.3696L267.366 61.2462C266.916 59.7552 266.619 58.7715 267.474 57.383C267.56 57.2435 267.587 57.0758 267.549 56.9165C267.51 56.7572 267.411 56.6196 267.271 56.5338C267.131 56.4481 266.964 56.4212 266.804 56.4592C266.645 56.4972 266.507 56.5968 266.42 56.7362C265.274 58.5975 265.695 59.991 266.183 61.6041L266.221 61.7275C266.293 61.9661 266.36 62.1788 266.422 62.3657C266.728 63.3049 266.82 63.6196 266.446 64.7551C265.979 64.8384 265.545 65.0544 265.198 65.3772C265.083 65.4899 265.015 65.6431 265.012 65.8044C265.008 65.9655 265.067 66.1219 265.178 66.2397C265.288 66.3576 265.44 66.4278 265.601 66.4352C265.763 66.4426 265.921 66.3868 266.041 66.2795ZM273.911 62.5952C274.278 62.5964 274.641 62.5157 274.973 62.3594C275.121 62.2897 275.236 62.1641 275.291 62.01C275.347 61.8559 275.339 61.6862 275.269 61.5381C275.199 61.3899 275.073 61.2756 274.918 61.2202C274.765 61.1648 274.595 61.1728 274.446 61.2424C274.142 61.3817 273.796 61.4009 273.48 61.2963C273.162 61.1916 272.895 60.9708 272.735 60.6785C272.698 60.6043 272.647 60.5383 272.584 60.4843C272.521 60.4303 272.448 60.3895 272.369 60.3643C272.291 60.3391 272.207 60.33 272.124 60.3374C272.042 60.345 271.961 60.369 271.889 60.408C271.816 60.4472 271.751 60.5005 271.699 60.5649C271.647 60.6293 271.609 60.7035 271.586 60.783C271.563 60.8626 271.557 60.946 271.567 61.0281C271.577 61.1102 271.605 61.1894 271.646 61.2609C271.868 61.6757 272.2 62.0028 272.585 62.2299C271.921 63.8405 272.298 65.5512 272.606 66.4584C272.63 66.538 272.669 66.612 272.722 66.676C272.775 66.7402 272.84 66.7929 272.914 66.8312C272.987 66.8695 273.069 66.8925 273.152 66.899C273.234 66.9053 273.318 66.895 273.396 66.8684C273.475 66.842 273.548 66.7998 273.61 66.7447C273.672 66.6895 273.722 66.6224 273.759 66.5473C273.794 66.4723 273.814 66.3909 273.816 66.308C273.82 66.225 273.807 66.1423 273.777 66.0647C273.57 65.45 273.166 63.8974 273.775 62.5767C273.821 62.5791 273.865 62.5952 273.911 62.5952ZM279.841 74.2329C279.837 74.1518 279.817 74.0726 279.78 73.9996C279.745 73.9266 279.695 73.8614 279.634 73.8078C279.573 73.7542 279.501 73.7131 279.424 73.6872C279.348 73.6613 279.266 73.6508 279.185 73.6564C278.888 73.677 278.591 73.6388 278.31 73.5441C278.027 73.4494 277.768 73.3001 277.543 73.1049C277.32 72.9095 277.137 72.672 277.006 72.406C276.875 72.14 276.797 71.8507 276.778 71.5545C276.764 71.3924 276.687 71.242 276.564 71.1351C276.442 71.028 276.282 70.9726 276.119 70.9807C276.038 70.9861 275.959 71.0075 275.885 71.0435C275.813 71.0796 275.748 71.1295 275.695 71.1906C275.641 71.2518 275.601 71.3228 275.575 71.3996C275.549 71.4765 275.538 71.5576 275.544 71.6385C275.595 72.3666 275.872 73.0233 276.295 73.5578C275.302 74.7253 273.999 75.0574 273.274 75.1425C272.632 75.219 272.071 75.1536 271.422 75.0771C270.828 75.0092 270.154 74.9315 269.322 74.9561L269.316 74.9574C269.291 74.6044 269.207 74.0897 268.939 73.6614C268.847 73.5345 268.71 73.4474 268.556 73.4176C268.402 73.3878 268.241 73.4176 268.109 73.5008C267.976 73.5841 267.879 73.7146 267.839 73.866C267.799 74.0175 267.817 74.1787 267.892 74.3168C268.057 74.5822 268.089 75.0055 268.089 75.2116C267.466 75.435 266.926 75.7633 266.439 76.0805C265.569 76.6458 264.883 77.0926 263.85 76.8606C262.916 76.6471 261.979 76.6038 261.186 76.715C261.063 76.4052 260.867 76.0349 260.566 75.7497C260.446 75.6373 260.287 75.5768 260.123 75.5814C259.959 75.586 259.804 75.6554 259.691 75.7745C259.578 75.8934 259.518 76.0522 259.523 76.2159C259.528 76.3795 259.596 76.5346 259.715 76.6471C259.822 76.7471 259.907 76.8927 259.974 77.0384C258.61 77.5987 257.926 78.5354 257.894 78.5811C257.829 78.6733 257.791 78.7817 257.782 78.8945C257.774 79.0072 257.798 79.12 257.85 79.2204C257.902 79.3209 257.981 79.4052 258.076 79.4639C258.173 79.5227 258.284 79.5537 258.397 79.5537C258.496 79.5542 258.592 79.5314 258.68 79.4874C258.767 79.4435 258.843 79.3795 258.899 79.3007C258.906 79.2908 259.584 78.3837 260.923 78.017C261.617 77.827 262.609 77.8431 263.577 78.0628C263.847 78.1244 264.099 78.1454 264.342 78.1491C264.458 78.4182 264.502 78.7379 264.507 78.8564C264.517 79.0138 264.585 79.1618 264.7 79.2702C264.816 79.3784 264.967 79.4389 265.125 79.4389L265.158 79.4377C265.321 79.4291 265.475 79.3564 265.584 79.2354C265.694 79.1145 265.751 78.9551 265.743 78.7922C265.723 78.5046 265.668 78.2205 265.582 77.9455C266.152 77.7393 266.648 77.4172 267.114 77.1149C267.821 76.6545 268.491 76.2188 269.364 76.1904C270.097 76.1645 270.7 76.2348 271.282 76.3027C271.868 76.3705 272.444 76.415 273.08 76.378C273.192 76.6902 273.183 77.1074 273.166 77.2469C273.156 77.3338 273.163 77.422 273.191 77.5055C273.217 77.5891 273.259 77.6662 273.318 77.7318C273.376 77.7974 273.447 77.8501 273.527 77.8862C273.606 77.9224 273.694 77.9414 273.781 77.9418C273.931 77.9416 274.075 77.887 274.188 77.7882C274.301 77.6894 274.374 77.5533 274.393 77.4049C274.438 77 274.413 76.5906 274.319 76.1941C275.448 75.8953 276.459 75.2623 277.219 74.3785C277.831 74.757 278.547 74.9352 279.266 74.8882C279.429 74.8772 279.582 74.8019 279.69 74.6791C279.798 74.5563 279.852 74.3958 279.841 74.2329Z" fill="#4C4C4C"/>
<path d="M338.469 199.376C343.021 199.376 346.712 195.692 346.712 191.147C346.712 186.603 343.021 182.919 338.469 182.919C333.917 182.919 330.227 186.603 330.227 191.147C330.227 195.692 333.917 199.376 338.469 199.376Z" fill="#ACD4A7"/>
<path d="M338.469 196.086C341.2 196.086 343.414 193.875 343.414 191.149C343.414 188.422 341.2 186.212 338.469 186.212C335.738 186.212 333.523 188.422 333.523 191.149C333.523 193.875 335.738 196.086 338.469 196.086Z" fill="#389D2D"/>
<path d="M263.621 279.405C268.174 279.405 271.864 275.721 271.864 271.177C271.864 266.632 268.174 262.948 263.621 262.948C259.069 262.948 255.379 266.632 255.379 271.177C255.379 275.721 259.069 279.405 263.621 279.405Z" fill="#ACD4A7"/>
<path d="M263.621 276.113C266.353 276.113 268.567 273.903 268.567 271.176C268.567 268.45 266.353 266.239 263.621 266.239C260.89 266.239 258.676 268.45 258.676 271.176C258.676 273.903 260.89 276.113 263.621 276.113Z" fill="#389D2D"/>
<path d="M187.84 199.375C192.392 199.375 196.083 195.691 196.083 191.146C196.083 186.602 192.392 182.918 187.84 182.918C183.288 182.918 179.598 186.602 179.598 191.146C179.598 195.691 183.288 199.375 187.84 199.375Z" fill="#ACD4A7"/>
<path d="M187.84 196.084C190.571 196.084 192.785 193.874 192.785 191.147C192.785 188.42 190.571 186.21 187.84 186.21C185.109 186.21 182.895 188.42 182.895 191.147C182.895 193.874 185.109 196.084 187.84 196.084Z" fill="#389D2D"/>
<path d="M430.559 44.8874L424.655 48.2905V41.4844L430.559 44.8874ZM392.115 44.8874C392.115 46.6236 390.705 48.0311 388.966 48.0311C387.226 48.0311 385.816 46.6236 385.816 44.8874C385.816 43.1513 387.226 41.7438 388.966 41.7438C390.705 41.7438 392.115 43.1513 392.115 44.8874ZM425.245 44.8874V45.4768H388.966V44.8874V44.298H425.245V44.8874Z" fill="url(#paint7_linear_249_5)"/>
<path d="M93.8828 44.8874L99.7873 48.2905V41.4844L93.8828 44.8874ZM132.327 44.8874C132.327 46.6236 133.737 48.0311 135.476 48.0311C137.215 48.0311 138.625 46.6236 138.625 44.8874C138.625 43.1513 137.215 41.7438 135.476 41.7438C133.737 41.7438 132.327 43.1513 132.327 44.8874ZM99.1968 44.8874V45.4768H135.476V44.8874V44.298H99.1968V44.8874Z" fill="url(#paint8_linear_249_5)"/>
<path d="M101.75 190.774L107.654 194.178V187.371L101.75 190.774ZM140.194 190.774C140.194 192.511 141.604 193.918 143.343 193.918C145.083 193.918 146.492 192.511 146.492 190.774C146.492 189.038 145.083 187.63 143.343 187.63C141.604 187.63 140.194 189.038 140.194 190.774ZM107.064 190.774V191.364H143.343V190.774V190.185H107.064V190.774Z" fill="url(#paint9_linear_249_5)"/>
<path d="M423.032 190.774L417.127 194.178V187.371L423.032 190.774ZM384.588 190.774C384.588 192.511 383.178 193.918 381.438 193.918C379.699 193.918 378.289 192.511 378.289 190.774C378.289 189.038 379.699 187.63 381.438 187.63C383.178 187.63 384.588 189.038 384.588 190.774ZM417.718 190.774V191.364H381.438V190.774V190.185H417.718V190.774Z" fill="url(#paint10_linear_249_5)"/>
<path d="M50.5742 386.456L56.4787 389.859V383.054L50.5742 386.456ZM108.129 386.456C108.129 388.192 109.539 389.6 111.278 389.6C113.017 389.6 114.427 388.192 114.427 386.456C114.427 384.721 113.017 383.313 111.278 383.313C109.539 383.313 108.129 384.721 108.129 386.456ZM55.8882 386.456V387.045H111.278V386.456V385.866H55.8882V386.456Z" fill="url(#paint11_linear_249_5)"/>
<path d="M329.472 382.195L332.881 376.3H326.062L329.472 382.195ZM329.472 352.087C331.211 352.087 332.621 350.679 332.621 348.944C332.621 347.207 331.211 345.8 329.472 345.8C327.732 345.8 326.322 347.207 326.322 348.944C326.322 350.679 327.732 352.087 329.472 352.087ZM329.472 376.89H330.062V348.944H329.472H328.881V376.89H329.472Z" fill="url(#paint12_linear_249_5)"/>
<path d="M438.11 272.317L432.205 275.721V268.914L438.11 272.317ZM399.928 272.317C399.928 274.054 398.518 275.461 396.778 275.461C395.039 275.461 393.629 274.054 393.629 272.317C393.629 270.581 395.039 269.173 396.778 269.173C398.518 269.173 399.928 270.581 399.928 272.317ZM432.796 272.317V272.907H396.778V272.317V271.728H432.796V272.317Z" fill="url(#paint13_linear_249_5)"/>
<defs>
<linearGradient id="paint0_linear_249_5" x1="177.247" y1="180.788" x2="377.982" y2="180.788" gradientUnits="userSpaceOnUse">
<stop stop-color="#737373" stop-opacity="0.11"/>
<stop offset="1" stop-color="#D9D9D9" stop-opacity="0.2"/>
</linearGradient>
<linearGradient id="paint1_linear_249_5" x1="230.551" y1="35.5001" x2="300.371" y2="105.44" gradientUnits="userSpaceOnUse">
<stop/>
<stop offset="1" stop-color="#666666"/>
</linearGradient>
<linearGradient id="paint2_linear_249_5" x1="230.551" y1="35.5001" x2="300.371" y2="105.44" gradientUnits="userSpaceOnUse">
<stop/>
<stop offset="1" stop-color="#666666"/>
</linearGradient>
<radialGradient id="paint3_radial_249_5" cx="0" cy="0" r="1" gradientUnits="userSpaceOnUse" gradientTransform="translate(nan nan) rotate(nan) scale(nan nan)">
<stop stop-color="#389D2D" stop-opacity="0"/>
<stop offset="1" stop-color="#389D2D"/>
</radialGradient>
<radialGradient id="paint4_radial_249_5" cx="0" cy="0" r="1" gradientUnits="userSpaceOnUse" gradientTransform="translate(nan nan) rotate(nan) scale(nan nan)">
<stop stop-color="#389D2D" stop-opacity="0"/>
<stop offset="1" stop-color="#389D2D"/>
</radialGradient>
<radialGradient id="paint5_radial_249_5" cx="0" cy="0" r="1" gradientUnits="userSpaceOnUse" gradientTransform="translate(nan nan) rotate(nan) scale(nan nan)">
<stop stop-color="#389D2D" stop-opacity="0"/>
<stop offset="1" stop-color="#389D2D"/>
</radialGradient>
<radialGradient id="paint6_radial_249_5" cx="0" cy="0" r="1" gradientUnits="userSpaceOnUse" gradientTransform="translate(nan nan) rotate(nan) scale(nan nan)">
<stop stop-color="#389D2D" stop-opacity="0"/>
<stop offset="1" stop-color="#389D2D"/>
</radialGradient>
<linearGradient id="paint7_linear_249_5" x1="430.559" y1="45.4768" x2="388.966" y2="45.4768" gradientUnits="userSpaceOnUse">
<stop stop-color="#4C4C4C"/>
<stop offset="1" stop-color="#878787"/>
</linearGradient>
<linearGradient id="paint8_linear_249_5" x1="93.8828" y1="45.4768" x2="135.476" y2="45.4768" gradientUnits="userSpaceOnUse">
<stop stop-color="#4C4C4C"/>
<stop offset="1" stop-color="#878787"/>
</linearGradient>
<linearGradient id="paint9_linear_249_5" x1="101.75" y1="191.364" x2="143.343" y2="191.364" gradientUnits="userSpaceOnUse">
<stop stop-color="#4C4C4C"/>
<stop offset="1" stop-color="#878787"/>
</linearGradient>
<linearGradient id="paint10_linear_249_5" x1="423.032" y1="191.364" x2="381.439" y2="191.364" gradientUnits="userSpaceOnUse">
<stop stop-color="#4C4C4C"/>
<stop offset="1" stop-color="#878787"/>
</linearGradient>
<linearGradient id="paint11_linear_249_5" x1="50.5742" y1="387.045" x2="111.278" y2="387.045" gradientUnits="userSpaceOnUse">
<stop stop-color="#4C4C4C"/>
<stop offset="1" stop-color="#878787"/>
</linearGradient>
<linearGradient id="paint12_linear_249_5" x1="330.062" y1="382.195" x2="330.062" y2="348.944" gradientUnits="userSpaceOnUse">
<stop stop-color="#4C4C4C"/>
<stop offset="1" stop-color="#878787"/>
</linearGradient>
<linearGradient id="paint13_linear_249_5" x1="438.11" y1="272.907" x2="396.778" y2="272.907" gradientUnits="userSpaceOnUse">
<stop stop-color="#4C4C4C"/>
<stop offset="1" stop-color="#878787"/>
</linearGradient>
</defs>
</svg>
