<svg width="112" height="185" fill="none" xmlns="http://www.w3.org/2000/svg"><path fill-rule="evenodd" clip-rule="evenodd" d="M50.675 60.492c3.31-1.898 8.678-1.898 11.988 0l41.966 24.056a3.805 3.805 0 0 1 1.917 3.25l.74 55.228c0 3.795-2.683 8.411-5.994 10.308l-43.48 24.583a3.846 3.846 0 0 1-3.804-.011l-41.943-24.044c-3.31-1.897-5.995-6.513-5.995-10.309l.002-54.58c0-1.344.713-2.59 1.875-3.276l42.728-25.205zm10.79.687 41.965 24.057a3.803 3.803 0 0 1 1.917 3.249l.741 55.228-.006.286c-.129 2.979-2.224 6.49-4.79 7.961l-43.48 24.582a3.844 3.844 0 0 1-3.804-.011l-41.943-24.043c-2.566-1.471-4.661-4.982-4.79-7.96l-.006-.287v-54.58c0-1.345.713-2.59 1.876-3.276l42.728-25.206.253-.138c2.663-1.38 6.773-1.333 9.338.138z" fill="url(#a)"/><path d="M105.344 88.486a3.807 3.807 0 0 0-1.917-3.25L61.461 61.18c-2.566-1.47-6.676-1.517-9.338-.138l-.253.138L9.14 86.385a3.804 3.804 0 0 0-1.875 3.276v54.581l.005.287c.129 2.978 2.224 6.489 4.79 7.96l41.943 24.043a3.844 3.844 0 0 0 3.804.011l43.481-24.582c2.565-1.471 4.66-4.982 4.789-7.961l.006-.286-.74-55.228z" fill="url(#b)"/><path d="M105.344 88.486a3.807 3.807 0 0 0-1.917-3.25L61.461 61.18c-2.566-1.47-6.676-1.517-9.338-.138l-.253.138L9.14 86.385a3.804 3.804 0 0 0-1.875 3.276v54.581l.005.287c.129 2.978 2.224 6.489 4.79 7.96l41.943 24.043a3.844 3.844 0 0 0 3.804.011l43.481-24.582c2.565-1.471 4.66-4.982 4.789-7.961l.006-.286-.74-55.228z" fill="#F9F9F9"/><path d="m16.416 88.47 37.533-21.554c1.648-.947 4.32-.947 5.969 0l36.38 20.893c1.65.947 1.65 2.48 0 3.428L58.767 112.79c-1.649.947-4.321.947-5.97 0l-36.38-20.892c-1.597-.917-1.647-2.387-.15-3.338l.15-.09z" fill="#F9F9F9" stroke="#DDD"/><path d="M55.264 127.409c1.624 0 3.182.642 4.33 1.784a6.077 6.077 0 0 1 1.794 4.308 6.134 6.134 0 0 1-1.255 3.7 9.737 9.737 0 0 0-3.476 2.239l-1.393.153a6.143 6.143 0 0 1-4.33-1.785 6.073 6.073 0 0 1 0-8.615 6.142 6.142 0 0 1 4.33-1.784zm-12.248 24.367v-3.046c0-3.229 5.067-5.879 11.482-6.092a9.947 9.947 0 0 0-.765 3.807c0 1.965.582 3.807 1.531 5.331H43.016zM63.507 154.822c-.362 0-.673-.115-.934-.342a1.389 1.389 0 0 1-.473-.838l-.18-1.256a3.244 3.244 0 0 1-.493-.229 6.736 6.736 0 0 1-.453-.286l-1.246.495c-.335.14-.67.153-1.005.039a1.472 1.472 0 0 1-.784-.61l-.945-1.561a1.155 1.155 0 0 1-.16-.933c.08-.33.26-.602.542-.818l1.065-.762a1.72 1.72 0 0 1-.02-.257v-.514c0-.083.007-.168.02-.257l-1.065-.761a1.439 1.439 0 0 1-.543-.819c-.08-.33-.027-.64.16-.932l.946-1.562c.187-.292.449-.494.784-.608.335-.115.67-.103 1.005.038l1.246.494c.148-.101.302-.197.463-.285a4.04 4.04 0 0 1 .482-.228l.181-1.257c.054-.33.211-.609.473-.837.261-.229.573-.343.934-.343h1.89c.362 0 .673.114.935.343.262.228.42.507.472.837l.181 1.257c.174.063.339.139.493.228.154.088.305.184.452.285l1.246-.494c.335-.141.67-.153 1.005-.038.335.114.597.316.785.608l.944 1.562c.188.292.242.602.161.932-.08.33-.261.603-.543.819l-1.065.761c.013.089.02.175.02.257v.514a.887.887 0 0 1-.04.257l1.065.762c.282.216.463.488.543.818.08.33.027.641-.16.933l-.966 1.561a1.472 1.472 0 0 1-.784.61c-.335.114-.67.101-1.005-.039l-1.206-.495a5.43 5.43 0 0 1-.463.286 4.38 4.38 0 0 1-.482.229l-.18 1.256a1.384 1.384 0 0 1-.473.838 1.38 1.38 0 0 1-.935.342h-1.89zm.985-4.949c.778 0 1.441-.261 1.99-.781.55-.521.825-1.149.825-1.885s-.275-1.364-.825-1.884c-.549-.521-1.212-.781-1.99-.781-.79 0-1.457.26-2 .781-.543.52-.815 1.148-.814 1.884 0 .736.272 1.364.814 1.885.543.52 1.21.781 2 .781z" fill="#389D2D"/><path d="M106.051 131.526c3.013 0 5.457-2.43 5.457-5.428 0-2.998-2.444-5.428-5.457-5.428-3.014 0-5.457 2.43-5.457 5.428 0 2.998 2.443 5.428 5.457 5.428z" fill="#ACD4A7"/><path d="M106.048 129.353a3.265 3.265 0 0 0 3.274-3.256 3.266 3.266 0 0 0-3.274-3.257 3.266 3.266 0 0 0-3.275 3.257 3.266 3.266 0 0 0 3.275 3.256z" fill="#389D2D"/><path d="M56.488 184.318c3.014 0 5.457-2.43 5.457-5.428 0-2.998-2.443-5.428-5.457-5.428s-5.457 2.43-5.457 5.428c0 2.998 2.443 5.428 5.457 5.428z" fill="#ACD4A7"/><path d="M56.493 182.146a3.265 3.265 0 0 0 3.274-3.256 3.265 3.265 0 0 0-3.274-3.257 3.265 3.265 0 0 0-3.274 3.257 3.265 3.265 0 0 0 3.274 3.256z" fill="#389D2D"/><path d="M6.316 131.526c3.014 0 5.457-2.43 5.457-5.428 0-2.998-2.443-5.428-5.457-5.428-3.013 0-5.457 2.43-5.457 5.428 0 2.998 2.444 5.428 5.457 5.428z" fill="#ACD4A7"/><path d="M6.321 129.353a3.265 3.265 0 0 0 3.274-3.256 3.265 3.265 0 0 0-3.274-3.257 3.265 3.265 0 0 0-3.274 3.257 3.265 3.265 0 0 0 3.274 3.256z" fill="#389D2D"/><path d="M53.325 2.965 12.437 43.637a3.415 3.415 0 0 0 0 4.847l40.888 40.672a3.46 3.46 0 0 0 4.874 0l40.888-40.672a3.415 3.415 0 0 0 0-4.847L58.2 2.965a3.46 3.46 0 0 0-4.874 0z" fill="url(#c)" stroke="url(#d)"/><path d="M53.384 8.339 17.898 43.637a3.415 3.415 0 0 0 0 4.847l35.486 35.298a3.46 3.46 0 0 0 4.874 0l35.486-35.298a3.415 3.415 0 0 0 0-4.847L58.258 8.339a3.46 3.46 0 0 0-4.874 0z" stroke="#A7A7A7" stroke-opacity=".3"/><path d="M65.583 53.66c.002.23-.058.532-.12.78-.434 1.747-2.365 3.707-5.081 3.528-2.462-.16-4.468-1.337-4.468-2.985 0-1.649 2-2.986 4.468-2.986 2.467 0 5.185.015 5.2 1.663z" fill="#F9F9F9"/><path d="M60.382 52.274c-1.325 0-4.35.365-5.044.365-1.226 0-2.22.765-2.22 1.71 0 .454.233.865.608 1.17 0 0 .824.822 2.307.428.649-.172 1.705-1.454 3.564-1.658.925-.101 2.66.611 5.708.628.131-.28.158-.474.158-.474 0-1.65-2.614-2.169-5.081-2.169z" fill="#A9A9A9"/><path d="M65.459 54.44s1.787-.36 2.9-1.815c1.295-1.696 1.125-3.51 1.125-3.51 1.313-2.443-.41-4.733-.41-4.733-.17-2.579-1.773-3.647-1.773-3.647-1.04-2.46-3.343-3.12-3.343-3.12-1.807-2.104-5.013-2.036-5.013-2.036s-3.004-1.095-7.128.136c-.682.203-2.967.678-4.639 1.696-5.268 3.207-5.666 8.21-5.593 9.023.409 4.546 3.615 5.36 5.661 5.835.477 1.289 2.234 3.664 5.389 2.782 3.888-.678 5.525-1.832 6.48-1.832.955 0 3.616 1.018 6.344 1.221z" fill="#EEE"/><path d="M55.628 47.132c1.905-1.022 2.938-.927 3.85-.844.29.026.564.046.842.044 1.624-.036 2.94-.717 3.521-1.376a.406.406 0 0 0-.337-.664.41.41 0 0 0-.278.126c-.449.508-1.555 1.07-2.925 1.1-.246.008-.492-.017-.747-.04-.979-.09-2.193-.202-4.315.937-.544.293-1.29.401-2.1.483-1.798-2.582-.716-4.831-.406-5.367.03.002.06.011.09.011.328 0 .657-.08.955-.247a.407.407 0 0 0-.403-.708 1.173 1.173 0 0 1-1.539-.38.41.41 0 0 0-.731.139.406.406 0 0 0 .043.3c.194.301.467.529.776.68a5.787 5.787 0 0 0 .304 5.66c-1.083.106-2.169.258-3.018.803a5.879 5.879 0 0 0-1.537 1.458c-.515-.088-2.4-.55-2.73-2.63.205-.158.37-.367.473-.624a.406.406 0 0 0-.387-.557.41.41 0 0 0-.374.257.627.627 0 0 1-.372.376.642.642 0 0 1-.526-.057.412.412 0 0 0-.557.157.405.405 0 0 0 .159.554c.232.129.481.194.728.194.03 0 .06-.014.09-.016.39 1.965 1.95 2.828 3.054 3.09a2.998 2.998 0 0 0-.27.97.405.405 0 0 0 .371.441l.037.002a.41.41 0 0 0 .407-.371c.089-.988 1.036-2.02 1.877-2.56.79-.506 1.944-.613 3.063-.717 1.084-.098 2.109-.193 2.912-.624zm10.531-1.225a.406.406 0 0 0 .163.553.412.412 0 0 0 .556-.162c.016-.027 1.508-2.808-1.286-4.677a.41.41 0 0 0-.63.417c.02.106.083.199.173.26 2.164 1.447 1.072 3.521 1.024 3.61zm-16.966-6.573a.41.41 0 0 0 .333-.17c1.187-1.642 2.83-1.08 2.9-1.054a.411.411 0 0 0 .512-.246.405.405 0 0 0-.23-.518c-.786-.29-2.6-.38-3.847 1.344a.407.407 0 0 0 .332.644zm10.7-1.538c1.822-.147 2.65 1.166 2.688 1.228a.41.41 0 0 0 .706-.413c-.044-.074-1.097-1.805-3.457-1.626a.413.413 0 0 0-.28.141.406.406 0 0 0 .343.67zm7.49 11.897c-.201-.012-.423.147-.441.372-.002.014-.132 1.4-1.564 1.867a.408.408 0 0 0-.28.453.406.406 0 0 0 .409.341.41.41 0 0 0 .128-.02c1.941-.634 2.116-2.495 2.123-2.574a.407.407 0 0 0-.375-.44z" fill="#4C4C4C"/><path d="M47.126 45.737a.405.405 0 0 0 .285.512.412.412 0 0 0 .505-.3 1.16 1.16 0 0 1 .513-.678c.25-.153.55-.206.84-.148a.413.413 0 0 0 .421-.17.407.407 0 0 0-.254-.627 1.933 1.933 0 0 0-1.022.07c-.954-1.624-.768-3.225-.766-3.242a.405.405 0 0 0-.35-.457.414.414 0 0 0-.461.347c-.01.08-.23 1.886.87 3.757-.28.25-.481.575-.581.936zm9.15-2.012a.878.878 0 0 1 1.191.013.41.41 0 0 0 .695-.299.406.406 0 0 0-.124-.286 1.64 1.64 0 0 0-.652-.378c.242-.828.146-1.195-.079-1.883-.045-.134-.087-.27-.129-.405l-.024-.082c-.298-.983-.495-1.632.071-2.548a.405.405 0 0 0-.134-.56.412.412 0 0 0-.563.133c-.76 1.228-.48 2.147-.157 3.211l.024.082c.048.157.093.297.133.42.203.62.264.828.017 1.577a1.64 1.64 0 0 0-.827.41.406.406 0 0 0 .267.698.41.41 0 0 0 .291-.103zm5.21-2.43c.244 0 .484-.052.704-.155a.408.408 0 0 0 .196-.542.409.409 0 0 0-.545-.195.88.88 0 0 1-1.133-.372.408.408 0 0 0-.685-.075.405.405 0 0 0-.036.459c.147.274.366.49.622.64-.44 1.062-.19 2.19.014 2.789a.407.407 0 0 0 .523.27.407.407 0 0 0 .252-.53c-.138-.406-.404-1.43-.002-2.301.032.002.06.012.09.012zm3.927 7.677a.4.4 0 0 0-.276-.36.41.41 0 0 0-.159-.02 1.502 1.502 0 0 1-1.086-.364 1.486 1.486 0 0 1-.507-1.023.414.414 0 0 0-.59-.337.406.406 0 0 0-.227.393c.033.48.217.913.497 1.266-.658.77-1.52.99-2 1.045-.425.05-.796.008-1.226-.043-.394-.045-.84-.096-1.39-.08l-.004.001c-.017-.233-.072-.572-.25-.855a.41.41 0 0 0-.728.135.406.406 0 0 0 .035.298c.11.175.13.454.13.59-.413.147-.77.364-1.092.573-.576.373-1.03.668-1.714.515a5.014 5.014 0 0 0-1.764-.097 1.792 1.792 0 0 0-.41-.636.41.41 0 0 0-.691.307c.003.108.049.21.128.285.07.066.126.162.17.258-.902.37-1.355.987-1.376 1.018a.405.405 0 0 0 .333.641.41.41 0 0 0 .332-.167c.005-.006.454-.605 1.34-.846.459-.126 1.116-.115 1.757.03.18.04.345.054.507.057.076.177.105.388.11.466a.406.406 0 0 0 .408.385l.022-.001a.41.41 0 0 0 .387-.426 2.43 2.43 0 0 0-.106-.559c.377-.136.705-.348 1.014-.548.468-.303.911-.59 1.49-.61.484-.017.884.03 1.27.075.387.044.769.074 1.19.05.074.205.068.48.057.572a.408.408 0 0 0 .407.459.41.41 0 0 0 .405-.354c.03-.267.013-.537-.049-.799a3.826 3.826 0 0 0 1.92-1.198 2.3 2.3 0 0 0 1.355.337.41.41 0 0 0 .38-.433z" fill="#4C4C4C"/><defs><linearGradient id="a" x1="-.692" y1="119.263" x2="132.204" y2="119.263" gradientUnits="userSpaceOnUse"><stop stop-color="#737373" stop-opacity=".11"/><stop offset="1" stop-color="#D9D9D9" stop-opacity=".2"/></linearGradient><linearGradient id="b" x1="-.695" y1="119.264" x2="132.201" y2="119.264" gradientUnits="userSpaceOnUse"><stop stop-color="#737373" stop-opacity=".11"/><stop offset="1" stop-color="#D9D9D9" stop-opacity=".2"/></linearGradient><linearGradient id="c" x1="32.769" y1="23.413" x2="78.826" y2="69.716" gradientUnits="userSpaceOnUse"><stop/><stop offset="1" stop-color="#666"/></linearGradient><linearGradient id="d" x1="32.769" y1="23.413" x2="78.826" y2="69.716" gradientUnits="userSpaceOnUse"><stop/><stop offset="1" stop-color="#666"/></linearGradient></defs></svg>