<svg width="308" height="250" fill="none" xmlns="http://www.w3.org/2000/svg"><rect x="101.485" y="74.392" width="102.151" height="102.151" rx="4.5" fill="url(#a)" stroke="url(#b)"/><rect x="92.865" y="68.234" width="123.384" height="122.153" rx="4.5" stroke="url(#c)" stroke-opacity=".4"/><rect x="79.318" y="52.224" width="149.246" height="145.552" rx="4.5" stroke="url(#d)" stroke-opacity=".1"/><rect x="70.697" y="43.603" width="166.488" height="162.793" rx="4.5" stroke="url(#e)" stroke-opacity=".05"/><rect x=".5" y=".5" width="306.882" height="249" rx="4.5" stroke="url(#f)" stroke-opacity=".05"/><rect x=".5" y=".5" width="306.882" height="249" rx="4.5" stroke="#389D2D" stroke-opacity=".05"/><rect x="107.643" y="80.549" width="90.116" height="90.116" rx="4.5" stroke="#A7A7A7" stroke-opacity=".3"/><path d="M167.858 136.601c.004.365-.09.842-.188 1.235-.685 2.766-3.725 5.87-8.005 5.587-3.878-.255-7.037-2.117-7.037-4.728 0-2.611 3.151-4.728 7.037-4.728 3.887 0 8.169.023 8.193 2.634z" fill="#F9F9F9"/><path d="M159.664 134.405c-2.087 0-6.851.577-7.945.577-1.931 0-3.498 1.212-3.498 2.708 0 .72.369 1.369.959 1.854 0 0 1.298 1.301 3.634.677 1.022-.273 2.686-2.303 5.614-2.625 1.458-.161 4.19.967 8.992.994.206-.443.249-.752.249-.752 0-2.613-4.118-3.433-8.005-3.433z" fill="#389D2D"/><path d="M167.669 137.836s2.816-.571 4.567-2.874c2.041-2.685 1.773-5.559 1.773-5.559 2.068-3.869-.645-7.496-.645-7.496-.27-4.083-2.794-5.775-2.794-5.775-1.639-3.895-5.265-4.942-5.265-4.942-2.847-3.33-7.897-3.223-7.897-3.223s-4.732-1.735-11.228.215c-1.074.322-4.674 1.074-7.307 2.686-8.298 5.08-8.926 13.002-8.81 14.29.643 7.199 5.694 8.488 8.917 9.24.752 2.041 3.519 5.802 8.488 4.406 6.125-1.075 8.703-2.902 10.208-2.902 1.505 0 5.695 1.612 9.993 1.934z" fill="#EEE"/><path d="M152.182 126.261c3.002-1.618 4.629-1.467 6.065-1.337.457.041.889.074 1.326.071 2.558-.058 4.63-1.136 5.547-2.179a.647.647 0 0 0-.97-.852c-.707.804-2.449 1.693-4.607 1.742-.387.011-.775-.027-1.177-.065-1.541-.143-3.455-.318-6.797 1.486-.857.463-2.033.634-3.307.763-2.833-4.089-1.128-7.65-.641-8.498.048.002.094.018.143.018.516 0 1.035-.127 1.504-.392a.645.645 0 0 0-.635-1.122 1.84 1.84 0 0 1-2.424-.602.645.645 0 0 0-1.084.695 3.04 3.04 0 0 0 1.222 1.079c-.671 1.364-1.947 4.951.48 8.962-1.707.168-3.417.409-4.755 1.272a9.286 9.286 0 0 0-2.422 2.309c-.811-.139-3.78-.87-4.298-4.166.322-.25.582-.58.744-.988a.648.648 0 0 0-.151-.7.642.642 0 0 0-.459-.182.648.648 0 0 0-.59.408.986.986 0 0 1-.585.594 1 1 0 0 1-.829-.09.65.65 0 0 0-.49-.056.641.641 0 0 0-.443.796.645.645 0 0 0 .306.387c.367.204.758.307 1.148.307.048 0 .093-.022.14-.025.614 3.112 3.073 4.478 4.812 4.892a4.789 4.789 0 0 0-.426 1.537.644.644 0 0 0 .585.699l.058.003a.644.644 0 0 0 .642-.588c.139-1.564 1.631-3.198 2.957-4.055 1.243-.801 3.062-.97 4.823-1.134 1.709-.156 3.323-.305 4.588-.989zm16.589-1.939a.646.646 0 0 0 1.132.619c.025-.044 2.375-4.447-2.025-7.406a.642.642 0 0 0-.895.175.642.642 0 0 0 .175.895c3.409 2.292 1.688 5.578 1.613 5.717zm-26.725-10.41a.654.654 0 0 0 .524-.269c1.869-2.6 4.458-1.711 4.568-1.669a.644.644 0 0 0 .445-1.21c-1.238-.459-4.097-.603-6.06 2.128a.644.644 0 0 0 .523 1.02zm16.855-2.435c2.869-.233 4.174 1.847 4.233 1.945a.646.646 0 0 0 1.113-.654c-.07-.117-1.728-2.86-5.447-2.576a.627.627 0 0 0-.439.224.647.647 0 0 0 .54 1.061zm11.798 18.839c-.317-.018-.667.234-.695.59-.003.023-.208 2.216-2.463 2.957a.644.644 0 0 0 .202 1.258.629.629 0 0 0 .202-.033c3.058-1.003 3.334-3.95 3.344-4.075a.646.646 0 0 0-.59-.697z" fill="#389D2D"/><path d="M138.786 124.051a.634.634 0 0 0 .052.501.64.64 0 0 0 .396.31.637.637 0 0 0 .499-.069.629.629 0 0 0 .297-.407 1.831 1.831 0 0 1 2.13-1.307.648.648 0 0 0 .766-.751.657.657 0 0 0-.27-.413.655.655 0 0 0-.232-.099 3.038 3.038 0 0 0-1.609.111c-1.503-2.571-1.21-5.106-1.207-5.133a.643.643 0 0 0-1.028-.597.648.648 0 0 0-.249.423c-.017.125-.361 2.986 1.37 5.949-.44.396-.758.911-.915 1.482zm14.414-3.185a1.376 1.376 0 0 1 1.876.02.644.644 0 0 0 .911-.015.641.641 0 0 0-.012-.911 2.593 2.593 0 0 0-1.028-.6c.382-1.31.231-1.891-.124-2.981a28.12 28.12 0 0 1-.202-.642l-.039-.129c-.469-1.557-.78-2.585.112-4.036a.647.647 0 0 0-.699-.965.644.644 0 0 0-.399.29c-1.197 1.944-.757 3.4-.248 5.085l.039.129c.075.249.145.471.21.667.318.981.415 1.31.026 2.496-.488.087-.94.312-1.303.65a.646.646 0 0 0 .421 1.105.646.646 0 0 0 .459-.163zm8.207-3.849c.383.002.761-.083 1.107-.246a.644.644 0 1 0-.549-1.167 1.376 1.376 0 0 1-1.784-.589.643.643 0 0 0-1.08-.119.632.632 0 0 0-.056.728c.232.433.577.774.979 1.012-.692 1.682-.299 3.469.022 4.417a.66.66 0 0 0 .321.39.656.656 0 0 0 .504.039.646.646 0 0 0 .396-.84c-.216-.642-.637-2.264-.002-3.644.049.003.094.019.142.019zm6.185 12.158a.644.644 0 0 0-.435-.57.64.64 0 0 0-.25-.032 2.359 2.359 0 0 1-2.272-1.307 2.35 2.35 0 0 1-.238-.889.66.66 0 0 0-.687-.6.656.656 0 0 0-.443.22.659.659 0 0 0-.157.468c.053.76.343 1.446.784 2.005-1.037 1.219-2.394 1.566-3.151 1.655-.67.08-1.255.012-1.932-.068-.62-.071-1.321-.152-2.189-.126l-.007.001c-.025-.369-.113-.907-.393-1.354a.643.643 0 0 0-.866-.168.65.65 0 0 0-.226.853c.173.277.205.719.205.934-.65.234-1.212.577-1.72.908-.908.591-1.623 1.057-2.7.815-.975-.223-1.951-.268-2.779-.152-.129-.324-.332-.711-.647-1.008a.641.641 0 0 0-.911.025.645.645 0 0 0 .025.912c.111.104.199.257.27.409-1.422.585-2.135 1.564-2.169 1.611a.648.648 0 0 0 .19.923.65.65 0 0 0 .858-.171c.007-.01.715-.958 2.111-1.341.722-.198 1.757-.182 2.767.048.282.064.544.086.798.09.12.281.167.615.173.739a.642.642 0 0 0 .643.609l.035-.002a.645.645 0 0 0 .61-.674 3.822 3.822 0 0 0-.168-.885c.595-.215 1.112-.551 1.598-.867.737-.481 1.435-.936 2.347-.966.763-.027 1.392.046 1.999.117.612.071 1.212.118 1.875.079.118.326.109.762.09.908a.65.65 0 0 0 .641.726.649.649 0 0 0 .639-.561 3.738 3.738 0 0 0-.077-1.265 6.021 6.021 0 0 0 3.024-1.897 3.605 3.605 0 0 0 2.135.533.645.645 0 0 0 .6-.685z" fill="#389D2D"/><defs><linearGradient id="a" x1="152.561" y1="73.892" x2="152.561" y2="177.042" gradientUnits="userSpaceOnUse"><stop/><stop offset="1" stop-color="#666"/></linearGradient><linearGradient id="b" x1="152.561" y1="73.892" x2="152.561" y2="177.042" gradientUnits="userSpaceOnUse"><stop/><stop offset="1" stop-color="#666"/></linearGradient><linearGradient id="c" x1="154.557" y1="67.734" x2="154.557" y2="190.887" gradientUnits="userSpaceOnUse"><stop/><stop offset="1" stop-color="#666"/></linearGradient><linearGradient id="d" x1="153.941" y1="51.724" x2="153.941" y2="198.276" gradientUnits="userSpaceOnUse"><stop/><stop offset="1" stop-color="#666"/></linearGradient><linearGradient id="e" x1="153.941" y1="43.103" x2="153.941" y2="206.897" gradientUnits="userSpaceOnUse"><stop/><stop offset="1" stop-color="#666"/></linearGradient><linearGradient id="f" x1="153.941" y1="0" x2="153.941" y2="250" gradientUnits="userSpaceOnUse"><stop/><stop offset="1" stop-color="#666"/></linearGradient></defs></svg>