<svg xmlns="http://www.w3.org/2000/svg" width="340" height="200" fill="none"><g clip-path="url(#a)"><g filter="url(#b)"><circle cx="77.96" cy="77.96" r="76.96" stroke="#7D7D7D" stroke-linecap="round" stroke-linejoin="round" stroke-opacity=".3" stroke-width="2" transform="matrix(-.9397 -.34202 -.82904 .5592 315.333 124.388)"/></g><circle cx="77.96" cy="77.96" r="76.96" stroke="#389D2D" stroke-linecap="round" stroke-linejoin="round" stroke-width="2" transform="matrix(-.9397 -.34202 -.82904 .5592 315.333 105.402)"/><circle cx="59.365" cy="59.365" r="59.365" fill="url(#c)" opacity=".11" transform="matrix(-.9397 -.34202 -.82904 .5592 282.117 113.714)"/><circle cx="39.351" cy="39.351" r="39.351" fill="url(#d)" opacity=".11" transform="matrix(-.9397 -.34202 -.82904 .5592 245.104 122.921)"/><circle cx="19.951" cy="19.951" r="19.451" fill="#389D2D" stroke="#C2E6BE" stroke-linecap="round" stroke-linejoin="round" opacity=".61" transform="matrix(-.9397 -.34202 -.82904 .5592 209.041 132.674)"/><path fill="#000" d="M165.896 29.906c-5.61-2.194-16.665 5.121-19.841 10.64-1.415 2.468-1.315 4.09-1.315 5.018v49.644l41.459 20.224 7.797-5.394V61.691l-42.568-18.698c2.284-3.225 7.421-7.487 11.274-6.606l37.915 15.15v53.858l7.816-5.405V46.132z"/><path fill="url(#e)" d="M165.896 29.906c-5.61-2.194-16.665 5.121-19.841 10.64-1.415 2.468-1.315 4.09-1.315 5.018v49.644l41.459 20.224 7.797-5.394V61.691l-42.568-18.698c2.284-3.225 7.421-7.487 11.274-6.606l37.915 15.15v53.858l7.816-5.405V46.132z"/></g><defs><radialGradient id="c" cx="0" cy="0" r="1" gradientTransform="rotate(90 0 59.365)scale(59.365)" gradientUnits="userSpaceOnUse"><stop stop-color="#143710"/><stop offset="1" stop-color="#389D2D"/></radialGradient><radialGradient id="d" cx="0" cy="0" r="1" gradientTransform="rotate(90 0 39.351)scale(39.3511)" gradientUnits="userSpaceOnUse"><stop stop-color="#143710"/><stop offset="1" stop-color="#389D2D"/></radialGradient><linearGradient id="e" x1="176.43" x2="188.868" y1="27.608" y2="116.113" gradientUnits="userSpaceOnUse"><stop/><stop offset="1" stop-color="#666"/></linearGradient><clipPath id="a"><path fill="#fff" d="M0 0h340v200H0z"/></clipPath><filter id="b" width="205.389" height="112.219" x="74.749" y="85.209" color-interpolation-filters="sRGB" filterUnits="userSpaceOnUse"><feFlood flood-opacity="0" result="BackgroundImageFix"/><feBlend in="SourceGraphic" in2="BackgroundImageFix" result="shape"/><feGaussianBlur result="effect1_foregroundBlur_439_98" stdDeviation="2.5"/></filter></defs></svg>