<svg width="249" height="534" fill="none" xmlns="http://www.w3.org/2000/svg"><path fill-rule="evenodd" clip-rule="evenodd" d="M56.946 43.813c4.227-2.44 11.08-2.44 15.306 0l53.496 30.874a4.998 4.998 0 0 1 2.5 4.317l.975 363.78c0 4.879-3.426 10.812-7.653 13.251L66.117 487.6a4.999 4.999 0 0 1-4.973-.014L7.653 456.714C3.426 454.274 0 448.342 0 443.463L.002 80.48a5 5 0 0 1 2.446-4.299l54.498-32.368zm13.776.883 53.495 30.875a5.001 5.001 0 0 1 2.501 4.317l.974 363.78-.007.368c-.164 3.829-2.84 8.342-6.115 10.232l-56.192 31.986a3.518 3.518 0 0 1-3.498-.01l-.494-.285-53.733-31.012c-3.276-1.891-5.95-6.404-6.115-10.232l-.007-.369V81.363a5 5 0 0 1 2.446-4.299l54.5-32.368.323-.177c3.399-1.773 8.646-1.713 11.922.177z" fill="url(#a)"/><path fill-rule="evenodd" clip-rule="evenodd" d="m70.722 44.696 53.495 30.875a5.001 5.001 0 0 1 2.501 4.317l.974 363.78-.007.368c-.164 3.829-2.84 8.342-6.115 10.232l-56.192 31.986V122.448a1.996 1.996 0 0 0-3.992 0v363.511L7.653 454.947c-3.276-1.891-5.95-6.404-6.115-10.232l-.007-.369V81.363a5 5 0 0 1 2.446-4.299l54.5-32.368.323-.177c3.399-1.773 8.646-1.713 11.922.177z" fill="#389D2D"/><path d="m61.386 485.959.494.285a3.518 3.518 0 0 0 3.498.01V122.448a1.996 1.996 0 0 0-3.992 0v363.511z" fill="#A2EC99"/><g filter="url(#b)"><rect width="65.133" height="63.433" rx="5" transform="scale(1.2243 .70788) rotate(-45 143.443 49.038)" fill="#389D2D"/></g><rect x=".866" width="64.133" height="62.433" rx="4.5" transform="matrix(.8657 -.50055 .8657 .50055 9.1 82.4)" stroke="#DDD"/><g clip-path="url(#c)"><path d="M83.146 80.279c.259.146.528.378.735.577 1.462 1.4 1.507 3.891-1.698 5.512-2.903 1.47-6.43 1.996-8.264.937-1.834-1.06-1.108-3.196 1.622-4.772 2.73-1.576 5.754-3.303 7.605-2.254z" fill="#F9F9F9"/><path d="M75.85 82.71c-1.466.847-4.407 3.014-5.175 3.457-1.356.784-1.605 1.91-.555 2.517.506.292 1.221.406 1.976.363 0 0 1.825.001 3.028-1.2.526-.525.27-2.022 2.1-3.34.91-.657 3.622-1.308 7.014-3.244-.167-.264-.353-.406-.353-.406-1.836-1.06-5.305.278-8.035 1.854z" fill="#389D2D"/><path d="M83.88 80.856s1.577-1.373 1.19-3.017c-.454-1.917-2.66-2.974-2.66-2.974-1.265-2.408-5.718-2.778-5.718-2.778-3.058-1.547-6.02-1.21-6.02-1.21-3.887-.914-7.169.132-7.169.132-4.34-.197-7.812 1.895-7.812 1.895s-4.541 1.216-7.735 4.64c-.528.567-2.529 2.332-3.246 4.053-2.26 5.426 2.863 8.893 3.85 9.368 5.508 2.659 9.96 1.133 12.753.131 1.962.523 6.547.926 9.057-1.655 3.548-2.92 4.076-4.707 5.132-5.317 1.058-.61 5.133-1.656 8.378-3.268z" fill="#EEE"/><path d="M64.872 82.444c.972-1.874 2.22-2.472 3.321-3.002.35-.169.676-.33.98-.509 1.757-1.061 2.455-2.338 2.367-3.133-.018-.095-.098-.183-.225-.245a.98.98 0 0 0-.455-.087.89.89 0 0 0-.432.12c-.112.07-.172.164-.168.26.069.612-.531 1.679-2.013 2.574-.263.162-.563.303-.872.451-1.183.567-2.65 1.272-3.73 3.359-.278.535-.983 1.082-1.787 1.65-4.862-.509-6.166-2.644-6.42-3.186.035-.018.079-.03.113-.05.363-.21.638-.471.781-.77.04-.093.014-.19-.07-.274a.708.708 0 0 0-.38-.169 1.068 1.068 0 0 0-.478.032c-.146.046-.256.123-.305.214-.128.255-.418.473-.813.61a3.006 3.006 0 0 1-1.313.129 1.035 1.035 0 0 0-.466.058c-.136.053-.232.135-.267.228-.035.092-.007.19.078.27.086.082.222.141.381.166a5.14 5.14 0 0 0 1.617-.058c.486.825 2.11 2.797 6.632 3.44-1.081.76-2.113 1.551-2.447 2.444a3.13 3.13 0 0 0-.079 1.918c-.667.273-3.266 1.18-5.945.054.05-.232.001-.472-.172-.702a.45.45 0 0 0-.142-.119.796.796 0 0 0-.21-.078 1.074 1.074 0 0 0-.49.004.765.765 0 0 0-.205.082.427.427 0 0 0-.136.122.238.238 0 0 0-.045.142c.002.048.02.096.053.14a.385.385 0 0 1 .094.24.378.378 0 0 1-.088.24.796.796 0 0 1-.266.19c-.112.051-.241.088-.38.109a.88.88 0 0 0-.222.066.53.53 0 0 0-.162.11c-.082.085-.102.187-.056.28.047.095.157.175.305.223.148.047.324.059.487.032.4-.066.748-.183 1.022-.341.033-.02.05-.046.081-.067 2.617 1.013 5.304.57 6.816.032.18.29.444.559.78.797a.859.859 0 0 0 .434.13.984.984 0 0 0 .468-.084l.043-.023c.113-.065.18-.152.187-.245.006-.092-.047-.183-.15-.253-1-.691-1.1-1.959-.771-2.844.31-.829 1.47-1.635 2.592-2.416 1.09-.756 2.12-1.471 2.528-2.261zm10.29-7.514c.048.094.159.173.308.22.149.047.324.058.487.03a.689.689 0 0 0 .383-.177c.081-.086.1-.187.052-.281-.013-.028-1.455-2.767-6.625-2.182a.77.77 0 0 0-.408.156c-.095.082-.13.181-.097.278.032.096.13.18.27.235.142.055.315.075.481.056 4.005-.453 5.104 1.578 5.15 1.665zm-26.084 6.616a.41.41 0 0 0 .156-.148.223.223 0 0 0 .023-.173c-.514-1.813 1.93-2.502 2.036-2.53.148-.043.262-.118.316-.208.055-.09.047-.19-.023-.277a.621.621 0 0 0-.35-.19 1.082 1.082 0 0 0-.48.004c-1.192.316-3.301 1.417-2.763 3.32.02.068.07.13.147.182a.78.78 0 0 0 .29.11c.111.02.23.023.345.008a.845.845 0 0 0 .303-.098zm10.129-7.823c1.851-1.258 4.228-.944 4.339-.928.164.025.34.01.486-.039a.652.652 0 0 0 .187-.096.348.348 0 0 0 .109-.13.22.22 0 0 0 .014-.144.289.289 0 0 0-.082-.136.551.551 0 0 0-.166-.108.904.904 0 0 0-.226-.063c-.131-.02-3.222-.46-5.635 1.164a.384.384 0 0 0-.122.126.226.226 0 0 0-.03.143c.014.098.094.188.223.252s.297.095.466.088a.867.867 0 0 0 .437-.129zm21.52 2.856c-.236.121-.305.365-.075.52.015.011 1.412.984.348 2.199-.07.079-.09.17-.055.256.035.086.123.162.248.214.124.052.277.076.43.068a.89.89 0 0 0 .402-.11.47.47 0 0 0 .12-.095c1.443-1.647-.434-2.954-.514-3.01a.703.703 0 0 0-.196-.09 1.087 1.087 0 0 0-.49-.023.852.852 0 0 0-.218.07z" fill="#389D2D"/><path d="M53.908 86.98c.04.044.095.083.162.114a.872.872 0 0 0 .226.069 1.1 1.1 0 0 0 .497-.035.658.658 0 0 0 .191-.098.344.344 0 0 0 .11-.133.22.22 0 0 0 .012-.147.298.298 0 0 0-.089-.138c-.226-.232-.293-.504-.186-.763.108-.258.38-.484.764-.631a.612.612 0 0 0 .179-.101.321.321 0 0 0 .097-.133.218.218 0 0 0 .003-.144.31.31 0 0 0-.093-.134.592.592 0 0 0-.175-.103.94.94 0 0 0-.23-.057 1.106 1.106 0 0 0-.25-.001.956.956 0 0 0-.232.054c-.453.173-.817.414-1.052.697-2.862-.433-4.437-1.58-4.454-1.592a.82.82 0 0 0-.423-.142 1.01 1.01 0 0 0-.474.073c-.134.06-.222.147-.245.244-.023.096.021.194.123.273.076.057 1.844 1.357 5.141 1.856-.031.34.107.677.398.973zm7.887-7.136c.017-.2.163-.388.41-.528.247-.14.576-.22.922-.225a.915.915 0 0 0 .45-.113c.118-.07.183-.165.18-.263-.002-.098-.072-.191-.194-.26a.939.939 0 0 0-.455-.104c-.4.005-.79.065-1.143.173-.652-.686-1.167-.86-2.181-1.159a37.616 37.616 0 0 1-.593-.178l-.118-.036c-1.424-.442-2.364-.733-2.756-1.683-.04-.095-.143-.178-.288-.229a1.055 1.055 0 0 0-.484-.045.734.734 0 0 0-.397.166c-.089.084-.117.184-.077.28.525 1.274 1.856 1.686 3.398 2.163l.118.036c.228.07.433.132.615.185.913.27 1.212.363 1.772 1.002-.281.233-.44.508-.458.792-.002.097.061.19.177.26.115.07.274.11.44.114a.955.955 0 0 0 .455-.096c.123-.066.198-.156.207-.252zm3.062-4.89c.27-.154.476-.342.605-.549.057-.092.049-.194-.023-.282a.635.635 0 0 0-.363-.19 1.077 1.077 0 0 0-.49.012c-.154.042-.272.118-.33.21-.12.187-.36.342-.669.431a2.3 2.3 0 0 1-.998.054 1.09 1.09 0 0 0-.499.021.702.702 0 0 0-.199.092.374.374 0 0 0-.12.13.223.223 0 0 0-.024.147c.01.049.035.096.077.14a.535.535 0 0 0 .166.112c.068.03.145.052.228.065.468.082.95.08 1.4.013.695.963 2.227 1.529 3.118 1.783a1.087 1.087 0 0 0 .499.028.846.846 0 0 0 .224-.072.494.494 0 0 0 .157-.117.23.23 0 0 0 .03-.289.406.406 0 0 0-.134-.126.749.749 0 0 0-.207-.086c-.604-.173-2.038-.66-2.562-1.477.037-.019.08-.03.114-.05zm12.884 2.422a.824.824 0 0 0-.216-.073 1.074 1.074 0 0 0-.49.019.715.715 0 0 0-.198.088 2.618 2.618 0 0 1-.724.323 3.958 3.958 0 0 1-1.79.069 3.06 3.06 0 0 1-.792-.265 1 1 0 0 0-.464-.087.902.902 0 0 0-.44.123.392.392 0 0 0-.124.125.229.229 0 0 0-.032.143.261.261 0 0 0 .065.14.49.49 0 0 0 .153.114c.572.287 1.257.448 1.959.495.129.915-.581 1.606-1.05 1.95-.415.303-.874.513-1.405.755-.486.223-1.035.474-1.627.837l-.004.003a3.962 3.962 0 0 0-1.227-.39 1.035 1.035 0 0 0-.46.06c-.134.052-.23.132-.266.223-.036.092-.011.188.07.27a.697.697 0 0 0 .37.168c.316.042.65.209.8.296-.292.358-.446.725-.57 1.066-.223.607-.397 1.087-1.324 1.425-.841.305-1.559.682-2.059 1.065a4.622 4.622 0 0 0-1.163-.146.906.906 0 0 0-.447.115c-.117.072-.18.167-.175.265.005.098.077.19.2.258a.947.947 0 0 0 .459.101c.15-.003.32.023.476.056-.588.815-.401 1.5-.391 1.534.02.066.07.129.147.18a.78.78 0 0 0 .289.11c.112.02.231.023.345.007a.842.842 0 0 0 .301-.098.413.413 0 0 0 .158-.147.224.224 0 0 0 .024-.173c-.003-.006-.171-.678.54-1.4.368-.373 1.108-.786 1.978-1.102.244-.089.443-.186.624-.287.282.065.549.182.64.23a.958.958 0 0 0 .445.093.919.919 0 0 0 .435-.108l.023-.014c.113-.073.172-.169.164-.266-.009-.098-.084-.19-.209-.255a4.653 4.653 0 0 0-.74-.291c.267-.328.394-.675.513-1 .18-.494.351-.962.97-1.343.518-.32 1.011-.546 1.488-.764.479-.219.933-.444 1.372-.728.311.085.611.265.7.332a.687.687 0 0 0 .208.1 1.083 1.083 0 0 0 .526.019.803.803 0 0 0 .227-.085c.11-.063.175-.148.185-.237.01-.09-.036-.178-.13-.25a3.81 3.81 0 0 0-.943-.481c.607-.604.883-1.3.792-1.996.726-.099 1.381-.326 1.874-.65.111-.073.167-.17.156-.267-.011-.098-.089-.189-.216-.254z" fill="#389D2D"/></g><path fill-rule="evenodd" clip-rule="evenodd" d="M176.724 1.83c4.226-2.44 11.079-2.44 15.306 0l53.494 30.874a4.999 4.999 0 0 1 2.501 4.318L249 437.786c0 4.879-3.426 10.811-7.653 13.251l-49.974 28.446a16.001 16.001 0 0 1-15.913-.047l-48.03-27.721c-4.226-2.439-7.653-8.371-7.653-13.25l.002-399.968a5 5 0 0 1 2.447-4.3L176.724 1.83zm13.775.883 53.495 30.874a5 5 0 0 1 2.5 4.318l.976 400.764-.008.369c-.164 3.828-2.839 8.342-6.115 10.232l-55.692 31.537-1.045.671a2.353 2.353 0 0 1-2.449.058l-54.731-31.587c-3.275-1.891-5.95-6.404-6.115-10.233l-.007-.368V39.38a5 5 0 0 1 2.447-4.299l54.499-32.368.323-.178c3.399-1.772 8.647-1.713 11.922.178z" fill="#4C4C4C"/><path fill-rule="evenodd" clip-rule="evenodd" d="m190.499 2.713 53.495 30.874a5 5 0 0 1 2.5 4.318l.976 400.764-.008.369c-.164 3.828-2.839 8.342-6.115 10.232l-55.692 31.537 1.488-395.84a2.491 2.491 0 1 0-4.982-.01v396.579l-54.731-31.587c-3.275-1.891-5.95-6.404-6.115-10.233l-.007-.368V39.38a5 5 0 0 1 2.447-4.299l54.499-32.368.323-.178c3.399-1.772 8.647-1.713 11.922.178z" fill="#4C4C4C"/><path d="M182.161 481.536a2.353 2.353 0 0 0 2.449-.058l1.045-.671 1.488-395.84a2.491 2.491 0 1 0-4.982-.01v396.579z" fill="#7D7D7D"/><g filter="url(#d)"><rect width="65.133" height="63.433" rx="5" transform="scale(1.2243 .70788) rotate(-45 120.615 -98.279)" fill="#4C4C4C"/></g><rect x=".866" width="64.133" height="62.433" rx="4.5" transform="scale(1.2243 .70788) rotate(-45 121.401 -98.087)" stroke="#DDD"/><g clip-path="url(#e)"><path d="M195.363 47.786c-.571.33-1.253.504-2.046.522-.793.018-1.507-.107-2.143-.376l-2.38-1.044c-.381.098-.767.174-1.158.229-.391.054-.788.1-1.191.137l-1.143 1.613c-.296.44-.804.757-1.523.953a5.558 5.558 0 0 1-2.253.128l-4.095-.641c-.782-.11-1.385-.36-1.809-.752-.423-.39-.592-.818-.507-1.282l.412-1.704a4.542 4.542 0 0 1-.461-.23l-.857-.495a3.607 3.607 0 0 1-.396-.265l-2.951.238c-.804.05-1.545-.049-2.222-.293s-1.111-.592-1.301-1.044l-1.111-2.364c-.19-.452-.116-.886.222-1.301.339-.415.889-.709 1.65-.88l2.793-.66a4.76 4.76 0 0 1 .254-.696c.106-.232.233-.452.381-.66l-1.809-1.374c-.465-.366-.682-.779-.65-1.237.032-.458.334-.852.904-1.181l2.983-1.723c.572-.33 1.254-.504 2.048-.522.794-.019 1.508.106 2.142.376l2.38 1.044c.381-.098.767-.174 1.159-.23.392-.055.789-.1 1.19-.136l1.142-1.613c.297-.44.804-.757 1.524-.953a5.558 5.558 0 0 1 2.253-.128l4.094.641c.783.11 1.386.36 1.809.752.424.39.593.818.508 1.282l-.412 1.704c.169.074.323.15.46.23l.856.494c.138.08.26.174.366.284l2.951-.238c.804-.049 1.545.049 2.222.293.677.245 1.111.593 1.301 1.045l1.079 2.382c.191.452.117.885-.222 1.3-.338.416-.888.71-1.65.88l-2.73.623a4.54 4.54 0 0 1-.254.697 3.917 3.917 0 0 1-.38.66l1.809 1.374c.465.366.682.778.651 1.236-.031.458-.333.852-.905 1.182l-2.984 1.723zm-6.696-5.662c1.227-.709 1.84-1.564 1.84-2.566 0-1.001-.613-1.856-1.84-2.565-1.228-.709-2.709-1.063-4.444-1.063-1.735 0-3.216.355-4.443 1.063-1.248.72-1.867 1.579-1.857 2.575.01.996.629 1.848 1.857 2.556s2.704 1.065 4.428 1.071c1.724.007 3.21-.35 4.459-1.071z" fill="#389D2D"/></g><path fill-rule="evenodd" clip-rule="evenodd" d="M115.837 162.765c4.227-2.439 11.079-2.439 15.306 0l53.497 30.876a5 5 0 0 1 2.501 4.313l.973 289.812c0 4.879-3.427 10.811-7.653 13.251l-55.454 31.565a5 5 0 0 1-4.973-.015l-53.49-30.872c-4.227-2.439-7.653-8.371-7.653-13.25l.001-289.013a5 5 0 0 1 2.447-4.299l54.498-32.368zm13.775.883 53.498 30.876a5 5 0 0 1 2.5 4.314l.973 289.811-.007.369c-.165 3.828-2.84 8.342-6.115 10.232l-56.192 31.986a3.516 3.516 0 0 1-3.499-.011l-.494-.285-53.732-31.011c-3.276-1.891-5.951-6.404-6.115-10.232l-.008-.369V200.315c0-1.764.93-3.398 2.447-4.298l54.5-32.369.323-.177c3.398-1.773 8.646-1.713 11.921.177z" fill="url(#f)"/><path fill-rule="evenodd" clip-rule="evenodd" d="m129.612 163.648 53.498 30.876a5 5 0 0 1 2.5 4.314l.973 289.811-.007.369c-.165 3.828-2.84 8.342-6.115 10.232l-56.192 31.986V241.4a1.996 1.996 0 0 0-3.993 0v289.54l-53.732-31.011c-3.276-1.891-5.951-6.404-6.115-10.232l-.008-.369V200.315c0-1.764.93-3.398 2.447-4.298l54.5-32.369.323-.177c3.398-1.773 8.646-1.713 11.921.177z" fill="#EEE"/><path d="m120.276 530.94.494.285a3.516 3.516 0 0 0 3.499.011V241.4a1.996 1.996 0 0 0-3.993 0v289.54z" fill="#C7C7C7"/><g filter="url(#g)"><rect width="65.133" height="63.433" rx="5" transform="scale(1.2243 .70788) rotate(-45 370.335 74.994)" fill="#EEE"/></g><rect x=".866" width="64.133" height="62.433" rx="4.5" transform="scale(1.2243 .70788) rotate(-45 371.123 75.186)" stroke="#DDD"/><path d="m143.212 196.175-11.03 1.873-3.243 6.367 11.029-1.873 3.244-6.367z" fill="#389D2D"/><path fill-rule="evenodd" clip-rule="evenodd" d="m123.515 207.547 8.382-1.424 3.529 2.038-9.083 5.244c-1.44.832-3.75.832-5.19 0l-20.761-11.986c-.688-.398-1.075-.937-1.075-1.499s.387-1.101 1.075-1.498l1.298-.749 9.083 5.244 1.297-2.997 5.19-.749-9.083-5.244 7.786-4.495c.688-.397 1.622-.62 2.595-.62.973 0 1.907.223 2.595.62l11.081 6.398-3.01.509-5.709 11.208z" fill="#4C4C4C"/><path d="m134.246 204.483 2.595 1.498 7.02-1.191 2.063-4.053-2.595-1.498-2.064 4.053-7.019 1.191z" fill="#389D2D"/><defs><filter id="b" x="11.52" y="50.831" width="106.23" height="65.421" filterUnits="userSpaceOnUse" color-interpolation-filters="sRGB"><feFlood flood-opacity="0" result="BackgroundImageFix"/><feBlend in="SourceGraphic" in2="BackgroundImageFix" result="shape"/><feColorMatrix in="SourceAlpha" values="0 0 0 0 0 0 0 0 0 0 0 0 0 0 0 0 0 0 127 0" result="hardAlpha"/><feMorphology radius="1" operator="dilate" in="SourceAlpha" result="effect1_innerShadow_4192_5787"/><feOffset dy="4"/><feGaussianBlur stdDeviation="4.5"/><feComposite in2="hardAlpha" operator="arithmetic" k2="-1" k3="1"/><feColorMatrix values="0 0 0 0 0.144197 0 0 0 0 0.170861 0 0 0 0 0.141234 0 0 0 0.6 0"/><feBlend in2="shape" result="effect1_innerShadow_4192_5787"/></filter><filter id="d" x="130.867" y="8.861" width="106.23" height="65.421" filterUnits="userSpaceOnUse" color-interpolation-filters="sRGB"><feFlood flood-opacity="0" result="BackgroundImageFix"/><feBlend in="SourceGraphic" in2="BackgroundImageFix" result="shape"/><feColorMatrix in="SourceAlpha" values="0 0 0 0 0 0 0 0 0 0 0 0 0 0 0 0 0 0 127 0" result="hardAlpha"/><feMorphology radius="1" operator="dilate" in="SourceAlpha" result="effect1_innerShadow_4192_5787"/><feOffset dy="4"/><feGaussianBlur stdDeviation="4.5"/><feComposite in2="hardAlpha" operator="arithmetic" k2="-1" k3="1"/><feColorMatrix values="0 0 0 0 0.0599835 0 0 0 0 0.0599666 0 0 0 0 0.0599666 0 0 0 0.6 0"/><feBlend in2="shape" result="effect1_innerShadow_4192_5787"/></filter><filter id="g" x="70.41" y="169.783" width="106.23" height="65.421" filterUnits="userSpaceOnUse" color-interpolation-filters="sRGB"><feFlood flood-opacity="0" result="BackgroundImageFix"/><feBlend in="SourceGraphic" in2="BackgroundImageFix" result="shape"/><feColorMatrix in="SourceAlpha" values="0 0 0 0 0 0 0 0 0 0 0 0 0 0 0 0 0 0 127 0" result="hardAlpha"/><feMorphology radius="1" operator="dilate" in="SourceAlpha" result="effect1_innerShadow_4192_5787"/><feOffset dy="4"/><feGaussianBlur stdDeviation="4.5"/><feComposite in2="hardAlpha" operator="arithmetic" k2="-1" k3="1"/><feColorMatrix values="0 0 0 0 0.144197 0 0 0 0 0.170861 0 0 0 0 0.141234 0 0 0 0.6 0"/><feBlend in2="shape" result="effect1_innerShadow_4192_5787"/></filter><linearGradient id="a" x1="-8.633" y1="119.358" x2="161.036" y2="119.358" gradientUnits="userSpaceOnUse"><stop stop-color="#737373" stop-opacity=".11"/><stop offset="1" stop-color="#D9D9D9" stop-opacity=".2"/></linearGradient><linearGradient id="f" x1="50.257" y1="238.31" x2="219.927" y2="238.31" gradientUnits="userSpaceOnUse"><stop stop-color="#737373" stop-opacity=".11"/><stop offset="1" stop-color="#D9D9D9" stop-opacity=".2"/></linearGradient><clipPath id="c"><path fill="#fff" transform="matrix(.86603 -.5 .86603 .5 31.918 81.967)" d="M0 0h37.649v37.649H0z"/></clipPath><clipPath id="e"><path fill="#fff" transform="matrix(.86603 -.5 .86603 .5 153.691 39.595)" d="M0 0h35.182v35.182H0z"/></clipPath></defs></svg>