<svg width="249" height="534" viewBox="0 0 249 534" fill="none" xmlns="http://www.w3.org/2000/svg">
<path fill-rule="evenodd" clip-rule="evenodd" d="M56.9464 43.8129C61.1731 41.3736 68.0258 41.3736 72.2524 43.8129L125.748 74.6874C127.291 75.5781 128.244 77.2227 128.248 79.0045L129.223 442.784C129.223 447.663 125.797 453.596 121.57 456.035L66.1166 487.6C64.5739 488.479 62.6812 488.473 61.1438 487.586L7.653 456.714C3.42639 454.274 3.16366e-05 448.342 0 443.463L0.00169912 80.4799C0.00170738 78.7156 0.931523 77.0819 2.44843 76.181L56.9464 43.8129ZM70.7218 44.6963L124.217 75.5708C125.76 76.4615 126.713 78.1061 126.718 79.8879L127.692 443.668L127.685 444.036C127.521 447.865 124.845 452.378 121.57 454.268L65.3783 486.254C64.2929 486.872 62.9613 486.868 61.8796 486.244L61.3857 485.959L7.653 454.947C4.37748 453.056 1.70223 448.543 1.53808 444.715L1.5306 444.346V81.3633C1.5306 79.599 2.46045 77.9653 3.97739 77.0644L58.477 44.6963L58.7999 44.5186C62.1987 42.7462 67.4462 42.8058 70.7218 44.6963Z" fill="url(#paint0_linear_4192_5787)"/>
<path fill-rule="evenodd" clip-rule="evenodd" d="M70.7218 44.6963L124.217 75.5708C125.76 76.4615 126.713 78.1061 126.718 79.8879L127.692 443.668L127.685 444.036C127.521 447.865 124.845 452.378 121.57 454.268L65.3783 486.254V122.448C65.3783 121.346 64.4845 120.452 63.382 120.452C62.2795 120.452 61.3857 121.346 61.3857 122.448V485.959L7.653 454.947C4.37748 453.056 1.70223 448.543 1.53808 444.715L1.5306 444.346V81.3633C1.5306 79.599 2.46045 77.9653 3.97739 77.0644L58.477 44.6963L58.7999 44.5186C62.1987 42.7462 67.4462 42.8058 70.7218 44.6963Z" fill="#389D2D"/>
<path d="M61.3857 485.959L61.8796 486.244C62.9613 486.868 64.2929 486.872 65.3783 486.254V122.448C65.3783 121.346 64.4845 120.452 63.382 120.452C62.2795 120.452 61.3857 121.346 61.3857 122.448V485.959Z" fill="#A2EC99"/>
<g filter="url(#filter0_i_4192_5787)">
<rect width="65.1328" height="63.4333" rx="5" transform="matrix(0.865709 -0.500547 0.865709 0.500547 8.98438 81.9673)" fill="#389D2D"/>
</g>
<rect x="0.865709" width="64.1328" height="62.4333" rx="4.5" transform="matrix(0.865709 -0.500547 0.865709 0.500547 9.10063 82.4006)" stroke="#DDDDDD"/>
<g clip-path="url(#clip0_4192_5787)">
<path d="M83.1459 80.279C83.405 80.4254 83.6739 80.6571 83.8813 80.8563C85.3431 82.2556 85.3875 84.7472 82.1832 86.3682C79.2796 87.8375 75.7528 88.3635 73.9188 87.3047C72.0848 86.2458 72.8112 84.1092 75.5409 82.5332C78.2706 80.9572 81.2947 79.2301 83.1459 80.279Z" fill="#F9F9F9"/>
<path d="M75.8505 82.7108C74.3842 83.5574 71.4434 85.7238 70.6754 86.1672C69.3187 86.9505 69.0696 88.0773 70.1202 88.6839C70.6256 88.9757 71.3411 89.0897 72.0964 89.0468C72.0964 89.0468 73.9213 89.0484 75.1241 87.8478C75.6503 87.3223 75.3931 85.8247 77.2235 84.5065C78.1346 83.8497 80.8462 83.1992 84.238 81.2629C84.0714 80.9994 83.8848 80.8572 83.8848 80.8572C82.049 79.7973 78.5802 81.1348 75.8505 82.7108Z" fill="#389D2D"/>
<path d="M83.8801 80.8562C83.8801 80.8562 85.4569 79.4825 85.0693 77.8386C84.6164 75.9216 82.4093 74.8648 82.4093 74.8648C81.1449 72.4574 76.6917 72.0867 76.6917 72.0867C73.6341 70.5399 70.6725 70.8777 70.6725 70.8777C66.7853 69.9627 63.5031 71.0085 63.5031 71.0085C59.1639 70.8124 55.6915 72.904 55.6915 72.904C55.6915 72.904 51.1495 74.1197 47.9561 77.5447C47.4281 78.111 45.4274 79.8758 44.7101 81.5971C42.4495 87.0227 47.573 90.4901 48.5593 90.9654C54.0677 93.6238 58.5209 92.0985 61.3131 91.0961C63.2749 91.619 67.8603 92.0222 70.37 89.4406C73.9176 86.5213 74.4456 84.7345 75.5025 84.1243C76.5595 83.5141 80.635 82.4683 83.8801 80.8562Z" fill="#EEEEEE"/>
<path d="M64.8718 82.4437C65.8436 80.5702 67.0926 79.9715 68.193 79.4418C68.5426 79.2734 68.8686 79.1113 69.1738 78.933C70.93 77.872 71.6282 76.5946 71.5395 75.7998C71.5223 75.7046 71.4419 75.6169 71.3153 75.5552C71.1886 75.4934 71.0255 75.4624 70.86 75.4685C70.6946 75.4747 70.5397 75.5176 70.4278 75.5882C70.3159 75.6588 70.2557 75.7517 70.2598 75.8474C70.3286 76.4602 69.729 77.5269 68.2473 78.4221C67.9838 78.5837 67.684 78.7254 67.3751 78.8734C66.1923 79.4402 64.7251 80.1451 63.6446 82.232C63.3675 82.7674 62.662 83.3138 61.8577 83.8827C56.996 83.3734 55.6918 81.2379 55.4382 80.6962C55.4735 80.6779 55.517 80.6654 55.5514 80.6455C55.9137 80.4363 56.189 80.1749 56.3321 79.8768C56.3714 79.7835 56.3463 79.6851 56.2621 79.6023C56.178 79.5195 56.0413 79.4589 55.8811 79.4332C55.7209 79.4075 55.5496 79.4188 55.4036 79.4647C55.2576 79.5106 55.1482 79.5875 55.0986 79.6792C54.9705 79.9342 54.6805 80.152 54.2864 80.289C53.8923 80.4259 53.4233 80.472 52.9729 80.418C52.8106 80.4021 52.6439 80.4228 52.5074 80.476C52.3709 80.5292 52.2751 80.6106 52.2399 80.7035C52.2047 80.7963 52.2328 80.8935 52.3184 80.9747C52.4039 81.0559 52.5404 81.115 52.6994 81.1396C53.2501 81.2097 53.8053 81.1809 54.3161 81.0816C54.8024 81.9072 56.4263 83.8791 60.9484 84.5217C59.867 85.282 58.8354 86.0732 58.5012 86.9658C58.2739 87.5972 58.2472 88.2473 58.4224 88.8843C57.7549 89.1567 55.1556 90.0644 52.4766 88.9381C52.5273 88.706 52.4784 88.4665 52.3054 88.2359C52.272 88.1913 52.2237 88.151 52.1633 88.1172C52.1029 88.0834 52.0315 88.0568 51.9533 88.0389C51.8751 88.0211 51.7916 88.0123 51.7075 88.013C51.6234 88.0138 51.5403 88.0241 51.4632 88.0434C51.386 88.0627 51.3161 88.0906 51.2576 88.1255C51.1991 88.1604 51.153 88.2016 51.1221 88.2467C51.0911 88.2919 51.0759 88.3401 51.0772 88.3887C51.0785 88.4372 51.0964 88.4852 51.1299 88.5297C51.191 88.6044 51.2232 88.6859 51.2243 88.7686C51.2254 88.8512 51.1953 88.933 51.1362 89.0082C51.0719 89.0819 50.981 89.1468 50.8696 89.1985C50.7582 89.2502 50.6289 89.2874 50.4904 89.3078C50.4096 89.3211 50.334 89.3435 50.2681 89.3737C50.2022 89.4039 50.1473 89.4412 50.1064 89.4837C50.0239 89.5694 50.0037 89.6705 50.0503 89.7648C50.0969 89.8591 50.2065 89.9389 50.3549 89.9865C50.5034 90.0342 50.6785 90.0459 50.8419 90.019C51.2422 89.9531 51.5899 89.8359 51.8635 89.678C51.897 89.6587 51.9133 89.6315 51.945 89.6111C54.5615 90.6239 57.2487 90.1811 58.7612 89.6435C58.9418 89.9324 59.2055 90.2016 59.541 90.4399C59.65 90.515 59.8063 90.5621 59.9755 90.5707C60.1447 90.5794 60.3128 90.5489 60.443 90.4859L60.4856 90.4634C60.5988 90.3981 60.6654 90.3106 60.6725 90.2183C60.6795 90.1259 60.6264 90.0354 60.5236 89.9646C59.5228 89.2738 59.4232 88.0063 59.752 87.1211C60.0626 86.2923 61.2219 85.486 62.3441 84.7053C63.4345 83.9492 64.4634 83.2338 64.8718 82.4437ZM75.1622 74.9297C75.21 75.0239 75.3207 75.1032 75.4698 75.1503C75.6189 75.1973 75.7943 75.2083 75.9574 75.1807C76.1205 75.1531 76.2579 75.0892 76.3395 75.0031C76.421 74.917 76.44 74.8157 76.3922 74.7216C76.3786 74.6939 74.9367 71.9549 69.7671 72.5395C69.6004 72.5584 69.4535 72.6147 69.3587 72.6961C69.2639 72.7775 69.229 72.8773 69.2617 72.9735C69.2944 73.0698 69.3919 73.1546 69.5329 73.2093C69.6739 73.264 69.8467 73.2842 70.0134 73.2653C74.0183 72.8125 75.1169 74.8429 75.1622 74.9297ZM49.0776 81.5459C49.1494 81.5044 49.2032 81.4537 49.2344 81.3979C49.2655 81.3421 49.2733 81.2827 49.2569 81.2249C48.7434 79.412 51.1869 78.7228 51.2929 78.6951C51.4412 78.6519 51.5548 78.5772 51.6095 78.4866C51.6642 78.3961 51.6558 78.2968 51.5861 78.2097C51.5164 78.1227 51.3909 78.0546 51.2359 78.02C51.081 77.9854 50.9089 77.9869 50.7558 78.0242C49.5639 78.34 47.4546 79.4407 47.9935 81.3446C48.0127 81.4116 48.0635 81.4743 48.1404 81.5257C48.2173 81.5771 48.3172 81.6153 48.4292 81.6361C48.5412 81.6569 48.6609 81.6595 48.7753 81.6436C48.8897 81.6277 48.9943 81.5939 49.0776 81.5459ZM59.2068 73.7234C61.058 72.4653 63.4354 72.7795 63.5459 72.7952C63.7104 72.8199 63.8852 72.8058 64.0318 72.7561C64.1044 72.7315 64.1679 72.6989 64.2186 72.6601C64.2693 72.6213 64.3063 72.5771 64.3275 72.5301C64.3487 72.4831 64.3536 72.4341 64.342 72.386C64.3304 72.3378 64.3024 72.2915 64.2598 72.2496C64.2172 72.2077 64.1606 72.171 64.0935 72.1417C64.0263 72.1124 63.9498 72.0911 63.8683 72.0788C63.737 72.0595 60.6459 71.6197 58.2332 73.2428C58.1785 73.2797 58.137 73.3225 58.1109 73.3687C58.0849 73.4148 58.0749 73.4635 58.0815 73.5119C58.0947 73.6097 58.1747 73.7004 58.3038 73.7641C58.4329 73.8279 58.6006 73.8594 58.7699 73.8517C58.9392 73.8441 59.0964 73.7979 59.2068 73.7234ZM80.7268 76.5789C80.4913 76.7002 80.4225 76.9439 80.6525 77.0997C80.667 77.1102 82.0636 78.0828 81.0003 79.298C80.9292 79.3766 80.9096 79.4673 80.9449 79.5536C80.9802 79.6398 81.0681 79.7159 81.1926 79.7678C81.317 79.8197 81.4697 79.844 81.6226 79.8363C81.7756 79.8286 81.9186 79.7893 82.0255 79.7257C82.0735 79.698 82.1135 79.666 82.1442 79.6311C83.5878 77.9839 81.7112 76.6767 81.6306 76.6218C81.5762 76.5846 81.5097 76.5541 81.4348 76.5318C81.3599 76.5096 81.2781 76.496 81.1941 76.4921C81.1101 76.4881 81.0256 76.4937 80.9454 76.5086C80.8653 76.5235 80.7909 76.5474 80.7268 76.5789Z" fill="#389D2D"/>
<path d="M53.9078 86.9805C53.9481 87.0244 54.0032 87.0631 54.07 87.0943C54.1367 87.1256 54.2137 87.1488 54.2963 87.1625C54.3789 87.1762 54.4654 87.1802 54.5507 87.1743C54.6361 87.1683 54.7184 87.1524 54.7929 87.1277C54.8674 87.1029 54.9325 87.0698 54.9843 87.0302C55.0362 86.9906 55.0737 86.9454 55.0946 86.8973C55.1155 86.8491 55.1195 86.7991 55.1062 86.75C55.0929 86.701 55.0626 86.654 55.0172 86.6119C54.7906 86.3804 54.7243 86.1079 54.8315 85.8493C54.9387 85.5907 55.2115 85.3651 55.5951 85.2179C55.6655 85.1913 55.7261 85.157 55.7736 85.1169C55.821 85.0767 55.8543 85.0316 55.8715 84.9841C55.8888 84.9366 55.8896 84.8875 55.8741 84.8398C55.8585 84.7921 55.8268 84.7466 55.7807 84.7059C55.7347 84.6653 55.6753 84.6303 55.6058 84.6029C55.5363 84.5755 55.4582 84.5563 55.3759 84.5463C55.2935 84.5364 55.2086 84.5359 55.1259 84.5449C55.0433 84.5539 54.9645 84.5722 54.8941 84.5987C54.4406 84.7721 54.0769 85.0131 53.8417 85.2963C50.9797 84.8633 49.4047 83.7166 49.3884 83.7041C49.2854 83.6261 49.1329 83.575 48.9646 83.562C48.7963 83.5489 48.6259 83.575 48.4909 83.6345C48.357 83.6942 48.2691 83.7819 48.2463 83.8786C48.2234 83.9754 48.2673 84.0735 48.3686 84.1517C48.4447 84.2092 50.2126 85.5091 53.5102 86.0085C53.4788 86.3478 53.6168 86.6852 53.9078 86.9805ZM61.7954 79.8435C61.812 79.6442 61.9584 79.4559 62.2053 79.3163C62.4522 79.1766 62.7813 79.096 63.1268 79.0905C63.2966 79.089 63.4584 79.0486 63.5766 78.9782C63.6948 78.9078 63.7598 78.8131 63.7571 78.7151C63.7547 78.6171 63.6849 78.5236 63.5632 78.4552C63.4414 78.3869 63.2776 78.3493 63.1077 78.3506C62.7085 78.3563 62.3171 78.4157 61.9648 78.5242C61.3127 77.8382 60.7982 77.6636 59.7839 77.3655C59.5849 77.3075 59.3871 77.248 59.1906 77.1872L59.0729 77.1506C57.6492 76.7093 56.7091 76.4185 56.3169 75.4684C56.2775 75.373 56.1741 75.2905 56.0294 75.2392C55.8847 75.1878 55.7105 75.1717 55.5453 75.1944C55.38 75.2172 55.2372 75.2769 55.1482 75.3604C55.0592 75.444 55.0313 75.5445 55.0707 75.6399C55.596 76.9137 56.9273 77.3258 58.4688 77.8026L58.5866 77.8392C58.8148 77.9097 59.0201 77.9714 59.2024 78.0244C60.1154 78.2931 60.4142 78.3872 60.9739 79.0262C60.6927 79.2592 60.5336 79.5341 60.5157 79.8179C60.5137 79.9145 60.5772 80.0077 60.6928 80.0776C60.8083 80.1475 60.9666 80.1885 61.1338 80.1918C61.3011 80.1952 61.4639 80.1606 61.5876 80.0955C61.7112 80.0304 61.7858 79.94 61.7954 79.8435ZM64.8566 74.9544C65.1264 74.7996 65.333 74.6121 65.4616 74.4054C65.5191 74.3131 65.5108 74.2114 65.4385 74.1226C65.3661 74.0339 65.2356 73.9654 65.0758 73.9322C64.9159 73.8989 64.7398 73.9037 64.5861 73.9455C64.4324 73.9873 64.3137 74.0626 64.2561 74.1549C64.1357 74.3424 63.8968 74.4966 63.5875 74.5865C63.2782 74.6764 62.9214 74.6954 62.5888 74.6396C62.5075 74.6238 62.4214 74.6175 62.3358 74.6212C62.2502 74.6249 62.1668 74.6385 62.0904 74.6612C62.0141 74.6839 61.9465 74.7152 61.8915 74.7533C61.8366 74.7914 61.7955 74.8355 61.7706 74.8829C61.7458 74.9304 61.7377 74.9802 61.7469 75.0295C61.7561 75.0788 61.7824 75.1265 61.8241 75.1698C61.8659 75.2131 61.9223 75.2511 61.99 75.2816C62.0578 75.312 62.1354 75.3343 62.2184 75.3471C62.6857 75.4287 63.1684 75.4271 63.6176 75.3602C64.3132 76.3234 65.8447 76.8886 66.7359 77.1427C66.8116 77.1665 66.8948 77.1812 66.9805 77.186C67.0663 77.1908 67.1528 77.1855 67.2349 77.1705C67.3171 77.1556 67.3931 77.1312 67.4585 77.0988C67.524 77.0665 67.5774 77.0268 67.6157 76.9823C67.654 76.9377 67.6763 76.8892 67.6813 76.8395C67.6863 76.7899 67.674 76.7401 67.6449 76.6933C67.6159 76.6465 67.5708 76.6035 67.5123 76.567C67.4539 76.5305 67.3832 76.5012 67.3047 76.4808C66.7015 76.3082 65.2669 75.8209 64.7434 75.0041C64.7796 74.9853 64.8231 74.9738 64.8566 74.9544ZM77.7409 77.3765C77.678 77.3441 77.6046 77.3193 77.5249 77.3035C77.4452 77.2876 77.3609 77.2811 77.2769 77.2842C77.1928 77.2873 77.1106 77.3 77.0351 77.3216C76.9596 77.3432 76.8923 77.3732 76.837 77.4099C76.6349 77.544 76.3888 77.6537 76.1131 77.7327C75.8373 77.8116 75.5372 77.8584 75.2301 77.8703C74.9229 77.8821 74.6147 77.8588 74.3232 77.8017C74.0317 77.7446 73.7625 77.6548 73.5313 77.5375C73.4019 77.4748 73.2355 77.4435 73.0669 77.4501C72.8984 77.4568 72.7409 77.5008 72.6274 77.5731C72.5721 77.6097 72.5298 77.6522 72.5029 77.6982C72.4761 77.7443 72.4652 77.7929 72.4709 77.8414C72.4766 77.8898 72.4988 77.9372 72.5363 77.9807C72.5737 78.0242 72.6256 78.063 72.689 78.0949C73.2605 78.382 73.9461 78.5425 74.648 78.5901C74.7766 79.5052 74.0665 80.1965 73.5974 80.5395C73.1835 80.8433 72.7243 81.053 72.1927 81.2951C71.7072 81.5178 71.1575 81.7693 70.5661 82.1317L70.5624 82.1349C70.2853 81.9958 69.846 81.8133 69.3352 81.7453C69.1746 81.7306 69.0103 81.7516 68.8755 81.8042C68.7407 81.8567 68.6455 81.9369 68.6092 82.0284C68.5728 82.1199 68.598 82.216 68.6797 82.2972C68.7613 82.3784 68.8933 82.4387 69.049 82.4658C69.3651 82.5082 69.6984 82.6745 69.8497 82.7618C69.5571 83.12 69.4032 83.4871 69.2791 83.8275C69.0563 84.4351 68.8815 84.9146 67.955 85.2529C67.1136 85.5577 66.3963 85.9353 65.8963 86.318C65.5784 86.2391 65.1636 86.1648 64.7334 86.1716C64.5636 86.1744 64.4027 86.216 64.286 86.2873C64.1693 86.3586 64.1064 86.4537 64.1112 86.5518C64.116 86.6498 64.1881 86.7427 64.3116 86.8101C64.4351 86.8775 64.5998 86.9138 64.7697 86.911C64.9209 86.9084 65.0894 86.9345 65.2461 86.9675C64.6583 87.7816 64.8448 88.4677 64.8548 88.5006C64.8744 88.5674 64.9254 88.6298 65.0023 88.6809C65.0792 88.7321 65.1791 88.77 65.2908 88.7906C65.4026 88.8112 65.522 88.8136 65.636 88.7976C65.75 88.7816 65.8542 88.7477 65.9371 88.6998C66.009 88.6587 66.063 88.6083 66.0947 88.5527C66.1263 88.4972 66.1347 88.4381 66.1191 88.3803C66.1164 88.3735 65.948 87.7021 66.6598 86.9805C67.0275 86.6072 67.7666 86.1941 68.6369 85.8778C68.8806 85.7894 69.0798 85.6921 69.261 85.5907C69.5426 85.656 69.8098 85.7727 69.9013 85.8202C70.0233 85.8832 70.1823 85.9168 70.3459 85.9142C70.5094 85.9115 70.665 85.8729 70.7807 85.8061L70.8043 85.7915C70.9174 85.7188 70.9762 85.6233 70.9677 85.5257C70.9592 85.4281 70.8842 85.3364 70.759 85.2707C70.5331 85.1575 70.285 85.0599 70.0199 84.9799C70.2862 84.6516 70.413 84.3054 70.5325 83.9802C70.7128 83.486 70.883 83.0185 71.5025 82.6368C72.0197 82.3163 72.5133 82.0909 72.9897 81.8734C73.4688 81.6543 73.9234 81.4295 74.3618 81.145C74.6733 81.2297 74.9731 81.4101 75.0628 81.4765C75.1189 81.5178 75.1895 81.5517 75.2699 81.5761C75.3503 81.6005 75.4387 81.6147 75.5294 81.618C75.6201 81.6213 75.7109 81.6134 75.7959 81.595C75.881 81.5765 75.9583 81.5479 76.0228 81.511C76.1324 81.4476 76.1984 81.3632 76.2084 81.2738C76.2184 81.1843 76.1717 81.0958 76.0772 81.0247C75.813 80.8343 75.4944 80.6712 75.1352 80.5426C75.7423 79.939 76.0183 79.2433 75.9268 78.5472C76.6534 78.4485 77.3084 78.2212 77.8007 77.8973C77.9121 77.8236 77.9683 77.7274 77.9571 77.6298C77.9459 77.5321 77.8682 77.4411 77.7409 77.3765Z" fill="#389D2D"/>
</g>
<path fill-rule="evenodd" clip-rule="evenodd" d="M176.724 1.82954C180.95 -0.609847 187.803 -0.609847 192.03 1.82954L245.524 32.7036C247.068 33.5945 248.021 35.2397 248.025 37.022L249 437.786C249 442.665 245.574 448.597 241.347 451.037L191.373 479.483C186.437 482.293 180.38 482.275 175.46 479.436L127.43 451.715C123.204 449.276 119.777 443.344 119.777 438.465L119.779 38.4965C119.779 36.7322 120.709 35.0985 122.226 34.1976L176.724 1.82954ZM190.499 2.71292L243.994 33.587C245.537 34.4779 246.49 36.1231 246.494 37.9053L247.47 438.669L247.462 439.038C247.298 442.866 244.623 447.38 241.347 449.27L185.655 480.807L184.61 481.478C183.869 481.954 182.924 481.977 182.161 481.536L127.43 449.949C124.155 448.058 121.48 443.545 121.315 439.716L121.308 439.348V39.3799C121.308 37.6156 122.238 35.9819 123.755 35.081L178.254 2.71292L178.577 2.53521C181.976 0.76283 187.224 0.822392 190.499 2.71292Z" fill="#4C4C4C"/>
<path fill-rule="evenodd" clip-rule="evenodd" d="M190.499 2.71292L243.994 33.587C245.537 34.4779 246.49 36.1231 246.494 37.9053L247.47 438.669L247.462 439.038C247.298 442.866 244.623 447.38 241.347 449.27L185.655 480.807L187.143 84.967C187.148 83.5878 186.031 82.467 184.652 82.467C183.276 82.467 182.161 83.5821 182.161 84.9576V481.536L127.43 449.949C124.155 448.058 121.48 443.545 121.315 439.716L121.308 439.348V39.3799C121.308 37.6156 122.238 35.9819 123.755 35.081L178.254 2.71292L178.577 2.53521C181.976 0.76283 187.224 0.822392 190.499 2.71292Z" fill="#4C4C4C"/>
<path d="M182.161 481.536C182.924 481.977 183.869 481.954 184.61 481.478L185.655 480.807L187.143 84.967C187.148 83.5878 186.031 82.467 184.652 82.467C183.276 82.467 182.161 83.5821 182.161 84.9576V481.536Z" fill="#7D7D7D"/>
<g filter="url(#filter1_i_4192_5787)">
<rect width="65.1328" height="63.4333" rx="5" transform="matrix(0.865709 -0.500547 0.865709 0.500547 128.332 39.9971)" fill="#4C4C4C"/>
</g>
<rect x="0.865709" width="64.1328" height="62.4333" rx="4.5" transform="matrix(0.865709 -0.500547 0.865709 0.500547 128.448 40.4304)" stroke="#DDDDDD"/>
<g clip-path="url(#clip1_4192_5787)">
<path d="M195.363 47.7858C194.792 48.1156 194.11 48.2896 193.317 48.3076C192.524 48.3257 191.81 48.2006 191.174 47.9324L188.794 46.8879C188.413 46.9856 188.027 47.0619 187.636 47.1166C187.245 47.1713 186.848 47.2172 186.445 47.2544L185.302 48.8669C185.006 49.3067 184.498 49.6243 183.779 49.8197C183.06 50.0152 182.309 50.0579 181.526 49.948L177.431 49.3067C176.649 49.1967 176.046 48.9463 175.622 48.5554C175.199 48.1645 175.03 47.7369 175.115 47.2727L175.527 45.5686C175.358 45.4953 175.204 45.4188 175.066 45.3392L174.209 44.8444C174.072 44.7653 173.94 44.6768 173.813 44.5791L170.862 44.8173C170.058 44.8662 169.317 44.7684 168.64 44.5241C167.963 44.2798 167.529 43.9316 167.339 43.4797L166.228 41.1159C166.038 40.6639 166.112 40.2302 166.45 39.8149C166.789 39.3995 167.339 39.1063 168.1 38.9353L170.893 38.2757C170.957 38.0436 171.042 37.8115 171.147 37.5794C171.253 37.3472 171.38 37.1274 171.528 36.9197L169.719 35.5454C169.254 35.1789 169.037 34.7665 169.069 34.3082C169.101 33.8498 169.403 33.456 169.973 33.1266L172.956 31.4042C173.528 31.0744 174.21 30.9002 175.004 30.8816C175.798 30.863 176.512 30.9884 177.146 31.2576L179.526 32.3021C179.907 32.2043 180.293 32.1279 180.685 32.0727C181.077 32.0174 181.474 31.9717 181.875 31.9356L183.017 30.3231C183.314 29.8833 183.821 29.5657 184.541 29.3702C185.26 29.1748 186.011 29.132 186.794 29.242L190.888 29.8833C191.671 29.9933 192.274 30.2437 192.697 30.6346C193.121 31.0255 193.29 31.4531 193.205 31.9173L192.793 33.6214C192.962 33.6947 193.116 33.7712 193.253 33.8508L194.109 34.3448C194.247 34.4245 194.369 34.5193 194.475 34.6292L197.426 34.391C198.23 34.3421 198.971 34.4399 199.648 34.6842C200.325 34.9285 200.759 35.2766 200.949 35.7286L202.028 38.1107C202.219 38.5627 202.145 38.9964 201.806 39.4117C201.468 39.8271 200.918 40.1203 200.156 40.2913L197.426 40.9143C197.363 41.1464 197.278 41.3785 197.172 41.6106C197.067 41.8427 196.94 42.0626 196.792 42.2703L198.601 43.6446C199.066 44.011 199.283 44.4232 199.252 44.8811C199.221 45.3389 198.919 45.733 198.347 46.0633L195.363 47.7858ZM188.667 42.1237C189.894 41.4152 190.507 40.56 190.507 39.5583C190.507 38.5566 189.894 37.7015 188.667 36.993C187.439 36.2845 185.958 35.9302 184.223 35.9302C182.488 35.9302 181.007 36.2845 179.78 36.993C178.532 37.7137 177.913 38.572 177.923 39.5679C177.933 40.5637 178.552 41.4156 179.78 42.1237C181.008 42.8317 182.484 43.1889 184.208 43.1953C185.932 43.2016 187.418 42.8444 188.667 42.1237Z" fill="#389D2D"/>
</g>
<path fill-rule="evenodd" clip-rule="evenodd" d="M115.837 162.765C120.064 160.326 126.916 160.326 131.143 162.765L184.64 193.641C186.182 194.531 187.135 196.174 187.141 197.954L188.114 487.766C188.114 492.645 184.687 498.577 180.461 501.017L125.007 532.582C123.465 533.46 121.572 533.455 120.034 532.567L66.5436 501.695C62.317 499.256 58.8907 493.324 58.8906 488.445L58.8923 199.432C58.8923 197.668 59.8221 196.034 61.3391 195.133L115.837 162.765ZM129.612 163.648L183.11 194.524C184.652 195.414 185.604 197.057 185.61 198.838L186.583 488.649L186.576 489.018C186.411 492.846 183.736 497.36 180.461 499.25L124.269 531.236C123.184 531.854 121.852 531.85 120.77 531.225L120.276 530.94L66.5436 499.929C63.2681 498.038 60.5929 493.525 60.4287 489.697L60.4212 489.328V200.315C60.4212 198.551 61.3511 196.917 62.868 196.017L117.368 163.648L117.691 163.471C121.089 161.698 126.337 161.758 129.612 163.648Z" fill="url(#paint1_linear_4192_5787)"/>
<path fill-rule="evenodd" clip-rule="evenodd" d="M129.612 163.648L183.11 194.524C184.652 195.414 185.604 197.057 185.61 198.838L186.583 488.649L186.576 489.018C186.411 492.846 183.736 497.36 180.461 499.25L124.269 531.236V241.4C124.269 240.298 123.375 239.404 122.273 239.404C121.17 239.404 120.276 240.298 120.276 241.4V530.94L66.5436 499.929C63.2681 498.038 60.5929 493.525 60.4287 489.697L60.4212 489.328V200.315C60.4212 198.551 61.3511 196.917 62.868 196.017L117.368 163.648L117.691 163.471C121.089 161.698 126.337 161.758 129.612 163.648Z" fill="#EEEEEE"/>
<path d="M120.276 530.94L120.77 531.225C121.852 531.85 123.184 531.854 124.269 531.236V241.4C124.269 240.298 123.375 239.404 122.273 239.404C121.17 239.404 120.276 240.298 120.276 241.4V530.94Z" fill="#C7C7C7"/>
<g filter="url(#filter2_i_4192_5787)">
<rect width="65.1328" height="63.4333" rx="5" transform="matrix(0.865709 -0.500547 0.865709 0.500547 67.875 200.919)" fill="#EEEEEE"/>
</g>
<rect x="0.865709" width="64.1328" height="62.4333" rx="4.5" transform="matrix(0.865709 -0.500547 0.865709 0.500547 67.9913 201.353)" stroke="#DDDDDD"/>
<path d="M143.212 196.175L132.182 198.048L128.939 204.415L139.968 202.542L143.212 196.175Z" fill="#389D2D"/>
<path fill-rule="evenodd" clip-rule="evenodd" d="M123.515 207.547L131.897 206.123L135.426 208.161L126.343 213.405C124.903 214.237 122.593 214.237 121.153 213.405L100.392 201.419C99.7037 201.021 99.3171 200.482 99.3171 199.92C99.3171 199.358 99.7037 198.819 100.392 198.422L101.69 197.673L110.773 202.917L112.07 199.92L117.26 199.171L108.177 193.927L115.963 189.432C116.651 189.035 117.585 188.812 118.558 188.812C119.531 188.812 120.465 189.035 121.153 189.432L132.234 195.83L129.224 196.339L123.515 207.547Z" fill="#4C4C4C"/>
<path d="M134.246 204.483L136.841 205.981L143.861 204.79L145.924 200.737L143.329 199.239L141.265 203.292L134.246 204.483Z" fill="#389D2D"/>
<defs>
<filter id="filter0_i_4192_5787" x="11.5195" y="50.8311" width="106.23" height="65.4214" filterUnits="userSpaceOnUse" color-interpolation-filters="sRGB">
<feFlood flood-opacity="0" result="BackgroundImageFix"/>
<feBlend mode="normal" in="SourceGraphic" in2="BackgroundImageFix" result="shape"/>
<feColorMatrix in="SourceAlpha" type="matrix" values="0 0 0 0 0 0 0 0 0 0 0 0 0 0 0 0 0 0 127 0" result="hardAlpha"/>
<feMorphology radius="1" operator="dilate" in="SourceAlpha" result="effect1_innerShadow_4192_5787"/>
<feOffset dy="4"/>
<feGaussianBlur stdDeviation="4.5"/>
<feComposite in2="hardAlpha" operator="arithmetic" k2="-1" k3="1"/>
<feColorMatrix type="matrix" values="0 0 0 0 0.144197 0 0 0 0 0.170861 0 0 0 0 0.141234 0 0 0 0.6 0"/>
<feBlend mode="normal" in2="shape" result="effect1_innerShadow_4192_5787"/>
</filter>
<filter id="filter1_i_4192_5787" x="130.867" y="8.86084" width="106.23" height="65.4214" filterUnits="userSpaceOnUse" color-interpolation-filters="sRGB">
<feFlood flood-opacity="0" result="BackgroundImageFix"/>
<feBlend mode="normal" in="SourceGraphic" in2="BackgroundImageFix" result="shape"/>
<feColorMatrix in="SourceAlpha" type="matrix" values="0 0 0 0 0 0 0 0 0 0 0 0 0 0 0 0 0 0 127 0" result="hardAlpha"/>
<feMorphology radius="1" operator="dilate" in="SourceAlpha" result="effect1_innerShadow_4192_5787"/>
<feOffset dy="4"/>
<feGaussianBlur stdDeviation="4.5"/>
<feComposite in2="hardAlpha" operator="arithmetic" k2="-1" k3="1"/>
<feColorMatrix type="matrix" values="0 0 0 0 0.0599835 0 0 0 0 0.0599666 0 0 0 0 0.0599666 0 0 0 0.6 0"/>
<feBlend mode="normal" in2="shape" result="effect1_innerShadow_4192_5787"/>
</filter>
<filter id="filter2_i_4192_5787" x="70.4102" y="169.783" width="106.23" height="65.4214" filterUnits="userSpaceOnUse" color-interpolation-filters="sRGB">
<feFlood flood-opacity="0" result="BackgroundImageFix"/>
<feBlend mode="normal" in="SourceGraphic" in2="BackgroundImageFix" result="shape"/>
<feColorMatrix in="SourceAlpha" type="matrix" values="0 0 0 0 0 0 0 0 0 0 0 0 0 0 0 0 0 0 127 0" result="hardAlpha"/>
<feMorphology radius="1" operator="dilate" in="SourceAlpha" result="effect1_innerShadow_4192_5787"/>
<feOffset dy="4"/>
<feGaussianBlur stdDeviation="4.5"/>
<feComposite in2="hardAlpha" operator="arithmetic" k2="-1" k3="1"/>
<feColorMatrix type="matrix" values="0 0 0 0 0.144197 0 0 0 0 0.170861 0 0 0 0 0.141234 0 0 0 0.6 0"/>
<feBlend mode="normal" in2="shape" result="effect1_innerShadow_4192_5787"/>
</filter>
<linearGradient id="paint0_linear_4192_5787" x1="-8.63328" y1="119.358" x2="161.036" y2="119.358" gradientUnits="userSpaceOnUse">
<stop stop-color="#737373" stop-opacity="0.11"/>
<stop offset="1" stop-color="#D9D9D9" stop-opacity="0.2"/>
</linearGradient>
<linearGradient id="paint1_linear_4192_5787" x1="50.2573" y1="238.31" x2="219.927" y2="238.31" gradientUnits="userSpaceOnUse">
<stop stop-color="#737373" stop-opacity="0.11"/>
<stop offset="1" stop-color="#D9D9D9" stop-opacity="0.2"/>
</linearGradient>
<clipPath id="clip0_4192_5787">
<rect width="37.6486" height="37.6486" fill="white" transform="matrix(0.866025 -0.5 0.866025 0.5 31.918 81.9673)"/>
</clipPath>
<clipPath id="clip1_4192_5787">
<rect width="35.1819" height="35.1819" fill="white" transform="matrix(0.866025 -0.5 0.866025 0.5 153.691 39.5952)"/>
</clipPath>
</defs>
</svg>
