<svg width="80" height="80" viewBox="0 0 80 80" fill="none" xmlns="http://www.w3.org/2000/svg">
<path d="M37.8691 2.12991L2.12992 37.8691C0.953597 39.0454 0.953595 40.9526 2.12992 42.1289L37.8691 77.8681C39.0454 79.0445 40.9526 79.0445 42.1289 77.8681L77.8681 42.1289C79.0445 40.9526 79.0445 39.0454 77.8681 37.8691L42.1289 2.12991C40.9526 0.953591 39.0454 0.953593 37.8691 2.12991Z" fill="url(#paint0_linear_4429_6065)" stroke="url(#paint1_linear_4429_6065)"/>
<path d="M33.1882 27.8039L26.1973 30.6075L27.7967 31.2725L29.3962 31.9374L29.3782 33.483C29.3603 34.8668 29.3243 35.0645 28.893 35.5677C28.4976 36.0529 28.4617 36.1967 28.6055 36.646C28.7672 37.1132 28.5695 38.2275 28.1023 39.4855C28.0304 39.6652 28.3359 39.7191 29.2884 39.7191C29.9893 39.7191 30.5644 39.6832 30.5644 39.6472C30.5644 39.5933 30.4386 38.9823 30.2948 38.2634C30.0971 37.3109 30.0791 36.9155 30.2229 36.7358C30.3487 36.5921 30.3667 36.2865 30.2948 35.999C30.169 35.5497 30.169 32.5125 30.2768 32.3867C30.3128 32.3687 30.798 32.5305 31.3731 32.7461L32.4154 33.1415L32.2896 36.5741C32.1459 40.7076 32.2717 41.2467 34.0509 44.3558C35.219 46.3866 35.4347 46.8718 35.7761 48.2916C36.0817 49.5496 36.2793 49.6035 40.1792 49.6035C44.2228 49.6035 44.2767 49.5855 44.5822 48.022C44.708 47.4649 45.0675 46.5124 45.373 45.9193C45.6965 45.3263 46.3435 44.1581 46.7927 43.3134C48.0508 40.9951 48.1766 40.2762 48.0508 36.5022L47.9429 33.3212L51.0341 32.0991C52.7414 31.4342 54.0892 30.8411 54.0353 30.7872C53.9455 30.6974 40.1972 24.9644 40.1792 25.0004C40.1792 25.0183 37.0342 26.2763 33.1882 27.8039ZM44.9956 36.3944C46.8467 36.7538 46.9186 36.8437 46.9186 38.8385C46.9186 40.3841 46.5232 41.5702 45.337 43.5471C44.0611 45.6677 43.7016 46.4225 43.486 47.4469L43.2883 48.3455L40.1253 48.3096L36.9623 48.2556L36.7646 47.3391C36.6568 46.8359 36.2075 45.7935 35.7761 45.0028C33.8532 41.5163 33.6375 41.0131 33.4219 39.8988C33.2601 39.0003 33.2601 38.4791 33.4219 37.7063L33.6375 36.6819L34.608 36.4842C37.5014 35.8912 42.1561 35.8372 44.9956 36.3944Z" fill="#EEEEEE"/>
<path d="M39.3554 39.6458C37.3246 42.3056 37.3066 42.3236 37.5582 42.7549C37.72 43.0784 37.9177 43.1323 39.0858 43.1323C39.8227 43.1323 40.4337 43.1683 40.4337 43.2222C40.4337 43.2761 40.0383 44.0309 39.5351 44.8936C39.0499 45.7562 38.6365 46.5649 38.6365 46.6727C38.6365 46.9243 39.1038 47.1041 39.3914 46.9783C39.8047 46.8165 42.77 42.6651 42.77 42.2697C42.77 41.7126 42.141 41.461 40.9549 41.5508C40.3618 41.5868 39.8946 41.5688 39.8946 41.4789C39.8946 41.4071 40.2899 40.6522 40.7752 39.7896C41.2604 38.9449 41.6198 38.1362 41.5659 37.9924C41.3323 37.3814 40.7752 37.7948 39.3554 39.6458Z" fill="#389D2D"/>
<path d="M36.5457 50.4469C36.2222 50.5727 36.2581 51.3455 36.5637 51.5252C36.7074 51.5971 38.4327 51.633 40.3916 51.5791C43.6265 51.4893 43.95 51.4533 44.0039 51.1658C44.1477 50.393 43.8242 50.3211 40.1939 50.3391C38.3069 50.3391 36.6535 50.393 36.5457 50.4469Z" fill="#EEEEEE"/>
<path d="M36.7781 52.5696C36.4367 52.929 36.4187 53.0368 36.7242 53.4322C36.9219 53.7197 37.2993 53.7377 40.1568 53.7018C42.9963 53.6479 43.3917 53.6119 43.5714 53.3244C43.7152 53.1087 43.7152 52.929 43.5714 52.6954C43.3917 52.4258 42.9963 52.3898 40.2107 52.3359C37.5329 52.3 37.0297 52.3359 36.7781 52.5696Z" fill="#EEEEEE"/>
<path d="M37.9199 54.5288C37.9199 54.6726 38.2075 55.032 38.5489 55.3375C39.0701 55.7868 39.3577 55.8946 40.0046 55.8946C40.4539 55.8946 41.047 55.7688 41.3345 55.625C41.8198 55.3734 42.4128 54.7085 42.4128 54.4209C42.4128 54.3311 41.4064 54.2772 40.1664 54.2772C38.3692 54.2772 37.9199 54.3311 37.9199 54.5288Z" fill="#EEEEEE"/>
<path d="M37.9188 6.85171L6.9014 37.8691C5.72508 39.0454 5.72508 40.9526 6.9014 42.1289L37.9188 73.1463C39.0951 74.3227 41.0023 74.3227 42.1786 73.1463L73.196 42.1289C74.3723 40.9526 74.3724 39.0454 73.196 37.8691L42.1786 6.85171C41.0023 5.67538 39.0951 5.67539 37.9188 6.85171Z" stroke="#A7A7A7" stroke-opacity="0.3"/>
<defs>
<linearGradient id="paint0_linear_4429_6065" x1="19.9015" y1="20.0975" x2="60.3738" y2="60.5699" gradientUnits="userSpaceOnUse">
<stop/>
<stop offset="1" stop-color="#666666"/>
</linearGradient>
<linearGradient id="paint1_linear_4429_6065" x1="19.9015" y1="20.0975" x2="60.3738" y2="60.5699" gradientUnits="userSpaceOnUse">
<stop/>
<stop offset="1" stop-color="#666666"/>
</linearGradient>
</defs>
</svg>
