<svg width="151" height="303" fill="none" xmlns="http://www.w3.org/2000/svg"><path d="m76 302.207 2.887-5h-5.774l2.887 5zm0-25.54a2.667 2.667 0 1 0 0-5.334 2.667 2.667 0 0 0 0 5.334zm0 21.04h.5V274h-1v23.707h.5z" fill="url(#a)"/><path fill-rule="evenodd" clip-rule="evenodd" d="M68.052 107.821c4.235-2.441 11.1-2.441 15.335 0l53.627 30.905a4.998 4.998 0 0 1 2.503 4.266l.947 70.96c0 4.88-3.433 10.815-7.668 13.256L77.232 258.79a5 5 0 0 1-4.967-.015l-53.598-30.888C14.433 225.446 11 219.511 11 214.631l.002-70.128a5 5 0 0 1 2.45-4.3l54.6-32.382zm13.801.883 53.628 30.906a5.002 5.002 0 0 1 2.503 4.265l.946 70.96-.007.369c-.165 3.83-2.845 8.345-6.127 10.236l-55.564 31.583a5 5 0 0 1-4.967-.015l-53.598-30.889c-3.281-1.891-5.962-6.406-6.126-10.236l-.008-.369v-70.127a5 5 0 0 1 2.45-4.301l54.603-32.382.323-.178c3.405-1.773 8.663-1.713 11.944.178z" fill="url(#b)"/><path d="M137.986 143.875a5.002 5.002 0 0 0-2.503-4.265l-53.628-30.906c-3.282-1.891-8.539-1.951-11.944-.178l-.323.178-54.603 32.382a5 5 0 0 0-2.45 4.301v70.127l.008.369c.164 3.83 2.844 8.345 6.126 10.236l53.598 30.889a5 5 0 0 0 4.967.015l55.564-31.583c3.282-1.891 5.962-6.406 6.127-10.236l.007-.369-.946-70.96z" fill="#F9F9F9"/><path d="m72.165 116.138-47.83 27.615c-2.153 1.243-2.153 3.257 0 4.5l46.356 26.764c2.153 1.243 5.642 1.243 7.795 0l47.83-27.615c2.153-1.243 2.153-3.257 0-4.5L79.96 116.138c-2.153-1.243-5.642-1.243-7.795 0z" stroke="#DDD"/><path fill-rule="evenodd" clip-rule="evenodd" d="M84.417 192a1 1 0 0 1 1 1v11.423c0 .394-.336.702-.73.702a9.458 9.458 0 0 0-7.336 3.477c-.215.262-.684.117-.684-.222a.338.338 0 0 0-.339-.338H74.75a1 1 0 0 0-1 1v1.043c0 .482.391.873.874.873.623 0 1.05.638.892 1.242a9.483 9.483 0 0 0-.308 2.404c0 1.706.45 3.306 1.239 4.688.436.766-.064 1.875-.945 1.875H66a1 1 0 0 1-1-1V193a1 1 0 0 1 1-1h18.417zm-1.771 9.75a1 1 0 0 0-1-1H69.062a1 1 0 0 0-1 1v.917a1 1 0 0 0 1 1h12.584a1 1 0 0 0 1-1v-.917zm-.146-5.833a1 1 0 0 0-1-1H68.917a1 1 0 0 0-1 1v.916a1 1 0 0 0 1 1H81.5a1 1 0 0 0 1-1v-.916zm8.83 15.662c.186.407.003.875-.384 1.099-.372.214-.543.652-.481 1.076a5.844 5.844 0 0 1 0 1.7c-.062.424.11.862.48 1.076.388.224.57.692.385 1.099a7.04 7.04 0 0 1-.25.497l-.137.236a7.14 7.14 0 0 1-.314.477c-.26.364-.756.44-1.143.217-.371-.215-.836-.144-1.172.122a5.802 5.802 0 0 1-1.47.85c-.399.158-.692.525-.692.954 0 .447-.315.838-.76.881a7.41 7.41 0 0 1-1.398 0c-.445-.043-.76-.434-.76-.881 0-.429-.293-.796-.691-.954a5.802 5.802 0 0 1-1.47-.85c-.337-.266-.802-.337-1.173-.123-.387.224-.884.148-1.143-.216a7.169 7.169 0 0 1-.317-.482l-.13-.226a7.368 7.368 0 0 1-.254-.502c-.185-.407-.003-.875.385-1.099.37-.214.542-.652.48-1.076a5.844 5.844 0 0 1 0-1.699c.062-.425-.11-.862-.48-1.077-.388-.223-.57-.692-.385-1.099.078-.17.163-.338.254-.502l.13-.225c.1-.165.205-.326.317-.483.26-.363.756-.439 1.143-.216.371.214.836.144 1.172-.123.443-.35.938-.638 1.47-.85.4-.158.693-.525.693-.954 0-.446.314-.838.76-.88a7.092 7.092 0 0 1 1.397 0c.445.042.76.434.76.88 0 .429.293.796.692.954a5.831 5.831 0 0 1 1.47.85c.336.267.8.337 1.172.123.387-.224.884-.148 1.143.216.111.155.216.314.314.477l.136.236c.09.163.174.328.25.497zm-4.45 3.025a2.188 2.188 0 1 1-4.375 0 2.188 2.188 0 0 1 4.376 0z" fill="#389D2D"/><path d="M12.164 153v46.645" stroke="url(#c)"/><path d="M12.113 212.972v-17.135" stroke="url(#d)"/><path d="M11.98 200.277a6.98 6.98 0 1 0 0-13.96 6.98 6.98 0 0 0 0 13.96z" fill="#ACD4A7"/><path d="M11.98 197.486a4.188 4.188 0 1 0 0-8.376 4.188 4.188 0 0 0 0 8.376z" fill="#389D2D"/><path d="M139.164 153v46.645" stroke="url(#e)"/><path d="M139.113 212.972v-17.135" stroke="url(#f)"/><path d="M138.98 200.277a6.98 6.98 0 1 0 0-13.96 6.98 6.98 0 0 0 0 13.96z" fill="#ACD4A7"/><path d="M138.981 197.486a4.188 4.188 0 1 0 0-8.376 4.188 4.188 0 0 0 0 8.376z" fill="#389D2D"/><path d="M72.318 3.89 3.889 72.317a4.5 4.5 0 0 0 0 6.364l68.429 68.429a4.5 4.5 0 0 0 6.364 0l68.429-68.429a4.5 4.5 0 0 0 0-6.364L78.681 3.889a4.5 4.5 0 0 0-6.363 0z" fill="url(#g)" stroke="url(#h)"/><path d="M47.331 80.99a.404.404 0 0 1-.272-.096.404.404 0 0 1-.096-.272v-9.408h-3.072a.404.404 0 0 1-.272-.096.404.404 0 0 1-.096-.272v-.672c0-.117.032-.208.096-.272a.37.37 0 0 1 .272-.112h7.712c.118 0 .208.037.272.112a.339.339 0 0 1 .112.272v.672a.37.37 0 0 1-.112.272c-.064.064-.154.096-.272.096h-3.056v9.408a.37.37 0 0 1-.112.272c-.064.064-.154.096-.272.096h-.832zm9.554.16c-1.099 0-1.973-.336-2.624-1.008-.65-.683-1.008-1.61-1.072-2.784a7.154 7.154 0 0 1-.016-.528c0-.224.005-.405.016-.544.043-.757.219-1.419.528-1.984.31-.576.73-1.019 1.264-1.328.544-.31 1.179-.464 1.904-.464.81 0 1.488.17 2.032.512.555.341.976.827 1.264 1.456.288.63.432 1.365.432 2.208v.272a.339.339 0 0 1-.112.272.346.346 0 0 1-.256.096h-5.536V77.47c.021.437.117.848.288 1.232.17.373.416.677.736.912s.704.352 1.152.352c.384 0 .704-.059.96-.176a2.61 2.61 0 0 0 .624-.384c.16-.15.267-.261.32-.336.096-.139.17-.219.224-.24a.518.518 0 0 1 .256-.048h.768c.107 0 .192.032.256.096.075.053.107.133.096.24-.01.16-.096.357-.256.592a3.18 3.18 0 0 1-.688.672c-.299.224-.661.41-1.088.56a4.76 4.76 0 0 1-1.472.208zm-2.176-4.928h4.384v-.048c0-.48-.09-.907-.272-1.28a2.022 2.022 0 0 0-.752-.88c-.33-.224-.725-.336-1.184-.336-.459 0-.853.112-1.184.336a2.06 2.06 0 0 0-.736.88c-.17.373-.256.8-.256 1.28v.048zm7.433 4.768a.362.362 0 0 1-.24-.096.326.326 0 0 1-.096-.24c0-.032.006-.07.016-.112a.978.978 0 0 1 .096-.176l2.784-3.632-2.608-3.44a1.55 1.55 0 0 1-.096-.16.524.524 0 0 1-.016-.128.326.326 0 0 1 .336-.336h.816c.117 0 .203.032.256.096.064.053.117.107.16.16l2.128 2.768 2.128-2.752c.043-.053.09-.112.144-.176.064-.064.155-.096.272-.096h.784a.326.326 0 0 1 .336.336c0 .043-.01.085-.032.128a.554.554 0 0 1-.08.16l-2.64 3.472 2.784 3.6c.043.064.07.117.08.16a.285.285 0 0 1 .032.128.326.326 0 0 1-.336.336h-.848a.387.387 0 0 1-.256-.08 1.123 1.123 0 0 1-.16-.16l-2.256-2.928-2.256 2.928-.16.16c-.053.053-.139.08-.256.08h-.816zm9.377 0a.404.404 0 0 1-.272-.096.404.404 0 0 1-.096-.272v-7.584c0-.107.032-.192.096-.256a.37.37 0 0 1 .272-.112h.768a.32.32 0 0 1 .256.112c.064.064.096.15.096.256v3.072h4.368v-3.072c0-.107.032-.192.096-.256a.37.37 0 0 1 .272-.112h.752a.32.32 0 0 1 .256.112.32.32 0 0 1 .112.256v7.584a.37.37 0 0 1-.112.272.346.346 0 0 1-.256.096h-.752a.404.404 0 0 1-.272-.096.404.404 0 0 1-.096-.272V77.39H72.64v3.232a.404.404 0 0 1-.096.272.346.346 0 0 1-.256.096h-.768zm9.734 0a.382.382 0 0 1-.256-.096.362.362 0 0 1-.096-.24v-7.616c0-.107.032-.192.096-.256a.37.37 0 0 1 .272-.112h.768a.32.32 0 0 1 .256.112c.064.064.096.15.096.256v6.784l-.416-.432 4.848-6.48a.825.825 0 0 1 .176-.16.362.362 0 0 1 .24-.08h.736c.085 0 .16.032.224.096a.288.288 0 0 1 .112.224v7.632a.37.37 0 0 1-.112.272.346.346 0 0 1-.256.096h-.752c-.117 0-.208-.032-.272-.096a.404.404 0 0 1-.096-.272v-6.384l.448-.016-4.88 6.528a1.128 1.128 0 0 1-.16.16.387.387 0 0 1-.256.08h-.72zm9.766 0a.404.404 0 0 1-.272-.096.404.404 0 0 1-.096-.272v-7.584c0-.107.032-.192.096-.256a.37.37 0 0 1 .272-.112h.752a.32.32 0 0 1 .256.112.32.32 0 0 1 .112.256v3.072h1.456l2.16-3.2a.69.69 0 0 1 .176-.176.455.455 0 0 1 .256-.064h.832c.096 0 .176.021.24.064a.215.215 0 0 1 .096.192c0 .021-.01.053-.032.096a.406.406 0 0 1-.048.096l-2.4 3.536 2.72 3.872c.053.064.08.133.08.208 0 .085-.032.15-.096.192a.35.35 0 0 1-.224.064h-.976a.423.423 0 0 1-.24-.064.687.687 0 0 1-.176-.176l-2.352-3.344H92.14v3.216a.37.37 0 0 1-.112.272.346.346 0 0 1-.256.096h-.752zm10.53.16a3.275 3.275 0 0 1-1.456-.32 2.815 2.815 0 0 1-1.056-.864 2.027 2.027 0 0 1-.4-1.232c0-.736.299-1.323.896-1.76.597-.437 1.376-.725 2.336-.864l2.384-.336v-.464c0-.512-.149-.912-.448-1.2-.288-.288-.763-.432-1.424-.432-.48 0-.869.096-1.168.288a1.558 1.558 0 0 0-.608.736c-.064.16-.176.24-.336.24h-.72c-.117 0-.208-.032-.272-.096a.429.429 0 0 1-.08-.256c0-.16.059-.357.176-.592.128-.235.32-.464.576-.688.256-.224.581-.41.976-.56.405-.16.896-.24 1.472-.24.64 0 1.179.085 1.616.256.437.16.779.379 1.024.656.256.277.437.592.544.944.117.352.176.71.176 1.072v5.184a.369.369 0 0 1-.112.272.345.345 0 0 1-.256.096h-.736a.368.368 0 0 1-.272-.096.404.404 0 0 1-.096-.272v-.688a3.126 3.126 0 0 1-.56.576 3.248 3.248 0 0 1-.88.464c-.352.117-.784.176-1.296.176zm.336-1.2c.437 0 .837-.09 1.2-.272.363-.192.645-.485.848-.88.213-.395.32-.89.32-1.488v-.448l-1.856.272c-.757.107-1.328.288-1.712.544-.384.245-.576.56-.576.944 0 .299.085.55.256.752.181.192.405.336.672.432.277.096.56.144.848.144z" fill="#fff"/><path d="M72.98 13.435 12.498 73.917a4.5 4.5 0 0 0 0 6.364l59.157 59.157a4.5 4.5 0 0 0 6.364 0l60.482-60.482a4.5 4.5 0 0 0 0-6.364L79.344 13.435a4.5 4.5 0 0 0-6.364 0z" stroke="#A7A7A7" stroke-opacity=".3"/><defs><radialGradient id="c" cx="0" cy="0" r="1" gradientUnits="userSpaceOnUse"><stop stop-color="#389D2D" stop-opacity="0"/><stop offset="1" stop-color="#389D2D"/></radialGradient><radialGradient id="d" cx="0" cy="0" r="1" gradientUnits="userSpaceOnUse"><stop stop-color="#389D2D" stop-opacity="0"/><stop offset="1" stop-color="#389D2D"/></radialGradient><radialGradient id="e" cx="0" cy="0" r="1" gradientUnits="userSpaceOnUse"><stop stop-color="#389D2D" stop-opacity="0"/><stop offset="1" stop-color="#389D2D"/></radialGradient><radialGradient id="f" cx="0" cy="0" r="1" gradientUnits="userSpaceOnUse"><stop stop-color="#389D2D" stop-opacity="0"/><stop offset="1" stop-color="#389D2D"/></radialGradient><linearGradient id="a" x1="76.5" y1="302.207" x2="76.5" y2="274" gradientUnits="userSpaceOnUse"><stop stop-color="#4C4C4C"/><stop offset="1" stop-color="#878787"/></linearGradient><linearGradient id="b" x1="2.351" y1="183.396" x2="172.336" y2="183.396" gradientUnits="userSpaceOnUse"><stop stop-color="#737373" stop-opacity=".11"/><stop offset="1" stop-color="#D9D9D9" stop-opacity=".2"/></linearGradient><linearGradient id="g" x1="37.957" y1="38.25" x2="113.457" y2="113.75" gradientUnits="userSpaceOnUse"><stop/><stop offset="1" stop-color="#666"/></linearGradient><linearGradient id="h" x1="37.957" y1="38.25" x2="113.457" y2="113.75" gradientUnits="userSpaceOnUse"><stop/><stop offset="1" stop-color="#666"/></linearGradient></defs></svg>