<svg width="151" height="303" viewBox="0 0 151 303" fill="none" xmlns="http://www.w3.org/2000/svg">
<path d="M76.0001 302.207L78.8869 297.207H73.1133L76.0001 302.207ZM76.0001 276.667C77.4729 276.667 78.6668 275.473 78.6668 274C78.6668 272.527 77.4729 271.333 76.0001 271.333C74.5273 271.333 73.3334 272.527 73.3334 274C73.3334 275.473 74.5273 276.667 76.0001 276.667ZM76.0001 297.707H76.5001V274H76.0001H75.5001V297.707H76.0001Z" fill="url(#paint0_linear_4192_5767)"/>
<path fill-rule="evenodd" clip-rule="evenodd" d="M68.0524 107.821C72.2869 105.38 79.1524 105.38 83.387 107.821L137.014 138.726C138.543 139.607 139.494 141.228 139.517 142.992L140.464 213.952C140.464 218.832 137.031 224.767 132.796 227.208L77.2323 258.79C75.691 259.666 73.801 259.66 72.2649 258.775L18.6672 227.887C14.4328 225.446 11 219.511 11 214.631L11.0016 144.503C11.0017 142.738 11.9327 141.103 13.4511 140.203L68.0524 107.821ZM81.8535 108.704L135.481 139.61C137.009 140.491 137.96 142.112 137.984 143.875L138.93 214.835L138.923 215.204C138.758 219.034 136.078 223.549 132.796 225.44L77.2323 257.023C75.691 257.899 73.801 257.893 72.2649 257.008L18.6672 226.119C15.3856 224.228 12.7054 219.713 12.5409 215.883L12.5335 215.514V145.387C12.5335 143.621 13.4645 141.987 14.983 141.086L69.5859 108.704L69.9093 108.526C73.3145 106.753 78.5717 106.813 81.8535 108.704Z" fill="url(#paint1_linear_4192_5767)"/>
<path d="M137.986 143.875C137.962 142.112 137.011 140.491 135.483 139.61L81.8552 108.704C78.5734 106.813 73.3162 106.753 69.911 108.526L69.5876 108.704L14.9847 141.086C13.4662 141.987 12.5352 143.621 12.5352 145.387V215.514L12.5426 215.883C12.7071 219.713 15.3873 224.228 18.6689 226.119L72.2666 257.008C73.8027 257.893 75.6927 257.899 77.234 257.023L132.798 225.44C136.08 223.549 138.76 219.034 138.925 215.204L138.932 214.835L137.986 143.875Z" fill="#F9F9F9"/>
<path d="M72.1653 116.138L24.3346 143.753C22.1823 144.996 22.1823 147.01 24.3346 148.253L70.6914 175.017C72.8437 176.26 76.3333 176.26 78.4856 175.017L126.316 147.402C128.469 146.159 128.469 144.145 126.316 142.902L79.9596 116.138C77.8072 114.895 74.3177 114.895 72.1653 116.138Z" stroke="#DDDDDD"/>
<path fill-rule="evenodd" clip-rule="evenodd" d="M84.4167 192C84.969 192 85.4167 192.448 85.4167 193V204.423C85.4167 204.817 85.0813 205.125 84.6875 205.125C81.73 205.125 79.0889 206.479 77.3506 208.602C77.1356 208.864 76.6667 208.719 76.6667 208.38C76.6667 208.193 76.5152 208.042 76.3283 208.042H74.75C74.1977 208.042 73.75 208.489 73.75 209.042V210.085C73.75 210.567 74.1412 210.958 74.6238 210.958C75.2474 210.958 75.6737 211.596 75.516 212.2C75.3152 212.967 75.2084 213.773 75.2084 214.604C75.2084 216.31 75.6587 217.91 76.447 219.292C76.8833 220.058 76.3827 221.167 75.5017 221.167H66C65.4477 221.167 65 220.719 65 220.167V193C65 192.448 65.4477 192 66 192H84.4167ZM82.6459 201.75C82.6459 201.198 82.1982 200.75 81.6459 200.75H69.0625C68.5102 200.75 68.0625 201.198 68.0625 201.75V202.667C68.0625 203.219 68.5102 203.667 69.0625 203.667H81.6459C82.1982 203.667 82.6459 203.219 82.6459 202.667V201.75ZM82.5 195.917C82.5 195.364 82.0523 194.917 81.5 194.917H68.9167C68.3644 194.917 67.9167 195.364 67.9167 195.917V196.833C67.9167 197.386 68.3644 197.833 68.9167 197.833H81.5C82.0523 197.833 82.5 197.386 82.5 196.833V195.917ZM91.3298 211.579C91.5155 211.986 91.3331 212.454 90.9458 212.678C90.5744 212.892 90.403 213.33 90.465 213.754C90.5061 214.035 90.5267 214.319 90.5265 214.604C90.5267 214.889 90.5061 215.173 90.465 215.454C90.403 215.878 90.5744 216.316 90.9458 216.53C91.3331 216.754 91.5155 217.222 91.3298 217.629C91.2528 217.798 91.1693 217.964 91.0794 218.126L90.9432 218.362C90.8448 218.525 90.7402 218.685 90.6295 218.839C90.3697 219.203 89.8733 219.279 89.4863 219.056C89.1148 218.841 88.65 218.912 88.3138 219.178C87.8713 219.529 87.3767 219.817 86.8435 220.028C86.4451 220.186 86.1515 220.553 86.1515 220.982C86.1515 221.429 85.837 221.82 85.3921 221.863C85.1599 221.885 84.9267 221.896 84.6932 221.896C84.4574 221.896 84.2242 221.885 83.9941 221.863C83.5493 221.82 83.2348 221.429 83.2348 220.982C83.2348 220.553 82.9412 220.186 82.5428 220.028C82.0095 219.817 81.5148 219.529 81.0723 219.178C80.7361 218.912 80.2713 218.841 79.8999 219.055C79.5129 219.279 79.0165 219.203 78.7568 218.839C78.645 218.683 78.5393 218.522 78.4401 218.357L78.3098 218.131C78.2189 217.967 78.1344 217.799 78.0565 217.629C77.8708 217.222 78.0532 216.754 78.4405 216.53C78.8119 216.316 78.9833 215.878 78.9212 215.454C78.8801 215.173 78.8596 214.889 78.8598 214.604C78.8596 214.32 78.8801 214.036 78.9212 213.755C78.9833 213.33 78.8119 212.893 78.4405 212.678C78.0532 212.455 77.8708 211.986 78.0565 211.579C78.1344 211.409 78.219 211.241 78.31 211.077L78.44 210.852C78.5393 210.687 78.6449 210.526 78.7568 210.369C79.0166 210.006 79.5129 209.93 79.8998 210.153C80.2713 210.367 80.7361 210.297 81.0723 210.03C81.5148 209.68 82.0095 209.392 82.5428 209.18C82.9412 209.022 83.2348 208.655 83.2348 208.226C83.2348 207.78 83.5493 207.388 83.9941 207.346C84.2263 207.323 84.4596 207.312 84.6932 207.312C84.929 207.312 85.1622 207.324 85.3922 207.346C85.837 207.388 86.1515 207.78 86.1515 208.226C86.1515 208.655 86.4451 209.022 86.8436 209.18C87.3768 209.392 87.8713 209.679 88.3138 210.03C88.65 210.297 89.1148 210.367 89.4863 210.153C89.8733 209.929 90.3697 210.005 90.6295 210.369C90.7402 210.524 90.8449 210.683 90.9433 210.846L91.0794 211.082C91.1692 211.245 91.2527 211.41 91.3298 211.579ZM86.8807 214.604C86.8807 215.812 85.9014 216.792 84.6932 216.792C83.4851 216.792 82.5057 215.812 82.5057 214.604C82.5057 213.396 83.4851 212.417 84.6932 212.417C85.9014 212.417 86.8807 213.396 86.8807 214.604Z" fill="#389D2D"/>
<path d="M12.1641 153V199.645" stroke="url(#paint2_radial_4192_5767)"/>
<path d="M12.1133 212.972V195.837" stroke="url(#paint3_radial_4192_5767)"/>
<path d="M11.9799 200.277C15.8347 200.277 18.9597 197.152 18.9597 193.297C18.9597 189.442 15.8347 186.317 11.9799 186.317C8.12499 186.317 5 189.442 5 193.297C5 197.152 8.12499 200.277 11.9799 200.277Z" fill="#ACD4A7"/>
<path d="M11.9809 197.486C14.2938 197.486 16.1688 195.611 16.1688 193.298C16.1688 190.985 14.2938 189.11 11.9809 189.11C9.66796 189.11 7.79297 190.985 7.79297 193.298C7.79297 195.611 9.66796 197.486 11.9809 197.486Z" fill="#389D2D"/>
<path d="M139.164 153V199.645" stroke="url(#paint4_radial_4192_5767)"/>
<path d="M139.113 212.972V195.837" stroke="url(#paint5_radial_4192_5767)"/>
<path d="M138.98 200.277C142.835 200.277 145.96 197.152 145.96 193.297C145.96 189.442 142.835 186.317 138.98 186.317C135.125 186.317 132 189.442 132 193.297C132 197.152 135.125 200.277 138.98 200.277Z" fill="#ACD4A7"/>
<path d="M138.981 197.486C141.294 197.486 143.169 195.611 143.169 193.298C143.169 190.985 141.294 189.11 138.981 189.11C136.668 189.11 134.793 190.985 134.793 193.298C134.793 195.611 136.668 197.486 138.981 197.486Z" fill="#389D2D"/>
<path d="M72.3179 3.88917L3.88901 72.318C2.13165 74.0754 2.13165 76.9246 3.88901 78.682L72.3179 147.111C74.0752 148.868 76.9245 148.868 78.6818 147.111L147.111 78.682C148.868 76.9246 148.868 74.0754 147.111 72.318L78.6818 3.88917C76.9245 2.13181 74.0752 2.13181 72.3179 3.88917Z" fill="url(#paint6_linear_4192_5767)" stroke="url(#paint7_linear_4192_5767)"/>
<path d="M47.3314 80.99C47.2247 80.99 47.1341 80.958 47.0594 80.894C46.9954 80.8194 46.9634 80.7287 46.9634 80.622V71.214H43.8914C43.7847 71.214 43.6941 71.182 43.6194 71.118C43.5554 71.0434 43.5234 70.9527 43.5234 70.846V70.174C43.5234 70.0567 43.5554 69.966 43.6194 69.902C43.6941 69.8274 43.7847 69.79 43.8914 69.79H51.6034C51.7207 69.79 51.8114 69.8274 51.8754 69.902C51.9501 69.966 51.9874 70.0567 51.9874 70.174V70.846C51.9874 70.9527 51.9501 71.0434 51.8754 71.118C51.8114 71.182 51.7207 71.214 51.6034 71.214H48.5474V80.622C48.5474 80.7287 48.5101 80.8194 48.4354 80.894C48.3714 80.958 48.2807 80.99 48.1634 80.99H47.3314ZM56.885 81.15C55.7864 81.15 54.9117 80.814 54.261 80.142C53.6104 79.4594 53.253 78.5314 53.189 77.358C53.1784 77.2194 53.173 77.0434 53.173 76.83C53.173 76.606 53.1784 76.4247 53.189 76.286C53.2317 75.5287 53.4077 74.8674 53.717 74.302C54.0264 73.726 54.4477 73.2834 54.981 72.974C55.525 72.6647 56.1597 72.51 56.885 72.51C57.6957 72.51 58.373 72.6807 58.917 73.022C59.4717 73.3634 59.893 73.8487 60.181 74.478C60.469 75.1074 60.613 75.8434 60.613 76.686V76.958C60.613 77.0754 60.5757 77.166 60.501 77.23C60.437 77.294 60.3517 77.326 60.245 77.326H54.709C54.709 77.3367 54.709 77.358 54.709 77.39C54.709 77.422 54.709 77.4487 54.709 77.47C54.7304 77.9074 54.8264 78.318 54.997 78.702C55.1677 79.0754 55.413 79.3794 55.733 79.614C56.053 79.8487 56.437 79.966 56.885 79.966C57.269 79.966 57.589 79.9074 57.845 79.79C58.101 79.6727 58.309 79.5447 58.469 79.406C58.629 79.2567 58.7357 79.1447 58.789 79.07C58.885 78.9314 58.9597 78.8514 59.013 78.83C59.0664 78.798 59.1517 78.782 59.269 78.782H60.037C60.1437 78.782 60.229 78.814 60.293 78.878C60.3677 78.9314 60.3997 79.0114 60.389 79.118C60.3784 79.278 60.293 79.4754 60.133 79.71C59.973 79.934 59.7437 80.158 59.445 80.382C59.1464 80.606 58.7837 80.7927 58.357 80.942C57.9304 81.0807 57.4397 81.15 56.885 81.15ZM54.709 76.222H59.093V76.174C59.093 75.694 59.0024 75.2674 58.821 74.894C58.6504 74.5207 58.3997 74.2274 58.069 74.014C57.7384 73.79 57.3437 73.678 56.885 73.678C56.4264 73.678 56.0317 73.79 55.701 74.014C55.381 74.2274 55.1357 74.5207 54.965 74.894C54.7944 75.2674 54.709 75.694 54.709 76.174V76.222ZM62.1422 80.99C62.0568 80.99 61.9768 80.958 61.9022 80.894C61.8382 80.83 61.8062 80.75 61.8062 80.654C61.8062 80.622 61.8115 80.5847 61.8222 80.542C61.8435 80.4887 61.8755 80.43 61.9182 80.366L64.7022 76.734L62.0942 73.294C62.0515 73.23 62.0195 73.1767 61.9982 73.134C61.9875 73.0914 61.9822 73.0487 61.9822 73.006C61.9822 72.91 62.0142 72.83 62.0782 72.766C62.1422 72.702 62.2222 72.67 62.3182 72.67H63.1342C63.2515 72.67 63.3368 72.702 63.3902 72.766C63.4542 72.8194 63.5075 72.8727 63.5502 72.926L65.6782 75.694L67.8062 72.942C67.8488 72.8887 67.8968 72.83 67.9502 72.766C68.0142 72.702 68.1048 72.67 68.2222 72.67H69.0062C69.1022 72.67 69.1822 72.702 69.2462 72.766C69.3102 72.83 69.3422 72.91 69.3422 73.006C69.3422 73.0487 69.3315 73.0914 69.3102 73.134C69.2995 73.1767 69.2728 73.23 69.2302 73.294L66.5902 76.766L69.3742 80.366C69.4168 80.43 69.4435 80.4834 69.4542 80.526C69.4755 80.5687 69.4862 80.6114 69.4862 80.654C69.4862 80.75 69.4542 80.83 69.3902 80.894C69.3262 80.958 69.2462 80.99 69.1502 80.99H68.3022C68.1955 80.99 68.1102 80.9634 68.0462 80.91C67.9822 80.8567 67.9288 80.8034 67.8862 80.75L65.6302 77.822L63.3742 80.75C63.3315 80.7927 63.2782 80.846 63.2142 80.91C63.1608 80.9634 63.0755 80.99 62.9582 80.99H62.1422ZM71.5192 80.99C71.4125 80.99 71.3218 80.958 71.2472 80.894C71.1832 80.8194 71.1512 80.7287 71.1512 80.622V73.038C71.1512 72.9314 71.1832 72.846 71.2472 72.782C71.3218 72.7074 71.4125 72.67 71.5192 72.67H72.2872C72.3938 72.67 72.4792 72.7074 72.5432 72.782C72.6072 72.846 72.6392 72.9314 72.6392 73.038V76.11H77.0072V73.038C77.0072 72.9314 77.0392 72.846 77.1032 72.782C77.1778 72.7074 77.2685 72.67 77.3752 72.67H78.1272C78.2338 72.67 78.3192 72.7074 78.3832 72.782C78.4578 72.846 78.4952 72.9314 78.4952 73.038V80.622C78.4952 80.7287 78.4578 80.8194 78.3832 80.894C78.3192 80.958 78.2338 80.99 78.1272 80.99H77.3752C77.2685 80.99 77.1778 80.958 77.1032 80.894C77.0392 80.8194 77.0072 80.7287 77.0072 80.622V77.39H72.6392V80.622C72.6392 80.7287 72.6072 80.8194 72.5432 80.894C72.4792 80.958 72.3938 80.99 72.2872 80.99H71.5192ZM81.2532 80.99C81.1572 80.99 81.0718 80.958 80.9972 80.894C80.9332 80.8194 80.9012 80.7394 80.9012 80.654V73.038C80.9012 72.9314 80.9332 72.846 80.9972 72.782C81.0718 72.7074 81.1625 72.67 81.2692 72.67H82.0372C82.1438 72.67 82.2292 72.7074 82.2932 72.782C82.3572 72.846 82.3892 72.9314 82.3892 73.038V79.822L81.9732 79.39L86.8212 72.91C86.8745 72.846 86.9332 72.7927 86.9972 72.75C87.0612 72.6967 87.1412 72.67 87.2372 72.67H87.9732C88.0585 72.67 88.1332 72.702 88.1972 72.766C88.2718 72.83 88.3092 72.9047 88.3092 72.99V80.622C88.3092 80.7287 88.2718 80.8194 88.1972 80.894C88.1332 80.958 88.0478 80.99 87.9411 80.99H87.1892C87.0718 80.99 86.9812 80.958 86.9172 80.894C86.8532 80.8194 86.8212 80.7287 86.8212 80.622V74.238L87.2692 74.222L82.3892 80.75C82.3465 80.8034 82.2932 80.8567 82.2292 80.91C82.1652 80.9634 82.0798 80.99 81.9732 80.99H81.2532ZM91.0192 80.99C90.9125 80.99 90.8218 80.958 90.7472 80.894C90.6832 80.8194 90.6512 80.7287 90.6512 80.622V73.038C90.6512 72.9314 90.6832 72.846 90.7472 72.782C90.8218 72.7074 90.9125 72.67 91.0192 72.67H91.7712C91.8778 72.67 91.9632 72.7074 92.0272 72.782C92.1018 72.846 92.1392 72.9314 92.1392 73.038V76.11H93.5952L95.7552 72.91C95.8085 72.8354 95.8672 72.7767 95.9312 72.734C95.9952 72.6914 96.0805 72.67 96.1872 72.67H97.0192C97.1152 72.67 97.1952 72.6914 97.2592 72.734C97.3232 72.7767 97.3552 72.8407 97.3552 72.926C97.3552 72.9474 97.3445 72.9794 97.3232 73.022C97.3125 73.054 97.2965 73.086 97.2752 73.118L94.8752 76.654L97.5952 80.526C97.6485 80.59 97.6752 80.6594 97.6752 80.734C97.6752 80.8194 97.6432 80.8834 97.5792 80.926C97.5258 80.9687 97.4512 80.99 97.3552 80.99H96.3792C96.2832 80.99 96.2032 80.9687 96.1392 80.926C96.0752 80.8834 96.0165 80.8247 95.9632 80.75L93.6112 77.406H92.1392V80.622C92.1392 80.7287 92.1018 80.8194 92.0272 80.894C91.9632 80.958 91.8778 80.99 91.7712 80.99H91.0192ZM101.549 81.15C101.016 81.15 100.53 81.0434 100.093 80.83C99.6559 80.6167 99.3039 80.3287 99.0373 79.966C98.7706 79.6034 98.6373 79.1927 98.6373 78.734C98.6373 77.998 98.9359 77.4114 99.5333 76.974C100.13 76.5367 100.909 76.2487 101.869 76.11L104.253 75.774V75.31C104.253 74.798 104.104 74.398 103.805 74.11C103.517 73.822 103.042 73.678 102.381 73.678C101.901 73.678 101.512 73.774 101.213 73.966C100.925 74.158 100.722 74.4034 100.605 74.702C100.541 74.862 100.429 74.942 100.269 74.942H99.5493C99.4319 74.942 99.3413 74.91 99.2773 74.846C99.2239 74.7714 99.1973 74.686 99.1973 74.59C99.1973 74.43 99.2559 74.2327 99.3733 73.998C99.5013 73.7634 99.6933 73.534 99.9493 73.31C100.205 73.086 100.53 72.8994 100.925 72.75C101.33 72.59 101.821 72.51 102.397 72.51C103.037 72.51 103.576 72.5954 104.013 72.766C104.45 72.926 104.792 73.1447 105.037 73.422C105.293 73.6994 105.474 74.014 105.581 74.366C105.698 74.718 105.757 75.0754 105.757 75.438V80.622C105.757 80.7287 105.72 80.8194 105.645 80.894C105.581 80.958 105.496 80.99 105.389 80.99H104.653C104.536 80.99 104.445 80.958 104.381 80.894C104.317 80.8194 104.285 80.7287 104.285 80.622V79.934C104.146 80.126 103.96 80.318 103.725 80.51C103.49 80.6914 103.197 80.846 102.845 80.974C102.493 81.0914 102.061 81.15 101.549 81.15ZM101.885 79.95C102.322 79.95 102.722 79.8594 103.085 79.678C103.448 79.486 103.73 79.1927 103.933 78.798C104.146 78.4034 104.253 77.9074 104.253 77.31V76.862L102.397 77.134C101.64 77.2407 101.069 77.422 100.685 77.678C100.301 77.9234 100.109 78.238 100.109 78.622C100.109 78.9207 100.194 79.1714 100.365 79.374C100.546 79.566 100.77 79.71 101.037 79.806C101.314 79.902 101.597 79.95 101.885 79.95Z" fill="white"/>
<path d="M72.9799 13.4351L12.4984 73.9167C10.741 75.674 10.741 78.5233 12.4984 80.2806L71.6554 139.438C73.4127 141.195 76.262 141.195 78.0193 139.438L138.501 78.9561C140.258 77.1987 140.258 74.3495 138.501 72.5921L79.3439 13.4351C77.5865 11.6778 74.7373 11.6778 72.9799 13.4351Z" stroke="#A7A7A7" stroke-opacity="0.3"/>
<defs>
<linearGradient id="paint0_linear_4192_5767" x1="76.5001" y1="302.207" x2="76.5001" y2="274" gradientUnits="userSpaceOnUse">
<stop stop-color="#4C4C4C"/>
<stop offset="1" stop-color="#878787"/>
</linearGradient>
<linearGradient id="paint1_linear_4192_5767" x1="2.35065" y1="183.396" x2="172.336" y2="183.396" gradientUnits="userSpaceOnUse">
<stop stop-color="#737373" stop-opacity="0.11"/>
<stop offset="1" stop-color="#D9D9D9" stop-opacity="0.2"/>
</linearGradient>
<radialGradient id="paint2_radial_4192_5767" cx="0" cy="0" r="1" gradientUnits="userSpaceOnUse" gradientTransform="translate(nan nan) rotate(nan) scale(nan nan)">
<stop stop-color="#389D2D" stop-opacity="0"/>
<stop offset="1" stop-color="#389D2D"/>
</radialGradient>
<radialGradient id="paint3_radial_4192_5767" cx="0" cy="0" r="1" gradientUnits="userSpaceOnUse" gradientTransform="translate(nan nan) rotate(nan) scale(nan nan)">
<stop stop-color="#389D2D" stop-opacity="0"/>
<stop offset="1" stop-color="#389D2D"/>
</radialGradient>
<radialGradient id="paint4_radial_4192_5767" cx="0" cy="0" r="1" gradientUnits="userSpaceOnUse" gradientTransform="translate(nan nan) rotate(nan) scale(nan nan)">
<stop stop-color="#389D2D" stop-opacity="0"/>
<stop offset="1" stop-color="#389D2D"/>
</radialGradient>
<radialGradient id="paint5_radial_4192_5767" cx="0" cy="0" r="1" gradientUnits="userSpaceOnUse" gradientTransform="translate(nan nan) rotate(nan) scale(nan nan)">
<stop stop-color="#389D2D" stop-opacity="0"/>
<stop offset="1" stop-color="#389D2D"/>
</radialGradient>
<linearGradient id="paint6_linear_4192_5767" x1="37.9571" y1="38.25" x2="113.457" y2="113.75" gradientUnits="userSpaceOnUse">
<stop/>
<stop offset="1" stop-color="#666666"/>
</linearGradient>
<linearGradient id="paint7_linear_4192_5767" x1="37.9571" y1="38.25" x2="113.457" y2="113.75" gradientUnits="userSpaceOnUse">
<stop/>
<stop offset="1" stop-color="#666666"/>
</linearGradient>
</defs>
</svg>
