<svg width="544" height="292" viewBox="0 0 544 292" fill="none" xmlns="http://www.w3.org/2000/svg">
<ellipse cx="145.93" cy="145.93" rx="145.93" ry="145.929" fill="url(#paint0_linear_350_72)" fill-opacity="0.3"/>
<ellipse cx="298.047" cy="145.93" rx="145.93" ry="145.929" fill="url(#paint1_linear_350_72)" fill-opacity="0.3"/>
<path d="M373.372 140.552C373.372 134.482 378.017 127.13 383.224 124.959L444.467 99.4277C448.748 97.6429 451.935 100.03 451.935 105.021V150.333C451.935 156.403 447.29 163.755 442.083 165.926L380.84 191.458C376.559 193.242 373.372 190.856 373.372 185.865V140.552Z" fill="url(#paint2_linear_350_72)" fill-opacity="0.3"/>
<path d="M397.452 140.552C397.452 134.482 402.097 127.13 407.304 124.959L468.547 99.4277C472.828 97.6429 476.015 100.03 476.015 105.021V150.333C476.015 156.403 471.37 163.755 466.163 165.926L404.92 191.458C400.639 193.242 397.452 190.856 397.452 185.865V140.552Z" fill="url(#paint3_linear_350_72)" fill-opacity="0.4"/>
<path d="M421.437 140.552C421.437 134.482 426.082 127.13 431.289 124.959L492.532 99.4277C496.813 97.6429 500 100.03 500 105.021V150.333C500 156.403 495.355 163.755 490.148 165.926L428.905 191.458C424.624 193.242 421.437 190.856 421.437 185.865V140.552Z" fill="url(#paint4_linear_350_72)"/>
<path d="M452.023 155.004L456.827 149.205L461.63 149.457L456.827 155.256L452.023 155.004Z" fill="#878787"/>
<path fill-rule="evenodd" clip-rule="evenodd" d="M465.281 147.349L461.63 151.756V154.499L467.744 150.97C468.713 150.41 469.491 149.063 469.491 147.944V131.808C469.491 131.273 469.307 130.866 468.979 130.677C468.652 130.488 468.207 130.532 467.744 130.799L466.871 131.304V138.363L464.687 138.111L462.504 140.884V133.825L457.263 136.85C456.8 137.118 456.356 137.587 456.028 138.154C455.7 138.722 455.516 139.341 455.516 139.876V148.489L456.827 146.905L465.281 147.349Z" fill="#878787"/>
<path d="M459.883 152.573V154.59L456.827 158.281L453.77 158.12V156.103L456.827 156.264L459.883 152.573Z" fill="#878787"/>
<path d="M185.606 140.552C185.606 134.482 180.961 127.13 175.754 124.959L114.511 99.4274C110.23 97.6426 107.043 100.029 107.043 105.02V150.333C107.043 156.403 111.688 163.755 116.895 165.926L178.138 191.457C182.419 193.242 185.606 190.855 185.606 185.864V140.552Z" fill="url(#paint5_linear_350_72)" fill-opacity="0.3"/>
<path d="M154.238 140.552C154.238 134.482 149.592 127.13 144.386 124.959L83.1426 99.4276C78.8614 97.6428 75.6743 100.03 75.6743 105.021V150.333C75.6743 156.403 80.3197 163.755 85.5266 165.926L146.77 191.457C151.051 193.242 154.238 190.855 154.238 185.864V140.552Z" fill="url(#paint6_linear_350_72)" fill-opacity="0.4"/>
<path d="M125.893 140.552C125.893 134.482 121.247 127.13 116.04 124.959L54.7974 99.4275C50.5162 97.6427 47.3291 100.03 47.3291 105.021V150.333C47.3291 156.403 51.9745 163.755 57.1814 165.926L118.424 191.457C122.706 193.242 125.893 190.855 125.893 185.864V140.552Z" fill="url(#paint7_linear_350_72)"/>
<g clip-path="url(#clip0_350_72)">
<path d="M92.3243 153.737C92.3264 153.95 92.2735 154.214 92.2183 154.428C91.8331 155.936 90.1224 157.285 87.7146 156.476C85.5323 155.742 83.7549 154.181 83.7549 152.66C83.7549 151.14 85.528 150.381 87.7146 150.967C89.9012 151.553 92.3105 152.212 92.3243 153.737Z" fill="#878787"/>
<path d="M87.7135 151.221C86.539 150.906 83.8583 150.524 83.2431 150.359C82.1564 150.068 81.2749 150.538 81.2749 151.409C81.2749 151.828 81.4824 152.263 81.8147 152.634C81.8147 152.634 82.5445 153.587 83.8591 153.576C84.4344 153.571 85.3702 152.64 87.0178 152.893C87.8383 153.019 89.3756 154.088 92.0773 154.828C92.1934 154.601 92.2173 154.428 92.2173 154.428C92.2173 152.905 89.9001 151.807 87.7135 151.221Z" fill="#EEEEEE"/>
<path d="M92.2195 154.429C92.2195 154.429 93.8039 154.521 94.7891 153.443C95.9376 152.187 95.7867 150.472 95.7867 150.472C96.9503 148.531 95.4239 146.009 95.4239 146.009C95.2723 143.589 93.8518 142.223 93.8518 142.223C92.9297 139.707 90.8897 138.551 90.8897 138.551C89.2878 136.182 86.4461 135.483 86.4461 135.483C86.4461 135.483 83.7836 133.759 80.1286 133.915C79.5243 133.941 77.4987 133.836 76.0173 134.378C71.3481 136.086 70.9948 140.606 71.0601 141.374C71.4221 145.664 74.2638 147.177 76.0775 148.101C76.5005 149.403 78.0574 152.011 80.8534 151.947C84.2994 152.244 85.7504 151.569 86.597 151.796C87.4436 152.023 89.8014 153.593 92.2195 154.429Z" fill="#878787"/>
<path d="M83.5045 145.352C85.1935 144.862 86.109 145.195 86.9172 145.488C87.174 145.58 87.4171 145.664 87.663 145.729C89.1024 146.081 90.2682 145.765 90.784 145.296C90.8432 145.236 90.8718 145.147 90.8639 145.048C90.856 144.949 90.8122 144.848 90.7417 144.765C90.6711 144.682 90.5794 144.624 90.4856 144.603C90.3917 144.582 90.3032 144.6 90.2385 144.653C89.8409 145.015 88.8608 145.27 87.6463 144.973C87.4287 144.922 87.2103 144.841 86.9839 144.758C86.117 144.442 85.0404 144.052 83.1599 144.599C82.6775 144.739 82.0159 144.662 81.2991 144.545C79.7052 141.736 80.6643 139.919 80.9385 139.498C80.9654 139.507 80.9915 139.523 81.019 139.53C81.3092 139.608 81.6009 139.612 81.865 139.528C81.9454 139.499 82.0036 139.434 82.0274 139.346C82.0511 139.258 82.0384 139.154 81.9921 139.057C81.9457 138.959 81.8693 138.876 81.7789 138.824C81.6886 138.772 81.5914 138.756 81.508 138.779C81.2798 138.848 81.0126 138.813 80.7597 138.68C80.5069 138.547 80.287 138.327 80.1441 138.063C80.0902 137.97 80.009 137.894 79.9174 137.851C79.8259 137.808 79.731 137.801 79.6525 137.832C79.574 137.863 79.5179 137.93 79.4958 138.018C79.4737 138.106 79.4874 138.208 79.534 138.304C79.7059 138.629 79.9482 138.904 80.2217 139.117C79.8438 139.811 79.1263 141.708 80.4916 144.41C79.5311 144.251 78.5691 144.133 77.816 144.434C77.2869 144.651 76.8253 144.984 76.4536 145.414C75.9973 145.211 74.3265 144.337 74.0348 142.339C74.2162 142.242 74.3628 142.089 74.4534 141.876C74.471 141.835 74.4796 141.788 74.4788 141.739C74.4781 141.689 74.468 141.638 74.449 141.587C74.4301 141.537 74.4027 141.489 74.3685 141.445C74.3343 141.402 74.2939 141.364 74.2496 141.334C74.2053 141.304 74.158 141.282 74.1103 141.27C74.0627 141.258 74.0157 141.256 73.9719 141.264C73.9282 141.272 73.8887 141.29 73.8555 141.316C73.8224 141.343 73.7963 141.378 73.7787 141.419C73.7514 141.491 73.7078 141.551 73.6509 141.595C73.594 141.64 73.5253 141.668 73.4494 141.677C73.3725 141.683 73.2911 141.67 73.2106 141.639C73.1301 141.608 73.0525 141.561 72.9829 141.499C72.9413 141.464 72.8955 141.437 72.8482 141.418C72.8008 141.4 72.7529 141.391 72.7071 141.392C72.6146 141.395 72.5363 141.438 72.4896 141.513C72.4428 141.587 72.4314 141.687 72.4578 141.79C72.4842 141.893 72.5462 141.99 72.6303 142.061C72.8363 142.235 73.0569 142.354 73.276 142.413C73.3028 142.42 73.3282 142.414 73.3551 142.42C73.7004 144.325 75.0839 145.492 76.0626 145.995C75.9346 146.243 75.8534 146.524 75.8224 146.826C75.814 146.923 75.8439 147.029 75.9057 147.122C75.9675 147.215 76.056 147.287 76.1518 147.321L76.1844 147.332C76.2751 147.356 76.3625 147.344 76.4294 147.299C76.4962 147.253 76.5378 147.177 76.5457 147.086C76.6241 146.196 77.4635 145.469 78.2093 145.169C78.9086 144.89 79.9323 145.066 80.9233 145.236C81.8845 145.403 82.7928 145.559 83.5045 145.352ZM92.8386 146.723C92.7924 146.799 92.7817 146.899 92.8087 147.001C92.8358 147.104 92.8985 147.202 92.9829 147.272C93.0674 147.343 93.1668 147.38 93.2591 147.377C93.3515 147.374 93.4294 147.33 93.4755 147.255C93.4893 147.233 94.8119 145.022 92.3358 142.635C92.256 142.558 92.1581 142.511 92.0636 142.505C91.9692 142.499 91.886 142.534 91.8323 142.602C91.7787 142.671 91.7589 142.767 91.7774 142.869C91.7959 142.972 91.8511 143.073 91.931 143.15C93.8492 144.999 92.8807 146.654 92.8386 146.723ZM77.8015 136.63C77.8591 136.646 77.9158 136.647 77.967 136.633C78.0182 136.62 78.0625 136.592 78.0961 136.553C79.148 135.32 80.6048 136.228 80.6665 136.269C80.7558 136.323 80.8531 136.343 80.9379 136.323C81.0226 136.304 81.0881 136.246 81.1206 136.164C81.1531 136.081 81.15 135.979 81.1119 135.88C81.0739 135.781 81.0039 135.692 80.9168 135.632C80.2203 135.178 78.6119 134.662 77.507 135.957C77.4682 136.003 77.4451 136.063 77.4402 136.13C77.4353 136.198 77.4488 136.27 77.4793 136.34C77.5097 136.409 77.5559 136.473 77.6127 136.524C77.6696 136.576 77.7349 136.612 77.8015 136.63ZM87.285 137.753C88.8992 138.05 89.6334 139.458 89.6668 139.524C89.7156 139.623 89.7953 139.707 89.8885 139.757C89.9347 139.782 89.9827 139.797 90.0299 139.803C90.0772 139.809 90.1226 139.805 90.1637 139.791C90.2048 139.777 90.2408 139.753 90.2695 139.722C90.2983 139.69 90.3192 139.651 90.3312 139.606C90.3432 139.562 90.346 139.513 90.3394 139.462C90.3328 139.411 90.317 139.36 90.2929 139.311C90.2537 139.232 89.3207 137.385 87.2284 136.989C87.1809 136.98 87.1346 136.981 87.0922 136.992C87.0497 137.003 87.0119 137.024 86.981 137.053C86.9185 137.112 86.8876 137.202 86.8951 137.304C86.9026 137.405 86.9479 137.509 87.021 137.594C87.0941 137.678 87.1891 137.735 87.285 137.753ZM93.9232 150.506C93.7447 150.447 93.5481 150.541 93.5321 150.744C93.5307 150.757 93.4153 152.004 92.1465 152.096C92.0635 152.101 91.9927 152.139 91.947 152.203C91.9013 152.267 91.8837 152.354 91.8976 152.446C91.9114 152.539 91.9557 152.632 92.0223 152.707C92.0889 152.783 92.1734 152.837 92.2604 152.859C92.2988 152.869 92.337 152.873 92.3735 152.87C94.0944 152.747 94.2496 151.072 94.2554 151C94.2594 150.952 94.254 150.901 94.2394 150.85C94.2248 150.799 94.2015 150.749 94.1706 150.704C94.1397 150.658 94.102 150.616 94.0595 150.583C94.0171 150.549 93.9707 150.523 93.9232 150.506Z" fill="#EEEEEE"/>
<path d="M75.9658 142.044C75.9516 142.088 75.9468 142.138 75.9518 142.189C75.9569 142.241 75.9716 142.293 75.9952 142.344C76.0187 142.394 76.0506 142.441 76.089 142.483C76.1273 142.524 76.1713 142.559 76.2183 142.584C76.2653 142.61 76.3143 142.626 76.3626 142.632C76.4108 142.638 76.4572 142.634 76.4989 142.619C76.5407 142.604 76.577 142.58 76.6057 142.547C76.6344 142.514 76.6549 142.473 76.6659 142.427C76.7358 142.185 76.8982 142.006 77.1205 141.924C77.3429 141.842 77.6087 141.864 77.8644 141.986C77.911 142.009 77.9591 142.022 78.006 142.026C78.0528 142.029 78.0974 142.022 78.1373 142.006C78.1772 141.99 78.2115 141.964 78.2384 141.931C78.2653 141.897 78.2841 141.856 78.2939 141.811C78.3037 141.765 78.3041 141.715 78.2953 141.665C78.2865 141.614 78.2685 141.563 78.2425 141.514C78.2164 141.466 78.1827 141.422 78.1434 141.383C78.104 141.345 78.0598 141.313 78.0131 141.291C77.7112 141.146 77.3983 141.085 77.1077 141.113C76.2618 139.389 76.4265 137.956 76.4287 137.941C76.4415 137.846 76.4159 137.739 76.3575 137.644C76.2991 137.549 76.2128 137.474 76.1174 137.435C76.0224 137.397 75.9264 137.398 75.8501 137.438C75.7739 137.477 75.7234 137.552 75.7097 137.647C75.7003 137.717 75.5066 139.332 76.4809 141.319C76.233 141.483 76.0542 141.735 75.9658 142.044ZM84.076 142.362C84.2209 142.264 84.4102 142.241 84.6059 142.295C84.8016 142.35 84.9894 142.479 85.1315 142.656C85.2006 142.744 85.2935 142.807 85.3897 142.831C85.4858 142.855 85.5775 142.839 85.6445 142.785C85.7115 142.732 85.7484 142.646 85.7471 142.546C85.7457 142.446 85.7062 142.34 85.6372 142.252C85.4734 142.047 85.2754 141.874 85.059 141.748C85.2737 141.042 85.1889 140.681 84.9894 139.993C84.9499 139.858 84.9119 139.723 84.8755 139.588L84.8537 139.507C84.5896 138.529 84.4148 137.884 84.9168 137.173C84.9672 137.102 84.983 137.004 84.9607 136.901C84.9384 136.798 84.8798 136.699 84.7978 136.625C84.7159 136.551 84.6172 136.508 84.5236 136.506C84.43 136.504 84.3491 136.543 84.2987 136.614C83.6254 137.566 83.8728 138.481 84.1594 139.539L84.1812 139.62C84.2237 139.777 84.2631 139.917 84.2994 140.04C84.4786 140.66 84.533 140.866 84.3139 141.498C84.0396 141.475 83.7853 141.539 83.5812 141.68C83.5134 141.731 83.4742 141.813 83.472 141.911C83.4697 142.008 83.5047 142.113 83.5694 142.202C83.634 142.291 83.7232 142.358 83.8179 142.388C83.9126 142.417 84.0052 142.408 84.076 142.362ZM88.6937 141.357C88.9091 141.416 89.122 141.424 89.3168 141.381C89.4039 141.362 89.4711 141.303 89.5037 141.218C89.5363 141.133 89.5316 141.029 89.4906 140.927C89.4496 140.826 89.3757 140.737 89.2852 140.679C89.1946 140.621 89.0949 140.599 89.0078 140.618C88.8295 140.655 88.6268 140.613 88.4406 140.499C88.2543 140.385 88.0982 140.209 88.0037 140.006C87.9822 139.955 87.9521 139.907 87.9152 139.864C87.8783 139.821 87.8355 139.785 87.7892 139.757C87.7429 139.73 87.694 139.711 87.6456 139.702C87.5972 139.694 87.5501 139.696 87.5073 139.708C87.4644 139.721 87.4266 139.743 87.3961 139.774C87.3656 139.805 87.343 139.844 87.3297 139.889C87.3164 139.934 87.3126 139.984 87.3186 140.035C87.3246 140.087 87.3402 140.139 87.3646 140.189C87.4952 140.477 87.6896 140.728 87.9159 140.927C87.5264 141.802 87.7476 142.903 87.9283 143.503C87.9421 143.555 87.9652 143.606 87.9962 143.654C88.0273 143.701 88.0656 143.743 88.1089 143.778C88.1521 143.813 88.1995 143.84 88.2482 143.857C88.2968 143.874 88.3457 143.881 88.392 143.877C88.4382 143.873 88.4808 143.859 88.5173 143.835C88.5537 143.811 88.5833 143.778 88.6041 143.738C88.625 143.698 88.6367 143.652 88.6386 143.602C88.6405 143.552 88.6326 143.499 88.6153 143.447C88.4934 143.041 88.2569 142.033 88.6139 141.325C88.6414 141.333 88.6668 141.35 88.6937 141.357ZM92.1738 149.372C92.171 149.322 92.1588 149.27 92.1379 149.22C92.117 149.17 92.0878 149.122 92.0519 149.08C92.0161 149.038 91.9744 149.002 91.9292 148.974C91.8839 148.946 91.8362 148.927 91.7886 148.918C91.6146 148.883 91.44 148.813 91.2747 148.711C91.1095 148.61 90.9569 148.478 90.8256 148.324C90.6944 148.17 90.5871 147.997 90.5099 147.814C90.4328 147.631 90.3873 147.443 90.376 147.26C90.3677 147.159 90.3228 147.056 90.2507 146.971C90.1786 146.887 90.0849 146.828 89.9894 146.807C89.9418 146.798 89.8954 146.798 89.8527 146.809C89.81 146.819 89.7719 146.84 89.7406 146.868C89.7092 146.897 89.6853 146.934 89.6701 146.977C89.6549 147.019 89.6488 147.067 89.652 147.117C89.6818 147.568 89.845 148.012 90.0931 148.403C89.5098 148.957 88.7459 148.955 88.32 148.892C87.9435 148.838 87.6141 148.71 87.2333 148.561C86.8843 148.427 86.4896 148.274 86.0014 148.158L85.9978 148.158C85.9833 147.939 85.9339 147.612 85.7765 147.31C85.7224 147.218 85.642 147.143 85.5515 147.101C85.4611 147.059 85.3674 147.052 85.2893 147.081C85.2113 147.111 85.1547 147.175 85.1311 147.261C85.1074 147.347 85.1185 147.448 85.162 147.544C85.2592 147.731 85.2774 147.994 85.2774 148.119C84.9117 148.157 84.5954 148.272 84.3096 148.389C83.7988 148.596 83.3962 148.76 82.7904 148.456C82.242 148.179 81.6928 148.006 81.227 147.949C81.1545 147.741 81.0398 147.485 80.8628 147.264C80.7929 147.177 80.6995 147.115 80.6034 147.092C80.5072 147.069 80.416 147.087 80.3499 147.141C80.2838 147.196 80.2482 147.283 80.2509 147.384C80.2536 147.484 80.2945 147.589 80.3644 147.676C80.4268 147.754 80.4761 147.856 80.516 147.955C79.7158 148.082 79.3146 148.544 79.2958 148.567C79.2573 148.613 79.2345 148.673 79.2298 148.74C79.2251 148.807 79.2388 148.88 79.2693 148.949C79.2997 149.018 79.3459 149.082 79.4027 149.133C79.4594 149.184 79.5246 149.22 79.591 149.238C79.6484 149.254 79.705 149.255 79.7562 149.242C79.8074 149.229 79.8518 149.202 79.8856 149.163C79.8892 149.158 80.2875 148.713 81.0732 148.7C81.4795 148.693 82.062 148.859 82.6301 149.145C82.789 149.225 82.9362 149.277 83.0792 149.318C83.1466 149.5 83.1727 149.701 83.1764 149.774C83.1816 149.871 83.222 149.972 83.2893 150.056C83.3566 150.14 83.4457 150.201 83.5384 150.226L83.558 150.23C83.6537 150.251 83.7435 150.23 83.8078 150.174C83.8721 150.118 83.9057 150.03 83.9011 149.929C83.8892 149.751 83.8575 149.57 83.8068 149.389C84.1413 149.353 84.4322 149.235 84.7057 149.124C85.1207 148.955 85.5131 148.795 86.0261 148.915C86.4555 149.015 86.8096 149.152 87.1513 149.285C87.4952 149.419 87.8332 149.536 88.2061 149.614C88.2721 149.822 88.2671 150.074 88.2569 150.156C88.2508 150.207 88.2555 150.262 88.2708 150.317C88.2861 150.372 88.3116 150.426 88.3457 150.475C88.3797 150.524 88.4215 150.567 88.4684 150.602C88.5152 150.636 88.566 150.662 88.6175 150.676C88.7054 150.699 88.7903 150.689 88.8564 150.646C88.9224 150.604 88.9652 150.532 88.9766 150.445C89.0029 150.206 88.9884 149.953 88.9338 149.697C89.5957 149.692 90.1888 149.466 90.635 149.048C90.9946 149.375 91.4145 149.596 91.8364 149.68C91.9322 149.699 92.0215 149.677 92.0847 149.619C92.1479 149.561 92.18 149.472 92.1738 149.372Z" fill="#EEEEEE"/>
</g>
<path d="M34.9316 62.5963H115.543C118.857 62.5963 121.543 65.2826 121.543 68.5963V78.4311C121.543 81.7449 124.23 84.4311 127.543 84.4311H180.497" stroke="url(#paint8_linear_350_72)" stroke-opacity="0.5" stroke-linecap="round"/>
<ellipse cx="4.57063" cy="4.57062" rx="4.57063" ry="4.57062" transform="matrix(1 0 0 -1 176.13 89.2087)" fill="#ACD4A7"/>
<ellipse cx="2.74212" cy="2.74212" rx="2.74212" ry="2.74212" transform="matrix(1 0 0 -1 177.962 87.3763)" fill="#389D2D"/>
<path d="M49.5068 246.416H130.118C133.432 246.416 136.118 243.73 136.118 240.416V230.581C136.118 227.268 138.805 224.581 142.118 224.581H195.073" stroke="url(#paint9_linear_350_72)" stroke-opacity="0.5" stroke-linecap="round"/>
<ellipse cx="195.276" cy="224.379" rx="4.57063" ry="4.57062" fill="#ACD4A7"/>
<ellipse cx="195.266" cy="224.379" rx="2.74212" ry="2.74212" fill="#389D2D"/>
<path d="M213.26 67.3699H293.872C297.185 67.3699 299.872 64.6836 299.872 61.3699V51.535C299.872 48.2213 302.558 45.535 305.872 45.535H358.826" stroke="url(#paint10_linear_350_72)" stroke-opacity="0.5" stroke-linecap="round"/>
<ellipse cx="359.02" cy="45.3305" rx="4.57063" ry="4.57062" fill="#ACD4A7"/>
<ellipse cx="359.01" cy="45.3307" rx="2.74212" ry="2.74212" fill="#389D2D"/>
<path d="M257.837 105.537H325.457C328.771 105.537 331.457 102.85 331.457 99.5366V89.7018C331.457 86.3881 334.144 83.7018 337.457 83.7018H381.568" stroke="url(#paint11_linear_350_72)" stroke-opacity="0.5" stroke-linecap="round" stroke-dasharray="13 13"/>
<ellipse cx="381.063" cy="83.9059" rx="4.57063" ry="4.57062" fill="#ACD4A7"/>
<ellipse cx="381.039" cy="83.9029" rx="2.74212" ry="2.74212" fill="#389D2D"/>
<path d="M282.015 47.3119H214.395C211.081 47.3119 208.395 44.6256 208.395 41.3119V31.4771C208.395 28.1633 205.709 25.4771 202.395 25.4771H158.284" stroke="url(#paint12_linear_350_72)" stroke-opacity="0.5" stroke-linecap="round" stroke-dasharray="13 13"/>
<ellipse cx="4.57063" cy="4.57062" rx="4.57063" ry="4.57062" transform="matrix(-1 0 0 1 163.388 21.1067)" fill="#ACD4A7"/>
<ellipse cx="2.74212" cy="2.74212" rx="2.74212" ry="2.74212" transform="matrix(-1 0 0 1 161.555 22.9354)" fill="#389D2D"/>
<path d="M346.117 262.02H278.498C275.184 262.02 272.498 259.334 272.498 256.02V246.186C272.498 242.872 269.811 240.186 266.498 240.186H222.387" stroke="url(#paint13_linear_350_72)" stroke-opacity="0.5" stroke-linecap="round" stroke-dasharray="13 13"/>
<ellipse cx="4.57063" cy="4.57062" rx="4.57063" ry="4.57062" transform="matrix(-1 0 0 1 227.5 235.821)" fill="#ACD4A7"/>
<ellipse cx="2.74212" cy="2.74212" rx="2.74212" ry="2.74212" transform="matrix(-1 0 0 1 225.667 237.65)" fill="#389D2D"/>
<path d="M267.124 221.988H347.736C351.049 221.988 353.736 224.675 353.736 227.988V237.823C353.736 241.137 356.422 243.823 359.736 243.823H412.69" stroke="url(#paint14_linear_350_72)" stroke-opacity="0.5" stroke-linecap="round"/>
<ellipse cx="4.57063" cy="4.57062" rx="4.57063" ry="4.57062" transform="matrix(1 0 0 -1 408.324 248.604)" fill="#ACD4A7"/>
<ellipse cx="2.74212" cy="2.74212" rx="2.74212" ry="2.74212" transform="matrix(1 0 0 -1 410.157 246.775)" fill="#389D2D"/>
<path d="M216.187 82.4225C216.187 79.1088 218.873 76.4225 222.187 76.4225H319.361C322.675 76.4225 325.361 79.1088 325.361 82.4225V208.71C325.361 212.023 322.675 214.71 319.361 214.71H222.187C218.873 214.71 216.187 212.023 216.187 208.71V82.4225Z" fill="url(#paint15_linear_350_72)"/>
<path d="M216.187 82.4225C216.187 79.1088 218.873 76.4225 222.187 76.4225H319.361C322.675 76.4225 325.361 79.1088 325.361 82.4225V208.71C325.361 212.023 322.675 214.71 319.361 214.71H222.187C218.873 214.71 216.187 212.023 216.187 208.71V82.4225Z" fill="url(#paint16_linear_350_72)"/>
<path d="M216.181 82.4213C216.181 79.1076 218.867 76.4213 222.181 76.4213H319.355C322.669 76.4213 325.355 79.1076 325.355 82.4213V208.709C325.355 212.022 322.669 214.709 319.355 214.709H222.181C218.867 214.709 216.181 212.022 216.181 208.709V82.4213Z" fill="url(#paint17_linear_350_72)"/>
<path d="M216.181 82.4213C216.181 79.1076 218.867 76.4213 222.181 76.4213H319.355C322.669 76.4213 325.355 79.1076 325.355 82.4213V208.709C325.355 212.022 322.669 214.709 319.355 214.709H222.181C218.867 214.709 216.181 212.022 216.181 208.709V82.4213Z" fill="url(#paint18_linear_350_72)"/>
<path fill-rule="evenodd" clip-rule="evenodd" d="M286.435 124.338C286.435 123.586 285.831 122.975 285.085 122.975H260.208C259.462 122.975 258.858 123.586 258.858 124.338V161.376C258.858 162.129 259.462 162.739 260.208 162.739H273.043C274.233 162.739 274.909 161.227 274.32 160.183C273.255 158.299 272.647 156.118 272.647 153.792C272.647 152.659 272.791 151.56 273.062 150.514C273.275 149.691 272.699 148.821 271.857 148.821C271.205 148.821 270.677 148.288 270.677 147.631V146.209C270.677 145.455 271.281 144.846 272.027 144.846H274.159C274.412 144.846 274.616 145.051 274.616 145.306C274.616 145.769 275.25 145.966 275.54 145.609C277.888 142.715 281.456 140.869 285.45 140.869C285.982 140.869 286.435 140.449 286.435 139.912V124.338ZM281.342 134.904C282.088 134.904 282.693 135.515 282.693 136.267V137.518C282.693 138.27 282.088 138.881 281.342 138.881H264.345C263.599 138.881 262.994 138.27 262.994 137.518V136.267C262.994 135.515 263.599 134.904 264.345 134.904H281.342ZM281.145 126.952C281.891 126.952 282.496 127.561 282.496 128.315V129.564C282.496 130.318 281.891 130.927 281.145 130.927H264.148C263.402 130.927 262.797 130.318 262.797 129.564V128.315C262.797 127.561 263.402 126.952 264.148 126.952H281.145Z" fill="white"/>
<path fill-rule="evenodd" clip-rule="evenodd" d="M294.422 149.668C294.673 150.223 294.427 150.861 293.904 151.166C293.402 151.458 293.171 152.055 293.254 152.633C293.31 153.016 293.338 153.403 293.337 153.792C293.338 154.18 293.31 154.567 293.254 154.951C293.171 155.529 293.402 156.126 293.904 156.418C294.427 156.723 294.673 157.361 294.422 157.916C294.318 158.146 294.206 158.373 294.084 158.593L293.9 158.915C293.767 159.137 293.626 159.356 293.477 159.565C293.126 160.062 292.455 160.165 291.932 159.861C291.431 159.568 290.803 159.665 290.349 160.028C289.751 160.506 289.083 160.899 288.363 161.186C287.824 161.402 287.428 161.902 287.428 162.487C287.428 163.097 287.003 163.63 286.402 163.688C286.089 163.718 285.774 163.733 285.458 163.733C285.14 163.733 284.825 163.718 284.514 163.688C283.913 163.63 283.488 163.097 283.488 162.487C283.488 161.902 283.092 161.402 282.553 161.186C281.833 160.899 281.165 160.506 280.567 160.028C280.113 159.665 279.485 159.568 278.984 159.86C278.461 160.165 277.79 160.062 277.44 159.565C277.289 159.353 277.146 159.133 277.012 158.908L276.836 158.6C276.713 158.377 276.599 158.148 276.494 157.916C276.243 157.361 276.489 156.723 277.012 156.418C277.514 156.126 277.746 155.529 277.662 154.951C277.606 154.567 277.578 154.18 277.579 153.792C277.578 153.405 277.606 153.017 277.662 152.634C277.746 152.055 277.514 151.459 277.012 151.166C276.489 150.862 276.243 150.223 276.494 149.668C276.599 149.436 276.713 149.207 276.836 148.983L277.012 148.677C277.146 148.452 277.288 148.232 277.44 148.018C277.79 147.523 278.461 147.42 278.983 147.724C279.485 148.015 280.113 147.92 280.567 147.556C281.165 147.079 281.833 146.686 282.553 146.397C283.092 146.182 283.488 145.681 283.488 145.096C283.488 144.488 283.913 143.954 284.514 143.897C284.827 143.865 285.143 143.85 285.458 143.85C285.777 143.85 286.092 143.867 286.402 143.897C287.003 143.954 287.428 144.488 287.428 145.096C287.428 145.681 287.824 146.182 288.363 146.397C289.083 146.686 289.751 147.077 290.349 147.556C290.803 147.92 291.431 148.015 291.932 147.724C292.455 147.418 293.126 147.522 293.477 148.018C293.626 148.229 293.767 148.446 293.9 148.668L294.084 148.99C294.206 149.212 294.318 149.437 294.422 149.668ZM285.458 156.775C287.09 156.775 288.413 155.439 288.413 153.792C288.413 152.145 287.09 150.81 285.458 150.81C283.826 150.81 282.503 152.145 282.503 153.792C282.503 155.439 283.826 156.775 285.458 156.775Z" fill="#389D2D"/>
<defs>
<linearGradient id="paint0_linear_350_72" x1="291.859" y1="145.93" x2="104.443" y2="145.566" gradientUnits="userSpaceOnUse">
<stop stop-color="#389D2D" stop-opacity="0.4"/>
<stop offset="1" stop-color="#389D2D" stop-opacity="0"/>
</linearGradient>
<linearGradient id="paint1_linear_350_72" x1="443.977" y1="145.93" x2="256.561" y2="145.566" gradientUnits="userSpaceOnUse">
<stop stop-color="#389D2D" stop-opacity="0.4"/>
<stop offset="1" stop-color="#389D2D" stop-opacity="0"/>
</linearGradient>
<linearGradient id="paint2_linear_350_72" x1="432.65" y1="172.372" x2="403.751" y2="126.1" gradientUnits="userSpaceOnUse">
<stop stop-color="#F9F9F9" stop-opacity="0.8"/>
<stop offset="1" stop-color="#A7A7A7" stop-opacity="0.6"/>
</linearGradient>
<linearGradient id="paint3_linear_350_72" x1="456.73" y1="172.372" x2="427.831" y2="126.1" gradientUnits="userSpaceOnUse">
<stop stop-color="#F9F9F9" stop-opacity="0.8"/>
<stop offset="1" stop-color="#A7A7A7" stop-opacity="0.6"/>
</linearGradient>
<linearGradient id="paint4_linear_350_72" x1="480.715" y1="172.372" x2="451.816" y2="126.1" gradientUnits="userSpaceOnUse">
<stop stop-color="#F9F9F9" stop-opacity="0.8"/>
<stop offset="1" stop-color="#A7A7A7" stop-opacity="0.6"/>
</linearGradient>
<linearGradient id="paint5_linear_350_72" x1="126.328" y1="172.372" x2="155.227" y2="126.1" gradientUnits="userSpaceOnUse">
<stop stop-color="#F9F9F9" stop-opacity="0.8"/>
<stop offset="1" stop-color="#A7A7A7" stop-opacity="0.6"/>
</linearGradient>
<linearGradient id="paint6_linear_350_72" x1="94.9596" y1="172.372" x2="123.858" y2="126.1" gradientUnits="userSpaceOnUse">
<stop stop-color="#F9F9F9" stop-opacity="0.8"/>
<stop offset="1" stop-color="#A7A7A7" stop-opacity="0.6"/>
</linearGradient>
<linearGradient id="paint7_linear_350_72" x1="66.6144" y1="172.372" x2="95.5132" y2="126.1" gradientUnits="userSpaceOnUse">
<stop stop-color="#F9F9F9" stop-opacity="0.8"/>
<stop offset="1" stop-color="#A7A7A7" stop-opacity="0.6"/>
</linearGradient>
<linearGradient id="paint8_linear_350_72" x1="34.9316" y1="73.5137" x2="180.497" y2="73.5137" gradientUnits="userSpaceOnUse">
<stop stop-color="#A7A7A7" stop-opacity="0"/>
<stop offset="1" stop-color="#414141" stop-opacity="0.6"/>
</linearGradient>
<linearGradient id="paint9_linear_350_72" x1="49.5068" y1="235.499" x2="195.073" y2="235.499" gradientUnits="userSpaceOnUse">
<stop stop-color="#A7A7A7" stop-opacity="0"/>
<stop offset="1" stop-color="#414141" stop-opacity="0.6"/>
</linearGradient>
<linearGradient id="paint10_linear_350_72" x1="213.26" y1="56.4525" x2="358.826" y2="56.4525" gradientUnits="userSpaceOnUse">
<stop stop-color="#A7A7A7" stop-opacity="0"/>
<stop offset="1" stop-color="#414141" stop-opacity="0.6"/>
</linearGradient>
<linearGradient id="paint11_linear_350_72" x1="257.837" y1="94.6192" x2="381.568" y2="94.6192" gradientUnits="userSpaceOnUse">
<stop stop-color="#A7A7A7" stop-opacity="0"/>
<stop offset="1" stop-color="#414141" stop-opacity="0.6"/>
</linearGradient>
<linearGradient id="paint12_linear_350_72" x1="282.015" y1="36.3945" x2="158.284" y2="36.3945" gradientUnits="userSpaceOnUse">
<stop stop-color="#A7A7A7" stop-opacity="0"/>
<stop offset="1" stop-color="#414141" stop-opacity="0.6"/>
</linearGradient>
<linearGradient id="paint13_linear_350_72" x1="346.117" y1="251.103" x2="222.387" y2="251.103" gradientUnits="userSpaceOnUse">
<stop stop-color="#A7A7A7" stop-opacity="0"/>
<stop offset="1" stop-color="#414141" stop-opacity="0.6"/>
</linearGradient>
<linearGradient id="paint14_linear_350_72" x1="267.124" y1="232.906" x2="412.69" y2="232.906" gradientUnits="userSpaceOnUse">
<stop stop-color="#A7A7A7" stop-opacity="0"/>
<stop offset="1" stop-color="#414141" stop-opacity="0.6"/>
</linearGradient>
<linearGradient id="paint15_linear_350_72" x1="288.247" y1="184.629" x2="283.873" y2="77.606" gradientUnits="userSpaceOnUse">
<stop stop-color="#F9F9F9" stop-opacity="0.8"/>
<stop offset="1" stop-color="#A7A7A7" stop-opacity="0.6"/>
</linearGradient>
<linearGradient id="paint16_linear_350_72" x1="270.774" y1="76.4225" x2="270.774" y2="214.71" gradientUnits="userSpaceOnUse">
<stop/>
<stop offset="1" stop-color="#666666"/>
</linearGradient>
<linearGradient id="paint17_linear_350_72" x1="288.241" y1="184.627" x2="283.867" y2="77.6048" gradientUnits="userSpaceOnUse">
<stop stop-color="#F9F9F9" stop-opacity="0.8"/>
<stop offset="1" stop-color="#A7A7A7" stop-opacity="0.6"/>
</linearGradient>
<linearGradient id="paint18_linear_350_72" x1="270.768" y1="76.4213" x2="270.768" y2="214.709" gradientUnits="userSpaceOnUse">
<stop/>
<stop offset="1" stop-color="#666666"/>
</linearGradient>
<clipPath id="clip0_350_72">
<rect width="27.0386" height="27.0386" fill="white" transform="matrix(0.965926 0.258819 0 1 70.6362 127.898)"/>
</clipPath>
</defs>
</svg>
