<svg width="360" height="210" viewBox="0 0 360 210" fill="none" xmlns="http://www.w3.org/2000/svg">
<circle cx="112.27" cy="104.96" r="94.2702" fill="url(#paint0_linear_4975_11190)" fill-opacity="0.3"/>
<circle cx="210.54" cy="104.96" r="94.2702" fill="url(#paint1_linear_4975_11190)" fill-opacity="0.3"/>
<path d="M259.195 105.552C259.195 99.4817 263.841 92.1295 269.048 89.9588L302.479 76.0217C306.76 74.2369 309.947 76.6237 309.947 81.6147V103.738C309.947 109.808 305.302 117.161 300.095 119.331L266.664 133.268C262.382 135.053 259.195 132.666 259.195 127.675V105.552Z" fill="url(#paint2_linear_4975_11190)" fill-opacity="0.3"/>
<path d="M274.754 105.552C274.754 99.4817 279.399 92.1295 284.606 89.9588L318.037 76.0216C322.319 74.2369 325.506 76.6237 325.506 81.6147V103.738C325.506 109.808 320.86 117.161 315.653 119.331L282.222 133.268C277.941 135.053 274.754 132.666 274.754 127.675V105.552Z" fill="url(#paint3_linear_4975_11190)" fill-opacity="0.4"/>
<path d="M290.246 105.552C290.246 99.4817 294.892 92.1295 300.098 89.9588L333.53 76.0217C337.811 74.2369 340.998 76.6237 340.998 81.6147V103.738C340.998 109.808 336.352 117.161 331.146 119.331L297.714 133.268C293.433 135.053 290.246 132.666 290.246 127.675V105.552Z" fill="url(#paint4_linear_4975_11190)"/>
<path d="M310.005 110.821L313.108 107.075L316.211 107.238L313.108 110.984L310.005 110.821Z" fill="#878787"/>
<path fill-rule="evenodd" clip-rule="evenodd" d="M318.57 105.877L316.211 108.724V110.496L320.161 108.215C320.787 107.854 321.289 106.984 321.289 106.261V95.8371C321.289 95.4915 321.17 95.2287 320.959 95.1066C320.747 94.9844 320.46 95.0128 320.161 95.1856L319.596 95.5113L319.596 100.072L318.186 99.9089L316.775 101.701L316.775 97.1401L313.39 99.0946C313.091 99.2674 312.804 99.5703 312.592 99.9369C312.381 100.303 312.262 100.703 312.262 101.049V106.613L313.108 105.59L318.57 105.877Z" fill="#878787"/>
<path d="M315.083 109.251V110.554L313.108 112.939L311.133 112.835V111.532L313.108 111.636L315.083 109.251Z" fill="#878787"/>
<path d="M137.902 105.552C137.902 99.4816 133.257 92.1294 128.05 89.9587L94.6188 76.0216C90.3376 74.2368 87.1505 76.6236 87.1505 81.6146V103.738C87.1505 109.808 91.7959 117.161 97.0028 119.331L130.434 133.268C134.715 135.053 137.902 132.666 137.902 127.675V105.552Z" fill="url(#paint5_linear_4975_11190)" fill-opacity="0.3"/>
<path d="M117.637 105.552C117.637 99.4817 112.991 92.1295 107.784 89.9588L74.3532 76.0217C70.0719 74.2369 66.8849 76.6237 66.8849 81.6147V103.738C66.8849 109.808 71.5303 117.161 76.7372 119.331L110.168 133.268C114.45 135.053 117.637 132.666 117.637 127.675V105.552Z" fill="url(#paint6_linear_4975_11190)" fill-opacity="0.4"/>
<path d="M99.3281 105.552C99.3281 99.4817 94.6827 92.1295 89.4759 89.9588L56.0446 76.0217C51.7634 74.2369 48.5763 76.6237 48.5763 81.6147V103.738C48.5763 109.808 53.2217 117.161 58.4286 119.331L91.8599 133.268C96.1411 135.053 99.3281 132.666 99.3281 127.675V105.552Z" fill="url(#paint7_linear_4975_11190)"/>
<g clip-path="url(#clip0_4975_11190)">
<path d="M77.6413 110.003C77.6427 110.141 77.6085 110.311 77.5728 110.45C77.324 111.424 76.2189 112.295 74.6634 111.772C73.2537 111.299 72.1055 110.29 72.1055 109.308C72.1055 108.325 73.2509 107.836 74.6634 108.214C76.0759 108.593 77.6324 109.018 77.6413 110.003Z" fill="#878787"/>
<path d="M74.6633 108.378C73.9045 108.175 72.1728 107.928 71.7754 107.821C71.0733 107.633 70.5039 107.937 70.5039 108.5C70.5039 108.77 70.6379 109.051 70.8526 109.291C70.8526 109.291 71.3241 109.907 72.1733 109.899C72.5449 109.896 73.1495 109.294 74.2138 109.458C74.7439 109.54 75.737 110.23 77.4822 110.708C77.5572 110.561 77.5727 110.449 77.5727 110.449C77.5727 109.466 76.0758 108.756 74.6633 108.378Z" fill="#EEEEEE"/>
<path d="M77.5754 110.45C77.5754 110.45 78.5989 110.51 79.2354 109.814C79.9773 109.002 79.8798 107.894 79.8798 107.894C80.6315 106.64 79.6454 105.011 79.6454 105.011C79.5475 103.448 78.6299 102.566 78.6299 102.566C78.0342 100.94 76.7163 100.193 76.7163 100.193C75.6815 98.6626 73.8458 98.2109 73.8458 98.2109C73.8458 98.2109 72.1258 97.0975 69.7647 97.1984C69.3743 97.2151 68.0658 97.1474 67.1088 97.4975C64.0925 98.6009 63.8643 101.521 63.9065 102.017C64.1403 104.788 65.9761 105.765 67.1477 106.362C67.4209 107.203 68.4267 108.888 70.2329 108.847C72.459 109.039 73.3963 108.603 73.9433 108.749C74.4902 108.896 76.0133 109.91 77.5754 110.45Z" fill="#878787"/>
<path d="M71.946 104.587C73.037 104.27 73.6285 104.485 74.1505 104.674C74.3164 104.734 74.4734 104.788 74.6323 104.83C75.5621 105.057 76.3153 104.853 76.6485 104.55C76.6867 104.512 76.7052 104.454 76.7001 104.391C76.695 104.327 76.6667 104.261 76.6211 104.207C76.5756 104.154 76.5163 104.116 76.4557 104.103C76.3951 104.089 76.3379 104.101 76.2961 104.135C76.0392 104.369 75.4061 104.534 74.6215 104.342C74.4809 104.309 74.3399 104.256 74.1937 104.203C73.6336 103.999 72.9381 103.747 71.7234 104.1C71.4117 104.191 70.9843 104.141 70.5212 104.065C69.4916 102.251 70.1112 101.077 70.2883 100.805C70.3057 100.81 70.3225 100.821 70.3403 100.826C70.5278 100.876 70.7162 100.879 70.8868 100.824C70.9388 100.806 70.9764 100.763 70.9917 100.706C71.007 100.65 70.9989 100.583 70.9689 100.52C70.939 100.457 70.8896 100.403 70.8312 100.37C70.7729 100.336 70.7101 100.326 70.6562 100.341C70.5088 100.385 70.3361 100.362 70.1728 100.276C70.0095 100.191 69.8675 100.048 69.7751 99.8779C69.7403 99.8177 69.6878 99.7686 69.6287 99.7409C69.5696 99.7131 69.5083 99.7088 69.4576 99.7289C69.4068 99.749 69.3706 99.7918 69.3563 99.8486C69.3421 99.9054 69.3509 99.9717 69.381 100.034C69.4921 100.244 69.6486 100.421 69.8253 100.559C69.5811 101.007 69.1176 102.232 69.9996 103.978C69.3791 103.875 68.7577 103.799 68.2712 103.994C67.9294 104.134 67.6312 104.349 67.3911 104.627C67.0963 104.495 66.017 103.931 65.8286 102.64C65.9457 102.578 66.0404 102.479 66.099 102.341C66.1103 102.315 66.1159 102.284 66.1154 102.252C66.1149 102.22 66.1084 102.187 66.0961 102.155C66.0839 102.122 66.0662 102.091 66.0441 102.063C66.022 102.035 65.9959 102.01 65.9673 101.991C65.9387 101.972 65.9081 101.958 65.8773 101.95C65.8465 101.942 65.8162 101.941 65.7879 101.946C65.7597 101.951 65.7341 101.962 65.7127 101.98C65.6913 101.997 65.6744 102.019 65.6631 102.046C65.6455 102.092 65.6173 102.131 65.5805 102.16C65.5438 102.189 65.4994 102.207 65.4504 102.212C65.4007 102.216 65.3481 102.208 65.2961 102.188C65.2441 102.168 65.194 102.137 65.149 102.098C65.1221 102.075 65.0925 102.057 65.062 102.045C65.0314 102.034 65.0004 102.028 64.9708 102.029C64.9111 102.03 64.8605 102.058 64.8303 102.106C64.8001 102.155 64.7927 102.219 64.8098 102.285C64.8268 102.352 64.8669 102.415 64.9212 102.461C65.0543 102.573 65.1968 102.65 65.3383 102.688C65.3557 102.693 65.3721 102.689 65.3894 102.692C65.6125 103.923 66.5062 104.677 67.1385 105.002C67.0558 105.162 67.0033 105.344 66.9833 105.539C66.9779 105.601 66.9972 105.67 67.0371 105.73C67.077 105.79 67.1342 105.836 67.1961 105.859L67.2172 105.865C67.2758 105.881 67.3322 105.873 67.3754 105.844C67.4186 105.815 67.4454 105.766 67.4506 105.707C67.5012 105.132 68.0434 104.662 68.5252 104.469C68.977 104.288 69.6383 104.402 70.2785 104.512C70.8994 104.62 71.4862 104.721 71.946 104.587ZM77.9757 105.473C77.9459 105.521 77.939 105.586 77.9565 105.652C77.9739 105.719 78.0144 105.781 78.069 105.827C78.1236 105.873 78.1877 105.897 78.2474 105.895C78.3071 105.893 78.3574 105.864 78.3872 105.816C78.3961 105.802 79.2505 104.374 77.6509 102.831C77.5994 102.782 77.5361 102.752 77.4751 102.748C77.4141 102.744 77.3604 102.766 77.3257 102.81C77.291 102.854 77.2783 102.916 77.2902 102.983C77.3022 103.049 77.3379 103.114 77.3894 103.164C78.6286 104.359 78.0029 105.427 77.9757 105.473ZM68.2618 98.9523C68.299 98.9623 68.3357 98.9629 68.3687 98.9543C68.4018 98.9456 68.4304 98.9278 68.4521 98.9024C69.1317 98.1058 70.0727 98.6928 70.1126 98.719C70.1703 98.7541 70.2332 98.7667 70.2879 98.754C70.3426 98.7413 70.385 98.7044 70.4059 98.6509C70.4269 98.5975 70.4249 98.5318 70.4003 98.4676C70.3758 98.4035 70.3306 98.346 70.2743 98.3072C69.8243 98.0139 68.7853 97.6811 68.0716 98.5175C68.0465 98.5471 68.0316 98.5857 68.0284 98.6293C68.0253 98.6729 68.034 98.7198 68.0536 98.7647C68.0733 98.8096 68.1031 98.8509 68.1399 98.884C68.1766 98.9171 68.2188 98.9407 68.2618 98.9523ZM74.3881 99.6778C75.4309 99.8694 75.9052 100.779 75.9268 100.822C75.9583 100.886 76.0098 100.94 76.07 100.972C76.0998 100.988 76.1308 100.998 76.1614 101.002C76.1919 101.006 76.2212 101.003 76.2478 100.994C76.2743 100.985 76.2976 100.97 76.3161 100.949C76.3347 100.929 76.3482 100.904 76.356 100.875C76.3637 100.846 76.3655 100.814 76.3613 100.782C76.357 100.749 76.3468 100.716 76.3312 100.684C76.3059 100.633 75.7032 99.4397 74.3516 99.1843C74.3209 99.1785 74.291 99.1792 74.2636 99.1863C74.2362 99.1934 74.2117 99.2068 74.1917 99.2257C74.1514 99.2637 74.1314 99.3219 74.1362 99.3874C74.1411 99.4528 74.1704 99.5202 74.2176 99.5746C74.2648 99.6291 74.3262 99.6662 74.3881 99.6778ZM78.6764 107.916C78.5611 107.878 78.4341 107.939 78.4238 108.07C78.4228 108.078 78.3483 108.884 77.5286 108.943C77.475 108.946 77.4293 108.971 77.3998 109.012C77.3702 109.054 77.3589 109.11 77.3678 109.17C77.3768 109.229 77.4054 109.289 77.4484 109.338C77.4914 109.387 77.546 109.422 77.6022 109.436C77.627 109.443 77.6517 109.445 77.6753 109.443C78.787 109.364 78.8873 108.282 78.891 108.235C78.8936 108.204 78.8901 108.171 78.8807 108.138C78.8713 108.106 78.8562 108.073 78.8362 108.044C78.8163 108.014 78.7919 107.987 78.7645 107.966C78.737 107.944 78.7071 107.927 78.6764 107.916Z" fill="#EEEEEE"/>
<path d="M67.0779 102.45C67.0687 102.478 67.0656 102.51 67.0689 102.543C67.0721 102.577 67.0817 102.611 67.0969 102.643C67.1121 102.676 67.1327 102.706 67.1575 102.733C67.1822 102.76 67.2106 102.782 67.241 102.799C67.2714 102.815 67.3031 102.826 67.3342 102.83C67.3654 102.833 67.3953 102.831 67.4223 102.821C67.4493 102.812 67.4727 102.796 67.4913 102.774C67.5098 102.753 67.523 102.727 67.5302 102.697C67.5753 102.541 67.6802 102.425 67.8239 102.372C67.9675 102.319 68.1392 102.334 68.3044 102.412C68.3345 102.427 68.3656 102.436 68.3958 102.438C68.4261 102.44 68.4549 102.436 68.4807 102.425C68.5064 102.415 68.5286 102.398 68.546 102.376C68.5634 102.355 68.5755 102.328 68.5818 102.299C68.5882 102.269 68.5885 102.237 68.5828 102.204C68.5771 102.172 68.5655 102.139 68.5486 102.108C68.5318 102.076 68.51 102.048 68.4846 102.023C68.4592 101.998 68.4306 101.978 68.4005 101.963C68.2055 101.87 68.0033 101.83 67.8156 101.848C67.2691 100.734 67.3755 99.8088 67.3769 99.799C67.3852 99.7375 67.3686 99.6685 67.3309 99.6072C67.2932 99.546 67.2375 99.4975 67.1759 99.4725C67.1145 99.4478 67.0525 99.4484 67.0032 99.4739C66.9539 99.4995 66.9213 99.548 66.9125 99.6091C66.9064 99.6545 66.7813 100.698 67.4107 101.981C67.2505 102.087 67.135 102.25 67.0779 102.45ZM72.3171 102.655C72.4107 102.592 72.5329 102.577 72.6594 102.612C72.7858 102.647 72.9071 102.73 72.999 102.845C73.0436 102.902 73.1036 102.942 73.1657 102.958C73.2278 102.974 73.287 102.963 73.3303 102.928C73.3736 102.894 73.3974 102.838 73.3966 102.774C73.3957 102.709 73.3702 102.641 73.3256 102.584C73.2198 102.451 73.0919 102.34 72.9521 102.258C73.0908 101.803 73.036 101.569 72.9071 101.125C72.8816 101.038 72.8571 100.95 72.8335 100.863L72.8195 100.811C72.6489 100.179 72.5359 99.7622 72.8602 99.3032C72.8928 99.2571 72.903 99.1939 72.8886 99.1274C72.8742 99.061 72.8363 98.9967 72.7834 98.9488C72.7304 98.9009 72.6667 98.8733 72.6062 98.872C72.5458 98.8707 72.4935 98.8959 72.4609 98.942C72.026 99.5571 72.1858 100.148 72.371 100.831L72.385 100.884C72.4125 100.985 72.438 101.075 72.4614 101.155C72.5772 101.555 72.6123 101.688 72.4708 102.097C72.2936 102.082 72.1293 102.123 71.9974 102.215C71.9536 102.247 71.9283 102.301 71.9269 102.364C71.9254 102.427 71.948 102.494 71.9898 102.552C72.0316 102.609 72.0892 102.652 72.1504 102.672C72.2115 102.691 72.2713 102.685 72.3171 102.655ZM75.3001 102.006C75.4392 102.044 75.5768 102.049 75.7026 102.021C75.7589 102.009 75.8023 101.971 75.8234 101.916C75.8444 101.861 75.8414 101.794 75.8149 101.728C75.7884 101.663 75.7407 101.605 75.6822 101.568C75.6237 101.53 75.5592 101.516 75.503 101.529C75.3878 101.552 75.2569 101.525 75.1366 101.452C75.0162 101.378 74.9154 101.264 74.8544 101.133C74.8404 101.1 74.821 101.069 74.7972 101.041C74.7734 101.014 74.7457 100.99 74.7158 100.972C74.6859 100.954 74.6543 100.942 74.623 100.937C74.5918 100.932 74.5614 100.933 74.5337 100.941C74.506 100.949 74.4816 100.963 74.4619 100.983C74.4421 101.003 74.4276 101.029 74.419 101.057C74.4104 101.086 74.4079 101.119 74.4118 101.152C74.4157 101.185 74.4258 101.219 74.4415 101.251C74.5258 101.437 74.6514 101.599 74.7977 101.728C74.546 102.293 74.6889 103.004 74.8056 103.392C74.8146 103.426 74.8295 103.459 74.8495 103.489C74.8696 103.52 74.8943 103.547 74.9223 103.57C74.9503 103.592 74.9809 103.61 75.0123 103.621C75.0437 103.632 75.0753 103.636 75.1052 103.634C75.135 103.631 75.1626 103.622 75.1861 103.607C75.2097 103.591 75.2288 103.57 75.2422 103.544C75.2557 103.518 75.2633 103.488 75.2645 103.456C75.2658 103.424 75.2606 103.39 75.2495 103.356C75.1707 103.094 75.0179 102.442 75.2485 101.985C75.2663 101.991 75.2827 102.001 75.3001 102.006ZM77.5482 107.183C77.5464 107.151 77.5386 107.118 77.5251 107.085C77.5115 107.053 77.4927 107.022 77.4695 106.995C77.4464 106.968 77.4194 106.944 77.3902 106.926C77.361 106.908 77.3301 106.896 77.2994 106.89C77.187 106.868 77.0742 106.823 76.9674 106.757C76.8607 106.691 76.7621 106.606 76.6773 106.506C76.5925 106.407 76.5232 106.295 76.4734 106.177C76.4235 106.059 76.3941 105.937 76.3869 105.819C76.3815 105.754 76.3525 105.687 76.3059 105.633C76.2593 105.578 76.1988 105.54 76.1371 105.527C76.1064 105.521 76.0764 105.521 76.0488 105.528C76.0212 105.534 75.9966 105.548 75.9764 105.566C75.9561 105.585 75.9407 105.608 75.9308 105.636C75.921 105.664 75.9171 105.694 75.9192 105.727C75.9384 106.018 76.0438 106.305 76.2041 106.558C75.8273 106.916 75.3338 106.914 75.0587 106.874C74.8155 106.839 74.6027 106.756 74.3567 106.66C74.1312 106.573 73.8763 106.474 73.5609 106.399L73.5585 106.399C73.5492 106.258 73.5173 106.047 73.4156 105.851C73.3806 105.792 73.3287 105.744 73.2703 105.716C73.2118 105.689 73.1513 105.685 73.1009 105.704C73.0504 105.723 73.0139 105.765 72.9986 105.82C72.9834 105.875 72.9905 105.941 73.0186 106.003C73.0814 106.124 73.0932 106.293 73.0932 106.374C72.8569 106.399 72.6526 106.473 72.468 106.548C72.138 106.682 71.8779 106.788 71.4866 106.592C71.1323 106.413 70.7775 106.301 70.4766 106.264C70.4298 106.13 70.3557 105.964 70.2414 105.822C70.1962 105.765 70.1359 105.725 70.0738 105.711C70.0116 105.696 69.9527 105.707 69.91 105.743C69.8673 105.778 69.8443 105.834 69.8461 105.899C69.8478 105.964 69.8742 106.032 69.9194 106.088C69.9597 106.138 69.9916 106.204 70.0173 106.268C69.5004 106.35 69.2412 106.649 69.2291 106.663C69.2042 106.693 69.1895 106.732 69.1864 106.775C69.1834 106.819 69.1922 106.865 69.2119 106.91C69.2316 106.955 69.2614 106.996 69.2981 107.029C69.3348 107.062 69.3769 107.085 69.4198 107.097C69.4569 107.107 69.4934 107.108 69.5265 107.099C69.5596 107.091 69.5882 107.073 69.6101 107.048C69.6124 107.045 69.8697 106.757 70.3773 106.749C70.6397 106.745 71.0161 106.852 71.383 107.037C71.4857 107.089 71.5808 107.122 71.6731 107.148C71.7167 107.266 71.7336 107.396 71.7359 107.443C71.7393 107.506 71.7654 107.571 71.8089 107.626C71.8523 107.68 71.9099 107.719 71.9698 107.735L71.9824 107.738C72.0443 107.751 72.1023 107.738 72.1438 107.702C72.1854 107.665 72.207 107.608 72.2041 107.544C72.1964 107.428 72.1759 107.311 72.1432 107.194C72.3592 107.171 72.5472 107.095 72.7238 107.023C72.9919 106.914 73.2455 106.811 73.5768 106.889C73.8543 106.953 74.083 107.042 74.3037 107.128C74.5258 107.214 74.7442 107.29 74.9851 107.34C75.0278 107.474 75.0245 107.637 75.0179 107.69C75.014 107.723 75.017 107.759 75.0269 107.794C75.0368 107.83 75.0533 107.864 75.0753 107.896C75.0973 107.928 75.1243 107.956 75.1545 107.978C75.1848 108 75.2176 108.017 75.2509 108.026C75.3077 108.041 75.3625 108.034 75.4052 108.007C75.4479 107.979 75.4755 107.933 75.4828 107.877C75.4999 107.722 75.4905 107.559 75.4552 107.393C75.8828 107.39 76.266 107.244 76.5542 106.974C76.7865 107.185 77.0578 107.328 77.3303 107.382C77.3922 107.395 77.4498 107.381 77.4907 107.343C77.5315 107.306 77.5522 107.248 77.5482 107.183Z" fill="#EEEEEE"/>
</g>
<path d="M40.5625 51.1266H90.5134C93.8271 51.1266 96.5134 53.8129 96.5134 57.1266V59.2318C96.5134 62.5455 99.1997 65.2318 102.513 65.2318H134.598" stroke="url(#paint8_linear_4975_11190)" stroke-opacity="0.5" stroke-linecap="round"/>
<circle cx="2.95261" cy="2.95261" r="2.95261" transform="matrix(1 0 0 -1 131.781 68.3181)" fill="#ACD4A7"/>
<circle cx="1.7714" cy="1.7714" r="1.7714" transform="matrix(1 0 0 -1 132.965 67.1344)" fill="#389D2D"/>
<path d="M49.9844 169.874H99.9353C103.249 169.874 105.935 167.188 105.935 163.874V161.769C105.935 158.455 108.622 155.769 111.935 155.769H144.019" stroke="url(#paint9_linear_4975_11190)" stroke-opacity="0.5" stroke-linecap="round"/>
<circle cx="144.152" cy="155.638" r="2.95261" fill="#ACD4A7"/>
<circle cx="144.143" cy="155.638" r="1.7714" fill="#389D2D"/>
<path d="M155.766 54.2103H205.717C209.03 54.2103 211.717 51.524 211.717 48.2103V46.1051C211.717 42.7914 214.403 40.1051 217.717 40.1051H249.801" stroke="url(#paint10_linear_4975_11190)" stroke-opacity="0.5" stroke-linecap="round"/>
<circle cx="249.925" cy="39.9728" r="2.95261" fill="#ACD4A7"/>
<circle cx="249.92" cy="39.9731" r="1.7714" fill="#389D2D"/>
<path d="M184.562 78.8659H226.121C229.434 78.8659 232.121 76.1796 232.121 72.8659V70.7606C232.121 67.4469 234.807 64.7606 238.121 64.7606H264.492" stroke="url(#paint11_linear_4975_11190)" stroke-opacity="0.5" stroke-linecap="round" stroke-dasharray="13 13"/>
<circle cx="264.167" cy="64.8925" r="2.95261" fill="#ACD4A7"/>
<circle cx="264.15" cy="64.8905" r="1.7714" fill="#389D2D"/>
<path d="M200.18 41.2528H158.621C155.308 41.2528 152.621 38.5665 152.621 35.2528V33.1476C152.621 29.8339 149.935 27.1476 146.621 27.1476H120.25" stroke="url(#paint12_linear_4975_11190)" stroke-opacity="0.5" stroke-linecap="round" stroke-dasharray="13 13"/>
<circle cx="2.95261" cy="2.95261" r="2.95261" transform="matrix(-1 0 0 1 123.543 24.3243)" fill="#ACD4A7"/>
<circle cx="1.7714" cy="1.7714" r="1.7714" transform="matrix(-1 0 0 1 122.359 25.5058)" fill="#389D2D"/>
<path d="M241.59 179.954H200.032C196.718 179.954 194.032 177.268 194.032 173.954V171.849C194.032 168.535 191.345 165.849 188.032 165.849H161.66" stroke="url(#paint13_linear_4975_11190)" stroke-opacity="0.5" stroke-linecap="round" stroke-dasharray="13 13"/>
<circle cx="2.95261" cy="2.95261" r="2.95261" transform="matrix(-1 0 0 1 164.965 163.029)" fill="#ACD4A7"/>
<circle cx="1.7714" cy="1.7714" r="1.7714" transform="matrix(-1 0 0 1 163.781 164.211)" fill="#389D2D"/>
<path d="M190.562 154.094H240.513C243.827 154.094 246.513 156.78 246.513 160.094V162.199C246.513 165.513 249.2 168.199 252.513 168.199H284.598" stroke="url(#paint14_linear_4975_11190)" stroke-opacity="0.5" stroke-linecap="round"/>
<circle cx="2.95261" cy="2.95261" r="2.95261" transform="matrix(1 0 0 -1 281.777 171.287)" fill="#ACD4A7"/>
<circle cx="1.7714" cy="1.7714" r="1.7714" transform="matrix(1 0 0 -1 282.961 170.106)" fill="#389D2D"/>
<path d="M157.656 66.0583C157.656 62.7446 160.343 60.0583 163.656 60.0583H222.183C225.496 60.0583 228.183 62.7446 228.183 66.0583V143.392C228.183 146.705 225.496 149.392 222.183 149.392H163.656C160.343 149.392 157.656 146.705 157.656 143.392V66.0583Z" fill="url(#paint15_linear_4975_11190)"/>
<path d="M157.656 66.0583C157.656 62.7446 160.343 60.0583 163.656 60.0583H222.183C225.496 60.0583 228.183 62.7446 228.183 66.0583V143.392C228.183 146.705 225.496 149.392 222.183 149.392H163.656C160.343 149.392 157.656 146.705 157.656 143.392V66.0583Z" fill="url(#paint16_linear_4975_11190)"/>
<path d="M157.652 66.0575C157.652 62.7438 160.339 60.0575 163.652 60.0575H222.179C225.492 60.0575 228.179 62.7438 228.179 66.0575V143.391C228.179 146.705 225.492 149.391 222.179 149.391H163.652C160.339 149.391 157.652 146.705 157.652 143.391V66.0575Z" fill="url(#paint17_linear_4975_11190)"/>
<path d="M157.652 66.0575C157.652 62.7438 160.339 60.0575 163.652 60.0575H222.179C225.492 60.0575 228.179 62.7438 228.179 66.0575V143.391C228.179 146.705 225.492 149.391 222.179 149.391H163.652C160.339 149.391 157.652 146.705 157.652 143.391V66.0575Z" fill="url(#paint18_linear_4975_11190)"/>
<path fill-rule="evenodd" clip-rule="evenodd" d="M203.038 91.0117C203.038 90.5255 202.647 90.131 202.165 90.131H186.095C185.613 90.131 185.223 90.5255 185.223 91.0117V114.938C185.223 115.424 185.613 115.819 186.095 115.819H194.386C195.155 115.819 195.592 114.842 195.211 114.167C194.523 112.95 194.13 111.541 194.13 110.039C194.13 109.307 194.223 108.597 194.399 107.921C194.536 107.389 194.164 106.828 193.62 106.828C193.199 106.828 192.858 106.483 192.858 106.059V105.14C192.858 104.653 193.248 104.259 193.73 104.259H195.107C195.271 104.259 195.403 104.392 195.403 104.557C195.403 104.856 195.812 104.983 196 104.753C197.516 102.883 199.821 101.69 202.402 101.69C202.745 101.69 203.038 101.419 203.038 101.072V91.0117ZM199.747 97.8372C200.229 97.8372 200.62 98.2318 200.62 98.7179V99.5255C200.62 100.012 200.229 100.406 199.747 100.406H188.768C188.286 100.406 187.895 100.012 187.895 99.5255V98.7179C187.895 98.2318 188.286 97.8372 188.768 97.8372H199.747ZM199.62 92.7C200.102 92.7 200.493 93.0937 200.493 93.5807V94.3874C200.493 94.8745 200.102 95.2682 199.62 95.2682H188.64C188.158 95.2682 187.768 94.8745 187.768 94.3874V93.5807C187.768 93.0937 188.158 92.7 188.64 92.7H199.62Z" fill="white"/>
<path fill-rule="evenodd" clip-rule="evenodd" d="M208.197 107.374C208.359 107.733 208.2 108.145 207.862 108.342C207.538 108.531 207.389 108.917 207.443 109.29C207.479 109.538 207.497 109.788 207.496 110.039C207.497 110.29 207.479 110.54 207.443 110.787C207.389 111.161 207.538 111.546 207.862 111.735C208.2 111.932 208.359 112.344 208.197 112.703C208.13 112.852 208.057 112.998 207.979 113.141L207.86 113.348C207.774 113.492 207.683 113.633 207.586 113.768C207.36 114.089 206.927 114.156 206.589 113.96C206.265 113.77 205.859 113.833 205.566 114.067C205.18 114.376 204.748 114.63 204.283 114.816C203.935 114.955 203.679 115.278 203.679 115.656C203.679 116.049 203.405 116.394 203.016 116.432C202.814 116.451 202.61 116.461 202.406 116.461C202.201 116.461 201.997 116.451 201.796 116.432C201.408 116.394 201.134 116.049 201.134 115.656C201.134 115.278 200.878 114.955 200.53 114.816C200.065 114.63 199.633 114.376 199.247 114.067C198.954 113.833 198.548 113.77 198.224 113.959C197.886 114.156 197.453 114.089 197.227 113.768C197.129 113.631 197.037 113.489 196.95 113.344L196.836 113.145C196.757 113 196.683 112.853 196.615 112.703C196.453 112.344 196.613 111.932 196.951 111.735C197.275 111.546 197.424 111.161 197.37 110.787C197.334 110.54 197.316 110.29 197.316 110.039C197.316 109.789 197.334 109.538 197.37 109.291C197.424 108.917 197.275 108.532 196.951 108.342C196.613 108.146 196.453 107.733 196.615 107.374C196.683 107.225 196.757 107.077 196.837 106.932L196.95 106.734C197.037 106.589 197.129 106.447 197.227 106.309C197.453 105.989 197.886 105.922 198.224 106.119C198.548 106.307 198.954 106.245 199.247 106.01C199.633 105.702 200.065 105.448 200.53 105.262C200.878 105.122 201.134 104.799 201.134 104.421C201.134 104.029 201.408 103.683 201.796 103.646C201.999 103.626 202.203 103.616 202.406 103.616C202.612 103.616 202.816 103.627 203.016 103.646C203.405 103.683 203.679 104.029 203.679 104.421C203.679 104.799 203.935 105.122 204.283 105.262C204.748 105.448 205.18 105.701 205.566 106.01C205.859 106.245 206.265 106.307 206.589 106.119C206.927 105.921 207.36 105.988 207.586 106.309C207.683 106.445 207.774 106.585 207.86 106.729L207.979 106.937C208.057 107.08 208.13 107.226 208.197 107.374ZM202.406 111.966C203.461 111.966 204.315 111.103 204.315 110.039C204.315 108.975 203.461 108.113 202.406 108.113C201.352 108.113 200.498 108.975 200.498 110.039C200.498 111.103 201.352 111.966 202.406 111.966Z" fill="#389D2D"/>
<defs>
<linearGradient id="paint0_linear_4975_11190" x1="206.54" y1="104.96" x2="85.4702" y2="104.725" gradientUnits="userSpaceOnUse">
<stop stop-color="#389D2D" stop-opacity="0.4"/>
<stop offset="1" stop-color="#389D2D" stop-opacity="0"/>
</linearGradient>
<linearGradient id="paint1_linear_4975_11190" x1="304.81" y1="104.96" x2="183.74" y2="104.725" gradientUnits="userSpaceOnUse">
<stop stop-color="#389D2D" stop-opacity="0.4"/>
<stop offset="1" stop-color="#389D2D" stop-opacity="0"/>
</linearGradient>
<linearGradient id="paint2_linear_4975_11190" x1="297.489" y1="122.042" x2="278.82" y2="92.1497" gradientUnits="userSpaceOnUse">
<stop stop-color="#F9F9F9" stop-opacity="0.8"/>
<stop offset="1" stop-color="#A7A7A7" stop-opacity="0.6"/>
</linearGradient>
<linearGradient id="paint3_linear_4975_11190" x1="313.047" y1="122.042" x2="294.379" y2="92.1497" gradientUnits="userSpaceOnUse">
<stop stop-color="#F9F9F9" stop-opacity="0.8"/>
<stop offset="1" stop-color="#A7A7A7" stop-opacity="0.6"/>
</linearGradient>
<linearGradient id="paint4_linear_4975_11190" x1="328.54" y1="122.042" x2="309.871" y2="92.1497" gradientUnits="userSpaceOnUse">
<stop stop-color="#F9F9F9" stop-opacity="0.8"/>
<stop offset="1" stop-color="#A7A7A7" stop-opacity="0.6"/>
</linearGradient>
<linearGradient id="paint5_linear_4975_11190" x1="99.6087" y1="122.041" x2="118.277" y2="92.1496" gradientUnits="userSpaceOnUse">
<stop stop-color="#F9F9F9" stop-opacity="0.8"/>
<stop offset="1" stop-color="#A7A7A7" stop-opacity="0.6"/>
</linearGradient>
<linearGradient id="paint6_linear_4975_11190" x1="79.3431" y1="122.042" x2="98.0117" y2="92.1497" gradientUnits="userSpaceOnUse">
<stop stop-color="#F9F9F9" stop-opacity="0.8"/>
<stop offset="1" stop-color="#A7A7A7" stop-opacity="0.6"/>
</linearGradient>
<linearGradient id="paint7_linear_4975_11190" x1="61.0345" y1="122.042" x2="79.7031" y2="92.1497" gradientUnits="userSpaceOnUse">
<stop stop-color="#F9F9F9" stop-opacity="0.8"/>
<stop offset="1" stop-color="#A7A7A7" stop-opacity="0.6"/>
</linearGradient>
<linearGradient id="paint8_linear_4975_11190" x1="40.5625" y1="58.1792" x2="134.598" y2="58.1792" gradientUnits="userSpaceOnUse">
<stop stop-color="#A7A7A7" stop-opacity="0"/>
<stop offset="1" stop-color="#414141" stop-opacity="0.6"/>
</linearGradient>
<linearGradient id="paint9_linear_4975_11190" x1="49.9844" y1="162.821" x2="144.019" y2="162.821" gradientUnits="userSpaceOnUse">
<stop stop-color="#A7A7A7" stop-opacity="0"/>
<stop offset="1" stop-color="#414141" stop-opacity="0.6"/>
</linearGradient>
<linearGradient id="paint10_linear_4975_11190" x1="155.766" y1="47.1577" x2="249.801" y2="47.1577" gradientUnits="userSpaceOnUse">
<stop stop-color="#A7A7A7" stop-opacity="0"/>
<stop offset="1" stop-color="#414141" stop-opacity="0.6"/>
</linearGradient>
<linearGradient id="paint11_linear_4975_11190" x1="184.562" y1="71.8133" x2="264.492" y2="71.8133" gradientUnits="userSpaceOnUse">
<stop stop-color="#A7A7A7" stop-opacity="0"/>
<stop offset="1" stop-color="#414141" stop-opacity="0.6"/>
</linearGradient>
<linearGradient id="paint12_linear_4975_11190" x1="200.18" y1="34.2002" x2="120.25" y2="34.2002" gradientUnits="userSpaceOnUse">
<stop stop-color="#A7A7A7" stop-opacity="0"/>
<stop offset="1" stop-color="#414141" stop-opacity="0.6"/>
</linearGradient>
<linearGradient id="paint13_linear_4975_11190" x1="241.59" y1="172.902" x2="161.66" y2="172.902" gradientUnits="userSpaceOnUse">
<stop stop-color="#A7A7A7" stop-opacity="0"/>
<stop offset="1" stop-color="#414141" stop-opacity="0.6"/>
</linearGradient>
<linearGradient id="paint14_linear_4975_11190" x1="190.562" y1="161.146" x2="284.598" y2="161.146" gradientUnits="userSpaceOnUse">
<stop stop-color="#A7A7A7" stop-opacity="0"/>
<stop offset="1" stop-color="#414141" stop-opacity="0.6"/>
</linearGradient>
<linearGradient id="paint15_linear_4975_11190" x1="204.207" y1="129.959" x2="201.381" y2="60.8229" gradientUnits="userSpaceOnUse">
<stop stop-color="#F9F9F9" stop-opacity="0.8"/>
<stop offset="1" stop-color="#A7A7A7" stop-opacity="0.6"/>
</linearGradient>
<linearGradient id="paint16_linear_4975_11190" x1="192.919" y1="60.0583" x2="192.919" y2="149.392" gradientUnits="userSpaceOnUse">
<stop/>
<stop offset="1" stop-color="#666666"/>
</linearGradient>
<linearGradient id="paint17_linear_4975_11190" x1="204.203" y1="129.958" x2="201.377" y2="60.8221" gradientUnits="userSpaceOnUse">
<stop stop-color="#F9F9F9" stop-opacity="0.8"/>
<stop offset="1" stop-color="#A7A7A7" stop-opacity="0.6"/>
</linearGradient>
<linearGradient id="paint18_linear_4975_11190" x1="192.916" y1="60.0575" x2="192.916" y2="149.391" gradientUnits="userSpaceOnUse">
<stop/>
<stop offset="1" stop-color="#666666"/>
</linearGradient>
<clipPath id="clip0_4975_11190">
<rect width="17.4669" height="17.4669" fill="white" transform="matrix(0.965926 0.258819 0 1 63.6328 93.3114)"/>
</clipPath>
</defs>
</svg>
