<svg width="544" height="292" fill="none" xmlns="http://www.w3.org/2000/svg"><ellipse cx="145.93" cy="145.93" rx="145.93" ry="145.929" fill="url(#a)" fill-opacity=".3"/><ellipse cx="298.047" cy="145.93" rx="145.93" ry="145.929" fill="url(#b)" fill-opacity=".3"/><path d="M373.372 140.552c0-6.07 4.645-13.422 9.852-15.593l61.243-25.531c4.281-1.785 7.468.602 7.468 5.593v45.312c0 6.07-4.645 13.422-9.852 15.593l-61.243 25.532c-4.281 1.784-7.468-.602-7.468-5.593v-45.313z" fill="url(#c)" fill-opacity=".3"/><path d="M397.452 140.552c0-6.07 4.645-13.422 9.852-15.593l61.243-25.531c4.281-1.785 7.468.602 7.468 5.593v45.312c0 6.07-4.645 13.422-9.852 15.593l-61.243 25.532c-4.281 1.784-7.468-.602-7.468-5.593v-45.313z" fill="url(#d)" fill-opacity=".4"/><path d="M421.437 140.552c0-6.07 4.645-13.422 9.852-15.593l61.243-25.531c4.281-1.785 7.468.602 7.468 5.593v45.312c0 6.07-4.645 13.422-9.852 15.593l-61.243 25.532c-4.281 1.784-7.468-.602-7.468-5.593v-45.313z" fill="url(#e)"/><path d="m452.023 155.004 4.804-5.799 4.803.252-4.803 5.799-4.804-.252z" fill="#878787"/><path fill-rule="evenodd" clip-rule="evenodd" d="m465.281 147.349-3.651 4.407v2.743l6.114-3.529c.969-.56 1.747-1.907 1.747-3.026v-16.136c0-.535-.184-.942-.512-1.131-.327-.189-.772-.145-1.235.122l-.873.505v7.059l-2.184-.252-2.183 2.773v-7.059l-5.241 3.025c-.463.268-.907.737-1.235 1.304-.328.568-.512 1.187-.512 1.722v8.613l1.311-1.584 8.454.444z" fill="#878787"/><path d="M459.883 152.573v2.017l-3.056 3.691-3.057-.161v-2.017l3.057.161 3.056-3.691z" fill="#878787"/><path d="M185.606 140.552c0-6.07-4.645-13.422-9.852-15.593l-61.243-25.532c-4.281-1.784-7.468.602-7.468 5.593v45.313c0 6.07 4.645 13.422 9.852 15.593l61.243 25.531c4.281 1.785 7.468-.602 7.468-5.593v-45.312z" fill="url(#f)" fill-opacity=".3"/><path d="M154.238 140.552c0-6.07-4.646-13.422-9.852-15.593L83.143 99.428c-4.282-1.785-7.469.602-7.469 5.593v45.312c0 6.07 4.646 13.422 9.853 15.593l61.243 25.531c4.281 1.785 7.468-.602 7.468-5.593v-45.312z" fill="url(#g)" fill-opacity=".4"/><path d="M125.893 140.552c0-6.07-4.646-13.422-9.853-15.593L54.797 99.427c-4.28-1.784-7.468.603-7.468 5.594v45.312c0 6.07 4.645 13.422 9.852 15.593l61.243 25.531c4.282 1.785 7.469-.602 7.469-5.593v-45.312z" fill="url(#h)"/><g clip-path="url(#i)"><path d="M92.324 153.737c.002.213-.05.477-.106.691-.385 1.508-2.096 2.857-4.503 2.048-2.183-.734-3.96-2.295-3.96-3.816 0-1.52 1.773-2.279 3.96-1.693 2.186.586 4.596 1.245 4.61 2.77z" fill="#878787"/><path d="M87.713 151.221c-1.174-.315-3.855-.697-4.47-.862-1.087-.291-1.968.179-1.968 1.05 0 .419.207.854.54 1.225 0 0 .73.953 2.044.942.575-.005 1.511-.936 3.159-.683.82.126 2.358 1.195 5.06 1.935.115-.227.14-.4.14-.4 0-1.523-2.318-2.621-4.505-3.207z" fill="#EEE"/><path d="M92.22 154.429s1.584.092 2.57-.986c1.148-1.256.997-2.971.997-2.971 1.163-1.941-.363-4.463-.363-4.463-.152-2.42-1.572-3.786-1.572-3.786-.922-2.516-2.962-3.672-2.962-3.672-1.602-2.369-4.444-3.068-4.444-3.068s-2.662-1.724-6.317-1.568c-.605.026-2.63-.079-4.112.463-4.669 1.708-5.022 6.228-4.957 6.996.362 4.29 3.204 5.803 5.017 6.727.424 1.302 1.98 3.91 4.776 3.846 3.446.297 4.897-.378 5.744-.151.847.227 3.204 1.797 5.623 2.633z" fill="#878787"/><path d="M83.504 145.352c1.69-.49 2.605-.157 3.413.136.257.092.5.176.746.241 1.44.352 2.605.036 3.121-.433a.312.312 0 0 0 .08-.248.508.508 0 0 0-.122-.283.484.484 0 0 0-.256-.162.285.285 0 0 0-.248.05c-.397.362-1.377.617-2.592.32-.217-.051-.436-.132-.662-.215-.867-.316-1.944-.706-3.824-.159-.483.14-1.144.063-1.86-.054-1.595-2.809-.636-4.626-.361-5.047.026.009.053.025.08.032.29.078.582.082.846-.002a.259.259 0 0 0 .162-.182.425.425 0 0 0-.035-.289.535.535 0 0 0-.213-.233.358.358 0 0 0-.271-.045c-.228.069-.495.034-.748-.099a1.518 1.518 0 0 1-.616-.617.527.527 0 0 0-.227-.212.335.335 0 0 0-.264-.019.262.262 0 0 0-.157.186.426.426 0 0 0 .038.286c.172.325.414.6.688.813-.378.694-1.096 2.591.27 5.293-.96-.159-1.923-.277-2.676.024-.53.217-.99.55-1.362.98-.457-.203-2.127-1.077-2.42-3.075a.921.921 0 0 0 .42-.463.334.334 0 0 0 .025-.137c0-.05-.011-.101-.03-.152a.549.549 0 0 0-.2-.253.444.444 0 0 0-.139-.064.326.326 0 0 0-.138-.006.265.265 0 0 0-.116.052.268.268 0 0 0-.077.103.398.398 0 0 1-.33.258.548.548 0 0 1-.238-.038.747.747 0 0 1-.228-.14.498.498 0 0 0-.135-.081.376.376 0 0 0-.14-.026.258.258 0 0 0-.218.121.354.354 0 0 0-.032.277c.026.103.088.2.172.271.206.174.427.293.646.352.027.007.052.001.08.007.344 1.905 1.728 3.072 2.707 3.575-.128.248-.21.529-.24.831a.471.471 0 0 0 .083.296c.061.093.15.165.246.199l.032.011c.091.024.178.012.245-.033a.281.281 0 0 0 .117-.213c.078-.89.917-1.617 1.663-1.917.7-.279 1.723-.103 2.714.067.962.167 1.87.323 2.581.116zm9.335 1.371a.358.358 0 0 0-.03.278c.027.103.09.201.174.271a.417.417 0 0 0 .276.105.257.257 0 0 0 .216-.122c.014-.022 1.337-2.233-1.14-4.62a.443.443 0 0 0-.271-.13.265.265 0 0 0-.232.097.334.334 0 0 0-.055.267.528.528 0 0 0 .154.281c1.918 1.849.95 3.504.908 3.573zM77.802 136.63a.311.311 0 0 0 .165.003.251.251 0 0 0 .13-.08c1.051-1.233 2.508-.325 2.57-.284.089.054.186.074.27.054a.254.254 0 0 0 .184-.159.396.396 0 0 0-.01-.284.541.541 0 0 0-.194-.248c-.697-.454-2.305-.97-3.41.325a.3.3 0 0 0-.067.173.448.448 0 0 0 .04.21c.03.069.076.133.133.184a.46.46 0 0 0 .189.106zm9.483 1.123c1.614.297 2.348 1.705 2.382 1.771a.535.535 0 0 0 .221.233c.047.025.095.04.142.046a.297.297 0 0 0 .134-.012.257.257 0 0 0 .167-.185.369.369 0 0 0 .008-.144.484.484 0 0 0-.046-.151c-.04-.079-.972-1.926-3.065-2.322a.311.311 0 0 0-.136.003.255.255 0 0 0-.111.061.307.307 0 0 0-.086.251.513.513 0 0 0 .39.449zm6.638 12.753c-.178-.059-.375.035-.39.238-.002.013-.118 1.26-1.386 1.352a.258.258 0 0 0-.2.107.332.332 0 0 0-.05.243.514.514 0 0 0 .125.261c.067.076.151.13.238.152a.34.34 0 0 0 .114.011c1.72-.123 1.876-1.798 1.881-1.87a.42.42 0 0 0-.016-.15.522.522 0 0 0-.316-.344z" fill="#EEE"/><path d="M75.966 142.044a.361.361 0 0 0-.014.145.48.48 0 0 0 .043.155.56.56 0 0 0 .094.139.503.503 0 0 0 .13.101.401.401 0 0 0 .144.048.294.294 0 0 0 .136-.013.253.253 0 0 0 .107-.072.281.281 0 0 0 .06-.12.736.736 0 0 1 .455-.503c.222-.082.488-.06.743.062a.396.396 0 0 0 .142.04.3.3 0 0 0 .131-.02.25.25 0 0 0 .101-.075.293.293 0 0 0 .056-.12.385.385 0 0 0 .001-.146.508.508 0 0 0-.152-.282.494.494 0 0 0-.13-.092 1.723 1.723 0 0 0-.905-.178c-.846-1.724-.681-3.157-.68-3.172a.461.461 0 0 0-.07-.297.52.52 0 0 0-.24-.209.319.319 0 0 0-.268.003.27.27 0 0 0-.14.209c-.01.07-.203 1.685.77 3.672a1.272 1.272 0 0 0-.514.725zm8.11.318a.633.633 0 0 1 .53-.067c.196.055.383.184.526.361.069.088.161.151.258.175a.288.288 0 0 0 .254-.046.292.292 0 0 0 .103-.239.499.499 0 0 0-.11-.294 2.101 2.101 0 0 0-.578-.504c.215-.706.13-1.067-.07-1.755a19.77 19.77 0 0 1-.114-.405l-.021-.081c-.264-.978-.44-1.623.063-2.334a.343.343 0 0 0 .044-.272.53.53 0 0 0-.163-.276.434.434 0 0 0-.274-.119.261.261 0 0 0-.225.108c-.674.952-.426 1.867-.14 2.925l.022.081c.043.157.082.297.118.42.18.62.234.826.015 1.458a1.111 1.111 0 0 0-.733.182.289.289 0 0 0-.109.231.487.487 0 0 0 .097.291.504.504 0 0 0 .249.186c.095.029.187.02.258-.026zm4.618-1.005a1.3 1.3 0 0 0 .623.024.256.256 0 0 0 .187-.163.401.401 0 0 0-.013-.291.54.54 0 0 0-.206-.248.374.374 0 0 0-.277-.061.792.792 0 0 1-.567-.119 1.156 1.156 0 0 1-.437-.493.543.543 0 0 0-.215-.249.452.452 0 0 0-.143-.055.32.32 0 0 0-.139.006.26.26 0 0 0-.177.181.366.366 0 0 0-.011.146.476.476 0 0 0 .046.154c.13.288.325.539.55.738-.389.875-.167 1.976.013 2.576a.53.53 0 0 0 .32.354.347.347 0 0 0 .144.02.257.257 0 0 0 .212-.139.318.318 0 0 0 .035-.136.441.441 0 0 0-.024-.155c-.122-.406-.358-1.414-.001-2.122.027.008.053.025.08.032zm3.48 8.015a.465.465 0 0 0-.036-.152.533.533 0 0 0-.209-.246.416.416 0 0 0-.14-.056 1.576 1.576 0 0 1-.514-.207 1.972 1.972 0 0 1-.765-.897 1.704 1.704 0 0 1-.134-.554.521.521 0 0 0-.125-.289.494.494 0 0 0-.262-.164.314.314 0 0 0-.136.002.256.256 0 0 0-.183.168.348.348 0 0 0-.018.14c.03.451.193.895.441 1.286-.583.554-1.347.552-1.773.489-.376-.054-.706-.182-1.087-.331-.349-.134-.743-.287-1.232-.403h-.003a2.183 2.183 0 0 0-.222-.848.523.523 0 0 0-.224-.209.342.342 0 0 0-.263-.02.26.26 0 0 0-.158.18.423.423 0 0 0 .031.283c.097.187.115.45.115.575-.365.038-.682.153-.967.27-.511.207-.914.371-1.52.067-.548-.277-1.097-.45-1.563-.507a2.337 2.337 0 0 0-.364-.685.488.488 0 0 0-.26-.172.288.288 0 0 0-.253.049.298.298 0 0 0-.1.243c.004.1.044.205.114.292.063.078.112.18.152.279-.8.127-1.201.589-1.22.612a.3.3 0 0 0-.066.173.447.447 0 0 0 .04.209c.03.069.076.133.133.184a.468.468 0 0 0 .188.105.32.32 0 0 0 .165.004.251.251 0 0 0 .13-.079c.003-.005.401-.45 1.187-.463.407-.007.989.159 1.557.445.159.08.306.132.45.173.067.182.093.383.096.456a.504.504 0 0 0 .113.282.492.492 0 0 0 .25.17l.019.004c.096.021.185 0 .25-.056a.3.3 0 0 0 .093-.245 2.663 2.663 0 0 0-.094-.54c.334-.036.625-.154.899-.265.415-.169.807-.329 1.32-.209.43.1.784.237 1.125.37.344.134.682.251 1.055.329.066.208.061.46.05.542a.419.419 0 0 0 .015.161.525.525 0 0 0 .347.359.296.296 0 0 0 .238-.03.274.274 0 0 0 .12-.201 2.359 2.359 0 0 0-.042-.748c.662-.005 1.255-.231 1.701-.649.36.327.78.548 1.201.632a.28.28 0 0 0 .249-.061.303.303 0 0 0 .089-.247z" fill="#EEE"/></g><path d="M34.932 62.596h80.611a6 6 0 0 1 6 6v9.835a6 6 0 0 0 6 6h52.954" stroke="url(#j)" stroke-opacity=".5" stroke-linecap="round"/><circle cx="4.571" cy="4.571" transform="matrix(1 0 0 -1 176.13 89.209)" fill="#ACD4A7" r="4.571"/><circle cx="2.742" cy="2.742" transform="matrix(1 0 0 -1 177.962 87.376)" fill="#389D2D" r="2.742"/><path d="M49.507 246.416h80.611a6 6 0 0 0 6-6v-9.835a6 6 0 0 1 6-6h52.955" stroke="url(#k)" stroke-opacity=".5" stroke-linecap="round"/><circle cx="195.276" cy="224.379" fill="#ACD4A7" r="4.571"/><circle cx="195.266" cy="224.379" fill="#389D2D" r="2.742"/><path d="M213.26 67.37h80.612a6 6 0 0 0 6-6v-9.835a6 6 0 0 1 6-6h52.954" stroke="url(#l)" stroke-opacity=".5" stroke-linecap="round"/><circle cx="359.02" cy="45.331" fill="#ACD4A7" r="4.571"/><circle cx="359.01" cy="45.331" fill="#389D2D" r="2.742"/><path d="M257.837 105.537h67.62a6 6 0 0 0 6-6v-9.835a6 6 0 0 1 6-6h44.111" stroke="url(#m)" stroke-opacity=".5" stroke-linecap="round" stroke-dasharray="13 13"/><circle cx="381.063" cy="83.906" fill="#ACD4A7" r="4.571"/><circle cx="381.039" cy="83.903" fill="#389D2D" r="2.742"/><path d="M282.015 47.312h-67.62a6 6 0 0 1-6-6v-9.835a6 6 0 0 0-6-6h-44.111" stroke="url(#n)" stroke-opacity=".5" stroke-linecap="round" stroke-dasharray="13 13"/><circle cx="4.571" cy="4.571" transform="matrix(-1 0 0 1 163.388 21.107)" fill="#ACD4A7" r="4.571"/><circle cx="2.742" cy="2.742" transform="matrix(-1 0 0 1 161.555 22.935)" fill="#389D2D" r="2.742"/><path d="M346.117 262.02h-67.619a6 6 0 0 1-6-6v-9.834a6 6 0 0 0-6-6h-44.111" stroke="url(#o)" stroke-opacity=".5" stroke-linecap="round" stroke-dasharray="13 13"/><circle cx="4.571" cy="4.571" transform="matrix(-1 0 0 1 227.5 235.821)" fill="#ACD4A7" r="4.571"/><circle cx="2.742" cy="2.742" transform="matrix(-1 0 0 1 225.667 237.65)" fill="#389D2D" r="2.742"/><path d="M267.124 221.988h80.612a6 6 0 0 1 6 6v9.835a6 6 0 0 0 6 6h52.954" stroke="url(#p)" stroke-opacity=".5" stroke-linecap="round"/><circle cx="4.571" cy="4.571" transform="matrix(1 0 0 -1 408.324 248.604)" fill="#ACD4A7" r="4.571"/><circle cx="2.742" cy="2.742" transform="matrix(1 0 0 -1 410.157 246.775)" fill="#389D2D" r="2.742"/><path d="M216.187 82.422a6 6 0 0 1 6-6h97.174a6 6 0 0 1 6 6V208.71a6 6 0 0 1-6 6h-97.174a6 6 0 0 1-6-6V82.422z" fill="url(#q)"/><path d="M216.187 82.422a6 6 0 0 1 6-6h97.174a6 6 0 0 1 6 6V208.71a6 6 0 0 1-6 6h-97.174a6 6 0 0 1-6-6V82.422z" fill="url(#r)"/><path d="M216.181 82.421a6 6 0 0 1 6-6h97.174a6 6 0 0 1 6 6V208.71a6 6 0 0 1-6 6h-97.174a6 6 0 0 1-6-6V82.421z" fill="url(#s)"/><path d="M216.181 82.421a6 6 0 0 1 6-6h97.174a6 6 0 0 1 6 6V208.71a6 6 0 0 1-6 6h-97.174a6 6 0 0 1-6-6V82.421z" fill="url(#t)"/><path fill-rule="evenodd" clip-rule="evenodd" d="M286.435 124.338c0-.752-.604-1.363-1.35-1.363h-24.877c-.746 0-1.35.611-1.35 1.363v37.038c0 .753.604 1.363 1.35 1.363h12.835c1.19 0 1.866-1.512 1.277-2.556a12.947 12.947 0 0 1-1.673-6.391c0-1.133.144-2.232.415-3.278.213-.823-.363-1.693-1.205-1.693-.652 0-1.18-.533-1.18-1.19v-1.422c0-.754.604-1.363 1.35-1.363h2.132c.253 0 .457.205.457.46 0 .463.634.66.924.303 2.348-2.894 5.916-4.74 9.91-4.74.532 0 .985-.42.985-.957v-15.574zm-5.093 10.566c.746 0 1.351.611 1.351 1.363v1.251c0 .752-.605 1.363-1.351 1.363h-16.997a1.358 1.358 0 0 1-1.351-1.363v-1.251c0-.752.605-1.363 1.351-1.363h16.997zm-.197-7.952c.746 0 1.351.609 1.351 1.363v1.249c0 .754-.605 1.363-1.351 1.363h-16.997a1.356 1.356 0 0 1-1.351-1.363v-1.249c0-.754.605-1.363 1.351-1.363h16.997z" fill="#fff"/><path fill-rule="evenodd" clip-rule="evenodd" d="M294.422 149.668c.251.555.005 1.193-.518 1.498-.502.292-.733.889-.65 1.467.056.383.084.77.083 1.159.001.388-.027.775-.083 1.159-.083.578.148 1.175.65 1.467.523.305.769.943.518 1.498-.104.23-.216.457-.338.677l-.184.322a9.783 9.783 0 0 1-.423.65c-.351.497-1.022.6-1.545.296-.501-.293-1.129-.196-1.583.167a7.822 7.822 0 0 1-1.986 1.158c-.539.216-.935.716-.935 1.301 0 .61-.425 1.143-1.026 1.201a9.894 9.894 0 0 1-1.888 0c-.601-.058-1.026-.591-1.026-1.201 0-.585-.396-1.085-.935-1.301a7.822 7.822 0 0 1-1.986-1.158c-.454-.363-1.082-.46-1.583-.168-.523.305-1.194.202-1.544-.295a9.608 9.608 0 0 1-.428-.657l-.176-.308a9.69 9.69 0 0 1-.342-.684c-.251-.555-.005-1.193.518-1.498.502-.292.734-.889.65-1.467a7.887 7.887 0 0 1-.083-1.159 7.874 7.874 0 0 1 .083-1.158c.084-.579-.148-1.175-.65-1.468-.523-.304-.769-.943-.518-1.498.105-.232.219-.461.342-.685l.176-.306c.134-.225.276-.445.428-.659.35-.495 1.021-.598 1.543-.294.502.291 1.13.196 1.584-.168a7.915 7.915 0 0 1 1.986-1.159c.539-.215.935-.716.935-1.301 0-.608.425-1.142 1.026-1.199a9.294 9.294 0 0 1 1.888 0c.601.057 1.026.591 1.026 1.199 0 .585.396 1.086.935 1.301.72.289 1.388.68 1.986 1.159.454.364 1.082.459 1.583.168.523-.306 1.194-.202 1.545.294.149.211.29.428.423.65l.184.322c.122.222.234.447.338.678zm-8.964 7.107c1.632 0 2.955-1.336 2.955-2.983s-1.323-2.982-2.955-2.982c-1.632 0-2.955 1.335-2.955 2.982 0 1.647 1.323 2.983 2.955 2.983z" fill="#389D2D"/><defs><linearGradient id="l" x1="213.26" y1="56.453" x2="358.826" y2="56.453" gradientUnits="userSpaceOnUse"><stop stop-color="#A7A7A7" stop-opacity="0"/><stop offset="1" stop-color="#414141" stop-opacity=".6"/></linearGradient><linearGradient id="a" x1="291.859" y1="145.93" x2="104.443" y2="145.566" gradientUnits="userSpaceOnUse"><stop stop-color="#389D2D" stop-opacity=".4"/><stop offset="1" stop-color="#389D2D" stop-opacity="0"/></linearGradient><linearGradient id="c" x1="432.65" y1="172.372" x2="403.751" y2="126.1" gradientUnits="userSpaceOnUse"><stop stop-color="#F9F9F9" stop-opacity=".8"/><stop offset="1" stop-color="#A7A7A7" stop-opacity=".6"/></linearGradient><linearGradient id="d" x1="456.73" y1="172.372" x2="427.831" y2="126.1" gradientUnits="userSpaceOnUse"><stop stop-color="#F9F9F9" stop-opacity=".8"/><stop offset="1" stop-color="#A7A7A7" stop-opacity=".6"/></linearGradient><linearGradient id="e" x1="480.715" y1="172.372" x2="451.816" y2="126.1" gradientUnits="userSpaceOnUse"><stop stop-color="#F9F9F9" stop-opacity=".8"/><stop offset="1" stop-color="#A7A7A7" stop-opacity=".6"/></linearGradient><linearGradient id="f" x1="126.328" y1="172.372" x2="155.227" y2="126.1" gradientUnits="userSpaceOnUse"><stop stop-color="#F9F9F9" stop-opacity=".8"/><stop offset="1" stop-color="#A7A7A7" stop-opacity=".6"/></linearGradient><linearGradient id="g" x1="94.96" y1="172.372" x2="123.858" y2="126.1" gradientUnits="userSpaceOnUse"><stop stop-color="#F9F9F9" stop-opacity=".8"/><stop offset="1" stop-color="#A7A7A7" stop-opacity=".6"/></linearGradient><linearGradient id="h" x1="66.614" y1="172.372" x2="95.513" y2="126.1" gradientUnits="userSpaceOnUse"><stop stop-color="#F9F9F9" stop-opacity=".8"/><stop offset="1" stop-color="#A7A7A7" stop-opacity=".6"/></linearGradient><linearGradient id="j" x1="34.932" y1="73.514" x2="180.497" y2="73.514" gradientUnits="userSpaceOnUse"><stop stop-color="#A7A7A7" stop-opacity="0"/><stop offset="1" stop-color="#414141" stop-opacity=".6"/></linearGradient><linearGradient id="k" x1="49.507" y1="235.499" x2="195.073" y2="235.499" gradientUnits="userSpaceOnUse"><stop stop-color="#A7A7A7" stop-opacity="0"/><stop offset="1" stop-color="#414141" stop-opacity=".6"/></linearGradient><linearGradient id="b" x1="443.977" y1="145.93" x2="256.561" y2="145.566" gradientUnits="userSpaceOnUse"><stop stop-color="#389D2D" stop-opacity=".4"/><stop offset="1" stop-color="#389D2D" stop-opacity="0"/></linearGradient><linearGradient id="m" x1="257.837" y1="94.619" x2="381.568" y2="94.619" gradientUnits="userSpaceOnUse"><stop stop-color="#A7A7A7" stop-opacity="0"/><stop offset="1" stop-color="#414141" stop-opacity=".6"/></linearGradient><linearGradient id="n" x1="282.015" y1="36.395" x2="158.284" y2="36.395" gradientUnits="userSpaceOnUse"><stop stop-color="#A7A7A7" stop-opacity="0"/><stop offset="1" stop-color="#414141" stop-opacity=".6"/></linearGradient><linearGradient id="o" x1="346.117" y1="251.103" x2="222.387" y2="251.103" gradientUnits="userSpaceOnUse"><stop stop-color="#A7A7A7" stop-opacity="0"/><stop offset="1" stop-color="#414141" stop-opacity=".6"/></linearGradient><linearGradient id="p" x1="267.124" y1="232.906" x2="412.69" y2="232.906" gradientUnits="userSpaceOnUse"><stop stop-color="#A7A7A7" stop-opacity="0"/><stop offset="1" stop-color="#414141" stop-opacity=".6"/></linearGradient><linearGradient id="q" x1="288.247" y1="184.629" x2="283.873" y2="77.606" gradientUnits="userSpaceOnUse"><stop stop-color="#F9F9F9" stop-opacity=".8"/><stop offset="1" stop-color="#A7A7A7" stop-opacity=".6"/></linearGradient><linearGradient id="r" x1="270.774" y1="76.422" x2="270.774" y2="214.71" gradientUnits="userSpaceOnUse"><stop/><stop offset="1" stop-color="#666"/></linearGradient><linearGradient id="s" x1="288.241" y1="184.627" x2="283.867" y2="77.605" gradientUnits="userSpaceOnUse"><stop stop-color="#F9F9F9" stop-opacity=".8"/><stop offset="1" stop-color="#A7A7A7" stop-opacity=".6"/></linearGradient><linearGradient id="t" x1="270.768" y1="76.421" x2="270.768" y2="214.709" gradientUnits="userSpaceOnUse"><stop/><stop offset="1" stop-color="#666"/></linearGradient><clipPath id="i"><path fill="#fff" transform="matrix(.96593 .25882 0 1 70.636 127.898)" d="M0 0h27.039v27.039H0z"/></clipPath></defs></svg>