<svg width="151" height="304" fill="none" xmlns="http://www.w3.org/2000/svg"><path d="m76 303.207 2.887-5h-5.774l2.887 5zm0-25.54a2.667 2.667 0 1 0 0-5.334 2.667 2.667 0 0 0 0 5.334zm0 21.04h.5V275h-1v23.707h.5z" fill="url(#a)"/><path fill-rule="evenodd" clip-rule="evenodd" d="M68.052 108.83c4.235-2.44 11.1-2.44 15.335 0l53.627 30.906a4.998 4.998 0 0 1 2.503 4.265l.947 70.96c0 4.881-3.433 10.816-7.668 13.257L77.232 259.8a5 5 0 0 1-4.967-.015l-53.598-30.889C14.433 226.456 11 220.521 11 215.64l.002-70.127c0-1.766.93-3.4 2.45-4.301l54.6-32.382zm13.801.884 53.628 30.906a5 5 0 0 1 2.503 4.265l.946 70.96-.007.369c-.165 3.83-2.845 8.345-6.127 10.236l-55.564 31.582a5 5 0 0 1-4.967-.014l-53.598-30.889c-3.281-1.891-5.962-6.406-6.126-10.236l-.008-.369v-70.127a5 5 0 0 1 2.45-4.301l54.603-32.382.323-.178c3.405-1.773 8.663-1.713 11.944.178z" fill="url(#b)"/><path d="M137.986 144.885a5 5 0 0 0-2.503-4.265l-53.628-30.906c-3.282-1.891-8.539-1.951-11.944-.178l-.323.178-54.603 32.382a5 5 0 0 0-2.45 4.301v70.127l.008.369c.164 3.83 2.844 8.345 6.126 10.236l53.598 30.889a5 5 0 0 0 4.967.014l55.564-31.582c3.282-1.891 5.962-6.406 6.127-10.236l.007-.369-.946-70.96z" fill="#F9F9F9"/><path d="M76.04 225.08c-7.754 0-14.04-6.286-14.04-14.04S68.286 197 76.04 197s14.04 6.286 14.04 14.04-6.286 14.04-14.04 14.04zm1.276-22.336h-2.552v8.824l5.105 5.106 1.805-1.805-4.358-4.357v-7.768z" fill="#389D2D"/><path d="M139.113 213.972v-17.135" stroke="url(#c)"/><path d="M12.113 213.972v-17.135" stroke="url(#d)"/><path d="M12.164 154v46.645" stroke="url(#e)"/><path d="M11.98 201.277a6.98 6.98 0 1 0 0-13.96 6.98 6.98 0 0 0 0 13.96z" fill="#ACD4A7"/><path d="M11.98 198.486a4.188 4.188 0 1 0 0-8.376 4.188 4.188 0 0 0 0 8.376z" fill="#389D2D"/><path d="M139.164 154v46.645" stroke="url(#f)"/><path d="M138.98 201.277a6.98 6.98 0 1 0 0-13.96 6.98 6.98 0 0 0 0 13.96z" fill="#ACD4A7"/><path d="M138.981 198.486a4.188 4.188 0 1 0 0-8.376 4.188 4.188 0 0 0 0 8.376z" fill="#389D2D"/><path d="m72.595 117.138-47.83 27.615c-2.153 1.243-2.153 3.257 0 4.5l46.356 26.764c2.152 1.243 5.642 1.243 7.794 0l47.831-27.615c2.152-1.243 2.152-3.257 0-4.5l-46.357-26.764c-2.152-1.243-5.642-1.243-7.794 0z" stroke="#DDD"/><path d="M72.318 3.89 3.889 72.317a4.5 4.5 0 0 0 0 6.364l68.429 68.429a4.5 4.5 0 0 0 6.364 0l68.429-68.429a4.5 4.5 0 0 0 0-6.364L78.681 3.889a4.5 4.5 0 0 0-6.363 0z" fill="url(#g)" stroke="url(#h)"/><path d="M52.868 80.99c-.117 0-.208-.032-.272-.096a.404.404 0 0 1-.096-.272V70.174c0-.117.032-.208.096-.272a.339.339 0 0 1 .272-.112h4.384c.8 0 1.45.133 1.952.4.512.256.885.608 1.12 1.056.245.448.368.95.368 1.504 0 .437-.075.816-.224 1.136-.139.31-.315.565-.528.768a3.12 3.12 0 0 1-.624.448c.416.203.784.533 1.104.992.33.459.496 1.013.496 1.664a3.33 3.33 0 0 1-.4 1.616c-.267.49-.667.885-1.2 1.184-.523.288-1.173.432-1.952.432h-4.496zm1.2-1.296h3.088c.693 0 1.227-.187 1.6-.56a1.87 1.87 0 0 0 .56-1.376c0-.565-.187-1.03-.56-1.392-.373-.373-.907-.56-1.6-.56h-3.088v3.888zm0-5.168h2.944c.683 0 1.2-.155 1.552-.464.352-.32.528-.752.528-1.296s-.176-.96-.528-1.248c-.352-.288-.87-.432-1.552-.432h-2.944v3.44zm9.296 9.504a.37.37 0 0 1-.272-.112.346.346 0 0 1-.096-.256V73.038c0-.107.032-.192.096-.256a.37.37 0 0 1 .272-.112h.736a.32.32 0 0 1 .256.112.32.32 0 0 1 .112.256v.704a3.07 3.07 0 0 1 1.023-.88c.427-.235.96-.352 1.6-.352.598 0 1.105.101 1.52.304.427.203.774.48 1.04.832.278.352.486.752.624 1.2.14.448.214.928.224 1.44a8.793 8.793 0 0 1 0 1.088c-.01.501-.085.981-.224 1.44a3.677 3.677 0 0 1-.624 1.2 2.993 2.993 0 0 1-1.04.832c-.416.203-.922.304-1.52.304-.618 0-1.14-.112-1.567-.336a3.393 3.393 0 0 1-1.025-.864v3.712a.346.346 0 0 1-.096.256.339.339 0 0 1-.272.112h-.767zm3.392-4.176c.554 0 .986-.117 1.296-.352.32-.245.549-.56.688-.944.138-.395.218-.816.24-1.264.01-.31.01-.619 0-.928a4.255 4.255 0 0 0-.24-1.248 1.934 1.934 0 0 0-.688-.944c-.31-.245-.742-.368-1.297-.368-.522 0-.949.123-1.28.368-.32.245-.56.56-.72.944-.149.373-.234.757-.255 1.152-.011.17-.016.373-.016.608s.005.443.016.624c.01.373.096.741.255 1.104.171.363.422.661.752.896.331.235.747.352 1.248.352zm9.067 1.296c-1.099 0-1.974-.336-2.624-1.008-.65-.683-1.008-1.61-1.072-2.784a7.154 7.154 0 0 1-.016-.528c0-.224.005-.405.016-.544.042-.757.218-1.419.528-1.984.31-.576.73-1.019 1.264-1.328.544-.31 1.178-.464 1.904-.464.81 0 1.488.17 2.032.512.554.341.976.827 1.264 1.456.288.63.432 1.365.432 2.208v.272a.339.339 0 0 1-.112.272.346.346 0 0 1-.256.096h-5.536V77.47c.021.437.117.848.288 1.232.17.373.416.677.736.912s.704.352 1.152.352c.384 0 .704-.059.96-.176a2.61 2.61 0 0 0 .624-.384c.16-.15.266-.261.32-.336.096-.139.17-.219.224-.24a.518.518 0 0 1 .256-.048h.768c.106 0 .192.032.256.096.074.053.106.133.096.24-.01.16-.096.357-.256.592a3.18 3.18 0 0 1-.688.672c-.299.224-.662.41-1.088.56a4.76 4.76 0 0 1-1.472.208zm-2.176-4.928h4.384v-.048c0-.48-.09-.907-.272-1.28a2.022 2.022 0 0 0-.752-.88c-.33-.224-.726-.336-1.184-.336-.459 0-.854.112-1.184.336a2.06 2.06 0 0 0-.736.88c-.17.373-.256.8-.256 1.28v.048zm8.169 4.768a.346.346 0 0 1-.256-.096.346.346 0 0 1-.096-.256v-7.664c0-.085.032-.155.096-.208a.345.345 0 0 1 .224-.096h.816c.17 0 .304.085.4.256l2.72 5.088 2.736-5.088c.096-.17.23-.256.4-.256h.8c.085 0 .16.032.224.096a.258.258 0 0 1 .096.208v7.664a.346.346 0 0 1-.096.256.326.326 0 0 1-.24.096h-.784a.346.346 0 0 1-.256-.096.346.346 0 0 1-.096-.256v-6.384l.56.064-2.608 4.928a1.359 1.359 0 0 1-.192.288c-.075.085-.187.128-.336.128h-.416c-.139 0-.246-.043-.32-.128a1.995 1.995 0 0 1-.208-.288l-2.528-4.688.496-.048v6.128a.346.346 0 0 1-.096.256.346.346 0 0 1-.256.096h-.784zm15.738 0c-.117 0-.208-.032-.272-.096a.404.404 0 0 1-.096-.272v-2.608h-1.84v-.08c-1.003 0-1.75-.245-2.24-.736-.48-.501-.72-1.136-.72-1.904 0-.896.261-1.557.784-1.984.533-.427 1.333-.64 2.4-.64h2.752a.32.32 0 0 1 .256.112.32.32 0 0 1 .112.256v7.584a.37.37 0 0 1-.112.272.346.346 0 0 1-.256.096h-.768zm-5.072 0a.326.326 0 0 1-.24-.096.307.307 0 0 1-.096-.224c0-.043.005-.085.016-.128a.636.636 0 0 1 .096-.16l1.904-2.816 1.536.112-2.032 3.072a.872.872 0 0 1-.176.16.405.405 0 0 1-.24.08h-.768zm2.912-4.176h1.808V73.87h-1.68c-.597 0-1.04.107-1.328.32-.277.203-.416.57-.416 1.104 0 .437.128.8.384 1.088.267.288.677.432 1.232.432z" fill="#fff"/><path d="M72.98 13.435 12.498 73.917a4.5 4.5 0 0 0 0 6.364l59.157 59.157a4.5 4.5 0 0 0 6.364 0l60.482-60.482a4.5 4.5 0 0 0 0-6.364L79.344 13.435a4.5 4.5 0 0 0-6.364 0z" stroke="#A7A7A7" stroke-opacity=".3"/><defs><radialGradient id="c" cx="0" cy="0" r="1" gradientUnits="userSpaceOnUse"><stop stop-color="#389D2D" stop-opacity="0"/><stop offset="1" stop-color="#389D2D"/></radialGradient><radialGradient id="d" cx="0" cy="0" r="1" gradientUnits="userSpaceOnUse"><stop stop-color="#389D2D" stop-opacity="0"/><stop offset="1" stop-color="#389D2D"/></radialGradient><radialGradient id="e" cx="0" cy="0" r="1" gradientUnits="userSpaceOnUse"><stop stop-color="#389D2D" stop-opacity="0"/><stop offset="1" stop-color="#389D2D"/></radialGradient><radialGradient id="f" cx="0" cy="0" r="1" gradientUnits="userSpaceOnUse"><stop stop-color="#389D2D" stop-opacity="0"/><stop offset="1" stop-color="#389D2D"/></radialGradient><linearGradient id="a" x1="76.5" y1="303.207" x2="76.5" y2="275" gradientUnits="userSpaceOnUse"><stop stop-color="#4C4C4C"/><stop offset="1" stop-color="#878787"/></linearGradient><linearGradient id="b" x1="2.351" y1="184.405" x2="172.336" y2="184.405" gradientUnits="userSpaceOnUse"><stop stop-color="#737373" stop-opacity=".11"/><stop offset="1" stop-color="#D9D9D9" stop-opacity=".2"/></linearGradient><linearGradient id="g" x1="37.957" y1="38.25" x2="113.457" y2="113.75" gradientUnits="userSpaceOnUse"><stop/><stop offset="1" stop-color="#666"/></linearGradient><linearGradient id="h" x1="37.957" y1="38.25" x2="113.457" y2="113.75" gradientUnits="userSpaceOnUse"><stop/><stop offset="1" stop-color="#666"/></linearGradient></defs></svg>