<svg width="111" height="184" fill="none" xmlns="http://www.w3.org/2000/svg"><path fill-rule="evenodd" clip-rule="evenodd" d="M49.749 60.025c3.297-1.9 8.642-1.9 11.94 0L103.48 84.11a3.813 3.813 0 0 1 1.909 3.253l.737 55.295c0 3.8-2.672 8.421-5.969 10.321l-43.302 24.612a3.814 3.814 0 0 1-3.788-.011l-41.77-24.073c-3.297-1.9-5.97-6.521-5.97-10.321L5.33 88.54c0-1.346.71-2.593 1.869-3.28l42.55-25.235zm10.745.688 41.793 24.086a3.811 3.811 0 0 1 1.909 3.252l.738 55.295-.006.286c-.128 2.983-2.215 6.498-4.77 7.971l-43.302 24.612a3.812 3.812 0 0 1-3.788-.012l-41.77-24.072c-2.555-1.472-4.642-4.987-4.77-7.969l-.006-.288V89.228c0-1.346.71-2.593 1.868-3.28l42.553-25.235.252-.139c2.65-1.38 6.744-1.334 9.3.139z" fill="url(#a)"/><path d="M104.198 88.053a3.816 3.816 0 0 0-1.909-3.253L60.495 60.715c-2.555-1.473-6.648-1.52-9.3-.139l-.25.139L8.391 85.95a3.813 3.813 0 0 0-1.869 3.28v54.646l.006.287c.128 2.982 2.215 6.497 4.77 7.97l41.77 24.072a3.812 3.812 0 0 0 3.789.011l43.301-24.611c2.555-1.473 4.642-4.988 4.77-7.971l.006-.287-.737-55.294z" fill="url(#b)"/><path d="M104.198 88.053a3.816 3.816 0 0 0-1.909-3.253L60.495 60.715c-2.555-1.473-6.648-1.52-9.3-.139l-.25.139L8.391 85.95a3.813 3.813 0 0 0-1.869 3.28v54.646l.006.287c.128 2.982 2.215 6.497 4.77 7.97l41.77 24.072a3.812 3.812 0 0 0 3.789.011l43.301-24.611c2.555-1.473 4.642-4.988 4.77-7.971l.006-.287-.737-55.294z" fill="#F9F9F9"/><path d="m53.015 66.457-37.379 21.58c-1.641.949-1.641 2.485 0 3.433l36.231 20.918c1.642.948 4.303.948 5.945 0l37.378-21.58c1.642-.948 1.642-2.485 0-3.433L58.96 66.457c-1.642-.947-4.303-.947-5.945 0z" stroke="#DDD"/><path d="M55.096 124.687a6.098 6.098 0 0 1 6.1 6.099 6.16 6.16 0 0 1-1.251 3.705 9.698 9.698 0 0 0-3.461 2.241l-1.388.152a6.098 6.098 0 1 1 0-12.197zm-12.198 24.395v-3.049c0-3.233 5.047-5.885 11.436-6.099a10.006 10.006 0 0 0-.762 3.812c0 1.967.579 3.812 1.524 5.336H42.898zM65.019 136.886a2.287 2.287 0 0 1 2.287 2.287v.763h.762a2.29 2.29 0 0 1 2.287 2.287v6.099a2.287 2.287 0 0 1-2.287 2.287H58.92a2.287 2.287 0 0 1-2.287-2.287v-6.099a2.29 2.29 0 0 1 2.287-2.287h.762v-.763a2.288 2.288 0 0 1 2.287-2.287h3.05zm-3.05 1.525a.762.762 0 0 0-.762.762v.763h4.574v-.763a.762.762 0 0 0-.762-.762h-3.05z" fill="#389D2D"/><path d="M65.019 136.886a2.287 2.287 0 0 1 2.287 2.287v.763h.762a2.29 2.29 0 0 1 2.287 2.287v6.099a2.287 2.287 0 0 1-2.287 2.287H58.92a2.287 2.287 0 0 1-2.287-2.287v-6.099a2.29 2.29 0 0 1 2.287-2.287h.762v-.763a2.288 2.288 0 0 1 2.287-2.287h3.05zm-3.05 1.525a.762.762 0 0 0-.762.762v.763h4.574v-.763a.762.762 0 0 0-.762-.762h-3.05z" fill="#389D2D"/><path d="M104.895 131.144a5.434 5.434 0 1 0 .001-10.869 5.434 5.434 0 0 0-.001 10.869z" fill="#ACD4A7"/><path d="M104.901 128.97a3.261 3.261 0 1 0 0-6.522 3.261 3.261 0 0 0 0 6.522z" fill="#389D2D"/><path d="M55.544 184a5.435 5.435 0 1 0 0-10.87 5.435 5.435 0 0 0 0 10.87z" fill="#ACD4A7"/><path d="M55.55 181.826a3.26 3.26 0 1 0 0-6.522 3.26 3.26 0 0 0 0 6.522z" fill="#389D2D"/><path d="M5.583 131.144a5.434 5.434 0 1 0 0-10.869 5.434 5.434 0 0 0 0 10.869z" fill="#ACD4A7"/><path d="M5.581 128.97a3.26 3.26 0 1 0 0-6.522 3.26 3.26 0 0 0 0 6.522z" fill="#389D2D"/><path d="m52.983 2.427-40.72 40.72a3.432 3.432 0 0 0 0 4.854l40.72 40.72a3.432 3.432 0 0 0 4.853 0l40.72-40.72a3.432 3.432 0 0 0 0-4.853l-40.72-40.72a3.432 3.432 0 0 0-4.853 0z" fill="url(#c)" stroke="url(#d)"/><mask id="e" style="mask-type:luminance" maskUnits="userSpaceOnUse" x="40" y="30" width="30" height="30"><path d="M69.551 30.733h-28.98v28.981h28.98v-28.98z" fill="#fff"/></mask><g mask="url(#e)" fill="#EEE"><path d="M49.002 30.773c-.153.063-6.322 5.05-6.362 5.14-.017.05-.034.357-.034.68v.588l-.306.215c-.537.38-.486-.629-.486 9.373 0 8.355.005 8.864.096 8.972.125.142 7.002 3.917 7.206 3.951.079.011 4.301-1.03 9.537-2.35 8.564-2.167 9.408-2.393 9.527-2.523l.124-.148V39.06l-.124-.142c-.108-.118-.646-.316-2.82-1.03-2.461-.803-2.705-.877-2.886-.82-.107.034-.911.35-1.783.707l-1.585.651-.028-1.234c-.023-.917-.045-1.257-.102-1.325-.045-.05-.294-.164-.555-.248l-.475-.153v-.583c0-.572-.074-.912-.221-1.002-.136-.085-8.468-3.147-8.547-3.142a.603.603 0 0 0-.176.034zm2.774 4.744c.826.237 1.568.458 1.658.492l.153.057v1.783c0 1.607-.011 1.777-.096 1.811-.085.034-2.813-.487-3.226-.611l-.187-.063V37.08c0-1.053.017-1.93.04-1.947.062-.068.113-.051 1.658.385zm-3.594 1.89v1.89l-1.02.448c-.56.243-1.069.436-1.131.43-.108-.017-.114-.068-.125-1.658-.011-.906 0-1.67.029-1.704.073-.113 2.077-1.325 2.162-1.313.073.017.085.271.085 1.907zm8.349-.52c.515.14.968.288 1.007.316.051.04.068.442.068 1.653 0 1.376-.011 1.608-.085 1.636-.102.04-2.632-.464-2.728-.543-.096-.08-.108-3.385-.011-3.481.045-.046.164-.034.441.045.204.062.793.226 1.308.373zm-11.972.99c.017.074.023.781.017 1.574l-.017 1.443-.747.334c-.628.283-.764.323-.838.26-.073-.062-.085-.271-.085-1.42 0-1.223.012-1.365.102-1.438.215-.181 1.347-.866 1.438-.872.056-.006.113.045.13.119zm19.55 1.183c.33.09.72.21.873.255l.266.09v1.297c0 1.171-.012 1.301-.097 1.335-.05.023-.464-.034-.91-.124-.6-.12-.827-.187-.867-.26-.074-.136-.068-2.52.006-2.66.034-.058.073-.108.09-.108s.306.079.64.175zm2.582.747.623.181.017 1.234c.011 1.014 0 1.234-.068 1.262-.074.029-1.41-.232-1.512-.294-.062-.034-.068-2.53-.01-2.592.05-.045.169-.023.95.21zm-14.768 1.03c.86.142 1.585.272 1.613.29.029.016.051.814.051 1.81 0 1.54-.011 1.783-.085 1.812-.13.05-3.271-.21-3.35-.272-.057-.045-.074-.504-.074-1.941 0-1.03.017-1.897.04-1.914.062-.062.175-.05 1.805.215zm-3.713 1.868v1.897l-.125.028c-.073.017-.56.107-1.092.198-.685.113-.98.147-1.03.102-.057-.045-.074-.442-.074-1.693 0-1.545.006-1.636.108-1.703.18-.114 1.89-.714 2.06-.72l.153-.005v1.896zm7.953-1.183c.719.113 1.336.232 1.375.266.102.08.102 3.17-.005 3.255-.051.045-.442.034-1.387-.045-.725-.057-1.336-.125-1.37-.142-.062-.04-.08-3.436-.017-3.498.051-.05-.045-.062 1.404.164zm-11.644.6c.102.102.097 3.006 0 3.09-.13.097-1.471.3-1.556.227-.057-.045-.074-.362-.074-1.398 0-.736.023-1.364.045-1.404.035-.05 1.325-.554 1.49-.577.016-.006.056.023.095.062zm19.823.73c.419.068.798.148.838.182.05.04.068.373.068 1.313s-.017 1.273-.068 1.313c-.114.085-1.744-.062-1.806-.158-.057-.091-.068-2.536-.017-2.678.045-.119.08-.113.985.028zm2.236.363c.283.05.566.102.64.113l.124.028V45.863l-.736-.039c-.407-.023-.775-.05-.82-.068-.074-.028-.085-.237-.085-1.33V43.13h.186c.097 0 .413.04.69.085zm-13.059 2.988c.051.034.068.464.068 1.823 0 1.545-.011 1.777-.085 1.806-.135.05-3.22.175-3.328.13-.09-.034-.096-.198-.096-1.93 0-1.58.011-1.902.08-1.942.101-.056 3.26.051 3.361.113zm-5.4-.096c.08.028.091.25.091 1.896 0 1.676-.011 1.868-.09 1.902-.13.051-2.072-.147-2.157-.22-.108-.085-.108-3.3 0-3.368.034-.023.515-.085 1.058-.136.544-.051.996-.096 1.002-.102a.81.81 0 0 1 .096.028zm9.42.26c.05.046.067.442.067 1.63 0 1.19-.017 1.586-.068 1.63-.079.057-2.603.193-2.74.142-.067-.022-.079-.305-.079-1.737 0-.946.017-1.732.046-1.755.056-.068 2.688.023 2.773.09zm3.17.069c1.33.056 1.969.101 2.02.147.119.102.124 9.232.011 9.35-.107.102-4.064 1.099-4.189 1.048-.09-.034-.096-.351-.096-5.264 0-5.412 0-5.36.227-5.36.045 0 .956.039 2.026.078zm-16.156.067c.051.136.04 2.927-.017 3.017-.04.063-.17.063-.775.006-.402-.04-.764-.096-.798-.125-.085-.067-.108-2.683-.023-2.813.051-.073.617-.153 1.257-.17.249-.005.328.017.356.085zm20.627.148c.05.045.068.379.068 1.318 0 .94-.017 1.274-.068 1.314-.04.034-.448.073-.906.096-.787.034-.832.034-.889-.074-.096-.175-.084-2.58.012-2.677.062-.057.266-.074.894-.057.447.012.85.051.889.08zm2.122.096c.023.022.034.589.029 1.256l-.017 1.212-.72.05c-.39.029-.752.035-.803.018-.08-.034-.09-.199-.09-1.302 0-.697.016-1.285.045-1.313.05-.051 1.494.017 1.556.079zm-.05 3.322c.079.029.09.198.09 1.274 0 1.24 0 1.24-.125 1.268-.362.08-1.392.232-1.449.21-.05-.018-.067-.363-.067-1.32 0-.713.005-1.301.016-1.301.006-.006.329-.04.72-.08.39-.04.713-.073.718-.079.006 0 .046.012.096.028zm-2.016 1.534.012 1.32-.125.028c-.074.017-.47.09-.889.158-.645.113-.764.125-.832.057-.113-.12-.119-2.633 0-2.729.09-.073.929-.164 1.45-.152l.367.005.017 1.313zm-21.402-.996c.334.062.646.142.685.176.051.045.068.69.057 3.01-.017 2.775-.023 2.95-.119 2.967-.102.023-1.455-.685-1.523-.804-.056-.079-.056-5.377-.005-5.428.062-.062.26-.045.905.08zm13.704.345c.102.102.097 3.176 0 3.26-.096.074-2.615.488-2.728.448-.08-.034-.09-.238-.09-1.76v-1.733l.13-.028c.096-.022 1.84-.192 2.535-.249a.24.24 0 0 1 .153.062zm-10.29.29.934.18.017 3.663c.011 3.107 0 3.662-.068 3.684-.085.034-2.123-1.052-2.197-1.166-.05-.085-.062-6.458-.005-6.51.068-.067.373-.033 1.319.148zm6.34 1.844c0 1.33-.018 1.76-.069 1.806-.096.074-3.249.6-3.356.555-.074-.029-.085-.317-.085-1.92 0-1.448.017-1.907.073-1.952.097-.08 3.21-.345 3.34-.283.09.045.096.187.096 1.794z"/><path d="M59.138 47.047c-.107.107-.096 8.156.006 8.247.102.079 2.802.69 2.983.673l.142-.017.01-4.33c.012-2.383-.005-4.364-.028-4.404-.033-.05-.464-.096-1.488-.153-.793-.045-1.466-.085-1.494-.085-.034 0-.091.029-.13.069z"/></g><path d="M53.04 7.807 17.7 43.147a3.432 3.432 0 0 0 0 4.854l35.34 35.34a3.432 3.432 0 0 0 4.854 0l35.34-35.34a3.432 3.432 0 0 0 0-4.853l-35.34-35.34a3.432 3.432 0 0 0-4.853 0z" stroke="#A7A7A7" stroke-opacity=".3"/><defs><linearGradient id="a" x1="-1.406" y1="118.866" x2="130.943" y2="118.866" gradientUnits="userSpaceOnUse"><stop stop-color="#737373" stop-opacity=".11"/><stop offset="1" stop-color="#D9D9D9" stop-opacity=".2"/></linearGradient><linearGradient id="b" x1="-1.405" y1="118.868" x2="130.944" y2="118.868" gradientUnits="userSpaceOnUse"><stop stop-color="#737373" stop-opacity=".11"/><stop offset="1" stop-color="#D9D9D9" stop-opacity=".2"/></linearGradient><linearGradient id="c" x1="32.511" y1="22.899" x2="78.624" y2="69.012" gradientUnits="userSpaceOnUse"><stop/><stop offset="1" stop-color="#666"/></linearGradient><linearGradient id="d" x1="32.511" y1="22.899" x2="78.624" y2="69.012" gradientUnits="userSpaceOnUse"><stop/><stop offset="1" stop-color="#666"/></linearGradient></defs></svg>